  0
SECTION
  2
HEADER
  9
$ACADVER
  1
AC1027
  9
$ACADMAINTVER
 70
105
  9
$DWGCODEPAGE
  3
ANSI_1252
  9
$LASTSAVEDBY
  1
ezdxf
  9
$REQUIREDVERSIONS
160
0
  9
$INSBASE
 10
0.0
 20
0.0
 30
0.0
  9
$EXTMIN
 10
1e+20
 20
1e+20
 30
1e+20
  9
$EXTMAX
 10
-1e+20
 20
-1e+20
 30
-1e+20
  9
$LIMMIN
 10
0.0
 20
0.0
  9
$LIMMAX
 10
420.0
 20
297.0
  9
$ORTHOMODE
 70
0
  9
$REGENMODE
 70
1
  9
$FILLMODE
 70
1
  9
$QTEXTMODE
 70
0
  9
$MIRRTEXT
 70
1
  9
$LTSCALE
 40
1.0
  9
$ATTMODE
 70
1
  9
$TEXTSIZE
 40
2.5
  9
$TRACEWID
 40
1.0
  9
$TEXTSTYLE
  7
Standard
  9
$CLAYER
  8
0
  9
$CELTYPE
  6
ByLayer
  9
$CECOLOR
 62
256
  9
$CELTSCALE
 40
1.0
  9
$DISPSILH
 70
0
  9
$DIMSCALE
 40
1.0
  9
$DIMASZ
 40
2.5
  9
$DIMEXO
 40
0.625
  9
$DIMDLI
 40
3.75
  9
$DIMRND
 40
0.0
  9
$DIMDLE
 40
0.0
  9
$DIMEXE
 40
1.25
  9
$DIMTP
 40
0.0
  9
$DIMTM
 40
0.0
  9
$DIMTXT
 40
2.5
  9
$DIMCEN
 40
2.5
  9
$DIMTSZ
 40
0.0
  9
$DIMTOL
 70
0
  9
$DIMLIM
 70
0
  9
$DIMTIH
 70
0
  9
$DIMTOH
 70
0
  9
$DIMSE1
 70
0
  9
$DIMSE2
 70
0
  9
$DIMTAD
 70
1
  9
$DIMZIN
 70
8
  9
$DIMBLK
  1

  9
$DIMASO
 70
1
  9
$DIMSHO
 70
1
  9
$DIMPOST
  1

  9
$DIMAPOST
  1

  9
$DIMALT
 70
0
  9
$DIMALTD
 70
3
  9
$DIMALTF
 40
0.03937007874
  9
$DIMLFAC
 40
1.0
  9
$DIMTOFL
 70
1
  9
$DIMTVP
 40
0.0
  9
$DIMTIX
 70
0
  9
$DIMSOXD
 70
0
  9
$DIMSAH
 70
0
  9
$DIMBLK1
  1

  9
$DIMBLK2
  1

  9
$DIMSTYLE
  2
ISO-25
  9
$DIMCLRD
 70
0
  9
$DIMCLRE
 70
0
  9
$DIMCLRT
 70
0
  9
$DIMTFAC
 40
1.0
  9
$DIMGAP
 40
0.625
  9
$DIMJUST
 70
0
  9
$DIMSD1
 70
0
  9
$DIMSD2
 70
0
  9
$DIMTOLJ
 70
0
  9
$DIMTZIN
 70
8
  9
$DIMALTZ
 70
0
  9
$DIMALTTZ
 70
0
  9
$DIMUPT
 70
0
  9
$DIMDEC
 70
2
  9
$DIMTDEC
 70
2
  9
$DIMALTU
 70
2
  9
$DIMALTTD
 70
3
  9
$DIMTXSTY
  7
Standard
  9
$DIMAUNIT
 70
0
  9
$DIMADEC
 70
0
  9
$DIMALTRND
 40
0.0
  9
$DIMAZIN
 70
0
  9
$DIMDSEP
 70
44
  9
$DIMATFIT
 70
3
  9
$DIMFRAC
 70
0
  9
$DIMLDRBLK
  1

  9
$DIMLUNIT
 70
2
  9
$DIMLWD
 70
-2
  9
$DIMLWE
 70
-2
  9
$DIMTMOVE
 70
0
  9
$DIMFXL
 40
1.0
  9
$DIMFXLON
 70
0
  9
$DIMJOGANG
 40
0.785398163397
  9
$DIMTFILL
 70
0
  9
$DIMTFILLCLR
 70
0
  9
$DIMARCSYM
 70
0
  9
$DIMLTYPE
  6

  9
$DIMLTEX1
  6

  9
$DIMLTEX2
  6

  9
$DIMTXTDIRECTION
 70
0
  9
$LUNITS
 70
2
  9
$LUPREC
 70
4
  9
$SKETCHINC
 40
1.0
  9
$FILLETRAD
 40
10.0
  9
$AUNITS
 70
0
  9
$AUPREC
 70
2
  9
$MENU
  1
.
  9
$ELEVATION
 40
0.0
  9
$PELEVATION
 40
0.0
  9
$THICKNESS
 40
0.0
  9
$LIMCHECK
 70
0
  9
$CHAMFERA
 40
0.0
  9
$CHAMFERB
 40
0.0
  9
$CHAMFERC
 40
0.0
  9
$CHAMFERD
 40
0.0
  9
$SKPOLY
 70
0
  9
$TDCREATE
 40
2461003.018715278
  9
$TDUCREATE
 40
2458532.153996898
  9
$TDUPDATE
 40
2461003.018715278
  9
$TDUUPDATE
 40
2458532.1544311
  9
$TDINDWG
 40
0.0
  9
$TDUSRTIMER
 40
0.0
  9
$USRTIMER
 70
1
  9
$ANGBASE
 50
0.0
  9
$ANGDIR
 70
0
  9
$PDMODE
 70
0
  9
$PDSIZE
 40
0.0
  9
$PLINEWID
 40
0.0
  9
$SPLFRAME
 70
0
  9
$SPLINETYPE
 70
6
  9
$SPLINESEGS
 70
8
  9
$HANDSEED
  5
77
  9
$SURFTAB1
 70
6
  9
$SURFTAB2
 70
6
  9
$SURFTYPE
 70
6
  9
$SURFU
 70
6
  9
$SURFV
 70
6
  9
$UCSBASE
  2

  9
$UCSNAME
  2

  9
$UCSORG
 10
0.0
 20
0.0
 30
0.0
  9
$UCSXDIR
 10
1.0
 20
0.0
 30
0.0
  9
$UCSYDIR
 10
0.0
 20
1.0
 30
0.0
  9
$UCSORTHOREF
  2

  9
$UCSORTHOVIEW
 70
0
  9
$UCSORGTOP
 10
0.0
 20
0.0
 30
0.0
  9
$UCSORGBOTTOM
 10
0.0
 20
0.0
 30
0.0
  9
$UCSORGLEFT
 10
0.0
 20
0.0
 30
0.0
  9
$UCSORGRIGHT
 10
0.0
 20
0.0
 30
0.0
  9
$UCSORGFRONT
 10
0.0
 20
0.0
 30
0.0
  9
$UCSORGBACK
 10
0.0
 20
0.0
 30
0.0
  9
$PUCSBASE
  2

  9
$PUCSNAME
  2

  9
$PUCSORG
 10
0.0
 20
0.0
 30
0.0
  9
$PUCSXDIR
 10
1.0
 20
0.0
 30
0.0
  9
$PUCSYDIR
 10
0.0
 20
1.0
 30
0.0
  9
$PUCSORTHOREF
  2

  9
$PUCSORTHOVIEW
 70
0
  9
$PUCSORGTOP
 10
0.0
 20
0.0
 30
0.0
  9
$PUCSORGBOTTOM
 10
0.0
 20
0.0
 30
0.0
  9
$PUCSORGLEFT
 10
0.0
 20
0.0
 30
0.0
  9
$PUCSORGRIGHT
 10
0.0
 20
0.0
 30
0.0
  9
$PUCSORGFRONT
 10
0.0
 20
0.0
 30
0.0
  9
$PUCSORGBACK
 10
0.0
 20
0.0
 30
0.0
  9
$USERI1
 70
0
  9
$USERI2
 70
0
  9
$USERI3
 70
0
  9
$USERI4
 70
0
  9
$USERI5
 70
0
  9
$USERR1
 40
0.0
  9
$USERR2
 40
0.0
  9
$USERR3
 40
0.0
  9
$USERR4
 40
0.0
  9
$USERR5
 40
0.0
  9
$WORLDVIEW
 70
1
  9
$SHADEDGE
 70
3
  9
$SHADEDIF
 70
70
  9
$TILEMODE
 70
1
  9
$MAXACTVP
 70
64
  9
$PINSBASE
 10
0.0
 20
0.0
 30
0.0
  9
$PLIMCHECK
 70
0
  9
$PEXTMIN
 10
1e+20
 20
1e+20
 30
1e+20
  9
$PEXTMAX
 10
-1e+20
 20
-1e+20
 30
-1e+20
  9
$PLIMMIN
 10
0.0
 20
0.0
  9
$PLIMMAX
 10
420.0
 20
297.0
  9
$UNITMODE
 70
0
  9
$VISRETAIN
 70
1
  9
$PLINEGEN
 70
0
  9
$PSLTSCALE
 70
1
  9
$TREEDEPTH
 70
3020
  9
$CMLSTYLE
  2
Standard
  9
$CMLJUST
 70
0
  9
$CMLSCALE
 40
20.0
  9
$PROXYGRAPHICS
 70
1
  9
$MEASUREMENT
 70
1
  9
$CELWEIGHT
370
-1
  9
$ENDCAPS
280
0
  9
$JOINSTYLE
280
0
  9
$LWDISPLAY
290
0
  9
$INSUNITS
 70
6
  9
$HYPERLINKBASE
  1

  9
$STYLESHEET
  1

  9
$XEDIT
290
1
  9
$CEPSNTYPE
380
0
  9
$PSTYLEMODE
290
1
  9
$FINGERPRINTGUID
  2
{83CC33F6-0BB0-42A9-A7B5-CDC5FEF95A7F}
  9
$VERSIONGUID
  2
{75F8D378-410E-48F8-9EBD-7E42C7E64A07}
  9
$EXTNAMES
290
1
  9
$PSVPSCALE
 40
0.0
  9
$OLESTARTUP
290
0
  9
$SORTENTS
280
127
  9
$INDEXCTL
280
0
  9
$HIDETEXT
280
1
  9
$XCLIPFRAME
280
1
  9
$HALOGAP
280
0
  9
$OBSCOLOR
 70
257
  9
$OBSLTYPE
280
0
  9
$INTERSECTIONDISPLAY
280
0
  9
$INTERSECTIONCOLOR
 70
257
  9
$DIMASSOC
280
2
  9
$PROJECTNAME
  1

  9
$CAMERADISPLAY
290
0
  9
$LENSLENGTH
 40
50.0
  9
$CAMERAHEIGHT
 40
0.0
  9
$STEPSPERSEC
 40
24.0
  9
$STEPSIZE
 40
100.0
  9
$3DDWFPREC
 40
2.0
  9
$PSOLWIDTH
 40
0.005
  9
$PSOLHEIGHT
 40
0.08
  9
$LOFTANG1
 40
1.570796326795
  9
$LOFTANG2
 40
1.570796326795
  9
$LOFTMAG1
 40
0.0
  9
$LOFTMAG2
 40
0.0
  9
$LOFTPARAM
 70
7
  9
$LOFTNORMALS
280
1
  9
$LATITUDE
 40
37.795
  9
$LONGITUDE
 40
-122.394
  9
$NORTHDIRECTION
 40
0.0
  9
$TIMEZONE
 70
-8000
  9
$LIGHTGLYPHDISPLAY
280
1
  9
$TILEMODELIGHTSYNCH
280
1
  9
$CMATERIAL
347
20
  9
$SOLIDHIST
280
0
  9
$SHOWHIST
280
1
  9
$DWFFRAME
280
2
  9
$DGNFRAME
280
2
  9
$REALWORLDSCALE
290
1
  9
$INTERFERECOLOR
 62
256
  9
$CSHADOW
280
0
  9
$SHADOWPLANELOCATION
 40
0.0
  0
ENDSEC
  0
SECTION
  2
CLASSES
  0
CLASS
  1
ACDBDICTIONARYWDFLT
  2
AcDbDictionaryWithDefault
  3
ObjectDBX Classes
 90
0
 91
0
280
0
281
0
  0
CLASS
  1
SUN
  2
AcDbSun
  3
SCENEOE
 90
1153
 91
0
280
0
281
0
  0
CLASS
  1
VISUALSTYLE
  2
AcDbVisualStyle
  3
ObjectDBX Classes
 90
4095
 91
0
280
0
281
0
  0
CLASS
  1
MATERIAL
  2
AcDbMaterial
  3
ObjectDBX Classes
 90
1153
 91
0
280
0
281
0
  0
CLASS
  1
SCALE
  2
AcDbScale
  3
ObjectDBX Classes
 90
1153
 91
0
280
0
281
0
  0
CLASS
  1
TABLESTYLE
  2
AcDbTableStyle
  3
ObjectDBX Classes
 90
4095
 91
0
280
0
281
0
  0
CLASS
  1
MLEADERSTYLE
  2
AcDbMLeaderStyle
  3
ACDB_MLEADERSTYLE_CLASS
 90
4095
 91
0
280
0
281
0
  0
CLASS
  1
DICTIONARYVAR
  2
AcDbDictionaryVar
  3
ObjectDBX Classes
 90
0
 91
0
280
0
281
0
  0
CLASS
  1
CELLSTYLEMAP
  2
AcDbCellStyleMap
  3
ObjectDBX Classes
 90
1152
 91
0
280
0
281
0
  0
CLASS
  1
MENTALRAYRENDERSETTINGS
  2
AcDbMentalRayRenderSettings
  3
SCENEOE
 90
1024
 91
0
280
0
281
0
  0
CLASS
  1
ACDBDETAILVIEWSTYLE
  2
AcDbDetailViewStyle
  3
ObjectDBX Classes
 90
1025
 91
0
280
0
281
0
  0
CLASS
  1
ACDBSECTIONVIEWSTYLE
  2
AcDbSectionViewStyle
  3
ObjectDBX Classes
 90
1025
 91
0
280
0
281
0
  0
CLASS
  1
RASTERVARIABLES
  2
AcDbRasterVariables
  3
ISM
 90
0
 91
0
280
0
281
0
  0
CLASS
  1
ACDBPLACEHOLDER
  2
AcDbPlaceHolder
  3
ObjectDBX Classes
 90
0
 91
0
280
0
281
0
  0
CLASS
  1
LAYOUT
  2
AcDbLayout
  3
ObjectDBX Classes
 90
0
 91
0
280
0
281
0
  0
ENDSEC
  0
SECTION
  2
TABLES
  0
TABLE
  2
VPORT
  5
8
330
0
100
AcDbSymbolTable
 70
1
  0
VPORT
  5
23
330
8
100
AcDbSymbolTableRecord
100
AcDbViewportTableRecord
  2
*Active
 70
0
 10
0.0
 20
0.0
 11
1.0
 21
1.0
 12
0.0
 22
0.0
 13
0.0
 23
0.0
 14
0.5
 24
0.5
 15
0.5
 25
0.5
 16
0.0
 26
0.0
 36
1.0
 17
0.0
 27
0.0
 37
0.0
 40
1000.0
 41
1.34
 42
50.0
 43
0.0
 44
0.0
 50
0.0
 51
0.0
 71
0
 72
1000
 73
1
 74
3
 75
0
 76
0
 77
0
 78
0
281
0
 65
0
146
0.0
  0
ENDTAB
  0
TABLE
  2
LTYPE
  5
2
330
0
100
AcDbSymbolTable
 70
3
  0
LTYPE
  5
24
330
2
100
AcDbSymbolTableRecord
100
AcDbLinetypeTableRecord
  2
ByBlock
 70
0
  3

 72
65
 73
0
 40
0.0
  0
LTYPE
  5
25
330
2
100
AcDbSymbolTableRecord
100
AcDbLinetypeTableRecord
  2
ByLayer
 70
0
  3

 72
65
 73
0
 40
0.0
  0
LTYPE
  5
26
330
2
100
AcDbSymbolTableRecord
100
AcDbLinetypeTableRecord
  2
Continuous
 70
0
  3

 72
65
 73
0
 40
0.0
  0
ENDTAB
  0
TABLE
  2
LAYER
  5
1
330
0
100
AcDbSymbolTable
 70
2
  0
LAYER
  5
27
330
1
100
AcDbSymbolTableRecord
100
AcDbLayerTableRecord
  2
0
 70
0
 62
7
  6
Continuous
370
-3
390
13
347
21
  0
LAYER
  5
28
330
1
100
AcDbSymbolTableRecord
100
AcDbLayerTableRecord
  2
Defpoints
 70
0
 62
7
  6
Continuous
290
0
370
-3
390
13
347
21
  0
ENDTAB
  0
TABLE
  2
STYLE
  5
5
330
0
100
AcDbSymbolTable
 70
1
  0
STYLE
  5
29
330
5
100
AcDbSymbolTableRecord
100
AcDbTextStyleTableRecord
  2
Standard
 70
0
 40
0.0
 41
1.0
 50
0.0
 71
0
 42
2.5
  3
txt
  4

  0
ENDTAB
  0
TABLE
  2
VIEW
  5
7
330
0
100
AcDbSymbolTable
 70
0
  0
ENDTAB
  0
TABLE
  2
UCS
  5
6
330
0
100
AcDbSymbolTable
 70
0
  0
ENDTAB
  0
TABLE
  2
APPID
  5
3
330
0
100
AcDbSymbolTable
 70
3
  0
APPID
  5
2A
330
3
100
AcDbSymbolTableRecord
100
AcDbRegAppTableRecord
  2
ACAD
 70
0
  0
APPID
  5
74
330
3
100
AcDbSymbolTableRecord
100
AcDbRegAppTableRecord
  2
HATCHBACKGROUNDCOLOR
 70
0
  0
APPID
  5
75
330
3
100
AcDbSymbolTableRecord
100
AcDbRegAppTableRecord
  2
EZDXF
 70
0
  0
ENDTAB
  0
TABLE
  2
DIMSTYLE
  5
4
330
0
100
AcDbSymbolTable
 70
1
100
AcDbDimStyleTable
  0
DIMSTYLE
105
2B
330
4
100
AcDbSymbolTableRecord
100
AcDbDimStyleTableRecord
  2
Standard
 70
0
 40
1.0
 41
2.5
 42
0.625
 43
3.75
 44
1.25
 45
0.0
 46
0.0
 47
0.0
 48
0.0
 49
2.5
140
2.5
141
2.5
142
0.0
143
0.03937007874
144
1.0
145
0.0
146
1.0
147
0.625
148
0.0
 69
0
 70
0
 71
0
 72
0
 73
0
 74
0
 75
0
 76
0
 77
1
 78
8
 79
3
170
0
171
3
172
1
173
0
174
0
175
0
176
0
177
0
178
0
179
2
271
2
272
2
273
2
274
3
275
0
276
0
277
2
278
44
279
0
280
0
281
0
282
0
283
0
284
8
285
0
286
0
288
0
289
3
290
0
371
-2
372
-2
  0
ENDTAB
  0
TABLE
  2
BLOCK_RECORD
  5
9
330
0
100
AcDbSymbolTable
 70
2
  0
BLOCK_RECORD
  5
17
330
9
100
AcDbSymbolTableRecord
100
AcDbBlockTableRecord
  2
*Model_Space
340
1A
 70
0
280
1
281
0
  0
BLOCK_RECORD
  5
1B
330
9
100
AcDbSymbolTableRecord
100
AcDbBlockTableRecord
  2
*Paper_Space
340
1E
 70
0
280
1
281
0
  0
ENDTAB
  0
ENDSEC
  0
SECTION
  2
BLOCKS
  0
BLOCK
  5
18
330
17
100
AcDbEntity
  8
0
100
AcDbBlockBegin
  2
*Model_Space
 70
0
 10
0.0
 20
0.0
 30
0.0
  3
*Model_Space
  1

  0
ENDBLK
  5
19
330
17
100
AcDbEntity
  8
0
100
AcDbBlockEnd
  0
BLOCK
  5
1C
330
1B
100
AcDbEntity
  8
0
100
AcDbBlockBegin
  2
*Paper_Space
 70
0
 10
0.0
 20
0.0
 30
0.0
  3
*Paper_Space
  1

  0
ENDBLK
  5
1D
330
1B
100
AcDbEntity
  8
0
100
AcDbBlockEnd
  0
ENDSEC
  0
SECTION
  2
ENTITIES
  0
LWPOLYLINE
  5
2F
330
17
100
AcDbEntity
  8
0
100
AcDbPolyline
 90
5
 70
0
 10
0.0
 20
792.0
 10
0.0
 20
0.0
 10
1224.0
 20
0.0
 10
1224.0
 20
792.0
 10
0.0
 20
792.0
  0
LWPOLYLINE
  5
30
330
17
100
AcDbEntity
  8
0
100
AcDbPolyline
 90
5
 70
0
 10
35.0
 20
774.0
 10
35.0
 20
17.0
 10
1206.0
 20
17.0
 10
1206.0
 20
774.0
 10
35.0
 20
774.0
  0
LWPOLYLINE
  5
31
330
17
100
AcDbEntity
  8
0
100
AcDbPolyline
 90
5
 70
0
 10
36.0
 20
773.0
 10
36.0
 20
18.0
 10
1205.0
 20
18.0
 10
1205.0
 20
773.0
 10
36.0
 20
773.0
  0
LWPOLYLINE
  5
32
330
17
100
AcDbEntity
  8
0
100
AcDbPolyline
 90
208
 70
0
 10
616.0
 20
626.0
 10
616.0
 20
618.0
 10
580.0
 20
619.0
 10
580.320984
 20
539.0
 10
580.0
 20
477.0
 10
598.0
 20
478.0
 10
598.0
 20
460.0
 10
347.0
 20
460.0
 10
347.0
 20
442.0
 10
314.0
 20
442.0
 10
313.0786
 20
442.0145
 10
312.1111
 20
442.052
 10
311.1061
 20
442.1034
 10
310.0723
 20
442.1595
 10
309.0183
 20
442.2112
 10
307.9528
 20
442.2494
 10
306.8845
 20
442.2649
 10
305.8222
 20
442.2486
 10
304.7744
 20
442.1914
 10
303.75
 20
442.0842
 10
302.7575
 20
441.9178
 10
301.8056
 20
441.683
 10
300.9031
 20
441.3709
 10
300.0586
 20
440.9722
 10
299.1683
 20
440.4059
 10
298.4201
 20
439.7693
 10
297.8015
 20
439.0689
 10
297.3
 20
438.3114
 10
296.9031
 20
437.5036
 10
296.5982
 20
436.6521
 10
296.3728
 20
435.7636
 10
296.2143
 20
434.8448
 10
296.1104
 20
433.9023
 10
296.0483
 20
432.9429
 10
296.0157
 20
431.9732
 10
296.0
 20
431.0
 10
283.0
 20
433.0
 10
283.0
 20
406.0
 10
285.0
 20
409.0
 10
296.0
 20
409.0
 10
296.0
 20
404.0
 10
259.0
 20
404.0
 10
259.0
 20
174.0
 10
289.0
 20
174.0
 10
291.0
 20
166.0
 10
294.0
 20
174.0
 10
295.0
 20
174.0
 10
295.0
 20
169.0
 10
300.0
 20
172.0
 10
301.0
 20
172.0
 10
302.0
 20
172.0
 10
307.0
 20
169.0
 10
307.0
 20
174.0
 10
328.0
 20
174.0
 10
328.0
 20
169.0
 10
334.0
 20
172.0
 10
335.0
 20
172.0
 10
340.0
 20
169.0
 10
340.0
 20
174.0
 10
342.0
 20
174.0
 10
344.0
 20
166.0
 10
347.0
 20
174.0
 10
377.0
 20
174.0
 10
377.0
 20
225.0
 10
389.0
 20
225.0
 10
389.0
 20
277.0
 10
377.0
 20
277.0
 10
377.0
 20
324.0
 10
431.0
 20
324.0
 10
430.0
 20
338.0
 10
449.0
 20
338.0
 10
447.0
 20
324.0
 10
497.0
 20
324.0
 10
497.0
 20
338.0
 10
615.0
 20
339.0
 10
615.0
 20
333.0
 10
620.0
 20
337.0
 10
637.0
 20
333.0
 10
637.0
 20
339.0
 10
650.0
 20
339.0
 10
650.0
 20
328.0
 10
629.0
 20
328.0
 10
629.0
 20
327.0
 10
649.0
 20
327.0
 10
646.0
 20
324.0
 10
646.0
 20
320.0
 10
649.0
 20
320.0
 10
649.0
 20
312.0
 10
602.0
 20
312.0
 10
602.0
 20
327.0
 10
628.0
 20
327.0
 10
628.0
 20
328.0
 10
601.0
 20
328.0
 10
600.0
 20
311.0
 10
600.9105
 20
311.0073
 10
601.8399
 20
311.0278
 10
602.7866
 20
311.0592
 10
603.7485
 20
311.099
 10
604.7241
 20
311.145
 10
605.7114
 20
311.1948
 10
606.7087
 20
311.2461
 10
607.7143
 20
311.2967
 10
608.7262
 20
311.344
 10
609.7428
 20
311.3859
 10
610.7622
 20
311.4199
 10
611.7827
 20
311.4438
 10
612.8024
 20
311.4552
 10
613.8196
 20
311.4519
 10
614.8325
 20
311.4313
 10
615.8393
 20
311.3913
 10
616.8382
 20
311.3295
 10
617.8275
 20
311.2436
 10
618.8052
 20
311.1312
 10
619.7697
 20
310.9901
 10
620.7192
 20
310.8178
 10
621.6518
 20
310.612
 10
622.5659
 20
310.3705
 10
623.4595
 20
310.0909
 10
624.3309
 20
309.7708
 10
625.1783
 20
309.4079
 10
626.0
 20
309.0
 10
651.0
 20
311.0
 10
650.0
 20
319.0
 10
789.0
 20
319.0
 10
789.0
 20
315.0
 10
794.0
 20
318.0
 10
795.0
 20
318.0
 10
801.0
 20
315.0
 10
801.0
 20
319.0
 10
910.0
 20
319.0
 10
910.0
 20
313.0
 10
912.0
 20
316.0
 10
913.0257
 20
316.0038
 10
914.0471
 20
316.0143
 10
915.0642
 20
316.0296
 10
916.077
 20
316.0482
 10
917.0854
 20
316.0682
 10
918.0893
 20
316.0879
 10
919.0889
 20
316.1057
 10
920.0839
 20
316.1198
 10
921.0745
 20
316.1286
 10
922.0605
 20
316.1303
 10
923.042
 20
316.1231
 10
924.0189
 20
316.1055
 10
924.9911
 20
316.0757
 10
925.9587
 20
316.0319
 10
926.9217
 20
315.9725
 10
927.8799
 20
315.8958
 10
928.8333
 20
315.8
 10
929.782
 20
315.6835
 10
930.7259
 20
315.5445
 10
931.665
 20
315.3813
 10
932.5992
 20
315.1922
 10
933.5285
 20
314.9755
 10
934.4529
 20
314.7295
 10
935.3723
 20
314.4525
 10
936.2868
 20
314.1427
 10
937.1962
 20
313.7985
 10
938.1006
 20
313.4182
 10
939.0
 20
313.0
 10
939.0
 20
319.0
 10
987.0
 20
320.0
 10
987.0
 20
352.0
 10
989.0
 20
366.0
 10
989.0
 20
367.0
 10
989.0
 20
368.0
 10
987.0
 20
383.0
 10
987.0
 20
419.0
 10
986.0
 20
419.0
 10
985.1807
 20
418.2707
 10
984.3688
 20
417.7197
 10
983.5632
 20
417.332
 10
982.7627
 20
417.0927
 10
981.9664
 20
416.987
 10
981.1733
 20
416.9999
 10
980.3821
 20
417.1166
 10
979.592
 20
417.3222
 10
978.8017
 20
417.6018
 10
978.0104
 20
417.9405
 10
977.2169
 20
418.3234
 10
976.4201
 20
418.7357
 10
975.6191
 20
419.1625
 10
974.8127
 20
419.5889
 10
974.0
 20
420.0
 10
974.0
 20
414.0
 10
970.0
 20
412.0
 10
969.0
 20
412.0
 10
965.0
 20
414.0
 10
965.0
 20
410.0
 10
930.0
 20
410.0
 10
930.0
 20
460.0
 10
654.0
 20
460.0
 10
653.0
 20
478.0
 10
671.0
 20
477.0
 10
671.0
 20
619.0
 10
635.0
 20
618.0
 10
635.0
 20
626.0
 10
633.0
 20
626.0
 10
633.0
 20
618.0
 10
630.0
 20
618.0
 10
630.0
 20
613.0
 10
626.0
 20
617.0
 10
625.0
 20
617.0
 10
622.0
 20
613.0
 10
622.0
 20
618.0
 10
618.0
 20
618.0
 10
618.0
 20
626.0
 10
616.0
 20
626.0
  0
LWPOLYLINE
  5
33
330
17
100
AcDbEntity
  8
0
100
AcDbPolyline
 90
493
 70
0
 10
581.0
 20
618.0
 10
581.1666
 20
617.0295
 10
581.3227
 20
616.0565
 10
581.4686
 20
615.081
 10
581.6045
 20
614.103
 10
581.7307
 20
613.1227
 10
581.8475
 20
612.1401
 10
581.9551
 20
611.1553
 10
582.0537
 20
610.1685
 10
582.1438
 20
609.1796
 10
582.2254
 20
608.1888
 10
582.299
 20
607.1961
 10
582.3647
 20
606.2016
 10
582.4228
 20
605.2055
 10
582.4737
 20
604.2077
 10
582.5175
 20
603.2084
 10
582.5546
 20
602.2076
 10
582.5851
 20
601.2055
 10
582.6095
 20
600.2021
 10
582.6278
 20
599.1975
 10
582.6405
 20
598.1918
 10
582.6478
 20
597.185
 10
582.6499
 20
596.1773
 10
582.6471
 20
595.1687
 10
582.6397
 20
594.1593
 10
582.6279
 20
593.1492
 10
582.6121
 20
592.1384
 10
582.5924
 20
591.1271
 10
582.5692
 20
590.1154
 10
582.5427
 20
589.1032
 10
582.5132
 20
588.0908
 10
582.481
 20
587.0781
 10
582.4462
 20
586.0653
 10
582.4093
 20
585.0524
 10
582.3705
 20
584.0396
 10
582.3299
 20
583.0268
 10
582.288
 20
582.0143
 10
582.2449
 20
581.002
 10
582.201
 20
579.99
 10
582.1564
 20
578.9785
 10
582.1115
 20
577.9675
 10
582.0666
 20
576.9571
 10
582.0218
 20
575.9474
 10
581.9776
 20
574.9384
 10
581.9341
 20
573.9303
 10
581.8915
 20
572.9231
 10
581.8503
 20
571.9169
 10
581.8106
 20
570.9118
 10
581.7727
 20
569.9078
 10
581.7369
 20
568.9051
 10
581.7035
 20
567.9038
 10
581.6726
 20
566.9038
 10
581.6447
 20
565.9054
 10
581.6199
 20
564.9085
 10
581.5985
 20
563.9132
 10
581.5808
 20
562.9198
 10
581.567
 20
561.9281
 10
581.5575
 20
560.9383
 10
581.5525
 20
559.9506
 10
581.5522
 20
558.9648
 10
581.557
 20
557.9813
 10
581.5671
 20
557.0
 10
581.5812
 20
556.0348
 10
581.5982
 20
555.0666
 10
581.6181
 20
554.0955
 10
581.6407
 20
553.1217
 10
581.6658
 20
552.145
 10
581.6933
 20
551.1657
 10
581.7231
 20
550.1838
 10
581.755
 20
549.1995
 10
581.789
 20
548.2127
 10
581.8248
 20
547.2235
 10
581.8623
 20
546.2322
 10
581.9014
 20
545.2386
 10
581.942
 20
544.243
 10
581.9839
 20
543.2453
 10
582.027
 20
542.2457
 10
582.0711
 20
541.2443
 10
582.1161
 20
540.2411
 10
582.1619
 20
539.2363
 10
582.2084
 20
538.2298
 10
582.2553
 20
537.2218
 10
582.3026
 20
536.2124
 10
582.3501
 20
535.2016
 10
582.3978
 20
534.1895
 10
582.4453
 20
533.1763
 10
582.4927
 20
532.1619
 10
582.5398
 20
531.1465
 10
582.5865
 20
530.1302
 10
582.6325
 20
529.113
 10
582.6778
 20
528.095
 10
582.7222
 20
527.0763
 10
582.7657
 20
526.057
 10
582.808
 20
525.0372
 10
582.849
 20
524.0169
 10
582.8886
 20
522.9962
 10
582.9267
 20
521.9752
 10
582.9631
 20
520.954
 10
582.9977
 20
519.9327
 10
583.0303
 20
518.9114
 10
583.0608
 20
517.89
 10
583.0891
 20
516.8688
 10
583.115
 20
515.8478
 10
583.1385
 20
514.827
 10
583.1593
 20
513.8066
 10
583.1773
 20
512.7867
 10
583.1924
 20
511.7672
 10
583.2045
 20
510.7484
 10
583.2133
 20
509.7303
 10
583.2189
 20
508.7129
 10
583.221
 20
507.6964
 10
583.2195
 20
506.6808
 10
583.2143
 20
505.6662
 10
583.2052
 20
504.6527
 10
583.1921
 20
503.6404
 10
583.1749
 20
502.6293
 10
583.1534
 20
501.6196
 10
583.1274
 20
500.6113
 10
583.097
 20
499.6045
 10
583.0618
 20
498.5993
 10
583.0219
 20
497.5957
 10
582.9769
 20
496.5939
 10
582.9269
 20
495.594
 10
582.8717
 20
494.5959
 10
582.811
 20
493.5998
 10
582.7449
 20
492.6058
 10
582.6732
 20
491.614
 10
582.5956
 20
490.6243
 10
582.5122
 20
489.637
 10
582.4227
 20
488.6521
 10
582.327
 20
487.6697
 10
582.225
 20
486.6899
 10
582.1165
 20
485.7127
 10
582.0015
 20
484.7382
 10
581.8797
 20
483.7665
 10
581.751
 20
482.7977
 10
581.6154
 20
481.8319
 10
581.4726
 20
480.8691
 10
581.3225
 20
479.9095
 10
581.165
 20
478.9531
 10
581.0
 20
478.0
 10
599.0
 20
479.0
 10
601.0
 20
458.0
 10
600.0425
 20
458.1732
 10
599.0821
 20
458.3381
 10
598.119
 20
458.4947
 10
597.1532
 20
458.6434
 10
596.1847
 20
458.7841
 10
595.2136
 20
458.9171
 10
594.24
 20
459.0426
 10
593.2639
 20
459.1606
 10
592.2855
 20
459.2714
 10
591.3048
 20
459.3752
 10
590.3218
 20
459.472
 10
589.3366
 20
459.5621
 10
588.3494
 20
459.6456
 10
587.3601
 20
459.7226
 10
586.3688
 20
459.7934
 10
585.3756
 20
459.8581
 10
584.3806
 20
459.9169
 10
583.3839
 20
459.9698
 10
582.3854
 20
460.0172
 10
581.3854
 20
460.0591
 10
580.3837
 20
460.0957
 10
579.3806
 20
460.1272
 10
578.3761
 20
460.1537
 10
577.3702
 20
460.1753
 10
576.363
 20
460.1924
 10
575.3546
 20
460.2049
 10
574.3451
 20
460.2132
 10
573.3345
 20
460.2173
 10
572.3229
 20
460.2173
 10
571.3103
 20
460.2136
 10
570.2969
 20
460.2061
 10
569.2827
 20
460.1952
 10
568.2677
 20
460.1809
 10
567.2521
 20
460.1634
 10
566.2359
 20
460.1428
 10
565.2191
 20
460.1195
 10
564.2019
 20
460.0934
 10
563.1843
 20
460.0647
 10
562.1664
 20
460.0337
 10
561.1482
 20
460.0005
 10
560.1299
 20
459.9652
 10
559.1114
 20
459.928
 10
558.0929
 20
459.8891
 10
557.0744
 20
459.8486
 10
556.0559
 20
459.8067
 10
555.0377
 20
459.7635
 10
554.0196
 20
459.7193
 10
553.0019
 20
459.6741
 10
551.9845
 20
459.6282
 10
550.9676
 20
459.5817
 10
549.9511
 20
459.5347
 10
548.9353
 20
459.4875
 10
547.92
 20
459.4401
 10
546.9055
 20
459.3928
 10
545.8917
 20
459.3457
 10
544.8788
 20
459.299
 10
543.8668
 20
459.2528
 10
542.8558
 20
459.2073
 10
541.8458
 20
459.1627
 10
540.8369
 20
459.119
 10
539.8293
 20
459.0766
 10
538.8229
 20
459.0355
 10
537.8178
 20
458.9959
 10
536.8141
 20
458.958
 10
535.8118
 20
458.9219
 10
534.8111
 20
458.8877
 10
533.812
 20
458.8558
 10
532.8145
 20
458.8261
 10
531.8188
 20
458.799
 10
530.8249
 20
458.7744
 10
529.8328
 20
458.7527
 10
528.8427
 20
458.7339
 10
527.8546
 20
458.7183
 10
526.8686
 20
458.7059
 10
525.8847
 20
458.697
 10
524.9031
 20
458.6917
 10
523.9237
 20
458.6901
 10
522.9467
 20
458.6925
 10
521.9721
 20
458.699
 10
521.0
 20
458.7098
 10
520.0
 20
458.7229
 10
519.0001
 20
458.7359
 10
518.0002
 20
458.7486
 10
517.0002
 20
458.761
 10
516.0002
 20
458.7732
 10
515.0003
 20
458.7852
 10
514.0003
 20
458.7969
 10
513.0003
 20
458.8084
 10
512.0002
 20
458.8197
 10
511.0002
 20
458.8307
 10
510.0002
 20
458.8415
 10
509.0001
 20
458.8521
 10
508.0001
 20
458.8624
 10
507.0
 20
458.8726
 10
505.9999
 20
458.8825
 10
504.9999
 20
458.8921
 10
503.9998
 20
458.9016
 10
502.9996
 20
458.9109
 10
501.9995
 20
458.9199
 10
500.9994
 20
458.9287
 10
499.9993
 20
458.9373
 10
498.9991
 20
458.9457
 10
497.999
 20
458.9539
 10
496.9988
 20
458.9619
 10
495.9987
 20
458.9697
 10
494.9985
 20
458.9773
 10
493.9983
 20
458.9847
 10
492.9981
 20
458.9919
 10
491.9979
 20
458.9989
 10
490.9977
 20
459.0057
 10
489.9975
 20
459.0124
 10
488.9973
 20
459.0188
 10
487.9971
 20
459.0251
 10
486.9969
 20
459.0311
 10
485.9966
 20
459.037
 10
484.9964
 20
459.0427
 10
483.9961
 20
459.0483
 10
482.9959
 20
459.0536
 10
481.9956
 20
459.0588
 10
480.9954
 20
459.0638
 10
479.9951
 20
459.0686
 10
478.9948
 20
459.0733
 10
477.9946
 20
459.0778
 10
476.9943
 20
459.0822
 10
475.994
 20
459.0863
 10
474.9937
 20
459.0904
 10
473.9934
 20
459.0942
 10
472.9931
 20
459.0979
 10
471.9929
 20
459.1015
 10
470.9926
 20
459.1049
 10
469.9923
 20
459.1081
 10
468.992
 20
459.1112
 10
467.9917
 20
459.1142
 10
466.9913
 20
459.117
 10
465.991
 20
459.1197
 10
464.9907
 20
459.1222
 10
463.9904
 20
459.1246
 10
462.9901
 20
459.1269
 10
461.9898
 20
459.129
 10
460.9895
 20
459.131
 10
459.9892
 20
459.1329
 10
458.9889
 20
459.1346
 10
457.9885
 20
459.1362
 10
456.9882
 20
459.1377
 10
455.9879
 20
459.1391
 10
454.9876
 20
459.1403
 10
453.9873
 20
459.1414
 10
452.987
 20
459.1424
 10
451.9867
 20
459.1433
 10
450.9863
 20
459.1441
 10
449.986
 20
459.1448
 10
448.9857
 20
459.1454
 10
447.9854
 20
459.1458
 10
446.9851
 20
459.1462
 10
445.9848
 20
459.1464
 10
444.9845
 20
459.1466
 10
443.9842
 20
459.1467
 10
442.9839
 20
459.1466
 10
441.9837
 20
459.1465
 10
440.9834
 20
459.1463
 10
439.9831
 20
459.1459
 10
438.9828
 20
459.1455
 10
437.9825
 20
459.1451
 10
436.9823
 20
459.1445
 10
435.982
 20
459.1438
 10
434.9817
 20
459.1431
 10
433.9815
 20
459.1423
 10
432.9812
 20
459.1414
 10
431.981
 20
459.1404
 10
430.9807
 20
459.1394
 10
429.9805
 20
459.1383
 10
428.9803
 20
459.1371
 10
427.9801
 20
459.1359
 10
426.9798
 20
459.1346
 10
425.9796
 20
459.1332
 10
424.9794
 20
459.1318
 10
423.9792
 20
459.1303
 10
422.979
 20
459.1288
 10
421.9789
 20
459.1272
 10
420.9787
 20
459.1256
 10
419.9785
 20
459.1239
 10
418.9784
 20
459.1221
 10
417.9782
 20
459.1203
 10
416.9781
 20
459.1185
 10
415.9779
 20
459.1166
 10
414.9778
 20
459.1147
 10
413.9777
 20
459.1128
 10
412.9776
 20
459.1108
 10
411.9775
 20
459.1088
 10
410.9774
 20
459.1067
 10
409.9773
 20
459.1046
 10
408.9772
 20
459.1025
 10
407.9772
 20
459.1004
 10
406.9771
 20
459.0982
 10
405.9771
 20
459.096
 10
404.9771
 20
459.0938
 10
403.9771
 20
459.0916
 10
402.9771
 20
459.0894
 10
401.9771
 20
459.0871
 10
400.9771
 20
459.0848
 10
399.9771
 20
459.0826
 10
398.9771
 20
459.0803
 10
397.9772
 20
459.078
 10
396.9773
 20
459.0757
 10
395.9773
 20
459.0734
 10
394.9774
 20
459.0711
 10
393.9775
 20
459.0688
 10
392.9777
 20
459.0665
 10
391.9778
 20
459.0643
 10
390.9779
 20
459.062
 10
389.9781
 20
459.0597
 10
388.9783
 20
459.0575
 10
387.9785
 20
459.0552
 10
386.9787
 20
459.053
 10
385.9789
 20
459.0508
 10
384.9791
 20
459.0486
 10
383.9793
 20
459.0464
 10
382.9796
 20
459.0443
 10
381.9799
 20
459.0422
 10
380.9802
 20
459.0401
 10
379.9805
 20
459.0381
 10
378.9808
 20
459.036
 10
377.9811
 20
459.034
 10
376.9815
 20
459.0321
 10
375.9819
 20
459.0302
 10
374.9823
 20
459.0283
 10
373.9827
 20
459.0265
 10
372.9831
 20
459.0247
 10
371.9835
 20
459.0229
 10
370.984
 20
459.0212
 10
369.9845
 20
459.0196
 10
368.985
 20
459.018
 10
367.9855
 20
459.0164
 10
366.986
 20
459.0149
 10
365.9866
 20
459.0135
 10
364.9871
 20
459.0121
 10
363.9877
 20
459.0108
 10
362.9883
 20
459.0096
 10
361.989
 20
459.0084
 10
360.9896
 20
459.0073
 10
359.9903
 20
459.0063
 10
358.991
 20
459.0053
 10
357.9917
 20
459.0044
 10
356.9924
 20
459.0036
 10
355.9932
 20
459.0028
 10
354.9939
 20
459.0022
 10
353.9947
 20
459.0016
 10
352.9955
 20
459.0011
 10
351.9964
 20
459.0007
 10
350.9972
 20
459.0004
 10
349.9981
 20
459.0001
 10
348.999
 20
459.0
 10
348.0
 20
459.0
 10
348.0
 20
427.0
 10
368.0
 20
427.0
 10
368.0
 20
420.0
 10
377.0
 20
420.0
 10
377.0
 20
426.0
 10
380.0
 20
425.0
 10
378.0
 20
420.0
 10
382.0
 20
420.0
 10
381.0
 20
423.0
 10
383.0
 20
420.0
 10
387.0
 20
420.0
 10
386.0
 20
426.0
 10
388.0
 20
420.0
 10
454.0
 20
420.0
 10
588.0
 20
420.0
 10
588.0
 20
428.0
 10
582.0
 20
428.0
 10
583.0
 20
431.0
 10
588.0
 20
429.0
 10
586.0
 20
433.0
 10
586.0
 20
434.0
 10
588.0
 20
438.0
 10
583.0
 20
436.0
 10
582.0
 20
439.0
 10
588.0
 20
439.0
 10
588.0
 20
448.0
 10
615.0
 20
448.0
 10
618.0
 20
453.0
 10
618.0
 20
452.0
 10
616.0
 20
448.0
 10
620.0
 20
450.0
 10
621.0
 20
450.0
 10
625.0
 20
448.0
 10
623.0
 20
452.0
 10
623.0
 20
453.0
 10
629.0
 20
453.0
 10
629.0
 20
452.0
 10
627.0
 20
448.0
 10
631.0
 20
451.0
 10
635.0
 20
448.0
 10
633.0
 20
452.0
 10
633.0
 20
453.0
 10
637.0
 20
453.0
 10
637.0
 20
448.0
 10
662.0
 20
448.0
 10
662.0
 20
455.0
 10
913.0
 20
455.0
 10
913.0
 20
430.0
 10
918.0
 20
431.0
 10
913.0
 20
429.0
 10
913.0
 20
410.0
 10
913.7045
 20
409.985
 10
914.4887
 20
409.9449
 10
915.3409
 20
409.8867
 10
916.2497
 20
409.8175
 10
917.2033
 20
409.7444
 10
918.1901
 20
409.6745
 10
919.1986
 20
409.6149
 10
920.2172
 20
409.5726
 10
921.2342
 20
409.5548
 10
922.2381
 20
409.5685
 10
923.2172
 20
409.6208
 10
924.1599
 20
409.7189
 10
925.0547
 20
409.8698
 10
925.8898
 20
410.0805
 10
926.6538
 20
410.3583
 10
927.335
 20
410.7101
 10
927.9219
 20
411.1431
 10
928.4027
 20
411.6644
 10
928.7659
 20
412.2809
 10
929.0
 20
413.0
 10
923.0
 20
413.0
 10
922.0
 20
413.0
 10
918.0
 20
411.0
 10
918.0
 20
419.0
 10
922.0
 20
419.0
 10
922.0
 20
414.0
 10
923.0
 20
414.0
 10
923.0
 20
419.0
 10
924.0
 20
419.0
 10
924.0
 20
415.0
 10
925.0
 20
415.0
 10
925.0
 20
419.0
 10
929.0
 20
419.0
 10
929.0
 20
459.0
 10
755.0
 20
458.709869
 10
679.0
 20
458.709869
 10
651.0
 20
458.0
 10
652.0
 20
479.0
 10
670.0
 20
478.0
 10
670.0
 20
618.0
 10
631.0
 20
616.0
 10
631.0
 20
612.0
 10
626.0
 20
615.0
 10
621.0
 20
612.0
 10
621.0
 20
616.0
 10
581.0
 20
618.0
  0
LWPOLYLINE
  5
34
330
17
100
AcDbEntity
  8
0
100
AcDbPolyline
 90
41
 70
0
 10
690.0
 20
451.0
 10
690.0
 20
403.0
 10
729.0
 20
403.0
 10
729.0
 20
450.0
 10
724.0
 20
449.0
 10
723.556
 20
449.4431
 10
723.0378
 20
449.8456
 10
722.4493
 20
450.2091
 10
721.7946
 20
450.5351
 10
721.0778
 20
450.8254
 10
720.3028
 20
451.0816
 10
719.4738
 20
451.3052
 10
718.5946
 20
451.498
 10
717.6694
 20
451.6616
 10
716.7021
 20
451.7976
 10
715.6969
 20
451.9076
 10
714.6577
 20
451.9933
 10
713.5885
 20
452.0563
 10
712.4934
 20
452.0983
 10
711.3765
 20
452.1208
 10
710.2417
 20
452.1255
 10
709.093
 20
452.1141
 10
707.9346
 20
452.0881
 10
706.7704
 20
452.0493
 10
705.6044
 20
451.9991
 10
704.4408
 20
451.9394
 10
703.2835
 20
451.8717
 10
702.1365
 20
451.7976
 10
701.0038
 20
451.7189
 10
699.8896
 20
451.637
 10
698.7978
 20
451.5537
 10
697.7325
 20
451.4705
 10
696.6977
 20
451.3892
 10
695.6973
 20
451.3113
 10
694.7356
 20
451.2385
 10
693.8163
 20
451.1724
 10
692.9437
 20
451.1147
 10
692.1218
 20
451.0669
 10
691.3545
 20
451.0308
 10
690.6459
 20
451.0079
 10
690.0
 20
451.0
  0
LWPOLYLINE
  5
35
330
17
100
AcDbEntity
  8
0
100
AcDbPolyline
 90
5
 70
0
 10
731.0
 20
451.0
 10
731.0
 20
403.0
 10
807.0
 20
403.0
 10
807.0
 20
451.0
 10
731.0
 20
451.0
  0
LWPOLYLINE
  5
36
330
17
100
AcDbEntity
  8
0
100
AcDbPolyline
 90
51
 70
0
 10
809.0
 20
448.0
 10
809.0
 20
405.0
 10
810.0
 20
405.0
 10
811.0
 20
414.0
 10
821.0
 20
414.0
 10
821.0
 20
413.0
 10
819.0
 20
412.0
 10
819.5097
 20
411.1895
 10
819.9154
 20
410.2851
 10
820.2514
 20
409.3189
 10
820.5525
 20
408.3231
 10
820.8531
 20
407.3299
 10
821.1878
 20
406.3716
 10
821.5912
 20
405.4803
 10
822.0978
 20
404.6882
 10
822.7423
 20
404.0277
 10
823.2796
 20
403.6476
 10
823.8895
 20
403.3109
 10
824.5672
 20
403.0156
 10
825.3082
 20
402.7595
 10
826.1076
 20
402.5405
 10
826.9608
 20
402.3565
 10
827.863
 20
402.2055
 10
828.8096
 20
402.0853
 10
829.7959
 20
401.9938
 10
830.8171
 20
401.9289
 10
831.8685
 20
401.8885
 10
832.9454
 20
401.8706
 10
834.0432
 20
401.873
 10
835.1571
 20
401.8937
 10
836.2824
 20
401.9304
 10
837.4144
 20
401.9812
 10
838.5484
 20
402.044
 10
839.6798
 20
402.1165
 10
840.8037
 20
402.1969
 10
841.9155
 20
402.2828
 10
843.0104
 20
402.3723
 10
844.0839
 20
402.4632
 10
845.1311
 20
402.5535
 10
846.1474
 20
402.641
 10
847.128
 20
402.7236
 10
848.0683
 20
402.7993
 10
848.9636
 20
402.8659
 10
849.8091
 20
402.9214
 10
850.6001
 20
402.9636
 10
851.332
 20
402.9905
 10
852.0
 20
403.0
 10
852.0
 20
408.0
 10
859.0
 20
408.0
 10
859.0
 20
448.0
 10
809.0
 20
448.0
  0
LWPOLYLINE
  5
37
330
17
100
AcDbEntity
  8
0
100
AcDbPolyline
 90
9
 70
0
 10
861.0
 20
448.0
 10
861.0
 20
406.0
 10
869.0
 20
406.0
 10
869.0
 20
403.0
 10
909.0
 20
403.0
 10
909.0
 20
436.0
 10
906.0
 20
436.0
 10
906.0
 20
448.0
 10
861.0
 20
448.0
  0
LWPOLYLINE
  5
38
330
17
100
AcDbEntity
  8
0
100
AcDbPolyline
 90
65
 70
0
 10
590.0
 20
446.0
 10
590.0
 20
417.0
 10
595.0
 20
415.0
 10
590.0
 20
416.0
 10
590.0
 20
407.0
 10
594.0
 20
409.0
 10
595.0
 20
406.0
 10
590.0
 20
406.0
 10
590.0
 20
348.0
 10
593.0
 20
350.0
 10
594.0
 20
346.0
 10
590.0
 20
346.0
 10
590.0
 20
342.0
 10
625.0
 20
340.0
 10
625.0
 20
382.0
 10
625.5793
 20
381.9913
 10
626.2455
 20
381.9669
 10
626.9913
 20
381.9293
 10
627.8096
 20
381.881
 10
628.6932
 20
381.8245
 10
629.6349
 20
381.7622
 10
630.6275
 20
381.6966
 10
631.6639
 20
381.6303
 10
632.7369
 20
381.5656
 10
633.8392
 20
381.5051
 10
634.9638
 20
381.4513
 10
636.1034
 20
381.4067
 10
637.2508
 20
381.3736
 10
638.3989
 20
381.3547
 10
639.5405
 20
381.3524
 10
640.6684
 20
381.3692
 10
641.7754
 20
381.4076
 10
642.8544
 20
381.47
 10
643.8981
 20
381.559
 10
644.8994
 20
381.677
 10
645.8511
 20
381.8265
 10
646.7461
 20
382.01
 10
647.577
 20
382.23
 10
648.3369
 20
382.4889
 10
649.0184
 20
382.7893
 10
649.6144
 20
383.1336
 10
650.1178
 20
383.5244
 10
650.5213
 20
383.964
 10
650.8177
 20
384.455
 10
651.0
 20
385.0
 10
654.0
 20
385.0
 10
654.0
 20
382.0
 10
662.0
 20
382.0
 10
662.0
 20
384.0
 10
658.0
 20
384.0
 10
661.0
 20
390.0
 10
667.0
 20
390.0
 10
667.0
 20
387.0
 10
676.0
 20
385.0
 10
676.0
 20
387.0
 10
671.0
 20
387.0
 10
672.0
 20
390.0
 10
676.0
 20
388.0
 10
676.0
 20
397.0
 10
671.0
 20
396.0
 10
676.0
 20
398.0
 10
676.0
 20
400.0
 10
662.0
 20
400.0
 10
662.0
 20
446.0
 10
590.0
 20
446.0
  0
LWPOLYLINE
  5
39
330
17
100
AcDbEntity
  8
0
100
AcDbPolyline
 90
7
 70
0
 10
318.0
 20
441.0
 10
312.0
 20
427.0
 10
347.0
 20
427.0
 10
347.0
 20
441.0
 10
338.0
 20
439.0
 10
337.0
 20
439.0
 10
318.0
 20
441.0
  0
LWPOLYLINE
  5
3A
330
17
100
AcDbEntity
  8
0
100
AcDbPolyline
 90
149
 70
0
 10
298.0
 20
397.0
 10
303.0
 20
394.0
 10
302.0
 20
394.0
 10
298.0
 20
396.0
 10
300.0
 20
392.0
 10
300.0
 20
391.0
 10
298.0
 20
377.0
 10
298.0
 20
341.0
 10
300.0
 20
328.0
 10
300.0
 20
327.0
 10
298.0
 20
323.0
 10
302.0
 20
325.0
 10
303.0
 20
325.0
 10
303.2973
 20
324.0551
 10
303.7273
 20
323.3135
 10
304.275
 20
322.7522
 10
304.9251
 20
322.348
 10
305.6626
 20
322.0778
 10
306.4723
 20
321.9186
 10
307.3391
 20
321.8472
 10
308.2479
 20
321.8406
 10
309.1835
 20
321.8757
 10
310.1308
 20
321.9293
 10
311.0746
 20
321.9784
 10
312.0
 20
322.0
 10
312.0
 20
283.0
 10
317.0
 20
283.0
 10
317.0
 20
279.0
 10
316.0
 20
279.0
 10
312.0
 20
281.0
 10
312.0
 20
234.0
 10
314.0
 20
234.0
 10
317.0
 20
239.0
 10
316.0
 20
234.0
 10
319.0
 20
237.0
 10
320.0
 20
237.0
 10
320.0
 20
234.0
 10
320.7127
 20
233.9891
 10
321.4925
 20
233.9588
 10
322.3333
 20
233.9124
 10
323.2286
 20
233.8531
 10
324.1722
 20
233.7843
 10
325.1578
 20
233.7093
 10
326.1791
 20
233.6313
 10
327.2298
 20
233.5538
 10
328.3036
 20
233.4799
 10
329.3943
 20
233.4131
 10
330.4955
 20
233.3567
 10
331.6009
 20
233.3138
 10
332.7043
 20
233.2879
 10
333.7994
 20
233.2823
 10
334.8798
 20
233.3002
 10
335.9393
 20
233.3451
 10
336.9716
 20
233.4201
 10
337.9705
 20
233.5286
 10
338.9295
 20
233.6739
 10
339.8424
 20
233.8594
 10
340.703
 20
234.0882
 10
341.5049
 20
234.3639
 10
342.2418
 20
234.6895
 10
342.9075
 20
235.0686
 10
343.4956
 20
235.5043
 10
344.0
 20
236.0
 10
345.0
 20
236.0
 10
350.0
 20
234.0
 10
351.0
 20
242.0
 10
362.0
 20
242.0
 10
362.0
 20
234.0
 10
375.0
 20
234.0
 10
374.0
 20
244.0
 10
373.3626
 20
243.9997
 10
372.6514
 20
244.0077
 10
371.8719
 20
244.0224
 10
371.0298
 20
244.0425
 10
370.1305
 20
244.0662
 10
369.1798
 20
244.0922
 10
368.1831
 20
244.1189
 10
367.146
 20
244.1447
 10
366.0742
 20
244.1681
 10
364.9732
 20
244.1877
 10
363.8486
 20
244.2018
 10
362.706
 20
244.209
 10
361.551
 20
244.2077
 10
360.3891
 20
244.1964
 10
359.226
 20
244.1737
 10
358.0671
 20
244.1379
 10
356.9182
 20
244.0875
 10
355.7848
 20
244.021
 10
354.6724
 20
243.937
 10
353.5867
 20
243.8338
 10
352.5332
 20
243.7099
 10
351.5176
 20
243.5639
 10
350.5453
 20
243.3941
 10
349.6221
 20
243.1992
 10
348.7534
 20
242.9775
 10
347.9449
 20
242.7275
 10
347.2021
 20
242.4477
 10
346.5306
 20
242.1365
 10
345.936
 20
241.7926
 10
345.424
 20
241.4142
 10
345.0
 20
241.0
 10
344.0
 20
241.0
 10
343.4619
 20
241.5257
 10
342.8381
 20
241.9784
 10
342.1361
 20
242.363
 10
341.3636
 20
242.684
 10
340.528
 20
242.9462
 10
339.6369
 20
243.1544
 10
338.6979
 20
243.3132
 10
337.7184
 20
243.4276
 10
336.7062
 20
243.502
 10
335.6687
 20
243.5414
 10
334.6136
 20
243.5504
 10
333.5482
 20
243.5338
 10
332.4803
 20
243.4963
 10
331.4174
 20
243.4426
 10
330.367
 20
243.3776
 10
329.3367
 20
243.3058
 10
328.334
 20
243.2321
 10
327.3666
 20
243.1611
 10
326.4419
 20
243.0977
 10
325.5675
 20
243.0466
 10
324.751
 20
243.0124
 10
324.0
 20
243.0
 10
324.0
 20
272.0
 10
319.0
 20
271.0
 10
319.0
 20
274.0
 10
320.0
 20
274.0
 10
324.0
 20
273.0
 10
324.0
 20
297.0
 10
320.0
 20
296.0
 10
319.9908
 20
296.9485
 10
319.9658
 20
297.9164
 10
319.9285
 20
298.9008
 10
319.8824
 20
299.8994
 10
319.8311
 20
300.9094
 10
319.7782
 20
301.9283
 10
319.7272
 20
302.9536
 10
319.6818
 20
303.9826
 10
319.6454
 20
305.0128
 10
319.6216
 20
306.0415
 10
319.6139
 20
307.0662
 10
319.6261
 20
308.0844
 10
319.6615
 20
309.0934
 10
319.7239
 20
310.0906
 10
319.8166
 20
311.0735
 10
319.9434
 20
312.0395
 10
320.1077
 20
312.986
 10
320.3132
 20
313.9105
  0
LWPOLYLINE
  5
3B
330
17
100
AcDbEntity
  8
0
100
AcDbPolyline
 90
54
 70
0
 10
320.3132
 20
313.9104
 10
320.5436
 20
314.6894
 10
320.839
 20
315.4757
 10
321.184
 20
316.268
 10
321.5637
 20
317.065
 10
321.9626
 20
317.8654
 10
322.3657
 20
318.6679
 10
322.7578
 20
319.4714
 10
323.1237
 20
320.2744
 10
323.4481
 20
321.0757
 10
323.716
 20
321.8741
 10
323.9122
 20
322.6681
 10
324.0213
 20
323.4567
 10
324.0284
 20
324.2384
 10
323.9181
 20
325.012
 10
323.6753
 20
325.7763
 10
323.2848
 20
326.5299
 10
322.7314
 20
327.2715
 10
322.0
 20
328.0
 10
322.0
 20
329.0
 10
324.0
 20
333.0
 10
320.0
 20
331.0
 10
319.0
 20
331.0
 10
324.0
 20
334.0
 10
324.0
 20
336.0
 10
310.0
 20
336.0
 10
310.0
 20
405.0
 10
305.0
 20
408.0
 10
306.0
 20
408.0
 10
310.0
 20
406.0
 10
307.0
 20
411.0
 10
307.0
 20
412.0
 10
310.0
 20
411.0
 10
310.0
 20
415.0
 10
306.0
 20
413.0
 10
305.0
 20
413.0
 10
310.0
 20
416.0
 10
310.0
 20
431.0
 10
311.1434
 20
431.2864
 10
312.1321
 20
431.6359
 10
312.9773
 20
432.0498
 10
313.6903
 20
432.5292
 10
314.2821
 20
433.0754
 10
314.7641
 20
433.6897
 10
315.1473
 20
434.3733
 10
315.4429
 20
435.1274
 10
315.6623
 20
435.9533
 10
315.8164
 20
436.8523
 10
315.9167
 20
437.8256
 10
315.9741
 20
438.8744
 10
316.0
 20
440.0
 10
300.317902
 20
438.972229
 10
298.0
 20
428.0
 10
298.0
 20
397.0
  0
LWPOLYLINE
  5
3C
330
17
100
AcDbEntity
  8
0
100
AcDbPolyline
 90
5
 70
0
 10
314.0
 20
424.0
 10
314.0
 20
422.0
 10
365.0
 20
422.0
 10
365.0
 20
424.0
 10
314.0
 20
424.0
  0
LWPOLYLINE
  5
3D
330
17
100
AcDbEntity
  8
0
100
AcDbPolyline
 90
49
 70
0
 10
393.0
 20
419.0
 10
393.0
 20
404.0
 10
402.0
 20
406.0
 10
403.0
 20
406.0
 10
407.0
 20
403.0
 10
406.0
 20
409.0
 10
408.0
 20
404.0
 10
456.0
 20
404.0
 10
481.0
 20
405.0
 10
485.0
 20
403.0
 10
485.0
 20
407.0
 10
480.0
 20
407.0
 10
481.0
 20
411.0
 10
481.8037
 20
410.8164
 10
482.653
 20
410.681
 10
483.5423
 20
410.587
 10
484.4659
 20
410.5276
 10
485.4181
 20
410.4961
 10
486.3933
 20
410.4857
 10
487.3857
 20
410.4897
 10
488.3898
 20
410.5013
 10
489.3999
 20
410.5138
 10
490.4103
 20
410.5205
 10
491.4154
 20
410.5145
 10
492.4095
 20
410.4891
 10
493.3869
 20
410.4376
 10
494.342
 20
410.3532
 10
495.2691
 20
410.2292
 10
496.1626
 20
410.0588
 10
497.0168
 20
409.8352
 10
497.8261
 20
409.5518
 10
498.5847
 20
409.2017
 10
499.2871
 20
408.7782
 10
499.9275
 20
408.2746
 10
500.5004
 20
407.6841
 10
501.0
 20
407.0
 10
486.0
 20
407.0
 10
486.0
 20
404.0
 10
575.0
 20
404.0
 10
578.0
 20
408.0
 10
578.0
 20
407.0
 10
576.0
 20
403.0
 10
585.0
 20
403.0
 10
583.0
 20
407.0
 10
583.0
 20
408.0
 10
586.0
 20
404.0
 10
588.0
 20
404.0
 10
588.0
 20
419.0
 10
393.0
 20
419.0
  0
LWPOLYLINE
  5
3E
330
17
100
AcDbEntity
  8
0
100
AcDbPolyline
 90
43
 70
0
 10
976.0
 20
415.0
 10
975.9786
 20
414.136
 10
975.9257
 20
413.2192
 10
975.8583
 20
412.266
 10
975.7934
 20
411.2924
 10
975.7477
 20
410.3147
 10
975.7383
 20
409.3491
 10
975.7821
 20
408.4116
 10
975.896
 20
407.5186
 10
976.0969
 20
406.6862
 10
976.4018
 20
405.9306
 10
976.8277
 20
405.268
 10
977.3914
 20
404.7145
 10
978.1098
 20
404.2865
 10
979.0
 20
404.0
 10
979.0
 20
403.0
 10
974.0
 20
398.0
 10
973.0
 20
413.0
 10
970.0
 20
410.0
 10
969.0
 20
410.0
 10
968.0
 20
413.0
 10
967.0
 20
413.0
 10
966.0
 20
401.0
 10
962.0
 20
401.0
 10
962.0
 20
397.0
 10
966.0
 20
395.0
 10
962.0
 20
396.0
 10
962.0
 20
388.0
 10
965.0
 20
390.0
 10
966.0
 20
390.0
 10
962.0
 20
387.0
 10
962.0
 20
383.0
 10
976.0
 20
383.0
 10
976.0
 20
355.0
 10
980.0
 20
355.0
 10
980.0
 20
401.0
 10
984.0
 20
400.0
 10
982.0
 20
353.0
 10
966.0
 20
353.0
 10
966.0
 20
322.0
 10
986.0
 20
322.0
 10
986.0
 20
415.0
 10
976.0
 20
415.0
  0
LWPOLYLINE
  5
3F
330
17
100
AcDbEntity
  8
0
100
AcDbPolyline
 90
5
 70
0
 10
912.0
 20
409.0
 10
912.0
 20
408.0
 10
964.0
 20
408.0
 10
947.0
 20
409.0
 10
912.0
 20
409.0
  0
LWPOLYLINE
  5
40
330
17
100
AcDbEntity
  8
0
100
AcDbPolyline
 90
40
 70
0
 10
261.0
 20
330.0
 10
283.0
 20
330.0
 10
283.0
 20
321.0
 10
296.0
 20
321.0
 10
296.0
 20
402.0
 10
295.3243
 20
402.0084
 10
294.5918
 20
402.0326
 10
293.8063
 20
402.0709
 10
292.9713
 20
402.1217
 10
292.0906
 20
402.1833
 10
291.1678
 20
402.254
 10
290.2066
 20
402.3322
 10
289.2106
 20
402.4162
 10
288.1836
 20
402.5043
 10
287.1291
 20
402.595
 10
286.051
 20
402.6865
 10
284.9528
 20
402.7771
 10
283.8382
 20
402.8653
 10
282.7109
 20
402.9494
 10
281.5746
 20
403.0277
 10
280.4329
 20
403.0985
 10
279.2895
 20
403.1602
 10
278.148
 20
403.2111
 10
277.0122
 20
403.2496
 10
275.8858
 20
403.274
 10
274.7723
 20
403.2826
 10
273.6755
 20
403.2739
 10
272.599
 20
403.246
 10
271.5465
 20
403.1975
 10
270.5217
 20
403.1265
 10
269.5282
 20
403.0315
 10
268.5698
 20
402.9108
 10
267.65
 20
402.7628
 10
266.7726
 20
402.5857
 10
265.9412
 20
402.378
 10
265.1596
 20
402.1378
 10
264.4313
 20
401.8637
 10
263.76
 20
401.554
 10
263.1495
 20
401.2069
 10
262.6034
 20
400.8209
  0
LWPOLYLINE
  5
41
330
17
100
AcDbEntity
  8
0
100
AcDbPolyline
 90
73
 70
0
 10
262.6033
 20
400.8209
 10
262.0915
 20
400.315
 10
261.6633
 20
399.6863
 10
261.3123
 20
398.9479
 10
261.0321
 20
398.1132
 10
260.8164
 20
397.1953
 10
260.6587
 20
396.2073
 10
260.5528
 20
395.1625
 10
260.4923
 20
394.0742
 10
260.4707
 20
392.9554
 10
260.4818
 20
391.8195
 10
260.5192
 20
390.6795
 10
260.5765
 20
389.5488
 10
260.6474
 20
388.4405
 10
260.7254
 20
387.3678
 10
260.8042
 20
386.3439
 10
260.8776
 20
385.382
 10
260.939
 20
384.4954
 10
260.9821
 20
383.6972
 10
261.0007
 20
383.0007
 10
261.0068
 20
382.0034
 10
261.0125
 20
381.0059
 10
261.0177
 20
380.0082
 10
261.0224
 20
379.0103
 10
261.0268
 20
378.0123
 10
261.0307
 20
377.0141
 10
261.0343
 20
376.0158
 10
261.0374
 20
375.0172
 10
261.0402
 20
374.0186
 10
261.0426
 20
373.0197
 10
261.0446
 20
372.0208
 10
261.0464
 20
371.0217
 10
261.0478
 20
370.0224
 10
261.0489
 20
369.023
 10
261.0497
 20
368.0235
 10
261.0502
 20
367.0239
 10
261.0505
 20
366.0242
 10
261.0505
 20
365.0243
 10
261.0503
 20
364.0244
 10
261.0499
 20
363.0244
 10
261.0492
 20
362.0242
 10
261.0484
 20
361.024
 10
261.0474
 20
360.0237
 10
261.0462
 20
359.0233
 10
261.0448
 20
358.0228
 10
261.0434
 20
357.0223
 10
261.0417
 20
356.0217
 10
261.04
 20
355.021
 10
261.0382
 20
354.0203
 10
261.0363
 20
353.0195
 10
261.0343
 20
352.0187
 10
261.0322
 20
351.0179
 10
261.0302
 20
350.017
 10
261.028
 20
349.0161
 10
261.0259
 20
348.0151
 10
261.0237
 20
347.0142
 10
261.0216
 20
346.0132
 10
261.0195
 20
345.0122
 10
261.0174
 20
344.0113
 10
261.0154
 20
343.0103
 10
261.0134
 20
342.0093
 10
261.0116
 20
341.0084
 10
261.0098
 20
340.0074
 10
261.0081
 20
339.0065
 10
261.0065
 20
338.0056
 10
261.0051
 20
337.0047
 10
261.0038
 20
336.0039
 10
261.0027
 20
335.0031
 10
261.0017
 20
334.0024
 10
261.001
 20
333.0017
 10
261.0004
 20
332.001
 10
261.0001
 20
331.0005
 10
261.0
 20
330.0
  0
LWPOLYLINE
  5
42
330
17
100
AcDbEntity
  8
0
100
AcDbPolyline
 90
53
 70
0
 10
587.0
 20
402.0
 10
587.0
 20
353.0
 10
588.0
 20
353.0
 10
588.005
 20
353.8376
 10
588.0197
 20
354.6954
 10
588.0435
 20
355.5724
 10
588.0756
 20
356.4679
 10
588.1153
 20
357.3808
 10
588.162
 20
358.3102
 10
588.2151
 20
359.2554
 10
588.2738
 20
360.2153
 10
588.3376
 20
361.1891
 10
588.4056
 20
362.1759
 10
588.4773
 20
363.1747
 10
588.552
 20
364.1848
 10
588.629
 20
365.2051
 10
588.7077
 20
366.2349
 10
588.7874
 20
367.2731
 10
588.8673
 20
368.319
 10
588.9469
 20
369.3716
 10
589.0255
 20
370.4299
 10
589.1024
 20
371.4932
 10
589.1769
 20
372.5605
 10
589.2484
 20
373.6309
 10
589.3163
 20
374.7036
 10
589.3797
 20
375.7776
 10
589.4381
 20
376.852
 10
589.4908
 20
377.9259
 10
589.5372
 20
378.9985
 10
589.5765
 20
380.0688
 10
589.6081
 20
381.136
 10
589.6313
 20
382.1991
 10
589.6454
 20
383.2572
 10
589.6499
 20
384.3095
 10
589.644
 20
385.3551
 10
589.627
 20
386.393
 10
589.5983
 20
387.4224
 10
589.5572
 20
388.4424
 10
589.5031
 20
389.452
 10
589.4352
 20
390.4504
 10
589.353
 20
391.4367
 10
589.2557
 20
392.4099
 10
589.1426
 20
393.3693
 10
589.0132
 20
394.3138
 10
588.8667
 20
395.2426
 10
588.7024
 20
396.1548
 10
588.5198
 20
397.0495
 10
588.318
 20
397.9258
 10
588.0966
 20
398.7828
 10
587.8547
 20
399.6196
 10
587.5918
 20
400.4354
 10
587.3071
 20
401.2291
 10
587.0
 20
402.0
  0
LWPOLYLINE
  5
43
330
17
100
AcDbEntity
  8
0
100
AcDbPolyline
 90
193
 70
0
 10
463.0
 20
401.0
 10
465.0
 20
397.0
 10
464.0
 20
393.0
 10
462.0
 20
395.0
 10
454.0
 20
393.0
 10
454.0
 20
392.0
 10
456.0
 20
390.0
 10
459.0
 20
391.0
 10
458.0
 20
389.0
 10
461.0
 20
390.0
 10
460.0
 20
388.0
 10
463.0
 20
389.0
 10
463.0
 20
388.0
 10
455.0
 20
388.0
 10
454.383
 20
388.8595
 10
453.7306
 20
389.6106
 10
453.0413
 20
390.2564
 10
452.3133
 20
390.7999
 10
451.5452
 20
391.2443
 10
450.7351
 20
391.5925
 10
449.8816
 20
391.8478
 10
448.9829
 20
392.013
 10
448.0375
 20
392.0914
 10
447.0437
 20
392.086
 10
446.0
 20
392.0
 10
445.4348
 20
392.5407
 10
444.7688
 20
393.0024
 10
444.015
 20
393.3868
 10
443.1862
 20
393.6954
 10
442.2956
 20
393.9301
 10
441.356
 20
394.0924
 10
440.3806
 20
394.184
 10
439.3823
 20
394.2065
 10
438.3741
 20
394.1617
 10
437.369
 20
394.0511
 10
436.38
 20
393.8765
 10
435.4201
 20
393.6395
 10
434.5023
 20
393.3417
 10
433.6396
 20
392.9849
 10
432.8451
 20
392.5706
 10
432.1316
 20
392.1006
 10
431.5122
 20
391.5765
 10
431.0
 20
391.0
 10
430.0
 20
391.0
 10
429.1359
 20
391.8701
 10
428.3679
 20
392.3052
 10
427.632
 20
392.3052
 10
426.864
 20
391.8701
 10
426.0
 20
391.0
 10
425.0
 20
391.0
 10
424.3415
 20
391.6506
 10
423.6369
 20
392.1679
 10
422.8969
 20
392.5565
 10
422.1324
 20
392.8209
 10
421.3543
 20
392.9659
 10
420.5734
 20
392.996
 10
419.8006
 20
392.9159
 10
419.0467
 20
392.7302
 10
418.3226
 20
392.4436
 10
417.6391
 20
392.0607
 10
417.0071
 20
391.5861
 10
416.4375
 20
391.0244
 10
415.9412
 20
390.3804
 10
415.5289
 20
389.6585
 10
415.2115
 20
388.8635
 10
415.0
 20
388.0
 10
414.0
 20
388.0
 10
414.0
 20
392.0
 10
410.0
 20
392.0
 10
410.0
 20
388.0
 10
409.0
 20
388.0
 10
409.0
 20
392.0
 10
405.0
 20
392.0
 10
405.0
 20
388.0
 10
404.0
 20
388.0
 10
404.0
 20
392.0
 10
400.0
 20
388.0
 10
399.0
 20
388.0
 10
398.0
 20
399.0
 10
376.0
 20
399.0
 10
376.0
 20
342.0
 10
398.0
 20
342.0
 10
399.0
 20
349.0
 10
400.0
 20
349.0
 10
400.0
 20
345.0
 10
404.0
 20
345.0
 10
404.0
 20
349.0
 10
405.0
 20
349.0
 10
405.0
 20
345.0
 10
409.0
 20
345.0
 10
409.0
 20
349.0
 10
410.0
 20
349.0
 10
410.1131
 20
348.3355
 10
410.3467
 20
347.7139
 10
410.6919
 20
347.1349
 10
411.1398
 20
346.598
 10
411.6818
 20
346.103
 10
412.3089
 20
345.6496
 10
413.0125
 20
345.2375
 10
413.7836
 20
344.8663
 10
414.6135
 20
344.5359
 10
415.4934
 20
344.2458
 10
416.4145
 20
343.9958
 10
417.3679
 20
343.7855
 10
418.3449
 20
343.6147
 10
419.3367
 20
343.4831
 10
420.3344
 20
343.3903
 10
421.3293
 20
343.3361
 10
422.3126
 20
343.3201
 10
423.2754
 20
343.342
 10
424.209
 20
343.4016
 10
425.1046
 20
343.4985
 10
425.9533
 20
343.6324
 10
426.7463
 20
343.803
 10
427.4749
 20
344.0101
 10
428.1302
 20
344.2532
 10
428.7035
 20
344.5322
 10
429.1859
 20
344.8466
 10
429.5687
 20
345.1963
 10
429.8429
 20
345.5808
 10
430.0
 20
346.0
 10
431.0
 20
346.0
 10
431.0
 20
343.0
 10
435.0
 20
346.0
 10
436.0
 20
346.0
 10
436.0
 20
343.0
 10
446.0
 20
345.0
 10
449.0
 20
344.0
 10
449.0
 20
350.0
 10
450.0
 20
350.0
 10
453.0
 20
346.0
 10
455.0
 20
349.0
 10
468.0
 20
351.0
 10
467.0
 20
353.0
 10
468.0
 20
353.0
 10
469.0
 20
350.0
 10
470.0
 20
350.0
 10
471.0
 20
350.0
 10
469.0
 20
353.0
 10
469.4524
 20
353.7005
 10
469.857
 20
354.4382
 10
470.2159
 20
355.2108
 10
470.5314
 20
356.0162
 10
470.8058
 20
356.8522
 10
471.0414
 20
357.7168
 10
471.2403
 20
358.6077
 10
471.4049
 20
359.5228
 10
471.5375
 20
360.4599
 10
471.6403
 20
361.4171
 10
471.7156
 20
362.3919
 10
471.7656
 20
363.3825
 10
471.7926
 20
364.3865
 10
471.7989
 20
365.4019
 10
471.7868
 20
366.4265
 10
471.7585
 20
367.4581
 10
471.7163
 20
368.4947
 10
471.6625
 20
369.534
 10
471.5992
 20
370.574
 10
471.5289
 20
371.6125
 10
471.4537
 20
372.6473
 10
471.376
 20
373.6764
 10
471.298
 20
374.6974
 10
471.2219
 20
375.7084
 10
471.1501
 20
376.7072
 10
471.0847
 20
377.6916
 10
471.0282
 20
378.6595
 10
470.9826
 20
379.6087
 10
470.9504
 20
380.5372
 10
470.9338
 20
381.4426
 10
470.935
 20
382.323
 10
470.9563
 20
383.1762
 10
471.0
 20
384.0
 10
468.0
 20
383.0
 10
468.0
 20
384.0
 10
468.7176
 20
384.5952
 10
469.3268
 20
385.2596
 10
469.8358
 20
385.9865
 10
470.2528
 20
386.7695
 10
470.5858
 20
387.6022
 10
470.8432
 20
388.478
 10
471.033
 20
389.3905
 10
471.1634
 20
390.3333
 10
471.2427
 20
391.2998
 10
471.2789
 20
392.2836
 10
471.2802
 20
393.2783
 10
471.2549
 20
394.2772
 10
471.211
 20
395.2741
 10
471.1568
 20
396.2623
 10
471.1005
 20
397.2355
 10
471.0501
 20
398.1871
 10
471.0138
 20
399.1108
 10
471.0
 20
400.0
 10
463.0
 20
401.0
  0
LWPOLYLINE
  5
44
330
17
100
AcDbEntity
  8
0
100
AcDbPolyline
 90
43
 70
0
 10
496.0
 20
385.0
 10
507.0
 20
388.0
 10
506.1947
 20
387.5559
 10
505.3296
 20
387.1182
 10
504.4212
 20
386.6799
 10
503.4861
 20
386.2345
 10
502.5409
 20
385.7752
 10
501.6019
 20
385.2953
 10
500.6859
 20
384.7882
 10
499.8093
 20
384.2471
 10
498.9886
 20
383.6654
 10
498.2404
 20
383.0364
 10
497.5812
 20
382.3533
 10
497.0277
 20
381.6095
 10
496.7608
 20
381.1223
 10
496.5122
 20
380.5314
 10
496.2822
 20
379.8445
 10
496.0709
 20
379.0693
 10
495.8787
 20
378.2138
 10
495.7058
 20
377.2858
 10
495.5523
 20
376.293
 10
495.4187
 20
375.2434
 10
495.305
 20
374.1446
 10
495.2116
 20
373.0046
 10
495.1386
 20
371.8311
 10
495.0864
 20
370.632
 10
495.0551
 20
369.4151
 10
495.045
 20
368.1883
 10
495.0564
 20
366.9592
 10
495.0895
 20
365.7359
 10
495.1445
 20
364.526
 10
495.2217
 20
363.3374
 10
495.3213
 20
362.1779
 10
495.4435
 20
361.0553
 10
495.5887
 20
359.9775
 10
495.757
 20
358.9523
 10
495.9487
 20
357.9875
 10
496.164
 20
357.091
 10
496.4031
 20
356.2704
 10
496.6664
 20
355.5337
 10
496.9541
 20
354.8887
 10
497.2663
 20
354.3432
 10
497.6034
 20
353.9051
  0
LWPOLYLINE
  5
45
330
17
100
AcDbEntity
  8
0
100
AcDbPolyline
 90
293
 70
0
 10
497.6033
 20
353.905
 10
498.2617
 20
353.2352
 10
498.9602
 20
352.6163
 10
499.6955
 20
352.044
 10
500.4646
 20
351.5143
 10
501.2645
 20
351.0232
 10
502.0921
 20
350.5665
 10
502.9443
 20
350.1401
 10
503.8181
 20
349.74
 10
504.7104
 20
349.3621
 10
505.6181
 20
349.0023
 10
506.5381
 20
348.6566
 10
507.4675
 20
348.3207
 10
508.4031
 20
347.9907
 10
509.3418
 20
347.6625
 10
510.2807
 20
347.3319
 10
511.2165
 20
346.9949
 10
512.1464
 20
346.6474
 10
513.0671
 20
346.2854
 10
513.9757
 20
345.9047
 10
514.869
 20
345.5013
 10
515.7441
 20
345.071
 10
516.5978
 20
344.6098
 10
517.427
 20
344.1136
 10
518.2288
 20
343.5784
 10
519.0
 20
343.0
 10
515.0
 20
342.0
 10
515.0
 20
341.0
 10
520.0
 20
346.0
 10
521.0
 20
346.0
 10
521.0
 20
343.0
 10
525.0
 20
345.0
 10
526.0
 20
345.0
 10
526.4769
 20
344.4662
 10
527.061
 20
344.004
 10
527.7392
 20
343.6123
 10
528.4985
 20
343.2906
 10
529.3258
 20
343.0379
 10
530.2079
 20
342.8534
 10
531.1319
 20
342.7365
 10
532.0846
 20
342.6863
 10
533.053
 20
342.702
 10
534.024
 20
342.7829
 10
534.9845
 20
342.928
 10
535.9215
 20
343.1368
 10
536.8218
 20
343.4083
 10
537.6724
 20
343.7418
 10
538.4602
 20
344.1364
 10
539.1722
 20
344.5915
 10
539.7952
 20
345.1061
 10
540.3162
 20
345.6796
 10
540.7222
 20
346.3112
 10
541.0
 20
347.0
 10
542.0
 20
347.0
 10
542.0
 20
344.0
 10
546.0
 20
346.0
 10
547.0
 20
346.0
 10
547.864
 20
345.1297
 10
548.632
 20
344.6946
 10
549.3679
 20
344.6946
 10
550.1359
 20
345.1297
 10
551.0
 20
346.0
 10
552.0
 20
346.0
 10
552.864
 20
345.1298
 10
553.632
 20
344.6947
 10
554.3679
 20
344.6947
 10
555.1359
 20
345.1298
 10
556.0
 20
346.0
 10
586.0
 20
342.0
 10
586.0
 20
401.0
 10
569.0
 20
399.0
 10
568.0
 20
386.0
 10
567.0
 20
386.0
 10
566.9269
 20
386.7342
 10
566.7445
 20
387.4241
 10
566.4601
 20
388.0702
 10
566.0812
 20
388.6729
 10
565.615
 20
389.2326
 10
565.0689
 20
389.7496
 10
564.4504
 20
390.2245
 10
563.7667
 20
390.6574
 10
563.0252
 20
391.049
 10
562.2333
 20
391.3996
 10
561.3984
 20
391.7095
 10
560.5277
 20
391.9793
 10
559.6288
 20
392.2092
 10
558.7089
 20
392.3997
 10
557.7754
 20
392.5512
 10
556.8357
 20
392.6641
 10
555.8971
 20
392.7389
 10
554.967
 20
392.7758
 10
554.0528
 20
392.7753
 10
553.1618
 20
392.7379
 10
552.3014
 20
392.6639
 10
551.479
 20
392.5536
 10
550.7018
 20
392.4077
 10
549.9774
 20
392.2263
 10
549.313
 20
392.0099
 10
548.716
 20
391.759
 10
548.1938
 20
391.4739
 10
547.7537
 20
391.1551
 10
547.4031
 20
390.8029
 10
547.1494
 20
390.4177
 10
547.0
 20
390.0
 10
546.0
 20
390.0
 10
546.0
 20
393.0
 10
542.0
 20
390.0
 10
541.0
 20
390.0
 10
541.0
 20
393.0
 10
537.0
 20
390.0
 10
536.0
 20
390.0
 10
535.645
 20
390.9698
 10
535.1836
 20
391.8183
 10
534.6303
 20
392.5032
 10
533.9998
 20
392.9825
 10
533.3069
 20
393.2139
 10
532.5661
 20
393.1554
 10
531.7922
 20
392.7648
 10
531.0
 20
392.0
 10
530.0
 20
392.0
 10
529.1359
 20
392.8701
 10
528.3679
 20
393.3052
 10
527.632
 20
393.3052
 10
526.864
 20
392.8701
 10
526.0
 20
392.0
 10
525.0
 20
392.0
 10
524.4017
 20
392.8608
 10
523.7973
 20
393.4
 10
523.204
 20
393.6376
 10
522.6387
 20
393.5935
 10
522.1186
 20
393.2878
 10
521.6607
 20
392.7403
 10
521.2821
 20
391.971
 10
521.0
 20
391.0
 10
520.0
 20
391.0
 10
516.0
 20
394.0
 10
515.7564
 20
392.8904
 10
515.3716
 20
392.2002
 10
514.8247
 20
391.8477
 10
514.0945
 20
391.7512
 10
513.16
 20
391.8291
 10
512.0
 20
392.0
 10
512.0
 20
387.0
 10
511.0
 20
387.0
 10
510.3896
 20
387.91
 10
509.7597
 20
388.6862
 10
509.1017
 20
389.3362
 10
508.4071
 20
389.8677
 10
507.6676
 20
390.2884
 10
506.8746
 20
390.606
 10
506.0198
 20
390.8283
 10
505.0948
 20
390.9629
 10
504.0909
 20
391.0175
 10
503.0
 20
391.0
 10
503.0
 20
395.0
 10
503.9916
 20
394.9836
 10
504.9427
 20
394.9552
 10
505.8444
 20
394.9456
 10
506.6873
 20
394.9858
 10
507.4623
 20
395.1065
 10
508.1604
 20
395.3387
 10
508.7723
 20
395.7132
 10
509.289
 20
396.261
 10
509.7012
 20
397.013
 10
510.0
 20
398.0
 10
509.0
 20
398.0
 10
503.0
 20
396.0
 10
503.0
 20
399.0
 10
507.0
 20
397.0
 10
508.0
 20
397.0
 10
508.9292
 20
397.6283
 10
509.8099
 20
398.0863
 10
510.6467
 20
398.3679
 10
511.4441
 20
398.4668
 10
512.2067
 20
398.3765
 10
512.939
 20
398.091
 10
513.6456
 20
397.6039
 10
514.3311
 20
396.909
 10
515.0
 20
396.0
 10
511.0
 20
397.0
 10
519.0
 20
394.0
 10
518.0
 20
396.0
 10
521.0
 20
395.0
 10
524.0
 20
397.0
 10
524.0
 20
396.0
 10
522.0
 20
396.0
 10
522.0
 20
395.0
 10
540.0
 20
396.0
 10
540.0
 20
395.0
 10
538.0
 20
395.0
 10
538.0
 20
394.0
 10
556.0
 20
395.0
 10
556.0
 20
394.0
 10
554.0
 20
394.0
 10
554.0
 20
393.0
 10
566.0
 20
394.0
 10
566.0
 20
399.0
 10
567.0
 20
399.0
 10
567.0
 20
397.0
 10
567.0395
 20
397.6701
 10
566.9531
 20
398.2719
 10
566.7486
 20
398.8086
 10
566.4341
 20
399.2835
 10
566.0173
 20
399.7
 10
565.5063
 20
400.0613
 10
564.909
 20
400.3707
 10
564.2334
 20
400.6316
 10
563.4873
 20
400.8473
 10
562.6788
 20
401.021
 10
561.8157
 20
401.156
 10
560.9059
 20
401.2557
 10
559.9576
 20
401.3234
 10
558.9784
 20
401.3624
 10
557.9765
 20
401.3759
 10
556.9597
 20
401.3673
 10
555.9359
 20
401.3398
 10
554.9132
 20
401.2969
 10
553.8994
 20
401.2417
 10
552.9026
 20
401.1777
 10
551.9305
 20
401.108
 10
550.9912
 20
401.036
 10
550.0926
 20
400.965
 10
549.2426
 20
400.8984
 10
548.4492
 20
400.8393
 10
547.7203
 20
400.7912
 10
547.0638
 20
400.7572
 10
546.4877
 20
400.7408
 10
546.0
 20
400.7453
 10
545.0008
 20
400.78
 10
544.0015
 20
400.8119
 10
543.002
 20
400.8413
 10
542.0025
 20
400.8681
 10
541.0028
 20
400.8925
 10
540.003
 20
400.9145
 10
539.0031
 20
400.9343
 10
538.0032
 20
400.952
 10
537.0031
 20
400.9677
 10
536.003
 20
400.9815
 10
535.0029
 20
400.9934
 10
534.0026
 20
401.0037
 10
533.0023
 20
401.0123
 10
532.002
 20
401.0194
 10
531.0016
 20
401.0251
 10
530.0013
 20
401.0295
 10
529.0009
 20
401.0327
 10
528.0004
 20
401.0348
 10
527.0
 20
401.0359
 10
525.9996
 20
401.0361
 10
524.9992
 20
401.0354
 10
523.9988
 20
401.0341
 10
522.9985
 20
401.0322
 10
521.9982
 20
401.0299
 10
520.9979
 20
401.0271
 10
519.9977
 20
401.024
 10
518.9975
 20
401.0207
 10
517.9974
 20
401.0174
 10
516.9974
 20
401.0141
 10
515.9974
 20
401.0109
 10
514.9976
 20
401.0079
 10
513.9978
 20
401.0053
 10
512.9982
 20
401.003
 10
511.9986
 20
401.0013
 10
510.9992
 20
401.0003
 10
510.0
 20
401.0
 10
509.2315
 20
401.0186
 10
508.3602
 20
401.0662
 10
507.4057
 20
401.1304
 10
506.3875
 20
401.1989
 10
505.3254
 20
401.2592
 10
504.239
 20
401.2991
 10
503.1479
 20
401.3061
 10
502.0717
 20
401.2679
 10
501.0301
 20
401.172
 10
500.0426
 20
401.0063
 10
499.1291
 20
400.7582
 10
498.3089
 20
400.4155
 10
497.6019
 20
399.9657
 10
497.0277
 20
399.3966
 10
496.5862
 20
398.7192
 10
496.2391
 20
397.9385
 10
495.9767
 20
397.0691
 10
495.7897
 20
396.1253
 10
495.6685
 20
395.1219
 10
495.6038
 20
394.0733
 10
495.5861
 20
392.994
 10
495.6058
 20
391.8985
 10
495.6537
 20
390.8015
 10
495.7201
 20
389.7175
 10
495.7956
 20
388.6609
 10
495.8708
 20
387.6463
 10
495.9363
 20
386.6883
 10
495.9824
 20
385.8013
 10
496.0
 20
385.0
  0
LWPOLYLINE
  5
46
330
17
100
AcDbEntity
  8
0
100
AcDbPolyline
 90
293
 70
0
 10
680.0
 20
401.0
 10
679.4331
 20
400.1086
 10
678.9703
 20
399.2062
 10
678.6072
 20
398.2941
 10
678.3397
 20
397.3737
 10
678.1637
 20
396.4463
 10
678.0748
 20
395.5132
 10
678.0689
 20
394.5756
 10
678.1419
 20
393.6349
 10
678.2895
 20
392.6925
 10
678.5075
 20
391.7496
 10
678.7917
 20
390.8076
 10
679.138
 20
389.8678
 10
679.5421
 20
388.9315
 10
680.0
 20
388.0
 10
681.0
 20
388.0
 10
686.0
 20
390.0
 10
685.0
 20
385.0
 10
708.0
 20
387.0
 10
708.0
 20
390.0
 10
714.0
 20
390.0
 10
714.2394
 20
389.152
 10
714.5662
 20
388.3768
 10
714.971
 20
387.6765
 10
715.445
 20
387.0527
 10
715.9788
 20
386.5074
 10
716.5636
 20
386.0424
 10
717.1901
 20
385.6595
 10
717.8493
 20
385.3607
 10
718.5321
 20
385.1477
 10
719.2293
 20
385.0223
 10
719.9321
 20
384.9866
 10
720.6311
 20
385.0422
 10
721.3173
 20
385.1911
 10
721.9817
 20
385.4351
 10
722.6152
 20
385.7761
 10
723.2086
 20
386.2158
 10
723.7528
 20
386.7562
 10
724.2389
 20
387.3992
 10
724.6576
 20
388.1465
 10
725.0
 20
389.0
 10
732.0
 20
389.0
 10
732.0261
 20
387.8148
 10
732.0886
 20
386.8141
 10
732.2461
 20
385.9813
 10
732.5573
 20
385.3001
 10
733.0809
 20
384.7537
 10
733.8755
 20
384.3259
 10
735.0
 20
384.0
 10
735.0
 20
383.0
 10
733.0
 20
379.0
 10
737.0
 20
379.0
 10
736.0
 20
382.0
 10
737.0
 20
382.0
 10
742.0
 20
379.0
 10
740.0
 20
383.0
 10
740.0
 20
384.0
 10
781.195984
 20
384.030853
 10
798.0
 20
385.0
 10
801.0
 20
390.0
 10
801.0
 20
389.0
 10
799.0
 20
385.0
 10
803.0
 20
387.0
 10
804.0
 20
387.0
 10
804.6514
 20
386.282
 10
805.356
 20
385.655
 10
806.1088
 20
385.1128
 10
806.9051
 20
384.6493
 10
807.7399
 20
384.2584
 10
808.6085
 20
383.934
 10
809.5059
 20
383.6699
 10
810.4274
 20
383.46
 10
811.368
 20
383.2981
 10
812.3228
 20
383.1783
 10
813.2872
 20
383.0943
 10
814.2561
 20
383.04
 10
815.2248
 20
383.0093
 10
816.1884
 20
382.9961
 10
817.142
 20
382.9942
 10
818.0808
 20
382.9975
 10
819.0
 20
383.0
 10
858.0
 20
383.0
 10
858.0
 20
384.0
 10
846.0
 20
384.0
 10
846.0
 20
387.0
 10
860.0
 20
387.0
 10
861.0
 20
379.0
 10
862.0
 20
379.0
 10
864.0
 20
384.0
 10
863.0
 20
379.0
 10
866.0
 20
381.0
 10
867.0
 20
381.0
 10
868.0
 20
381.0
 10
870.0
 20
379.0
 10
868.0
 20
381.0
 10
868.0
 20
382.0
 10
873.0
 20
379.0
 10
873.0
 20
383.0
 10
873.898
 20
382.9915
 10
874.8149
 20
382.9717
 10
875.7443
 20
382.9491
 10
876.6801
 20
382.932
 10
877.6161
 20
382.9289
 10
878.5462
 20
382.9482
 10
879.4642
 20
382.9985
 10
880.364
 20
383.088
 10
881.2393
 20
383.2252
 10
882.084
 20
383.4186
 10
882.892
 20
383.6766
 10
883.657
 20
384.0077
 10
884.3729
 20
384.4202
 10
885.0335
 20
384.9226
 10
885.6327
 20
385.5233
 10
886.1643
 20
386.2309
 10
886.6221
 20
387.0536
 10
887.0
 20
388.0
 10
887.9973
 20
387.991
 10
888.9795
 20
387.9736
 10
889.9403
 20
387.9644
 10
890.8735
 20
387.9803
 10
891.7728
 20
388.0378
 10
892.632
 20
388.1537
 10
893.4449
 20
388.3446
 10
894.2052
 20
388.6272
 10
894.9067
 20
389.0182
 10
895.5432
 20
389.5343
 10
896.1084
 20
390.1922
 10
896.596
 20
391.0085
 10
897.0
 20
392.0
 10
904.0
 20
392.0
 10
904.0986
 20
390.7111
 10
904.2428
 20
389.6925
 10
904.5186
 20
388.928
 10
905.0126
 20
388.4018
 10
905.8109
 20
388.0977
 10
907.0
 20
388.0
 10
907.0
 20
384.0
 10
892.0
 20
386.0
 10
891.0
 20
386.0
 10
887.0
 20
384.0
 10
887.0
 20
383.0
 10
888.023
 20
382.9939
 10
889.0446
 20
382.9775
 10
890.0645
 20
382.9532
 10
891.0822
 20
382.9234
 10
892.0976
 20
382.8906
 10
893.1102
 20
382.8574
 10
894.1196
 20
382.8261
 10
895.1256
 20
382.7992
 10
896.1279
 20
382.7792
 10
897.126
 20
382.7687
 10
898.1196
 20
382.7699
 10
899.1085
 20
382.7855
 10
900.0922
 20
382.8179
 10
901.0704
 20
382.8696
 10
902.0428
 20
382.943
 10
903.009
 20
383.0406
 10
903.9688
 20
383.1649
 10
904.9217
 20
383.3183
 10
905.8674
 20
383.5034
 10
906.8056
 20
383.7225
 10
907.736
 20
383.9783
 10
908.6581
 20
384.2731
 10
909.5717
 20
384.6093
 10
910.4765
 20
384.9896
 10
911.372
 20
385.4163
 10
912.258
 20
385.892
 10
913.1341
 20
386.419
 10
914.0
 20
387.0
 10
914.0
 20
383.0
 10
915.0
 20
383.0
 10
916.0
 20
383.0
 10
916.0
 20
386.0
 10
920.0
 20
383.0
 10
919.0
 20
388.0
 10
922.0
 20
393.0
 10
925.0
 20
393.0
 10
925.0
 20
388.0
 10
926.0
 20
388.0
 10
926.0
 20
393.0
 10
927.0
 20
393.0
 10
927.0
 20
389.0
 10
928.0
 20
389.0
 10
928.0
 20
393.0
 10
931.0
 20
390.0
 10
932.0
 20
390.0
 10
932.0
 20
393.0
 10
933.0
 20
393.0
 10
936.0
 20
389.0
 10
935.0
 20
384.0
 10
938.0
 20
386.0
 10
944.0
 20
383.0
 10
945.0
 20
383.0
 10
945.0
 20
388.0
 10
951.0
 20
389.0
 10
948.0
 20
383.0
 10
951.0
 20
385.0
 10
952.0
 20
385.0
 10
953.0
 20
385.0
 10
956.0
 20
383.0
 10
954.0
 20
386.0
 10
954.0
 20
387.0
 10
957.0
 20
383.0
 10
960.0
 20
383.0
 10
960.0
 20
401.0
 10
946.0
 20
401.0
 10
946.0
 20
397.0
 10
951.0
 20
395.0
 10
945.0
 20
396.0
 10
945.0
 20
401.0
 10
944.0728
 20
400.7899
 10
943.1325
 20
400.5977
 10
942.1799
 20
400.4228
 10
941.216
 20
400.2645
 10
940.2415
 20
400.1222
 10
939.2573
 20
399.9953
 10
938.2643
 20
399.8832
 10
937.2632
 20
399.7854
 10
936.2551
 20
399.7013
 10
935.2407
 20
399.6302
 10
934.2208
 20
399.5715
 10
933.1964
 20
399.5246
 10
932.1683
 20
399.4891
 10
931.1373
 20
399.4641
 10
930.1043
 20
399.4492
 10
929.0702
 20
399.4438
 10
928.0357
 20
399.4472
 10
927.0018
 20
399.4588
 10
925.9693
 20
399.4782
 10
924.9391
 20
399.5045
 10
923.912
 20
399.5374
 10
922.8888
 20
399.5761
 10
921.8705
 20
399.62
 10
920.8578
 20
399.6687
 10
919.8517
 20
399.7214
 10
918.853
 20
399.7775
 10
917.8625
 20
399.8366
 10
916.8811
 20
399.8979
 10
915.9096
 20
399.9609
 10
914.949
 20
400.0249
 10
914.0
 20
400.0895
 10
913.1372
 20
400.1704
 10
912.2434
 20
400.2886
 10
911.3256
 20
400.4302
 10
910.3908
 20
400.5818
 10
909.4461
 20
400.7296
 10
908.4984
 20
400.86
 10
907.5549
 20
400.9594
 10
906.6225
 20
401.0141
 10
905.7084
 20
401.0105
 10
904.8195
 20
400.9349
 10
903.9628
 20
400.7737
 10
903.1455
 20
400.5132
 10
902.3746
 20
400.1399
 10
901.6571
 20
399.64
 10
901.0
 20
399.0
 10
900.0
 20
399.0
 10
897.0
 20
401.0
 10
898.0
 20
396.0
 10
895.0
 20
401.0
 10
862.0
 20
400.804016
 10
850.0
 20
399.0
 10
849.0
 20
399.0
 10
846.0
 20
401.0
 10
847.0
 20
396.0
 10
844.0
 20
401.0
 10
802.0
 20
401.0
 10
803.0
 20
392.0
 10
802.0
 20
392.0
 10
801.0
 20
401.0
 10
747.0
 20
401.0
 10
745.0
 20
396.0
 10
746.0
 20
401.0
 10
741.0
 20
401.0
 10
740.0
 20
401.0
 10
741.0
 20
398.0
 10
738.0
 20
401.0
 10
723.0
 20
398.0
 10
724.0
 20
401.0
 10
717.0
 20
401.0
 10
718.0
 20
396.0
 10
716.0
 20
401.0
 10
700.0
 20
399.0
 10
699.0
 20
399.0
 10
696.0
 20
401.0
 10
697.0
 20
396.0
 10
694.0
 20
401.0
 10
687.0
 20
399.0
 10
686.0
 20
399.0
 10
682.0
 20
401.0
 10
684.0
 20
397.0
 10
684.0
 20
396.0
 10
680.0
 20
401.0
  0
LWPOLYLINE
  5
47
330
17
100
AcDbEntity
  8
0
100
AcDbPolyline
 90
5
 70
0
 10
313.0
 20
400.0
 10
313.0
 20
341.0
 10
314.0
 20
341.0
 10
314.0
 20
381.0
 10
313.0
 20
400.0
  0
LWPOLYLINE
  5
48
330
17
100
AcDbEntity
  8
0
100
AcDbPolyline
 90
5
 70
0
 10
317.0
 20
393.0
 10
317.0
 20
343.0
 10
374.0
 20
343.0
 10
374.0
 20
393.0
 10
317.0
 20
393.0
  0
LWPOLYLINE
  5
49
330
17
100
AcDbEntity
  8
0
100
AcDbPolyline
 90
9
 70
0
 10
473.0
 20
394.0
 10
473.0
 20
350.0
 10
493.0
 20
350.0
 10
493.0
 20
394.0
 10
486.0
 20
394.0
 10
486.0
 20
386.0
 10
480.0
 20
386.0
 10
480.0
 20
394.0
 10
473.0
 20
394.0
  0
LWPOLYLINE
  5
4A
330
17
100
AcDbEntity
  8
0
100
AcDbPolyline
 90
175
 70
0
 10
343.0
 20
343.0
 10
343.0
 20
344.0
 10
342.152
 20
344.1062
 10
341.3226
 20
344.2386
 10
340.5115
 20
344.3966
 10
339.7189
 20
344.5796
 10
338.9447
 20
344.787
 10
338.1889
 20
345.0183
 10
337.4515
 20
345.2729
 10
336.7325
 20
345.5503
 10
336.032
 20
345.8498
 10
335.3498
 20
346.1709
 10
334.6861
 20
346.5131
 10
334.0408
 20
346.8757
 10
333.4139
 20
347.2583
 10
332.8055
 20
347.6602
 10
332.2154
 20
348.0808
 10
331.6438
 20
348.5197
 10
331.0905
 20
348.9762
 10
330.5557
 20
349.4498
 10
330.0393
 20
349.9399
 10
329.5413
 20
350.4459
 10
329.0616
 20
350.9673
 10
328.6004
 20
351.5034
 10
328.1576
 20
352.0539
 10
327.7332
 20
352.618
 10
327.3273
 20
353.1952
 10
326.9397
 20
353.7849
 10
326.5705
 20
354.3866
 10
326.2197
 20
354.9997
 10
325.8873
 20
355.6236
 10
325.5733
 20
356.2578
 10
325.2777
 20
356.9017
 10
325.0005
 20
357.5547
 10
324.7417
 20
358.2163
 10
324.5013
 20
358.8859
 10
324.2793
 20
359.5629
 10
324.0756
 20
360.2467
 10
323.8904
 20
360.9369
 10
323.7236
 20
361.6328
 10
323.5751
 20
362.3339
 10
323.445
 20
363.0395
 10
323.3334
 20
363.7492
 10
323.2401
 20
364.4624
 10
323.1652
 20
365.1784
 10
323.1087
 20
365.8968
 10
323.0705
 20
366.6169
 10
323.0508
 20
367.3382
 10
323.0494
 20
368.0602
 10
323.0665
 20
368.7822
 10
323.1019
 20
369.5037
 10
323.1556
 20
370.2241
 10
323.2278
 20
370.9429
 10
323.3183
 20
371.6594
 10
323.4273
 20
372.3732
 10
323.5545
 20
373.0837
 10
323.7002
 20
373.7902
 10
323.8643
 20
374.4923
 10
324.0467
 20
375.1893
 10
324.2475
 20
375.8807
 10
324.4666
 20
376.5659
 10
324.7042
 20
377.2444
 10
324.9601
 20
377.9155
 10
325.2343
 20
378.5788
 10
325.527
 20
379.2336
 10
325.838
 20
379.8794
 10
326.1674
 20
380.5157
 10
326.5151
 20
381.1418
 10
326.8812
 20
381.7571
 10
327.2657
 20
382.3612
 10
327.6685
 20
382.9534
 10
328.0897
 20
383.5333
 10
328.5293
 20
384.1001
 10
328.9872
 20
384.6534
 10
329.4635
 20
385.1925
 10
329.9581
 20
385.717
 10
330.4711
 20
386.2262
 10
331.0025
 20
386.7197
 10
331.5522
 20
387.1967
 10
332.1203
 20
387.6567
 10
332.7067
 20
388.0993
 10
333.3114
 20
388.5237
 10
333.9346
 20
388.9295
 10
334.576
 20
389.3161
 10
335.2359
 20
389.6829
 10
335.914
 20
390.0293
 10
336.6106
 20
390.3549
 10
337.3254
 20
390.6589
 10
338.0587
 20
390.9408
 10
338.8102
 20
391.2002
 10
339.5801
 20
391.4363
 10
340.3684
 20
391.6487
 10
341.175
 20
391.8368
 10
342.0
 20
392.0
 10
341.1618
 20
392.2401
 10
340.3219
 20
392.3851
 10
339.4821
 20
392.4395
 10
338.6438
 20
392.408
 10
337.8089
 20
392.2953
 10
336.979
 20
392.106
 10
336.1558
 20
391.8448
 10
335.3409
 20
391.5163
 10
334.5361
 20
391.1252
 10
333.7431
 20
390.6762
 10
332.9634
 20
390.1739
 10
332.1988
 20
389.623
 10
331.451
 20
389.0282
 10
330.7216
 20
388.394
 10
330.0123
 20
387.7253
 10
329.3249
 20
387.0265
 10
328.6609
 20
386.3024
 10
328.0221
 20
385.5577
 10
327.4101
 20
384.797
 10
326.8266
 20
384.025
 10
326.2734
 20
383.2463
 10
325.752
 20
382.4655
 10
325.2642
 20
381.6875
 10
324.8116
 20
380.9167
 10
324.3959
 20
380.1579
 10
324.0189
 20
379.4157
 10
323.6821
 20
378.6949
 10
323.3873
 20
378.0
 10
323.0758
 20
377.181
 10
322.7946
 20
376.3516
 10
322.5435
 20
375.5128
 10
322.3223
 20
374.6654
 10
322.1306
 20
373.8105
 10
321.9683
 20
372.949
 10
321.8351
 20
372.082
 10
321.7308
 20
371.2103
 10
321.6551
 20
370.335
 10
321.6078
 20
369.4571
 10
321.5887
 20
368.5774
 10
321.5974
 20
367.6971
 10
321.6338
 20
366.817
 10
321.6977
 20
365.9381
 10
321.7887
 20
365.0614
 10
321.9066
 20
364.1879
 10
322.0513
 20
363.3186
 10
322.2224
 20
362.4543
 10
322.4197
 20
361.5962
 10
322.643
 20
360.7452
 10
322.892
 20
359.9022
 10
323.1665
 20
359.0682
 10
323.4662
 20
358.2442
 10
323.791
 20
357.4312
 10
324.1405
 20
356.6301
 10
324.5145
 20
355.8419
 10
324.9129
 20
355.0676
 10
325.3352
 20
354.3082
 10
325.7814
 20
353.5646
 10
326.2511
 20
352.8378
 10
326.7441
 20
352.1288
 10
327.2602
 20
351.4386
 10
327.7991
 20
350.7681
 10
328.3606
 20
350.1182
 10
328.9445
 20
349.4901
 10
329.5505
 20
348.8846
 10
330.1783
 20
348.3027
 10
330.8277
 20
347.7455
 10
331.4986
 20
347.2138
 10
332.1906
 20
346.7086
 10
332.9034
 20
346.231
 10
333.637
 20
345.7818
 10
334.3909
 20
345.3621
 10
335.165
 20
344.9729
 10
335.9591
 20
344.615
 10
336.7728
 20
344.2896
 10
337.606
 20
343.9975
 10
338.4584
 20
343.7397
 10
339.3297
 20
343.5173
 10
340.2198
 20
343.3311
 10
341.1284
 20
343.1822
 10
342.0552
 20
343.0715
 10
343.0
 20
343.0
  0
LWPOLYLINE
  5
4B
330
17
100
AcDbEntity
  8
0
100
AcDbPolyline
 90
53
 70
0
 10
440.0
 20
393.0
 10
439.7562
 20
391.9196
 10
439.5226
 20
390.8493
 10
439.2991
 20
389.7887
 10
439.0858
 20
388.7372
 10
438.8827
 20
387.6945
 10
438.6897
 20
386.6601
 10
438.5069
 20
385.6336
 10
438.3342
 20
384.6146
 10
438.1717
 20
383.6026
 10
438.0193
 20
382.5973
 10
437.8771
 20
381.5981
 10
437.7451
 20
380.6047
 10
437.6232
 20
379.6167
 10
437.5115
 20
378.6336
 10
437.4099
 20
377.6549
 10
437.3185
 20
376.6803
 10
437.2372
 20
375.7094
 10
437.1661
 20
374.7417
 10
437.1052
 20
373.7767
 10
437.0544
 20
372.8141
 10
437.0138
 20
371.8534
 10
436.9833
 20
370.8942
 10
436.963
 20
369.936
 10
436.9528
 20
368.9786
 10
436.9528
 20
368.0213
 10
436.963
 20
367.0638
 10
436.9833
 20
366.1057
 10
437.0138
 20
365.1465
 10
437.0544
 20
364.1858
 10
437.1052
 20
363.2231
 10
437.1661
 20
362.2582
 10
437.2372
 20
361.2904
 10
437.3185
 20
360.3195
 10
437.4099
 20
359.3449
 10
437.5115
 20
358.3663
 10
437.6232
 20
357.3832
 10
437.7451
 20
356.3951
 10
437.8771
 20
355.4017
 10
438.0193
 20
354.4026
 10
438.1717
 20
353.3973
 10
438.3342
 20
352.3853
 10
438.5069
 20
351.3663
 10
438.6897
 20
350.3398
 10
438.8827
 20
349.3054
 10
439.0858
 20
348.2627
 10
439.2991
 20
347.2112
 10
439.5226
 20
346.1505
 10
439.7562
 20
345.0803
 10
440.0
 20
344.0
 10
441.0
 20
344.0
 10
437.089508
 20
372.0
 10
440.0
 20
393.0
  0
LWPOLYLINE
  5
4C
330
17
100
AcDbEntity
  8
0
100
AcDbPolyline
 90
116
 70
0
 10
419.0
 20
392.0
 10
418.8656
 20
390.9201
 10
418.7371
 20
389.8507
 10
418.6145
 20
388.7911
 10
418.4977
 20
387.741
 10
418.3867
 20
386.6999
 10
418.2816
 20
385.6673
 10
418.1824
 20
384.6427
 10
418.089
 20
383.6258
 10
418.0014
 20
382.616
 10
417.9197
 20
381.6128
 10
417.8438
 20
380.6159
 10
417.7737
 20
379.6248
 10
417.7095
 20
378.639
 10
417.6512
 20
377.658
 10
417.5986
 20
376.6814
 10
417.552
 20
375.7088
 10
417.5111
 20
374.7396
 10
417.4761
 20
373.7734
 10
417.447
 20
372.8097
 10
417.4237
 20
371.8482
 10
417.4062
 20
370.8883
 10
417.3946
 20
369.9296
 10
417.3888
 20
368.9716
 10
417.3888
 20
368.0138
 10
417.3947
 20
367.0558
 10
417.4064
 20
366.0972
 10
417.4239
 20
365.1375
 10
417.4473
 20
364.1761
 10
417.4765
 20
363.2128
 10
417.5116
 20
362.2469
 10
417.5525
 20
361.2781
 10
417.5992
 20
360.3058
 10
417.6518
 20
359.3297
 10
417.7102
 20
358.3493
 10
417.7744
 20
357.364
 10
417.8445
 20
356.3735
 10
417.9203
 20
355.3773
 10
418.0021
 20
354.3749
 10
418.0896
 20
353.3659
 10
418.183
 20
352.3498
 10
418.2822
 20
351.3261
 10
418.3873
 20
350.2945
 10
418.4982
 20
349.2543
 10
418.6149
 20
348.2053
 10
418.7374
 20
347.1468
 10
418.8658
 20
346.0785
 10
419.0
 20
345.0
 10
420.0
 20
345.0
 10
418.0
 20
366.0
 10
418.704
 20
365.5511
 10
419.3429
 20
365.022
 10
419.9202
 20
364.4187
 10
420.4392
 20
363.7471
 10
420.9036
 20
363.0129
 10
421.3168
 20
362.2221
 10
421.6824
 20
361.3806
 10
422.0038
 20
360.4941
 10
422.2845
 20
359.5687
 10
422.5281
 20
358.6101
 10
422.738
 20
357.6242
 10
422.9178
 20
356.617
 10
423.071
 20
355.5942
 10
423.201
 20
354.5619
 10
423.3114
 20
353.5257
 10
423.4057
 20
352.4916
 10
423.4873
 20
351.4656
 10
423.5599
 20
350.4534
 10
423.6268
 20
349.4609
 10
423.6916
 20
348.494
 10
423.7579
 20
347.5586
 10
423.829
 20
346.6605
 10
423.9085
 20
345.8057
 10
424.0
 20
345.0
 10
425.0
 20
345.0
 10
423.0
 20
368.0
 10
423.6178
 20
367.2214
 10
424.1788
 20
366.4225
 10
424.6864
 20
365.6043
 10
425.1439
 20
364.768
 10
425.5547
 20
363.9147
 10
425.9222
 20
363.0456
 10
426.2498
 20
362.1619
 10
426.5409
 20
361.2646
 10
426.7989
 20
360.3549
 10
427.0272
 20
359.4339
 10
427.2291
 20
358.5028
 10
427.4081
 20
357.5628
 10
427.5675
 20
356.615
 10
427.7108
 20
355.6605
 10
427.8412
 20
354.7004
 10
427.9623
 20
353.736
 10
428.0774
 20
352.7683
 10
428.1899
 20
351.7986
 10
428.3032
 20
350.8278
 10
428.4206
 20
349.8573
 10
428.5456
 20
348.8881
 10
428.6816
 20
347.9214
 10
428.8319
 20
346.9583
 10
429.0
 20
346.0
 10
430.0
 20
346.0
 10
427.0
 20
366.0
 10
431.0
 20
366.0
 10
434.0
 20
346.0
 10
435.0
 20
346.0
 10
432.0
 20
370.0
 10
429.0
 20
370.0
 10
430.0
 20
391.0
 10
429.0
 20
391.0
 10
427.0
 20
374.0
 10
423.0
 20
374.0
 10
425.0
 20
391.0
 10
424.0
 20
391.0
 10
422.0
 20
374.0
 10
418.0
 20
374.0
 10
419.0
 20
392.0
  0
LWPOLYLINE
  5
4D
330
17
100
AcDbEntity
  8
0
100
AcDbPolyline
 90
52
 70
0
 10
445.0
 20
392.0
 10
444.691
 20
391.0135
 10
444.3951
 20
390.0279
 10
444.1124
 20
389.0432
 10
443.8429
 20
388.0594
 10
443.5865
 20
387.0763
 10
443.3433
 20
386.094
 10
443.1132
 20
385.1124
 10
442.8963
 20
384.1314
 10
442.6926
 20
383.1511
 10
442.502
 20
382.1714
 10
442.3245
 20
381.1922
 10
442.1602
 20
380.2136
 10
442.0091
 20
379.2354
 10
441.8711
 20
378.2577
 10
441.7462
 20
377.2804
 10
441.6345
 20
376.3035
 10
441.536
 20
375.3268
 10
441.4505
 20
374.3505
 10
441.3783
 20
373.3744
 10
441.3192
 20
372.3985
 10
441.2732
 20
371.4228
 10
441.2404
 20
370.4472
 10
441.2207
 20
369.4717
 10
441.2142
 20
368.4962
 10
441.2208
 20
367.5208
 10
441.2406
 20
366.5453
 10
441.2735
 20
365.5698
 10
441.3196
 20
364.5941
 10
441.3788
 20
363.6184
 10
441.4511
 20
362.6424
 10
441.5366
 20
361.6662
 10
441.6352
 20
360.6898
 10
441.747
 20
359.713
 10
441.8719
 20
358.736
 10
442.0099
 20
357.7585
 10
442.1611
 20
356.7807
 10
442.3254
 20
355.8024
 10
442.5029
 20
354.8236
 10
442.6935
 20
353.8442
 10
442.8972
 20
352.8643
 10
443.1141
 20
351.8838
 10
443.3441
 20
350.9027
 10
443.5872
 20
349.9208
 10
443.8435
 20
348.9382
 10
444.1129
 20
347.9549
 10
444.3955
 20
346.9708
 10
444.6911
 20
345.9858
 10
445.0
 20
345.0
 10
446.0
 20
345.0
 10
442.089508
 20
372.0
 10
445.0
 20
392.0
  0
LWPOLYLINE
  5
4E
330
17
100
AcDbEntity
  8
0
100
AcDbPolyline
 90
99
 70
0
 10
526.0
 20
392.0
 10
526.1462
 20
390.8994
 10
526.2866
 20
389.812
 10
526.4212
 20
388.7372
 10
526.5499
 20
387.6743
 10
526.6727
 20
386.6227
 10
526.7895
 20
385.582
 10
526.9004
 20
384.5515
 10
527.0053
 20
383.5306
 10
527.104
 20
382.5188
 10
527.1967
 20
381.5154
 10
527.2833
 20
380.5199
 10
527.3637
 20
379.5316
 10
527.4379
 20
378.5501
 10
527.5058
 20
377.5747
 10
527.5675
 20
376.6049
 10
527.6228
 20
375.64
 10
527.6718
 20
374.6794
 10
527.7144
 20
373.7227
 10
527.7505
 20
372.7691
 10
527.7802
 20
371.8182
 10
527.8034
 20
370.8693
 10
527.82
 20
369.9219
 10
527.8301
 20
368.9753
 10
527.8335
 20
368.0291
 10
527.8303
 20
367.0825
 10
527.8204
 20
366.135
 10
527.8038
 20
365.1861
 10
527.7803
 20
364.2351
 10
527.7501
 20
363.2815
 10
527.7131
 20
362.3246
 10
527.6691
 20
361.364
 10
527.6183
 20
360.399
 10
527.5605
 20
359.429
 10
527.4957
 20
358.4534
 10
527.4238
 20
357.4717
 10
527.3449
 20
356.4833
 10
527.2589
 20
355.4875
 10
527.1658
 20
354.4839
 10
527.0655
 20
353.4718
 10
526.9579
 20
352.4507
 10
526.8431
 20
351.4199
 10
526.721
 20
350.3789
 10
526.5916
 20
349.327
 10
526.4548
 20
348.2638
 10
526.3107
 20
347.1886
 10
526.159
 20
346.1009
 10
526.0
 20
345.0
 10
527.0
 20
345.0
 10
527.1968
 20
345.8634
 10
527.3947
 20
346.7382
 10
527.5931
 20
347.6238
 10
527.7913
 20
348.5198
 10
527.9886
 20
349.4254
 10
528.1846
 20
350.3404
 10
528.3785
 20
351.2641
 10
528.5697
 20
352.1961
 10
528.7577
 20
353.1358
 10
528.9417
 20
354.0827
 10
529.1213
 20
355.0364
 10
529.2957
 20
355.9962
 10
529.4643
 20
356.9617
 10
529.6266
 20
357.9324
 10
529.7818
 20
358.9077
 10
529.9295
 20
359.8872
 10
530.0689
 20
360.8704
 10
530.1995
 20
361.8566
 10
530.3206
 20
362.8455
 10
530.4316
 20
363.8364
 10
530.5319
 20
364.829
 10
530.6209
 20
365.8226
 10
530.6979
 20
366.8168
 10
530.7624
 20
367.811
 10
530.8137
 20
368.8048
 10
530.8511
 20
369.7976
 10
530.8742
 20
370.7889
 10
530.8822
 20
371.7782
 10
530.8745
 20
372.765
 10
530.8506
 20
373.7488
 10
530.8098
 20
374.729
 10
530.7514
 20
375.7052
 10
530.6749
 20
376.6768
 10
530.5797
 20
377.6433
 10
530.4651
 20
378.6043
 10
530.3305
 20
379.5592
 10
530.1752
 20
380.5074
 10
529.9988
 20
381.4485
 10
529.8005
 20
382.382
 10
529.5797
 20
383.3074
 10
529.3358
 20
384.2241
 10
529.0683
 20
385.1316
 10
528.7764
 20
386.0294
 10
528.4595
 20
386.917
 10
528.1171
 20
387.7939
 10
527.7485
 20
388.6596
 10
527.3531
 20
389.5136
 10
526.9303
 20
390.3553
 10
526.4795
 20
391.1843
 10
526.0
 20
392.0
  0
LWPOLYLINE
  5
4F
330
17
100
AcDbEntity
  8
0
100
AcDbPolyline
 90
57
 70
0
 10
531.0
 20
392.0
 10
535.0
 20
367.0
 10
531.0
 20
344.0
 10
532.0
 20
344.0
 10
532.1455
 20
344.765
 10
532.2806
 20
345.5867
 10
532.4079
 20
346.4592
 10
532.5299
 20
347.3766
 10
532.6491
 20
348.333
 10
532.7681
 20
349.3226
 10
532.8894
 20
350.3394
 10
533.0155
 20
351.3776
 10
533.1489
 20
352.4313
 10
533.2923
 20
353.4945
 10
533.4481
 20
354.5613
 10
533.6188
 20
355.626
 10
533.8071
 20
356.6826
 10
534.0153
 20
357.7252
 10
534.2462
 20
358.7478
 10
534.5021
 20
359.7447
 10
534.7857
 20
360.71
 10
535.0995
 20
361.6377
 10
535.446
 20
362.5219
 10
535.8277
 20
363.3568
 10
536.2472
 20
364.1364
 10
536.707
 20
364.8549
 10
537.2096
 20
365.5064
 10
537.7576
 20
366.085
 10
538.3536
 20
366.5848
 10
539.0
 20
367.0
 10
536.0
 20
344.0
 10
537.0
 20
344.0
 10
541.0
 20
370.0
 10
542.0
 20
370.0
 10
542.0
 20
347.0
 10
543.0
 20
347.0
 10
545.0
 20
367.0
 10
549.0
 20
367.0
 10
547.0
 20
346.0
 10
548.0
 20
346.0
 10
548.0
 20
390.0
 10
547.0
 20
390.0
 10
549.0
 20
371.0
 10
545.0
 20
371.0
 10
545.0
 20
372.0
 10
543.0
 20
390.0
 10
542.0
 20
390.0
 10
544.0
 20
371.0
 10
540.0
 20
371.0
 10
538.0
 20
390.0
 10
537.0
 20
390.0
 10
539.0
 20
375.0
 10
536.0
 20
375.0
 10
536.0
 20
372.0
 10
539.0
 20
374.0
 10
535.0
 20
371.0
 10
531.0
 20
392.0
  0
LWPOLYLINE
  5
50
330
17
100
AcDbEntity
  8
0
100
AcDbPolyline
 90
45
 70
0
 10
450.0
 20
391.0
 10
449.6742
 20
389.9559
 10
449.3668
 20
388.9195
 10
449.0776
 20
387.8904
 10
448.8061
 20
386.8683
 10
448.552
 20
385.8525
 10
448.315
 20
384.8429
 10
448.0946
 20
383.8388
 10
447.8906
 20
382.8399
 10
447.7025
 20
381.8457
 10
447.5301
 20
380.8559
 10
447.3729
 20
379.87
 10
447.2306
 20
378.8876
 10
447.1029
 20
377.9082
 10
446.9894
 20
376.9315
 10
446.8898
 20
375.957
 10
446.8037
 20
374.9842
 10
446.7307
 20
374.0128
 10
446.6704
 20
373.0423
 10
446.6227
 20
372.0724
 10
446.5869
 20
371.1025
 10
446.563
 20
370.1323
 10
446.5504
 20
369.1612
 10
446.5488
 20
368.189
 10
446.5578
 20
367.2152
 10
446.5772
 20
366.2393
 10
446.6065
 20
365.261
 10
446.6455
 20
364.2798
 10
446.6936
 20
363.2952
 10
446.7507
 20
362.3069
 10
446.8163
 20
361.3144
 10
446.8901
 20
360.3173
 10
446.9717
 20
359.3152
 10
447.0608
 20
358.3076
 10
447.157
 20
357.2942
 10
447.2599
 20
356.2745
 10
447.3693
 20
355.248
 10
447.4847
 20
354.2144
 10
447.6059
 20
353.1732
 10
447.7324
 20
352.124
 10
447.8638
 20
351.0664
 10
448.0
 20
350.0
 10
449.0
 20
350.0
 10
447.170532
 20
374.0
 10
450.0
 20
391.0
  0
LWPOLYLINE
  5
51
330
17
100
AcDbEntity
  8
0
100
AcDbPolyline
 90
52
 70
0
 10
516.0
 20
391.0
 10
519.945984
 20
368.0
 10
516.0
 20
346.0
 10
517.0
 20
346.0
 10
517.2044
 20
346.891
 10
517.4104
 20
347.7899
 10
517.6174
 20
348.6965
 10
517.8246
 20
349.6102
 10
518.0313
 20
350.5308
 10
518.2367
 20
351.4577
 10
518.4401
 20
352.3907
 10
518.6407
 20
353.3293
 10
518.8379
 20
354.2731
 10
519.0309
 20
355.2217
 10
519.2189
 20
356.1748
 10
519.4013
 20
357.132
 10
519.5772
 20
358.0929
 10
519.746
 20
359.057
 10
519.907
 20
360.024
 10
520.0593
 20
360.9935
 10
520.2023
 20
361.9652
 10
520.3353
 20
362.9385
 10
520.4574
 20
363.9132
 10
520.568
 20
364.8888
 10
520.6663
 20
365.8649
 10
520.7516
 20
366.8412
 10
520.8231
 20
367.8173
 10
520.8802
 20
368.7928
 10
520.9221
 20
369.7672
 10
520.948
 20
370.7402
 10
520.9573
 20
371.7114
 10
520.9491
 20
372.6805
 10
520.9228
 20
373.6469
 10
520.8776
 20
374.6104
 10
520.8128
 20
375.5705
 10
520.7277
 20
376.5269
 10
520.6215
 20
377.4791
 10
520.4935
 20
378.4268
 10
520.3429
 20
379.3696
 10
520.169
 20
380.3071
 10
519.9712
 20
381.2388
 10
519.7486
 20
382.1645
 10
519.5005
 20
383.0837
 10
519.2262
 20
383.996
 10
518.9249
 20
384.901
 10
518.596
 20
385.7984
 10
518.2386
 20
386.6877
 10
517.8521
 20
387.5686
 10
517.4357
 20
388.4407
 10
516.9887
 20
389.3035
 10
516.5104
 20
390.1567
 10
516.0
 20
391.0
  0
LWPOLYLINE
  5
52
330
17
100
AcDbEntity
  8
0
100
AcDbPolyline
 90
95
 70
0
 10
521.0
 20
391.0
 10
521.2214
 20
389.9091
 10
521.4328
 20
388.8306
 10
521.6341
 20
387.7638
 10
521.8253
 20
386.7084
 10
522.0065
 20
385.6635
 10
522.1776
 20
384.6288
 10
522.3386
 20
383.6035
 10
522.4896
 20
382.5872
 10
522.6305
 20
381.5792
 10
522.7613
 20
380.579
 10
522.8821
 20
379.586
 10
522.9928
 20
378.5996
 10
523.0934
 20
377.6193
 10
523.184
 20
376.6444
 10
523.2645
 20
375.6745
 10
523.3349
 20
374.7088
 10
523.3953
 20
373.7469
 10
523.4456
 20
372.7882
 10
523.4858
 20
371.8321
 10
523.516
 20
370.878
 10
523.5361
 20
369.9253
 10
523.5462
 20
368.9736
 10
523.5461
 20
368.0221
 10
523.536
 20
367.0703
 10
523.5159
 20
366.1177
 10
523.4857
 20
365.1636
 10
523.4454
 20
364.2076
 10
523.3951
 20
363.2489
 10
523.3347
 20
362.2872
 10
523.2642
 20
361.3216
 10
523.1837
 20
360.3518
 10
523.0931
 20
359.3771
 10
522.9925
 20
358.3969
 10
522.8817
 20
357.4107
 10
522.761
 20
356.4179
 10
522.6301
 20
355.418
 10
522.4893
 20
354.4102
 10
522.3383
 20
353.3941
 10
522.1773
 20
352.3691
 10
522.0062
 20
351.3347
 10
521.8251
 20
350.2902
 10
521.6339
 20
349.235
 10
521.4326
 20
348.1686
 10
521.2213
 20
347.0905
 10
521.0
 20
346.0
 10
522.0
 20
346.0
 10
522.228
 20
346.8182
 10
522.4558
 20
347.6543
 10
522.6829
 20
348.5075
 10
522.9084
 20
349.3769
 10
523.1317
 20
350.2617
 10
523.3522
 20
351.161
 10
523.5691
 20
352.0741
 10
523.7817
 20
353.0
 10
523.9895
 20
353.938
 10
524.1916
 20
354.8871
 10
524.3875
 20
355.8467
 10
524.5764
 20
356.8158
 10
524.7576
 20
357.7936
 10
524.9305
 20
358.7792
 10
525.0945
 20
359.7719
 10
525.2487
 20
360.7708
 10
525.3926
 20
361.775
 10
525.5255
 20
362.7837
 10
525.6466
 20
363.7961
 10
525.7553
 20
364.8114
 10
525.8509
 20
365.8287
 10
525.9328
 20
366.8471
 10
526.0002
 20
367.8659
 10
526.0525
 20
368.8842
 10
526.089
 20
369.9011
 10
526.109
 20
370.9159
 10
526.1118
 20
371.9277
 10
526.0968
 20
372.9356
 10
526.0633
 20
373.9389
 10
526.0105
 20
374.9366
 10
525.9379
 20
375.928
 10
525.8446
 20
376.9122
 10
525.7302
 20
377.8884
 10
525.5937
 20
378.8557
 10
525.4347
 20
379.8134
 10
525.2524
 20
380.7605
 10
525.0461
 20
381.6962
 10
524.8152
 20
382.6197
 10
524.5589
 20
383.5302
 10
524.2766
 20
384.4268
 10
523.9676
 20
385.3087
 10
523.6312
 20
386.1751
 10
523.2668
 20
387.0251
 10
522.8736
 20
387.8578
 10
522.451
 20
388.6725
 10
521.9983
 20
389.4683
 10
521.5149
 20
390.2444
 10
521.0
 20
391.0
  0
LWPOLYLINE
  5
53
330
17
100
AcDbEntity
  8
0
100
AcDbPolyline
 90
49
 70
0
 10
557.0
 20
391.0
 10
557.0
 20
346.0
 10
558.0
 20
346.0
 10
558.0754
 20
346.9072
 10
558.1588
 20
347.8259
 10
558.2494
 20
348.7556
 10
558.3463
 20
349.6955
 10
558.4488
 20
350.6453
 10
558.5558
 20
351.6042
 10
558.6667
 20
352.5717
 10
558.7806
 20
353.5474
 10
558.8965
 20
354.5305
 10
559.0138
 20
355.5206
 10
559.1315
 20
356.517
 10
559.2488
 20
357.5192
 10
559.3648
 20
358.5267
 10
559.4788
 20
359.5388
 10
559.5899
 20
360.555
 10
559.6972
 20
361.5748
 10
559.7999
 20
362.5975
 10
559.8972
 20
363.6226
 10
559.9882
 20
364.6495
 10
560.0721
 20
365.6778
 10
560.148
 20
366.7067
 10
560.2151
 20
367.7357
 10
560.2726
 20
368.7644
 10
560.3196
 20
369.792
 10
560.3552
 20
370.818
 10
560.3787
 20
371.842
 10
560.3892
 20
372.8632
 10
560.3859
 20
373.8811
 10
560.3679
 20
374.8953
 10
560.3343
 20
375.905
 10
560.2844
 20
376.9097
 10
560.2173
 20
377.909
 10
560.1321
 20
378.9021
 10
560.028
 20
379.8886
 10
559.9042
 20
380.8678
 10
559.7598
 20
381.8392
 10
559.5941
 20
382.8023
 10
559.406
 20
383.7564
 10
559.1949
 20
384.7011
 10
558.9599
 20
385.6356
 10
558.7001
 20
386.5596
 10
558.4146
 20
387.4723
 10
558.1027
 20
388.3733
 10
557.7636
 20
389.2619
 10
557.3962
 20
390.1377
 10
557.0
 20
391.0
  0
LWPOLYLINE
  5
54
330
17
100
AcDbEntity
  8
0
100
AcDbPolyline
 90
49
 70
0
 10
562.0
 20
391.0
 10
562.0
 20
346.0
 10
563.0
 20
346.0
 10
563.075
 20
346.9035
 10
563.158
 20
347.819
 10
563.2482
 20
348.746
 10
563.3446
 20
349.6838
 10
563.4464
 20
350.6317
 10
563.5529
 20
351.5893
 10
563.6631
 20
352.556
 10
563.7762
 20
353.5311
 10
563.8915
 20
354.514
 10
564.008
 20
355.5042
 10
564.1249
 20
356.5011
 10
564.2415
 20
357.504
 10
564.3567
 20
358.5125
 10
564.47
 20
359.5258
 10
564.5803
 20
360.5435
 10
564.6868
 20
361.5648
 10
564.7888
 20
362.5893
 10
564.8854
 20
363.6163
 10
564.9757
 20
364.6453
 10
565.0589
 20
365.6756
 10
565.1342
 20
366.7067
 10
565.2007
 20
367.7379
 10
565.2577
 20
368.7687
 10
565.3042
 20
369.7985
 10
565.3395
 20
370.8267
 10
565.3627
 20
371.8527
 10
565.3729
 20
372.8759
 10
565.3694
 20
373.8957
 10
565.3512
 20
374.9115
 10
565.3177
 20
375.9228
 10
565.2678
 20
376.9289
 10
565.2009
 20
377.9293
 10
565.116
 20
378.9233
 10
565.0124
 20
379.9104
 10
564.8891
 20
380.89
 10
564.7454
 20
381.8615
 10
564.5804
 20
382.8243
 10
564.3933
 20
383.7777
 10
564.1832
 20
384.7213
 10
563.9493
 20
385.6544
 10
563.6909
 20
386.5765
 10
563.4069
 20
387.4869
 10
563.0967
 20
388.385
 10
562.7594
 20
389.2703
 10
562.3941
 20
390.1421
 10
562.0
 20
391.0
  0
LWPOLYLINE
  5
55
330
17
100
AcDbEntity
  8
0
100
AcDbPolyline
 90
5
 70
0
 10
398.0
 20
388.0
 10
398.0
 20
349.0
 10
399.0
 20
349.0
 10
398.014648
 20
374.0
 10
398.0
 20
388.0
  0
LWPOLYLINE
  5
56
330
17
100
AcDbEntity
  8
0
100
AcDbPolyline
 90
5
 70
0
 10
403.0
 20
388.0
 10
403.0
 20
349.0
 10
404.0
 20
349.0
 10
403.014648
 20
374.0
 10
403.0
 20
388.0
  0
LWPOLYLINE
  5
57
330
17
100
AcDbEntity
  8
0
100
AcDbPolyline
 90
5
 70
0
 10
408.0
 20
388.0
 10
408.0
 20
349.0
 10
409.0
 20
349.0
 10
408.011566
 20
375.003845
 10
408.0
 20
388.0
  0
LWPOLYLINE
  5
58
330
17
100
AcDbEntity
  8
0
100
AcDbPolyline
 90
5
 70
0
 10
413.0
 20
388.0
 10
414.0
 20
345.0
 10
415.0
 20
345.0
 10
412.745361
 20
370.0
 10
413.0
 20
388.0
  0
LWPOLYLINE
  5
59
330
17
100
AcDbEntity
  8
0
100
AcDbPolyline
 90
44
 70
0
 10
454.0
 20
388.0
 10
453.7286
 20
387.0156
 10
453.4695
 20
386.0325
 10
453.2227
 20
385.0508
 10
452.9885
 20
384.0702
 10
452.767
 20
383.0908
 10
452.5583
 20
382.1124
 10
452.3624
 20
381.135
 10
452.1797
 20
380.1585
 10
452.0101
 20
379.1829
 10
451.8538
 20
378.2081
 10
451.7109
 20
377.2341
 10
451.5816
 20
376.2606
 10
451.4661
 20
375.2878
 10
451.3643
 20
374.3155
 10
451.2765
 20
373.3437
 10
451.2028
 20
372.3722
 10
451.1433
 20
371.4011
 10
451.0982
 20
370.4302
 10
451.0675
 20
369.4596
 10
451.0515
 20
368.489
 10
451.0502
 20
367.5185
 10
451.0638
 20
366.548
 10
451.0924
 20
365.5774
 10
451.1361
 20
364.6066
 10
451.1951
 20
363.6357
 10
451.2694
 20
362.6645
 10
451.3593
 20
361.6929
 10
451.4649
 20
360.7209
 10
451.5862
 20
359.7484
 10
451.7235
 20
358.7753
 10
451.8768
 20
357.8017
 10
452.0462
 20
356.8274
 10
452.232
 20
355.8523
 10
452.4342
 20
354.8764
 10
452.653
 20
353.8996
 10
452.8885
 20
352.9218
 10
453.1408
 20
351.9431
 10
453.41
 20
350.9632
 10
453.6964
 20
349.9822
 10
454.0
 20
349.0
 10
455.0
 20
349.0
 10
452.090271
 20
374.0
 10
454.0
 20
388.0
  0
LWPOLYLINE
  5
5A
330
17
100
AcDbEntity
  8
0
100
AcDbPolyline
 90
81
 70
0
 10
512.0
 20
387.0
 10
512.2197
 20
385.9036
 10
512.4237
 20
384.8228
 10
512.6121
 20
383.7565
 10
512.7853
 20
382.704
 10
512.9437
 20
381.6643
 10
513.0875
 20
380.6367
 10
513.2172
 20
379.6203
 10
513.333
 20
378.6142
 10
513.4352
 20
377.6175
 10
513.5243
 20
376.6295
 10
513.6005
 20
375.6493
 10
513.6641
 20
374.6759
 10
513.7156
 20
373.7086
 10
513.7551
 20
372.7465
 10
513.7831
 20
371.7888
 10
513.7999
 20
370.8346
 10
513.8058
 20
369.883
 10
513.8011
 20
368.9332
 10
513.7863
 20
367.9844
 10
513.7615
 20
367.0356
 10
513.7271
 20
366.0861
 10
513.6835
 20
365.1349
 10
513.6311
 20
364.1813
 10
513.57
 20
363.2243
 10
513.5007
 20
362.2632
 10
513.4235
 20
361.297
 10
513.3387
 20
360.325
 10
513.2466
 20
359.3462
 10
513.1476
 20
358.3598
 10
513.0421
 20
357.365
 10
512.9303
 20
356.3609
 10
512.8125
 20
355.3466
 10
512.6891
 20
354.3213
 10
512.5605
 20
353.2842
 10
512.427
 20
352.2343
 10
512.2888
 20
351.1709
 10
512.1463
 20
350.0931
 10
512.0
 20
349.0
 10
513.0
 20
349.0
 10
513.1751
 20
349.8436
 10
513.3553
 20
350.7032
 10
513.5393
 20
351.5779
 10
513.726
 20
352.4668
 10
513.9143
 20
353.369
 10
514.1029
 20
354.2835
 10
514.2907
 20
355.2095
 10
514.4766
 20
356.146
 10
514.6595
 20
357.0922
 10
514.8381
 20
358.0471
 10
515.0114
 20
359.0098
 10
515.1781
 20
359.9794
 10
515.3371
 20
360.9549
 10
515.4874
 20
361.9356
 10
515.6276
 20
362.9204
 10
515.7567
 20
363.9084
 10
515.8735
 20
364.8988
 10
515.9769
 20
365.8906
 10
516.0657
 20
366.883
 10
516.1388
 20
367.8749
 10
516.195
 20
368.8655
 10
516.2332
 20
369.854
 10
516.2521
 20
370.8392
 10
516.2508
 20
371.8205
 10
516.2279
 20
372.7968
 10
516.1824
 20
373.7672
 10
516.1131
 20
374.7308
 10
516.0188
 20
375.6868
 10
515.8985
 20
376.6342
 10
515.7509
 20
377.572
 10
515.5749
 20
378.4994
 10
515.3694
 20
379.4155
 10
515.1332
 20
380.3194
 10
514.8651
 20
381.2101
 10
514.564
 20
382.0867
 10
514.2287
 20
382.9483
 10
513.8582
 20
383.7941
 10
513.4512
 20
384.623
 10
513.0066
 20
385.4343
 10
512.5232
 20
386.2269
 10
512.0
 20
387.0
  0
LWPOLYLINE
  5
5B
330
17
100
AcDbEntity
  8
0
100
AcDbPolyline
 90
44
 70
0
 10
568.0
 20
386.0
 10
567.0
 20
346.0
 10
568.0
 20
346.0
 10
568.0758
 20
346.9025
 10
568.1614
 20
347.8179
 10
568.2556
 20
348.7453
 10
568.3573
 20
349.684
 10
568.4656
 20
350.6333
 10
568.5795
 20
351.5926
 10
568.6978
 20
352.5612
 10
568.8195
 20
353.5383
 10
568.9437
 20
354.5232
 10
569.0693
 20
355.5153
 10
569.1952
 20
356.5138
 10
569.3204
 20
357.5181
 10
569.4439
 20
358.5274
 10
569.5646
 20
359.5411
 10
569.6815
 20
360.5584
 10
569.7936
 20
361.5787
 10
569.8998
 20
362.6012
 10
569.9992
 20
363.6253
 10
570.0906
 20
364.6502
 10
570.173
 20
365.6753
 10
570.2454
 20
366.6998
 10
570.3068
 20
367.7231
 10
570.3562
 20
368.7445
 10
570.3924
 20
369.7632
 10
570.4144
 20
370.7786
 10
570.4213
 20
371.7899
 10
570.412
 20
372.7965
 10
570.3855
 20
373.7977
 10
570.3406
 20
374.7927
 10
570.2765
 20
375.7809
 10
570.1919
 20
376.7616
 10
570.086
 20
377.734
 10
569.9577
 20
378.6975
 10
569.806
 20
379.6513
 10
569.6297
 20
380.5949
 10
569.4279
 20
381.5274
 10
569.1996
 20
382.4481
 10
568.9437
 20
383.3565
 10
568.6591
 20
384.2517
 10
568.3449
 20
385.1331
 10
568.0
 20
386.0
  0
LWPOLYLINE
  5
5C
330
17
100
AcDbEntity
  8
0
100
AcDbPolyline
 90
5
 70
0
 10
745.0
 20
382.0
 10
745.0
 20
379.0
 10
795.0
 20
379.0
 10
795.0
 20
382.0
 10
745.0
 20
382.0
  0
LWPOLYLINE
  5
5D
330
17
100
AcDbEntity
  8
0
100
AcDbPolyline
 90
5
 70
0
 10
808.0
 20
382.0
 10
808.0
 20
379.0
 10
859.0
 20
379.0
 10
859.0
 20
382.0
 10
808.0
 20
382.0
  0
LWPOLYLINE
  5
5E
330
17
100
AcDbEntity
  8
0
100
AcDbPolyline
 90
55
 70
0
 10
874.0
 20
382.0
 10
874.0
 20
377.0
 10
862.0
 20
377.0
 10
865.0
 20
371.0
 10
862.0
 20
372.0
 10
862.0
 20
371.0
 10
862.0
 20
370.0
 10
864.0
 20
371.0
 10
864.0
 20
370.0
 10
862.0
 20
366.0
 10
867.0
 20
367.0
 10
867.1668
 20
366.5029
 10
867.4408
 20
366.0496
 10
867.8158
 20
365.6384
 10
868.286
 20
365.2673
 10
868.8454
 20
364.9346
 10
869.4879
 20
364.6386
 10
870.2077
 20
364.3775
 10
870.9986
 20
364.1495
 10
871.8549
 20
363.9527
 10
872.7705
 20
363.7855
 10
873.7394
 20
363.646
 10
874.7556
 20
363.5325
 10
875.8132
 20
363.4432
 10
876.9062
 20
363.3762
 10
878.0286
 20
363.3299
 10
879.1745
 20
363.3024
 10
880.3378
 20
363.292
 10
881.5126
 20
363.2969
 10
882.693
 20
363.3153
 10
883.873
 20
363.3453
 10
885.0465
 20
363.3854
 10
886.2076
 20
363.4336
 10
887.3503
 20
363.4881
 10
888.4688
 20
363.5473
 10
889.5569
 20
363.6092
 10
890.6087
 20
363.6723
 10
891.6182
 20
363.7345
 10
892.5795
 20
363.7943
 10
893.4866
 20
363.8497
 10
894.3336
 20
363.899
 10
895.1143
 20
363.9405
 10
895.823
 20
363.9723
 10
896.4535
 20
363.9928
 10
897.0
 20
364.0
 10
897.0
 20
377.0
 10
896.0
 20
377.0
 10
896.0
 20
372.0
 10
893.0
 20
373.0
 10
895.0
 20
377.0
 10
891.0
 20
375.0
 10
888.0
 20
377.0
 10
889.0
 20
374.0
 10
885.0
 20
382.0
 10
874.0
 20
382.0
  0
LWPOLYLINE
  5
5F
330
17
100
AcDbEntity
  8
0
100
AcDbPolyline
 90
31
 70
0
 10
899.0
 20
382.0
 10
899.0
 20
340.0
 10
940.0
 20
340.0
 10
940.0
 20
364.0
 10
925.0
 20
364.0
 10
925.0
 20
361.0
 10
917.0
 20
361.0
 10
917.0
 20
365.0
 10
918.218
 20
364.9623
 10
919.3063
 20
364.9902
 10
920.2721
 20
365.0831
 10
921.1226
 20
365.2403
 10
921.8652
 20
365.4612
 10
922.5071
 20
365.7452
 10
923.0556
 20
366.0917
 10
923.518
 20
366.5001
 10
923.9015
 20
366.9696
 10
924.2135
 20
367.4998
 10
924.4612
 20
368.09
 10
924.652
 20
368.7396
 10
924.793
 20
369.448
 10
924.8916
 20
370.2145
 10
924.955
 20
371.0385
 10
924.9906
 20
371.9195
 10
925.0056
 20
372.8567
 10
925.0073
 20
373.8496
 10
925.003
 20
374.8976
 10
925.0
 20
376.0
 10
921.0
 20
376.0
 10
921.0
 20
382.0
 10
899.0
 20
382.0
  0
LWPOLYLINE
  5
60
330
17
100
AcDbEntity
  8
0
100
AcDbPolyline
 90
6
 70
0
 10
941.0
 20
382.0
 10
941.0
 20
340.0
 10
942.0
 20
340.0
 10
942.0
 20
381.0
 10
947.0
 20
381.0
 10
941.0
 20
382.0
  0
LWPOLYLINE
  5
61
330
17
100
AcDbEntity
  8
0
100
AcDbPolyline
 90
20
 70
0
 10
632.0
 20
378.0
 10
626.0
 20
379.0
 10
629.0
 20
375.0
 10
626.0
 20
371.0
 10
632.0
 20
372.0
 10
626.0
 20
369.0
 10
626.0
 20
340.0
 10
640.0
 20
340.0
 10
640.0
 20
381.0
 10
639.0416
 20
381.0199
 10
638.0902
 20
381.062
 10
637.1588
 20
381.0993
 10
636.2605
 20
381.1049
 10
635.4084
 20
381.0519
 10
634.6157
 20
380.9136
 10
633.8953
 20
380.6629
 10
633.2605
 20
380.2731
 10
632.7243
 20
379.7173
 10
632.2997
 20
378.9685
 10
632.0
 20
378.0
  0
LWPOLYLINE
  5
62
330
17
100
AcDbEntity
  8
0
100
AcDbPolyline
 90
5
 70
0
 10
732.0
 20
377.0
 10
732.0
 20
323.0
 10
759.0
 20
323.0
 10
759.0
 20
377.0
 10
732.0
 20
377.0
  0
LWPOLYLINE
  5
63
330
17
100
AcDbEntity
  8
0
100
AcDbPolyline
 90
19
 70
0
 10
761.0
 20
377.0
 10
761.0
 20
323.0
 10
894.0
 20
323.0
 10
892.0
 20
328.0
 10
891.0
 20
328.0
 10
888.0
 20
326.0
 10
894.0
 20
329.0
 10
894.0
 20
331.0
 10
860.0
 20
331.0
 10
860.0
 20
336.0
 10
843.0
 20
336.0
 10
843.0
 20
338.0
 10
857.0
 20
338.0
 10
857.0
 20
362.0
 10
843.0
 20
362.0
 10
843.0
 20
364.0
 10
860.0
 20
364.0
 10
860.0
 20
377.0
 10
761.0
 20
377.0
  0
LWPOLYLINE
  5
64
330
17
100
AcDbEntity
  8
0
100
AcDbPolyline
 90
29
 70
0
 10
689.0
 20
365.0
 10
675.0
 20
360.0
 10
670.0
 20
358.0
 10
664.0
 20
359.0
 10
664.0
 20
347.0
 10
670.0
 20
352.0
 10
669.0
 20
347.0
 10
675.0
 20
352.0
 10
674.0
 20
344.0
 10
675.0
 20
344.0
 10
680.0
 20
352.0
 10
679.0
 20
344.0
 10
680.0
 20
344.0
 10
683.0
 20
352.0
 10
687.0
 20
350.0
 10
687.0
 20
349.0
 10
686.0
 20
346.0
 10
687.0
 20
346.0
 10
691.0
 20
352.0
 10
690.0
 20
347.0
 10
696.0
 20
352.0
 10
695.0
 20
347.0
 10
701.0
 20
352.0
 10
700.0
 20
344.0
 10
701.0
 20
344.0
 10
704.0
 20
358.0
 10
694.0
 20
358.0
 10
694.0
 20
364.0
 10
689.0
 20
365.0
  0
LWPOLYLINE
  5
65
330
17
100
AcDbEntity
  8
0
100
AcDbPolyline
 90
5
 70
0
 10
665.0
 20
342.0
 10
665.0
 20
340.0
 10
730.0
 20
340.0
 10
730.0
 20
342.0
 10
665.0
 20
342.0
  0
LWPOLYLINE
  5
66
330
17
100
AcDbEntity
  8
0
100
AcDbPolyline
 90
76
 70
0
 10
653.0
 20
338.0
 10
652.9832
 20
337.2367
 10
652.9393
 20
336.3783
 10
652.8776
 20
335.4402
 10
652.8076
 20
334.4379
 10
652.7386
 20
333.3867
 10
652.6801
 20
332.3023
 10
652.6415
 20
331.2
 10
652.6322
 20
330.0953
 10
652.6616
 20
329.0036
 10
652.7391
 20
327.9406
 10
652.8742
 20
326.9215
 10
653.0762
 20
325.9619
 10
653.3546
 20
325.0773
 10
653.7188
 20
324.283
 10
654.1782
 20
323.5947
 10
654.7423
 20
323.0277
 10
655.3781
 20
322.6017
 10
656.1189
 20
322.2565
 10
656.9515
 20
321.9848
 10
657.863
 20
321.7799
 10
658.8405
 20
321.6347
 10
659.871
 20
321.5422
 10
660.9415
 20
321.4954
 10
662.039
 20
321.4873
 10
663.1507
 20
321.5109
 10
664.2635
 20
321.5594
 10
665.3644
 20
321.6255
 10
666.4406
 20
321.7025
 10
667.4791
 20
321.7833
 10
668.4668
 20
321.8609
 10
669.3908
 20
321.9283
 10
670.2382
 20
321.9785
 10
670.9961
 20
322.0046
 10
671.9917
 20
322.0203
 10
672.9879
 20
322.0348
 10
673.9848
 20
322.0481
 10
674.9822
 20
322.0603
 10
675.9802
 20
322.0713
 10
676.9786
 20
322.0812
 10
677.9776
 20
322.0901
 10
678.977
 20
322.0979
 10
679.9768
 20
322.1048
 10
680.977
 20
322.1107
 10
681.9775
 20
322.1156
 10
682.9784
 20
322.1197
 10
683.9796
 20
322.1229
 10
684.981
 20
322.1253
 10
685.9826
 20
322.1269
 10
686.9845
 20
322.1278
 10
687.9865
 20
322.1279
 10
688.9887
 20
322.1274
 10
689.9909
 20
322.1262
 10
690.9932
 20
322.1244
 10
691.9956
 20
322.1221
 10
692.998
 20
322.1192
 10
694.0004
 20
322.1158
 10
695.0027
 20
322.1119
 10
696.005
 20
322.1075
 10
697.0071
 20
322.1028
 10
698.0091
 20
322.0977
 10
699.0109
 20
322.0923
 10
700.0125
 20
322.0866
 10
701.0139
 20
322.0806
 10
702.015
 20
322.0743
 10
703.0158
 20
322.0679
 10
704.0163
 20
322.0613
 10
705.0164
 20
322.0546
 10
706.0161
 20
322.0478
 10
707.0155
 20
322.041
 10
708.0143
 20
322.0341
 10
709.0127
 20
322.0273
 10
710.0106
 20
322.0204
 10
711.0079
 20
322.0137
 10
712.0046
 20
322.0071
 10
713.0008
 20
322.0007
  0
LWPOLYLINE
  5
67
330
17
100
AcDbEntity
  8
0
100
AcDbPolyline
 90
61
 70
0
 10
728.2576
 20
323.0277
 10
728.7429
 20
323.5237
 10
729.1654
 20
324.1625
 10
729.5243
 20
324.9243
 10
729.8192
 20
325.7892
 10
730.0494
 20
326.7375
 10
730.2145
 20
327.7492
 10
730.3138
 20
328.8046
 10
730.3468
 20
329.8838
 10
730.3129
 20
330.967
 10
730.2116
 20
332.0343
 10
730.0422
 20
333.066
 10
729.8043
 20
334.0422
 10
729.4972
 20
334.943
 10
729.1205
 20
335.7487
 10
728.6734
 20
336.4394
 10
728.1555
 20
336.9953
 10
727.5663
 20
337.3966
 10
726.8464
 20
337.7266
 10
726.0753
 20
338.0146
 10
725.2566
 20
338.2628
 10
724.3938
 20
338.4735
 10
723.4907
 20
338.6488
 10
722.5506
 20
338.7909
 10
721.5773
 20
338.9021
 10
720.5743
 20
338.9846
 10
719.5452
 20
339.0406
 10
718.4935
 20
339.0723
 10
717.4229
 20
339.0819
 10
716.337
 20
339.0716
 10
715.2393
 20
339.0436
 10
714.1334
 20
339.0002
 10
713.0229
 20
338.9436
 10
711.9114
 20
338.8759
 10
710.8024
 20
338.7994
 10
709.6996
 20
338.7164
 10
708.6066
 20
338.6289
 10
707.5268
 20
338.5393
 10
706.464
 20
338.4497
 10
705.4216
 20
338.3623
 10
704.4033
 20
338.2795
 10
703.4127
 20
338.2033
 10
702.4533
 20
338.136
 10
701.5288
 20
338.0798
 10
700.6427
 20
338.0369
 10
699.7985
 20
338.0096
 10
699.0
 20
338.0
 10
674.0
 20
338.0
 10
673.564
 20
336.944
 10
673.0903
 20
336.0485
 10
672.5721
 20
335.3001
 10
672.0024
 20
334.6853
 10
671.3745
 20
334.1908
 10
670.6814
 20
333.8031
 10
669.9164
 20
333.509
 10
669.0726
 20
333.295
 10
668.1432
 20
333.1478
 10
667.1212
 20
333.0539
 10
666.0
 20
333.0
 10
666.0
 20
338.0
 10
653.0
 20
338.0
  0
LWPOLYLINE
  5
68
330
17
100
AcDbEntity
  8
0
100
AcDbPolyline
 90
25
 70
0
 10
912.0
 20
338.0
 10
913.0
 20
320.0
 10
936.0
 20
320.0
 10
936.0
 20
324.0
 10
932.0
 20
324.0
 10
932.0
 20
328.0
 10
933.0
 20
328.0
 10
933.0
 20
325.0
 10
939.0
 20
325.0
 10
939.0
 20
322.0
 10
956.0
 20
324.0
 10
957.0
 20
324.0
 10
957.0
 20
320.0
 10
961.0
 20
320.0
 10
959.0
 20
326.0
 10
959.0
 20
327.0
 10
965.0
 20
324.0
 10
965.0
 20
338.0
 10
939.0
 20
338.0
 10
939.0
 20
329.0
 10
934.0
 20
329.0
 10
934.0
 20
330.0
 10
937.0
 20
330.0
 10
937.0
 20
338.0
 10
912.0
 20
338.0
  0
LWPOLYLINE
  5
69
330
17
100
AcDbEntity
  8
0
100
AcDbPolyline
 90
9
 70
0
 10
326.0
 20
336.0
 10
326.0
 20
271.0
 10
367.0
 20
271.0
 10
372.0
 20
267.0
 10
370.0
 20
271.0
 10
370.0
 20
272.0
 10
374.0
 20
272.0
 10
374.0
 20
336.0
 10
326.0
 20
336.0
  0
LWPOLYLINE
  5
6A
330
17
100
AcDbEntity
  8
0
100
AcDbPolyline
 90
238
 70
0
 10
261.0
 20
283.0
 10
261.0005
 20
281.9972
 10
261.002
 20
280.9946
 10
261.0045
 20
279.992
 10
261.008
 20
278.9896
 10
261.0125
 20
277.9872
 10
261.0178
 20
276.9849
 10
261.0241
 20
275.9827
 10
261.0312
 20
274.9806
 10
261.0391
 20
273.9785
 10
261.0479
 20
272.9765
 10
261.0574
 20
271.9747
 10
261.0677
 20
270.9729
 10
261.0787
 20
269.9711
 10
261.0905
 20
268.9695
 10
261.1029
 20
267.9679
 10
261.1159
 20
266.9664
 10
261.1296
 20
265.965
 10
261.1439
 20
264.9637
 10
261.1587
 20
263.9624
 10
261.1741
 20
262.9612
 10
261.19
 20
261.9601
 10
261.2064
 20
260.9591
 10
261.2232
 20
259.9581
 10
261.2405
 20
258.9572
 10
261.2582
 20
257.9564
 10
261.2763
 20
256.9556
 10
261.2947
 20
255.955
 10
261.3135
 20
254.9543
 10
261.3326
 20
253.9538
 10
261.352
 20
252.9533
 10
261.3716
 20
251.9529
 10
261.3914
 20
250.9526
 10
261.4115
 20
249.9523
 10
261.4317
 20
248.9521
 10
261.452
 20
247.952
 10
261.4725
 20
246.9519
 10
261.4931
 20
245.9519
 10
261.5137
 20
244.9519
 10
261.5344
 20
243.952
 10
261.555
 20
242.9522
 10
261.5757
 20
241.9524
 10
261.5963
 20
240.9527
 10
261.6169
 20
239.9531
 10
261.6374
 20
238.9535
 10
261.6577
 20
237.954
 10
261.6779
 20
236.9545
 10
261.698
 20
235.9551
 10
261.7178
 20
234.9557
 10
261.7374
 20
233.9564
 10
261.7568
 20
232.9572
 10
261.7759
 20
231.958
 10
261.7947
 20
230.9588
 10
261.8131
 20
229.9597
 10
261.8312
 20
228.9607
 10
261.8489
 20
227.9617
 10
261.8662
 20
226.9628
 10
261.883
 20
225.9639
 10
261.8994
 20
224.9651
 10
261.9153
 20
223.9663
 10
261.9307
 20
222.9676
 10
261.9455
 20
221.9689
 10
261.9598
 20
220.9702
 10
261.9735
 20
219.9717
 10
261.9865
 20
218.9731
 10
261.9989
 20
217.9746
 10
262.0107
 20
216.9761
 10
262.0217
 20
215.9777
 10
262.032
 20
214.9794
 10
262.0415
 20
213.981
 10
262.0503
 20
212.9827
 10
262.0582
 20
211.9845
 10
262.0653
 20
210.9863
 10
262.0716
 20
209.9881
 10
262.0769
 20
208.99
 10
262.0814
 20
207.9919
 10
262.0849
 20
206.9939
 10
262.0874
 20
205.9959
 10
262.0889
 20
204.9979
 10
262.0895
 20
204.0
 10
262.0726
 20
203.2781
 10
262.0244
 20
202.5014
 10
261.9486
 20
201.6745
 10
261.849
 20
200.8018
 10
261.7293
 20
199.8877
 10
261.5933
 20
198.9367
 10
261.4447
 20
197.9534
 10
261.2871
 20
196.9422
 10
261.1245
 20
195.9075
 10
260.9604
 20
194.8538
 10
260.7987
 20
193.7857
 10
260.643
 20
192.7075
 10
260.4972
 20
191.6237
 10
260.3649
 20
190.5389
 10
260.2498
 20
189.4574
 10
260.1558
 20
188.3838
 10
260.0866
 20
187.3226
 10
260.0458
 20
186.2782
 10
260.0373
 20
185.255
 10
260.0648
 20
184.2576
 10
260.1319
 20
183.2904
 10
260.2425
 20
182.3579
 10
260.4003
 20
181.4646
 10
260.609
 20
180.6149
 10
260.8723
 20
179.8134
 10
261.1941
 20
179.0644
 10
261.5779
 20
178.3725
 10
262.0277
 20
177.7422
 10
262.6611
 20
177.1257
 10
263.4185
 20
176.6575
 10
264.2767
 20
176.3186
 10
265.2127
 20
176.0902
 10
266.2032
 20
175.9533
 10
267.2253
 20
175.8892
 10
268.2558
 20
175.879
 10
269.2716
 20
175.9039
 10
270.2497
 20
175.9449
 10
271.1668
 20
175.9832
 10
272.0
 20
176.0
 10
299.0
 20
176.0
 10
299.811
 20
175.9815
 10
300.71
 20
175.9388
 10
301.6736
 20
175.8906
 10
302.6784
 20
175.8557
 10
303.7011
 20
175.853
 10
304.7183
 20
175.9013
 10
305.7065
 20
176.0194
 10
306.6426
 20
176.2263
 10
307.5029
 20
176.5408
 10
308.2643
 20
176.9816
 10
308.9033
 20
177.5677
 10
309.3966
 20
178.3179
 10
309.7464
 20
179.1068
 10
310.043
 20
179.9369
 10
310.2895
 20
180.805
 10
310.4891
 20
181.708
 10
310.6452
 20
182.6428
 10
310.7608
 20
183.6063
 10
310.8394
 20
184.5955
 10
310.884
 20
185.6072
 10
310.898
 20
186.6384
 10
310.8845
 20
187.6859
 10
310.8469
 20
188.7467
 10
310.7883
 20
189.8176
 10
310.7119
 20
190.8957
 10
310.6211
 20
191.9777
 10
310.519
 20
193.0606
 10
310.4089
 20
194.1413
 10
310.294
 20
195.2168
 10
310.1776
 20
196.2838
 10
310.0629
 20
197.3394
 10
309.9531
 20
198.3804
 10
309.8514
 20
199.4038
 10
309.7612
 20
200.4064
 10
309.6855
 20
201.3852
 10
309.6278
 20
202.337
 10
309.5911
 20
203.2588
 10
309.5788
 20
204.1475
 10
309.5941
 20
205.0
 10
309.6294
 20
205.9983
 10
309.6633
 20
206.9967
 10
309.6959
 20
207.9952
 10
309.727
 20
208.9938
 10
309.7568
 20
209.9925
 10
309.7853
 20
210.9913
 10
309.8125
 20
211.9902
 10
309.8384
 20
212.9892
 10
309.8631
 20
213.9883
 10
309.8865
 20
214.9874
 10
309.9088
 20
215.9867
 10
309.9298
 20
216.986
 10
309.9498
 20
217.9854
 10
309.9686
 20
218.9849
 10
309.9863
 20
219.9844
 10
310.0029
 20
220.984
 10
310.0185
 20
221.9837
 10
310.0331
 20
222.9835
 10
310.0467
 20
223.9833
 10
310.0593
 20
224.9832
 10
310.071
 20
225.9831
 10
310.0818
 20
226.9831
 10
310.0916
 20
227.9831
 10
310.1006
 20
228.9832
 10
310.1088
 20
229.9834
 10
310.1161
 20
230.9836
 10
310.1227
 20
231.9838
 10
310.1285
 20
232.9841
 10
310.1335
 20
233.9844
 10
310.1378
 20
234.9848
 10
310.1415
 20
235.9852
 10
310.1444
 20
236.9856
 10
310.1468
 20
237.9861
 10
310.1485
 20
238.9866
 10
310.1496
 20
239.9871
 10
310.1502
 20
240.9876
 10
310.1502
 20
241.9882
 10
310.1497
 20
242.9888
 10
310.1487
 20
243.9894
 10
310.1473
 20
244.99
 10
310.1454
 20
245.9906
 10
310.1431
 20
246.9912
 10
310.1404
 20
247.9919
 10
310.1374
 20
248.9925
 10
310.134
 20
249.9932
 10
310.1303
 20
250.9938
 10
310.1264
 20
251.9944
 10
310.1221
 20
252.9951
 10
310.1177
 20
253.9957
 10
310.113
 20
254.9963
 10
310.1082
 20
255.9969
 10
310.1031
 20
256.9975
 10
310.098
 20
257.9981
 10
310.0927
 20
258.9986
 10
310.0874
 20
259.9992
 10
310.082
 20
260.9997
 10
310.0766
 20
262.0002
 10
310.0711
 20
263.0006
 10
310.0657
 20
264.001
 10
310.0603
 20
265.0014
 10
310.055
 20
266.0018
 10
310.0498
 20
267.0021
 10
310.0447
 20
268.0024
 10
310.0398
 20
269.0026
 10
310.035
 20
270.0028
 10
310.0304
 20
271.0029
 10
310.0261
 20
272.003
 10
310.022
 20
273.003
 10
310.0181
 20
274.003
 10
310.0146
 20
275.0029
 10
310.0114
 20
276.0028
 10
310.0085
 20
277.0026
 10
310.006
 20
278.0023
 10
310.0039
 20
279.002
 10
310.0022
 20
280.0016
 10
310.001
 20
281.0011
 10
310.0002
 20
282.0006
 10
310.0
 20
283.0
 10
261.0
 20
283.0
  0
LWPOLYLINE
  5
6B
330
17
100
AcDbEntity
  8
0
100
AcDbPolyline
 90
49
 70
0
 10
325.0
 20
270.0
 10
325.0
 20
269.0
 10
346.0
 20
269.0
 10
346.0
 20
244.0
 10
347.0
 20
244.0
 10
347.0
 20
269.0
 10
366.0
 20
269.0
 10
365.219
 20
269.3087
 10
364.4127
 20
269.591
 10
363.5823
 20
269.848
 10
362.7288
 20
270.0804
 10
361.8536
 20
270.2894
 10
360.9577
 20
270.4757
 10
360.0425
 20
270.6403
 10
359.109
 20
270.7841
 10
358.1584
 20
270.9082
 10
357.192
 20
271.0134
 10
356.211
 20
271.1006
 10
355.2164
 20
271.1709
 10
354.2095
 20
271.225
 10
353.1916
 20
271.264
 10
352.1637
 20
271.2888
 10
351.1271
 20
271.3003
 10
350.0829
 20
271.2995
 10
349.0324
 20
271.2873
 10
347.9767
 20
271.2646
 10
346.9171
 20
271.2323
 10
345.8546
 20
271.1915
 10
344.7905
 20
271.143
 10
343.726
 20
271.0877
 10
342.6623
 20
271.0267
 10
341.6005
 20
270.9607
 10
340.5419
 20
270.8909
 10
339.4876
 20
270.818
 10
338.4388
 20
270.7431
 10
337.3967
 20
270.667
 10
336.3625
 20
270.5908
 10
335.3374
 20
270.5152
 10
334.3225
 20
270.4414
 10
333.3191
 20
270.3701
 10
332.3284
 20
270.3024
 10
331.3515
 20
270.2391
 10
330.3896
 20
270.1813
 10
329.4439
 20
270.1298
 10
328.5155
 20
270.0855
 10
327.6058
 20
270.0495
 10
326.7158
 20
270.0226
 10
325.8468
 20
270.0058
 10
325.0
 20
270.0
  0
LWPOLYLINE
  5
6C
330
17
100
AcDbEntity
  8
0
100
AcDbPolyline
 90
46
 70
0
 10
324.0
 20
233.0
 10
324.0
 20
232.0
 10
366.0
 20
232.0
 10
365.2205
 20
232.3084
 10
364.4159
 20
232.5911
 10
363.5875
 20
232.8489
 10
362.7364
 20
233.0827
 10
361.8636
 20
233.2934
 10
360.9704
 20
233.4819
 10
360.0579
 20
233.6491
 10
359.1272
 20
233.7958
 10
358.1795
 20
233.923
 10
357.2159
 20
234.0316
 10
356.2376
 20
234.1224
 10
355.2457
 20
234.1963
 10
354.2413
 20
234.2543
 10
353.2256
 20
234.2973
 10
352.1998
 20
234.326
 10
351.165
 20
234.3415
 10
350.1223
 20
234.3445
 10
349.0729
 20
234.3361
 10
348.0179
 20
234.3171
 10
346.9585
 20
234.2883
 10
345.8957
 20
234.2507
 10
344.8309
 20
234.2052
 10
343.765
 20
234.1527
 10
342.6993
 20
234.094
 10
341.6349
 20
234.0301
 10
340.5729
 20
233.9618
 10
339.5144
 20
233.8901
 10
338.4607
 20
233.8158
 10
337.4129
 20
233.7398
 10
336.3721
 20
233.663
 10
335.3394
 20
233.5864
 10
334.316
 20
233.5107
 10
333.3031
 20
233.437
 10
332.3018
 20
233.366
 10
331.3132
 20
233.2987
 10
330.3384
 20
233.236
 10
329.3787
 20
233.1787
 10
328.4352
 20
233.1278
 10
327.5089
 20
233.0842
 10
326.6011
 20
233.0487
 10
325.7129
 20
233.0222
 10
324.8455
 20
233.0057
 10
324.0
 20
233.0
  0
LWPOLYLINE
  5
6D
330
17
100
AcDbEntity
  8
0
100
AcDbPolyline
 90
145
 70
0
 10
312.0
 20
232.0
 10
312.0
 20
199.0
 10
314.0
 20
186.0
 10
314.0
 20
185.0
 10
312.0
 20
181.0
 10
316.0
 20
183.0
 10
317.0
 20
183.0
 10
312.0
 20
180.0
 10
312.0
 20
176.0
 10
357.0
 20
176.0
 10
357.7254
 20
175.9835
 10
358.5552
 20
175.9397
 10
359.4737
 20
175.8767
 10
360.4656
 20
175.8028
 10
361.5152
 20
175.7263
 10
362.6071
 20
175.6554
 10
363.7257
 20
175.5984
 10
364.8556
 20
175.5634
 10
365.9812
 20
175.5587
 10
367.0871
 20
175.5927
 10
368.1577
 20
175.6734
 10
369.1775
 20
175.8093
 10
370.131
 20
176.0085
 10
371.0028
 20
176.2792
 10
371.7772
 20
176.6297
 10
372.4388
 20
177.0683
 10
372.9722
 20
177.6033
 10
373.3889
 20
178.2005
 10
373.75
 20
178.8639
 10
374.0584
 20
179.5889
 10
374.3173
 20
180.3708
 10
374.5296
 20
181.2052
 10
374.6984
 20
182.0873
 10
374.8269
 20
183.0126
 10
374.9179
 20
183.9765
 10
374.9746
 20
184.9744
 10
375.0
 20
186.0017
 10
374.9972
 20
187.0539
 10
374.9691
 20
188.1263
 10
374.919
 20
189.2143
 10
374.8498
 20
190.3133
 10
374.7645
 20
191.4188
 10
374.6662
 20
192.5262
 10
374.558
 20
193.6308
 10
374.4429
 20
194.728
 10
374.324
 20
195.8133
 10
374.2042
 20
196.8822
 10
374.0868
 20
197.9298
 10
373.9746
 20
198.9518
 10
373.8708
 20
199.9435
 10
373.7783
 20
200.9003
 10
373.7004
 20
201.8176
 10
373.6399
 20
202.6908
 10
373.6
 20
203.5153
 10
373.5837
 20
204.2866
 10
373.5941
 20
205.0
 10
373.6252
 20
205.6046
 10
373.6762
 20
206.2941
 10
373.7441
 20
207.0613
 10
373.826
 20
207.8993
 10
373.9191
 20
208.801
 10
374.0202
 20
209.7593
 10
374.1267
 20
210.7674
 10
374.2354
 20
211.8181
 10
374.3435
 20
212.9044
 10
374.4481
 20
214.0193
 10
374.5463
 20
215.1557
 10
374.6351
 20
216.3067
 10
374.7116
 20
217.4652
 10
374.7729
 20
218.6243
 10
374.816
 20
219.7767
 10
374.8381
 20
220.9157
 10
374.8362
 20
222.034
 10
374.8074
 20
223.1248
 10
374.7488
 20
224.1809
 10
374.6574
 20
225.1953
 10
374.5303
 20
226.1611
 10
374.3646
 20
227.0711
 10
374.1575
 20
227.9185
 10
373.9059
 20
228.696
 10
373.6069
 20
229.3968
 10
373.2576
 20
230.0138
 10
372.8552
 20
230.54
 10
372.3966
 20
230.9683
 10
371.7604
 20
231.359
 10
371.0107
 20
231.6497
 10
370.1624
 20
231.8508
 10
369.2306
 20
231.9727
 10
368.2303
 20
232.0254
 10
367.1765
 20
232.0195
 10
366.0843
 20
231.9652
 10
364.9686
 20
231.8729
 10
363.8444
 20
231.7527
 10
362.7268
 20
231.6151
 10
361.6308
 20
231.4703
 10
360.5713
 20
231.3287
 10
359.5635
 20
231.2005
 10
358.6224
 20
231.0961
 10
357.7628
 20
231.0258
 10
357.0
 20
231.0
 10
355.9976
 20
231.001
 10
354.9954
 20
231.005
 10
353.9934
 20
231.0117
 10
352.9915
 20
231.021
 10
351.9897
 20
231.0327
 10
350.988
 20
231.0468
 10
349.9865
 20
231.0631
 10
348.9851
 20
231.0814
 10
347.9838
 20
231.1017
 10
346.9827
 20
231.1238
 10
345.9816
 20
231.1476
 10
344.9807
 20
231.1729
 10
343.9799
 20
231.1996
 10
342.9792
 20
231.2275
 10
341.9786
 20
231.2566
 10
340.9781
 20
231.2867
 10
339.9778
 20
231.3177
 10
338.9775
 20
231.3494
 10
337.9773
 20
231.3818
 10
336.9772
 20
231.4146
 10
335.9773
 20
231.4477
 10
334.9774
 20
231.4811
 10
333.9776
 20
231.5145
 10
332.9778
 20
231.5479
 10
331.9782
 20
231.581
 10
330.9787
 20
231.6139
 10
329.9792
 20
231.6463
 10
328.9798
 20
231.6781
 10
327.9805
 20
231.7092
 10
326.9813
 20
231.7394
 10
325.9821
 20
231.7686
 10
324.983
 20
231.7968
 10
323.984
 20
231.8236
 10
322.985
 20
231.8491
 10
321.9861
 20
231.8731
 10
320.9873
 20
231.8954
 10
319.9885
 20
231.9159
 10
318.9898
 20
231.9345
 10
317.9911
 20
231.9511
 10
316.9924
 20
231.9655
 10
315.9939
 20
231.9775
 10
314.9953
 20
231.9871
 10
313.9968
 20
231.9942
 10
312.9984
 20
231.9985
 10
312.0
 20
232.0
  0
LWPOLYLINE
  5
6E
330
17
100
AcDbEntity
  8
0
100
AcDbPolyline
 90
167
 70
0
 10
268.0
 20
60.442131
 10
267.1909
 20
60.2138
 10
266.4105
 20
59.9616
 10
265.6587
 20
59.6862
 10
264.9352
 20
59.3882
 10
264.2397
 20
59.0684
 10
263.572
 20
58.7275
 10
262.932
 20
58.3663
 10
262.3192
 20
57.9853
 10
261.7337
 20
57.5854
 10
261.175
 20
57.1671
 10
260.6429
 20
56.7314
 10
260.1373
 20
56.2788
 10
259.6579
 20
55.81
 10
259.2045
 20
55.3258
 10
258.7768
 20
54.827
 10
258.3746
 20
54.3141
 10
257.9977
 20
53.7878
 10
257.6458
 20
53.2491
 10
257.3188
 20
52.6984
 10
257.0163
 20
52.1365
 10
256.7382
 20
51.5642
 10
256.4842
 20
50.9822
 10
256.2541
 20
50.3911
 10
256.0476
 20
49.7917
 10
255.8646
 20
49.1846
 10
255.7047
 20
48.5706
 10
255.5679
 20
47.9505
 10
255.4537
 20
47.3248
 10
255.3621
 20
46.6944
 10
255.2927
 20
46.0599
 10
255.2453
 20
45.422
 10
255.2198
 20
44.7815
 10
255.2158
 20
44.139
 10
255.2332
 20
43.4953
 10
255.2717
 20
42.851
 10
255.331
 20
42.207
 10
255.4111
 20
41.5638
 10
255.5115
 20
40.9223
 10
255.6321
 20
40.283
 10
255.7727
 20
39.6468
 10
255.933
 20
39.0143
 10
256.1128
 20
38.3863
 10
256.3118
 20
37.7634
 10
256.5299
 20
37.1463
 10
256.7668
 20
36.5359
 10
257.0222
 20
35.9327
 10
257.296
 20
35.3375
 10
257.5879
 20
34.751
 10
257.8976
 20
34.174
 10
258.225
 20
33.607
 10
258.5698
 20
33.0509
 10
258.9318
 20
32.5063
 10
259.3107
 20
31.9739
 10
259.7064
 20
31.4545
 10
260.1185
 20
30.9488
 10
260.5469
 20
30.4575
 10
260.9913
 20
29.9812
 10
261.4515
 20
29.5208
 10
261.9272
 20
29.0768
 10
262.4183
 20
28.6501
 10
262.9245
 20
28.2413
 10
263.4455
 20
27.8511
 10
263.9812
 20
27.4803
 10
264.5312
 20
27.1295
 10
265.0955
 20
26.7995
 10
265.6737
 20
26.491
 10
266.2656
 20
26.2046
 10
266.8709
 20
25.9411
 10
267.4895
 20
25.7013
 10
268.1212
 20
25.4857
 10
268.7656
 20
25.2952
 10
269.4225
 20
25.1304
 10
270.0918
 20
24.9921
 10
270.7732
 20
24.8809
 10
271.4664
 20
24.7975
 10
272.1713
 20
24.7428
 10
272.8875
 20
24.7173
 10
273.6149
 20
24.7218
 10
274.3533
 20
24.757
 10
275.1023
 20
24.8236
 10
275.8618
 20
24.9223
 10
276.6316
 20
25.0539
 10
277.4113
 20
25.219
 10
278.2009
 20
25.4183
 10
279.0
 20
25.6527
 10
279.8158
 20
25.9253
 10
280.6011
 20
26.2214
 10
281.356
 20
26.5404
 10
282.0808
 20
26.8813
 10
282.7757
 20
27.2435
 10
283.4411
 20
27.6263
 10
284.0772
 20
28.0288
 10
284.6843
 20
28.4504
 10
285.2625
 20
28.8903
 10
285.8122
 20
29.3477
 10
286.3336
 20
29.822
 10
286.827
 20
30.3123
 10
287.2927
 20
30.818
 10
287.7308
 20
31.3383
 10
288.1417
 20
31.8724
 10
288.5256
 20
32.4195
 10
288.8828
 20
32.9791
 10
289.2135
 20
33.5502
 10
289.5181
 20
34.1322
 10
289.7966
 20
34.7244
 10
290.0495
 20
35.3259
 10
290.2769
 20
35.936
 10
290.4792
 20
36.554
 10
290.6566
 20
37.1792
 10
290.8093
 20
37.8108
 10
290.9376
 20
38.448
 10
291.0418
 20
39.0902
 10
291.1221
 20
39.7365
 10
291.1787
 20
40.3862
 10
291.2121
 20
41.0386
 10
291.2223
 20
41.693
 10
291.2096
 20
42.3486
 10
291.1744
 20
43.0046
 10
291.1169
 20
43.6603
 10
291.0373
 20
44.3149
 10
290.9359
 20
44.9678
 10
290.8129
 20
45.6182
 10
290.6687
 20
46.2653
 10
290.5034
 20
46.9084
 10
290.3174
 20
47.5467
 10
290.1108
 20
48.1795
 10
289.884
 20
48.8061
 10
289.6372
 20
49.4257
 10
289.3706
 20
50.0376
 10
289.0846
 20
50.6409
 10
288.7794
 20
51.2351
 10
288.4552
 20
51.8193
 10
288.1123
 20
52.3928
 10
287.7509
 20
52.9548
 10
287.3714
 20
53.5047
 10
286.974
 20
54.0416
 10
286.5589
 20
54.5648
 10
286.1263
 20
55.0736
 10
285.6767
 20
55.5672
 10
285.2101
 20
56.0449
 10
284.7269
 20
56.5059
 10
284.2274
 20
56.9496
 10
283.7117
 20
57.3751
 10
283.1802
 20
57.7817
 10
282.6331
 20
58.1687
 10
282.0706
 20
58.5353
 10
281.4931
 20
58.8807
 10
280.9008
 20
59.2043
 10
280.2939
 20
59.5053
 10
279.6727
 20
59.783
 10
279.0374
 20
60.0365
 10
278.3884
 20
60.2652
 10
277.7259
 20
60.4683
 10
277.05
 20
60.6451
 10
276.3612
 20
60.7948
 10
275.6597
 20
60.9167
 10
274.9456
 20
61.01
 10
274.2193
 20
61.0741
 10
273.4811
 20
61.108
 10
272.7311
 20
61.1112
 10
271.9697
 20
61.0829
 10
271.1971
 20
61.0223
 10
270.4136
 20
60.9286
 10
269.6194
 20
60.8012
 10
268.8147
 20
60.6392
 10
268.0
 20
60.4421
  0
LWPOLYLINE
  5
6F
330
17
100
AcDbEntity
  8
0
100
AcDbPolyline
 90
93
 70
0
 10
291.0
 20
44.0
 10
290.7074
 20
44.9574
 10
290.3907
 20
45.8958
 10
290.0497
 20
46.814
 10
289.6847
 20
47.7109
 10
289.2957
 20
48.5855
 10
288.8828
 20
49.4368
 10
288.446
 20
50.2635
 10
287.9855
 20
51.0647
 10
287.5012
 20
51.8392
 10
286.9933
 20
52.586
 10
286.4618
 20
53.3041
 10
285.9069
 20
53.9922
 10
285.3286
 20
54.6494
 10
284.7269
 20
55.2746
 10
284.102
 20
55.8667
 10
283.4539
 20
56.4246
 10
282.7827
 20
56.9472
 10
282.0884
 20
57.4335
 10
281.3712
 20
57.8823
 10
280.6312
 20
58.2927
 10
279.8683
 20
58.6635
 10
279.0827
 20
58.9936
 10
278.2744
 20
59.282
 10
277.4436
 20
59.5275
 10
276.5902
 20
59.7292
 10
275.7144
 20
59.8859
 10
274.8163
 20
59.9965
 10
273.8959
 20
60.0601
 10
272.9532
 20
60.0754
 10
271.9885
 20
60.0414
 10
271.0017
 20
59.9571
 10
269.9929
 20
59.8213
 10
268.9622
 20
59.633
 10
267.9097
 20
59.3912
 10
267.3265
 20
59.2179
 10
266.685
 20
58.9792
 10
265.9948
 20
58.6788
 10
265.266
 20
58.3207
 10
264.5082
 20
57.9087
 10
263.7313
 20
57.4464
 10
262.9451
 20
56.9378
 10
262.1595
 20
56.3866
 10
261.3842
 20
55.7967
 10
260.6292
 20
55.1718
 10
259.9041
 20
54.5159
 10
259.2189
 20
53.8326
 10
258.5834
 20
53.1258
 10
258.0073
 20
52.3993
 10
257.5006
 20
51.6569
 10
257.073
 20
50.9025
 10
256.7344
 20
50.1397
 10
256.4946
 20
49.3726
 10
256.3633
 20
48.6048
 10
256.3506
 20
47.8401
 10
256.466
 20
47.0824
 10
256.7196
 20
46.3355
 10
257.1211
 20
45.6033
 10
257.6911
 20
44.9732
 10
258.423
 20
44.5119
 10
259.2825
 20
44.1952
 10
260.2354
 20
43.9989
 10
261.2475
 20
43.899
 10
262.2846
 20
43.8712
 10
263.3126
 20
43.8916
 10
264.2973
 20
43.9359
 10
265.2045
 20
43.9801
 10
266.0
 20
44.0
 10
266.9939
 20
44.0021
 10
267.9897
 20
44.0092
 10
268.9871
 20
44.0205
 10
269.986
 20
44.0353
 10
270.9861
 20
44.0529
 10
271.9874
 20
44.0729
 10
272.9897
 20
44.0943
 10
273.9927
 20
44.1167
 10
274.9964
 20
44.1394
 10
276.0005
 20
44.1617
 10
277.0049
 20
44.1829
 10
278.0093
 20
44.2023
 10
279.0138
 20
44.2194
 10
280.018
 20
44.2335
 10
281.0217
 20
44.2439
 10
282.025
 20
44.2499
 10
283.0274
 20
44.2509
 10
284.029
 20
44.2463
 10
285.0294
 20
44.2353
 10
286.0287
 20
44.2174
 10
287.0264
 20
44.1918
 10
288.0226
 20
44.1579
 10
289.0171
 20
44.1151
 10
290.0096
 20
44.0627
 10
291.0
 20
44.0
  0
LWPOLYLINE
  5
70
330
17
100
AcDbEntity
  8
0
100
AcDbPolyline
 90
173
 70
0
 10
305.0
 20
43.0
 10
306.0093
 20
42.6247
 10
306.9772
 20
42.3286
 10
307.9047
 20
42.1224
 10
308.793
 20
42.0169
 10
309.643
 20
42.0228
 10
310.4559
 20
42.1509
 10
311.2326
 20
42.4119
 10
311.9744
 20
42.8165
 10
312.6821
 20
43.3756
 10
313.357
 20
44.0998
 10
314.0
 20
45.0
 10
315.0
 20
45.0
 10
315.0
 20
42.0
 10
320.0
 20
44.0
 10
325.0
 20
42.0
 10
325.0
 20
47.0
 10
326.0
 20
47.0
 10
326.1497
 20
46.1639
 10
326.3883
 20
45.3729
 10
326.7049
 20
44.6375
 10
327.0888
 20
43.9684
 10
327.5291
 20
43.3763
 10
328.0149
 20
42.8719
 10
328.5356
 20
42.4659
 10
329.0802
 20
42.169
 10
329.6379
 20
41.9917
 10
330.1979
 20
41.9448
 10
330.7493
 20
42.0391
 10
331.2815
 20
42.285
 10
331.7834
 20
42.6934
 10
332.2443
 20
43.2749
 10
332.6535
 20
44.0402
 10
333.0
 20
45.0
 10
334.0
 20
45.0
 10
334.0
 20
42.0
 10
334.9916
 20
41.9836
 10
335.9428
 20
41.9552
 10
336.8444
 20
41.9456
 10
337.6873
 20
41.9858
 10
338.4624
 20
42.1065
 10
339.1604
 20
42.3387
 10
339.7723
 20
42.7132
 10
340.289
 20
43.261
 10
340.7012
 20
44.013
 10
341.0
 20
45.0
 10
342.0
 20
45.0
 10
342.0
 20
39.0
 10
305.0
 20
39.0
 10
305.1081
 20
38.1824
 10
305.2969
 20
37.4323
 10
305.5624
 20
36.7472
 10
305.9006
 20
36.1242
 10
306.3072
 20
35.5607
 10
306.7783
 20
35.0539
 10
307.3099
 20
34.6013
 10
307.8977
 20
34.2001
 10
308.5378
 20
33.8475
 10
309.2261
 20
33.541
 10
309.9585
 20
33.2778
 10
310.731
 20
33.0553
 10
311.5394
 20
32.8706
 10
312.3798
 20
32.7213
 10
313.248
 20
32.6045
 10
314.14
 20
32.5175
 10
315.0517
 20
32.4577
 10
315.9791
 20
32.4224
 10
316.918
 20
32.4089
 10
317.8644
 20
32.4145
 10
318.8143
 20
32.4365
 10
319.7635
 20
32.4722
 10
320.7081
 20
32.5189
 10
321.6438
 20
32.574
 10
322.5668
 20
32.6347
 10
323.4728
 20
32.6983
 10
324.3579
 20
32.7622
 10
325.2179
 20
32.8236
 10
326.0488
 20
32.8799
 10
326.8465
 20
32.9284
 10
327.607
 20
32.9664
 10
328.3262
 20
32.9911
 10
329.0
 20
33.0
 10
327.0
 20
37.0
 10
327.0
 20
38.0
 10
334.0
 20
38.0
 10
336.0
 20
33.0
 10
339.0
 20
38.0
 10
339.0
 20
37.0
 10
337.0
 20
33.0
 10
337.8772
 20
32.9866
 10
338.7796
 20
32.9525
 10
339.6999
 20
32.9069
 10
340.631
 20
32.8587
 10
341.5656
 20
32.8171
 10
342.4967
 20
32.791
 10
343.4169
 20
32.7897
 10
344.3191
 20
32.8221
 10
345.1961
 20
32.8973
 10
346.0408
 20
33.0244
 10
346.8459
 20
33.2124
 10
347.6042
 20
33.4705
 10
348.3086
 20
33.8077
 10
348.9519
 20
34.2331
 10
349.5269
 20
34.7557
 10
350.0264
 20
35.3846
 10
350.4432
 20
36.1289
 10
350.7701
 20
36.9977
 10
351.0
 20
38.0
 10
438.0
 20
38.0
 10
438.0
 20
39.0
 10
344.0
 20
39.0
 10
345.0
 20
45.0
 10
344.1427
 20
45.5094
 10
343.3737
 20
46.0502
 10
342.6768
 20
46.6093
 10
342.0356
 20
47.1737
 10
341.4338
 20
47.7303
 10
340.8552
 20
48.266
 10
340.2834
 20
48.768
 10
339.7022
 20
49.223
 10
339.0952
 20
49.6181
 10
338.4462
 20
49.9402
 10
337.7388
 20
50.1764
 10
336.9568
 20
50.3134
 10
336.0838
 20
50.3384
 10
335.1037
 20
50.2383
 10
334.0
 20
50.0
 10
336.0
 20
45.0
 10
335.4816
 20
45.5044
 10
334.9163
 20
46.0258
 10
334.3078
 20
46.5579
 10
333.6597
 20
47.0944
 10
332.9757
 20
47.629
 10
332.2594
 20
48.1552
 10
331.5145
 20
48.6668
 10
330.7446
 20
49.1575
 10
329.9533
 20
49.6209
 10
329.1443
 20
50.0508
 10
328.3212
 20
50.4407
 10
327.4877
 20
50.7844
 10
326.6475
 20
51.0755
 10
325.8041
 20
51.3078
 10
324.9612
 20
51.4748
 10
324.1225
 20
51.5703
 10
323.2916
 20
51.5879
 10
322.4721
 20
51.5214
 10
321.6678
 20
51.3643
 10
320.8821
 20
51.1104
 10
320.1189
 20
50.7534
 10
319.3817
 20
50.2868
 10
318.6742
 20
49.7044
 10
318.0
 20
49.0
 10
317.0573
 20
49.6124
 10
316.1349
 20
50.118
 10
315.2347
 20
50.5193
 10
314.3585
 20
50.8191
 10
313.5082
 20
51.02
 10
312.6859
 20
51.1248
 10
311.8934
 20
51.1362
 10
311.1325
 20
51.0569
 10
310.4054
 20
50.8895
 10
309.7137
 20
50.6369
 10
309.0596
 20
50.3016
 10
308.4448
 20
49.8864
 10
307.8713
 20
49.394
 10
307.341
 20
48.8272
 10
306.8559
 20
48.1885
 10
306.4178
 20
47.4807
 10
306.0286
 20
46.7065
 10
305.6903
 20
45.8686
 10
305.4049
 20
44.9698
 10
305.1741
 20
44.0127
 10
305.0
 20
43.0
  0
LWPOLYLINE
  5
71
330
17
100
AcDbEntity
  8
0
100
AcDbPolyline
 90
81
 70
0
 10
392.0
 20
51.0
 10
392.0
 20
42.0
 10
396.0
 20
42.0
 10
399.0
 20
48.0
 10
400.0
 20
48.0
 10
400.0
 20
42.0
 10
400.8379
 20
41.9886
 10
401.7294
 20
41.9559
 10
402.666
 20
41.909
 10
403.6395
 20
41.8549
 10
404.6416
 20
41.8008
 10
405.6638
 20
41.7536
 10
406.6979
 20
41.7205
 10
407.7355
 20
41.7086
 10
408.7683
 20
41.7249
 10
409.788
 20
41.7766
 10
410.7862
 20
41.8706
 10
411.7546
 20
42.0142
 10
412.685
 20
42.2143
 10
413.5688
 20
42.4781
 10
414.3979
 20
42.8127
 10
415.1639
 20
43.2251
 10
415.8585
 20
43.7223
 10
416.4733
 20
44.3116
 10
417.0
 20
45.0
 10
418.0
 20
45.0
 10
418.4995
 20
44.341
 10
419.0723
 20
43.7777
 10
419.7041
 20
43.3101
 10
420.3809
 20
42.9385
 10
421.0885
 20
42.6627
 10
421.8128
 20
42.4831
 10
422.5396
 20
42.3996
 10
423.2548
 20
42.4123
 10
423.9444
 20
42.5215
 10
424.5941
 20
42.7271
 10
425.1899
 20
43.0292
 10
425.7176
 20
43.428
 10
426.1631
 20
43.9236
 10
426.5122
 20
44.516
 10
426.7509
 20
45.2054
 10
426.8649
 20
45.9919
 10
426.8403
 20
46.8755
 10
426.6628
 20
47.8564
 10
426.3393
 20
48.8005
 10
425.9048
 20
49.5535
 10
425.3766
 20
50.1265
 10
424.7717
 20
50.5305
 10
424.1076
 20
50.7766
 10
423.4014
 20
50.876
 10
422.6704
 20
50.8398
 10
421.9319
 20
50.6791
 10
421.2031
 20
50.4049
 10
420.5012
 20
50.0284
 10
419.8436
 20
49.5607
 10
419.2474
 20
49.0129
 10
418.7299
 20
48.3961
 10
418.3083
 20
47.7214
 10
418.0
 20
47.0
 10
417.0
 20
47.0
 10
416.615
 20
47.9705
 10
416.1667
 20
48.7773
 10
415.6643
 20
49.4272
 10
415.1171
 20
49.9271
 10
414.5346
 20
50.2838
 10
413.9261
 20
50.5041
 10
413.3009
 20
50.5949
 10
412.6684
 20
50.563
 10
412.038
 20
50.4153
 10
411.419
 20
50.1585
 10
410.8207
 20
49.7995
 10
410.2526
 20
49.3452
 10
409.7239
 20
48.8024
 10
409.244
 20
48.1779
 10
408.8223
 20
47.4786
 10
408.4682
 20
46.7113
 10
408.191
 20
45.8828
 10
408.0
 20
45.0
 10
404.0
 20
45.0
 10
404.0
 20
51.0
 10
392.0
 20
51.0
  0
LWPOLYLINE
  5
72
330
17
100
AcDbEntity
  8
0
100
AcDbPolyline
 90
76
 70
0
 10
256.0
 20
43.0
 10
256.0597
 20
42.0596
 10
256.1499
 20
41.1481
 10
256.2696
 20
40.2653
 10
256.4183
 20
39.411
 10
256.5949
 20
38.5852
 10
256.7988
 20
37.7878
 10
257.0292
 20
37.0185
 10
257.2852
 20
36.2773
 10
257.566
 20
35.5641
 10
257.8709
 20
34.8787
 10
258.1991
 20
34.2209
 10
258.5497
 20
33.5907
 10
258.922
 20
32.9879
 10
259.3151
 20
32.4125
 10
259.7284
 20
31.8642
 10
260.1609
 20
31.3429
 10
260.6119
 20
30.8486
 10
261.0806
 20
30.381
 10
261.5662
 20
29.9401
 10
262.0679
 20
29.5258
 10
262.5849
 20
29.1378
 10
263.1164
 20
28.7761
 10
263.6616
 20
28.4406
 10
264.2197
 20
28.1311
 10
264.7899
 20
27.8475
 10
265.3715
 20
27.5896
 10
265.9635
 20
27.3574
 10
266.5654
 20
27.1507
 10
267.1761
 20
26.9693
 10
267.795
 20
26.8132
 10
268.4212
 20
26.6823
 10
269.054
 20
26.5763
 10
269.6925
 20
26.4952
 10
270.336
 20
26.4388
 10
270.9836
 20
26.4071
 10
271.6346
 20
26.3998
 10
272.2881
 20
26.4169
 10
272.9435
 20
26.4582
 10
273.5998
 20
26.5236
 10
274.2563
 20
26.613
 10
274.9121
 20
26.7262
 10
275.5666
 20
26.8631
 10
276.2188
 20
27.0237
 10
276.868
 20
27.2076
 10
277.5135
 20
27.415
 10
278.1543
 20
27.6455
 10
278.7898
 20
27.8991
 10
279.419
 20
28.1756
 10
280.0413
 20
28.4749
 10
280.6558
 20
28.797
 10
281.2617
 20
29.1416
 10
281.8582
 20
29.5086
 10
282.4446
 20
29.898
 10
283.02
 20
30.3095
 10
283.5837
 20
30.743
 10
284.1348
 20
31.1985
 10
284.6725
 20
31.6758
 10
285.1961
 20
32.1748
 10
285.7047
 20
32.6953
 10
286.1977
 20
33.2372
 10
286.674
 20
33.8003
 10
287.1331
 20
34.3847
 10
287.574
 20
34.99
 10
287.996
 20
35.6163
 10
288.3982
 20
36.2633
 10
288.78
 20
36.9309
 10
289.1404
 20
37.6191
 10
289.4788
 20
38.3277
 10
289.7942
 20
39.0565
 10
290.0859
 20
39.8054
 10
290.3532
 20
40.5744
 10
290.5951
 20
41.3632
 10
290.811
 20
42.1718
 10
291.0
 20
43.0
 10
256.0
 20
43.0
  0
LWPOLYLINE
  5
73
330
17
100
AcDbEntity
  8
0
100
AcDbPolyline
 90
37
 70
0
 10
1093.0
 20
34.0
 10
1093.0
 20
29.0
 10
1103.0
 20
31.0
 10
1104.0
 20
31.0
 10
1104.6364
 20
30.0371
 10
1105.2182
 20
29.5556
 10
1105.7817
 20
29.5556
 10
1106.3635
 20
30.037
 10
1107.0
 20
31.0
 10
1108.0
 20
31.0
 10
1108.5121
 20
30.4973
 10
1109.1088
 20
30.0576
 10
1109.7834
 20
29.677
 10
1110.5293
 20
29.3521
 10
1111.3399
 20
29.0792
 10
1112.2087
 20
28.8547
 10
1113.1291
 20
28.6751
 10
1114.0945
 20
28.5367
 10
1115.0982
 20
28.4359
 10
1116.1337
 20
28.3691
 10
1117.1944
 20
28.3327
 10
1118.2737
 20
28.3232
 10
1119.3651
 20
28.3368
 10
1120.4618
 20
28.3701
 10
1121.5575
 20
28.4194
 10
1122.6453
 20
28.4811
 10
1123.7189
 20
28.5515
 10
1124.7714
 20
28.6272
 10
1125.7965
 20
28.7045
 10
1126.7875
 20
28.7798
 10
1127.7377
 20
28.8494
 10
1128.6407
 20
28.9099
 10
1129.4898
 20
28.9575
 10
1130.2784
 20
28.9887
 10
1131.0
 20
29.0
 10
1131.0
 20
34.0
 10
1093.0
 20
34.0
  0
ENDSEC
  0
SECTION
  2
OBJECTS
  0
DICTIONARY
  5
A
330
0
100
AcDbDictionary
281
1
  3
ACAD_COLOR
350
B
  3
ACAD_GROUP
350
C
  3
ACAD_LAYOUT
350
D
  3
ACAD_MATERIAL
350
E
  3
ACAD_MLEADERSTYLE
350
F
  3
ACAD_MLINESTYLE
350
10
  3
ACAD_PLOTSETTINGS
350
11
  3
ACAD_PLOTSTYLENAME
350
12
  3
ACAD_SCALELIST
350
14
  3
ACAD_TABLESTYLE
350
15
  3
ACAD_VISUALSTYLE
350
16
  3
EZDXF_META
350
2D
  0
DICTIONARY
  5
B
330
A
100
AcDbDictionary
281
1
  0
DICTIONARY
  5
C
330
A
100
AcDbDictionary
281
1
  0
DICTIONARY
  5
D
330
A
100
AcDbDictionary
281
1
  3
Model
350
1A
  3
Layout1
350
1E
  0
DICTIONARY
  5
E
330
A
100
AcDbDictionary
281
1
  3
ByBlock
350
1F
  3
ByLayer
350
20
  3
Global
350
21
  0
DICTIONARY
  5
F
330
A
100
AcDbDictionary
281
1
  3
Standard
350
2C
  0
DICTIONARY
  5
10
330
A
100
AcDbDictionary
281
1
  3
Standard
350
22
  0
DICTIONARY
  5
11
330
A
100
AcDbDictionary
281
1
  0
ACDBDICTIONARYWDFLT
  5
12
330
A
100
AcDbDictionary
281
1
  3
Normal
350
13
100
AcDbDictionaryWithDefault
340
13
  0
ACDBPLACEHOLDER
  5
13
330
12
  0
DICTIONARY
  5
14
330
A
100
AcDbDictionary
281
1
  0
DICTIONARY
  5
15
330
A
100
AcDbDictionary
281
1
  0
DICTIONARY
  5
16
330
A
100
AcDbDictionary
281
1
  0
LAYOUT
  5
1A
330
D
100
AcDbPlotSettings
  1

  4
A3
  6

 40
7.5
 41
20.0
 42
7.5
 43
20.0
 44
420.0
 45
297.0
 46
0.0
 47
0.0
 48
0.0
 49
0.0
140
0.0
141
0.0
142
1.0
143
1.0
 70
1024
 72
1
 73
0
 74
5
  7

 75
16
 76
0
 77
2
 78
300
147
1.0
148
0.0
149
0.0
100
AcDbLayout
  1
Model
 70
1
 71
0
 10
0.0
 20
0.0
 11
420.0
 21
297.0
 12
0.0
 22
0.0
 32
0.0
 14
1e+20
 24
1e+20
 34
1e+20
 15
-1e+20
 25
-1e+20
 35
-1e+20
146
0.0
 13
0.0
 23
0.0
 33
0.0
 16
1.0
 26
0.0
 36
0.0
 17
0.0
 27
1.0
 37
0.0
 76
1
330
17
  0
LAYOUT
  5
1E
330
D
100
AcDbPlotSettings
  1

  4
A3
  6

 40
7.5
 41
20.0
 42
7.5
 43
20.0
 44
420.0
 45
297.0
 46
0.0
 47
0.0
 48
0.0
 49
0.0
140
0.0
141
0.0
142
1.0
143
1.0
 70
0
 72
1
 73
0
 74
5
  7

 75
16
 76
0
 77
2
 78
300
147
1.0
148
0.0
149
0.0
100
AcDbLayout
  1
Layout1
 70
1
 71
1
 10
0.0
 20
0.0
 11
420.0
 21
297.0
 12
0.0
 22
0.0
 32
0.0
 14
1e+20
 24
1e+20
 34
1e+20
 15
-1e+20
 25
-1e+20
 35
-1e+20
146
0.0
 13
0.0
 23
0.0
 33
0.0
 16
1.0
 26
0.0
 36
0.0
 17
0.0
 27
1.0
 37
0.0
 76
1
330
1B
  0
MATERIAL
  5
1F
102
{ACAD_REACTORS
330
E
102
}
330
E
100
AcDbMaterial
  1
ByBlock
  2

 70
0
 40
1.0
 71
1
 41
1.0
 91
-1023410177
 42
1.0
 72
1
  3

 73
1
 74
1
 75
1
 44
0.5
 73
0
 45
1.0
 46
1.0
 77
1
  4

 78
1
 79
1
170
1
 48
1.0
171
1
  6

172
1
173
1
174
1
140
1.0
141
1.0
175
1
  7

176
1
177
1
178
1
143
1.0
179
1
  8

270
1
271
1
272
1
145
1.0
146
1.0
273
1
  9

274
1
275
1
276
1
 42
1.0
 72
1
  3

 73
1
 74
1
 75
1
 94
63
  0
MATERIAL
  5
20
102
{ACAD_REACTORS
330
E
102
}
330
E
100
AcDbMaterial
  1
ByLayer
  2

 70
0
 40
1.0
 71
1
 41
1.0
 91
-1023410177
 42
1.0
 72
1
  3

 73
1
 74
1
 75
1
 44
0.5
 73
0
 45
1.0
 46
1.0
 77
1
  4

 78
1
 79
1
170
1
 48
1.0
171
1
  6

172
1
173
1
174
1
140
1.0
141
1.0
175
1
  7

176
1
177
1
178
1
143
1.0
179
1
  8

270
1
271
1
272
1
145
1.0
146
1.0
273
1
  9

274
1
275
1
276
1
 42
1.0
 72
1
  3

 73
1
 74
1
 75
1
 94
63
  0
MATERIAL
  5
21
102
{ACAD_REACTORS
330
E
102
}
330
E
100
AcDbMaterial
  1
Global
  2

 70
0
 40
1.0
 71
1
 41
1.0
 91
-1023410177
 42
1.0
 72
1
  3

 73
1
 74
1
 75
1
 44
0.5
 73
0
 45
1.0
 46
1.0
 77
1
  4

 78
1
 79
1
170
1
 48
1.0
171
1
  6

172
1
173
1
174
1
140
1.0
141
1.0
175
1
  7

176
1
177
1
178
1
143
1.0
179
1
  8

270
1
271
1
272
1
145
1.0
146
1.0
273
1
  9

274
1
275
1
276
1
 42
1.0
 72
1
  3

 73
1
 74
1
 75
1
 94
63
  0
MLINESTYLE
  5
22
102
{ACAD_REACTORS
330
10
102
}
330
10
100
AcDbMlineStyle
  2
Standard
 70
0
  3

 62
256
 51
90.0
 52
90.0
 71
2
 49
0.5
 62
256
  6
BYLAYER
 49
-0.5
 62
256
  6
BYLAYER
  0
MLEADERSTYLE
  5
2C
102
{ACAD_REACTORS
330
F
102
}
330
F
100
AcDbMLeaderStyle
179
2
170
2
171
1
172
0
 90
2
 40
0.0
 41
0.0
173
1
 91
-1056964608
 92
-2
290
1
 42
2.0
291
1
 43
8.0
  3
Standard
 44
4.0
300

342
29
174
1
175
1
176
0
178
1
 93
-1056964608
 45
4.0
292
0
297
0
 46
4.0
 94
-1056964608
 47
1.0
 49
1.0
140
1.0
294
1
141
0.0
177
0
142
1.0
295
0
296
0
143
3.75
271
0
272
9
273
9
  0
DICTIONARY
  5
2D
330
A
100
AcDbDictionary
280
1
281
1
  3
CREATED_BY_EZDXF
350
2E
  3
WRITTEN_BY_EZDXF
350
76
  0
DICTIONARYVAR
  5
2E
330
2D
100
DictionaryVariables
280
0
  1
1.4.3 @ 2025-11-23T08:26:57.309440+00:00
  0
DICTIONARYVAR
  5
76
330
2D
100
DictionaryVariables
280
0
  1
1.4.3 @ 2025-11-23T08:26:57.327616+00:00
  0
ENDSEC
  0
EOF
