  0
SECTION
  2
HEADER
  9
$ACADVER
  1
AC1027
  9
$ACADMAINTVER
 70
105
  9
$DWGCODEPAGE
  3
ANSI_1252
  9
$LASTSAVEDBY
  1
ezdxf
  9
$REQUIREDVERSIONS
160
0
  9
$INSBASE
 10
0.0
 20
0.0
 30
0.0
  9
$EXTMIN
 10
1e+20
 20
1e+20
 30
1e+20
  9
$EXTMAX
 10
-1e+20
 20
-1e+20
 30
-1e+20
  9
$LIMMIN
 10
0.0
 20
0.0
  9
$LIMMAX
 10
420.0
 20
297.0
  9
$ORTHOMODE
 70
0
  9
$REGENMODE
 70
1
  9
$FILLMODE
 70
1
  9
$QTEXTMODE
 70
0
  9
$MIRRTEXT
 70
1
  9
$LTSCALE
 40
1.0
  9
$ATTMODE
 70
1
  9
$TEXTSIZE
 40
2.5
  9
$TRACEWID
 40
1.0
  9
$TEXTSTYLE
  7
Standard
  9
$CLAYER
  8
0
  9
$CELTYPE
  6
ByLayer
  9
$CECOLOR
 62
256
  9
$CELTSCALE
 40
1.0
  9
$DISPSILH
 70
0
  9
$DIMSCALE
 40
1.0
  9
$DIMASZ
 40
2.5
  9
$DIMEXO
 40
0.625
  9
$DIMDLI
 40
3.75
  9
$DIMRND
 40
0.0
  9
$DIMDLE
 40
0.0
  9
$DIMEXE
 40
1.25
  9
$DIMTP
 40
0.0
  9
$DIMTM
 40
0.0
  9
$DIMTXT
 40
2.5
  9
$DIMCEN
 40
2.5
  9
$DIMTSZ
 40
0.0
  9
$DIMTOL
 70
0
  9
$DIMLIM
 70
0
  9
$DIMTIH
 70
0
  9
$DIMTOH
 70
0
  9
$DIMSE1
 70
0
  9
$DIMSE2
 70
0
  9
$DIMTAD
 70
1
  9
$DIMZIN
 70
8
  9
$DIMBLK
  1

  9
$DIMASO
 70
1
  9
$DIMSHO
 70
1
  9
$DIMPOST
  1

  9
$DIMAPOST
  1

  9
$DIMALT
 70
0
  9
$DIMALTD
 70
3
  9
$DIMALTF
 40
0.03937007874
  9
$DIMLFAC
 40
1.0
  9
$DIMTOFL
 70
1
  9
$DIMTVP
 40
0.0
  9
$DIMTIX
 70
0
  9
$DIMSOXD
 70
0
  9
$DIMSAH
 70
0
  9
$DIMBLK1
  1

  9
$DIMBLK2
  1

  9
$DIMSTYLE
  2
ISO-25
  9
$DIMCLRD
 70
0
  9
$DIMCLRE
 70
0
  9
$DIMCLRT
 70
0
  9
$DIMTFAC
 40
1.0
  9
$DIMGAP
 40
0.625
  9
$DIMJUST
 70
0
  9
$DIMSD1
 70
0
  9
$DIMSD2
 70
0
  9
$DIMTOLJ
 70
0
  9
$DIMTZIN
 70
8
  9
$DIMALTZ
 70
0
  9
$DIMALTTZ
 70
0
  9
$DIMUPT
 70
0
  9
$DIMDEC
 70
2
  9
$DIMTDEC
 70
2
  9
$DIMALTU
 70
2
  9
$DIMALTTD
 70
3
  9
$DIMTXSTY
  7
Standard
  9
$DIMAUNIT
 70
0
  9
$DIMADEC
 70
0
  9
$DIMALTRND
 40
0.0
  9
$DIMAZIN
 70
0
  9
$DIMDSEP
 70
44
  9
$DIMATFIT
 70
3
  9
$DIMFRAC
 70
0
  9
$DIMLDRBLK
  1

  9
$DIMLUNIT
 70
2
  9
$DIMLWD
 70
-2
  9
$DIMLWE
 70
-2
  9
$DIMTMOVE
 70
0
  9
$DIMFXL
 40
1.0
  9
$DIMFXLON
 70
0
  9
$DIMJOGANG
 40
0.785398163397
  9
$DIMTFILL
 70
0
  9
$DIMTFILLCLR
 70
0
  9
$DIMARCSYM
 70
0
  9
$DIMLTYPE
  6

  9
$DIMLTEX1
  6

  9
$DIMLTEX2
  6

  9
$DIMTXTDIRECTION
 70
0
  9
$LUNITS
 70
2
  9
$LUPREC
 70
4
  9
$SKETCHINC
 40
1.0
  9
$FILLETRAD
 40
10.0
  9
$AUNITS
 70
0
  9
$AUPREC
 70
2
  9
$MENU
  1
.
  9
$ELEVATION
 40
0.0
  9
$PELEVATION
 40
0.0
  9
$THICKNESS
 40
0.0
  9
$LIMCHECK
 70
0
  9
$CHAMFERA
 40
0.0
  9
$CHAMFERB
 40
0.0
  9
$CHAMFERC
 40
0.0
  9
$CHAMFERD
 40
0.0
  9
$SKPOLY
 70
0
  9
$TDCREATE
 40
2460983.7430555555
  9
$TDUCREATE
 40
2458532.153996898
  9
$TDUPDATE
 40
2460983.7430555555
  9
$TDUUPDATE
 40
2458532.1544311
  9
$TDINDWG
 40
0.0
  9
$TDUSRTIMER
 40
0.0
  9
$USRTIMER
 70
1
  9
$ANGBASE
 50
0.0
  9
$ANGDIR
 70
0
  9
$PDMODE
 70
0
  9
$PDSIZE
 40
0.0
  9
$PLINEWID
 40
0.0
  9
$SPLFRAME
 70
0
  9
$SPLINETYPE
 70
6
  9
$SPLINESEGS
 70
8
  9
$HANDSEED
  5
63
  9
$SURFTAB1
 70
6
  9
$SURFTAB2
 70
6
  9
$SURFTYPE
 70
6
  9
$SURFU
 70
6
  9
$SURFV
 70
6
  9
$UCSBASE
  2

  9
$UCSNAME
  2

  9
$UCSORG
 10
0.0
 20
0.0
 30
0.0
  9
$UCSXDIR
 10
1.0
 20
0.0
 30
0.0
  9
$UCSYDIR
 10
0.0
 20
1.0
 30
0.0
  9
$UCSORTHOREF
  2

  9
$UCSORTHOVIEW
 70
0
  9
$UCSORGTOP
 10
0.0
 20
0.0
 30
0.0
  9
$UCSORGBOTTOM
 10
0.0
 20
0.0
 30
0.0
  9
$UCSORGLEFT
 10
0.0
 20
0.0
 30
0.0
  9
$UCSORGRIGHT
 10
0.0
 20
0.0
 30
0.0
  9
$UCSORGFRONT
 10
0.0
 20
0.0
 30
0.0
  9
$UCSORGBACK
 10
0.0
 20
0.0
 30
0.0
  9
$PUCSBASE
  2

  9
$PUCSNAME
  2

  9
$PUCSORG
 10
0.0
 20
0.0
 30
0.0
  9
$PUCSXDIR
 10
1.0
 20
0.0
 30
0.0
  9
$PUCSYDIR
 10
0.0
 20
1.0
 30
0.0
  9
$PUCSORTHOREF
  2

  9
$PUCSORTHOVIEW
 70
0
  9
$PUCSORGTOP
 10
0.0
 20
0.0
 30
0.0
  9
$PUCSORGBOTTOM
 10
0.0
 20
0.0
 30
0.0
  9
$PUCSORGLEFT
 10
0.0
 20
0.0
 30
0.0
  9
$PUCSORGRIGHT
 10
0.0
 20
0.0
 30
0.0
  9
$PUCSORGFRONT
 10
0.0
 20
0.0
 30
0.0
  9
$PUCSORGBACK
 10
0.0
 20
0.0
 30
0.0
  9
$USERI1
 70
0
  9
$USERI2
 70
0
  9
$USERI3
 70
0
  9
$USERI4
 70
0
  9
$USERI5
 70
0
  9
$USERR1
 40
0.0
  9
$USERR2
 40
0.0
  9
$USERR3
 40
0.0
  9
$USERR4
 40
0.0
  9
$USERR5
 40
0.0
  9
$WORLDVIEW
 70
1
  9
$SHADEDGE
 70
3
  9
$SHADEDIF
 70
70
  9
$TILEMODE
 70
1
  9
$MAXACTVP
 70
64
  9
$PINSBASE
 10
0.0
 20
0.0
 30
0.0
  9
$PLIMCHECK
 70
0
  9
$PEXTMIN
 10
1e+20
 20
1e+20
 30
1e+20
  9
$PEXTMAX
 10
-1e+20
 20
-1e+20
 30
-1e+20
  9
$PLIMMIN
 10
0.0
 20
0.0
  9
$PLIMMAX
 10
420.0
 20
297.0
  9
$UNITMODE
 70
0
  9
$VISRETAIN
 70
1
  9
$PLINEGEN
 70
0
  9
$PSLTSCALE
 70
1
  9
$TREEDEPTH
 70
3020
  9
$CMLSTYLE
  2
Standard
  9
$CMLJUST
 70
0
  9
$CMLSCALE
 40
20.0
  9
$PROXYGRAPHICS
 70
1
  9
$MEASUREMENT
 70
1
  9
$CELWEIGHT
370
-1
  9
$ENDCAPS
280
0
  9
$JOINSTYLE
280
0
  9
$LWDISPLAY
290
0
  9
$INSUNITS
 70
6
  9
$HYPERLINKBASE
  1

  9
$STYLESHEET
  1

  9
$XEDIT
290
1
  9
$CEPSNTYPE
380
0
  9
$PSTYLEMODE
290
1
  9
$FINGERPRINTGUID
  2
{84EB2205-0804-4ABE-BC3C-596C656E1735}
  9
$VERSIONGUID
  2
{391C4A60-46CF-489F-AC99-51104DCA7E2A}
  9
$EXTNAMES
290
1
  9
$PSVPSCALE
 40
0.0
  9
$OLESTARTUP
290
0
  9
$SORTENTS
280
127
  9
$INDEXCTL
280
0
  9
$HIDETEXT
280
1
  9
$XCLIPFRAME
280
1
  9
$HALOGAP
280
0
  9
$OBSCOLOR
 70
257
  9
$OBSLTYPE
280
0
  9
$INTERSECTIONDISPLAY
280
0
  9
$INTERSECTIONCOLOR
 70
257
  9
$DIMASSOC
280
2
  9
$PROJECTNAME
  1

  9
$CAMERADISPLAY
290
0
  9
$LENSLENGTH
 40
50.0
  9
$CAMERAHEIGHT
 40
0.0
  9
$STEPSPERSEC
 40
24.0
  9
$STEPSIZE
 40
100.0
  9
$3DDWFPREC
 40
2.0
  9
$PSOLWIDTH
 40
0.005
  9
$PSOLHEIGHT
 40
0.08
  9
$LOFTANG1
 40
1.570796326795
  9
$LOFTANG2
 40
1.570796326795
  9
$LOFTMAG1
 40
0.0
  9
$LOFTMAG2
 40
0.0
  9
$LOFTPARAM
 70
7
  9
$LOFTNORMALS
280
1
  9
$LATITUDE
 40
37.795
  9
$LONGITUDE
 40
-122.394
  9
$NORTHDIRECTION
 40
0.0
  9
$TIMEZONE
 70
-8000
  9
$LIGHTGLYPHDISPLAY
280
1
  9
$TILEMODELIGHTSYNCH
280
1
  9
$CMATERIAL
347
20
  9
$SOLIDHIST
280
0
  9
$SHOWHIST
280
1
  9
$DWFFRAME
280
2
  9
$DGNFRAME
280
2
  9
$REALWORLDSCALE
290
1
  9
$INTERFERECOLOR
 62
256
  9
$CSHADOW
280
0
  9
$SHADOWPLANELOCATION
 40
0.0
  0
ENDSEC
  0
SECTION
  2
CLASSES
  0
CLASS
  1
ACDBDICTIONARYWDFLT
  2
AcDbDictionaryWithDefault
  3
ObjectDBX Classes
 90
0
 91
0
280
0
281
0
  0
CLASS
  1
SUN
  2
AcDbSun
  3
SCENEOE
 90
1153
 91
0
280
0
281
0
  0
CLASS
  1
VISUALSTYLE
  2
AcDbVisualStyle
  3
ObjectDBX Classes
 90
4095
 91
0
280
0
281
0
  0
CLASS
  1
MATERIAL
  2
AcDbMaterial
  3
ObjectDBX Classes
 90
1153
 91
0
280
0
281
0
  0
CLASS
  1
SCALE
  2
AcDbScale
  3
ObjectDBX Classes
 90
1153
 91
0
280
0
281
0
  0
CLASS
  1
TABLESTYLE
  2
AcDbTableStyle
  3
ObjectDBX Classes
 90
4095
 91
0
280
0
281
0
  0
CLASS
  1
MLEADERSTYLE
  2
AcDbMLeaderStyle
  3
ACDB_MLEADERSTYLE_CLASS
 90
4095
 91
0
280
0
281
0
  0
CLASS
  1
DICTIONARYVAR
  2
AcDbDictionaryVar
  3
ObjectDBX Classes
 90
0
 91
0
280
0
281
0
  0
CLASS
  1
CELLSTYLEMAP
  2
AcDbCellStyleMap
  3
ObjectDBX Classes
 90
1152
 91
0
280
0
281
0
  0
CLASS
  1
MENTALRAYRENDERSETTINGS
  2
AcDbMentalRayRenderSettings
  3
SCENEOE
 90
1024
 91
0
280
0
281
0
  0
CLASS
  1
ACDBDETAILVIEWSTYLE
  2
AcDbDetailViewStyle
  3
ObjectDBX Classes
 90
1025
 91
0
280
0
281
0
  0
CLASS
  1
ACDBSECTIONVIEWSTYLE
  2
AcDbSectionViewStyle
  3
ObjectDBX Classes
 90
1025
 91
0
280
0
281
0
  0
CLASS
  1
RASTERVARIABLES
  2
AcDbRasterVariables
  3
ISM
 90
0
 91
0
280
0
281
0
  0
CLASS
  1
ACDBPLACEHOLDER
  2
AcDbPlaceHolder
  3
ObjectDBX Classes
 90
0
 91
0
280
0
281
0
  0
CLASS
  1
LAYOUT
  2
AcDbLayout
  3
ObjectDBX Classes
 90
0
 91
0
280
0
281
0
  0
ENDSEC
  0
SECTION
  2
TABLES
  0
TABLE
  2
VPORT
  5
8
330
0
100
AcDbSymbolTable
 70
1
  0
VPORT
  5
23
330
8
100
AcDbSymbolTableRecord
100
AcDbViewportTableRecord
  2
*Active
 70
0
 10
0.0
 20
0.0
 11
1.0
 21
1.0
 12
0.0
 22
0.0
 13
0.0
 23
0.0
 14
0.5
 24
0.5
 15
0.5
 25
0.5
 16
0.0
 26
0.0
 36
1.0
 17
0.0
 27
0.0
 37
0.0
 40
1000.0
 41
1.34
 42
50.0
 43
0.0
 44
0.0
 50
0.0
 51
0.0
 71
0
 72
1000
 73
1
 74
3
 75
0
 76
0
 77
0
 78
0
281
0
 65
0
146
0.0
  0
ENDTAB
  0
TABLE
  2
LTYPE
  5
2
330
0
100
AcDbSymbolTable
 70
3
  0
LTYPE
  5
24
330
2
100
AcDbSymbolTableRecord
100
AcDbLinetypeTableRecord
  2
ByBlock
 70
0
  3

 72
65
 73
0
 40
0.0
  0
LTYPE
  5
25
330
2
100
AcDbSymbolTableRecord
100
AcDbLinetypeTableRecord
  2
ByLayer
 70
0
  3

 72
65
 73
0
 40
0.0
  0
LTYPE
  5
26
330
2
100
AcDbSymbolTableRecord
100
AcDbLinetypeTableRecord
  2
Continuous
 70
0
  3

 72
65
 73
0
 40
0.0
  0
ENDTAB
  0
TABLE
  2
LAYER
  5
1
330
0
100
AcDbSymbolTable
 70
2
  0
LAYER
  5
27
330
1
100
AcDbSymbolTableRecord
100
AcDbLayerTableRecord
  2
0
 70
0
 62
7
  6
Continuous
370
-3
390
13
347
21
  0
LAYER
  5
28
330
1
100
AcDbSymbolTableRecord
100
AcDbLayerTableRecord
  2
Defpoints
 70
0
 62
7
  6
Continuous
290
0
370
-3
390
13
347
21
  0
ENDTAB
  0
TABLE
  2
STYLE
  5
5
330
0
100
AcDbSymbolTable
 70
1
  0
STYLE
  5
29
330
5
100
AcDbSymbolTableRecord
100
AcDbTextStyleTableRecord
  2
Standard
 70
0
 40
0.0
 41
1.0
 50
0.0
 71
0
 42
2.5
  3
txt
  4

  0
ENDTAB
  0
TABLE
  2
VIEW
  5
7
330
0
100
AcDbSymbolTable
 70
0
  0
ENDTAB
  0
TABLE
  2
UCS
  5
6
330
0
100
AcDbSymbolTable
 70
0
  0
ENDTAB
  0
TABLE
  2
APPID
  5
3
330
0
100
AcDbSymbolTable
 70
3
  0
APPID
  5
2A
330
3
100
AcDbSymbolTableRecord
100
AcDbRegAppTableRecord
  2
ACAD
 70
0
  0
APPID
  5
60
330
3
100
AcDbSymbolTableRecord
100
AcDbRegAppTableRecord
  2
HATCHBACKGROUNDCOLOR
 70
0
  0
APPID
  5
61
330
3
100
AcDbSymbolTableRecord
100
AcDbRegAppTableRecord
  2
EZDXF
 70
0
  0
ENDTAB
  0
TABLE
  2
DIMSTYLE
  5
4
330
0
100
AcDbSymbolTable
 70
1
100
AcDbDimStyleTable
  0
DIMSTYLE
105
2B
330
4
100
AcDbSymbolTableRecord
100
AcDbDimStyleTableRecord
  2
Standard
 70
0
 40
1.0
 41
2.5
 42
0.625
 43
3.75
 44
1.25
 45
0.0
 46
0.0
 47
0.0
 48
0.0
 49
2.5
140
2.5
141
2.5
142
0.0
143
0.03937007874
144
1.0
145
0.0
146
1.0
147
0.625
148
0.0
 69
0
 70
0
 71
0
 72
0
 73
0
 74
0
 75
0
 76
0
 77
1
 78
8
 79
3
170
0
171
3
172
1
173
0
174
0
175
0
176
0
177
0
178
0
179
2
271
2
272
2
273
2
274
3
275
0
276
0
277
2
278
44
279
0
280
0
281
0
282
0
283
0
284
8
285
0
286
0
288
0
289
3
290
0
371
-2
372
-2
  0
ENDTAB
  0
TABLE
  2
BLOCK_RECORD
  5
9
330
0
100
AcDbSymbolTable
 70
2
  0
BLOCK_RECORD
  5
17
330
9
100
AcDbSymbolTableRecord
100
AcDbBlockTableRecord
  2
*Model_Space
340
1A
 70
0
280
1
281
0
  0
BLOCK_RECORD
  5
1B
330
9
100
AcDbSymbolTableRecord
100
AcDbBlockTableRecord
  2
*Paper_Space
340
1E
 70
0
280
1
281
0
  0
ENDTAB
  0
ENDSEC
  0
SECTION
  2
BLOCKS
  0
BLOCK
  5
18
330
17
100
AcDbEntity
  8
0
100
AcDbBlockBegin
  2
*Model_Space
 70
0
 10
0.0
 20
0.0
 30
0.0
  3
*Model_Space
  1

  0
ENDBLK
  5
19
330
17
100
AcDbEntity
  8
0
100
AcDbBlockEnd
  0
BLOCK
  5
1C
330
1B
100
AcDbEntity
  8
0
100
AcDbBlockBegin
  2
*Paper_Space
 70
0
 10
0.0
 20
0.0
 30
0.0
  3
*Paper_Space
  1

  0
ENDBLK
  5
1D
330
1B
100
AcDbEntity
  8
0
100
AcDbBlockEnd
  0
ENDSEC
  0
SECTION
  2
ENTITIES
  0
LWPOLYLINE
  5
2F
330
17
100
AcDbEntity
  8
0
100
AcDbPolyline
 90
5
 70
0
 10
0.0
 20
1224.0
 10
0.0
 20
0.0
 10
792.0
 20
0.0
 10
792.0
 20
1224.0
 10
0.0
 20
1224.0
  0
LWPOLYLINE
  5
30
330
17
100
AcDbEntity
  8
0
100
AcDbPolyline
 90
5
 70
0
 10
35.0
 20
1188.0
 10
35.0
 20
53.0
 10
756.0
 20
53.0
 10
756.0
 20
1188.0
 10
35.0
 20
1188.0
  0
LWPOLYLINE
  5
31
330
17
100
AcDbEntity
  8
0
100
AcDbPolyline
 90
5
 70
0
 10
36.0
 20
1187.0
 10
36.0
 20
54.0
 10
755.0
 20
54.0
 10
755.0
 20
1187.0
 10
36.0
 20
1187.0
  0
LWPOLYLINE
  5
32
330
17
100
AcDbEntity
  8
0
100
AcDbPolyline
 90
371
 70
0
 10
350.0
 20
1121.0
 10
333.984558
 20
1112.148193
 10
299.0
 20
1112.0
 10
228.0
 20
1112.0
 10
228.0
 20
579.0
 10
191.0
 20
579.0
 10
191.0
 20
575.0
 10
227.0
 20
575.0
 10
227.0
 20
443.0
 10
228.1449
 20
442.9932
 10
229.1824
 20
442.9959
 10
230.1098
 20
443.0579
 10
230.9243
 20
443.2289
 10
231.6233
 20
443.5589
 10
232.204
 20
444.0975
 10
232.6638
 20
444.8946
 10
233.0
 20
446.0
 10
234.0
 20
446.0
 10
234.0
 20
381.0
 10
233.0
 20
381.0
 10
233.0
 20
384.0
 10
229.0
 20
384.0
 10
229.0
 20
372.0
 10
233.0
 20
375.0
 10
234.0
 20
375.0
 10
234.0
 20
306.0
 10
321.0
 20
306.0
 10
321.9141
 20
305.9922
 10
322.8469
 20
305.9699
 10
323.7972
 20
305.9342
 10
324.7636
 20
305.8862
 10
325.7449
 20
305.8271
 10
326.7398
 20
305.7582
 10
327.7471
 20
305.6806
 10
328.7655
 20
305.5955
 10
329.7938
 20
305.5041
 10
330.8306
 20
305.4075
 10
331.8748
 20
305.307
 10
332.925
 20
305.2038
 10
333.9799
 20
305.099
 10
335.0384
 20
304.9938
 10
336.0992
 20
304.8895
 10
337.1609
 20
304.7871
 10
338.2224
 20
304.6879
 10
339.2823
 20
304.5931
 10
340.3394
 20
304.5039
 10
341.3924
 20
304.4213
 10
342.4402
 20
304.3468
 10
343.4813
 20
304.2813
 10
344.5145
 20
304.2261
 10
345.5387
 20
304.1825
 10
346.5524
 20
304.1515
 10
347.5545
 20
304.1343
 10
348.5437
 20
304.1322
 10
349.5187
 20
304.1464
 10
350.4782
 20
304.178
 10
351.421
 20
304.2282
 10
352.3459
 20
304.2981
 10
353.2515
 20
304.3891
 10
354.1366
 20
304.5023
 10
355.0
 20
304.6388
 10
355.8698
 20
304.8182
 10
356.7496
 20
305.0523
 10
357.6382
 20
305.3372
 10
358.5341
 20
305.669
 10
359.4361
 20
306.0438
 10
360.3429
 20
306.4578
 10
361.2532
 20
306.9069
 10
362.1657
 20
307.3874
 10
363.0791
 20
307.8952
 10
363.992
 20
308.4266
 10
364.9033
 20
308.9776
 10
365.8115
 20
309.5443
 10
366.7153
 20
310.1228
 10
367.6136
 20
310.7092
 10
368.5049
 20
311.2996
 10
369.388
 20
311.8901
 10
370.2615
 20
312.4769
 10
371.1243
 20
313.0559
 10
371.9748
 20
313.6234
 10
372.8119
 20
314.1753
 10
373.6343
 20
314.7079
 10
374.4406
 20
315.2172
 10
375.2296
 20
315.6993
 10
376.0
 20
316.1504
 10
376.7928
 20
316.5993
 10
377.5966
 20
317.0476
 10
378.4109
 20
317.4954
 10
379.2352
 20
317.9427
 10
380.0692
 20
318.3898
 10
380.9122
 20
318.8366
 10
381.764
 20
319.2835
 10
382.624
 20
319.7304
 10
383.4918
 20
320.1776
 10
384.3669
 20
320.6251
 10
385.2488
 20
321.0732
 10
386.1372
 20
321.5218
 10
387.0314
 20
321.9712
 10
387.9312
 20
322.4215
 10
388.836
 20
322.8728
 10
389.7454
 20
323.3253
 10
390.6589
 20
323.779
 10
391.5761
 20
324.2342
 10
392.4965
 20
324.6909
 10
393.4196
 20
325.1493
 10
394.345
 20
325.6095
 10
395.2722
 20
326.0716
 10
396.2009
 20
326.5357
 10
397.1304
 20
327.0021
 10
398.0604
 20
327.4708
 10
398.9904
 20
327.942
 10
399.92
 20
328.4157
 10
400.8487
 20
328.8922
 10
401.776
 20
329.3715
 10
402.7015
 20
329.8538
 10
403.6247
 20
330.3393
 10
404.5452
 20
330.8279
 10
405.4625
 20
331.32
 10
406.3762
 20
331.8155
 10
407.2858
 20
332.3147
 10
408.1908
 20
332.8177
 10
409.0908
 20
333.3245
 10
409.9853
 20
333.8354
 10
410.8739
 20
334.3505
 10
411.7561
 20
334.8698
 10
412.6315
 20
335.3936
 10
413.4996
 20
335.9219
 10
414.3599
 20
336.4549
 10
415.212
 20
336.9928
 10
416.0555
 20
337.5355
 10
416.8898
 20
338.0834
 10
417.7146
 20
338.6365
 10
418.5293
 20
339.1949
 10
419.3336
 20
339.7588
 10
420.1269
 20
340.3283
 10
420.9088
 20
340.9035
 10
421.6788
 20
341.4846
 10
422.4365
 20
342.0717
 10
423.1814
 20
342.6649
 10
423.9131
 20
343.2643
 10
424.6311
 20
343.8702
 10
425.335
 20
344.4826
 10
426.0243
 20
345.1016
 10
426.6985
 20
345.7274
 10
427.3572
 20
346.3602
 10
428.0
 20
347.0
 10
429.0
 20
347.0
 10
429.561
 20
346.2103
 10
430.1296
 20
345.4236
 10
430.7057
 20
344.6397
 10
431.2889
 20
343.8587
 10
431.8793
 20
343.0804
 10
432.4766
 20
342.3048
 10
433.0807
 20
341.532
 10
433.6914
 20
340.7618
 10
434.3087
 20
339.9942
 10
434.9322
 20
339.2291
 10
435.562
 20
338.4666
 10
436.1978
 20
337.7066
 10
436.8395
 20
336.9491
 10
437.4869
 20
336.1939
 10
438.1399
 20
335.4412
 10
438.7983
 20
334.6907
 10
439.462
 20
333.9426
 10
440.1309
 20
333.1967
 10
440.8047
 20
332.453
 10
441.4833
 20
331.7115
 10
442.1666
 20
330.9721
 10
442.8545
 20
330.2348
 10
443.5467
 20
329.4996
 10
444.2431
 20
328.7664
 10
444.9436
 20
328.0351
 10
445.6481
 20
327.3058
 10
446.3563
 20
326.5784
 10
447.0681
 20
325.8528
 10
447.7833
 20
325.1291
 10
448.5019
 20
324.4071
 10
449.2237
 20
323.6868
 10
449.9484
 20
322.9683
 10
450.6761
 20
322.2514
 10
451.4064
 20
321.5361
 10
452.1393
 20
320.8224
 10
452.8746
 20
320.1102
 10
453.6121
 20
319.3995
 10
454.3518
 20
318.6902
 10
455.0934
 20
317.9824
 10
455.8368
 20
317.2759
 10
456.5818
 20
316.5708
 10
457.3284
 20
315.867
 10
458.0763
 20
315.1644
 10
458.8254
 20
314.463
 10
459.5755
 20
313.7628
 10
460.3266
 20
313.0638
 10
461.0783
 20
312.3658
 10
461.8307
 20
311.6689
 10
462.5835
 20
310.973
 10
463.3366
 20
310.2781
 10
464.0898
 20
309.5841
 10
464.8431
 20
308.891
 10
465.5961
 20
308.1987
 10
466.3488
 20
307.5073
 10
467.1011
 20
306.8166
 10
467.8527
 20
306.1267
 10
468.6036
 20
305.4375
 10
469.3536
 20
304.7489
 10
470.1024
 20
304.0609
 10
470.8501
 20
303.3735
 10
471.5964
 20
302.6867
 10
472.3411
 20
302.0003
 10
473.0842
 20
301.3144
 10
473.8254
 20
300.6289
 10
474.5647
 20
299.9438
 10
475.3018
 20
299.259
 10
476.0367
 20
298.5745
 10
476.7691
 20
297.8902
 10
477.4989
 20
297.2062
 10
478.226
 20
296.5223
 10
478.9502
 20
295.8386
 10
479.6713
 20
295.155
 10
480.3893
 20
294.4714
 10
481.1039
 20
293.7878
 10
481.815
 20
293.1043
 10
482.5225
 20
292.4206
 10
483.2262
 20
291.7368
 10
483.9259
 20
291.0529
 10
484.6216
 20
290.3689
 10
485.313
 20
289.6845
 10
486.0
 20
289.0
 10
486.603
 20
288.4075
 10
487.2365
 20
287.8043
 10
487.8976
 20
287.1905
 10
488.5836
 20
286.5665
 10
489.2918
 20
285.9323
 10
490.0194
 20
285.2882
 10
490.7636
 20
284.6346
 10
491.5219
 20
283.9715
 10
492.2913
 20
283.2992
 10
493.0693
 20
282.618
 10
493.8529
 20
281.928
 10
494.6396
 20
281.2295
 10
495.4265
 20
280.5228
 10
496.2109
 20
279.808
 10
496.9901
 20
279.0854
 10
497.7613
 20
278.3552
 10
498.5219
 20
277.6176
 10
499.269
 20
276.8729
 10
499.9999
 20
276.1213
 10
500.7119
 20
275.3629
 10
501.4022
 20
274.5982
 10
502.0682
 20
273.8272
 10
502.707
 20
273.0502
 10
503.3159
 20
272.2674
 10
503.8922
 20
271.4791
 10
504.4332
 20
270.6854
 10
504.9361
 20
269.8867
 10
505.3981
 20
269.0831
 10
505.8166
 20
268.2748
 10
506.1887
 20
267.4621
 10
506.5118
 20
266.6453
 10
506.7832
 20
265.8245
 10
507.0
 20
265.0
 10
507.8862
 20
264.7218
 10
508.7602
 20
264.3904
 10
509.6222
 20
264.0088
 10
510.4725
 20
263.5801
 10
511.3113
 20
263.1071
 10
512.1389
 20
262.593
 10
512.9555
 20
262.0408
 10
513.7613
 20
261.4535
 10
514.5566
 20
260.8342
 10
515.3416
 20
260.1858
 10
516.1167
 20
259.5114
 10
516.882
 20
258.814
 10
517.6377
 20
258.0967
 10
518.3842
 20
257.3624
 10
519.1217
 20
256.6142
 10
519.8504
 20
255.8552
 10
520.5706
 20
255.0883
 10
521.2825
 20
254.3166
 10
521.9863
 20
253.5431
 10
522.6824
 20
252.7708
 10
523.3709
 20
252.0028
 10
524.0521
 20
251.242
 10
524.7263
 20
250.4916
 10
525.3936
 20
249.7545
 10
526.0544
 20
249.0337
 10
526.7089
 20
248.3324
 10
527.3573
 20
247.6535
 10
528.0
 20
247.0
 10
528.6878
 20
246.3092
 10
529.3753
 20
245.6132
 10
530.0625
 20
244.9123
 10
530.7493
 20
244.2067
 10
531.436
 20
243.4966
 10
532.1225
 20
242.7822
 10
532.809
 20
242.0639
 10
533.4954
 20
241.3418
 10
534.1819
 20
240.6161
 10
534.8685
 20
239.887
 10
535.5553
 20
239.1549
 10
536.2424
 20
238.42
 10
536.9298
 20
237.6824
 10
537.6176
 20
236.9424
 10
538.3059
 20
236.2003
 10
538.9947
 20
235.4562
 10
539.6841
 20
234.7104
 10
540.3742
 20
233.9631
 10
541.065
 20
233.2146
 10
541.7566
 20
232.4651
 10
542.449
 20
231.7149
 10
543.1424
 20
230.964
 10
543.8368
 20
230.2129
 10
544.5323
 20
229.4617
 10
545.2289
 20
228.7106
 10
545.9267
 20
227.9599
 10
546.6258
 20
227.2098
 10
547.3262
 20
226.4606
 10
548.028
 20
225.7124
 10
548.7313
 20
224.9655
 10
549.4362
 20
224.2202
 10
550.1426
 20
223.4767
 10
550.8507
 20
222.7351
 10
551.5606
 20
221.9958
 10
552.2723
 20
221.2589
 10
552.9858
 20
220.5247
 10
553.7013
 20
219.7934
 10
554.4188
 20
219.0653
 10
555.1384
 20
218.3406
 10
555.8601
 20
217.6195
 10
556.5841
 20
216.9023
 10
557.3103
 20
216.1891
 10
558.0388
 20
215.4803
 10
558.7698
 20
214.776
 10
559.5033
 20
214.0764
 10
560.2393
 20
213.3819
 10
560.9779
 20
212.6926
 10
561.7192
 20
212.0088
 10
562.4633
 20
211.3306
 10
563.2101
 20
210.6584
 10
563.9599
 20
209.9924
 10
564.7126
 20
209.3328
 10
565.4684
 20
208.6797
 10
566.2272
 20
208.0336
 10
566.9891
 20
207.3945
 10
567.7543
 20
206.7628
 10
568.5228
 20
206.1386
 10
569.2947
 20
205.5221
 10
570.0699
 20
204.9137
 10
570.8487
 20
204.3136
 10
571.631
 20
203.7219
 10
572.4169
 20
203.1389
 10
573.2066
 20
202.5648
 10
574.0
 20
202.0
 10
573.5989
 20
202.9521
 10
573.318
 20
203.8753
 10
573.1488
 20
204.7723
 10
573.0829
 20
205.6459
 10
573.1118
 20
206.499
 10
573.2271
 20
207.3343
 10
573.4204
 20
208.1547
 10
573.6832
 20
208.963
 10
574.0072
 20
209.7621
 10
574.3838
 20
210.5546
 10
574.8046
 20
211.3435
 10
575.2613
 20
212.1316
 10
575.7453
 20
212.9216
 10
576.2483
 20
213.7165
 10
576.7618
 20
214.5189
 10
577.2773
 20
215.3317
 10
577.7865
 20
216.1578
 10
578.2809
 20
217.0
  0
LWPOLYLINE
  5
33
330
17
100
AcDbEntity
  8
0
100
AcDbPolyline
 90
458
 70
0
 10
578.2808
 20
217.0
 10
578.7653
 20
217.85
 10
579.2525
 20
218.7025
 10
579.7415
 20
219.5574
 10
580.2313
 20
220.4149
 10
580.7211
 20
221.2752
 10
581.21
 20
222.1383
 10
581.6971
 20
223.0044
 10
582.1815
 20
223.8736
 10
582.6624
 20
224.7461
 10
583.1388
 20
225.622
 10
583.6099
 20
226.5013
 10
584.0747
 20
227.3843
 10
584.5325
 20
228.271
 10
584.9822
 20
229.1616
 10
585.4231
 20
230.0562
 10
585.8542
 20
230.955
 10
586.2746
 20
231.858
 10
586.6835
 20
232.7653
 10
587.08
 20
233.6772
 10
587.4631
 20
234.5938
 10
587.8321
 20
235.5151
 10
588.1859
 20
236.4412
 10
588.5238
 20
237.3724
 10
588.8449
 20
238.3088
 10
589.1481
 20
239.2504
 10
589.4328
 20
240.1974
 10
589.6979
 20
241.15
 10
589.9426
 20
242.1081
 10
590.1661
 20
243.0721
 10
590.3673
 20
244.042
 10
590.5455
 20
245.0179
 10
590.6998
 20
246.0
 10
590.8326
 20
246.9678
 10
590.9531
 20
247.9401
 10
591.0617
 20
248.9167
 10
591.159
 20
249.8972
 10
591.2453
 20
250.8816
 10
591.3212
 20
251.8695
 10
591.387
 20
252.8608
 10
591.4434
 20
253.8552
 10
591.4906
 20
254.8525
 10
591.5293
 20
255.8525
 10
591.5599
 20
256.8549
 10
591.5827
 20
257.8596
 10
591.5984
 20
258.8663
 10
591.6073
 20
259.8748
 10
591.61
 20
260.8849
 10
591.6069
 20
261.8963
 10
591.5984
 20
262.9089
 10
591.585
 20
263.9223
 10
591.5673
 20
264.9365
 10
591.5456
 20
265.9511
 10
591.5204
 20
266.966
 10
591.4922
 20
267.9809
 10
591.4614
 20
268.9956
 10
591.4286
 20
270.0098
 10
591.3941
 20
271.0235
 10
591.3585
 20
272.0362
 10
591.3222
 20
273.0479
 10
591.2857
 20
274.0583
 10
591.2495
 20
275.0671
 10
591.2139
 20
276.0742
 10
591.1796
 20
277.0793
 10
591.1468
 20
278.0822
 10
591.1162
 20
279.0827
 10
591.0882
 20
280.0806
 10
591.0631
 20
281.0756
 10
591.0416
 20
282.0675
 10
591.0241
 20
283.0561
 10
591.011
 20
284.0412
 10
591.0028
 20
285.0226
 10
591.0
 20
286.0
 10
591.0
 20
365.0
 10
564.0
 20
365.0
 10
564.0
 20
383.0
 10
542.0
 20
383.0
 10
542.006
 20
383.9952
 10
542.0238
 20
384.9879
 10
542.0533
 20
385.9781
 10
542.094
 20
386.966
 10
542.1458
 20
387.9516
 10
542.2083
 20
388.9349
 10
542.2814
 20
389.9161
 10
542.3647
 20
390.8951
 10
542.4579
 20
391.872
 10
542.5608
 20
392.847
 10
542.6731
 20
393.82
 10
542.7946
 20
394.7912
 10
542.925
 20
395.7606
 10
543.0639
 20
396.7282
 10
543.2112
 20
397.6942
 10
543.3666
 20
398.6586
 10
543.5297
 20
399.6214
 10
543.7004
 20
400.5828
 10
543.8784
 20
401.5428
 10
544.0633
 20
402.5014
 10
544.2549
 20
403.4587
 10
544.453
 20
404.4148
 10
544.6573
 20
405.3698
 10
544.8675
 20
406.3237
 10
545.0833
 20
407.2765
 10
545.3044
 20
408.2284
 10
545.5307
 20
409.1794
 10
545.7618
 20
410.1296
 10
545.9974
 20
411.079
 10
546.2374
 20
412.0277
 10
546.4813
 20
412.9758
 10
546.729
 20
413.9233
 10
546.9802
 20
414.8703
 10
547.2346
 20
415.8169
 10
547.4919
 20
416.7631
 10
547.7518
 20
417.709
 10
548.0142
 20
418.6546
 10
548.2787
 20
419.6
 10
548.5451
 20
420.5454
 10
548.813
 20
421.4907
 10
549.0822
 20
422.436
 10
549.3525
 20
423.3813
 10
549.6236
 20
424.3269
 10
549.8952
 20
425.2726
 10
550.167
 20
426.2186
 10
550.4388
 20
427.1649
 10
550.7102
 20
428.1116
 10
550.9811
 20
429.0588
 10
551.2512
 20
430.0065
 10
551.5201
 20
430.9549
 10
551.7876
 20
431.9038
 10
552.0535
 20
432.8535
 10
552.3175
 20
433.804
 10
552.5793
 20
434.7554
 10
552.8386
 20
435.7076
 10
553.0951
 20
436.6608
 10
553.3487
 20
437.6151
 10
553.599
 20
438.5705
 10
553.8457
 20
439.5271
 10
554.0886
 20
440.4849
 10
554.3275
 20
441.444
 10
554.5619
 20
442.4045
 10
554.7918
 20
443.3664
 10
555.0168
 20
444.3298
 10
555.2365
 20
445.2948
 10
555.4509
 20
446.2614
 10
555.6595
 20
447.2297
 10
555.8622
 20
448.1998
 10
556.0586
 20
449.1717
 10
556.2485
 20
450.1455
 10
556.4317
 20
451.1212
 10
556.6077
 20
452.0989
 10
556.7765
 20
453.0787
 10
556.9376
 20
454.0607
 10
557.0909
 20
455.0449
 10
557.236
 20
456.0313
 10
557.3727
 20
457.0201
 10
557.5008
 20
458.0113
 10
557.6199
 20
459.005
 10
557.7298
 20
460.0012
 10
557.8302
 20
461.0
 10
557.9267
 20
462.0483
 10
558.0159
 20
463.0934
 10
558.0977
 20
464.1353
 10
558.1722
 20
465.1741
 10
558.2395
 20
466.2098
 10
558.2997
 20
467.2425
 10
558.3528
 20
468.2723
 10
558.3989
 20
469.2991
 10
558.4381
 20
470.3231
 10
558.4705
 20
471.3443
 10
558.4962
 20
472.3628
 10
558.5151
 20
473.3787
 10
558.5275
 20
474.3919
 10
558.5333
 20
475.4025
 10
558.5327
 20
476.4107
 10
558.5257
 20
477.4164
 10
558.5124
 20
478.4197
 10
558.4929
 20
479.4207
 10
558.4672
 20
480.4195
 10
558.4355
 20
481.416
 10
558.3977
 20
482.4103
 10
558.3541
 20
483.4026
 10
558.3045
 20
484.3928
 10
558.2493
 20
485.381
 10
558.1883
 20
486.3673
 10
558.1217
 20
487.3517
 10
558.0495
 20
488.3343
 10
557.9719
 20
489.3151
 10
557.8889
 20
490.2943
 10
557.8005
 20
491.2718
 10
557.707
 20
492.2477
 10
557.6082
 20
493.222
 10
557.5044
 20
494.1949
 10
557.3955
 20
495.1664
 10
557.2818
 20
496.1365
 10
557.1631
 20
497.1053
 10
557.0397
 20
498.0729
 10
556.9115
 20
499.0393
 10
556.7787
 20
500.0045
 10
556.6413
 20
500.9687
 10
556.4995
 20
501.9318
 10
556.3532
 20
502.894
 10
556.2027
 20
503.8552
 10
556.0478
 20
504.8157
 10
555.8888
 20
505.7753
 10
555.7256
 20
506.7342
 10
555.5584
 20
507.6924
 10
555.3873
 20
508.65
 10
555.2123
 20
509.607
 10
555.0335
 20
510.5636
 10
554.8509
 20
511.5196
 10
554.6647
 20
512.4753
 10
554.4749
 20
513.4307
 10
554.2816
 20
514.3857
 10
554.0849
 20
515.3406
 10
553.8848
 20
516.2953
 10
553.6814
 20
517.2498
 10
553.4749
 20
518.2043
 10
553.2652
 20
519.1589
 10
553.0525
 20
520.1134
 10
552.8368
 20
521.0681
 10
552.6181
 20
522.023
 10
552.3967
 20
522.9781
 10
552.1725
 20
523.9335
 10
551.9457
 20
524.8893
 10
551.7162
 20
525.8454
 10
551.4843
 20
526.802
 10
551.2498
 20
527.7592
 10
551.0131
 20
528.7169
 10
550.774
 20
529.6752
 10
550.5327
 20
530.6342
 10
550.2892
 20
531.594
 10
550.0437
 20
532.5546
 10
549.7962
 20
533.516
 10
549.5468
 20
534.4783
 10
549.2955
 20
535.4417
 10
549.0425
 20
536.406
 10
548.7878
 20
537.3714
 10
548.5314
 20
538.338
 10
548.2735
 20
539.3058
 10
548.0142
 20
540.2748
 10
547.7535
 20
541.2452
 10
547.4914
 20
542.2169
 10
547.2282
 20
543.19
 10
546.9637
 20
544.1647
 10
546.6982
 20
545.1408
 10
546.4317
 20
546.1186
 10
546.1642
 20
547.0981
 10
545.8959
 20
548.0792
 10
545.6268
 20
549.0621
 10
545.357
 20
550.0469
 10
545.0865
 20
551.0335
 10
544.8155
 20
552.022
 10
544.5441
 20
553.0126
 10
544.2722
 20
554.0052
 10
544.0
 20
555.0
 10
539.0
 20
555.0
 10
539.0
 20
565.0
 10
537.8658
 20
564.8498
 10
536.8036
 20
564.642
 10
535.806
 20
564.3774
 10
534.8656
 20
564.0571
 10
533.9751
 20
563.6819
 10
533.1272
 20
563.253
 10
532.3146
 20
562.7712
 10
531.53
 20
562.2375
 10
530.7661
 20
561.6529
 10
530.0155
 20
561.0183
 10
529.2709
 20
560.3347
 10
528.5249
 20
559.6032
 10
527.7704
 20
558.8246
 10
527.0
 20
558.0
 10
526.4883
 20
558.9844
 10
525.9433
 20
559.8773
 10
525.3623
 20
560.6833
 10
524.7428
 20
561.4072
 10
524.0821
 20
562.0536
 10
523.3777
 20
562.6273
 10
522.6268
 20
563.1329
 10
521.8268
 20
563.5752
 10
520.9752
 20
563.9587
 10
520.0694
 20
564.2883
 10
519.1066
 20
564.5686
 10
518.0843
 20
564.8042
 10
517.0
 20
565.0
 10
517.0
 20
557.0
 10
516.0
 20
557.0
 10
515.6068
 20
558.0222
 10
515.1685
 20
558.9603
 10
514.684
 20
559.8179
 10
514.1523
 20
560.5989
 10
513.5723
 20
561.3067
 10
512.9428
 20
561.9452
 10
512.2629
 20
562.5181
 10
511.5314
 20
563.0289
 10
510.7473
 20
563.4816
 10
509.9095
 20
563.8796
 10
509.0169
 20
564.2268
 10
508.0686
 20
564.5267
 10
507.0632
 20
564.7832
 10
506.0
 20
565.0
 10
506.0
 20
1112.0
 10
494.0
 20
1112.0
 10
494.0
 20
1108.0
 10
482.0
 20
1108.0
 10
486.0
 20
1111.0
 10
486.0
 20
1112.0
 10
445.0
 20
1111.985352
 10
421.0
 20
1112.603394
 10
405.0
 20
1126.0
 10
419.0
 20
1111.0
 10
400.0
 20
1111.0
 10
400.7872
 20
1111.8562
 10
401.4777
 20
1112.6892
 10
402.0728
 20
1113.497
 10
402.574
 20
1114.2776
 10
402.9829
 20
1115.0292
 10
403.3007
 20
1115.7498
 10
403.529
 20
1116.4375
 10
403.6693
 20
1117.0904
 10
403.723
 20
1117.7065
 10
403.6916
 20
1118.284
 10
403.5766
 20
1118.8208
 10
403.3793
 20
1119.3152
 10
403.1013
 20
1119.7652
 10
402.744
 20
1120.1688
 10
402.3089
 20
1120.5241
 10
401.7975
 20
1120.8293
 10
401.2112
 20
1121.0823
 10
400.5514
 20
1121.2813
 10
399.8197
 20
1121.4243
 10
399.0175
 20
1121.5095
 10
398.1462
 20
1121.5349
 10
397.2074
 20
1121.4985
 10
396.2024
 20
1121.3985
 10
395.1328
 20
1121.233
 10
394.0
 20
1121.0
 10
394.0988
 20
1122.1045
 10
394.1563
 20
1123.1545
 10
394.1725
 20
1124.1478
 10
394.1474
 20
1125.0821
 10
394.0808
 20
1125.9551
 10
393.9728
 20
1126.7644
 10
393.8233
 20
1127.5079
 10
393.6323
 20
1128.1831
 10
393.3998
 20
1128.7878
 10
393.1257
 20
1129.3196
 10
392.81
 20
1129.7764
 10
392.4526
 20
1130.1558
 10
392.0535
 20
1130.4555
 10
391.6128
 20
1130.6732
 10
391.1302
 20
1130.8066
 10
390.6059
 20
1130.8534
 10
390.0397
 20
1130.8114
 10
389.4316
 20
1130.6781
 10
388.7817
 20
1130.4515
 10
388.0898
 20
1130.129
 10
387.3559
 20
1129.7085
 10
386.58
 20
1129.1876
 10
385.7621
 20
1128.5641
 10
384.9021
 20
1127.8357
 10
384.0
 20
1127.0
 10
384.0
 20
1146.0
 10
399.0
 20
1132.0
 10
398.4218
 20
1132.8061
 10
397.8294
 20
1133.6042
 10
397.2232
 20
1134.3947
 10
396.6041
 20
1135.1777
 10
395.9726
 20
1135.9537
 10
395.3295
 20
1136.7228
 10
394.6754
 20
1137.4854
 10
394.011
 20
1138.2419
 10
393.3369
 20
1138.9924
 10
392.6539
 20
1139.7373
 10
391.9625
 20
1140.4768
 10
391.2635
 20
1141.2114
 10
390.5575
 20
1141.9412
 10
389.8451
 20
1142.6665
 10
389.1272
 20
1143.3878
 10
388.4042
 20
1144.1052
 10
387.6769
 20
1144.819
 10
386.946
 20
1145.5296
 10
386.2122
 20
1146.2373
 10
385.476
 20
1146.9423
 10
384.7382
 20
1147.6449
 10
383.9994
 20
1148.3455
 10
383.2603
 20
1149.0443
 10
382.5216
 20
1149.7417
 10
381.7839
 20
1150.4379
 10
381.0479
 20
1151.1332
 10
380.3143
 20
1151.8279
 10
379.5838
 20
1152.5223
 10
378.8569
 20
1153.2168
 10
378.1344
 20
1153.9115
 10
377.417
 20
1154.6069
 10
376.7053
 20
1155.3032
 10
376.0
 20
1156.0007
 10
375.4209
 20
1156.6007
 10
374.8017
 20
1157.2747
 10
374.1451
 20
1157.9986
 10
373.4537
 20
1158.7484
 10
372.7303
 20
1159.5
 10
371.9776
 20
1160.2294
 10
371.1984
 20
1160.9126
 10
370.3954
 20
1161.5255
 10
369.5714
 20
1162.044
 10
368.7289
 20
1162.4442
 10
367.8709
 20
1162.7019
 10
367.0
 20
1162.7932
 10
366.1291
 20
1162.7019
 10
365.2711
 20
1162.4442
 10
364.4286
 20
1162.044
 10
363.6045
 20
1161.5255
 10
362.8014
 20
1160.9126
 10
362.0221
 20
1160.2295
 10
361.2694
 20
1159.5001
 10
360.5459
 20
1158.7484
 10
359.8545
 20
1157.9986
 10
359.1979
 20
1157.2747
 10
358.5788
 20
1156.6007
 10
358.0
 20
1156.0007
 10
357.226
 20
1155.2048
 10
356.5008
 20
1154.4071
 10
355.823
 20
1153.6074
 10
355.1909
 20
1152.8052
 10
354.6031
 20
1152.0004
 10
354.0581
 20
1151.1926
 10
353.5542
 20
1150.3815
 10
353.0899
 20
1149.5669
 10
352.6638
 20
1148.7485
 10
352.2743
 20
1147.9259
 10
351.9198
 20
1147.099
 10
351.5988
 20
1146.2674
 10
351.3098
 20
1145.4308
 10
351.0513
 20
1144.589
 10
350.8217
 20
1143.7416
 10
350.6195
 20
1142.8885
 10
350.4431
 20
1142.0292
 10
350.291
 20
1141.1635
 10
350.1617
 20
1140.2911
 10
350.0537
 20
1139.4117
 10
349.9654
 20
1138.5251
 10
349.8953
 20
1137.631
 10
349.8418
 20
1136.729
 10
349.8035
 20
1135.8189
 10
349.7787
 20
1134.9005
 10
349.766
 20
1133.9733
 10
349.7638
 20
1133.0372
 10
349.7706
 20
1132.0918
 10
349.7849
 20
1131.1369
 10
349.805
 20
1130.1721
 10
349.8296
 20
1129.1972
 10
349.857
 20
1128.212
 10
349.8857
 20
1127.216
 10
349.9142
 20
1126.2091
 10
349.941
 20
1125.1909
 10
349.9645
 20
1124.1612
 10
349.9832
 20
1123.1197
 10
349.9955
 20
1122.066
 10
350.0
 20
1121.0
  0
LWPOLYLINE
  5
34
330
17
100
AcDbEntity
  8
0
100
AcDbPolyline
 90
46
 70
0
 10
351.0
 20
1148.0
 10
350.0
 20
1108.0
 10
350.8776
 20
1108.2821
 10
351.5713
 20
1108.6979
 10
352.1008
 20
1109.2317
 10
352.486
 20
1109.8679
 10
352.7466
 20
1110.5911
 10
352.9025
 20
1111.3856
 10
352.9734
 20
1112.2359
 10
352.9791
 20
1113.1265
 10
352.9394
 20
1114.0417
 10
352.874
 20
1114.9662
 10
352.8028
 20
1115.8842
 10
352.7456
 20
1116.7803
 10
352.7222
 20
1117.6389
 10
352.7219
 20
1118.6509
 10
352.7212
 20
1119.6628
 10
352.7202
 20
1120.6747
 10
352.7191
 20
1121.6866
 10
352.7178
 20
1122.6984
 10
352.7166
 20
1123.7102
 10
352.7156
 20
1124.722
 10
352.7148
 20
1125.7338
 10
352.7144
 20
1126.7455
 10
352.7145
 20
1127.7572
 10
352.7152
 20
1128.769
 10
352.7167
 20
1129.7807
 10
352.719
 20
1130.7925
 10
352.7222
 20
1131.8043
 10
352.7266
 20
1132.8161
 10
352.7321
 20
1133.8279
 10
352.739
 20
1134.8398
 10
352.7472
 20
1135.8517
 10
352.7571
 20
1136.8636
 10
352.7686
 20
1137.8756
 10
352.7818
 20
1138.8877
 10
352.7969
 20
1139.8998
 10
352.8141
 20
1140.912
 10
352.8334
 20
1141.9243
 10
352.8549
 20
1142.9367
 10
352.8787
 20
1143.9491
 10
352.905
 20
1144.9617
 10
352.9339
 20
1145.9743
 10
352.9655
 20
1146.9871
 10
353.0
 20
1148.0
 10
351.0
 20
1148.0
  0
LWPOLYLINE
  5
35
330
17
100
AcDbEntity
  8
0
100
AcDbPolyline
 90
1355
 70
0
 10
381.0
 20
1148.0
 10
381.0
 20
1125.0
 10
380.0
 20
1125.0
 10
380.0
 20
1132.0
 10
369.0
 20
1132.0
 10
369.0536
 20
1130.8404
 10
369.148
 20
1129.7998
 10
369.3051
 20
1128.8802
 10
369.5467
 20
1128.0836
 10
369.8949
 20
1127.412
 10
370.3715
 20
1126.8675
 10
370.9984
 20
1126.452
 10
371.7975
 20
1126.1675
 10
372.7907
 20
1126.0162
 10
374.0
 20
1126.0
 10
375.0
 20
1125.0
 10
374.0
 20
1121.0
 10
369.0
 20
1119.0
 10
374.0
 20
1120.0
 10
375.0
 20
1116.0
 10
369.0
 20
1116.0
 10
369.0
 20
1106.0
 10
365.0
 20
1106.0
 10
365.0
 20
1111.0
 10
355.0
 20
1111.0
 10
355.0
 20
1106.0
 10
339.0
 20
1111.0
 10
339.0
 20
1107.0
 10
325.0
 20
1102.0
 10
324.0
 20
1102.0
 10
324.0
 20
1106.0
 10
255.0
 20
1106.0
 10
255.0
 20
958.0
 10
330.0
 20
958.0
 10
330.6264
 20
958.0025
 10
331.3383
 20
958.0111
 10
332.1275
 20
958.0269
 10
332.9858
 20
958.0514
 10
333.9051
 20
958.0857
 10
334.8771
 20
958.1313
 10
335.8937
 20
958.1894
 10
336.9468
 20
958.2614
 10
338.0281
 20
958.3485
 10
339.1295
 20
958.4521
 10
340.2427
 20
958.5735
 10
341.3597
 20
958.7139
 10
342.4722
 20
958.8747
 10
343.5721
 20
959.0572
 10
344.6511
 20
959.2627
 10
345.7012
 20
959.4926
 10
346.7141
 20
959.748
 10
347.6816
 20
960.0304
 10
348.5956
 20
960.3411
 10
349.448
 20
960.6813
 10
350.2304
 20
961.0523
 10
350.9348
 20
961.4555
 10
351.553
 20
961.8922
 10
352.0768
 20
962.3637
 10
352.498
 20
962.8713
 10
352.8084
 20
963.4163
 10
353.0
 20
964.0
 10
354.0
 20
964.0
 10
355.0
 20
959.0
 10
344.0
 20
959.0
 10
344.0
 20
954.0
 10
356.0
 20
955.0
 10
356.0
 20
954.0
 10
354.0
 20
950.0
 10
353.0
 20
950.0
 10
352.4507
 20
950.5664
 10
351.835
 20
951.089
 10
351.1574
 20
951.5696
 10
350.422
 20
952.0098
 10
349.6333
 20
952.4114
 10
348.7956
 20
952.7762
 10
347.9133
 20
953.1058
 10
346.9906
 20
953.4021
 10
346.032
 20
953.6667
 10
345.0418
 20
953.9015
 10
344.0243
 20
954.1081
 10
342.9838
 20
954.2884
 10
341.9248
 20
954.4439
 10
340.8516
 20
954.5766
 10
339.7685
 20
954.688
 10
338.6798
 20
954.78
 10
337.5899
 20
954.8544
 10
336.5032
 20
954.9127
 10
335.424
 20
954.9569
 10
334.3566
 20
954.9886
 10
333.3054
 20
955.0096
 10
332.2748
 20
955.0215
 10
331.269
 20
955.0262
 10
330.2924
 20
955.0255
 10
329.3494
 20
955.0209
 10
328.4443
 20
955.0144
 10
327.5815
 20
955.0075
 10
326.7652
 20
955.0021
 10
326.0
 20
955.0
 10
255.0
 20
955.0
 10
255.0
 20
807.0
 10
326.0
 20
807.0
 10
326.7652
 20
806.9978
 10
327.5815
 20
806.9924
 10
328.4443
 20
806.9855
 10
329.3494
 20
806.979
 10
330.2924
 20
806.9744
 10
331.269
 20
806.9737
 10
332.2748
 20
806.9784
 10
333.3054
 20
806.9903
 10
334.3566
 20
807.0113
 10
335.424
 20
807.043
 10
336.5032
 20
807.0872
 10
337.5899
 20
807.1455
 10
338.6798
 20
807.2199
 10
339.7685
 20
807.3119
 10
340.8516
 20
807.4233
 10
341.9248
 20
807.556
 10
342.9838
 20
807.7115
 10
344.0243
 20
807.8918
 10
345.0418
 20
808.0984
 10
346.032
 20
808.3332
 10
346.9906
 20
808.5978
 10
347.9133
 20
808.8941
 10
348.7956
 20
809.2237
 10
349.6333
 20
809.5885
 10
350.422
 20
809.9901
 10
351.1574
 20
810.4303
 10
351.835
 20
810.9109
 10
352.4507
 20
811.4335
 10
353.0
 20
812.0
 10
354.0
 20
812.0
 10
356.0
 20
808.0
 10
356.0
 20
807.0
 10
344.0
 20
808.0
 10
344.0
 20
803.0
 10
355.0
 20
803.0
 10
354.0
 20
798.0
 10
353.0
 20
798.0
 10
353.0
 20
801.0
 10
336.985352
 20
803.980713
 10
255.0
 20
804.0
 10
255.0
 20
656.0
 10
330.0
 20
656.0
 10
330.6068
 20
655.9991
 10
331.3024
 20
655.9977
 10
332.0783
 20
655.9976
 10
332.9261
 20
656.0005
 10
333.8374
 20
656.0082
 10
334.8039
 20
656.0225
 10
335.8172
 20
656.0452
 10
336.8688
 20
656.078
 10
337.9505
 20
656.1228
 10
339.0538
 20
656.1813
 10
340.1704
 20
656.2553
 10
341.2918
 20
656.3466
 10
342.4098
 20
656.4569
 10
343.5158
 20
656.5881
 10
344.6016
 20
656.7419
 10
345.6588
 20
656.9201
 10
346.6789
 20
657.1245
 10
347.6536
 20
657.3568
 10
348.5745
 20
657.6189
 10
349.4333
 20
657.9125
 10
350.2215
 20
658.2394
 10
350.9308
 20
658.6014
 10
351.5527
 20
659.0003
 10
352.079
 20
659.4378
 10
352.5012
 20
659.9157
 10
352.811
 20
660.4358
 10
353.0
 20
661.0
 10
354.0
 20
661.0
 10
356.0
 20
657.0
 10
356.0
 20
656.0
 10
344.0
 20
657.0
 10
344.0
 20
651.0
 10
355.0
 20
652.0
 10
354.0
 20
647.0
 10
353.0
 20
647.0
 10
353.0
 20
650.0
 10
342.0
 20
650.0
 10
342.0
 20
653.0
 10
249.0
 20
653.0
 10
249.0
 20
577.0
 10
327.0
 20
577.0
 10
327.5965
 20
576.9904
 10
328.281
 20
576.9636
 10
329.0455
 20
576.9226
 10
329.8822
 20
576.8704
 10
330.783
 20
576.81
 10
331.7401
 20
576.7443
 10
332.7455
 20
576.6763
 10
333.7914
 20
576.609
 10
334.8698
 20
576.5454
 10
335.9727
 20
576.4884
 10
337.0923
 20
576.4411
 10
338.2207
 20
576.4065
 10
339.3499
 20
576.3874
 10
340.4719
 20
576.3869
 10
341.579
 20
576.4079
 10
342.6631
 20
576.4535
 10
343.7164
 20
576.5266
 10
344.7308
 20
576.6303
 10
345.6986
 20
576.7674
 10
346.6117
 20
576.941
 10
347.4623
 20
577.154
 10
348.2425
 20
577.4094
 10
348.9442
 20
577.7103
 10
349.5597
 20
578.0595
 10
350.0809
 20
578.4601
 10
350.4999
 20
578.9151
 10
350.8089
 20
579.4274
 10
351.0
 20
580.0
 10
352.0
 20
580.0
 10
353.0
 20
576.0
 10
235.0
 20
576.0
 10
235.0
 20
581.0
 10
230.0
 20
584.0
 10
230.0
 20
573.0
 10
263.0
 20
575.0
 10
263.0
 20
574.0
 10
230.0
 20
572.0
 10
230.0
 20
532.0
 10
244.0
 20
532.0
 10
244.0
 20
531.0
 10
233.0
 20
531.0
 10
233.0
 20
529.0
 10
247.0
 20
530.0
 10
236.0
 20
528.0
 10
233.0
 20
522.0
 10
233.0
 20
521.0
 10
233.6204
 20
520.9893
 10
234.3286
 20
520.9597
 10
235.1158
 20
520.9148
 10
235.9734
 20
520.8583
 10
236.8926
 20
520.7937
 10
237.8647
 20
520.7247
 10
238.881
 20
520.655
 10
239.9328
 20
520.588
 10
241.0114
 20
520.5275
 10
242.108
 20
520.4771
 10
243.214
 20
520.4404
 10
244.3206
 20
520.4211
 10
245.4191
 20
520.4227
 10
246.5009
 20
520.4489
 10
247.5571
 20
520.5032
 10
248.5791
 20
520.5895
 10
249.5581
 20
520.7112
 10
250.4856
 20
520.8719
 10
251.3526
 20
521.0754
 10
252.1506
 20
521.3252
 10
252.8708
 20
521.6249
 10
253.5045
 20
521.9783
 10
254.0429
 20
522.3888
 10
254.4775
 20
522.8602
 10
254.7994
 20
523.396
 10
255.0
 20
524.0
 10
256.0
 20
524.0
 10
256.0
 20
520.0
 10
255.2777
 20
520.0095
 10
254.5017
 20
520.0362
 10
253.6766
 20
520.0772
 10
252.807
 20
520.1299
 10
251.8974
 20
520.1912
 10
250.9524
 20
520.2586
 10
249.9767
 20
520.3291
 10
248.9748
 20
520.3999
 10
247.9513
 20
520.4683
 10
246.9107
 20
520.5314
 10
245.8577
 20
520.5865
 10
244.7968
 20
520.6306
 10
243.7327
 20
520.6611
 10
242.6698
 20
520.6751
 10
241.6129
 20
520.6698
 10
240.5664
 20
520.6425
 10
239.5349
 20
520.5902
 10
238.5231
 20
520.5102
 10
237.5355
 20
520.3997
 10
236.5767
 20
520.2559
 10
235.6513
 20
520.076
 10
234.7639
 20
519.8572
 10
233.919
 20
519.5966
 10
233.1213
 20
519.2915
 10
232.3752
 20
518.9391
 10
231.6855
 20
518.5365
 10
231.0567
 20
518.081
 10
230.4933
 20
517.5698
 10
230.0
 20
517.0
 10
230.6818
 20
516.9904
 10
231.4298
 20
516.9635
 10
232.2388
 20
516.9216
 10
233.1035
 20
516.8672
 10
234.0186
 20
516.8026
 10
234.9791
 20
516.7304
 10
235.9795
 20
516.6529
 10
237.0148
 20
516.5725
 10
238.0796
 20
516.4918
 10
239.1687
 20
516.413
 10
240.2769
 20
516.3387
 10
241.399
 20
516.2713
 10
242.5297
 20
516.2131
 10
243.6638
 20
516.1667
 10
244.796
 20
516.1345
 10
245.9212
 20
516.1188
 10
247.0341
 20
516.1221
 10
248.1294
 20
516.1469
 10
249.2019
 20
516.1956
 10
250.2464
 20
516.2705
 10
251.2577
 20
516.3742
 10
252.2305
 20
516.509
 10
253.1597
 20
516.6773
 10
254.0398
 20
516.8817
 10
254.8658
 20
517.1245
 10
255.6324
 20
517.4082
 10
256.3343
 20
517.7351
 10
256.9664
 20
518.1078
 10
257.5233
 20
518.5286
 10
258.0
 20
519.0
 10
259.0
 20
519.0
 10
258.5835
 20
518.4471
 10
258.0891
 20
517.9469
 10
257.5215
 20
517.497
 10
256.8852
 20
517.0952
 10
256.1849
 20
516.739
 10
255.4251
 20
516.4262
 10
254.6107
 20
516.1546
 10
253.7461
 20
515.9217
 10
252.836
 20
515.7254
 10
251.885
 20
515.5633
 10
250.8978
 20
515.4331
 10
249.879
 20
515.3325
 10
248.8333
 20
515.2593
 10
247.7652
 20
515.211
 10
246.6794
 20
515.1855
 10
245.5805
 20
515.1804
 10
244.4732
 20
515.1934
 10
243.362
 20
515.2223
 10
242.2517
 20
515.2647
 10
241.1469
 20
515.3183
 10
240.0521
 20
515.3808
 10
238.9721
 20
515.4499
 10
237.9114
 20
515.5234
 10
236.8746
 20
515.5989
 10
235.8665
 20
515.6741
 10
234.8917
 20
515.7468
 10
233.9547
 20
515.8145
 10
233.0602
 20
515.8752
 10
232.2128
 20
515.9263
 10
231.4173
 20
515.9657
 10
230.6781
 20
515.991
 10
230.0
 20
516.0
 10
230.0
 20
495.0
 10
320.0
 20
495.0
 10
320.0
 20
506.0
 10
334.0
 20
506.0
 10
336.0
 20
494.0
 10
336.0
 20
493.0
 10
335.1974
 20
493.6041
 10
334.5449
 20
494.2684
 10
334.0277
 20
494.9875
 10
333.6306
 20
495.756
 10
333.3388
 20
496.5684
 10
333.1374
 20
497.4194
 10
333.0113
 20
498.3035
 10
332.9456
 20
499.2152
 10
332.9254
 20
500.1493
 10
332.9356
 20
501.1002
 10
332.9615
 20
502.0626
 10
332.9879
 20
503.031
 10
333.0
 20
504.0
 10
322.0
 20
504.0
 10
322.0
 20
493.0
 10
305.0
 20
492.0
 10
305.0
 20
488.0
 10
304.0
 20
488.0
 10
303.7679
 20
489.0381
 10
303.4487
 20
489.9257
 10
303.0478
 20
490.6742
 10
302.571
 20
491.2952
 10
302.024
 20
491.8001
 10
301.4125
 20
492.2007
 10
300.7421
 20
492.5083
 10
300.0186
 20
492.7345
 10
299.2476
 20
492.8909
 10
298.4349
 20
492.989
 10
297.5861
 20
493.0404
 10
296.7069
 20
493.0565
 10
295.803
 20
493.049
 10
294.8801
 20
493.0294
 10
293.9438
 20
493.0092
 10
293.0
 20
493.0
 10
260.0
 20
493.0
 10
260.0
 20
492.0
 10
271.0
 20
490.0
 10
230.0
 20
493.0
 10
230.0
 20
456.0
 10
233.0
 20
456.0
 10
233.0
 20
452.0
 10
258.0
 20
450.0
 10
258.0
 20
482.0
 10
263.0
 20
482.0
 10
263.0
 20
481.0
 10
260.0
 20
481.0
 10
260.0
 20
450.0
 10
288.0
 20
450.0
 10
288.064
 20
450.9101
 10
288.1941
 20
451.8065
 10
288.3868
 20
452.6893
 10
288.6391
 20
453.5588
 10
288.9475
 20
454.4152
 10
289.3088
 20
455.259
 10
289.7198
 20
456.0902
 10
290.1772
 20
456.9093
 10
290.6777
 20
457.7164
 10
291.2181
 20
458.5118
 10
291.7951
 20
459.2959
 10
292.4055
 20
460.0688
 10
293.046
 20
460.8309
 10
293.7133
 20
461.5823
 10
294.4041
 20
462.3235
 10
295.1152
 20
463.0546
 10
295.8434
 20
463.776
 10
296.5854
 20
464.4878
 10
297.3379
 20
465.1904
 10
298.0976
 20
465.8841
 10
298.8613
 20
466.569
 10
299.6257
 20
467.2456
 10
300.3876
 20
467.914
 10
301.1437
 20
468.5745
 10
301.8908
 20
469.2273
 10
302.6255
 20
469.8729
 10
303.3446
 20
470.5114
 10
304.0449
 20
471.143
 10
304.723
 20
471.7682
 10
305.3758
 20
472.3871
 10
306.0
 20
473.0
 10
306.5417
 20
473.5171
 10
307.1759
 20
474.09
 10
307.8738
 20
474.7115
 10
308.6064
 20
475.3743
 10
309.345
 20
476.0711
 10
310.0605
 20
476.7947
 10
310.7242
 20
477.5378
 10
311.3072
 20
478.2932
 10
311.7805
 20
479.0536
 10
312.1153
 20
479.8117
 10
312.2827
 20
480.5603
 10
312.2539
 20
481.2921
 10
312.0
 20
482.0
 10
312.0
 20
483.0
 10
316.0
 20
483.0
 10
315.4445
 20
482.2296
 10
314.8745
 20
481.4737
 10
314.2909
 20
480.7313
 10
313.6948
 20
480.0018
 10
313.0871
 20
479.2844
 10
312.469
 20
478.5783
 10
311.8413
 20
477.8827
 10
311.2051
 20
477.1968
 10
310.5613
 20
476.52
 10
309.911
 20
475.8513
 10
309.2553
 20
475.1901
 10
308.595
 20
474.5356
 10
307.9312
 20
473.8871
 10
307.2648
 20
473.2436
 10
306.597
 20
472.6045
 10
305.9287
 20
471.9691
 10
305.2609
 20
471.3364
 10
304.5946
 20
470.7058
 10
303.9308
 20
470.0766
 10
303.2705
 20
469.4478
 10
302.6148
 20
468.8188
 10
301.9645
 20
468.1888
 10
301.3208
 20
467.557
 10
300.6846
 20
466.9226
 10
300.0569
 20
466.285
 10
299.4388
 20
465.6432
 10
298.8312
 20
464.9966
 10
298.2351
 20
464.3443
 10
297.6516
 20
463.6857
 10
297.0817
 20
463.0198
 10
296.5262
 20
462.3461
 10
295.9864
 20
461.6636
 10
295.4631
 20
460.9716
 10
294.9573
 20
460.2694
 10
294.4701
 20
459.5562
 10
294.0025
 20
458.8312
 10
293.5554
 20
458.0936
 10
293.1299
 20
457.3427
 10
292.727
 20
456.5777
 10
292.3477
 20
455.7979
 10
291.9929
 20
455.0024
 10
291.6638
 20
454.1905
 10
291.3612
 20
453.3614
 10
291.0862
 20
452.5144
 10
290.8398
 20
451.6487
 10
290.623
 20
450.7635
 10
290.4368
 20
449.858
 10
290.2822
 20
448.9315
 10
290.1602
 20
447.9832
 10
290.0719
 20
447.0124
 10
290.0181
 20
446.0182
 10
290.0
 20
445.0
 10
284.0
 20
445.0
 10
284.0
 20
428.0
 10
283.0
 20
428.0
 10
283.0
 20
437.0
 10
281.0
 20
437.0
 10
283.0
 20
428.0
 10
280.0
 20
415.0
 10
276.0
 20
415.0
 10
276.0
 20
404.0
 10
280.0
 20
404.0
 10
280.0
 20
400.0
 10
296.0
 20
400.0
 10
296.0
 20
394.0
 10
295.0
 20
394.0
 10
295.0
 20
398.0
 10
260.0
 20
398.0
 10
264.0
 20
394.0
 10
262.0
 20
390.0
 10
258.0
 20
390.0
 10
258.0
 20
389.0
 10
262.0
 20
389.0
 10
262.0
 20
385.0
 10
261.0
 20
385.0
 10
260.0
 20
387.0
 10
246.0
 20
386.0
 10
248.0
 20
389.0
 10
253.0
 20
388.0
 10
253.0
 20
395.0
 10
254.0
 20
395.0
 10
256.0
 20
389.0
 10
255.0
 20
394.0
 10
258.0
 20
398.0
 10
237.0
 20
398.0
 10
239.0
 20
386.0
 10
240.0
 20
386.0
 10
240.0
 20
389.0
 10
246.0
 20
389.0
 10
245.3689
 20
388.0663
 10
244.7206
 20
387.292
 10
244.0484
 20
386.6618
 10
243.3455
 20
386.1608
 10
242.6052
 20
385.7738
 10
241.8207
 20
385.4857
 10
240.9853
 20
385.2814
 10
240.0922
 20
385.1458
 10
239.1348
 20
385.0638
 10
238.1063
 20
385.0202
 10
237.0
 20
385.0
 10
237.0
 20
381.0
 10
258.0
 20
381.0
 10
258.0
 20
384.0
 10
258.8639
 20
383.9786
 10
259.7807
 20
383.9257
 10
260.7339
 20
383.8584
 10
261.7075
 20
383.7934
 10
262.6852
 20
383.7477
 10
263.6508
 20
383.7383
 10
264.5883
 20
383.7821
 10
265.4813
 20
383.896
 10
266.3137
 20
384.097
 10
267.0693
 20
384.4019
 10
267.7319
 20
384.8277
 10
268.2854
 20
385.3914
 10
268.7134
 20
386.1098
 10
269.0
 20
387.0
 10
270.0
 20
387.0
 10
270.0
 20
383.0
 10
260.0
 20
383.0
 10
260.0
 20
381.0
 10
296.0
 20
381.0
 10
296.0
 20
375.0
 10
295.0
 20
375.0
 10
295.0
 20
379.0
 10
237.0
 20
379.0
 10
237.0
 20
310.0
 10
359.0
 20
310.0
 10
359.0
 20
309.0
 10
236.0
 20
309.0
 10
236.0
 20
385.0
 10
235.0
 20
385.0
 10
235.0
 20
380.0
 10
230.0
 20
383.0
 10
230.0
 20
373.0
 10
235.0
 20
376.0
 10
235.0
 20
307.0
 10
319.0
 20
307.0
 10
358.286285
 20
307.61499
 10
384.0
 20
321.799377
 10
430.0
 20
348.0
 10
437.0
 20
343.0
 10
435.0
 20
341.0
 10
487.0
 20
289.0
 10
487.6117
 20
288.3784
 10
488.2308
 20
287.7316
 10
488.8571
 20
287.0618
 10
489.4906
 20
286.3716
 10
490.1314
 20
285.6632
 10
490.7794
 20
284.9389
 10
491.4346
 20
284.2012
 10
492.0971
 20
283.4523
 10
492.7667
 20
282.6947
 10
493.4437
 20
281.9307
 10
494.1278
 20
281.1626
 10
494.8191
 20
280.3928
 10
495.5177
 20
279.6236
 10
496.2235
 20
278.8574
 10
496.9365
 20
278.0966
 10
497.6567
 20
277.3435
 10
498.3841
 20
276.6005
 10
499.1187
 20
275.8698
 10
499.8605
 20
275.154
 10
500.6095
 20
274.4552
 10
501.3657
 20
273.7759
 10
502.129
 20
273.1185
 10
502.8996
 20
272.4852
 10
503.6774
 20
271.8784
 10
504.4623
 20
271.3006
 10
505.2544
 20
270.7539
 10
506.0537
 20
270.2409
 10
506.8601
 20
269.7638
 10
507.6738
 20
269.325
 10
508.4946
 20
268.9269
 10
509.3225
 20
268.5718
 10
510.1577
 20
268.262
 10
511.0
 20
268.0
 10
511.1895
 20
267.1238
 10
511.4539
 20
266.2584
 10
511.788
 20
265.4039
 10
512.1868
 20
264.5602
 10
512.6452
 20
263.7275
 10
513.1583
 20
262.9056
 10
513.721
 20
262.0946
 10
514.3283
 20
261.2946
 10
514.9751
 20
260.5056
 10
515.6564
 20
259.7275
 10
516.3671
 20
258.9605
 10
517.1024
 20
258.2044
 10
517.857
 20
257.4594
 10
518.626
 20
256.7255
 10
519.4044
 20
256.0027
 10
520.187
 20
255.291
 10
520.969
 20
254.5904
 10
521.7452
 20
253.901
 10
522.5106
 20
253.2228
 10
523.2602
 20
252.5557
 10
523.989
 20
251.8999
 10
524.6919
 20
251.2553
 10
525.3639
 20
250.622
 10
526.0
 20
250.0
 10
526.6816
 20
249.3153
 10
527.3627
 20
248.6253
 10
528.0435
 20
247.9302
 10
528.7239
 20
247.2302
 10
529.4041
 20
246.5257
 10
530.0842
 20
245.8169
 10
530.7642
 20
245.1041
 10
531.4441
 20
244.3875
 10
532.1242
 20
243.6674
 10
532.8044
 20
242.944
 10
533.4849
 20
242.2176
 10
534.1657
 20
241.4885
 10
534.8468
 20
240.757
 10
535.5285
 20
240.0233
 10
536.2108
 20
239.2876
 10
536.8936
 20
238.5502
 10
537.5772
 20
237.8115
 10
538.2616
 20
237.0716
 10
538.9469
 20
236.3308
 10
539.6332
 20
235.5895
 10
540.3205
 20
234.8477
 10
541.0089
 20
234.1059
 10
541.6985
 20
233.3642
 10
542.3894
 20
232.623
 10
543.0816
 20
231.8825
 10
543.7754
 20
231.1429
 10
544.4706
 20
230.4046
 10
545.1674
 20
229.6677
 10
545.8659
 20
228.9326
 10
546.5662
 20
228.1996
 10
547.2683
 20
227.4688
 10
547.9723
 20
226.7405
 10
548.6784
 20
226.015
 10
549.3865
 20
225.2927
 10
550.0968
 20
224.5736
 10
550.8093
 20
223.8581
 10
551.5241
 20
223.1465
 10
552.2414
 20
222.439
 10
552.9611
 20
221.7359
 10
553.6834
 20
221.0375
 10
554.4083
 20
220.344
 10
555.136
 20
219.6556
 10
555.8664
 20
218.9727
 10
556.5998
 20
218.2954
 10
557.3361
 20
217.6242
 10
558.0754
 20
216.9591
 10
558.8179
 20
216.3006
 10
559.5635
 20
215.6488
 10
560.3125
 20
215.004
 10
561.0648
 20
214.3665
 10
561.8205
 20
213.7365
 10
562.5798
 20
213.1144
 10
563.3427
 20
212.5003
 10
564.1092
 20
211.8945
 10
564.8795
 20
211.2974
 10
565.6537
 20
210.7091
 10
566.4317
 20
210.1299
 10
567.2138
 20
209.5601
 10
568.0
 20
209.0
 10
571.0
 20
214.0
 10
570.0
 20
206.0
 10
570.617
 20
206.6675
 10
571.229
 20
207.3511
 10
571.8357
 20
208.0502
 10
572.437
 20
208.7644
 10
573.0325
 20
209.4934
 10
573.622
 20
210.2366
 10
574.2053
 20
210.9935
 10
574.782
 20
211.7639
 10
575.3521
 20
212.5471
 10
575.9151
 20
213.3428
 10
576.4709
 20
214.1506
 10
577.0193
 20
214.9699
 10
577.5599
 20
215.8004
 10
578.0925
 20
216.6416
 10
578.6168
 20
217.4931
 10
579.1327
 20
218.3543
 10
579.6399
 20
219.225
 10
580.1381
 20
220.1046
 10
580.6271
 20
220.9927
 10
581.1066
 20
221.8889
 10
581.5764
 20
222.7927
 10
582.0362
 20
223.7036
 10
582.4858
 20
224.6213
 10
582.9249
 20
225.5453
 10
583.3533
 20
226.4751
 10
583.7708
 20
227.4104
 10
584.177
 20
228.3506
 10
584.5718
 20
229.2953
 10
584.9548
 20
230.2441
 10
585.326
 20
231.1966
 10
585.6849
 20
232.1522
 10
586.0313
 20
233.1107
 10
586.3651
 20
234.0714
 10
586.6859
 20
235.034
 10
586.9935
 20
235.998
 10
587.2877
 20
236.9631
 10
587.5681
 20
237.9287
 10
587.8346
 20
238.8944
 10
588.087
 20
239.8597
 10
588.3249
 20
240.8243
 10
588.5481
 20
241.7877
 10
588.7563
 20
242.7494
 10
588.9494
 20
243.709
 10
589.127
 20
244.6661
 10
589.289
 20
245.6202
 10
589.435
 20
246.5708
 10
589.5649
 20
247.5177
 10
589.6783
 20
248.4601
 10
589.775
 20
249.3979
 10
589.8549
 20
250.3305
 10
589.9175
 20
251.2574
 10
589.9627
 20
252.1782
 10
589.9903
 20
253.0926
 10
590.0
 20
254.0
 10
587.0
 20
254.0
 10
586.0
 20
237.0
 10
585.0
 20
237.0
 10
586.0
 20
311.0
 10
579.0
 20
311.0
 10
579.0
 20
322.0
 10
581.0
 20
313.0
 10
586.0
 20
313.0
 10
586.0
 20
360.0
 10
556.0
 20
360.0
 10
555.9708
 20
360.7692
 10
555.9512
 20
361.6241
 10
555.9342
 20
362.5489
 10
555.9127
 20
363.5278
 10
555.8795
 20
364.545
 10
555.8277
 20
365.5848
 10
555.7502
 20
366.6314
 10
555.6397
 20
367.669
 10
555.4894
 20
368.6818
 10
555.2921
 20
369.654
 10
555.0406
 20
370.57
 10
554.7281
 20
371.4139
 10
554.3472
 20
372.1699
 10
553.8911
 20
372.8223
 10
553.3525
 20
373.3553
 10
552.7245
 20
373.7531
 10
552.0
 20
374.0
 10
552.0
 20
375.0
 10
557.0
 20
375.0
 10
557.0
 20
365.0
 10
560.0
 20
365.0
 10
560.0
 20
379.0
 10
539.0
 20
379.0
 10
539.0
 20
405.0
 10
540.0
 20
405.0
 10
540.0
 20
380.0
 10
561.0
 20
380.0
 10
561.0
 20
364.0
 10
557.0
 20
364.0
 10
557.0
 20
362.0
 10
589.0
 20
362.0
 10
589.0
 20
255.0
 10
590.0
 20
255.0
 10
590.0
 20
364.0
 10
563.0
 20
364.0
 10
563.0
 20
382.0
 10
541.0
 20
382.0
 10
541.0062
 20
383.0208
 10
541.0246
 20
384.0378
 10
541.055
 20
385.0512
 10
541.097
 20
386.0611
 10
541.1504
 20
387.0675
 10
541.2149
 20
388.0706
 10
541.2902
 20
389.0704
 10
541.376
 20
390.0671
 10
541.472
 20
391.0607
 10
541.578
 20
392.0514
 10
541.6936
 20
393.0393
 10
541.8185
 20
394.0244
 10
541.9526
 20
395.0069
 10
542.0954
 20
395.9869
 10
542.2467
 20
396.9645
 10
542.4062
 20
397.9397
 10
542.5736
 20
398.9127
 10
542.7487
 20
399.8836
 10
542.9311
 20
400.8525
 10
543.1206
 20
401.8195
 10
543.3169
 20
402.7846
 10
543.5196
 20
403.7481
 10
543.7285
 20
404.7099
 10
543.9434
 20
405.6703
 10
544.1638
 20
406.6292
 10
544.3896
 20
407.5868
 10
544.6205
 20
408.5433
 10
544.8561
 20
409.4986
 10
545.0962
 20
410.453
 10
545.3405
 20
411.4064
 10
545.5886
 20
412.3591
 10
545.8404
 20
413.3111
 10
546.0955
 20
414.2625
 10
546.3537
 20
415.2134
 10
546.6146
 20
416.1639
 10
546.8779
 20
417.1141
 10
547.1435
 20
418.0642
 10
547.4109
 20
419.0142
 10
547.6799
 20
419.9642
 10
547.9503
 20
420.9144
 10
548.2216
 20
421.8648
 10
548.4937
 20
422.8155
 10
548.7663
 20
423.7667
 10
549.039
 20
424.7184
 10
549.3116
 20
425.6707
 10
549.5838
 20
426.6238
 10
549.8553
 20
427.5777
 10
550.1258
 20
428.5326
 10
550.395
 20
429.4886
 10
550.6627
 20
430.4456
 10
550.9285
 20
431.404
 10
551.1922
 20
432.3637
 10
551.4535
 20
433.3248
 10
551.7121
 20
434.2875
 10
551.9676
 20
435.2519
 10
552.2199
 20
436.2181
 10
552.4686
 20
437.1861
 10
552.7135
 20
438.1561
 10
552.9542
 20
439.1281
 10
553.1905
 20
440.1024
 10
553.4221
 20
441.0789
 10
553.6486
 20
442.0577
 10
553.8699
 20
443.0391
 10
554.0855
 20
444.0231
 10
554.2954
 20
445.0097
 10
554.499
 20
445.9991
 10
554.6962
 20
446.9914
 10
554.8867
 20
447.9868
 10
555.0702
 20
448.9852
 10
555.2463
 20
449.9868
 10
555.4149
 20
450.9917
 10
555.5756
 20
452.0
 10
555.7261
 20
452.9892
 10
555.8708
 20
453.9786
 10
556.0097
 20
454.9681
 10
556.1428
 20
455.9578
 10
556.2702
 20
456.9474
 10
556.3918
 20
457.9372
 10
556.5077
 20
458.927
 10
556.6179
 20
459.9169
 10
556.7225
 20
460.9068
 10
556.8213
 20
461.8966
 10
556.9145
 20
462.8865
 10
557.0021
 20
463.8764
 10
557.0841
 20
464.8663
 10
557.1605
 20
465.8561
 10
557.2313
 20
466.8459
 10
557.2965
 20
467.8356
 10
557.3562
 20
468.8252
 10
557.4104
 20
469.8147
 10
557.459
 20
470.8041
 10
557.5022
 20
471.7934
 10
557.5399
 20
472.7826
 10
557.5722
 20
473.7716
 10
557.599
 20
474.7604
 10
557.6204
 20
475.7491
 10
557.6364
 20
476.7376
 10
557.647
 20
477.7258
 10
557.6523
 20
478.7139
 10
557.6522
 20
479.7017
 10
557.6467
 20
480.6893
 10
557.636
 20
481.6766
 10
557.62
 20
482.6637
 10
557.5987
 20
483.6505
 10
557.5721
 20
484.6369
 10
557.5403
 20
485.6231
 10
557.5033
 20
486.6089
 10
557.4611
 20
487.5944
 10
557.4137
 20
488.5796
 10
557.3611
 20
489.5644
 10
557.3034
 20
490.5488
 10
557.2405
 20
491.5328
 10
557.1726
 20
492.5164
 10
557.0995
 20
493.4996
 10
557.0214
 20
494.4823
 10
556.9382
 20
495.4646
 10
556.8499
 20
496.4465
 10
556.7566
 20
497.4278
 10
556.6584
 20
498.4087
 10
556.5551
 20
499.3891
 10
556.4468
 20
500.3689
 10
556.3336
 20
501.3483
 10
556.2155
 20
502.3271
 10
556.0925
 20
503.3053
 10
555.9645
 20
504.283
 10
555.8317
 20
505.26
 10
555.694
 20
506.2365
 10
555.5514
 20
507.2124
 10
555.404
 20
508.1876
 10
555.2519
 20
509.1623
 10
555.0949
 20
510.1362
 10
554.9331
 20
511.1095
 10
554.7666
 20
512.0821
 10
554.5953
 20
513.0541
 10
554.4194
 20
514.0253
 10
554.2387
 20
514.9958
 10
554.0533
 20
515.9656
 10
553.8633
 20
516.9346
 10
553.6686
 20
517.9028
 10
553.4693
 20
518.8703
 10
553.2653
 20
519.837
 10
553.0568
 20
520.803
 10
552.8437
 20
521.768
 10
552.626
 20
522.7323
 10
552.4038
 20
523.6957
 10
552.177
 20
524.6583
 10
551.9458
 20
525.62
 10
551.71
 20
526.5808
 10
551.4698
 20
527.5407
 10
551.2251
 20
528.4997
 10
550.976
 20
529.4578
 10
550.7225
 20
530.415
 10
550.4645
 20
531.3712
 10
550.2022
 20
532.3264
 10
549.9355
 20
533.2807
 10
549.6645
 20
534.234
 10
549.3891
 20
535.1863
 10
549.1095
 20
536.1375
 10
548.8255
 20
537.0877
 10
548.5372
 20
538.0369
 10
548.2447
 20
538.985
 10
547.948
 20
539.9321
 10
547.647
 20
540.878
 10
547.3418
 20
541.8229
 10
547.0325
 20
542.7667
 10
546.7189
 20
543.7093
 10
546.4013
 20
544.6508
 10
546.0794
 20
545.5911
 10
545.7535
 20
546.5303
 10
545.4235
 20
547.4682
 10
545.0893
 20
548.405
 10
544.7512
 20
549.3406
 10
544.4089
 20
550.275
 10
544.0627
 20
551.2081
 10
543.7124
 20
552.14
 10
543.3582
 20
553.0706
 10
543.0
 20
554.0
 10
542.0
 20
554.0
 10
542.0
 20
551.0
 10
541.0
 20
551.0
 10
537.0
 20
564.0
 10
535.9783
 20
563.6608
 10
535.0246
 20
563.2833
 10
534.137
 20
562.8654
 10
533.3139
 20
562.4052
 10
532.5534
 20
561.9008
 10
531.8537
 20
561.3502
 10
531.213
 20
560.7516
 10
530.6297
 20
560.103
 10
530.1018
 20
559.4024
 10
529.6276
 20
558.6479
 10
529.2053
 20
557.8376
 10
528.8332
 20
556.9696
 10
528.5095
 20
556.042
 10
528.2323
 20
555.0527
 10
528.0
 20
554.0
 10
527.0
 20
554.0
 10
526.8423
 20
555.114
 10
526.6259
 20
556.1514
 10
526.3496
 20
557.1151
 10
526.0124
 20
558.008
 10
525.6135
 20
558.833
 10
525.1516
 20
559.5931
 10
524.6259
 20
560.2913
 10
524.0353
 20
560.9305
 10
523.3789
 20
561.5136
 10
522.6555
 20
562.0436
 10
521.8642
 20
562.5234
 10
521.0041
 20
562.956
 10
520.074
 20
563.3443
 10
519.0729
 20
563.6913
 10
518.0
 20
564.0
 10
518.0
 20
554.0
 10
507.0
 20
564.0
 10
506.0
 20
493.0
 10
402.0
 20
493.0
 10
402.0
 20
492.0
 10
415.0
 20
490.0
 10
398.0
 20
493.0
 10
402.0
 20
506.0
 10
402.0
 20
495.0
 10
504.0
 20
495.0
 10
504.0
 20
516.0
 10
503.3218
 20
515.991
 10
502.5826
 20
515.9657
 10
501.7871
 20
515.9263
 10
500.9397
 20
515.8752
 10
500.0452
 20
515.8145
 10
499.1082
 20
515.7467
 10
498.1334
 20
515.6741
 10
497.1253
 20
515.5989
 10
496.0885
 20
515.5234
 10
495.0278
 20
515.4499
 10
493.9478
 20
515.3807
 10
492.853
 20
515.3182
 10
491.7481
 20
515.2646
 10
490.6378
 20
515.2223
 10
489.5267
 20
515.1934
 10
488.4194
 20
515.1804
 10
487.3205
 20
515.1855
 10
486.2347
 20
515.211
 10
485.1666
 20
515.2592
 10
484.1208
 20
515.3325
 10
483.1021
 20
515.4331
 10
482.1149
 20
515.5633
 10
481.1639
 20
515.7254
 10
480.2538
 20
515.9217
 10
479.3892
 20
516.1545
 10
478.5747
 20
516.4262
 10
477.815
 20
516.739
 10
477.1147
 20
517.0951
 10
476.4784
 20
517.497
 10
475.9107
 20
517.9469
 10
475.4164
 20
518.4471
 10
475.0
 20
519.0
 10
476.0
 20
519.0
 10
476.4766
 20
518.5286
 10
477.0335
 20
518.1078
 10
477.6656
 20
517.7351
 10
478.3675
 20
517.4082
 10
479.1341
 20
517.1245
 10
479.96
 20
516.8817
 10
480.8402
 20
516.6773
 10
481.7693
 20
516.509
 10
482.7421
 20
516.3742
 10
483.7534
 20
516.2705
 10
484.7979
 20
516.1956
 10
485.8705
 20
516.1469
 10
486.9658
 20
516.1221
 10
488.0787
 20
516.1188
 10
489.2038
 20
516.1345
 10
490.3361
 20
516.1667
 10
491.4702
 20
516.2131
 10
492.6009
 20
516.2713
 10
493.7229
 20
516.3387
 10
494.8312
 20
516.413
 10
495.9203
 20
516.4918
 10
496.9851
 20
516.5725
 10
498.0203
 20
516.6529
 10
499.0208
 20
516.7304
 10
499.9813
 20
516.8026
 10
500.8964
 20
516.8672
 10
501.7611
 20
516.9216
 10
502.5701
 20
516.9635
 10
503.3181
 20
516.9904
 10
504.0
 20
517.0
 10
503.5018
 20
517.5912
 10
502.9666
 20
518.1096
 10
502.3966
 20
518.5592
 10
501.794
 20
518.9444
 10
501.1609
 20
519.2692
 10
500.4996
 20
519.538
 10
499.8122
 20
519.7549
 10
499.1011
 20
519.9241
 10
498.3683
 20
520.0499
 10
497.6161
 20
520.1364
 10
496.8466
 20
520.1879
 10
496.0621
 20
520.2085
 10
495.2648
 20
520.2024
 10
494.4569
 20
520.1739
 10
493.6405
 20
520.1272
 10
492.8179
 20
520.0665
 10
491.9913
 20
519.9959
 10
491.1628
 20
519.9198
 10
490.3347
 20
519.8422
 10
489.5092
 20
519.7674
 10
488.6884
 20
519.6996
 10
487.8746
 20
519.6431
 10
487.07
 20
519.6019
 10
486.2767
 20
519.5804
 10
485.497
 20
519.5827
 10
484.7331
 20
519.6131
 10
483.9872
 20
519.6756
 10
483.2614
 20
519.7747
 10
482.558
 20
519.9143
 10
481.8791
 20
520.0989
 10
481.2271
 20
520.3325
 10
480.604
 20
520.6193
 10
480.012
 20
520.9637
 10
479.4535
 20
521.3697
 10
478.9304
 20
521.8416
 10
478.4452
 20
522.3836
 10
478.0
 20
523.0
 10
479.0
 20
523.0
 10
479.5203
 20
522.49
 10
480.1258
 20
522.046
 10
480.8094
 20
521.6641
 10
481.5643
 20
521.3401
 10
482.3836
 20
521.0704
 10
483.2603
 20
520.8508
 10
484.1876
 20
520.6775
 10
485.1586
 20
520.5465
 10
486.1663
 20
520.4539
 10
487.2039
 20
520.3958
 10
488.2645
 20
520.3683
 10
489.3411
 20
520.3674
 10
490.4268
 20
520.3891
 10
491.5148
 20
520.4296
 10
492.5982
 20
520.4848
 10
493.67
 20
520.551
 10
494.7233
 20
520.6241
 10
495.7513
 20
520.7002
 10
496.747
 20
520.7754
 10
497.7035
 20
520.8458
 10
498.614
 20
520.9073
 10
499.4715
 20
520.9562
 10
500.2691
 20
520.9883
 10
501.0
 20
521.0
 10
501.0
 20
522.0
 10
498.0
 20
522.0
 10
498.0
 20
528.0
 10
487.0
 20
530.0
 10
501.0
 20
529.0
 10
501.0
 20
531.0
 10
490.0
 20
531.0
 10
490.0
 20
532.0
 10
504.0
 20
532.0
 10
504.0
 20
572.0
 10
471.0
 20
574.0
 10
471.0
 20
575.0
 10
498.0
 20
575.0
 10
498.0
 20
576.0
 10
381.0
 20
576.0
 10
382.0
 20
580.0
 10
383.0
 20
580.0
 10
383.0
 20
577.0
 10
485.0
 20
577.0
 10
485.0
 20
652.0
 10
406.0
 20
652.0
 10
405.4057
 20
652.0021
 10
404.725
 20
652.0073
 10
403.9652
 20
652.0139
 10
403.1338
 20
652.0201
 10
402.2383
 20
652.0242
 10
401.2863
 20
652.0245
 10
400.2852
 20
652.0193
 10
399.2424
 20
652.0068
 10
398.1656
 20
651.9853
 10
397.0621
 20
651.953
 10
395.9395
 20
651.9083
 10
394.8053
 20
651.8493
 10
393.6669
 20
651.7745
 10
392.5319
 20
651.682
 10
391.4076
 20
651.5701
 10
390.3017
 20
651.4371
 10
389.2216
 20
651.2812
 10
388.1748
 20
651.1008
 10
387.1688
 20
650.8941
 10
386.2111
 20
650.6593
 10
385.3091
 20
650.3948
 10
384.4704
 20
650.0988
 10
383.7025
 20
649.7696
 10
383.0128
 20
649.4055
 10
382.4088
 20
649.0046
 10
381.898
 20
648.5654
 10
381.488
 20
648.086
 10
381.1861
 20
647.5648
 10
381.0
 20
647.0
 10
380.0
 20
647.0
 10
379.0
 20
652.0
 10
390.0
 20
651.0
 10
390.0
 20
657.0
 10
378.0
 20
656.0
 10
378.0
 20
657.0
 10
380.0
 20
661.0
 10
381.0
 20
661.0
 10
381.0
 20
658.0
 10
479.0
 20
656.0
 10
479.0
 20
804.0
 10
404.0
 20
804.0
 10
403.3735
 20
803.9974
 10
402.6616
 20
803.9888
 10
401.8724
 20
803.973
 10
401.0141
 20
803.9485
 10
400.0948
 20
803.9142
 10
399.1228
 20
803.8686
 10
398.1061
 20
803.8104
 10
397.053
 20
803.7385
 10
395.9717
 20
803.6514
 10
394.8704
 20
803.5478
 10
393.7571
 20
803.4264
 10
392.6401
 20
803.286
 10
391.5276
 20
803.1252
 10
390.4278
 20
802.9426
 10
389.3487
 20
802.7371
 10
388.2987
 20
802.5073
 10
387.2858
 20
802.2518
 10
386.3182
 20
801.9694
 10
385.4042
 20
801.6588
 10
384.5519
 20
801.3186
 10
383.7694
 20
800.9476
 10
383.065
 20
800.5443
 10
382.4468
 20
800.1077
 10
381.9231
 20
799.6362
 10
381.5019
 20
799.1286
 10
381.1915
 20
798.5836
 10
381.0
 20
798.0
 10
380.0
 20
798.0
 10
379.0
 20
803.0
 10
390.0
 20
803.0
 10
390.0
 20
808.0
 10
378.0
 20
807.0
 10
378.0
 20
808.0
 10
380.0
 20
812.0
 10
381.0
 20
812.0
 10
381.5492
 20
811.4335
 10
382.1648
 20
810.9109
 10
382.8425
 20
810.4303
 10
383.5778
 20
809.9901
 10
384.3665
 20
809.5885
 10
385.2042
 20
809.2237
 10
386.0866
 20
808.8941
 10
387.0092
 20
808.5978
 10
387.9678
 20
808.3332
 10
388.9581
 20
808.0984
 10
389.9756
 20
807.8918
 10
391.016
 20
807.7115
 10
392.075
 20
807.556
 10
393.1482
 20
807.4233
 10
394.2314
 20
807.3119
 10
395.32
 20
807.2199
 10
396.4099
 20
807.1455
 10
397.4966
 20
807.0872
 10
398.5758
 20
807.043
 10
399.6432
 20
807.0113
 10
400.6944
 20
806.9903
 10
401.7251
 20
806.9784
 10
402.7309
 20
806.9737
 10
403.7075
 20
806.9744
 10
404.6505
 20
806.979
 10
405.5556
 20
806.9855
 10
406.4184
 20
806.9924
 10
407.2347
 20
806.9978
 10
408.0
 20
807.0
 10
479.0
 20
807.0
 10
479.0
 20
955.0
 10
404.0
 20
955.0
 10
403.3735
 20
954.9974
 10
402.6616
 20
954.9888
 10
401.8724
 20
954.973
 10
401.0141
 20
954.9485
 10
400.0948
 20
954.9142
 10
399.1228
 20
954.8686
 10
398.1061
 20
954.8104
 10
397.053
 20
954.7385
 10
395.9717
 20
954.6514
 10
394.8704
 20
954.5478
 10
393.7571
 20
954.4264
 10
392.6401
 20
954.286
 10
391.5276
 20
954.1252
 10
390.4278
 20
953.9426
 10
389.3487
 20
953.7371
 10
388.2987
 20
953.5073
 10
387.2858
 20
953.2518
 10
386.3182
 20
952.9694
 10
385.4042
 20
952.6588
 10
384.5519
 20
952.3186
 10
383.7694
 20
951.9476
 10
383.065
 20
951.5443
 10
382.4468
 20
951.1077
 10
381.9231
 20
950.6362
 10
381.5019
 20
950.1286
 10
381.1915
 20
949.5836
 10
381.0
 20
949.0
 10
380.0
 20
949.0
 10
378.0
 20
954.0
 10
378.0
 20
955.0
 10
390.0
 20
954.0
 10
390.0
 20
959.0
 10
379.0
 20
959.0
 10
380.0
 20
964.0
 10
381.0
 20
964.0
 10
381.0
 20
961.0
 10
397.014648
 20
958.019287
 10
479.0
 20
958.0
 10
479.0
 20
1106.0
 10
411.0
 20
1106.0
 10
411.0
 20
1102.0
 10
410.0
 20
1102.0
 10
410.0
 20
1105.0
 10
398.0
 20
1108.0
 10
481.0
 20
1108.0
 10
481.0
 20
1110.0
 10
398.0
 20
1110.0
 10
405.0
 20
1119.0
 10
403.9255
 20
1119.4259
 10
402.8883
 20
1119.7808
 10
401.8816
 20
1120.0647
 10
400.8985
 20
1120.2777
 10
399.9323
 20
1120.4196
 10
398.9762
 20
1120.4906
 10
398.0236
 20
1120.4906
 10
397.0675
 20
1120.4196
 10
396.1014
 20
1120.2777
 10
395.1183
 20
1120.0647
 10
394.1115
 20
1119.7808
 10
393.0743
 20
1119.4259
 10
392.0
 20
1119.0
 10
392.0
 20
1132.0
 10
381.0
 20
1124.0
 10
383.0
 20
1148.0
 10
381.0
 20
1148.0
  0
LWPOLYLINE
  5
36
330
17
100
AcDbEntity
  8
0
100
AcDbPolyline
 90
5
 70
0
 10
253.0
 20
1110.0
 10
253.0
 20
1108.0
 10
338.0
 20
1108.0
 10
338.0
 20
1110.0
 10
253.0
 20
1110.0
  0
LWPOLYLINE
  5
37
330
17
100
AcDbEntity
  8
0
100
AcDbPolyline
 90
53
 70
0
 10
240.0
 20
1107.0
 10
240.0
 20
1104.0
 10
234.0
 20
1104.0
 10
234.0
 20
1101.0
 10
229.0
 20
1101.0
 10
229.0
 20
1039.0
 10
234.0
 20
1039.0
 10
234.0
 20
1025.0
 10
229.0
 20
1025.0
 10
229.0
 20
963.0
 10
234.0
 20
963.0
 10
234.0
 20
950.0
 10
229.0
 20
950.0
 10
229.0
 20
888.0
 10
234.0
 20
888.0
 10
234.0
 20
874.0
 10
229.0
 20
874.0
 10
229.0
 20
812.0
 10
234.0
 20
812.0
 10
234.0
 20
799.0
 10
229.0
 20
799.0
 10
229.0
 20
736.0
 10
234.0
 20
736.0
 10
234.0
 20
723.0
 10
229.0
 20
723.0
 10
229.0
 20
661.0
 10
234.0
 20
661.0
 10
234.3075
 20
660.1175
 10
234.6989
 20
659.333
 10
235.1683
 20
658.6413
 10
235.7102
 20
658.037
 10
236.3187
 20
657.5145
 10
236.9884
 20
657.0687
 10
237.7133
 20
656.694
 10
238.488
 20
656.3851
 10
239.3066
 20
656.1367
 10
240.1635
 20
655.9432
 10
241.0531
 20
655.7994
 10
241.9696
 20
655.6999
 10
242.9073
 20
655.6393
 10
243.8606
 20
655.6122
 10
244.8239
 20
655.6132
 10
245.7913
 20
655.637
 10
246.7572
 20
655.6781
 10
247.716
 20
655.7312
 10
248.6619
 20
655.7909
 10
249.5893
 20
655.8518
 10
250.4925
 20
655.9085
 10
251.3658
 20
655.9557
 10
252.2035
 20
655.988
 10
253.0
 20
656.0
 10
253.0
 20
1107.0
 10
240.0
 20
1107.0
  0
LWPOLYLINE
  5
38
330
17
100
AcDbEntity
  8
0
100
AcDbPolyline
 90
26
 70
0
 10
481.0
 20
1107.0
 10
481.0
 20
656.0
 10
481.9044
 20
655.9908
 10
482.831
 20
655.9661
 10
483.7767
 20
655.9301
 10
484.7388
 20
655.887
 10
485.7142
 20
655.8412
 10
486.7002
 20
655.7967
 10
487.6938
 20
655.7578
 10
488.6921
 20
655.7288
 10
489.6922
 20
655.7138
 10
490.6912
 20
655.7172
 10
491.6862
 20
655.7431
 10
492.6744
 20
655.7958
 10
493.6528
 20
655.8794
 10
494.6185
 20
655.9983
 10
495.5687
 20
656.1566
 10
496.5004
 20
656.3586
 10
497.4107
 20
656.6086
 10
498.2968
 20
656.9106
 10
499.1557
 20
657.269
 10
499.9845
 20
657.6881
 10
500.7804
 20
658.1719
 10
501.5404
 20
658.7248
 10
502.2617
 20
659.351
 10
502.9414
 20
660.0547
  0
LWPOLYLINE
  5
39
330
17
100
AcDbEntity
  8
0
100
AcDbPolyline
 90
46
 70
0
 10
502.9413
 20
660.0547
 10
503.4863
 20
660.7548
 10
503.9477
 20
661.519
 10
504.3318
 20
662.3409
 10
504.6447
 20
663.2139
 10
504.8926
 20
664.1314
 10
505.0816
 20
665.0869
 10
505.218
 20
666.074
 10
505.3079
 20
667.086
 10
505.3575
 20
668.1165
 10
505.3731
 20
669.1589
 10
505.3608
 20
670.2067
 10
505.3267
 20
671.2533
 10
505.2771
 20
672.2923
 10
505.2182
 20
673.3171
 10
505.1561
 20
674.3212
 10
505.0971
 20
675.2981
 10
505.0472
 20
676.2412
 10
505.0128
 20
677.144
 10
505.0
 20
678.0
 10
505.0
 20
723.0
 10
500.0
 20
723.0
 10
500.0
 20
736.0
 10
505.0
 20
736.0
 10
505.0
 20
799.0
 10
500.0
 20
799.0
 10
500.0
 20
812.0
 10
505.0
 20
812.0
 10
505.0
 20
874.0
 10
500.0
 20
874.0
 10
500.0
 20
888.0
 10
505.0
 20
888.0
 10
505.0
 20
950.0
 10
500.0
 20
950.0
 10
500.0
 20
963.0
 10
505.0
 20
963.0
 10
505.0
 20
1025.0
 10
500.0
 20
1025.0
 10
500.0
 20
1039.0
 10
505.0
 20
1039.0
 10
505.0
 20
1101.0
 10
500.0
 20
1101.0
 10
500.0
 20
1104.0
 10
494.0
 20
1104.0
 10
494.0
 20
1107.0
 10
481.0
 20
1107.0
  0
LWPOLYLINE
  5
3A
330
17
100
AcDbEntity
  8
0
100
AcDbPolyline
 90
174
 70
0
 10
325.0
 20
1102.0
 10
334.0
 20
1092.0
 10
350.0
 20
1092.0
 10
351.941376
 20
989.014648
 10
343.603394
 20
979.365723
 10
342.0
 20
970.0
 10
352.0
 20
964.0
 10
353.0
 20
964.0
 10
344.466034
 20
975.0
 10
353.851868
 20
986.093384
 10
354.0
 20
1017.0
 10
356.156647
 20
1032.8302
 10
354.0
 20
1076.0
 10
354.9225
 20
1076.4022
 10
355.7008
 20
1076.901
 10
356.3466
 20
1077.4873
 10
356.8716
 20
1078.1521
 10
357.2875
 20
1078.8866
 10
357.6058
 20
1079.6817
 10
357.8385
 20
1080.5285
 10
357.997
 20
1081.4181
 10
358.0931
 20
1082.3415
 10
358.1385
 20
1083.2897
 10
358.1448
 20
1084.2539
 10
358.1238
 20
1085.225
 10
358.0872
 20
1086.1941
 10
358.0465
 20
1087.1523
 10
358.0135
 20
1088.0905
 10
358.0
 20
1089.0
 10
359.0098
 20
1088.5274
 10
359.9556
 20
1088.0325
 10
360.8386
 20
1087.5119
 10
361.66
 20
1086.9621
 10
362.4212
 20
1086.3797
 10
363.1235
 20
1085.7611
 10
363.768
 20
1085.103
 10
364.3561
 20
1084.4019
 10
364.8891
 20
1083.6544
 10
365.3681
 20
1082.8569
 10
365.7946
 20
1082.0061
 10
366.1697
 20
1081.0984
 10
366.4948
 20
1080.1305
 10
366.7711
 20
1079.0988
 10
367.0
 20
1078.0
 10
368.0
 20
1078.0
 10
368.2287
 20
1079.0988
 10
368.505
 20
1080.1304
 10
368.8301
 20
1081.0983
 10
369.2053
 20
1082.006
 10
369.6317
 20
1082.8568
 10
370.1108
 20
1083.6543
 10
370.6438
 20
1084.4019
 10
371.2319
 20
1085.103
 10
371.8764
 20
1085.7611
 10
372.5786
 20
1086.3796
 10
373.3399
 20
1086.9621
 10
374.1613
 20
1087.5119
 10
375.0443
 20
1088.0325
 10
375.9901
 20
1088.5274
 10
377.0
 20
1089.0
 10
379.999237
 20
1068.0
 10
380.058624
 20
987.0401
 10
389.533966
 20
974.089478
 10
381.0
 20
964.0
 10
382.0
 20
964.0
 10
392.0
 20
970.0
 10
390.396606
 20
979.365723
 10
382.058624
 20
989.014648
 10
384.0
 20
1092.0
 10
401.0
 20
1092.0
 10
410.0
 20
1102.0
 10
409.0
 20
1102.0
 10
408.3556
 20
1101.1814
 10
407.6862
 20
1100.4195
 10
406.993
 20
1099.7122
 10
406.2769
 20
1099.0577
 10
405.5388
 20
1098.4538
 10
404.7798
 20
1097.8985
 10
404.0008
 20
1097.3899
 10
403.2029
 20
1096.926
 10
402.387
 20
1096.5048
 10
401.5542
 20
1096.1242
 10
400.7054
 20
1095.7823
 10
399.8416
 20
1095.477
 10
398.9638
 20
1095.2065
 10
398.073
 20
1094.9686
 10
397.1703
 20
1094.7614
 10
396.2565
 20
1094.5829
 10
395.3327
 20
1094.4311
 10
394.3998
 20
1094.3039
 10
393.459
 20
1094.1995
 10
392.5111
 20
1094.1157
 10
391.5572
 20
1094.0506
 10
390.5982
 20
1094.0022
 10
389.6351
 20
1093.9685
 10
388.669
 20
1093.9475
 10
387.7008
 20
1093.9372
 10
386.7316
 20
1093.9356
 10
385.7622
 20
1093.9407
 10
384.7938
 20
1093.9505
 10
383.8273
 20
1093.9629
 10
382.8636
 20
1093.9761
 10
381.9038
 20
1093.988
 10
380.949
 20
1093.9966
 10
380.0
 20
1094.0
 10
380.0
 20
1079.0
 10
379.0
 20
1079.0
 10
379.0
 20
1090.0
 10
377.9239
 20
1089.8657
 10
376.8976
 20
1089.6879
 10
375.9209
 20
1089.4634
 10
374.9935
 20
1089.1891
 10
374.1153
 20
1088.8619
 10
373.2861
 20
1088.4788
 10
372.5057
 20
1088.0366
 10
371.774
 20
1087.5322
 10
371.0908
 20
1086.9625
 10
370.4559
 20
1086.3244
 10
369.8692
 20
1085.6149
 10
369.3304
 20
1084.8308
 10
368.8393
 20
1083.969
 10
368.3959
 20
1083.0264
 10
368.0
 20
1082.0
 10
367.0
 20
1082.0
 10
366.604
 20
1083.0264
 10
366.1606
 20
1083.969
 10
365.6695
 20
1084.8308
 10
365.1307
 20
1085.6149
 10
364.544
 20
1086.3244
 10
363.9091
 20
1086.9625
 10
363.2259
 20
1087.5322
 10
362.4942
 20
1088.0366
 10
361.7138
 20
1088.4788
 10
360.8846
 20
1088.8619
 10
360.0064
 20
1089.1891
 10
359.079
 20
1089.4634
 10
358.1022
 20
1089.6879
 10
357.076
 20
1089.8657
 10
356.0
 20
1090.0
 10
356.0
 20
1079.0
 10
354.0
 20
1079.0
 10
354.0
 20
1094.0
 10
352.9304
 20
1094.0002
 10
351.8776
 20
1094.0017
 10
350.841
 20
1094.0062
 10
349.82
 20
1094.0149
 10
348.814
 20
1094.0295
 10
347.8222
 20
1094.0514
 10
346.8442
 20
1094.082
 10
345.8792
 20
1094.1228
 10
344.9266
 20
1094.1753
 10
343.9858
 20
1094.241
 10
343.0562
 20
1094.3213
 10
342.1371
 20
1094.4178
 10
341.228
 20
1094.5318
 10
340.3281
 20
1094.6649
 10
339.4368
 20
1094.8186
 10
338.5536
 20
1094.9942
 10
337.6778
 20
1095.1933
 10
336.8088
 20
1095.4174
 10
335.9458
 20
1095.6679
 10
335.0884
 20
1095.9464
 10
334.2359
 20
1096.2541
 10
333.3876
 20
1096.5928
 10
332.5429
 20
1096.9637
 10
331.7013
 20
1097.3685
 10
330.8619
 20
1097.8085
 10
330.0243
 20
1098.2853
 10
329.1879
 20
1098.8003
 10
328.3518
 20
1099.3549
 10
327.5157
 20
1099.9508
 10
326.6787
 20
1100.5892
 10
325.8404
 20
1101.2718
 10
325.0
 20
1102.0
  0
LWPOLYLINE
  5
3B
330
17
100
AcDbEntity
  8
0
100
AcDbPolyline
 90
5
 70
0
 10
254.0
 20
957.0
 10
254.0
 20
956.0
 10
343.0
 20
956.0
 10
316.0
 20
957.0
 10
254.0
 20
957.0
  0
LWPOLYLINE
  5
3C
330
17
100
AcDbEntity
  8
0
100
AcDbPolyline
 90
5
 70
0
 10
391.0
 20
957.0
 10
391.0
 20
956.0
 10
480.0
 20
956.0
 10
453.0
 20
957.0
 10
391.0
 20
957.0
  0
LWPOLYLINE
  5
3D
330
17
100
AcDbEntity
  8
0
100
AcDbPolyline
 90
15
 70
0
 10
352.0
 20
950.0
 10
342.0
 20
943.0
 10
351.995361
 20
921.999207
 10
351.339508
 20
881.0
 10
351.851868
 20
837.015442
 10
342.0
 20
819.0
 10
352.0
 20
812.0
 10
353.0
 20
812.0
 10
344.466034
 20
823.010803
 10
353.682098
 20
834.104187
 10
356.040894
 20
880.910522
 10
354.0
 20
893.0
 10
353.682098
 20
927.895081
 10
344.466034
 20
938.074829
 10
352.0
 20
950.0
  0
LWPOLYLINE
  5
3E
330
17
100
AcDbEntity
  8
0
100
AcDbPolyline
 90
15
 70
0
 10
381.0
 20
949.0
 10
389.533966
 20
938.935181
 10
380.317902
 20
927.895081
 10
380.0
 20
893.0
 10
377.959106
 20
880.910522
 10
380.317902
 20
834.104187
 10
389.533966
 20
823.914368
 10
381.0
 20
812.0
 10
382.0
 20
812.0
 10
392.0
 20
819.0
 10
382.148132
 20
837.015442
 10
382.660492
 20
881.0
 10
382.004639
 20
922.0
 10
392.0
 20
943.0
 10
381.0
 20
949.0
  0
LWPOLYLINE
  5
3F
330
17
100
AcDbEntity
  8
0
100
AcDbPolyline
 90
5
 70
0
 10
254.0
 20
806.0
 10
254.0
 20
805.0
 10
343.0
 20
805.0
 10
316.0
 20
806.0
 10
254.0
 20
806.0
  0
LWPOLYLINE
  5
40
330
17
100
AcDbEntity
  8
0
100
AcDbPolyline
 90
5
 70
0
 10
391.0
 20
806.0
 10
391.0
 20
805.0
 10
480.0
 20
805.0
 10
453.0
 20
806.0
 10
391.0
 20
806.0
  0
LWPOLYLINE
  5
41
330
17
100
AcDbEntity
  8
0
100
AcDbPolyline
 90
37
 70
0
 10
352.0
 20
798.0
 10
342.0
 20
792.0
 10
343.603394
 20
782.609558
 10
351.851868
 20
773.956787
 10
351.455231
 20
730.0
 10
351.999237
 20
690.0
 10
342.0
 20
667.0
 10
343.1407
 20
666.8795
 10
344.196
 20
666.6958
 10
345.1746
 20
666.4472
 10
346.0855
 20
666.1319
 10
346.9376
 20
665.7482
 10
347.7396
 20
665.2943
 10
348.5006
 20
664.7685
 10
349.2294
 20
664.169
 10
349.9348
 20
663.4942
 10
350.6258
 20
662.7422
 10
351.3112
 20
661.9114
 10
352.0
 20
661.0
 10
353.0
 20
661.0
 10
352.4971
 20
662.0004
 10
351.9689
 20
662.9176
 10
351.4095
 20
663.7537
 10
350.8129
 20
664.511
 10
350.1734
 20
665.1917
 10
349.485
 20
665.7981
 10
348.7419
 20
666.3323
 10
347.9382
 20
666.7967
 10
347.0681
 20
667.1934
 10
346.1255
 20
667.5247
 10
345.1048
 20
667.7928
 10
344.0
 20
668.0
 10
353.941376
 20
685.014648
 10
354.004639
 20
740.0
 10
353.851868
 20
775.895813
 10
344.466034
 20
787.0
 10
352.0
 20
798.0
  0
LWPOLYLINE
  5
42
330
17
100
AcDbEntity
  8
0
100
AcDbPolyline
 90
38
 70
0
 10
381.0
 20
798.0
 10
389.533966
 20
787.910522
 10
380.317902
 20
776.790161
 10
379.999237
 20
741.0
 10
377.843353
 20
729.169739
 10
380.317902
 20
683.093384
 10
390.0
 20
668.0
 10
388.8951
 20
667.7928
 10
387.8743
 20
667.5247
 10
386.9318
 20
667.1934
 10
386.0616
 20
666.7967
 10
385.2579
 20
666.3324
 10
384.5148
 20
665.7981
 10
383.8264
 20
665.1918
 10
383.1869
 20
664.5111
 10
382.5904
 20
663.7538
 10
382.031
 20
662.9176
 10
381.5028
 20
662.0004
 10
381.0
 20
661.0
 10
382.0
 20
661.0
 10
382.6887
 20
661.9114
 10
383.3741
 20
662.7423
 10
384.0651
 20
663.4942
 10
384.7705
 20
664.1691
 10
385.4993
 20
664.7685
 10
386.2602
 20
665.2943
 10
387.0623
 20
665.7482
 10
387.9143
 20
666.1319
 10
388.8252
 20
666.4472
 10
389.8039
 20
666.6958
 10
390.8592
 20
666.8795
 10
392.0
 20
667.0
 10
382.000763
 20
690.0
 10
382.544769
 20
730.0
 10
382.148132
 20
773.956787
 10
390.396606
 20
782.609558
 10
392.0
 20
792.0
 10
381.0
 20
798.0
  0
LWPOLYLINE
  5
43
330
17
100
AcDbEntity
  8
0
100
AcDbPolyline
 90
5
 70
0
 10
236.0
 20
655.0
 10
236.0
 20
653.0
 10
343.0
 20
654.0
 10
310.0
 20
655.0
 10
236.0
 20
655.0
  0
LWPOLYLINE
  5
44
330
17
100
AcDbEntity
  8
0
100
AcDbPolyline
 90
5
 70
0
 10
391.0
 20
655.0
 10
391.0
 20
653.0
 10
498.0
 20
653.0
 10
498.0
 20
655.0
 10
391.0
 20
655.0
  0
LWPOLYLINE
  5
45
330
17
100
AcDbEntity
  8
0
100
AcDbPolyline
 90
26
 70
0
 10
234.0
 20
647.0
 10
229.0
 20
647.0
 10
229.0
 20
585.0
 10
233.0
 20
585.0
 10
236.0
 20
582.0
 10
236.0
 20
577.0
 10
247.0
 20
577.0
 10
247.0
 20
652.0
 10
246.1196
 20
652.0113
 10
245.2191
 20
652.0392
 10
244.3059
 20
652.0741
 10
243.3872
 20
652.1066
 10
242.4701
 20
652.1271
 10
241.562
 20
652.1262
 10
240.6701
 20
652.0944
 10
239.8017
 20
652.0224
 10
238.9639
 20
651.9005
 10
238.164
 20
651.7193
 10
237.4093
 20
651.4694
 10
236.7071
 20
651.1413
 10
236.0645
 20
650.7255
 10
235.4888
 20
650.2126
 10
234.9872
 20
649.593
 10
234.5671
 20
648.8574
 10
234.2356
 20
647.9962
 10
234.0
 20
647.0
  0
LWPOLYLINE
  5
46
330
17
100
AcDbEntity
  8
0
100
AcDbPolyline
 90
24
 70
0
 10
487.0
 20
652.0
 10
487.0
 20
577.0
 10
498.0
 20
577.0
 10
500.0
 20
585.0
 10
505.0
 20
585.0
 10
505.0
 20
630.0
 10
505.0134
 20
630.849
 10
505.0495
 20
631.7509
 10
505.102
 20
632.6981
 10
505.1644
 20
633.6832
 10
505.2304
 20
634.6988
 10
505.2937
 20
635.7372
 10
505.3479
 20
636.7912
 10
505.3866
 20
637.8531
 10
505.4035
 20
638.9157
 10
505.3922
 20
639.9713
 10
505.3464
 20
641.0125
 10
505.2598
 20
642.0319
 10
505.1259
 20
643.022
 10
504.9384
 20
643.9753
 10
504.691
 20
644.8844
 10
504.3772
 20
645.7417
 10
503.9908
 20
646.54
 10
503.5255
 20
647.2716
  0
LWPOLYLINE
  5
47
330
17
100
AcDbEntity
  8
0
100
AcDbPolyline
 90
842
 70
0
 10
352.0
 20
647.0
 10
342.0
 20
641.0
 10
351.682098
 20
622.984558
 10
352.0
 20
580.0
 10
355.0
 20
581.0
 10
356.0
 20
577.0
 10
355.1187
 20
576.7328
 10
354.2295
 20
576.4785
 10
353.3326
 20
576.237
 10
352.4282
 20
576.0078
 10
351.5165
 20
575.7907
 10
350.5978
 20
575.5856
 10
349.6721
 20
575.392
 10
348.7399
 20
575.2097
 10
347.8012
 20
575.0386
 10
346.8563
 20
574.8782
 10
345.9054
 20
574.7284
 10
344.9488
 20
574.5888
 10
343.9866
 20
574.4593
 10
343.019
 20
574.3395
 10
342.0464
 20
574.2291
 10
341.0688
 20
574.128
 10
340.0865
 20
574.0359
 10
339.0998
 20
573.9524
 10
338.1088
 20
573.8773
 10
337.1138
 20
573.8104
 10
336.1149
 20
573.7514
 10
335.1125
 20
573.7
 10
334.1066
 20
573.656
 10
333.0976
 20
573.619
 10
332.0856
 20
573.5889
 10
331.0709
 20
573.5654
 10
330.0537
 20
573.5481
 10
329.0342
 20
573.5369
 10
328.0125
 20
573.5314
 10
326.989
 20
573.5315
 10
325.9639
 20
573.5368
 10
324.9373
 20
573.547
 10
323.9094
 20
573.562
 10
322.8806
 20
573.5814
 10
321.851
 20
573.6049
 10
320.8208
 20
573.6324
 10
319.7902
 20
573.6635
 10
318.7596
 20
573.6981
 10
317.7289
 20
573.7357
 10
316.6986
 20
573.7761
 10
315.6688
 20
573.8192
 10
314.6397
 20
573.8646
 10
313.6116
 20
573.912
 10
312.5846
 20
573.9612
 10
311.559
 20
574.012
 10
310.535
 20
574.064
 10
309.5128
 20
574.117
 10
308.4926
 20
574.1707
 10
307.4747
 20
574.2249
 10
306.4592
 20
574.2792
 10
305.4464
 20
574.3336
 10
304.4365
 20
574.3875
 10
303.4297
 20
574.4409
 10
302.4263
 20
574.4934
 10
301.4264
 20
574.5448
 10
300.4302
 20
574.5948
 10
299.438
 20
574.6432
 10
298.45
 20
574.6896
 10
297.4664
 20
574.7338
 10
296.4875
 20
574.7756
 10
295.5134
 20
574.8146
 10
294.5443
 20
574.8507
 10
293.5805
 20
574.8835
 10
292.6222
 20
574.9128
 10
291.6696
 20
574.9383
 10
290.723
 20
574.9598
 10
289.7825
 20
574.977
 10
288.8483
 20
574.9896
 10
287.9207
 20
574.9973
 10
287.0
 20
575.0
 10
286.0667
 20
575.008
 10
285.1127
 20
575.0305
 10
284.14
 20
575.0648
 10
283.1508
 20
575.1083
 10
282.1472
 20
575.1583
 10
281.1315
 20
575.2123
 10
280.1057
 20
575.2676
 10
279.0721
 20
575.3215
 10
278.0327
 20
575.3716
 10
276.9898
 20
575.415
 10
275.9454
 20
575.4493
 10
274.9019
 20
575.4718
 10
273.8612
 20
575.4799
 10
272.8256
 20
575.4709
 10
271.7972
 20
575.4422
 10
270.7783
 20
575.3913
 10
269.7708
 20
575.3155
 10
268.7771
 20
575.2121
 10
267.7992
 20
575.0786
 10
266.8394
 20
574.9123
 10
265.8997
 20
574.7105
 10
264.9823
 20
574.4708
 10
264.0895
 20
574.1905
 10
263.1286
 20
573.8202
 10
262.2227
 20
573.3929
 10
261.3646
 20
572.9154
 10
260.5468
 20
572.3946
 10
259.7623
 20
571.8371
 10
259.0037
 20
571.2499
 10
258.2638
 20
570.6397
 10
257.5354
 20
570.0132
 10
256.8112
 20
569.3774
 10
256.084
 20
568.739
 10
255.3465
 20
568.1048
 10
254.5915
 20
567.4816
 10
253.8117
 20
566.8762
 10
253.0
 20
566.2955
 10
252.4404
 20
565.9686
 10
251.872
 20
565.7387
 10
251.2966
 20
565.5969
 10
250.7162
 20
565.5344
 10
250.1326
 20
565.5424
 10
249.5477
 20
565.6121
 10
248.9632
 20
565.7348
 10
248.3811
 20
565.9015
 10
247.8033
 20
566.1035
 10
247.2315
 20
566.3321
 10
246.6677
 20
566.5783
 10
246.1137
 20
566.8334
 10
245.5714
 20
567.0886
 10
245.0426
 20
567.3351
 10
244.5292
 20
567.564
 10
244.033
 20
567.7667
 10
243.556
 20
567.9342
 10
243.0999
 20
568.0578
 10
242.6667
 20
568.1286
 10
242.2582
 20
568.1379
 10
241.8762
 20
568.0769
 10
241.5227
 20
567.9367
 10
241.1994
 20
567.7086
 10
240.9083
 20
567.3837
 10
240.6512
 20
566.9533
 10
240.4299
 20
566.4085
 10
240.2464
 20
565.7405
 10
240.1025
 20
564.9406
 10
240.0
 20
564.0
 10
239.0
 20
564.0
 10
239.0
 20
569.0
 10
238.0
 20
569.0
 10
238.0
 20
564.0
 10
235.0
 20
564.0
 10
235.0
 20
569.0
 10
234.0
 20
569.0
 10
234.0
 20
562.0
 10
231.0
 20
564.0
 10
231.0
 20
559.0
 10
232.1533
 20
559.0566
 10
233.2067
 20
559.0745
 10
234.1633
 20
559.0548
 10
235.0266
 20
558.9988
 10
235.7998
 20
558.9077
 10
236.4862
 20
558.7827
 10
237.0891
 20
558.6251
 10
237.612
 20
558.436
 10
238.058
 20
558.2167
 10
238.4304
 20
557.9685
 10
238.7327
 20
557.6924
 10
238.9681
 20
557.3898
 10
239.1399
 20
557.0619
 10
239.2514
 20
556.7099
 10
239.3059
 20
556.335
 10
239.3069
 20
555.9384
 10
239.2575
 20
555.5214
 10
239.161
 20
555.0851
 10
239.0209
 20
554.6309
 10
238.8403
 20
554.1599
 10
238.6227
 20
553.6733
 10
238.3713
 20
553.1725
 10
238.0895
 20
552.6585
 10
237.7805
 20
552.1326
 10
237.4476
 20
551.596
 10
237.0943
 20
551.05
 10
236.7237
 20
550.4958
 10
236.3392
 20
549.9346
 10
235.9442
 20
549.3676
 10
235.5418
 20
548.796
 10
235.1355
 20
548.2211
 10
234.7286
 20
547.6441
 10
234.3243
 20
547.0662
 10
233.926
 20
546.4887
 10
233.5369
 20
545.9127
 10
233.1605
 20
545.3394
 10
232.8
 20
544.7702
 10
232.4587
 20
544.2061
 10
232.1399
 20
543.6485
 10
231.847
 20
543.0986
 10
231.5832
 20
542.5576
 10
231.3519
 20
542.0266
 10
231.1564
 20
541.507
 10
231.0
 20
541.0
 10
244.0
 20
553.0
 10
244.0
 20
554.0
 10
241.0
 20
559.0
 10
244.0
 20
559.0
 10
245.0
 20
559.0
 10
245.0
 20
564.0
 10
243.0
 20
563.0
 10
243.0
 20
568.0
 10
244.0
 20
568.0
 10
244.47
 20
567.1503
 10
244.9426
 20
566.3853
 10
245.4179
 20
565.702
 10
245.8958
 20
565.0976
 10
246.3765
 20
564.5693
 10
246.86
 20
564.1143
 10
247.3463
 20
563.7299
 10
247.8355
 20
563.4131
 10
248.3277
 20
563.1612
 10
248.8228
 20
562.9713
 10
249.321
 20
562.8407
 10
249.8223
 20
562.7665
 10
250.3267
 20
562.7459
 10
250.8343
 20
562.7762
 10
251.3452
 20
562.8544
 10
251.8593
 20
562.9778
 10
252.3768
 20
563.1436
 10
252.8977
 20
563.349
 10
253.422
 20
563.5911
 10
253.9498
 20
563.8672
 10
254.4811
 20
564.1743
 10
255.0161
 20
564.5098
 10
255.5547
 20
564.8708
 10
256.0969
 20
565.2545
 10
256.643
 20
565.658
 10
257.1928
 20
566.0786
 10
257.7464
 20
566.5135
 10
258.304
 20
566.9598
 10
258.8654
 20
567.4148
 10
259.4309
 20
567.8755
 10
260.0004
 20
568.3393
 10
260.574
 20
568.8032
 10
261.1518
 20
569.2646
 10
261.7337
 20
569.7205
 10
262.3199
 20
570.1682
 10
262.9104
 20
570.6048
 10
263.5052
 20
571.0275
 10
264.1044
 20
571.4336
 10
264.7081
 20
571.8201
 10
265.3162
 20
572.1844
 10
265.9289
 20
572.5236
 10
266.5462
 20
572.8348
 10
267.1681
 20
573.1153
 10
267.7947
 20
573.3622
 10
268.4261
 20
573.5728
 10
269.0622
 20
573.7442
 10
269.7032
 20
573.8736
 10
270.3491
 20
573.9582
 10
271.0
 20
573.9953
 10
271.9992
 20
574.0129
 10
272.9986
 20
574.0283
 10
273.9982
 20
574.0416
 10
274.9978
 20
574.0529
 10
275.9975
 20
574.0623
 10
276.9974
 20
574.07
 10
277.9973
 20
574.076
 10
278.9973
 20
574.0804
 10
279.9974
 20
574.0834
 10
280.9975
 20
574.085
 10
281.9977
 20
574.0854
 10
282.9979
 20
574.0847
 10
283.9982
 20
574.0829
 10
284.9985
 20
574.0803
 10
285.9988
 20
574.0768
 10
286.9991
 20
574.0726
 10
287.9995
 20
574.0679
 10
288.9998
 20
574.0627
 10
290.0001
 20
574.0571
 10
291.0005
 20
574.0512
 10
292.0007
 20
574.0452
 10
293.001
 20
574.0392
 10
294.0012
 20
574.0332
 10
295.0014
 20
574.0274
 10
296.0015
 20
574.0218
 10
297.0015
 20
574.0167
 10
298.0015
 20
574.012
 10
299.0014
 20
574.008
 10
300.0012
 20
574.0046
 10
301.0009
 20
574.0021
 10
302.0005
 20
574.0005
 10
303.0
 20
574.0
 10
303.9347
 20
574.013
 10
304.9072
 20
574.0471
 10
305.9109
 20
574.0947
 10
306.9393
 20
574.1482
 10
307.9857
 20
574.2002
 10
309.0437
 20
574.243
 10
310.1066
 20
574.2692
 10
311.1679
 20
574.2711
 10
312.221
 20
574.2412
 10
313.2593
 20
574.172
 10
314.2764
 20
574.056
 10
315.2655
 20
573.8855
 10
316.2202
 20
573.6531
 10
317.1339
 20
573.3511
 10
318.0
 20
572.9722
 10
318.804
 20
572.5475
 10
319.6006
 20
572.0831
 10
320.3897
 20
571.5813
 10
321.1715
 20
571.0446
 10
321.9461
 20
570.4754
 10
322.7135
 20
569.8761
 10
323.4739
 20
569.2492
 10
324.2274
 20
568.5971
 10
324.9741
 20
567.9222
 10
325.7141
 20
567.2269
 10
326.4475
 20
566.5138
 10
327.1743
 20
565.7851
 10
327.8947
 20
565.0433
 10
328.6088
 20
564.2909
 10
329.3167
 20
563.5303
 10
330.0185
 20
562.7639
 10
330.7143
 20
561.9942
 10
331.4042
 20
561.2235
 10
332.0882
 20
560.4543
 10
332.7666
 20
559.6891
 10
333.4393
 20
558.9302
 10
334.1065
 20
558.1801
 10
334.7684
 20
557.4412
 10
335.4249
 20
556.7159
 10
336.0762
 20
556.0068
 10
336.7224
 20
555.3161
 10
337.3636
 20
554.6463
 10
338.0
 20
554.0
 10
338.6571
 20
553.3544
 10
339.3366
 20
552.7065
 10
340.0345
 20
552.0555
 10
340.7469
 20
551.4002
 10
341.4698
 20
550.7399
 10
342.1994
 20
550.0736
 10
342.9317
 20
549.4004
 10
343.6629
 20
548.7193
 10
344.3889
 20
548.0294
 10
345.1059
 20
547.3299
 10
345.8099
 20
546.6197
 10
346.497
 20
545.898
 10
347.1634
 20
545.1638
 10
347.805
 20
544.4162
 10
348.418
 20
543.6542
 10
348.9985
 20
542.8771
 10
349.5425
 20
542.0837
 10
350.0461
 20
541.2733
 10
350.5054
 20
540.4449
 10
350.9164
 20
539.5975
 10
351.2753
 20
538.7302
 10
351.5782
 20
537.8421
 10
351.821
 20
536.9324
 10
352.0
 20
536.0
 10
331.0
 20
536.0
 10
330.0
 20
540.0
 10
326.0
 20
538.0
 10
328.0
 20
532.0
 10
352.0
 20
532.0
 10
351.8713
 20
531.1953
 10
351.675
 20
530.4451
 10
351.4138
 20
529.7476
 10
351.0905
 20
529.1011
 10
350.7078
 20
528.5038
 10
350.2686
 20
527.954
 10
349.7757
 20
527.4499
 10
349.2318
 20
526.9898
 10
348.6398
 20
526.5719
 10
348.0025
 20
526.1945
 10
347.3226
 20
525.8557
 10
346.6029
 20
525.554
 10
345.8463
 20
525.2874
 10
345.0555
 20
525.0543
 10
344.2333
 20
524.8529
 10
343.3825
 20
524.6814
 10
342.506
 20
524.5381
 10
341.6065
 20
524.4213
 10
340.6868
 20
524.3291
 10
339.7496
 20
524.2599
 10
338.7979
 20
524.2118
 10
337.8344
 20
524.1832
 10
336.8618
 20
524.1723
 10
335.8831
 20
524.1773
 10
334.9008
 20
524.1964
 10
333.918
 20
524.228
 10
332.9373
 20
524.2702
 10
331.9616
 20
524.3214
 10
330.9937
 20
524.3797
 10
330.0362
 20
524.4434
 10
329.0922
 20
524.5108
 10
328.1642
 20
524.5801
 10
327.2552
 20
524.6495
 10
326.3679
 20
524.7173
 10
325.5051
 20
524.7818
 10
324.6697
 20
524.8411
 10
323.8643
 20
524.8936
 10
323.0919
 20
524.9375
 10
322.3552
 20
524.971
 10
321.6569
 20
524.9924
 10
321.0
 20
525.0
 10
320.0
 20
529.0
 10
319.0994
 20
528.2543
 10
318.4198
 20
527.4893
 10
317.9367
 20
526.6994
 10
317.6257
 20
525.879
 10
317.4621
 20
525.0223
 10
317.4215
 20
524.1239
 10
317.4795
 20
523.1781
 10
317.6116
 20
522.1792
 10
317.7932
 20
521.1217
 10
318.0
 20
520.0
 10
352.0
 20
520.0
 10
352.0
 20
506.0
 10
350.903
 20
505.9633
 10
349.901
 20
505.864
 10
348.9864
 20
505.7058
 10
348.152
 20
505.4925
 10
347.3902
 20
505.228
 10
346.6938
 20
504.9159
 10
346.0551
 20
504.5602
 10
345.4669
 20
504.1645
 10
344.9217
 20
503.7327
 10
344.4122
 20
503.2685
 10
343.9308
 20
502.7758
 10
343.4702
 20
502.2583
 10
343.023
 20
501.7198
 10
342.5817
 20
501.1641
 10
342.1389
 20
500.595
 10
341.6873
 20
500.0163
 10
341.2194
 20
499.4317
 10
340.7278
 20
498.8451
 10
340.2051
 20
498.2603
 10
339.6438
 20
497.681
 10
339.0366
 20
497.111
 10
338.376
 20
496.5541
 10
337.6546
 20
496.0141
 10
336.8651
 20
495.4948
 10
336.0
 20
495.0
 10
336.0
 20
494.0
 10
337.0437
 20
494.3912
 10
338.0063
 20
494.8222
 10
338.89
 20
495.2954
 10
339.6967
 20
495.8133
 10
340.4287
 20
496.3784
 10
341.088
 20
496.9933
 10
341.6768
 20
497.6603
 10
342.1971
 20
498.382
 10
342.6511
 20
499.1608
 10
343.0409
 20
499.9994
 10
343.3686
 20
500.9
 10
343.6362
 20
501.8654
 10
343.846
 20
502.8978
 10
344.0
 20
504.0
 10
354.0
 20
504.0
 10
356.0
 20
514.0
 10
378.0
 20
514.0
 10
380.0
 20
504.0
 10
389.0
 20
504.0
 10
389.2281
 20
502.9601
 10
389.5004
 20
501.9727
 10
389.8189
 20
501.038
 10
390.1856
 20
500.1562
 10
390.6027
 20
499.3274
 10
391.0722
 20
498.5519
 10
391.5962
 20
497.8299
 10
392.1767
 20
497.1615
 10
392.816
 20
496.5469
 10
393.516
 20
495.9863
 10
394.2788
 20
495.4799
 10
395.1065
 20
495.0279
 10
396.0012
 20
494.6304
 10
396.965
 20
494.2877
 10
398.0
 20
494.0
 10
398.0
 20
495.0
 10
396.9912
 20
495.5078
 10
396.0534
 20
496.0499
 10
395.1856
 20
496.6282
 10
394.3868
 20
497.2449
 10
393.6563
 20
497.9023
 10
392.9931
 20
498.6024
 10
392.3962
 20
499.3474
 10
391.8648
 20
500.1394
 10
391.3979
 20
500.9806
 10
390.9947
 20
501.8732
 10
390.6542
 20
502.8193
 10
390.3755
 20
503.821
 10
390.1577
 20
504.8805
 10
390.0
 20
506.0
 10
382.0
 20
506.0
 10
382.0
 20
520.0
 10
416.0
 20
520.0
 10
416.2066
 20
521.1217
 10
416.3883
 20
522.1792
 10
416.5203
 20
523.1781
 10
416.5783
 20
524.1239
 10
416.5378
 20
525.0223
 10
416.3742
 20
525.879
 10
416.0631
 20
526.6994
 10
415.58
 20
527.4893
 10
414.9005
 20
528.2543
 10
414.0
 20
529.0
 10
413.0
 20
525.0
 10
412.343
 20
524.9924
 10
411.6447
 20
524.971
 10
410.908
 20
524.9375
 10
410.1355
 20
524.8936
 10
409.3302
 20
524.8411
 10
408.4947
 20
524.7818
 10
407.632
 20
524.7173
 10
406.7447
 20
524.6495
 10
405.8356
 20
524.5801
 10
404.9077
 20
524.5108
 10
403.9636
 20
524.4434
 10
403.0062
 20
524.3797
 10
402.0382
 20
524.3214
 10
401.0625
 20
524.2702
 10
400.0818
 20
524.228
 10
399.099
 20
524.1964
 10
398.1168
 20
524.1772
 10
397.138
 20
524.1722
 10
396.1655
 20
524.1832
 10
395.2019
 20
524.2118
 10
394.2502
 20
524.2598
 10
393.3131
 20
524.3291
 10
392.3934
 20
524.4212
 10
391.4939
 20
524.5381
 10
390.6173
 20
524.6813
 10
389.7666
 20
524.8528
 10
388.9444
 20
525.0542
 10
388.1536
 20
525.2874
 10
387.397
 20
525.5539
 10
386.6773
 20
525.8557
 10
385.9974
 20
526.1944
 10
385.3601
 20
526.5719
 10
384.7681
 20
526.9898
 10
384.2242
 20
527.4499
 10
383.7313
 20
527.954
 10
383.2921
 20
528.5038
 10
382.9094
 20
529.1011
 10
382.5861
 20
529.7476
 10
382.3249
 20
530.445
 10
382.1286
 20
531.1953
 10
382.0
 20
532.0
 10
382.8228
 20
531.991
 10
383.6697
 20
531.9661
 10
384.5382
 20
531.9282
 10
385.4259
 20
531.88
 10
386.3302
 20
531.8244
 10
387.2487
 20
531.7644
 10
388.1789
 20
531.7027
 10
389.1184
 20
531.6422
 10
390.0646
 20
531.5859
 10
391.0151
 20
531.5364
 10
391.9674
 20
531.4968
 10
392.9191
 20
531.4699
 10
393.8676
 20
531.4585
 10
394.8105
 20
531.4654
 10
395.7453
 20
531.4937
 10
396.6696
 20
531.5461
 10
397.5808
 20
531.6254
 10
398.4764
 20
531.7346
 10
399.3541
 20
531.8765
 10
400.2113
 20
532.054
 10
401.0456
 20
532.2699
 10
401.8544
 20
532.5271
 10
402.6354
 20
532.8284
 10
403.3859
 20
533.1768
 10
404.1037
 20
533.5751
 10
404.786
 20
534.0261
 10
405.4306
 20
534.5327
 10
406.035
 20
535.0977
 10
406.5965
 20
535.7241
 10
407.1129
 20
536.4147
 10
407.5815
 20
537.1724
 10
408.0
 20
538.0
 10
404.0
 20
540.0
 10
403.0
 20
536.0
 10
382.0
 20
536.0
 10
382.1789
 20
536.9324
 10
382.4217
 20
537.8421
 10
382.7245
 20
538.7302
 10
383.0834
 20
539.5974
 10
383.4945
 20
540.4448
 10
383.9538
 20
541.2733
 10
384.4574
 20
542.0837
 10
385.0013
 20
542.877
 10
385.5818
 20
543.6542
 10
386.1948
 20
544.4161
 10
386.8364
 20
545.1637
 10
387.5028
 20
545.8979
 10
388.1899
 20
546.6197
 10
388.894
 20
547.3298
 10
389.611
 20
548.0294
 10
390.337
 20
548.7193
 10
391.0681
 20
549.4003
 10
391.8004
 20
550.0736
 10
392.53
 20
550.7399
 10
393.253
 20
551.4002
 10
393.9654
 20
552.0555
 10
394.6633
 20
552.7065
 10
395.3428
 20
553.3544
 10
396.0
 20
554.0
 10
396.6363
 20
554.6463
 10
397.2775
 20
555.3161
 10
397.9237
 20
556.0068
 10
398.575
 20
556.7159
 10
399.2315
 20
557.4412
 10
399.8934
 20
558.1801
 10
400.5606
 20
558.9302
 10
401.2333
 20
559.6891
 10
401.9117
 20
560.4543
 10
402.5957
 20
561.2235
 10
403.2856
 20
561.9942
 10
403.9813
 20
562.7639
 10
404.6831
 20
563.5303
 10
405.391
 20
564.2909
 10
406.1051
 20
565.0433
 10
406.8256
 20
565.7851
 10
407.5524
 20
566.5138
 10
408.2857
 20
567.2269
 10
409.0257
 20
567.9222
 10
409.7724
 20
568.5971
 10
410.5259
 20
569.2492
 10
411.2864
 20
569.8761
 10
412.0538
 20
570.4754
 10
412.8284
 20
571.0446
 10
413.6102
 20
571.5813
 10
414.3993
 20
572.0831
 10
415.1959
 20
572.5475
 10
416.0
 20
572.9722
 10
416.866
 20
573.3512
 10
417.7797
 20
573.6531
 10
418.7344
 20
573.8856
 10
419.7235
 20
574.056
 10
420.7405
 20
574.1721
 10
421.7789
 20
574.2413
 10
422.832
 20
574.2711
 10
423.8932
 20
574.2692
 10
424.9561
 20
574.2431
 10
426.0141
 20
574.2002
 10
427.0606
 20
574.1482
 10
428.0889
 20
574.0947
 10
429.0927
 20
574.0471
 10
430.0652
 20
574.013
 10
431.0
 20
574.0
 10
431.9973
 20
574.0012
 10
432.9952
 20
574.0047
 10
433.9936
 20
574.0102
 10
434.9925
 20
574.0175
 10
435.9918
 20
574.0265
 10
436.9916
 20
574.0367
 10
437.9917
 20
574.0481
 10
438.9922
 20
574.0604
 10
439.9929
 20
574.0733
 10
440.9939
 20
574.0867
 10
441.9952
 20
574.1003
 10
442.9966
 20
574.1138
 10
443.9981
 20
574.1271
 10
444.9998
 20
574.1398
 10
446.0015
 20
574.1519
 10
447.0032
 20
574.1629
 10
448.0049
 20
574.1728
 10
449.0066
 20
574.1813
 10
450.0082
 20
574.1881
 10
451.0097
 20
574.193
 10
452.011
 20
574.1959
 10
453.0121
 20
574.1963
 10
454.0129
 20
574.1942
 10
455.0135
 20
574.1893
 10
456.0138
 20
574.1813
 10
457.0137
 20
574.1701
 10
458.0132
 20
574.1554
 10
459.0123
 20
574.137
 10
460.0109
 20
574.1145
 10
461.009
 20
574.0879
 10
462.0066
 20
574.0569
 10
463.0036
 20
574.0212
 10
464.0
 20
573.9807
 10
464.9476
 20
573.8852
 10
465.8513
 20
573.6902
 10
466.715
 20
573.4062
 10
467.5428
 20
573.0441
 10
468.3386
 20
572.6146
 10
469.1066
 20
572.1284
 10
469.8506
 20
571.5963
 10
470.5747
 20
571.0291
 10
471.2829
 20
570.4374
 10
471.9792
 20
569.8321
 10
472.6676
 20
569.2239
 10
473.3522
 20
568.6235
 10
474.0368
 20
568.0416
 10
474.7257
 20
567.4891
 10
475.4226
 20
566.9767
 10
476.1318
 20
566.5151
 10
476.857
 20
566.1151
 10
477.6025
 20
565.7874
 10
478.3721
 20
565.5427
 10
479.1699
 20
565.3919
 10
480.0
 20
565.3457
 10
480.8787
 20
565.4464
 10
481.7567
 20
565.7107
 10
482.6303
 20
566.1117
 10
483.4956
 20
566.6224
 10
484.3489
 20
567.2157
 10
485.1861
 20
567.8646
 10
486.0037
 20
568.5423
 10
486.7977
 20
569.2216
 10
487.5642
 20
569.8757
 10
488.2996
 20
570.4775
 10
489.0
 20
571.0
 10
490.0
 20
570.0
 10
490.0
 20
563.0
 10
486.0
 20
563.0
 10
488.0
 20
559.0
 10
488.0336
 20
558.1576
 10
488.1559
 20
557.3151
 10
488.3616
 20
556.4736
 10
488.6451
 20
555.6347
 10
489.0012
 20
554.7996
 10
489.4243
 20
553.9698
 10
489.909
 20
553.1465
 10
490.4499
 20
552.3311
 10
491.0417
 20
551.525
 10
491.6789
 20
550.7296
 10
492.356
 20
549.9462
 10
493.0677
 20
549.1761
 10
493.8085
 20
548.4208
 10
494.5731
 20
547.6815
 10
495.3559
 20
546.9597
 10
496.1517
 20
546.2567
 10
496.9549
 20
545.5739
 10
497.7602
 20
544.9126
 10
498.5622
 20
544.2741
 10
499.3553
 20
543.6599
 10
500.1343
 20
543.0713
 10
500.8937
 20
542.5096
 10
501.628
 20
541.9763
 10
502.3319
 20
541.4726
 10
503.0
 20
541.0
 10
489.0
 20
559.0
 10
499.0
 20
559.0
 10
500.0
 20
559.0
 10
500.0
 20
563.0
 10
491.0
 20
563.0
 10
489.0
 20
573.0
 10
481.0
 20
566.0
 10
480.0
 20
566.0
 10
479.3599
 20
566.9016
 10
478.7048
 20
567.7412
 10
478.0348
 20
568.521
 10
477.3501
 20
569.2431
 10
476.6509
 20
569.9098
 10
475.9375
 20
570.5233
 10
475.2099
 20
571.0857
 10
474.4683
 20
571.5993
 10
473.7131
 20
572.0662
 10
472.9442
 20
572.4888
 10
472.162
 20
572.8691
 10
471.3666
 20
573.2094
 10
470.5583
 20
573.5118
 10
469.7371
 20
573.7787
 10
468.9033
 20
574.0121
 10
468.0571
 20
574.2143
 10
467.1986
 20
574.3875
 10
466.3281
 20
574.5339
 10
465.4457
 20
574.6557
 10
464.5516
 20
574.7551
 10
463.6461
 20
574.8343
 10
462.7292
 20
574.8955
 10
461.8013
 20
574.9409
 10
460.8624
 20
574.9728
 10
459.9127
 20
574.9932
 10
458.9526
 20
575.0044
 10
457.982
 20
575.0087
 10
457.0013
 20
575.0082
 10
456.0106
 20
575.0051
 10
455.0101
 20
575.0016
 10
454.0
 20
575.0
 10
402.0
 20
575.0
 10
401.0258
 20
574.9931
 10
400.0412
 20
574.9743
 10
399.0475
 20
574.9461
 10
398.0462
 20
574.9111
 10
397.0386
 20
574.872
 10
396.0261
 20
574.8312
 10
395.01
 20
574.7914
 10
393.9919
 20
574.7551
 10
392.9731
 20
574.725
 10
391.9549
 20
574.7036
 10
390.9387
 20
574.6935
 10
389.926
 20
574.6974
 10
388.9182
 20
574.7177
 10
387.9165
 20
574.7571
 10
386.9225
 20
574.8182
 10
385.9375
 20
574.9036
 10
384.9628
 20
575.0157
 10
384.0
 20
575.1574
 10
383.2169
 20
575.3325
 10
382.4515
 20
575.5913
 10
381.7277
 20
575.9197
 10
381.0691
 20
576.304
 10
380.4995
 20
576.7304
 10
380.0427
 20
577.185
 10
379.7225
 20
577.6542
 10
379.5626
 20
578.124
 10
379.5868
 20
578.5807
 10
379.8189
 20
579.0105
 10
380.2826
 20
579.3994
 10
381.0017
 20
579.7339
 10
382.0
 20
580.0
 10
382.317902
 20
622.984558
 10
392.0
 20
641.0
 10
382.0
 20
647.0
 10
381.0
 20
647.0
 10
381.5057
 20
646.0124
 10
382.04
 20
645.1111
 10
382.6076
 20
644.2921
 10
383.2132
 20
643.5518
 10
383.8616
 20
642.8863
 10
384.5575
 20
642.2917
 10
385.3059
 20
641.7642
 10
386.1114
 20
641.3
 10
386.9787
 20
640.8953
 10
387.9128
 20
640.5463
 10
388.9182
 20
640.2491
 10
390.0
 20
640.0
 10
378.0
 20
624.0
 10
367.0
 20
626.0
 10
366.0
 20
626.0
 10
356.0
 20
624.0
 10
344.0
 20
640.0
 10
344.9678
 20
640.2171
 10
345.9356
 20
640.4835
 10
346.8871
 20
640.8043
 10
347.8057
 20
641.1847
 10
348.6751
 20
641.63
 10
349.4787
 20
642.1453
 10
350.2002
 20
642.7359
 10
350.8231
 20
643.4069
 10
351.3309
 20
644.1636
 10
351.7073
 20
645.0112
 10
351.9358
 20
645.9549
 10
352.0
 20
647.0
  0
LWPOLYLINE
  5
48
330
17
100
AcDbEntity
  8
0
100
AcDbPolyline
 90
6
 70
0
 10
356.0
 20
623.0
 10
356.0
 20
585.0
 10
364.972229
 20
586.603394
 10
366.0
 20
597.0
 10
366.0
 20
623.0
 10
356.0
 20
623.0
  0
LWPOLYLINE
  5
49
330
17
100
AcDbEntity
  8
0
100
AcDbPolyline
 90
5
 70
0
 10
367.0
 20
623.0
 10
367.0
 20
585.0
 10
378.0
 20
585.0
 10
378.0
 20
623.0
 10
367.0
 20
623.0
  0
LWPOLYLINE
  5
4A
330
17
100
AcDbEntity
  8
0
100
AcDbPolyline
 90
150
 70
0
 10
356.0
 20
584.0
 10
357.0
 20
576.0
 10
343.0
 20
570.0
 10
342.0
 20
570.0
 10
342.0
 20
574.0
 10
320.0
 20
574.0
 10
320.5353
 20
573.2479
 10
321.0847
 20
572.4916
 10
321.6479
 20
571.7315
 10
322.2243
 20
570.968
 10
322.8135
 20
570.2014
 10
323.4152
 20
569.4323
 10
324.0288
 20
568.6611
 10
324.654
 20
567.8882
 10
325.2903
 20
567.114
 10
325.9374
 20
566.3389
 10
326.5946
 20
565.5634
 10
327.2618
 20
564.7879
 10
327.9383
 20
564.0129
 10
328.6239
 20
563.2387
 10
329.318
 20
562.4658
 10
330.0202
 20
561.6946
 10
330.7301
 20
560.9256
 10
331.4473
 20
560.1591
 10
332.1714
 20
559.3957
 10
332.9019
 20
558.6357
 10
333.6384
 20
557.8795
 10
334.3804
 20
557.1276
 10
335.1276
 20
556.3804
 10
335.8795
 20
555.6384
 10
336.6357
 20
554.9019
 10
337.3957
 20
554.1714
 10
338.1591
 20
553.4473
 10
338.9256
 20
552.7301
 10
339.6946
 20
552.0202
 10
340.4658
 20
551.318
 10
341.2387
 20
550.6239
 10
342.0129
 20
549.9383
 10
342.7879
 20
549.2618
 10
343.5634
 20
548.5946
 10
344.3389
 20
547.9374
 10
345.114
 20
547.2903
 10
345.8882
 20
546.654
 10
346.6611
 20
546.0288
 10
347.4323
 20
545.4152
 10
348.2014
 20
544.8135
 10
348.968
 20
544.2243
 10
349.7315
 20
543.6479
 10
350.4916
 20
543.0847
 10
351.2479
 20
542.5353
 10
352.0
 20
542.0
 10
351.943
 20
542.8148
 10
351.8765
 20
543.6726
 10
351.8041
 20
544.5685
 10
351.7293
 20
545.4976
 10
351.6558
 20
546.4551
 10
351.5872
 20
547.4359
 10
351.527
 20
548.4352
 10
351.4789
 20
549.4482
 10
351.4465
 20
550.4698
 10
351.4334
 20
551.4953
 10
351.4431
 20
552.5196
 10
351.4793
 20
553.538
 10
351.5457
 20
554.5454
 10
351.6457
 20
555.537
 10
351.783
 20
556.508
 10
351.9612
 20
557.4533
 10
352.1839
 20
558.3681
 10
352.4547
 20
559.2475
 10
352.7772
 20
560.0865
 10
353.1551
 20
560.8804
 10
353.5918
 20
561.6241
 10
354.0911
 20
562.3129
 10
354.6564
 20
562.9417
 10
355.2915
 20
563.5057
 10
356.0
 20
564.0
 10
356.0
 20
560.0
 10
367.0
 20
562.0
 10
368.0
 20
562.0
 10
378.0
 20
560.0
 10
378.0
 20
564.0
 10
378.7064
 20
563.5069
 10
379.3401
 20
562.9437
 10
379.9046
 20
562.3153
 10
380.4034
 20
561.6268
 10
380.8402
 20
560.8829
 10
381.2184
 20
560.0887
 10
381.5416
 20
559.2491
 10
381.8133
 20
558.369
 10
382.0372
 20
557.4533
 10
382.2167
 20
556.5071
 10
382.3554
 20
555.5352
 10
382.4568
 20
554.5426
 10
382.5245
 20
553.5342
 10
382.5621
 20
552.515
 10
382.573
 20
551.4898
 10
382.5609
 20
550.4637
 10
382.5293
 20
549.4416
 10
382.4817
 20
548.4284
 10
382.4218
 20
547.429
 10
382.3529
 20
546.4484
 10
382.2787
 20
545.4915
 10
382.2028
 20
544.5633
 10
382.1287
 20
543.6686
 10
382.0599
 20
542.8126
 10
382.0
 20
542.0
 10
397.0
 20
557.0
 10
384.0
 20
556.0
 10
384.0
 20
561.0
 10
386.0
 20
559.0
 10
387.0
 20
559.0
 10
398.0
 20
561.0
 10
399.0
 20
560.0
 10
398.0
 20
558.0
 10
414.0
 20
574.0
 10
392.0
 20
574.0
 10
392.0
 20
570.0
 10
391.0
 20
570.0
 10
390.443
 20
570.593
 10
389.8727
 20
571.1185
 10
389.2914
 20
571.5823
 10
388.7015
 20
571.9906
 10
388.1052
 20
572.3493
 10
387.5049
 20
572.6644
 10
386.9029
 20
572.942
 10
386.3016
 20
573.1882
 10
385.7033
 20
573.4088
 10
385.1102
 20
573.61
 10
384.5248
 20
573.7978
 10
383.9493
 20
573.9781
 10
383.3861
 20
574.157
 10
382.8374
 20
574.3405
 10
382.3058
 20
574.5347
 10
381.7933
 20
574.7455
 10
381.3025
 20
574.979
 10
380.8356
 20
575.2412
 10
380.3949
 20
575.5382
 10
379.9827
 20
575.8758
 10
379.6015
 20
576.2602
 10
379.2535
 20
576.6974
 10
378.941
 20
577.1933
 10
378.6664
 20
577.7541
 10
378.432
 20
578.3857
 10
378.2401
 20
579.0942
 10
378.0931
 20
579.8855
 10
377.9932
 20
580.7657
 10
377.9428
 20
581.7409
 10
377.9443
 20
582.8169
 10
378.0
 20
584.0
 10
356.0
 20
584.0
  0
LWPOLYLINE
  5
4B
330
17
100
AcDbEntity
  8
0
100
AcDbPolyline
 90
5
 70
0
 10
192.0
 20
578.0
 10
192.0
 20
576.0
 10
227.0
 20
576.0
 10
227.0
 20
578.0
 10
192.0
 20
578.0
  0
LWPOLYLINE
  5
4C
330
17
100
AcDbEntity
  8
0
100
AcDbPolyline
 90
120
 70
0
 10
228.0
 20
578.0
 10
228.0
 20
444.0
 10
235.0
 20
447.0
 10
235.0
 20
420.0
 10
236.0
 20
420.0
 10
236.0
 20
447.0
 10
289.0
 20
447.0
 10
289.0
 20
449.0
 10
288.0175
 20
448.9979
 10
287.0322
 20
448.992
 10
286.0441
 20
448.9825
 10
285.0534
 20
448.9697
 10
284.0601
 20
448.9539
 10
283.0645
 20
448.9353
 10
282.0666
 20
448.9143
 10
281.0665
 20
448.8911
 10
280.0645
 20
448.866
 10
279.0605
 20
448.8393
 10
278.0547
 20
448.8113
 10
277.0473
 20
448.7822
 10
276.0383
 20
448.7524
 10
275.028
 20
448.7221
 10
274.0163
 20
448.6917
 10
273.0035
 20
448.6613
 10
271.9897
 20
448.6313
 10
270.9749
 20
448.602
 10
269.9594
 20
448.5736
 10
268.9432
 20
448.5464
 10
267.9264
 20
448.5208
 10
266.9092
 20
448.497
 10
265.8917
 20
448.4752
 10
264.8741
 20
448.4558
 10
263.8564
 20
448.4391
 10
262.8387
 20
448.4253
 10
261.8213
 20
448.4147
 10
260.8042
 20
448.4076
 10
259.7875
 20
448.4043
 10
258.7714
 20
448.4051
 10
257.7559
 20
448.4102
 10
256.7413
 20
448.4199
 10
255.7276
 20
448.4346
 10
254.715
 20
448.4545
 10
253.7035
 20
448.4798
 10
252.6934
 20
448.511
 10
251.6847
 20
448.5481
 10
250.6775
 20
448.5917
 10
249.672
 20
448.6418
 10
248.6683
 20
448.6988
 10
247.6665
 20
448.7631
 10
246.6668
 20
448.8348
 10
245.6692
 20
448.9142
 10
244.674
 20
449.0017
 10
243.6811
 20
449.0976
 10
242.6908
 20
449.202
 10
241.7031
 20
449.3153
 10
240.7182
 20
449.4378
 10
239.7363
 20
449.5698
 10
238.7573
 20
449.7115
 10
237.7815
 20
449.8632
 10
236.809
 20
450.0252
 10
235.8399
 20
450.1979
 10
234.8743
 20
450.3814
 10
233.9124
 20
450.576
 10
232.9542
 20
450.7821
 10
232.0
 20
451.0
 10
232.0
 20
455.0
 10
229.0
 20
455.0
 10
229.0
 20
520.0
 10
235.0
 20
523.0
 10
235.0
 20
527.0
 10
229.0
 20
530.0
 10
229.0051
 20
530.8386
 10
229.0201
 20
531.6977
 10
229.0442
 20
532.5762
 10
229.0767
 20
533.4732
 10
229.117
 20
534.3879
 10
229.1643
 20
535.3193
 10
229.2179
 20
536.2664
 10
229.2772
 20
537.2284
 10
229.3415
 20
538.2042
 10
229.41
 20
539.1931
 10
229.4822
 20
540.194
 10
229.5571
 20
541.206
 10
229.6343
 20
542.2282
 10
229.7129
 20
543.2597
 10
229.7924
 20
544.2995
 10
229.8719
 20
545.3468
 10
229.9508
 20
546.4005
 10
230.0284
 20
547.4599
 10
230.1041
 20
548.5238
 10
230.177
 20
549.5915
 10
230.2466
 20
550.6619
 10
230.3121
 20
551.7342
 10
230.3728
 20
552.8074
 10
230.428
 20
553.8806
 10
230.4771
 20
554.9529
 10
230.5194
 20
556.0234
 10
230.5541
 20
557.091
 10
230.5805
 20
558.155
 10
230.598
 20
559.2143
 10
230.6058
 20
560.2681
 10
230.6034
 20
561.3153
 10
230.5899
 20
562.3552
 10
230.5647
 20
563.3867
 10
230.527
 20
564.409
 10
230.4763
 20
565.421
 10
230.4117
 20
566.4219
 10
230.3327
 20
567.4108
 10
230.2384
 20
568.3867
 10
230.1283
 20
569.3487
 10
230.0016
 20
570.2959
 10
229.8575
 20
571.2273
 10
229.6956
 20
572.142
 10
229.5149
 20
573.0391
 10
229.3149
 20
573.9177
 10
229.0948
 20
574.7768
 10
228.854
 20
575.6155
 10
228.5917
 20
576.4329
 10
228.3072
 20
577.228
 10
228.0
 20
578.0
  0
LWPOLYLINE
  5
4D
330
17
100
AcDbEntity
  8
0
100
AcDbPolyline
 90
53
 70
0
 10
322.0
 20
573.0
 10
322.537
 20
572.2461
 10
323.0888
 20
571.4884
 10
323.6547
 20
570.7273
 10
324.2345
 20
569.9633
 10
324.8275
 20
569.1969
 10
325.4332
 20
568.4285
 10
326.0514
 20
567.6586
 10
326.6813
 20
566.8877
 10
327.3226
 20
566.1163
 10
327.9749
 20
565.3449
 10
328.6375
 20
564.5739
 10
329.3101
 20
563.8037
 10
329.9921
 20
563.035
 10
330.6832
 20
562.2681
 10
331.3827
 20
561.5035
 10
332.0903
 20
560.7417
 10
332.8054
 20
559.9832
 10
333.5277
 20
559.2284
 10
334.2565
 20
558.4779
 10
334.9915
 20
557.7321
 10
335.7321
 20
556.9915
 10
336.4779
 20
556.2565
 10
337.2284
 20
555.5277
 10
337.9832
 20
554.8054
 10
338.7417
 20
554.0903
 10
339.5035
 20
553.3827
 10
340.2681
 20
552.6832
 10
341.035
 20
551.9921
 10
341.8037
 20
551.3101
 10
342.5739
 20
550.6375
 10
343.3449
 20
549.9749
 10
344.1163
 20
549.3226
 10
344.8877
 20
548.6813
 10
345.6586
 20
548.0514
 10
346.4285
 20
547.4332
 10
347.1969
 20
546.8275
 10
347.9633
 20
546.2345
 10
348.7273
 20
545.6547
 10
349.4884
 20
545.0888
 10
350.2461
 20
544.537
 10
351.0
 20
544.0
 10
337.0
 20
559.0
 10
349.0
 20
559.0
 10
352.0
 20
563.0
 10
352.0
 20
564.0
 10
344.0
 20
570.0
 10
343.0
 20
570.0
 10
343.0
 20
564.0
 10
348.0
 20
564.0
 10
348.0
 20
563.0
 10
335.0
 20
561.0
 10
322.0
 20
573.0
  0
LWPOLYLINE
  5
4E
330
17
100
AcDbEntity
  8
0
100
AcDbPolyline
 90
100
 70
0
 10
356.0
 20
559.0
 10
356.0
 20
526.0
 10
352.0
 20
527.0
 10
352.0
 20
523.0
 10
351.1928
 20
523.2165
 10
350.3657
 20
523.3968
 10
349.52
 20
523.5436
 10
348.6571
 20
523.6595
 10
347.7783
 20
523.7471
 10
346.8851
 20
523.8091
 10
345.9789
 20
523.8481
 10
345.061
 20
523.8667
 10
344.1328
 20
523.8675
 10
343.1958
 20
523.8532
 10
342.2512
 20
523.8264
 10
341.3006
 20
523.7898
 10
340.3453
 20
523.7459
 10
339.3867
 20
523.6975
 10
338.4261
 20
523.6471
 10
337.465
 20
523.5973
 10
336.5048
 20
523.5509
 10
335.5468
 20
523.5104
 10
334.5925
 20
523.4785
 10
333.6431
 20
523.4577
 10
332.7002
 20
523.4508
 10
331.7651
 20
523.4604
 10
330.8392
 20
523.4891
 10
329.9239
 20
523.5395
 10
329.0206
 20
523.6142
 10
328.1306
 20
523.7159
 10
327.2554
 20
523.8473
 10
326.3964
 20
524.0109
 10
325.5549
 20
524.2094
 10
324.7323
 20
524.4454
 10
323.93
 20
524.7216
 10
323.1495
 20
525.0405
 10
322.392
 20
525.4049
 10
321.6591
 20
525.8173
 10
320.952
 20
526.2803
 10
320.2722
 20
526.7967
 10
319.621
 20
527.3691
 10
319.0
 20
528.0
 10
318.8739
 20
527.3437
 10
318.8222
 20
526.7211
 10
318.8424
 20
526.1316
 10
318.9319
 20
525.5744
 10
319.0883
 20
525.049
 10
319.309
 20
524.5546
 10
319.5916
 20
524.0905
 10
319.9334
 20
523.6562
 10
320.3321
 20
523.2508
 10
320.7851
 20
522.8738
 10
321.2898
 20
522.5246
 10
321.8439
 20
522.2023
 10
322.4447
 20
521.9064
 10
323.0897
 20
521.6361
 10
323.7765
 20
521.3909
 10
324.5026
 20
521.17
 10
325.2653
 20
520.9728
 10
326.0623
 20
520.7987
 10
326.8909
 20
520.6468
 10
327.7488
 20
520.5166
 10
328.6333
 20
520.4074
 10
329.542
 20
520.3186
 10
330.4723
 20
520.2494
 10
331.4218
 20
520.1992
 10
332.388
 20
520.1673
 10
333.3682
 20
520.1531
 10
334.3601
 20
520.1559
 10
335.3611
 20
520.175
 10
336.3686
 20
520.2097
 10
337.3803
 20
520.2595
 10
338.3935
 20
520.3235
 10
339.4058
 20
520.4012
 10
340.4146
 20
520.4919
 10
341.4175
 20
520.5948
 10
342.4119
 20
520.7094
 10
343.3953
 20
520.835
 10
344.3652
 20
520.9709
 10
345.3191
 20
521.1164
 10
346.2545
 20
521.2708
 10
347.1689
 20
521.4336
 10
348.0597
 20
521.604
 10
348.9245
 20
521.7813
 10
349.7607
 20
521.965
 10
350.5659
 20
522.1542
 10
351.3375
 20
522.3484
 10
352.0729
 20
522.5469
 10
352.7698
 20
522.749
 10
353.4256
 20
522.954
 10
354.0378
 20
523.1613
 10
354.6038
 20
523.3703
 10
355.1212
 20
523.5801
 10
355.5874
 20
523.7902
 10
356.0
 20
524.0
 10
356.0
 20
515.0
 10
365.972229
 20
516.603394
 10
367.0
 20
528.0
 10
367.0
 20
559.0
 10
356.0
 20
559.0
  0
LWPOLYLINE
  5
4F
330
17
100
AcDbEntity
  8
0
100
AcDbPolyline
 90
99
 70
0
 10
368.0
 20
559.0
 10
368.0
 20
515.0
 10
378.0
 20
515.0
 10
378.0
 20
524.0
 10
378.4125
 20
523.7902
 10
378.8787
 20
523.5801
 10
379.3961
 20
523.3703
 10
379.9621
 20
523.1613
 10
380.5743
 20
522.954
 10
381.23
 20
522.749
 10
381.9269
 20
522.5469
 10
382.6624
 20
522.3484
 10
383.434
 20
522.1542
 10
384.2391
 20
521.965
 10
385.0754
 20
521.7813
 10
385.9402
 20
521.604
 10
386.831
 20
521.4336
 10
387.7454
 20
521.2708
 10
388.6807
 20
521.1164
 10
389.6347
 20
520.9709
 10
390.6046
 20
520.835
 10
391.588
 20
520.7094
 10
392.5824
 20
520.5948
 10
393.5852
 20
520.4919
 10
394.5941
 20
520.4012
 10
395.6063
 20
520.3235
 10
396.6196
 20
520.2595
 10
397.6312
 20
520.2097
 10
398.6388
 20
520.175
 10
399.6397
 20
520.1559
 10
400.6316
 20
520.1531
 10
401.6119
 20
520.1673
 10
402.578
 20
520.1992
 10
403.5275
 20
520.2494
 10
404.4578
 20
520.3186
 10
405.3665
 20
520.4074
 10
406.2511
 20
520.5166
 10
407.1089
 20
520.6468
 10
407.9376
 20
520.7987
 10
408.7345
 20
520.9728
 10
409.4973
 20
521.17
 10
410.2233
 20
521.3909
 10
410.9101
 20
521.6361
 10
411.5552
 20
521.9064
 10
412.156
 20
522.2023
 10
412.71
 20
522.5246
 10
413.2148
 20
522.8738
 10
413.6678
 20
523.2508
 10
414.0664
 20
523.6562
 10
414.4083
 20
524.0905
 10
414.6909
 20
524.5546
 10
414.9116
 20
525.049
 10
415.068
 20
525.5744
 10
415.1575
 20
526.1316
 10
415.1777
 20
526.7211
 10
415.126
 20
527.3437
 10
415.0
 20
528.0
 10
414.3788
 20
527.3691
 10
413.7277
 20
526.7967
 10
413.0479
 20
526.2803
 10
412.3408
 20
525.8173
 10
411.6078
 20
525.4049
 10
410.8504
 20
525.0405
 10
410.0698
 20
524.7216
 10
409.2676
 20
524.4454
 10
408.445
 20
524.2094
 10
407.6035
 20
524.0109
 10
406.7444
 20
523.8473
 10
405.8692
 20
523.7159
 10
404.9793
 20
523.6142
 10
404.0759
 20
523.5395
 10
403.1606
 20
523.4891
 10
402.2347
 20
523.4604
 10
401.2996
 20
523.4508
 10
400.3567
 20
523.4577
 10
399.4074
 20
523.4785
 10
398.4531
 20
523.5104
 10
397.4951
 20
523.5509
 10
396.5349
 20
523.5973
 10
395.5738
 20
523.6471
 10
394.6132
 20
523.6975
 10
393.6546
 20
523.7459
 10
392.6993
 20
523.7898
 10
391.7487
 20
523.8264
 10
390.8041
 20
523.8532
 10
389.8671
 20
523.8675
 10
388.9389
 20
523.8667
 10
388.021
 20
523.8481
 10
387.1148
 20
523.8091
 10
386.2216
 20
523.7471
 10
385.3428
 20
523.6595
 10
384.4799
 20
523.5436
 10
383.6342
 20
523.3968
 10
382.8071
 20
523.2165
 10
382.0
 20
523.0
 10
382.0
 20
527.0
 10
378.0
 20
526.0
 10
378.0
 20
559.0
 10
368.0
 20
559.0
  0
LWPOLYLINE
  5
50
330
17
100
AcDbEntity
  8
0
100
AcDbPolyline
 90
301
 70
0
 10
542.0
 20
551.0
 10
542.1767
 20
550.0165
 10
542.3673
 20
549.0353
 10
542.571
 20
548.0562
 10
542.7871
 20
547.0791
 10
543.0149
 20
546.1037
 10
543.2535
 20
545.1301
 10
543.5024
 20
544.158
 10
543.7606
 20
543.1872
 10
544.0275
 20
542.2178
 10
544.3023
 20
541.2494
 10
544.5843
 20
540.282
 10
544.8728
 20
539.3154
 10
545.167
 20
538.3494
 10
545.4661
 20
537.3841
 10
545.7694
 20
536.4191
 10
546.0762
 20
535.4543
 10
546.3857
 20
534.4897
 10
546.6972
 20
533.525
 10
547.0099
 20
532.5601
 10
547.3232
 20
531.595
 10
547.6362
 20
530.6293
 10
547.9482
 20
529.6631
 10
548.2584
 20
528.6961
 10
548.5662
 20
527.7282
 10
548.8708
 20
526.7593
 10
549.1714
 20
525.7892
 10
549.4673
 20
524.8178
 10
549.7578
 20
523.845
 10
550.042
 20
522.8705
 10
550.3194
 20
521.8943
 10
550.589
 20
520.9162
 10
550.8502
 20
519.936
 10
551.1023
 20
518.9537
 10
551.3445
 20
517.9691
 10
551.576
 20
516.982
 10
551.7961
 20
515.9923
 10
552.0041
 20
514.9999
 10
552.1992
 20
514.0046
 10
552.3806
 20
513.0063
 10
552.5478
 20
512.0048
 10
552.6998
 20
511.0
 10
552.8477
 20
509.945
 10
552.9889
 20
508.8932
 10
553.1233
 20
507.8444
 10
553.2511
 20
506.7986
 10
553.3722
 20
505.7558
 10
553.4868
 20
504.716
 10
553.5948
 20
503.679
 10
553.6964
 20
502.6448
 10
553.7915
 20
501.6134
 10
553.8803
 20
500.5847
 10
553.9628
 20
499.5587
 10
554.039
 20
498.5353
 10
554.109
 20
497.5144
 10
554.1728
 20
496.4961
 10
554.2305
 20
495.4803
 10
554.2821
 20
494.4669
 10
554.3277
 20
493.4559
 10
554.3674
 20
492.4472
 10
554.4012
 20
491.4408
 10
554.4291
 20
490.4366
 10
554.4512
 20
489.4346
 10
554.4675
 20
488.4347
 10
554.4782
 20
487.4369
 10
554.4832
 20
486.4411
 10
554.4826
 20
485.4473
 10
554.4764
 20
484.4555
 10
554.4648
 20
483.4655
 10
554.4477
 20
482.4774
 10
554.4253
 20
481.491
 10
554.3974
 20
480.5064
 10
554.3643
 20
479.5235
 10
554.326
 20
478.5422
 10
554.2825
 20
477.5624
 10
554.2338
 20
476.5843
 10
554.1801
 20
475.6076
 10
554.1213
 20
474.6323
 10
554.0575
 20
473.6585
 10
553.9888
 20
472.686
 10
553.9153
 20
471.7147
 10
553.8369
 20
470.7448
 10
553.7537
 20
469.776
 10
553.6658
 20
468.8083
 10
553.5732
 20
467.8418
 10
553.4761
 20
466.8763
 10
553.3743
 20
465.9117
 10
553.268
 20
464.9482
 10
553.1573
 20
463.9855
 10
553.0422
 20
463.0237
 10
552.9226
 20
462.0626
 10
552.7988
 20
461.1024
 10
552.6707
 20
460.1428
 10
552.5384
 20
459.1839
 10
552.402
 20
458.2255
 10
552.2614
 20
457.2678
 10
552.1168
 20
456.3105
 10
551.9682
 20
455.3537
 10
551.8156
 20
454.3973
 10
551.6592
 20
453.4412
 10
551.4988
 20
452.4854
 10
551.3347
 20
451.5299
 10
551.1669
 20
450.5746
 10
550.9953
 20
449.6195
 10
550.8201
 20
448.6645
 10
550.6413
 20
447.7095
 10
550.459
 20
446.7545
 10
550.2732
 20
445.7995
 10
550.0839
 20
444.8444
 10
549.8913
 20
443.8892
 10
549.6953
 20
442.9338
 10
549.496
 20
441.9781
 10
549.2936
 20
441.0222
 10
549.0879
 20
440.0659
 10
548.8791
 20
439.1092
 10
548.6672
 20
438.1521
 10
548.4523
 20
437.1945
 10
548.2344
 20
436.2364
 10
548.0136
 20
435.2777
 10
547.79
 20
434.3184
 10
547.5635
 20
433.3584
 10
547.3342
 20
432.3976
 10
547.1023
 20
431.4361
 10
546.8676
 20
430.4738
 10
546.6304
 20
429.5105
 10
546.3905
 20
428.5464
 10
546.1482
 20
427.5812
 10
545.9034
 20
426.6151
 10
545.6562
 20
425.6478
 10
545.4067
 20
424.6795
 10
545.1548
 20
423.7099
 10
544.9007
 20
422.7392
 10
544.6444
 20
421.7671
 10
544.3859
 20
420.7938
 10
544.1254
 20
419.819
 10
543.8628
 20
418.8429
 10
543.5982
 20
417.8653
 10
543.3316
 20
416.8861
 10
543.0632
 20
415.9054
 10
542.7929
 20
414.9231
 10
542.5208
 20
413.9391
 10
542.247
 20
412.9534
 10
541.9715
 20
411.9659
 10
541.6943
 20
410.9766
 10
541.4156
 20
409.9854
 10
541.1353
 20
408.9924
 10
540.8536
 20
407.9973
 10
540.5704
 20
407.0003
 10
540.2858
 20
406.0012
 10
540.0
 20
405.0
 10
541.0
 20
405.0
 10
541.3882
 20
405.9539
 10
541.7707
 20
406.9081
 10
542.1475
 20
407.8626
 10
542.5184
 20
408.8174
 10
542.8837
 20
409.7726
 10
543.2432
 20
410.728
 10
543.597
 20
411.6838
 10
543.9452
 20
412.6399
 10
544.2877
 20
413.5963
 10
544.6246
 20
414.5531
 10
544.9558
 20
415.5103
 10
545.2815
 20
416.4678
 10
545.6016
 20
417.4257
 10
545.9161
 20
418.3839
 10
546.2251
 20
419.3425
 10
546.5286
 20
420.3016
 10
546.8266
 20
421.261
 10
547.1191
 20
422.2208
 10
547.4062
 20
423.181
 10
547.6878
 20
424.1417
 10
547.964
 20
425.1028
 10
548.2348
 20
426.0643
 10
548.5003
 20
427.0262
 10
548.7603
 20
427.9886
 10
549.0151
 20
428.9514
 10
549.2645
 20
429.9147
 10
549.5086
 20
430.8785
 10
549.7475
 20
431.8427
 10
549.9811
 20
432.8074
 10
550.2094
 20
433.7726
 10
550.4326
 20
434.7383
 10
550.6505
 20
435.7045
 10
550.8632
 20
436.6712
 10
551.0709
 20
437.6384
 10
551.2733
 20
438.6062
 10
551.4707
 20
439.5744
 10
551.6629
 20
440.5432
 10
551.8501
 20
441.5126
 10
552.0322
 20
442.4825
 10
552.2092
 20
443.4529
 10
552.3813
 20
444.424
 10
552.5483
 20
445.3955
 10
552.7104
 20
446.3677
 10
552.8675
 20
447.3405
 10
553.0196
 20
448.3138
 10
553.1669
 20
449.2877
 10
553.3092
 20
450.2623
 10
553.4467
 20
451.2374
 10
553.5793
 20
452.2132
 10
553.707
 20
453.1896
 10
553.83
 20
454.1667
 10
553.9481
 20
455.1443
 10
554.0615
 20
456.1227
 10
554.17
 20
457.1017
 10
554.2739
 20
458.0813
 10
554.373
 20
459.0616
 10
554.4674
 20
460.0426
 10
554.5572
 20
461.0243
 10
554.6422
 20
462.0066
 10
554.7227
 20
462.9897
 10
554.7985
 20
463.9734
 10
554.8697
 20
464.9579
 10
554.9363
 20
465.9431
 10
554.9983
 20
466.929
 10
555.0558
 20
467.9157
 10
555.1088
 20
468.9031
 10
555.1573
 20
469.8912
 10
555.2013
 20
470.8801
 10
555.2408
 20
471.8697
 10
555.2759
 20
472.8601
 10
555.3065
 20
473.8513
 10
555.3328
 20
474.8433
 10
555.3547
 20
475.836
 10
555.3721
 20
476.8296
 10
555.3853
 20
477.8239
 10
555.3941
 20
478.8191
 10
555.3986
 20
479.815
 10
555.3989
 20
480.8118
 10
555.3948
 20
481.8095
 10
555.3865
 20
482.8079
 10
555.374
 20
483.8072
 10
555.3573
 20
484.8074
 10
555.3364
 20
485.8084
 10
555.3113
 20
486.8103
 10
555.2821
 20
487.813
 10
555.2487
 20
488.8167
 10
555.2113
 20
489.8212
 10
555.1697
 20
490.8266
 10
555.1241
 20
491.8329
 10
555.0744
 20
492.8401
 10
555.0207
 20
493.8482
 10
554.963
 20
494.8573
 10
554.9013
 20
495.8673
 10
554.8356
 20
496.8782
 10
554.766
 20
497.89
 10
554.6924
 20
498.9028
 10
554.615
 20
499.9166
 10
554.5336
 20
500.9313
 10
554.4484
 20
501.947
 10
554.3593
 20
502.9637
 10
554.2664
 20
503.9813
 10
554.1697
 20
505.0
 10
554.0803
 20
505.9137
 10
553.9878
 20
506.8386
 10
553.892
 20
507.774
 10
553.7925
 20
508.7194
 10
553.6891
 20
509.6742
 10
553.5816
 20
510.6376
 10
553.4698
 20
511.6093
 10
553.3532
 20
512.5884
 10
553.2318
 20
513.5745
 10
553.1053
 20
514.5669
 10
552.9733
 20
515.565
 10
552.8357
 20
516.5683
 10
552.6922
 20
517.5761
 10
552.5426
 20
518.5877
 10
552.3865
 20
519.6027
 10
552.2239
 20
520.6204
 10
552.0543
 20
521.6402
 10
551.8775
 20
522.6615
 10
551.6934
 20
523.6836
 10
551.5015
 20
524.7061
 10
551.3018
 20
525.7282
 10
551.0939
 20
526.7495
 10
550.8776
 20
527.7692
 10
550.6527
 20
528.7867
 10
550.4188
 20
529.8016
 10
550.1758
 20
530.8131
 10
549.9233
 20
531.8206
 10
549.6612
 20
532.8237
 10
549.3891
 20
533.8215
 10
549.1069
 20
534.8137
 10
548.8142
 20
535.7994
 10
548.5109
 20
536.7782
 10
548.1966
 20
537.7495
 10
547.8712
 20
538.7125
 10
547.5343
 20
539.6669
 10
547.1857
 20
540.6118
 10
546.8252
 20
541.5467
 10
546.4525
 20
542.4711
 10
546.0674
 20
543.3843
 10
545.6696
 20
544.2857
 10
545.2588
 20
545.1747
 10
544.8349
 20
546.0507
 10
544.3975
 20
546.9131
 10
543.9464
 20
547.7613
 10
543.4813
 20
548.5947
 10
543.0021
 20
549.4127
 10
542.5084
 20
550.2146
 10
542.0
 20
551.0
  0
LWPOLYLINE
  5
51
330
17
100
AcDbEntity
  8
0
100
AcDbPolyline
 90
1003
 70
0
 10
413.0
 20
490.0
 10
412.6245
 20
488.9859
 10
412.2076
 20
488.0287
 10
411.7495
 20
487.1279
 10
411.2502
 20
486.2828
 10
410.7099
 20
485.493
 10
410.1286
 20
484.7579
 10
409.5066
 20
484.0769
 10
408.8438
 20
483.4495
 10
408.1404
 20
482.8751
 10
407.3964
 20
482.3532
 10
406.6121
 20
481.8831
 10
405.7875
 20
481.4645
 10
404.9227
 20
481.0966
 10
404.0179
 20
480.779
 10
403.0731
 20
480.5111
 10
402.0884
 20
480.2923
 10
401.064
 20
480.1221
 10
400.0
 20
480.0
 10
400.0
 20
469.0
 10
411.0
 20
469.0
 10
410.6819
 20
467.9949
 10
410.3118
 20
467.0521
 10
409.8901
 20
466.1707
 10
409.4175
 20
465.3502
 10
408.8947
 20
464.5898
 10
408.3221
 20
463.8889
 10
407.7005
 20
463.2467
 10
407.0304
 20
462.6627
 10
406.3126
 20
462.136
 10
405.5475
 20
461.6661
 10
404.7358
 20
461.2523
 10
403.8781
 20
460.8938
 10
402.9751
 20
460.59
 10
402.0273
 20
460.3402
 10
401.0354
 20
460.1438
 10
400.0
 20
460.0
 10
400.0
 20
451.0
 10
396.0
 20
451.0
 10
396.0
 20
454.0
 10
389.0
 20
454.0
 10
389.0
 20
451.0
 10
387.7318
 20
451.0161
 10
386.5647
 20
451.0109
 10
385.4963
 20
450.9854
 10
384.5242
 20
450.9407
 10
383.6461
 20
450.878
 10
382.8596
 20
450.7983
 10
382.1624
 20
450.7029
 10
381.5522
 20
450.5928
 10
381.0266
 20
450.4691
 10
380.5833
 20
450.3329
 10
380.2199
 20
450.1855
 10
379.9341
 20
450.0278
 10
379.7236
 20
449.861
 10
379.586
 20
449.6863
 10
379.519
 20
449.5047
 10
379.5202
 20
449.3174
 10
379.5874
 20
449.1254
 10
379.7181
 20
448.93
 10
379.91
 20
448.7322
 10
380.1608
 20
448.5331
 10
380.4681
 20
448.3339
 10
380.8296
 20
448.1357
 10
381.243
 20
447.9395
 10
381.7059
 20
447.7466
 10
382.216
 20
447.5581
 10
382.7709
 20
447.3749
 10
383.3683
 20
447.1984
 10
384.0059
 20
447.0295
 10
384.6812
 20
446.8695
 10
385.3921
 20
446.7194
 10
386.1361
 20
446.5803
 10
386.9109
 20
446.4534
 10
387.7141
 20
446.3398
 10
388.5434
 20
446.2406
 10
389.3966
 20
446.157
 10
390.2711
 20
446.09
 10
391.1648
 20
446.0407
 10
392.0751
 20
446.0103
 10
393.0
 20
446.0
 10
392.5797
 20
445.001
 10
392.1298
 20
444.0649
 10
391.6491
 20
443.1892
 10
391.1362
 20
442.3718
 10
390.59
 20
441.6103
 10
390.0094
 20
440.9025
 10
389.393
 20
440.246
 10
388.7397
 20
439.6385
 10
388.0483
 20
439.0778
 10
387.3176
 20
438.5615
 10
386.5463
 20
438.0874
 10
385.7333
 20
437.6532
 10
384.8773
 20
437.2566
 10
383.9772
 20
436.8952
 10
383.0318
 20
436.5669
 10
382.0397
 20
436.2692
 10
381.0
 20
436.0
 10
381.0
 20
430.0
 10
352.0
 20
430.0
 10
352.0
 20
435.0
 10
353.0958
 20
435.2311
 10
354.1238
 20
435.514
 10
355.0865
 20
435.8488
 10
355.986
 20
436.2353
 10
356.8248
 20
436.6737
 10
357.6052
 20
437.1641
 10
358.3294
 20
437.7065
 10
358.9999
 20
438.3008
 10
359.619
 20
438.9473
 10
360.189
 20
439.6459
 10
360.7122
 20
440.3967
 10
361.1909
 20
441.1997
 10
361.6276
 20
442.055
 10
362.0245
 20
442.9626
 10
362.384
 20
443.9226
 10
362.7084
 20
444.9351
 10
363.0
 20
446.0
 10
355.0
 20
446.0
 10
354.664368
 20
451.308624
 10
320.0
 20
451.0
 10
320.0
 20
445.0
 10
314.0
 20
445.0
 10
314.0
 20
409.0
 10
306.0
 20
409.0
 10
305.0
 20
389.0
 10
297.0
 20
394.0
 10
296.0
 20
394.0
 10
296.6085
 20
393.0062
 10
297.2403
 20
392.1202
 10
297.9007
 20
391.3366
 10
298.5948
 20
390.65
 10
299.3281
 20
390.0549
 10
300.1057
 20
389.5461
 10
300.933
 20
389.118
 10
301.8153
 20
388.7653
 10
302.7578
 20
388.4825
 10
303.7659
 20
388.2643
 10
304.8449
 20
388.1052
 10
306.0
 20
388.0
 10
305.0
 20
370.0
 10
297.0
 20
375.0
 10
296.0
 20
375.0
 10
296.6085
 20
374.0062
 10
297.2403
 20
373.1202
 10
297.9007
 20
372.3366
 10
298.5948
 20
371.65
 10
299.3281
 20
371.0549
 10
300.1057
 20
370.5461
 10
300.933
 20
370.118
 10
301.8153
 20
369.7653
 10
302.7578
 20
369.4825
 10
303.7659
 20
369.2643
 10
304.8449
 20
369.1052
 10
306.0
 20
369.0
 10
306.0
 20
379.0
 10
327.0
 20
379.0
 10
327.0
 20
373.0
 10
402.0
 20
373.0
 10
402.0
 20
402.0
 10
504.0
 20
402.0
 10
504.1977
 20
401.0303
 10
504.3968
 20
400.0752
 10
504.5935
 20
399.1347
 10
504.7834
 20
398.209
 10
504.9627
 20
397.2979
 10
505.1273
 20
396.4014
 10
505.2731
 20
395.5197
 10
505.396
 20
394.6528
 10
505.4921
 20
393.8005
 10
505.5572
 20
392.963
 10
505.5873
 20
392.1403
 10
505.5783
 20
391.3324
 10
505.5262
 20
390.5393
 10
505.427
 20
389.761
 10
505.2765
 20
388.9975
 10
505.0707
 20
388.2489
 10
504.8057
 20
387.5152
 10
504.4772
 20
386.7964
 10
504.0813
 20
386.0925
 10
503.6139
 20
385.4035
 10
503.071
 20
384.7295
 10
502.4485
 20
384.0704
 10
501.7423
 20
383.4263
 10
500.9484
 20
382.7972
 10
500.0628
 20
382.1831
 10
499.0813
 20
381.584
 10
498.0
 20
381.0
 10
498.0
 20
375.0
 10
501.0
 20
375.0
 10
501.0
 20
365.0
 10
500.0171
 20
365.0023
 10
499.0309
 20
365.0092
 10
498.0417
 20
365.0202
 10
497.0495
 20
365.0348
 10
496.0546
 20
365.0526
 10
495.057
 20
365.0732
 10
494.057
 20
365.0961
 10
493.0547
 20
365.121
 10
492.0503
 20
365.1475
 10
491.0439
 20
365.175
 10
490.0357
 20
365.2032
 10
489.0259
 20
365.2316
 10
488.0146
 20
365.2599
 10
487.002
 20
365.2875
 10
485.9882
 20
365.3141
 10
484.9735
 20
365.3393
 10
483.9579
 20
365.3626
 10
482.9417
 20
365.3835
 10
481.925
 20
365.4018
 10
480.9079
 20
365.4169
 10
479.8907
 20
365.4284
 10
478.8735
 20
365.4359
 10
477.8564
 20
365.4389
 10
476.8397
 20
365.4371
 10
475.8234
 20
365.4301
 10
474.8078
 20
365.4173
 10
473.7929
 20
365.3984
 10
472.7791
 20
365.3729
 10
471.7663
 20
365.3405
 10
470.7549
 20
365.3007
 10
469.7449
 20
365.253
 10
468.7366
 20
365.1971
 10
467.73
 20
365.1325
 10
466.7254
 20
365.0588
 10
465.7228
 20
364.9755
 10
464.7226
 20
364.8823
 10
463.7248
 20
364.7787
 10
462.7295
 20
364.6644
 10
461.7371
 20
364.5388
 10
460.7475
 20
364.4015
 10
459.7611
 20
364.2522
 10
458.7779
 20
364.0903
 10
457.7981
 20
363.9156
 10
456.8218
 20
363.7274
 10
455.8493
 20
363.5255
 10
454.8807
 20
363.3094
 10
453.9162
 20
363.0787
 10
452.9559
 20
362.8329
 10
452.0
 20
362.5717
 10
451.0356
 20
362.2899
 10
450.0763
 20
361.9907
 10
449.1221
 20
361.6749
 10
448.1728
 20
361.343
 10
447.2282
 20
360.9956
 10
446.2883
 20
360.6333
 10
445.3528
 20
360.2569
 10
444.4217
 20
359.8668
 10
443.4949
 20
359.4638
 10
442.5721
 20
359.0484
 10
441.6533
 20
358.6212
 10
440.7384
 20
358.183
 10
439.8271
 20
357.7342
 10
438.9194
 20
357.2756
 10
438.0151
 20
356.8077
 10
437.1142
 20
356.3313
 10
436.2164
 20
355.8468
 10
435.3217
 20
355.3549
 10
434.4298
 20
354.8563
 10
433.5408
 20
354.3516
 10
432.6544
 20
353.8413
 10
431.7704
 20
353.3262
 10
430.8889
 20
352.8068
 10
430.0096
 20
352.2837
 10
429.1325
 20
351.7577
 10
428.2573
 20
351.2292
 10
427.3839
 20
350.699
 10
426.5123
 20
350.1676
 10
425.6423
 20
349.6357
 10
424.7737
 20
349.1038
 10
423.9064
 20
348.5727
 10
423.0403
 20
348.043
 10
422.1753
 20
347.5151
 10
421.3112
 20
346.9899
 10
420.4479
 20
346.4679
 10
419.5853
 20
345.9497
 10
418.7231
 20
345.4359
 10
417.8614
 20
344.9272
 10
417.0
 20
344.4243
 10
416.1227
 20
343.9154
 10
415.2451
 20
343.4069
 10
414.3674
 20
342.8989
 10
413.4894
 20
342.3912
 10
412.6112
 20
341.8839
 10
411.7327
 20
341.3769
 10
410.8541
 20
340.8702
 10
409.9753
 20
340.3639
 10
409.0962
 20
339.8579
 10
408.2171
 20
339.3521
 10
407.3377
 20
338.8466
 10
406.4582
 20
338.3414
 10
405.5785
 20
337.8364
 10
404.6988
 20
337.3316
 10
403.8188
 20
336.8271
 10
402.9388
 20
336.3227
 10
402.0587
 20
335.8185
 10
401.1785
 20
335.3144
 10
400.2981
 20
334.8105
 10
399.4177
 20
334.3067
 10
398.5373
 20
333.8031
 10
397.6567
 20
333.2995
 10
396.7762
 20
332.796
 10
395.8955
 20
332.2926
 10
395.0149
 20
331.7892
 10
394.1342
 20
331.2858
 10
393.2535
 20
330.7825
 10
392.3729
 20
330.2792
 10
391.4922
 20
329.7759
 10
390.6115
 20
329.2725
 10
389.7309
 20
328.7691
 10
388.8503
 20
328.2656
 10
387.9698
 20
327.7621
 10
387.0893
 20
327.2584
 10
386.2088
 20
326.7547
 10
385.3285
 20
326.2508
 10
384.4482
 20
325.7468
 10
383.568
 20
325.2426
 10
382.688
 20
324.7383
 10
381.808
 20
324.2338
 10
380.9282
 20
323.729
 10
380.0485
 20
323.2241
 10
379.1689
 20
322.7189
 10
378.2895
 20
322.2135
 10
377.4102
 20
321.7078
 10
376.5312
 20
321.2019
 10
375.6523
 20
320.6956
 10
374.7735
 20
320.189
 10
373.895
 20
319.6822
 10
373.0167
 20
319.1749
 10
372.1386
 20
318.6673
 10
371.2608
 20
318.1594
 10
370.3832
 20
317.651
 10
369.5058
 20
317.1423
 10
368.6287
 20
316.6331
 10
367.7518
 20
316.1235
 10
366.8752
 20
315.6134
 10
365.9989
 20
315.1029
 10
365.1229
 20
314.5919
 10
364.2472
 20
314.0803
 10
363.3718
 20
313.5683
 10
362.4968
 20
313.0558
 10
361.622
 20
312.5427
 10
360.7477
 20
312.029
 10
359.8736
 20
311.5148
 10
359.0
 20
311.0
 10
359.0
 20
310.0
 10
408.0
 20
337.719147
 10
428.0
 20
348.0
 10
428.6668
 20
348.7054
 10
429.3451
 20
349.3907
 10
430.0344
 20
350.0561
 10
430.7346
 20
350.7018
 10
431.4455
 20
351.3282
 10
432.1669
 20
351.9356
 10
432.8985
 20
352.5242
 10
433.6402
 20
353.0943
 10
434.3916
 20
353.6462
 10
435.1527
 20
354.1802
 10
435.9232
 20
354.6966
 10
436.7028
 20
355.1957
 10
437.4914
 20
355.6776
 10
438.2888
 20
356.1428
 10
439.0946
 20
356.5916
 10
439.9088
 20
357.0241
 10
440.7311
 20
357.4407
 10
441.5613
 20
357.8416
 10
442.3991
 20
358.2273
 10
443.2444
 20
358.5978
 10
444.0969
 20
358.9536
 10
444.9565
 20
359.2948
 10
445.8228
 20
359.6219
 10
446.6958
 20
359.935
 10
447.5751
 20
360.2345
 10
448.4606
 20
360.5206
 10
449.352
 20
360.7937
 10
450.2492
 20
361.054
 10
451.1519
 20
361.3017
 10
452.0599
 20
361.5373
 10
452.973
 20
361.7609
 10
453.8909
 20
361.9728
 10
454.8135
 20
362.1734
 10
455.7405
 20
362.3629
 10
456.6718
 20
362.5417
 10
457.6071
 20
362.7099
 10
458.5462
 20
362.8678
 10
459.4888
 20
363.0159
 10
460.4348
 20
363.1543
 10
461.384
 20
363.2833
 10
462.3361
 20
363.4032
 10
463.2909
 20
363.5143
 10
464.2483
 20
363.6169
 10
465.2079
 20
363.7112
 10
466.1696
 20
363.7976
 10
467.1331
 20
363.8764
 10
468.0983
 20
363.9477
 10
469.0649
 20
364.012
 10
470.0328
 20
364.0694
 10
471.0016
 20
364.1203
 10
471.9712
 20
364.165
 10
472.9414
 20
364.2037
 10
473.912
 20
364.2368
 10
474.8826
 20
364.2644
 10
475.8532
 20
364.287
 10
476.8236
 20
364.3047
 10
477.7934
 20
364.3179
 10
478.7624
 20
364.3269
 10
479.7306
 20
364.3319
 10
480.6976
 20
364.3332
 10
481.6632
 20
364.3311
 10
482.6272
 20
364.3259
 10
483.5894
 20
364.3178
 10
484.5497
 20
364.3072
 10
485.5077
 20
364.2944
 10
486.4632
 20
364.2796
 10
487.4161
 20
364.2631
 10
488.3661
 20
364.2452
 10
489.3131
 20
364.2262
 10
490.2567
 20
364.2063
 10
491.1968
 20
364.1859
 10
492.1332
 20
364.1652
 10
493.0656
 20
364.1446
 10
493.9938
 20
364.1242
 10
494.9177
 20
364.1044
 10
495.837
 20
364.0855
 10
496.7514
 20
364.0678
 10
497.6609
 20
364.0515
 10
498.5651
 20
364.0369
 10
499.4638
 20
364.0244
 10
500.3569
 20
364.0141
 10
501.2441
 20
364.0064
 10
502.1252
 20
364.0016
 10
503.0
 20
364.0
 10
503.0
 20
362.0
 10
502.0223
 20
362.0025
 10
501.0407
 20
362.0098
 10
500.0556
 20
362.0215
 10
499.067
 20
362.0372
 10
498.0751
 20
362.0565
 10
497.0801
 20
362.0788
 10
496.0821
 20
362.1039
 10
495.0815
 20
362.1313
 10
494.0783
 20
362.1606
 10
493.0727
 20
362.1913
 10
492.0649
 20
362.2231
 10
491.0552
 20
362.2555
 10
490.0436
 20
362.2882
 10
489.0304
 20
362.3206
 10
488.0157
 20
362.3524
 10
486.9997
 20
362.3832
 10
485.9827
 20
362.4125
 10
484.9647
 20
362.44
 10
483.946
 20
362.4652
 10
482.9268
 20
362.4877
 10
481.9072
 20
362.5071
 10
480.8874
 20
362.5229
 10
479.8676
 20
362.5348
 10
478.848
 20
362.5424
 10
477.8288
 20
362.5451
 10
476.8101
 20
362.5427
 10
475.7922
 20
362.5346
 10
474.7751
 20
362.5205
 10
473.7592
 20
362.5
 10
472.7445
 20
362.4726
 10
471.7313
 20
362.4379
 10
470.7197
 20
362.3955
 10
469.71
 20
362.3451
 10
468.7022
 20
362.286
 10
467.6967
 20
362.2181
 10
466.6935
 20
362.1407
 10
465.6929
 20
362.0536
 10
464.695
 20
361.9563
 10
463.7
 20
361.8484
 10
462.7081
 20
361.7295
 10
461.7195
 20
361.5991
 10
460.7344
 20
361.4568
 10
459.7529
 20
361.3023
 10
458.7753
 20
361.1351
 10
457.8016
 20
360.9547
 10
456.8322
 20
360.7608
 10
455.8671
 20
360.553
 10
454.9066
 20
360.3309
 10
453.9508
 20
360.0939
 10
453.0
 20
359.8418
 10
452.0028
 20
359.5542
 10
451.019
 20
359.2428
 10
450.0477
 20
358.9092
 10
449.088
 20
358.5548
 10
448.139
 20
358.1812
 10
447.1998
 20
357.7898
 10
446.2694
 20
357.3823
 10
445.3469
 20
356.96
 10
444.4316
 20
356.5246
 10
443.5223
 20
356.0775
 10
442.6182
 20
355.6202
 10
441.7185
 20
355.1543
 10
440.8222
 20
354.6813
 10
439.9283
 20
354.2027
 10
439.036
 20
353.7199
 10
438.1444
 20
353.2346
 10
437.2526
 20
352.7482
 10
436.3596
 20
352.2622
 10
435.4645
 20
351.7782
 10
434.5665
 20
351.2977
 10
433.6646
 20
350.8221
 10
432.7579
 20
350.3531
 10
431.8455
 20
349.892
 10
430.9265
 20
349.4405
 10
430.0
 20
349.0
 10
430.0
 20
348.0
 10
430.9783
 20
348.3185
 10
431.9442
 20
348.6501
 10
432.8983
 20
348.9939
 10
433.8413
 20
349.3486
 10
434.7741
 20
349.7135
 10
435.6975
 20
350.0873
 10
436.612
 20
350.4692
 10
437.5186
 20
350.858
 10
438.418
 20
351.2529
 10
439.3109
 20
351.6527
 10
440.1981
 20
352.0565
 10
441.0803
 20
352.4632
 10
441.9584
 20
352.8719
 10
442.833
 20
353.2814
 10
443.7049
 20
353.6909
 10
444.5749
 20
354.0992
 10
445.4437
 20
354.5054
 10
446.3121
 20
354.9085
 10
447.1809
 20
355.3074
 10
448.0508
 20
355.7011
 10
448.9225
 20
356.0886
 10
449.7968
 20
356.469
 10
450.6746
 20
356.8411
 10
451.5564
 20
357.204
 10
452.4432
 20
357.5566
 10
453.3356
 20
357.8979
 10
454.2344
 20
358.227
 10
455.1403
 20
358.5428
 10
456.0542
 20
358.8443
 10
456.9768
 20
359.1305
 10
457.9088
 20
359.4003
 10
458.851
 20
359.6528
 10
459.8041
 20
359.8869
 10
460.7689
 20
360.1016
 10
461.7462
 20
360.2959
 10
462.7368
 20
360.4689
 10
463.7413
 20
360.6194
 10
464.7605
 20
360.7464
 10
465.7952
 20
360.849
 10
466.8462
 20
360.9261
 10
467.9142
 20
360.9768
 10
469.0
 20
361.0
 10
469.0
 20
360.0
 10
468.0973
 20
359.9059
 10
467.1848
 20
359.782
 10
466.2633
 20
359.6292
 10
465.3337
 20
359.4485
 10
464.3969
 20
359.2409
 10
463.4539
 20
359.0071
 10
462.5054
 20
358.7483
 10
461.5524
 20
358.4654
 10
460.5959
 20
358.1592
 10
459.6366
 20
357.8308
 10
458.6756
 20
357.481
 10
457.7136
 20
357.1109
 10
456.7517
 20
356.7213
 10
455.7906
 20
356.3133
 10
454.8314
 20
355.8877
 10
453.8748
 20
355.4456
 10
452.9218
 20
354.9878
 10
451.9733
 20
354.5152
 10
451.0302
 20
354.029
 10
450.0934
 20
353.5299
 10
449.1638
 20
353.0189
 10
448.2423
 20
352.497
 10
447.3297
 20
351.9651
 10
446.427
 20
351.4242
 10
445.5351
 20
350.8752
 10
444.6549
 20
350.3191
 10
443.7872
 20
349.7567
 10
442.933
 20
349.1891
 10
442.0932
 20
348.6172
 10
441.2687
 20
348.0419
 10
440.4603
 20
347.4642
 10
439.669
 20
346.885
 10
438.8957
 20
346.3053
 10
438.1412
 20
345.726
 10
437.4065
 20
345.148
 10
436.6924
 20
344.5724
 10
436.0
 20
344.0
 10
436.8896
 20
344.0221
 10
437.7795
 20
344.0988
 10
438.6696
 20
344.2271
 10
439.5597
 20
344.404
 10
440.4497
 20
344.6264
 10
441.3395
 20
344.8915
 10
442.229
 20
345.1962
 10
443.118
 20
345.5375
 10
444.0064
 20
345.9124
 10
444.8941
 20
346.3178
 10
445.7811
 20
346.7509
 10
446.667
 20
347.2086
 10
447.5519
 20
347.6879
 10
448.4356
 20
348.1858
 10
449.318
 20
348.6993
 10
450.199
 20
349.2254
 10
451.0784
 20
349.7611
 10
451.9561
 20
350.3034
 10
452.8321
 20
350.8493
 10
453.7061
 20
351.3958
 10
454.5781
 20
351.9399
 10
455.4479
 20
352.4787
 10
456.3154
 20
353.009
 10
457.1805
 20
353.528
 10
458.0431
 20
354.0325
 10
458.903
 20
354.5197
 10
459.7601
 20
354.9865
 10
460.6144
 20
355.4299
 10
461.4656
 20
355.8469
 10
462.3137
 20
356.2345
 10
463.1585
 20
356.5898
 10
464.0
 20
356.9097
 10
464.9514
 20
357.2388
 10
465.9082
 20
357.5462
 10
466.8703
 20
357.8325
 10
467.8373
 20
358.0985
 10
468.8091
 20
358.3449
 10
469.7854
 20
358.5723
 10
470.7659
 20
358.7815
 10
471.7506
 20
358.9731
 10
472.739
 20
359.1478
 10
473.731
 20
359.3063
 10
474.7263
 20
359.4494
 10
475.7248
 20
359.5778
 10
476.7261
 20
359.692
 10
477.7301
 20
359.7928
 10
478.7365
 20
359.881
 10
479.7451
 20
359.9572
 10
480.7557
 20
360.0221
 10
481.7679
 20
360.0764
 10
482.7816
 20
360.1208
 10
483.7966
 20
360.156
 10
484.8126
 20
360.1827
 10
485.8294
 20
360.2016
 10
486.8467
 20
360.2133
 10
487.8644
 20
360.2187
 10
488.8821
 20
360.2183
 10
489.8997
 20
360.2129
 10
490.9169
 20
360.2032
 10
491.9335
 20
360.1898
 10
492.9493
 20
360.1736
 10
493.9639
 20
360.155
 10
494.9773
 20
360.135
 10
495.9891
 20
360.1141
 10
496.9991
 20
360.093
 10
498.0071
 20
360.0725
 10
499.0129
 20
360.0532
 10
500.0162
 20
360.0359
 10
501.0168
 20
360.0212
 10
502.0144
 20
360.0099
 10
503.0089
 20
360.0025
 10
504.0
 20
360.0
 10
505.0
 20
376.0
 10
506.0
 20
376.0
 10
505.0
 20
369.0
 10
513.0
 20
369.0
 10
513.0
 20
365.0
 10
512.0
 20
365.0
 10
512.0
 20
368.0
 10
510.8423
 20
367.9053
 10
509.8055
 20
367.7956
 10
508.8785
 20
367.6399
 10
508.0503
 20
367.4071
 10
507.3096
 20
367.0661
 10
506.6453
 20
366.5859
 10
506.0464
 20
365.9355
 10
505.5016
 20
365.0839
 10
505.0
 20
364.0
 10
512.0
 20
365.0
 10
512.0
 20
360.0
 10
516.0
 20
360.0
 10
516.0
 20
374.0
 10
517.0491
 20
373.6108
 10
518.0329
 20
373.1798
 10
518.9519
 20
372.705
 10
519.8069
 20
372.1843
 10
520.5987
 20
371.6156
 10
521.328
 20
370.9969
 10
521.9956
 20
370.3261
 10
522.602
 20
369.6012
 10
523.1482
 20
368.8201
 10
523.6348
 20
367.9808
 10
524.0625
 20
367.0812
 10
524.4321
 20
366.1192
 10
524.7444
 20
365.0928
 10
525.0
 20
364.0
 10
526.0
 20
364.0
 10
526.4491
 20
365.016
 10
526.9005
 20
365.9741
 10
527.3611
 20
366.8772
 10
527.8378
 20
367.7282
 10
528.3374
 20
368.5298
 10
528.8668
 20
369.285
 10
529.4329
 20
369.9966
 10
530.0425
 20
370.6676
 10
530.7026
 20
371.3007
 10
531.42
 20
371.899
 10
532.2015
 20
372.4651
 10
533.0541
 20
373.0021
 10
533.9846
 20
373.5127
 10
535.0
 20
374.0
 10
538.0
 20
352.0
 10
538.887
 20
351.976
 10
539.7628
 20
351.9113
 10
540.6276
 20
351.8071
 10
541.4817
 20
351.6644
 10
542.3253
 20
351.4846
 10
543.1587
 20
351.2689
 10
543.9822
 20
351.0183
 10
544.7961
 20
350.7341
 10
545.6007
 20
350.4176
 10
546.3962
 20
350.0698
 10
547.1829
 20
349.692
 10
547.9612
 20
349.2854
 10
548.7311
 20
348.8512
 10
549.4932
 20
348.3906
 10
550.2475
 20
347.9047
 10
550.9945
 20
347.3948
 10
551.7344
 20
346.8621
 10
552.4674
 20
346.3077
 10
553.1938
 20
345.7329
 10
553.914
 20
345.1387
 10
554.6282
 20
344.5266
 10
555.3366
 20
343.8975
 10
556.0396
 20
343.2528
 10
556.7374
 20
342.5936
 10
557.4304
 20
341.9211
 10
558.1187
 20
341.2365
 10
558.8026
 20
340.5411
 10
559.4826
 20
339.8359
 10
560.1587
 20
339.1222
 10
560.8313
 20
338.4012
 10
561.5007
 20
337.674
 10
562.1672
 20
336.942
 10
562.8309
 20
336.2062
 10
563.4923
 20
335.4679
 10
564.1516
 20
334.7282
 10
564.809
 20
333.9884
 10
565.4649
 20
333.2496
 10
566.1195
 20
332.513
 10
566.7731
 20
331.7799
 10
567.426
 20
331.0515
 10
568.0784
 20
330.3288
 10
568.7306
 20
329.6132
 10
569.383
 20
328.9058
 10
570.0357
 20
328.2077
 10
570.6891
 20
327.5203
 10
571.3435
 20
326.8447
 10
571.9991
 20
326.1821
 10
572.6561
 20
325.5336
 10
573.315
 20
324.9005
 10
573.9759
 20
324.284
 10
574.6391
 20
323.6853
 10
575.3049
 20
323.1055
 10
575.9737
 20
322.5459
 10
576.6456
 20
322.0077
 10
577.3209
 20
321.4919
 10
578.0
 20
321.0
 10
579.0
 20
322.0
 10
562.0
 20
339.0
 10
564.0
 20
343.0
 10
565.0
 20
343.0
 10
565.0
 20
340.0
 10
585.0
 20
340.0
 10
585.0
 20
344.0
 10
575.0
 20
342.0
 10
574.2089
 20
342.5012
 10
573.3615
 20
342.9398
 10
572.4654
 20
343.3158
 10
571.528
 20
343.6291
 10
570.5568
 20
343.8797
 10
569.5593
 20
344.0677
 10
568.543
 20
344.193
 10
567.5155
 20
344.2557
 10
566.4843
 20
344.2557
 10
565.4568
 20
344.193
 10
564.4406
 20
344.0677
 10
563.4431
 20
343.8797
 10
562.4719
 20
343.6291
 10
561.5345
 20
343.3158
 10
560.6383
 20
342.9398
 10
559.791
 20
342.5012
 10
559.0
 20
342.0
 10
558.3731
 20
342.8769
 10
557.7437
 20
343.7292
 10
557.11
 20
344.5558
 10
556.4706
 20
345.3556
 10
555.8239
 20
346.1275
 10
555.1681
 20
346.8703
 10
554.5017
 20
347.583
 10
553.8231
 20
348.2644
 10
553.1308
 20
348.9133
 10
552.423
 20
349.5288
 10
551.6982
 20
350.1096
 10
550.9549
 20
350.6547
 10
550.1913
 20
351.1628
 10
549.4059
 20
351.633
 10
548.5971
 20
352.0641
 10
547.7633
 20
352.455
 10
546.9029
 20
352.8046
 10
546.0142
 20
353.1116
 10
545.0957
 20
353.3751
 10
544.1458
 20
353.594
 10
543.1629
 20
353.767
 10
542.1454
 20
353.893
 10
541.0916
 20
353.9711
 10
540.0
 20
354.0
 10
540.0
 20
360.0
 10
546.0
 20
360.0
 10
546.0697
 20
361.0824
 10
546.1777
 20
362.1205
 10
546.3261
 20
363.1172
 10
546.5169
 20
364.0758
 10
546.7522
 20
364.9994
 10
547.034
 20
365.8911
 10
547.3643
 20
366.7541
 10
547.7451
 20
367.5915
 10
548.1787
 20
368.4064
 10
548.6669
 20
369.202
 10
549.2119
 20
369.9814
 10
549.8156
 20
370.7478
 10
550.4802
 20
371.5042
 10
551.2076
 20
372.2539
 10
552.0
 20
373.0
 10
552.0
 20
374.0
 10
551.1046
 20
373.4542
 10
550.2825
 20
372.8869
 10
549.524
 20
372.3031
 10
548.8194
 20
371.7083
 10
548.1591
 20
371.1077
 10
547.5334
 20
370.5066
 10
546.9327
 20
369.9103
 10
546.3473
 20
369.324
 10
545.7676
 20
368.7531
 10
545.1838
 20
368.2029
 10
544.5863
 20
367.6786
 10
543.9656
 20
367.1855
 10
543.3118
 20
366.7289
 10
542.6153
 20
366.3142
 10
541.8666
 20
365.9466
 10
541.0558
 20
365.6313
 10
540.1735
 20
365.3737
 10
539.2098
 20
365.1791
 10
538.1552
 20
365.0528
 10
537.0
 20
365.0
 10
537.0
 20
375.0
 10
535.8658
 20
374.8498
 10
534.8036
 20
374.642
 10
533.806
 20
374.3774
 10
532.8655
 20
374.0571
 10
531.9751
 20
373.6819
 10
531.1272
 20
373.253
 10
530.3146
 20
372.7712
 10
529.53
 20
372.2375
 10
528.766
 20
371.6529
 10
528.0154
 20
371.0183
 10
527.2708
 20
370.3347
 10
526.5249
 20
369.6032
 10
525.7704
 20
368.8246
 10
525.0
 20
368.0
 10
524.5544
 20
368.8631
 10
524.0891
 20
369.6343
 10
523.605
 20
370.3193
 10
523.1033
 20
370.9234
 10
522.585
 20
371.4523
 10
522.051
 20
371.9115
 10
521.5025
 20
372.3066
 10
520.9405
 20
372.6431
 10
520.366
 20
372.9265
 10
519.7801
 20
373.1625
 10
519.1838
 20
373.3565
 10
518.5782
 20
373.514
 10
517.9642
 20
373.6408
 10
517.3431
 20
373.7422
 10
516.7156
 20
373.8239
 10
516.0831
 20
373.8913
 10
515.4464
 20
373.9501
 10
514.8065
 20
374.0058
 10
514.1647
 20
374.0639
 10
513.5218
 20
374.13
 10
512.879
 20
374.2096
 10
512.2373
 20
374.3083
 10
511.5977
 20
374.4317
 10
510.9612
 20
374.5852
 10
510.329
 20
374.7744
 10
509.702
 20
375.0048
 10
509.0813
 20
375.2821
 10
508.4679
 20
375.6118
 10
507.8629
 20
375.9993
 10
507.2673
 20
376.4504
 10
506.6822
 20
376.9704
 10
506.1085
 20
377.565
 10
505.5475
 20
378.2396
 10
505.0
 20
379.0
 10
506.0746
 20
378.9979
 10
507.1071
 20
378.9986
 10
508.0937
 20
379.0146
 10
509.0307
 20
379.0586
 10
509.9145
 20
379.1431
 10
510.7412
 20
379.2809
 10
511.5071
 20
379.4845
 10
512.2085
 20
379.7666
 10
512.8418
 20
380.1399
 10
513.403
 20
380.6168
 10
513.8887
 20
381.2102
 10
514.2949
 20
381.9325
 10
514.618
 20
382.7965
 10
514.8543
 20
383.8148
 10
515.0
 20
385.0
 10
505.0
 20
385.0
 10
505.5383
 20
385.9803
 10
506.0889
 20
386.8842
 10
506.6594
 20
387.7129
 10
507.2578
 20
388.4676
 10
507.8921
 20
389.1497
 10
508.5702
 20
389.7605
 10
509.2999
 20
390.3012
 10
510.0891
 20
390.7732
 10
510.9459
 20
391.1778
 10
511.878
 20
391.5163
 10
512.8934
 20
391.7899
 10
514.0
 20
392.0
 10
514.0
 20
393.0
 10
505.0
 20
401.0
 10
515.0
 20
401.0
 10
515.0
 20
418.0
 10
526.0
 20
418.0
 10
525.9188
 20
419.0634
 10
525.791
 20
420.0889
 10
525.6148
 20
421.075
 10
525.3881
 20
422.0205
 10
525.1093
 20
422.924
 10
524.7763
 20
423.7841
 10
524.3873
 20
424.5995
 10
523.9403
 20
425.3689
 10
523.4336
 20
426.0909
 10
522.8651
 20
426.7641
 10
522.2331
 20
427.3873
 10
521.5356
 20
427.9591
 10
520.7707
 20
428.4782
 10
519.9366
 20
428.9431
 10
519.0314
 20
429.3526
 10
518.0531
 20
429.7053
 10
517.0
 20
430.0
 10
517.0
 20
431.0
 10
518.0531
 20
431.2946
 10
519.0314
 20
431.6473
 10
519.9366
 20
432.0568
 10
520.7707
 20
432.5217
 10
521.5356
 20
433.0408
 10
522.2331
 20
433.6126
 10
522.8651
 20
434.2358
 10
523.4336
 20
434.909
 10
523.9403
 20
435.631
 10
524.3873
 20
436.4004
 10
524.7763
 20
437.2158
 10
525.1093
 20
438.0759
 10
525.3881
 20
438.9794
 10
525.6148
 20
439.9249
 10
525.791
 20
440.911
 10
525.9188
 20
441.9365
 10
526.0
 20
443.0
 10
515.0
 20
443.0
 10
515.0
 20
446.0
 10
525.0
 20
446.0
 10
521.0
 20
455.0
 10
530.0
 20
455.0
 10
530.0
 20
459.0
 10
522.0
 20
459.0
 10
525.0
 20
468.0
 10
515.0
 20
468.0
 10
515.0
 20
473.0
 10
402.0
 20
473.0
 10
402.0
 20
479.0
 10
402.806
 20
479.148
 10
403.6352
 20
479.3406
 10
404.4792
 20
479.5773
 10
405.3297
 20
479.8577
 10
406.1782
 20
480.1815
 10
407.0166
 20
480.5483
 10
407.8363
 20
480.9578
 10
408.6291
 20
481.4096
 10
409.3866
 20
481.9034
 10
410.1004
 20
482.4387
 10
410.7622
 20
483.0152
 10
411.3637
 20
483.6327
 10
411.8964
 20
484.2906
 10
412.3521
 20
484.9887
 10
412.7223
 20
485.7265
 10
412.9988
 20
486.5038
 10
413.1731
 20
487.3201
 10
413.237
 20
488.1752
 10
413.1821
 20
489.0686
 10
413.0
 20
490.0
  0
LWPOLYLINE
  5
52
330
17
100
AcDbEntity
  8
0
100
AcDbPolyline
 90
76
 70
0
 10
402.0
 20
459.0
 10
402.0
 20
404.0
 10
513.0
 20
404.0
 10
512.9992
 20
405.1636
 10
512.9993
 20
406.2804
 10
513.0038
 20
407.3508
 10
513.0163
 20
408.375
 10
513.0404
 20
409.3534
 10
513.0797
 20
410.2864
 10
513.1376
 20
411.1743
 10
513.2179
 20
412.0173
 10
513.324
 20
412.816
 10
513.4595
 20
413.5705
 10
513.628
 20
414.2813
 10
513.833
 20
414.9487
 10
514.0782
 20
415.573
 10
514.3671
 20
416.1545
 10
514.7033
 20
416.6937
 10
515.0903
 20
417.1908
 10
515.5317
 20
417.6462
 10
516.0312
 20
418.0603
 10
516.5921
 20
418.4333
 10
517.2182
 20
418.7656
 10
517.913
 20
419.0575
 10
518.6801
 20
419.3095
 10
519.523
 20
419.5217
 10
520.4453
 20
419.6947
 10
521.4506
 20
419.8286
 10
522.5424
 20
419.9239
 10
523.7243
 20
419.9809
 10
525.0
 20
420.0
 10
524.7575
 20
421.0378
 10
524.4623
 20
422.0131
 10
524.1148
 20
422.9272
 10
523.7154
 20
423.7812
 10
523.2646
 20
424.5765
 10
522.7628
 20
425.3144
 10
522.2104
 20
425.996
 10
521.6078
 20
426.6227
 10
520.9556
 20
427.1957
 10
520.2541
 20
427.7163
 10
519.5037
 20
428.1858
 10
518.7049
 20
428.6055
 10
517.8582
 20
428.9765
 10
516.9639
 20
429.3002
 10
516.0224
 20
429.5778
 10
515.0343
 20
429.8106
 10
514.0
 20
430.0
 10
514.0
 20
431.0
 10
515.0343
 20
431.1893
 10
516.0224
 20
431.4221
 10
516.9639
 20
431.6997
 10
517.8582
 20
432.0234
 10
518.7049
 20
432.3944
 10
519.5037
 20
432.814
 10
520.2541
 20
433.2835
 10
520.9556
 20
433.8042
 10
521.6078
 20
434.3772
 10
522.2104
 20
435.0039
 10
522.7628
 20
435.6855
 10
523.2646
 20
436.4233
 10
523.7154
 20
437.2186
 10
524.1148
 20
438.0727
 10
524.4623
 20
438.9867
 10
524.7575
 20
439.9621
 10
525.0
 20
441.0
 10
501.0
 20
443.0
 10
498.0
 20
446.0
 10
498.0
 20
452.0
 10
501.0
 20
452.0
 10
501.0
 20
456.0
 10
504.0
 20
456.0
 10
504.0
 20
471.0
 10
446.0
 20
471.0
 10
415.143494
 20
469.682098
 10
402.0
 20
459.0
  0
LWPOLYLINE
  5
53
330
17
100
AcDbEntity
  8
0
100
AcDbPolyline
 90
136
 70
0
 10
322.0
 20
449.0
 10
322.0
 20
443.0
 10
316.0
 20
443.0
 10
316.0
 20
409.0
 10
329.0
 20
409.0
 10
329.0
 20
407.0
 10
320.0
 20
405.0
 10
319.0
 20
405.0
 10
312.0
 20
407.0
 10
312.0
 20
399.0
 10
329.0
 20
399.0
 10
329.0
 20
398.0
 10
322.0
 20
398.0
 10
321.0
 20
389.0
 10
320.0
 20
389.0
 10
319.0
 20
391.0
 10
318.0
 20
391.0
 10
312.0
 20
389.0
 10
312.0
 20
381.0
 10
328.0
 20
381.0
 10
328.0
 20
385.0
 10
329.0
 20
385.0
 10
329.217
 20
384.0192
 10
329.4018
 20
383.0681
 10
329.5677
 20
382.1506
 10
329.7279
 20
381.2703
 10
329.8954
 20
380.4311
 10
330.0835
 20
379.6369
 10
330.3055
 20
378.8913
 10
330.5744
 20
378.1983
 10
330.9034
 20
377.5615
 10
331.3059
 20
376.9849
 10
331.7949
 20
376.4721
 10
332.3837
 20
376.0271
 10
333.0853
 20
375.6535
 10
333.9132
 20
375.3553
 10
334.8803
 20
375.1362
 10
336.0
 20
375.0
 10
336.0
 20
376.0
 10
333.0
 20
377.0
 10
333.7628
 20
377.9912
 10
334.5065
 20
378.898
 10
335.2341
 20
379.724
 10
335.949
 20
380.473
 10
336.6544
 20
381.1488
 10
337.3535
 20
381.7549
 10
338.0495
 20
382.2952
 10
338.7458
 20
382.7734
 10
339.4454
 20
383.1932
 10
340.1518
 20
383.5583
 10
340.868
 20
383.8724
 10
341.5974
 20
384.1393
 10
342.3431
 20
384.3627
 10
343.1084
 20
384.5463
 10
343.8966
 20
384.6938
 10
344.7109
 20
384.809
 10
345.5545
 20
384.8955
 10
346.4306
 20
384.9571
 10
347.3425
 20
384.9976
 10
348.2935
 20
385.0205
 10
349.2867
 20
385.0297
 10
350.3254
 20
385.0289
 10
351.4128
 20
385.0218
 10
352.5523
 20
385.0122
 10
353.7469
 20
385.0036
 10
355.0
 20
385.0
 10
355.0
 20
393.0
 10
348.0
 20
391.0
 10
347.0
 20
391.0
 10
338.0
 20
393.0
 10
355.0
 20
395.0
 10
355.0
 20
403.0
 10
348.0
 20
401.0
 10
347.0
 20
401.0
 10
338.0
 20
403.0
 10
355.0
 20
405.0
 10
355.0
 20
413.0
 10
348.0
 20
411.0
 10
347.0
 20
411.0
 10
338.0
 20
413.0
 10
340.0
 20
416.0
 10
334.0
 20
418.0
 10
322.0
 20
415.0
 10
321.0
 20
420.0
 10
335.0
 20
418.0
 10
342.0
 20
418.0
 10
343.0
 20
418.0
 10
346.0
 20
419.0
 10
346.0
 20
421.0
 10
350.0
 20
420.0
 10
348.0
 20
416.0
 10
343.0
 20
416.0
 10
343.0
 20
415.0
 10
355.0
 20
415.0
 10
355.0
 20
423.0
 10
348.0
 20
421.0
 10
347.0
 20
421.0
 10
346.346
 20
421.6259
 10
345.6305
 20
422.0933
 10
344.8603
 20
422.4183
 10
344.0424
 20
422.617
 10
343.1835
 20
422.7054
 10
342.2906
 20
422.6996
 10
341.3705
 20
422.6157
 10
340.4302
 20
422.4698
 10
339.4763
 20
422.278
 10
338.5159
 20
422.0563
 10
337.5558
 20
421.8209
 10
336.6028
 20
421.5877
 10
335.6639
 20
421.373
 10
334.7459
 20
421.1927
 10
333.8556
 20
421.063
 10
333.0
 20
421.0
 10
334.0
 20
425.0
 10
350.0
 20
425.0
 10
350.0
 20
436.0
 10
351.1154
 20
436.0834
 10
352.1652
 20
436.2152
 10
353.1523
 20
436.3969
 10
354.0795
 20
436.6298
 10
354.9498
 20
436.9156
 10
355.766
 20
437.2556
 10
356.531
 20
437.6513
 10
357.2477
 20
438.1043
 10
357.919
 20
438.6159
 10
358.5478
 20
439.1878
 10
359.1368
 20
439.8213
 10
359.6891
 20
440.5179
 10
360.2076
 20
441.2792
 10
360.695
 20
442.1065
 10
361.1542
 20
443.0014
 10
361.5883
 20
443.9654
 10
362.0
 20
445.0
 10
350.0
 20
445.0
 10
350.0
 20
449.0
 10
322.0
 20
449.0
  0
LWPOLYLINE
  5
54
330
17
100
AcDbEntity
  8
0
100
AcDbPolyline
 90
64
 70
0
 10
383.0
 20
449.0
 10
383.0
 20
447.0
 10
394.0
 20
447.0
 10
383.0
 20
428.0
 10
361.0
 20
428.0
 10
361.0
 20
402.0
 10
378.0
 20
402.0
 10
378.0
 20
400.0
 10
369.0
 20
398.0
 10
368.0
 20
398.0
 10
367.7012
 20
398.9869
 10
367.289
 20
399.7388
 10
366.7723
 20
400.2866
 10
366.1604
 20
400.6612
 10
365.4624
 20
400.8934
 10
364.6873
 20
401.0141
 10
363.8444
 20
401.0542
 10
362.9428
 20
401.0447
 10
361.9916
 20
401.0163
 10
361.0
 20
401.0
 10
361.0
 20
392.0
 10
361.9167
 20
392.0147
 10
362.8651
 20
392.0546
 10
363.84
 20
392.1127
 10
364.8366
 20
392.1823
 10
365.8498
 20
392.2567
 10
366.8747
 20
392.329
 10
367.9063
 20
392.3924
 10
368.9397
 20
392.4403
 10
369.9698
 20
392.4658
 10
370.9917
 20
392.4622
 10
372.0005
 20
392.4226
 10
372.9911
 20
392.3404
 10
373.9586
 20
392.2086
 10
374.898
 20
392.0207
 10
375.8044
 20
391.7697
 10
376.6727
 20
391.4489
 10
377.4981
 20
391.0515
 10
378.2755
 20
390.5708
 10
379.0
 20
390.0
 10
361.0
 20
391.0
 10
361.0
 20
375.0
 10
377.0
 20
375.0
 10
377.0
 20
381.0
 10
382.0
 20
383.0
 10
385.0
 20
382.0
 10
386.0
 20
385.0
 10
387.0
 20
385.0
 10
386.0
 20
381.0
 10
389.0
 20
383.0
 10
389.0
 20
379.0
 10
383.0
 20
379.0
 10
383.0
 20
378.0
 10
388.0
 20
376.0
 10
397.0
 20
380.0
 10
390.0
 20
379.0
 10
390.0
 20
383.0
 10
397.0
 20
382.0
 10
397.0
 20
413.0
 10
384.0
 20
413.0
 10
384.0
 20
415.0
 10
400.0
 20
415.0
 10
400.0
 20
449.0
 10
383.0
 20
449.0
  0
LWPOLYLINE
  5
55
330
17
100
AcDbEntity
  8
0
100
AcDbPolyline
 90
14
 70
0
 10
255.0
 20
428.0
 10
255.0
 20
400.0
 10
236.0
 20
400.0
 10
236.0
 20
419.0
 10
235.0
 20
419.0
 10
235.0
 20
389.0
 10
236.0
 20
389.0
 10
236.0
 20
399.0
 10
279.0
 20
399.0
 10
279.0
 20
400.0
 10
256.0
 20
400.0
 10
256.0
 20
427.0
 10
279.0
 20
427.0
 10
255.0
 20
428.0
  0
LWPOLYLINE
  5
56
330
17
100
AcDbEntity
  8
0
100
AcDbPolyline
 90
13
 70
0
 10
352.0
 20
428.0
 10
352.0
 20
425.0
 10
357.0
 20
425.0
 10
357.0
 20
383.0
 10
352.0
 20
383.0
 10
352.0
 20
381.0
 10
356.0
 20
381.0
 10
356.0
 20
380.0
 10
352.0
 20
379.0
 10
352.0
 20
375.0
 10
359.0
 20
375.0
 10
359.0
 20
428.0
 10
352.0
 20
428.0
  0
LWPOLYLINE
  5
57
330
17
100
AcDbEntity
  8
0
100
AcDbPolyline
 90
42
 70
0
 10
399.0
 20
413.0
 10
399.0
 20
375.0
 10
400.0
 20
375.0
 10
400.0061
 20
375.8511
 10
400.0239
 20
376.7252
 10
400.0521
 20
377.6208
 10
400.0898
 20
378.5367
 10
400.1359
 20
379.4715
 10
400.1892
 20
380.4238
 10
400.2488
 20
381.3924
 10
400.3135
 20
382.376
 10
400.3823
 20
383.3731
 10
400.4541
 20
384.3824
 10
400.5277
 20
385.4027
 10
400.6022
 20
386.4326
 10
400.6765
 20
387.4707
 10
400.7495
 20
388.5157
 10
400.82
 20
389.5664
 10
400.8871
 20
390.6213
 10
400.9497
 20
391.6792
 10
401.0066
 20
392.7386
 10
401.0569
 20
393.7983
 10
401.0994
 20
394.857
 10
401.133
 20
395.9133
 10
401.1567
 20
396.9658
 10
401.1694
 20
398.0133
 10
401.1701
 20
399.0545
 10
401.1576
 20
400.0879
 10
401.1309
 20
401.1122
 10
401.0888
 20
402.1262
 10
401.0304
 20
403.1285
 10
400.9546
 20
404.1177
 10
400.8603
 20
405.0925
 10
400.7463
 20
406.0517
 10
400.6117
 20
406.9938
 10
400.4553
 20
407.9176
 10
400.2761
 20
408.8217
 10
400.0729
 20
409.7047
 10
399.8448
 20
410.5654
 10
399.5907
 20
411.4024
 10
399.3094
 20
412.2143
 10
399.0
 20
413.0
  0
LWPOLYLINE
  5
58
330
17
100
AcDbEntity
  8
0
100
AcDbPolyline
 90
5
 70
0
 10
587.0
 20
360.0
 10
587.0
 20
255.0
 10
588.0
 20
255.0
 10
588.0
 20
328.0
 10
587.0
 20
360.0
  0
LWPOLYLINE
  5
59
330
17
100
AcDbEntity
  8
0
100
AcDbPolyline
 90
48
 70
0
 10
547.0
 20
353.0
 10
547.5317
 20
352.2531
 10
548.0776
 20
351.5021
 10
548.6371
 20
350.7474
 10
549.2099
 20
349.9895
 10
549.7955
 20
349.2289
 10
550.3935
 20
348.4658
 10
551.0033
 20
347.7009
 10
551.6247
 20
346.9344
 10
552.2572
 20
346.1669
 10
552.9003
 20
345.3987
 10
553.5536
 20
344.6303
 10
554.2167
 20
343.8622
 10
554.8891
 20
343.0948
 10
555.5704
 20
342.3284
 10
556.2601
 20
341.5636
 10
556.9579
 20
340.8007
 10
557.6634
 20
340.0403
 10
558.3759
 20
339.2827
 10
559.0953
 20
338.5284
 10
559.8209
 20
337.7777
 10
560.5524
 20
337.0312
 10
561.2893
 20
336.2893
 10
562.0312
 20
335.5524
 10
562.7777
 20
334.8209
 10
563.5284
 20
334.0953
 10
564.2827
 20
333.3759
 10
565.0403
 20
332.6634
 10
565.8007
 20
331.9579
 10
566.5636
 20
331.2601
 10
567.3284
 20
330.5704
 10
568.0948
 20
329.8891
 10
568.8622
 20
329.2167
 10
569.6303
 20
328.5536
 10
570.3987
 20
327.9003
 10
571.1669
 20
327.2572
 10
571.9344
 20
326.6247
 10
572.7009
 20
326.0033
 10
573.4658
 20
325.3935
 10
574.2289
 20
324.7955
 10
574.9895
 20
324.2099
 10
575.7474
 20
323.6371
 10
576.5021
 20
323.0776
 10
577.2531
 20
322.5317
 10
578.0
 20
322.0
 10
563.0
 20
341.0
 10
563.0
 20
342.0
 10
547.0
 20
353.0
  0
LWPOLYLINE
  5
5A
330
17
100
AcDbEntity
  8
0
100
AcDbPolyline
 90
5
 70
0
 10
641.0
 20
172.0
 10
641.0
 20
90.0
 10
723.0
 20
90.0
 10
723.0
 20
172.0
 10
641.0
 20
172.0
  0
LWPOLYLINE
  5
5B
330
17
100
AcDbEntity
  8
0
100
AcDbPolyline
 90
5
 70
0
 10
642.0
 20
171.0
 10
642.0
 20
91.0
 10
722.0
 20
91.0
 10
722.0
 20
171.0
 10
642.0
 20
171.0
  0
LWPOLYLINE
  5
5C
330
17
100
AcDbEntity
  8
0
100
AcDbPolyline
 90
167
 70
0
 10
101.0
 20
138.442123
 10
100.1915
 20
138.2137
 10
99.4115
 20
137.9608
 10
98.6599
 20
137.6841
 10
97.9363
 20
137.3843
 10
97.2406
 20
137.0622
 10
96.5725
 20
136.7184
 10
95.9318
 20
136.3537
 10
95.3183
 20
135.9689
 10
94.7319
 20
135.5646
 10
94.1722
 20
135.1417
 10
93.639
 20
134.7008
 10
93.1322
 20
134.2427
 10
92.6515
 20
133.7681
 10
92.1968
 20
133.2778
 10
91.7677
 20
132.7724
 10
91.3641
 20
132.2528
 10
90.9857
 20
131.7196
 10
90.6324
 20
131.1736
 10
90.3039
 20
130.6155
 10
90.0
 20
130.0461
 10
89.7205
 20
129.4661
 10
89.4652
 20
128.8761
 10
89.2339
 20
128.2771
 10
89.0262
 20
127.6696
 10
88.8422
 20
127.0544
 10
88.6814
 20
126.4323
 10
88.5437
 20
125.804
 10
88.4288
 20
125.1703
 10
88.3367
 20
124.5317
 10
88.2669
 20
123.8892
 10
88.2194
 20
123.2434
 10
88.1939
 20
122.5951
 10
88.1902
 20
121.9449
 10
88.2081
 20
121.2937
 10
88.2473
 20
120.6422
 10
88.3077
 20
119.991
 10
88.389
 20
119.341
 10
88.491
 20
118.6929
 10
88.6135
 20
118.0473
 10
88.7562
 20
117.4051
 10
88.919
 20
116.7669
 10
89.1017
 20
116.1336
 10
89.304
 20
115.5058
 10
89.5257
 20
114.8842
 10
89.7666
 20
114.2697
 10
90.0264
 20
113.6629
 10
90.305
 20
113.0646
 10
90.6022
 20
112.4754
 10
90.9177
 20
111.8962
 10
91.2513
 20
111.3277
 10
91.6027
 20
110.7706
 10
91.9719
 20
110.2257
 10
92.3585
 20
109.6936
 10
92.7623
 20
109.1751
 10
93.1832
 20
108.6709
 10
93.6209
 20
108.1819
 10
94.0752
 20
107.7086
 10
94.5458
 20
107.2519
 10
95.0326
 20
106.8125
 10
95.5354
 20
106.3911
 10
96.0538
 20
105.9884
 10
96.5878
 20
105.6053
 10
97.1371
 20
105.2423
 10
97.7014
 20
104.9003
 10
98.2806
 20
104.58
 10
98.8745
 20
104.282
 10
99.4827
 20
104.0073
 10
100.1052
 20
103.7564
 10
100.7417
 20
103.5301
 10
101.3919
 20
103.3292
 10
102.0557
 20
103.1544
 10
102.7328
 20
103.0064
 10
103.4231
 20
102.886
 10
104.1263
 20
102.7938
 10
104.8421
 20
102.7307
 10
105.5705
 20
102.6974
 10
106.3111
 20
102.6945
 10
107.0637
 20
102.7228
 10
107.8282
 20
102.7831
 10
108.6043
 20
102.8761
 10
109.3917
 20
103.0026
 10
110.1904
 20
103.1632
 10
111.0
 20
103.3587
 10
111.8066
 20
103.5859
 10
112.5849
 20
103.8379
 10
113.3352
 20
104.1137
 10
114.0574
 20
104.4128
 10
114.752
 20
104.7342
 10
115.4192
 20
105.0774
 10
116.059
 20
105.4415
 10
116.6718
 20
105.8258
 10
117.2577
 20
106.2297
 10
117.817
 20
106.6523
 10
118.3499
 20
107.0929
 10
118.8565
 20
107.5508
 10
119.3371
 20
108.0252
 10
119.792
 20
108.5155
 10
120.2213
 20
109.0208
 10
120.6252
 20
109.5405
 10
121.0039
 20
110.0737
 10
121.3577
 20
110.6199
 10
121.6868
 20
111.1781
 10
121.9913
 20
111.7478
 10
122.2716
 20
112.3281
 10
122.5277
 20
112.9183
 10
122.76
 20
113.5177
 10
122.9686
 20
114.1256
 10
123.1537
 20
114.7411
 10
123.3156
 20
115.3637
 10
123.4544
 20
115.9925
 10
123.5705
 20
116.6267
 10
123.6639
 20
117.2658
 10
123.7349
 20
117.9089
 10
123.7837
 20
118.5552
 10
123.8105
 20
119.2042
 10
123.8156
 20
119.8549
 10
123.7991
 20
120.5067
 10
123.7613
 20
121.1589
 10
123.7023
 20
121.8107
 10
123.6225
 20
122.4614
 10
123.5219
 20
123.1102
 10
123.4008
 20
123.7564
 10
123.2594
 20
124.3993
 10
123.098
 20
125.0381
 10
122.9167
 20
125.6721
 10
122.7158
 20
126.3005
 10
122.4954
 20
126.9227
 10
122.2558
 20
127.5379
 10
121.9972
 20
128.1453
 10
121.7198
 20
128.7442
 10
121.4238
 20
129.3339
 10
121.1095
 20
129.9137
 10
120.7769
 20
130.4827
 10
120.4264
 20
131.0403
 10
120.0582
 20
131.5858
 10
119.6725
 20
132.1183
 10
119.2694
 20
132.6372
 10
118.8492
 20
133.1418
 10
118.4121
 20
133.6312
 10
117.9584
 20
134.1047
 10
117.4882
 20
134.5617
 10
117.0017
 20
135.0014
 10
116.4992
 20
135.423
 10
115.9808
 20
135.8258
 10
115.4468
 20
136.209
 10
114.8975
 20
136.572
 10
114.3329
 20
136.914
 10
113.7533
 20
137.2343
 10
113.159
 20
137.5321
 10
112.5501
 20
137.8066
 10
111.9268
 20
138.0573
 10
111.2894
 20
138.2832
 10
110.6381
 20
138.4837
 10
109.973
 20
138.6581
 10
109.2945
 20
138.8055
 10
108.6027
 20
138.9254
 10
107.8978
 20
139.0168
 10
107.18
 20
139.0792
 10
106.4495
 20
139.1117
 10
105.7067
 20
139.1137
 10
104.9516
 20
139.0843
 10
104.1844
 20
139.0229
 10
103.4055
 20
138.9287
 10
102.615
 20
138.801
 10
101.813
 20
138.639
 10
101.0
 20
138.4421
  0
LWPOLYLINE
  5
5D
330
17
100
AcDbEntity
  8
0
100
AcDbPolyline
 90
107
 70
0
 10
100.94136
 20
137.293976
 10
100.1938
 20
137.1831
 10
99.471
 20
137.0295
 10
98.773
 20
136.8345
 10
98.0997
 20
136.5997
 10
97.451
 20
136.3264
 10
96.827
 20
136.0162
 10
96.2276
 20
135.6704
 10
95.6527
 20
135.2906
 10
95.1025
 20
134.8782
 10
94.5767
 20
134.4347
 10
94.0755
 20
133.9614
 10
93.5987
 20
133.4599
 10
93.1464
 20
132.9317
 10
92.7185
 20
132.3782
 10
92.315
 20
131.8007
 10
91.9359
 20
131.2009
 10
91.5811
 20
130.5802
 10
91.2506
 20
129.94
 10
90.9444
 20
129.2818
 10
90.6624
 20
128.6069
 10
90.4047
 20
127.917
 10
90.1712
 20
127.2135
 10
89.9618
 20
126.4977
 10
89.7766
 20
125.7712
 10
89.6155
 20
125.0355
 10
89.4785
 20
124.2919
 10
89.3656
 20
123.542
 10
89.2767
 20
122.7871
 10
89.2118
 20
122.0289
 10
89.1709
 20
121.2686
 10
89.1539
 20
120.5078
 10
89.1609
 20
119.7479
 10
89.1917
 20
118.9905
 10
89.2464
 20
118.2368
 10
89.325
 20
117.4885
 10
89.4274
 20
116.7469
 10
89.5536
 20
116.0136
 10
89.7035
 20
115.2899
 10
89.8772
 20
114.5774
 10
90.0745
 20
113.8775
 10
90.2956
 20
113.1916
 10
90.5403
 20
112.5212
 10
90.8086
 20
111.8678
 10
91.1005
 20
111.2328
 10
91.416
 20
110.6177
 10
91.7551
 20
110.0239
 10
92.1176
 20
109.4529
 10
92.5036
 20
108.9062
 10
92.9131
 20
108.3852
 10
93.346
 20
107.8914
 10
93.8024
 20
107.4262
 10
94.2821
 20
106.9911
 10
94.7851
 20
106.5875
 10
95.3115
 20
106.217
 10
95.8611
 20
105.8809
 10
96.4341
 20
105.5807
 10
97.0302
 20
105.3179
 10
97.6496
 20
105.0939
 10
98.2922
 20
104.9102
 10
98.9579
 20
104.7683
 10
99.6467
 20
104.6696
 10
100.3587
 20
104.6155
 10
101.0937
 20
104.6076
 10
101.8518
 20
104.6473
 10
102.8061
 20
104.8555
 10
103.547
 20
105.2781
 10
104.1012
 20
105.8786
 10
104.4954
 20
106.6206
 10
104.7563
 20
107.4675
 10
104.9108
 20
108.3829
 10
104.9856
 20
109.3303
 10
105.0074
 20
110.2733
 10
105.003
 20
111.1753
 10
104.9992
 20
112.0
 10
105.0092
 20
112.4696
 10
105.032
 20
113.0322
 10
105.0655
 20
113.6805
 10
105.1075
 20
114.4074
 10
105.1558
 20
115.2055
 10
105.2083
 20
116.0677
 10
105.2627
 20
116.9867
 10
105.317
 20
117.9553
 10
105.3689
 20
118.9663
 10
105.4164
 20
120.0125
 10
105.4572
 20
121.0866
 10
105.4891
 20
122.1813
 10
105.5101
 20
123.2896
 10
105.5179
 20
124.404
 10
105.5104
 20
125.5175
 10
105.4854
 20
126.6228
 10
105.4408
 20
127.7127
 10
105.3743
 20
128.7798
 10
105.2838
 20
129.8171
 10
105.1673
 20
130.8173
 10
105.0224
 20
131.7732
 10
104.847
 20
132.6774
 10
104.639
 20
133.5229
 10
104.3962
 20
134.3023
 10
104.1164
 20
135.0085
 10
103.7975
 20
135.6342
 10
103.4374
 20
136.1723
 10
103.0337
 20
136.6153
 10
102.5844
 20
136.9563
 10
102.0874
 20
137.1878
 10
101.5404
 20
137.3028
 10
100.9413
 20
137.2939
  0
LWPOLYLINE
  5
5E
330
17
100
AcDbEntity
  8
0
100
AcDbPolyline
 90
78
 70
0
 10
106.0
 20
138.0
 10
106.0
 20
104.0
 10
106.8694
 20
104.037
 10
107.7156
 20
104.1063
 10
108.5384
 20
104.2069
 10
109.338
 20
104.3379
 10
110.1142
 20
104.4985
 10
110.8672
 20
104.6878
 10
111.5969
 20
104.905
 10
112.3032
 20
105.1493
 10
112.9863
 20
105.4196
 10
113.6462
 20
105.7153
 10
114.2827
 20
106.0353
 10
114.896
 20
106.379
 10
115.4861
 20
106.7453
 10
116.0529
 20
107.1335
 10
116.5964
 20
107.5427
 10
117.1167
 20
107.9719
 10
117.6138
 20
108.4205
 10
118.0876
 20
108.8874
 10
118.5382
 20
109.3719
 10
118.9656
 20
109.8731
 10
119.3698
 20
110.3901
 10
119.7508
 20
110.922
 10
120.1085
 20
111.468
 10
120.4431
 20
112.0273
 10
120.7544
 20
112.599
 10
121.0426
 20
113.1821
 10
121.3076
 20
113.776
 10
121.5494
 20
114.3796
 10
121.768
 20
114.9921
 10
121.9635
 20
115.6127
 10
122.1358
 20
116.2405
 10
122.2849
 20
116.8747
 10
122.4109
 20
117.5144
 10
122.5138
 20
118.1587
 10
122.5935
 20
118.8067
 10
122.65
 20
119.4577
 10
122.6835
 20
120.1107
 10
122.6938
 20
120.7649
 10
122.681
 20
121.4195
 10
122.645
 20
122.0735
 10
122.586
 20
122.7261
 10
122.5038
 20
123.3764
 10
122.3986
 20
124.0236
 10
122.2702
 20
124.6669
 10
122.1188
 20
125.3053
 10
121.9443
 20
125.938
 10
121.7467
 20
126.5641
 10
121.526
 20
127.1829
 10
121.2823
 20
127.7933
 10
121.0155
 20
128.3946
 10
120.7256
 20
128.9859
 10
120.4127
 20
129.5664
 10
120.0767
 20
130.1351
 10
119.7177
 20
130.6912
 10
119.3356
 20
131.2339
 10
118.9305
 20
131.7623
 10
118.5024
 20
132.2755
 10
118.0513
 20
132.7726
 10
117.5771
 20
133.2529
 10
117.08
 20
133.7155
 10
116.5598
 20
134.1594
 10
116.0166
 20
134.5839
 10
115.4505
 20
134.988
 10
114.8613
 20
135.3709
 10
114.2491
 20
135.7318
 10
113.614
 20
136.0698
 10
112.9559
 20
136.384
 10
112.2748
 20
136.6736
 10
111.5708
 20
136.9376
 10
110.8438
 20
137.1754
 10
110.0939
 20
137.3858
 10
109.3209
 20
137.5683
 10
108.5251
 20
137.7217
 10
107.7063
 20
137.8454
 10
106.8646
 20
137.9384
 10
106.0
 20
138.0
  0
LWPOLYLINE
  5
5F
330
17
100
AcDbEntity
  8
0
100
AcDbPolyline
 90
5
 70
0
 10
138.0
 20
121.0
 10
138.0
 20
120.0
 10
218.0
 20
120.0
 10
193.0
 20
121.0
 10
138.0
 20
121.0
  0
ENDSEC
  0
SECTION
  2
OBJECTS
  0
DICTIONARY
  5
A
330
0
100
AcDbDictionary
281
1
  3
ACAD_COLOR
350
B
  3
ACAD_GROUP
350
C
  3
ACAD_LAYOUT
350
D
  3
ACAD_MATERIAL
350
E
  3
ACAD_MLEADERSTYLE
350
F
  3
ACAD_MLINESTYLE
350
10
  3
ACAD_PLOTSETTINGS
350
11
  3
ACAD_PLOTSTYLENAME
350
12
  3
ACAD_SCALELIST
350
14
  3
ACAD_TABLESTYLE
350
15
  3
ACAD_VISUALSTYLE
350
16
  3
EZDXF_META
350
2D
  0
DICTIONARY
  5
B
330
A
100
AcDbDictionary
281
1
  0
DICTIONARY
  5
C
330
A
100
AcDbDictionary
281
1
  0
DICTIONARY
  5
D
330
A
100
AcDbDictionary
281
1
  3
Model
350
1A
  3
Layout1
350
1E
  0
DICTIONARY
  5
E
330
A
100
AcDbDictionary
281
1
  3
ByBlock
350
1F
  3
ByLayer
350
20
  3
Global
350
21
  0
DICTIONARY
  5
F
330
A
100
AcDbDictionary
281
1
  3
Standard
350
2C
  0
DICTIONARY
  5
10
330
A
100
AcDbDictionary
281
1
  3
Standard
350
22
  0
DICTIONARY
  5
11
330
A
100
AcDbDictionary
281
1
  0
ACDBDICTIONARYWDFLT
  5
12
330
A
100
AcDbDictionary
281
1
  3
Normal
350
13
100
AcDbDictionaryWithDefault
340
13
  0
ACDBPLACEHOLDER
  5
13
330
12
  0
DICTIONARY
  5
14
330
A
100
AcDbDictionary
281
1
  0
DICTIONARY
  5
15
330
A
100
AcDbDictionary
281
1
  0
DICTIONARY
  5
16
330
A
100
AcDbDictionary
281
1
  0
LAYOUT
  5
1A
330
D
100
AcDbPlotSettings
  1

  4
A3
  6

 40
7.5
 41
20.0
 42
7.5
 43
20.0
 44
420.0
 45
297.0
 46
0.0
 47
0.0
 48
0.0
 49
0.0
140
0.0
141
0.0
142
1.0
143
1.0
 70
1024
 72
1
 73
0
 74
5
  7

 75
16
 76
0
 77
2
 78
300
147
1.0
148
0.0
149
0.0
100
AcDbLayout
  1
Model
 70
1
 71
0
 10
0.0
 20
0.0
 11
420.0
 21
297.0
 12
0.0
 22
0.0
 32
0.0
 14
1e+20
 24
1e+20
 34
1e+20
 15
-1e+20
 25
-1e+20
 35
-1e+20
146
0.0
 13
0.0
 23
0.0
 33
0.0
 16
1.0
 26
0.0
 36
0.0
 17
0.0
 27
1.0
 37
0.0
 76
1
330
17
  0
LAYOUT
  5
1E
330
D
100
AcDbPlotSettings
  1

  4
A3
  6

 40
7.5
 41
20.0
 42
7.5
 43
20.0
 44
420.0
 45
297.0
 46
0.0
 47
0.0
 48
0.0
 49
0.0
140
0.0
141
0.0
142
1.0
143
1.0
 70
0
 72
1
 73
0
 74
5
  7

 75
16
 76
0
 77
2
 78
300
147
1.0
148
0.0
149
0.0
100
AcDbLayout
  1
Layout1
 70
1
 71
1
 10
0.0
 20
0.0
 11
420.0
 21
297.0
 12
0.0
 22
0.0
 32
0.0
 14
1e+20
 24
1e+20
 34
1e+20
 15
-1e+20
 25
-1e+20
 35
-1e+20
146
0.0
 13
0.0
 23
0.0
 33
0.0
 16
1.0
 26
0.0
 36
0.0
 17
0.0
 27
1.0
 37
0.0
 76
1
330
1B
  0
MATERIAL
  5
1F
102
{ACAD_REACTORS
330
E
102
}
330
E
100
AcDbMaterial
  1
ByBlock
  2

 70
0
 40
1.0
 71
1
 41
1.0
 91
-1023410177
 42
1.0
 72
1
  3

 73
1
 74
1
 75
1
 44
0.5
 73
0
 45
1.0
 46
1.0
 77
1
  4

 78
1
 79
1
170
1
 48
1.0
171
1
  6

172
1
173
1
174
1
140
1.0
141
1.0
175
1
  7

176
1
177
1
178
1
143
1.0
179
1
  8

270
1
271
1
272
1
145
1.0
146
1.0
273
1
  9

274
1
275
1
276
1
 42
1.0
 72
1
  3

 73
1
 74
1
 75
1
 94
63
  0
MATERIAL
  5
20
102
{ACAD_REACTORS
330
E
102
}
330
E
100
AcDbMaterial
  1
ByLayer
  2

 70
0
 40
1.0
 71
1
 41
1.0
 91
-1023410177
 42
1.0
 72
1
  3

 73
1
 74
1
 75
1
 44
0.5
 73
0
 45
1.0
 46
1.0
 77
1
  4

 78
1
 79
1
170
1
 48
1.0
171
1
  6

172
1
173
1
174
1
140
1.0
141
1.0
175
1
  7

176
1
177
1
178
1
143
1.0
179
1
  8

270
1
271
1
272
1
145
1.0
146
1.0
273
1
  9

274
1
275
1
276
1
 42
1.0
 72
1
  3

 73
1
 74
1
 75
1
 94
63
  0
MATERIAL
  5
21
102
{ACAD_REACTORS
330
E
102
}
330
E
100
AcDbMaterial
  1
Global
  2

 70
0
 40
1.0
 71
1
 41
1.0
 91
-1023410177
 42
1.0
 72
1
  3

 73
1
 74
1
 75
1
 44
0.5
 73
0
 45
1.0
 46
1.0
 77
1
  4

 78
1
 79
1
170
1
 48
1.0
171
1
  6

172
1
173
1
174
1
140
1.0
141
1.0
175
1
  7

176
1
177
1
178
1
143
1.0
179
1
  8

270
1
271
1
272
1
145
1.0
146
1.0
273
1
  9

274
1
275
1
276
1
 42
1.0
 72
1
  3

 73
1
 74
1
 75
1
 94
63
  0
MLINESTYLE
  5
22
102
{ACAD_REACTORS
330
10
102
}
330
10
100
AcDbMlineStyle
  2
Standard
 70
0
  3

 62
256
 51
90.0
 52
90.0
 71
2
 49
0.5
 62
256
  6
BYLAYER
 49
-0.5
 62
256
  6
BYLAYER
  0
MLEADERSTYLE
  5
2C
102
{ACAD_REACTORS
330
F
102
}
330
F
100
AcDbMLeaderStyle
179
2
170
2
171
1
172
0
 90
2
 40
0.0
 41
0.0
173
1
 91
-1056964608
 92
-2
290
1
 42
2.0
291
1
 43
8.0
  3
Standard
 44
4.0
300

342
29
174
1
175
1
176
0
178
1
 93
-1056964608
 45
4.0
292
0
297
0
 46
4.0
 94
-1056964608
 47
1.0
 49
1.0
140
1.0
294
1
141
0.0
177
0
142
1.0
295
0
296
0
143
3.75
271
0
272
9
273
9
  0
DICTIONARY
  5
2D
330
A
100
AcDbDictionary
280
1
281
1
  3
CREATED_BY_EZDXF
350
2E
  3
WRITTEN_BY_EZDXF
350
62
  0
DICTIONARYVAR
  5
2E
330
2D
100
DictionaryVariables
280
0
  1
1.4.3 @ 2025-11-04T01:50:00.762640+00:00
  0
DICTIONARYVAR
  5
62
330
2D
100
DictionaryVariables
280
0
  1
1.4.3 @ 2025-11-04T01:50:00.793339+00:00
  0
ENDSEC
  0
EOF
