  0
SECTION
  2
HEADER
  9
$ACADVER
  1
AC1027
  9
$ACADMAINTVER
 70
105
  9
$DWGCODEPAGE
  3
ANSI_1252
  9
$LASTSAVEDBY
  1
ezdxf
  9
$REQUIREDVERSIONS
160
0
  9
$INSBASE
 10
0.0
 20
0.0
 30
0.0
  9
$EXTMIN
 10
1e+20
 20
1e+20
 30
1e+20
  9
$EXTMAX
 10
-1e+20
 20
-1e+20
 30
-1e+20
  9
$LIMMIN
 10
0.0
 20
0.0
  9
$LIMMAX
 10
420.0
 20
297.0
  9
$ORTHOMODE
 70
0
  9
$REGENMODE
 70
1
  9
$FILLMODE
 70
1
  9
$QTEXTMODE
 70
0
  9
$MIRRTEXT
 70
1
  9
$LTSCALE
 40
1.0
  9
$ATTMODE
 70
1
  9
$TEXTSIZE
 40
2.5
  9
$TRACEWID
 40
1.0
  9
$TEXTSTYLE
  7
Standard
  9
$CLAYER
  8
0
  9
$CELTYPE
  6
ByLayer
  9
$CECOLOR
 62
256
  9
$CELTSCALE
 40
1.0
  9
$DISPSILH
 70
0
  9
$DIMSCALE
 40
1.0
  9
$DIMASZ
 40
2.5
  9
$DIMEXO
 40
0.625
  9
$DIMDLI
 40
3.75
  9
$DIMRND
 40
0.0
  9
$DIMDLE
 40
0.0
  9
$DIMEXE
 40
1.25
  9
$DIMTP
 40
0.0
  9
$DIMTM
 40
0.0
  9
$DIMTXT
 40
2.5
  9
$DIMCEN
 40
2.5
  9
$DIMTSZ
 40
0.0
  9
$DIMTOL
 70
0
  9
$DIMLIM
 70
0
  9
$DIMTIH
 70
0
  9
$DIMTOH
 70
0
  9
$DIMSE1
 70
0
  9
$DIMSE2
 70
0
  9
$DIMTAD
 70
1
  9
$DIMZIN
 70
8
  9
$DIMBLK
  1

  9
$DIMASO
 70
1
  9
$DIMSHO
 70
1
  9
$DIMPOST
  1

  9
$DIMAPOST
  1

  9
$DIMALT
 70
0
  9
$DIMALTD
 70
3
  9
$DIMALTF
 40
0.03937007874
  9
$DIMLFAC
 40
1.0
  9
$DIMTOFL
 70
1
  9
$DIMTVP
 40
0.0
  9
$DIMTIX
 70
0
  9
$DIMSOXD
 70
0
  9
$DIMSAH
 70
0
  9
$DIMBLK1
  1

  9
$DIMBLK2
  1

  9
$DIMSTYLE
  2
ISO-25
  9
$DIMCLRD
 70
0
  9
$DIMCLRE
 70
0
  9
$DIMCLRT
 70
0
  9
$DIMTFAC
 40
1.0
  9
$DIMGAP
 40
0.625
  9
$DIMJUST
 70
0
  9
$DIMSD1
 70
0
  9
$DIMSD2
 70
0
  9
$DIMTOLJ
 70
0
  9
$DIMTZIN
 70
8
  9
$DIMALTZ
 70
0
  9
$DIMALTTZ
 70
0
  9
$DIMUPT
 70
0
  9
$DIMDEC
 70
2
  9
$DIMTDEC
 70
2
  9
$DIMALTU
 70
2
  9
$DIMALTTD
 70
3
  9
$DIMTXSTY
  7
Standard
  9
$DIMAUNIT
 70
0
  9
$DIMADEC
 70
0
  9
$DIMALTRND
 40
0.0
  9
$DIMAZIN
 70
0
  9
$DIMDSEP
 70
44
  9
$DIMATFIT
 70
3
  9
$DIMFRAC
 70
0
  9
$DIMLDRBLK
  1

  9
$DIMLUNIT
 70
2
  9
$DIMLWD
 70
-2
  9
$DIMLWE
 70
-2
  9
$DIMTMOVE
 70
0
  9
$DIMFXL
 40
1.0
  9
$DIMFXLON
 70
0
  9
$DIMJOGANG
 40
0.785398163397
  9
$DIMTFILL
 70
0
  9
$DIMTFILLCLR
 70
0
  9
$DIMARCSYM
 70
0
  9
$DIMLTYPE
  6

  9
$DIMLTEX1
  6

  9
$DIMLTEX2
  6

  9
$DIMTXTDIRECTION
 70
0
  9
$LUNITS
 70
2
  9
$LUPREC
 70
4
  9
$SKETCHINC
 40
1.0
  9
$FILLETRAD
 40
10.0
  9
$AUNITS
 70
0
  9
$AUPREC
 70
2
  9
$MENU
  1
.
  9
$ELEVATION
 40
0.0
  9
$PELEVATION
 40
0.0
  9
$THICKNESS
 40
0.0
  9
$LIMCHECK
 70
0
  9
$CHAMFERA
 40
0.0
  9
$CHAMFERB
 40
0.0
  9
$CHAMFERC
 40
0.0
  9
$CHAMFERD
 40
0.0
  9
$SKPOLY
 70
0
  9
$TDCREATE
 40
2461003.882037037
  9
$TDUCREATE
 40
2458532.153996898
  9
$TDUPDATE
 40
2461003.882037037
  9
$TDUUPDATE
 40
2458532.1544311
  9
$TDINDWG
 40
0.0
  9
$TDUSRTIMER
 40
0.0
  9
$USRTIMER
 70
1
  9
$ANGBASE
 50
0.0
  9
$ANGDIR
 70
0
  9
$PDMODE
 70
0
  9
$PDSIZE
 40
0.0
  9
$PLINEWID
 40
0.0
  9
$SPLFRAME
 70
0
  9
$SPLINETYPE
 70
6
  9
$SPLINESEGS
 70
8
  9
$HANDSEED
  5
76
  9
$SURFTAB1
 70
6
  9
$SURFTAB2
 70
6
  9
$SURFTYPE
 70
6
  9
$SURFU
 70
6
  9
$SURFV
 70
6
  9
$UCSBASE
  2

  9
$UCSNAME
  2

  9
$UCSORG
 10
0.0
 20
0.0
 30
0.0
  9
$UCSXDIR
 10
1.0
 20
0.0
 30
0.0
  9
$UCSYDIR
 10
0.0
 20
1.0
 30
0.0
  9
$UCSORTHOREF
  2

  9
$UCSORTHOVIEW
 70
0
  9
$UCSORGTOP
 10
0.0
 20
0.0
 30
0.0
  9
$UCSORGBOTTOM
 10
0.0
 20
0.0
 30
0.0
  9
$UCSORGLEFT
 10
0.0
 20
0.0
 30
0.0
  9
$UCSORGRIGHT
 10
0.0
 20
0.0
 30
0.0
  9
$UCSORGFRONT
 10
0.0
 20
0.0
 30
0.0
  9
$UCSORGBACK
 10
0.0
 20
0.0
 30
0.0
  9
$PUCSBASE
  2

  9
$PUCSNAME
  2

  9
$PUCSORG
 10
0.0
 20
0.0
 30
0.0
  9
$PUCSXDIR
 10
1.0
 20
0.0
 30
0.0
  9
$PUCSYDIR
 10
0.0
 20
1.0
 30
0.0
  9
$PUCSORTHOREF
  2

  9
$PUCSORTHOVIEW
 70
0
  9
$PUCSORGTOP
 10
0.0
 20
0.0
 30
0.0
  9
$PUCSORGBOTTOM
 10
0.0
 20
0.0
 30
0.0
  9
$PUCSORGLEFT
 10
0.0
 20
0.0
 30
0.0
  9
$PUCSORGRIGHT
 10
0.0
 20
0.0
 30
0.0
  9
$PUCSORGFRONT
 10
0.0
 20
0.0
 30
0.0
  9
$PUCSORGBACK
 10
0.0
 20
0.0
 30
0.0
  9
$USERI1
 70
0
  9
$USERI2
 70
0
  9
$USERI3
 70
0
  9
$USERI4
 70
0
  9
$USERI5
 70
0
  9
$USERR1
 40
0.0
  9
$USERR2
 40
0.0
  9
$USERR3
 40
0.0
  9
$USERR4
 40
0.0
  9
$USERR5
 40
0.0
  9
$WORLDVIEW
 70
1
  9
$SHADEDGE
 70
3
  9
$SHADEDIF
 70
70
  9
$TILEMODE
 70
1
  9
$MAXACTVP
 70
64
  9
$PINSBASE
 10
0.0
 20
0.0
 30
0.0
  9
$PLIMCHECK
 70
0
  9
$PEXTMIN
 10
1e+20
 20
1e+20
 30
1e+20
  9
$PEXTMAX
 10
-1e+20
 20
-1e+20
 30
-1e+20
  9
$PLIMMIN
 10
0.0
 20
0.0
  9
$PLIMMAX
 10
420.0
 20
297.0
  9
$UNITMODE
 70
0
  9
$VISRETAIN
 70
1
  9
$PLINEGEN
 70
0
  9
$PSLTSCALE
 70
1
  9
$TREEDEPTH
 70
3020
  9
$CMLSTYLE
  2
Standard
  9
$CMLJUST
 70
0
  9
$CMLSCALE
 40
20.0
  9
$PROXYGRAPHICS
 70
1
  9
$MEASUREMENT
 70
1
  9
$CELWEIGHT
370
-1
  9
$ENDCAPS
280
0
  9
$JOINSTYLE
280
0
  9
$LWDISPLAY
290
0
  9
$INSUNITS
 70
6
  9
$HYPERLINKBASE
  1

  9
$STYLESHEET
  1

  9
$XEDIT
290
1
  9
$CEPSNTYPE
380
0
  9
$PSTYLEMODE
290
1
  9
$FINGERPRINTGUID
  2
{26A4934D-00C6-4051-99FB-F54B790C367B}
  9
$VERSIONGUID
  2
{E4806600-6B64-4417-94AC-8512F10B327E}
  9
$EXTNAMES
290
1
  9
$PSVPSCALE
 40
0.0
  9
$OLESTARTUP
290
0
  9
$SORTENTS
280
127
  9
$INDEXCTL
280
0
  9
$HIDETEXT
280
1
  9
$XCLIPFRAME
280
1
  9
$HALOGAP
280
0
  9
$OBSCOLOR
 70
257
  9
$OBSLTYPE
280
0
  9
$INTERSECTIONDISPLAY
280
0
  9
$INTERSECTIONCOLOR
 70
257
  9
$DIMASSOC
280
2
  9
$PROJECTNAME
  1

  9
$CAMERADISPLAY
290
0
  9
$LENSLENGTH
 40
50.0
  9
$CAMERAHEIGHT
 40
0.0
  9
$STEPSPERSEC
 40
24.0
  9
$STEPSIZE
 40
100.0
  9
$3DDWFPREC
 40
2.0
  9
$PSOLWIDTH
 40
0.005
  9
$PSOLHEIGHT
 40
0.08
  9
$LOFTANG1
 40
1.570796326795
  9
$LOFTANG2
 40
1.570796326795
  9
$LOFTMAG1
 40
0.0
  9
$LOFTMAG2
 40
0.0
  9
$LOFTPARAM
 70
7
  9
$LOFTNORMALS
280
1
  9
$LATITUDE
 40
37.795
  9
$LONGITUDE
 40
-122.394
  9
$NORTHDIRECTION
 40
0.0
  9
$TIMEZONE
 70
-8000
  9
$LIGHTGLYPHDISPLAY
280
1
  9
$TILEMODELIGHTSYNCH
280
1
  9
$CMATERIAL
347
20
  9
$SOLIDHIST
280
0
  9
$SHOWHIST
280
1
  9
$DWFFRAME
280
2
  9
$DGNFRAME
280
2
  9
$REALWORLDSCALE
290
1
  9
$INTERFERECOLOR
 62
256
  9
$CSHADOW
280
0
  9
$SHADOWPLANELOCATION
 40
0.0
  0
ENDSEC
  0
SECTION
  2
CLASSES
  0
CLASS
  1
ACDBDICTIONARYWDFLT
  2
AcDbDictionaryWithDefault
  3
ObjectDBX Classes
 90
0
 91
0
280
0
281
0
  0
CLASS
  1
SUN
  2
AcDbSun
  3
SCENEOE
 90
1153
 91
0
280
0
281
0
  0
CLASS
  1
VISUALSTYLE
  2
AcDbVisualStyle
  3
ObjectDBX Classes
 90
4095
 91
0
280
0
281
0
  0
CLASS
  1
MATERIAL
  2
AcDbMaterial
  3
ObjectDBX Classes
 90
1153
 91
0
280
0
281
0
  0
CLASS
  1
SCALE
  2
AcDbScale
  3
ObjectDBX Classes
 90
1153
 91
0
280
0
281
0
  0
CLASS
  1
TABLESTYLE
  2
AcDbTableStyle
  3
ObjectDBX Classes
 90
4095
 91
0
280
0
281
0
  0
CLASS
  1
MLEADERSTYLE
  2
AcDbMLeaderStyle
  3
ACDB_MLEADERSTYLE_CLASS
 90
4095
 91
0
280
0
281
0
  0
CLASS
  1
DICTIONARYVAR
  2
AcDbDictionaryVar
  3
ObjectDBX Classes
 90
0
 91
0
280
0
281
0
  0
CLASS
  1
CELLSTYLEMAP
  2
AcDbCellStyleMap
  3
ObjectDBX Classes
 90
1152
 91
0
280
0
281
0
  0
CLASS
  1
MENTALRAYRENDERSETTINGS
  2
AcDbMentalRayRenderSettings
  3
SCENEOE
 90
1024
 91
0
280
0
281
0
  0
CLASS
  1
ACDBDETAILVIEWSTYLE
  2
AcDbDetailViewStyle
  3
ObjectDBX Classes
 90
1025
 91
0
280
0
281
0
  0
CLASS
  1
ACDBSECTIONVIEWSTYLE
  2
AcDbSectionViewStyle
  3
ObjectDBX Classes
 90
1025
 91
0
280
0
281
0
  0
CLASS
  1
RASTERVARIABLES
  2
AcDbRasterVariables
  3
ISM
 90
0
 91
0
280
0
281
0
  0
CLASS
  1
ACDBPLACEHOLDER
  2
AcDbPlaceHolder
  3
ObjectDBX Classes
 90
0
 91
0
280
0
281
0
  0
CLASS
  1
LAYOUT
  2
AcDbLayout
  3
ObjectDBX Classes
 90
0
 91
0
280
0
281
0
  0
ENDSEC
  0
SECTION
  2
TABLES
  0
TABLE
  2
VPORT
  5
8
330
0
100
AcDbSymbolTable
 70
1
  0
VPORT
  5
23
330
8
100
AcDbSymbolTableRecord
100
AcDbViewportTableRecord
  2
*Active
 70
0
 10
0.0
 20
0.0
 11
1.0
 21
1.0
 12
0.0
 22
0.0
 13
0.0
 23
0.0
 14
0.5
 24
0.5
 15
0.5
 25
0.5
 16
0.0
 26
0.0
 36
1.0
 17
0.0
 27
0.0
 37
0.0
 40
1000.0
 41
1.34
 42
50.0
 43
0.0
 44
0.0
 50
0.0
 51
0.0
 71
0
 72
1000
 73
1
 74
3
 75
0
 76
0
 77
0
 78
0
281
0
 65
0
146
0.0
  0
ENDTAB
  0
TABLE
  2
LTYPE
  5
2
330
0
100
AcDbSymbolTable
 70
3
  0
LTYPE
  5
24
330
2
100
AcDbSymbolTableRecord
100
AcDbLinetypeTableRecord
  2
ByBlock
 70
0
  3

 72
65
 73
0
 40
0.0
  0
LTYPE
  5
25
330
2
100
AcDbSymbolTableRecord
100
AcDbLinetypeTableRecord
  2
ByLayer
 70
0
  3

 72
65
 73
0
 40
0.0
  0
LTYPE
  5
26
330
2
100
AcDbSymbolTableRecord
100
AcDbLinetypeTableRecord
  2
Continuous
 70
0
  3

 72
65
 73
0
 40
0.0
  0
ENDTAB
  0
TABLE
  2
LAYER
  5
1
330
0
100
AcDbSymbolTable
 70
2
  0
LAYER
  5
27
330
1
100
AcDbSymbolTableRecord
100
AcDbLayerTableRecord
  2
0
 70
0
 62
7
  6
Continuous
370
-3
390
13
347
21
  0
LAYER
  5
28
330
1
100
AcDbSymbolTableRecord
100
AcDbLayerTableRecord
  2
Defpoints
 70
0
 62
7
  6
Continuous
290
0
370
-3
390
13
347
21
  0
ENDTAB
  0
TABLE
  2
STYLE
  5
5
330
0
100
AcDbSymbolTable
 70
1
  0
STYLE
  5
29
330
5
100
AcDbSymbolTableRecord
100
AcDbTextStyleTableRecord
  2
Standard
 70
0
 40
0.0
 41
1.0
 50
0.0
 71
0
 42
2.5
  3
txt
  4

  0
ENDTAB
  0
TABLE
  2
VIEW
  5
7
330
0
100
AcDbSymbolTable
 70
0
  0
ENDTAB
  0
TABLE
  2
UCS
  5
6
330
0
100
AcDbSymbolTable
 70
0
  0
ENDTAB
  0
TABLE
  2
APPID
  5
3
330
0
100
AcDbSymbolTable
 70
3
  0
APPID
  5
2A
330
3
100
AcDbSymbolTableRecord
100
AcDbRegAppTableRecord
  2
ACAD
 70
0
  0
APPID
  5
73
330
3
100
AcDbSymbolTableRecord
100
AcDbRegAppTableRecord
  2
HATCHBACKGROUNDCOLOR
 70
0
  0
APPID
  5
74
330
3
100
AcDbSymbolTableRecord
100
AcDbRegAppTableRecord
  2
EZDXF
 70
0
  0
ENDTAB
  0
TABLE
  2
DIMSTYLE
  5
4
330
0
100
AcDbSymbolTable
 70
1
100
AcDbDimStyleTable
  0
DIMSTYLE
105
2B
330
4
100
AcDbSymbolTableRecord
100
AcDbDimStyleTableRecord
  2
Standard
 70
0
 40
1.0
 41
2.5
 42
0.625
 43
3.75
 44
1.25
 45
0.0
 46
0.0
 47
0.0
 48
0.0
 49
2.5
140
2.5
141
2.5
142
0.0
143
0.03937007874
144
1.0
145
0.0
146
1.0
147
0.625
148
0.0
 69
0
 70
0
 71
0
 72
0
 73
0
 74
0
 75
0
 76
0
 77
1
 78
8
 79
3
170
0
171
3
172
1
173
0
174
0
175
0
176
0
177
0
178
0
179
2
271
2
272
2
273
2
274
3
275
0
276
0
277
2
278
44
279
0
280
0
281
0
282
0
283
0
284
8
285
0
286
0
288
0
289
3
290
0
371
-2
372
-2
  0
ENDTAB
  0
TABLE
  2
BLOCK_RECORD
  5
9
330
0
100
AcDbSymbolTable
 70
2
  0
BLOCK_RECORD
  5
17
330
9
100
AcDbSymbolTableRecord
100
AcDbBlockTableRecord
  2
*Model_Space
340
1A
 70
0
280
1
281
0
  0
BLOCK_RECORD
  5
1B
330
9
100
AcDbSymbolTableRecord
100
AcDbBlockTableRecord
  2
*Paper_Space
340
1E
 70
0
280
1
281
0
  0
ENDTAB
  0
ENDSEC
  0
SECTION
  2
BLOCKS
  0
BLOCK
  5
18
330
17
100
AcDbEntity
  8
0
100
AcDbBlockBegin
  2
*Model_Space
 70
0
 10
0.0
 20
0.0
 30
0.0
  3
*Model_Space
  1

  0
ENDBLK
  5
19
330
17
100
AcDbEntity
  8
0
100
AcDbBlockEnd
  0
BLOCK
  5
1C
330
1B
100
AcDbEntity
  8
0
100
AcDbBlockBegin
  2
*Paper_Space
 70
0
 10
0.0
 20
0.0
 30
0.0
  3
*Paper_Space
  1

  0
ENDBLK
  5
1D
330
1B
100
AcDbEntity
  8
0
100
AcDbBlockEnd
  0
ENDSEC
  0
SECTION
  2
ENTITIES
  0
LWPOLYLINE
  5
2F
330
17
100
AcDbEntity
  8
0
100
AcDbPolyline
 90
5
 70
0
 10
0.0
 20
792.0
 10
0.0
 20
0.0
 10
1224.0
 20
0.0
 10
1224.0
 20
792.0
 10
0.0
 20
792.0
  0
LWPOLYLINE
  5
30
330
17
100
AcDbEntity
  8
0
100
AcDbPolyline
 90
5
 70
0
 10
36.0
 20
774.0
 10
36.0
 20
17.0
 10
1207.0
 20
17.0
 10
1207.0
 20
774.0
 10
36.0
 20
774.0
  0
LWPOLYLINE
  5
31
330
17
100
AcDbEntity
  8
0
100
AcDbPolyline
 90
771
 70
0
 10
37.0
 20
773.0
 10
37.0
 20
18.0
 10
1206.0
 20
18.0
 10
1206.0
 20
773.0
 10
677.0
 20
771.0
 10
677.0
 20
747.0
 10
638.0
 20
747.0
 10
638.0
 20
730.0
 10
643.0
 20
730.0
 10
643.0
 20
729.0
 10
638.0
 20
729.0
 10
638.0
 20
720.0
 10
684.0
 20
721.0
 10
684.089478
 20
632.0
 10
684.0
 20
543.0
 10
661.0
 20
544.0
 10
662.0
 20
521.0
 10
1014.0
 20
522.0
 10
1014.0
 20
459.0
 10
1055.0
 20
459.0
 10
1055.0
 20
448.0
 10
1050.0
 20
448.0
 10
1050.0
 20
446.0
 10
1050.8073
 20
445.991
 10
1051.6612
 20
445.9603
 10
1052.5538
 20
445.9153
 10
1053.4772
 20
445.8631
 10
1054.4235
 20
445.8111
 10
1055.3848
 20
445.7665
 10
1056.3533
 20
445.7366
 10
1057.3209
 20
445.7287
 10
1058.2799
 20
445.7501
 10
1059.2224
 20
445.8081
 10
1060.1404
 20
445.9099
 10
1061.026
 20
446.0628
 10
1061.8715
 20
446.2741
 10
1062.6688
 20
446.5511
 10
1063.41
 20
446.901
 10
1064.0874
 20
447.3312
 10
1064.693
 20
447.8489
 10
1065.2189
 20
448.4614
 10
1065.6571
 20
449.176
 10
1066.0
 20
450.0
 10
1067.0
 20
450.0
 10
1067.0
 20
446.0
 10
1082.0
 20
446.0
 10
1082.0
 20
561.0
 10
1083.0
 20
561.0
 10
1083.0
 20
445.0
 10
1067.0
 20
445.0
 10
1067.0
 20
436.0
 10
1066.0
 20
436.0
 10
1066.0
 20
443.0
 10
1048.0
 20
442.0
 10
1048.0
 20
448.0
 10
1034.0
 20
448.0
 10
1034.0
 20
441.0
 10
1031.0
 20
442.0
 10
1034.602539
 20
449.3974
 10
1051.0
 20
451.0
 10
1051.0
 20
455.0
 10
1025.0
 20
455.0
 10
1025.0
 20
451.0
 10
1028.0
 20
451.0
 10
1028.0
 20
446.0
 10
1027.0
 20
446.0
 10
1026.0
 20
448.0
 10
1025.292
 20
447.5166
 10
1024.5313
 20
447.0946
 10
1023.7221
 20
446.7304
 10
1022.8685
 20
446.4204
 10
1021.9749
 20
446.1609
 10
1021.0454
 20
445.9483
 10
1020.0843
 20
445.779
 10
1019.0958
 20
445.6493
 10
1018.0841
 20
445.5555
 10
1017.0534
 20
445.4942
 10
1016.0081
 20
445.4616
 10
1014.9522
 20
445.4541
 10
1013.89
 20
445.468
 10
1012.8258
 20
445.4998
 10
1011.7637
 20
445.5458
 10
1010.708
 20
445.6024
 10
1009.663
 20
445.6659
 10
1008.6328
 20
445.7327
 10
1007.6217
 20
445.7993
 10
1006.6338
 20
445.8618
 10
1005.6735
 20
445.9168
 10
1004.745
 20
445.9606
 10
1003.8524
 20
445.9895
 10
1003.0
 20
446.0
 10
1001.0
 20
440.0
 10
1006.0
 20
450.0
 10
1007.0
 20
519.0
 10
922.0
 20
519.0
 10
922.0
 20
450.0
 10
928.0
 20
443.0
 10
928.0
 20
442.0
 10
924.0
 20
442.0
 10
924.0
 20
448.0
 10
923.0
 20
448.0
 10
911.0
 20
448.0
 10
911.0
 20
442.0
 10
907.0
 20
442.0
 10
907.0
 20
443.0
 10
910.0
 20
443.0
 10
910.0
 20
450.0
 10
920.0
 20
450.0
 10
920.0
 20
519.0
 10
877.0
 20
519.0
 10
876.9976
 20
518.0814
 10
876.9905
 20
517.1566
 10
876.9791
 20
516.2259
 10
876.9634
 20
515.2892
 10
876.9438
 20
514.3469
 10
876.9203
 20
513.3991
 10
876.8932
 20
512.4459
 10
876.8627
 20
511.4876
 10
876.8291
 20
510.5243
 10
876.7925
 20
509.5561
 10
876.7531
 20
508.5834
 10
876.7112
 20
507.6061
 10
876.667
 20
506.6246
 10
876.6206
 20
505.6389
 10
876.5722
 20
504.6493
 10
876.5222
 20
503.6559
 10
876.4707
 20
502.6589
 10
876.4178
 20
501.6584
 10
876.3638
 20
500.6547
 10
876.309
 20
499.6479
 10
876.2535
 20
498.6382
 10
876.1975
 20
497.6257
 10
876.1413
 20
496.6107
 10
876.085
 20
495.5933
 10
876.0288
 20
494.5736
 10
875.973
 20
493.5519
 10
875.9178
 20
492.5284
 10
875.8634
 20
491.5031
 10
875.81
 20
490.4763
 10
875.7577
 20
489.4481
 10
875.7069
 20
488.4187
 10
875.6576
 20
487.3883
 10
875.6102
 20
486.3571
 10
875.5649
 20
485.3252
 10
875.5217
 20
484.2928
 10
875.481
 20
483.2601
 10
875.443
 20
482.2273
 10
875.4078
 20
481.1944
 10
875.3757
 20
480.1618
 10
875.3469
 20
479.1295
 10
875.3215
 20
478.0978
 10
875.2999
 20
477.0667
 10
875.2821
 20
476.0366
 10
875.2685
 20
475.0075
 10
875.2592
 20
473.9797
 10
875.2544
 20
472.9532
 10
875.2544
 20
471.9284
 10
875.2593
 20
470.9053
 10
875.2693
 20
469.8841
 10
875.2847
 20
468.865
 10
875.3057
 20
467.8481
 10
875.3325
 20
466.8338
 10
875.3652
 20
465.822
 10
875.4041
 20
464.813
 10
875.4495
 20
463.807
 10
875.5014
 20
462.8041
 10
875.5602
 20
461.8045
 10
875.626
 20
460.8084
 10
875.699
 20
459.816
 10
875.7795
 20
458.8273
 10
875.8677
 20
457.8427
 10
875.9637
 20
456.8623
 10
876.0677
 20
455.8861
 10
876.1801
 20
454.9145
 10
876.3009
 20
453.9476
 10
876.4304
 20
452.9856
 10
876.5688
 20
452.0286
 10
876.7163
 20
451.0768
 10
876.8732
 20
450.1303
 10
877.0396
 20
449.1894
 10
877.2157
 20
448.2543
 10
877.4017
 20
447.325
 10
877.5979
 20
446.4019
 10
877.8045
 20
445.4849
 10
878.0216
 20
444.5744
 10
878.2495
 20
443.6705
 10
878.4884
 20
442.7733
 10
878.7385
 20
441.8831
 10
879.0
 20
441.0
 10
876.0
 20
448.0
 10
875.0
 20
448.0
 10
872.0
 20
441.0
 10
872.2614
 20
441.8831
 10
872.5115
 20
442.7733
 10
872.7504
 20
443.6705
 10
872.9783
 20
444.5744
 10
873.1954
 20
445.485
 10
873.402
 20
446.4019
 10
873.5982
 20
447.3251
 10
873.7843
 20
448.2543
 10
873.9604
 20
449.1895
 10
874.1267
 20
450.1304
 10
874.2836
 20
451.0768
 10
874.4311
 20
452.0286
 10
874.5695
 20
452.9856
 10
874.6991
 20
453.9477
 10
874.8199
 20
454.9146
 10
874.9322
 20
455.8862
 10
875.0363
 20
456.8623
 10
875.1323
 20
457.8428
 10
875.2204
 20
458.8274
 10
875.3009
 20
459.816
 10
875.3739
 20
460.8085
 10
875.4397
 20
461.8046
 10
875.4985
 20
462.8042
 10
875.5505
 20
463.8071
 10
875.5958
 20
464.8131
 10
875.6347
 20
465.8221
 10
875.6675
 20
466.8338
 10
875.6942
 20
467.8482
 10
875.7152
 20
468.865
 10
875.7306
 20
469.8841
 10
875.7407
 20
470.9053
 10
875.7456
 20
471.9284
 10
875.7455
 20
472.9533
 10
875.7408
 20
473.9797
 10
875.7314
 20
475.0076
 10
875.7178
 20
476.0366
 10
875.7001
 20
477.0668
 10
875.6784
 20
478.0978
 10
875.6531
 20
479.1295
 10
875.6242
 20
480.1618
 10
875.5921
 20
481.1944
 10
875.557
 20
482.2273
 10
875.5189
 20
483.2601
 10
875.4782
 20
484.2929
 10
875.4351
 20
485.3252
 10
875.3897
 20
486.3571
 10
875.3423
 20
487.3884
 10
875.2931
 20
488.4187
 10
875.2422
 20
489.4481
 10
875.19
 20
490.4763
 10
875.1365
 20
491.5031
 10
875.0821
 20
492.5284
 10
875.0269
 20
493.5519
 10
874.9711
 20
494.5736
 10
874.915
 20
495.5933
 10
874.8587
 20
496.6107
 10
874.8024
 20
497.6257
 10
874.7464
 20
498.6382
 10
874.6909
 20
499.6479
 10
874.6361
 20
500.6547
 10
874.5821
 20
501.6584
 10
874.5293
 20
502.6588
 10
874.4777
 20
503.6559
 10
874.4277
 20
504.6493
 10
874.3793
 20
505.6389
 10
874.3329
 20
506.6246
 10
874.2887
 20
507.6061
 10
874.2468
 20
508.5833
 10
874.2074
 20
509.5561
 10
874.1708
 20
510.5243
 10
874.1372
 20
511.4876
 10
874.1067
 20
512.4459
 10
874.0796
 20
513.3991
 10
874.0562
 20
514.3469
 10
874.0365
 20
515.2892
 10
874.0208
 20
516.2258
 10
874.0094
 20
517.1566
 10
874.0023
 20
518.0814
 10
874.0
 20
519.0
 10
835.0
 20
519.0
 10
835.0
 20
475.0
 10
841.0
 20
472.0
 10
840.0
 20
472.0
 10
832.0
 20
474.0
 10
830.0
 20
481.0
 10
828.0
 20
483.0
 10
831.0
 20
480.0
 10
832.0
 20
480.0
 10
832.0
 20
496.0
 10
826.0
 20
496.0
 10
826.0
 20
489.0
 10
822.0
 20
490.0
 10
822.0
 20
491.0
 10
825.0
 20
491.0
 10
825.0
 20
498.0
 10
832.0
 20
498.0
 10
832.0
 20
507.0
 10
831.0
 20
507.0
 10
831.0
 20
504.0
 10
832.0
 20
519.0
 10
813.0
 20
519.0
 10
813.0
 20
511.0
 10
812.0083
 20
511.0163
 10
811.0571
 20
511.0447
 10
810.1554
 20
511.0542
 10
809.3125
 20
511.0141
 10
808.5375
 20
510.8934
 10
807.8394
 20
510.6612
 10
807.2275
 20
510.2866
 10
806.7109
 20
509.7388
 10
806.2986
 20
508.9869
 10
806.0
 20
508.0
 10
805.0
 20
508.0
 10
805.0
 20
512.0
 10
811.0
 20
512.0
 10
811.0
 20
519.0
 10
770.0
 20
519.0
 10
770.0
 20
463.0
 10
769.9959
 20
462.2026
 10
769.9858
 20
461.3544
 10
769.973
 20
460.461
 10
769.9604
 20
459.5282
 10
769.9514
 20
458.5617
 10
769.949
 20
457.5675
 10
769.9565
 20
456.5511
 10
769.977
 20
455.5185
 10
770.0136
 20
454.4754
 10
770.0696
 20
453.4275
 10
770.1482
 20
452.3806
 10
770.2524
 20
451.3405
 10
770.3855
 20
450.313
 10
770.5505
 20
449.3039
 10
770.7508
 20
448.3188
 10
770.9894
 20
447.3637
 10
771.2696
 20
446.4443
 10
771.5944
 20
445.5662
 10
771.9671
 20
444.7355
 10
772.3909
 20
443.9577
 10
772.8688
 20
443.2386
 10
773.4041
 20
442.5841
 10
774.0
 20
442.0
 10
774.0
 20
441.0
 10
771.0
 20
448.0
 10
768.0
 20
448.0
 10
765.0
 20
441.0
 10
765.0
 20
442.0
 10
765.5574
 20
442.5572
 10
766.0498
 20
443.1926
 10
766.481
 20
443.8995
 10
766.8545
 20
444.6715
 10
767.1743
 20
445.502
 10
767.4439
 20
446.3844
 10
767.6673
 20
447.3122
 10
767.8481
 20
448.279
 10
767.9901
 20
449.2781
 10
768.097
 20
450.303
 10
768.1726
 20
451.3471
 10
768.2206
 20
452.404
 10
768.2447
 20
453.4671
 10
768.2488
 20
454.5298
 10
768.2366
 20
455.5857
 10
768.2117
 20
456.6281
 10
768.178
 20
457.6505
 10
768.1392
 20
458.6465
 10
768.0991
 20
459.6094
 10
768.0613
 20
460.5328
 10
768.0297
 20
461.41
 10
768.008
 20
462.2346
 10
768.0
 20
463.0
 10
768.0
 20
519.0
 10
727.0
 20
519.0
 10
727.0
 20
450.0
 10
732.0
 20
450.0
 10
734.0
 20
445.0
 10
734.0
 20
444.0
 10
731.0
 20
448.0
 10
730.0127
 20
447.9326
 10
729.0242
 20
447.8702
 10
728.0347
 20
447.8126
 10
727.044
 20
447.7597
 10
726.0523
 20
447.7113
 10
725.0595
 20
447.6673
 10
724.0658
 20
447.6275
 10
723.0711
 20
447.5919
 10
722.0756
 20
447.5602
 10
721.0791
 20
447.5324
 10
720.0819
 20
447.5082
 10
719.0839
 20
447.4876
 10
718.0852
 20
447.4704
 10
717.0857
 20
447.4565
 10
716.0856
 20
447.4458
 10
715.0849
 20
447.438
 10
714.0836
 20
447.4331
 10
713.0817
 20
447.4309
 10
712.0794
 20
447.4314
 10
711.0766
 20
447.4342
 10
710.0734
 20
447.4394
 10
709.0698
 20
447.4467
 10
708.0658
 20
447.4561
 10
707.0616
 20
447.4674
 10
706.0571
 20
447.4804
 10
705.0524
 20
447.495
 10
704.0475
 20
447.5112
 10
703.0425
 20
447.5286
 10
702.0374
 20
447.5473
 10
701.0322
 20
447.567
 10
700.027
 20
447.5876
 10
699.0218
 20
447.6091
 10
698.0167
 20
447.6311
 10
697.0116
 20
447.6537
 10
696.0068
 20
447.6767
 10
695.002
 20
447.6999
 10
693.9976
 20
447.7231
 10
692.9933
 20
447.7464
 10
691.9894
 20
447.7694
 10
690.9858
 20
447.7921
 10
689.9826
 20
447.8144
 10
688.9798
 20
447.836
 10
687.9775
 20
447.857
 10
686.9757
 20
447.877
 10
685.9744
 20
447.896
 10
684.9737
 20
447.9139
 10
683.9736
 20
447.9305
 10
682.9742
 20
447.9456
 10
681.9754
 20
447.9592
 10
680.9774
 20
447.9711
 10
679.9802
 20
447.9811
 10
678.9838
 20
447.9891
 10
677.9883
 20
447.9951
 10
676.9937
 20
447.9987
 10
676.0
 20
448.0
 10
675.2742
 20
448.0099
 10
674.4894
 20
448.036
 10
673.6531
 20
448.0732
 10
672.7731
 20
448.1162
 10
671.857
 20
448.1595
 10
670.9127
 20
448.1981
 10
669.9478
 20
448.2265
 10
668.97
 20
448.2396
 10
667.9871
 20
448.232
 10
667.0066
 20
448.1984
 10
666.0365
 20
448.1337
 10
665.0842
 20
448.0324
 10
664.1577
 20
447.8894
 10
663.2645
 20
447.6993
 10
662.4124
 20
447.4568
 10
661.6091
 20
447.1568
 10
660.8623
 20
446.7939
 10
660.1798
 20
446.3628
 10
659.5691
 20
445.8582
 10
659.0381
 20
445.2749
 10
658.5944
 20
444.6076
 10
658.2458
 20
443.8511
 10
658.0
 20
443.0
 10
657.0
 20
443.0
 10
657.1602
 20
444.0421
 10
657.3916
 20
444.9813
 10
657.6906
 20
445.8227
 10
658.0534
 20
446.5715
 10
658.4766
 20
447.2329
 10
658.9564
 20
447.8118
 10
659.4892
 20
448.3136
 10
660.0713
 20
448.7433
 10
660.6992
 20
449.106
 10
661.3692
 20
449.407
 10
662.0777
 20
449.6513
 10
662.821
 20
449.8441
 10
663.5955
 20
449.9904
 10
664.3975
 20
450.0956
 10
665.2235
 20
450.1646
 10
666.0698
 20
450.2027
 10
666.9327
 20
450.215
 10
667.8087
 20
450.2065
 10
668.6941
 20
450.1826
 10
669.5852
 20
450.1482
 10
670.4784
 20
450.1085
 10
671.3702
 20
450.0687
 10
672.2567
 20
450.0339
 10
673.1346
 20
450.0093
 10
674.0
 20
450.0
 10
725.0
 20
450.0
 10
725.0
 20
519.0
 10
638.0
 20
519.0
 10
638.0
 20
508.0
 10
634.0
 20
508.0
 10
634.0
 20
509.0
 10
634.4204
 20
509.4307
 10
634.7946
 20
509.9435
 10
635.1247
 20
510.5333
 10
635.4128
 20
511.1953
 10
635.661
 20
511.9247
 10
635.8715
 20
512.7166
 10
636.0463
 20
513.5662
 10
636.1875
 20
514.4686
 10
636.2974
 20
515.419
 10
636.3779
 20
516.4124
 10
636.4312
 20
517.4442
 10
636.4594
 20
518.5093
 10
636.4646
 20
519.603
 10
636.449
 20
520.7204
 10
636.4146
 20
521.8566
 10
636.3636
 20
523.0069
 10
636.2981
 20
524.1662
 10
636.2202
 20
525.3299
 10
636.1319
 20
526.493
 10
636.0355
 20
527.6507
 10
635.9331
 20
528.7981
 10
635.8267
 20
529.9304
 10
635.7184
 20
531.0427
 10
635.6104
 20
532.1302
 10
635.5049
 20
533.1881
 10
635.4038
 20
534.2113
 10
635.3093
 20
535.1953
 10
635.2236
 20
536.1349
 10
635.1487
 20
537.0255
 10
635.0868
 20
537.8622
 10
635.04
 20
538.64
 10
635.0103
 20
539.3542
 10
635.0
 20
540.0
 10
639.0
 20
540.0
 10
639.0
 20
539.0
 10
637.0
 20
532.0
 10
641.0
 20
533.0
 10
640.0
 20
529.0
 10
637.0
 20
525.0
 10
640.0
 20
525.0
 10
640.0
 20
521.0
 10
659.0
 20
521.0
 10
659.0
 20
529.0
 10
655.0
 20
531.0
 10
653.0
 20
533.0
 10
658.0
 20
530.0
 10
659.0
 20
546.0
 10
658.1859
 20
546.0139
 10
657.3273
 20
546.0506
 10
656.4319
 20
546.1025
 10
655.5074
 20
546.1622
 10
654.5613
 20
546.2219
 10
653.6013
 20
546.2743
 10
652.6352
 20
546.3117
 10
651.6706
 20
546.3266
 10
650.7151
 20
546.3114
 10
649.7764
 20
546.2586
 10
648.8622
 20
546.1606
 10
647.9801
 20
546.0099
 10
647.1378
 20
545.7989
 10
646.343
 20
545.5201
 10
645.6033
 20
545.1659
 10
644.9264
 20
544.7288
 10
644.32
 20
544.2012
 10
643.7916
 20
543.5755
 10
643.3491
 20
542.8443
 10
643.0
 20
542.0
 10
642.0
 20
542.0
 10
642.0
 20
545.0
 10
635.0
 20
545.0
 10
635.0
 20
551.0
 10
644.0
 20
552.0
 10
637.0
 20
550.0
 10
637.0
 20
548.0
 10
679.0
 20
548.0
 10
679.0
 20
567.0
 10
678.0446
 20
567.0041
 10
677.0803
 20
567.0159
 10
676.1075
 20
567.0348
 10
675.1268
 20
567.0598
 10
674.1388
 20
567.0903
 10
673.1438
 20
567.1254
 10
672.1423
 20
567.1644
 10
671.135
 20
567.2065
 10
670.1224
 20
567.251
 10
669.1048
 20
567.297
 10
668.0828
 20
567.3439
 10
667.057
 20
567.3908
 10
666.0278
 20
567.437
 10
664.9958
 20
567.4817
 10
663.9614
 20
567.5241
 10
662.9252
 20
567.5635
 10
661.8877
 20
567.599
 10
660.8493
 20
567.63
 10
659.8106
 20
567.6557
 10
658.7721
 20
567.6752
 10
657.7343
 20
567.6879
 10
656.6977
 20
567.6929
 10
655.6629
 20
567.6894
 10
654.6302
 20
567.6768
 10
653.6003
 20
567.6542
 10
652.5736
 20
567.6209
 10
651.5506
 20
567.5761
 10
650.5319
 20
567.519
 10
649.5179
 20
567.4488
 10
648.5092
 20
567.3649
 10
647.5063
 20
567.2663
 10
646.5096
 20
567.1524
 10
645.5198
 20
567.0224
 10
644.5372
 20
566.8755
 10
643.5624
 20
566.711
 10
642.596
 20
566.528
 10
641.6383
 20
566.3258
 10
640.69
 20
566.1037
 10
639.7514
 20
565.8608
 10
638.8233
 20
565.5964
 10
637.9059
 20
565.3097
 10
637.0
 20
565.0
 10
638.0
 20
557.0
 10
637.4891
 20
557.3934
 10
637.0162
 20
557.8819
 10
636.581
 20
558.4583
 10
636.1837
 20
559.1151
 10
635.8242
 20
559.845
 10
635.5026
 20
560.6409
 10
635.2188
 20
561.4952
 10
634.9729
 20
562.4008
 10
634.7648
 20
563.3502
 10
634.5945
 20
564.3363
 10
634.4621
 20
565.3516
 10
634.3675
 20
566.3889
 10
634.3107
 20
567.4407
 10
634.2918
 20
568.5
 10
634.3107
 20
569.5592
 10
634.3675
 20
570.611
 10
634.4621
 20
571.6483
 10
634.5945
 20
572.6636
 10
634.7648
 20
573.6497
 10
634.9729
 20
574.5991
 10
635.2188
 20
575.5047
 10
635.5026
 20
576.359
 10
635.8242
 20
577.1549
 10
636.1837
 20
577.8848
 10
636.581
 20
578.5416
 10
637.0162
 20
579.118
 10
637.4891
 20
579.6065
 10
638.0
 20
580.0
 10
637.0
 20
569.0
 10
679.0
 20
569.0
 10
679.0
 20
598.0
 10
637.0
 20
598.0
 10
637.0
 20
587.0
 10
644.0
 20
585.0
 10
635.0
 20
586.0
 10
635.0095
 20
586.6818
 10
635.0364
 20
587.4298
 10
635.0783
 20
588.2388
 10
635.1327
 20
589.1035
 10
635.1973
 20
590.0186
 10
635.2695
 20
590.9791
 10
635.347
 20
591.9795
 10
635.4274
 20
593.0148
 10
635.5081
 20
594.0796
 10
635.5869
 20
595.1687
 10
635.6612
 20
596.2769
 10
635.7286
 20
597.399
 10
635.7868
 20
598.5297
 10
635.8332
 20
599.6638
 10
635.8654
 20
600.796
 10
635.8811
 20
601.9212
 10
635.8778
 20
603.034
 10
635.853
 20
604.1293
 10
635.8043
 20
605.2019
 10
635.7294
 20
606.2464
 10
635.6257
 20
607.2577
 10
635.4909
 20
608.2305
 10
635.3226
 20
609.1596
 10
635.1182
 20
610.0398
 10
634.8754
 20
610.8658
 10
634.5917
 20
611.6323
 10
634.2648
 20
612.3343
 10
633.8921
 20
612.9664
 10
633.4713
 20
613.5233
 10
633.0
 20
614.0
 10
633.0
 20
615.0
 10
639.0
 20
614.0
 10
640.0
 20
599.0
 10
679.0
 20
599.0
 10
679.0
 20
617.0
 10
658.0
 20
617.0
 10
658.0
 20
623.0
 10
639.0
 20
623.0
 10
639.0
 20
620.0
 10
638.0416
 20
620.0199
 10
637.0902
 20
620.062
 10
636.1588
 20
620.0993
 10
635.2606
 20
620.1049
 10
634.4085
 20
620.0519
 10
633.6157
 20
619.9135
 10
632.8954
 20
619.6629
 10
632.2605
 20
619.2731
 10
631.7243
 20
618.7172
 10
631.2997
 20
617.9685
 10
631.0
 20
617.0
 10
630.0
 20
617.0
 10
630.0
 20
621.0
 10
635.0
 20
621.0
 10
635.0
 20
646.0
 10
639.0
 20
646.0
 10
640.0
 20
640.0
 10
645.0
 20
642.0
 10
644.0
 20
638.0
 10
639.0
 20
639.0
 10
639.0
 20
625.0
 10
658.0
 20
625.0
 10
657.0
 20
633.0
 10
657.7137
 20
632.2237
 10
658.3107
 20
631.4155
 10
658.8009
 20
630.5775
 10
659.1944
 20
629.7118
 10
659.5011
 20
628.8208
 10
659.7311
 20
627.9066
 10
659.8943
 20
626.9714
 10
660.0009
 20
626.0175
 10
660.0607
 20
625.047
 10
660.0839
 20
624.0622
 10
660.0804
 20
623.0652
 10
660.0602
 20
622.0582
 10
660.0334
 20
621.0436
 10
660.01
 20
620.0234
 10
660.0
 20
619.0
 10
679.0
 20
619.0
 10
679.0
 20
638.0
 10
678.1746
 20
637.99
 10
677.3109
 20
637.9623
 10
676.4125
 20
637.9199
 10
675.4829
 20
637.8658
 10
674.5257
 20
637.803
 10
673.5443
 20
637.7347
 10
672.5423
 20
637.6638
 10
671.5233
 20
637.5935
 10
670.4907
 20
637.5268
 10
669.4481
 20
637.4667
 10
668.3991
 20
637.4163
 10
667.3471
 20
637.3786
 10
666.2957
 20
637.3567
 10
665.2485
 20
637.3537
 10
664.2089
 20
637.3725
 10
663.1805
 20
637.4164
 10
662.1669
 20
637.4882
 10
661.1715
 20
637.5911
 10
660.1979
 20
637.7281
 10
659.2497
 20
637.9023
 10
658.3303
 20
638.1166
 10
657.4434
 20
638.3743
 10
656.5923
 20
638.6783
 10
655.7808
 20
639.0316
 10
655.0122
 20
639.4374
 10
654.2902
 20
639.8987
 10
653.6183
 20
640.4185
 10
653.0
 20
641.0
 10
657.0
 20
639.0
 10
679.0
 20
640.0
 10
679.0
 20
660.0
 10
660.0
 20
660.0
 10
660.01
 20
658.9765
 10
660.0334
 20
657.9563
 10
660.0602
 20
656.9416
 10
660.0804
 20
655.9347
 10
660.0839
 20
654.9377
 10
660.0607
 20
653.9529
 10
660.0009
 20
652.9824
 10
659.8943
 20
652.0284
 10
659.7311
 20
651.0932
 10
659.5011
 20
650.179
 10
659.1944
 20
649.288
 10
658.8009
 20
648.4224
 10
658.3107
 20
647.5844
 10
657.7137
 20
646.7762
 10
657.0
 20
646.0
 10
658.0
 20
660.0
 10
639.0
 20
660.0
 10
639.0
 20
653.0
 10
645.0
 20
650.0
 10
644.1032
 20
650.2351
 10
643.137
 20
650.4354
 10
642.1274
 20
650.6233
 10
641.1001
 20
650.821
 10
640.0809
 20
651.0511
 10
639.0959
 20
651.3359
 10
638.1707
 20
651.6977
 10
637.3312
 20
652.1591
 10
636.6034
 20
652.7423
  0
LWPOLYLINE
  5
32
330
17
100
AcDbEntity
  8
0
100
AcDbPolyline
 90
437
 70
0
 10
636.6033
 20
652.7423
 10
636.1058
 20
653.3209
 10
635.6763
 20
654.0039
 10
635.3133
 20
654.7788
 10
635.0155
 20
655.6333
 10
634.7815
 20
656.5549
 10
634.61
 20
657.5313
 10
634.4995
 20
658.55
 10
634.4488
 20
659.5987
 10
634.4564
 20
660.6648
 10
634.5209
 20
661.7361
 10
634.6411
 20
662.8
 10
634.8156
 20
663.8443
 10
635.0429
 20
664.8564
 10
635.3217
 20
665.824
 10
635.6507
 20
666.7347
 10
636.0284
 20
667.5761
 10
636.4536
 20
668.3357
 10
636.9248
 20
669.0011
 10
637.4407
 20
669.56
 10
638.0
 20
670.0
 10
637.0
 20
666.0
 10
640.0
 20
666.0
 10
637.0
 20
663.0
 10
637.0
 20
662.0
 10
679.0
 20
662.0
 10
679.0
 20
679.0
 10
637.0
 20
679.0
 10
637.0
 20
677.0
 10
644.0
 20
677.0
 10
643.0
 20
673.0
 10
642.0803
 20
673.6325
 10
641.2064
 20
674.192
 10
640.3804
 20
674.6966
 10
639.6046
 20
675.1642
 10
638.8811
 20
675.6128
 10
638.212
 20
676.0602
 10
637.5996
 20
676.5245
 10
637.046
 20
677.0235
 10
636.5534
 20
677.5754
 10
636.1239
 20
678.1979
 10
635.7598
 20
678.9092
 10
635.4631
 20
679.727
 10
635.2362
 20
680.6695
 10
635.081
 20
681.7545
 10
635.0
 20
683.0
 10
644.0
 20
684.0
 10
637.0
 20
682.0
 10
637.0
 20
680.0
 10
679.0
 20
680.0
 10
679.0
 20
697.0
 10
678.0446
 20
697.0041
 10
677.0803
 20
697.0159
 10
676.1075
 20
697.0348
 10
675.1269
 20
697.0598
 10
674.1388
 20
697.0903
 10
673.1438
 20
697.1254
 10
672.1424
 20
697.1644
 10
671.1351
 20
697.2065
 10
670.1224
 20
697.251
 10
669.1048
 20
697.297
 10
668.0829
 20
697.3439
 10
667.0571
 20
697.3908
 10
666.0279
 20
697.437
 10
664.9959
 20
697.4817
 10
663.9615
 20
697.5241
 10
662.9253
 20
697.5635
 10
661.8877
 20
697.599
 10
660.8494
 20
697.63
 10
659.8107
 20
697.6557
 10
658.7722
 20
697.6752
 10
657.7344
 20
697.6879
 10
656.6978
 20
697.6929
 10
655.6629
 20
697.6894
 10
654.6302
 20
697.6768
 10
653.6003
 20
697.6542
 10
652.5736
 20
697.6209
 10
651.5506
 20
697.5761
 10
650.5319
 20
697.519
 10
649.5179
 20
697.4488
 10
648.5092
 20
697.3649
 10
647.5063
 20
697.2663
 10
646.5097
 20
697.1524
 10
645.5198
 20
697.0224
 10
644.5372
 20
696.8755
 10
643.5624
 20
696.711
 10
642.596
 20
696.528
 10
641.6383
 20
696.3258
 10
640.69
 20
696.1037
 10
639.7515
 20
695.8608
 10
638.8233
 20
695.5964
 10
637.9059
 20
695.3097
 10
637.0
 20
695.0
 10
636.9932
 20
693.855
 10
636.9959
 20
692.8175
 10
637.0579
 20
691.8901
 10
637.229
 20
691.0756
 10
637.5589
 20
690.3766
 10
638.0975
 20
689.7959
 10
638.8946
 20
689.3361
 10
640.0
 20
689.0
 10
640.0
 20
688.0
 10
635.0
 20
688.0
 10
635.0
 20
708.0
 10
639.0
 20
708.0
 10
639.0
 20
707.0
 10
637.0
 20
699.0
 10
679.0
 20
699.0
 10
679.0
 20
716.0
 10
637.0
 20
716.0
 10
637.0
 20
714.0
 10
644.0
 20
714.0
 10
643.0
 20
710.0
 10
642.0
 20
710.0
 10
642.0
 20
713.0
 10
635.0
 20
713.0
 10
635.0
 20
718.0
 10
634.0
 20
718.0
 10
634.0
 20
712.0
 10
630.0
 20
712.0
 10
630.0
 20
713.0
 10
636.0
 20
720.0
 10
636.0
 20
729.0
 10
618.0
 20
729.0
 10
618.0
 20
720.0
 10
621.0
 20
720.0
 10
623.0
 20
713.0
 10
623.0
 20
712.0
 10
620.0
 20
718.0
 10
610.0
 20
713.0
 10
609.0
 20
713.0
 10
608.7026
 20
713.9457
 10
608.273
 20
714.6878
 10
607.726
 20
715.2494
 10
607.0767
 20
715.6537
 10
606.34
 20
715.9238
 10
605.5311
 20
716.0828
 10
604.6649
 20
716.1539
 10
603.7564
 20
716.1602
 10
602.8206
 20
716.1248
 10
601.8726
 20
716.0708
 10
600.9274
 20
716.0215
 10
600.0
 20
716.0
 10
574.0
 20
716.0
 10
574.0
 20
698.0
 10
602.0
 20
698.0
 10
613.396606
 20
699.027771
 10
614.0
 20
710.0
 10
618.0
 20
710.0
 10
618.0
 20
684.0
 10
610.0
 20
682.0
 10
609.0
 20
682.0
 10
615.0
 20
685.0
 10
613.396606
 20
694.972229
 10
602.0
 20
696.0
 10
574.0
 20
696.0
 10
574.0
 20
666.0
 10
615.0
 20
666.0
 10
613.0
 20
678.0
 10
613.0
 20
679.0
 10
613.7207
 20
678.6876
 10
614.3813
 20
678.3057
 10
614.9842
 20
677.8578
 10
615.5318
 20
677.3475
 10
616.0264
 20
676.7785
 10
616.4704
 20
676.1544
 10
616.8662
 20
675.4787
 10
617.2161
 20
674.7552
 10
617.5225
 20
673.9875
 10
617.7879
 20
673.1791
 10
618.0145
 20
672.3337
 10
618.2048
 20
671.4548
 10
618.3611
 20
670.5463
 10
618.4858
 20
669.6115
 10
618.5813
 20
668.6542
 10
618.6499
 20
667.6781
 10
618.6941
 20
666.6866
 10
618.7161
 20
665.6834
 10
618.7184
 20
664.6722
 10
618.7034
 20
663.6566
 10
618.6734
 20
662.6402
 10
618.6307
 20
661.6265
 10
618.5779
 20
660.6193
 10
618.5171
 20
659.6222
 10
618.4509
 20
658.6387
 10
618.3816
 20
657.6725
 10
618.3115
 20
656.7272
 10
618.2431
 20
655.8065
 10
618.1787
 20
654.9139
 10
618.1207
 20
654.0531
 10
618.0714
 20
653.2276
 10
618.0333
 20
652.4412
 10
618.0087
 20
651.6975
 10
618.0
 20
651.0
 10
610.0
 20
649.0
 10
609.0
 20
649.0
 10
609.0
 20
653.0
 10
615.0
 20
652.0
 10
613.972229
 20
662.396606
 10
603.0
 20
664.0
 10
574.0
 20
664.0
 10
574.0
 20
633.0
 10
574.9616
 20
632.996
 10
575.9302
 20
632.9848
 10
576.9053
 20
632.9668
 10
577.8864
 20
632.9428
 10
578.8732
 20
632.9134
 10
579.8652
 20
632.8793
 10
580.862
 20
632.8412
 10
581.8632
 20
632.7997
 10
582.8684
 20
632.7556
 10
583.8772
 20
632.7094
 10
584.8891
 20
632.6619
 10
585.9038
 20
632.6138
 10
586.9207
 20
632.5656
 10
587.9396
 20
632.518
 10
588.96
 20
632.4718
 10
589.9814
 20
632.4277
 10
591.0035
 20
632.3861
 10
592.0258
 20
632.348
 10
593.0479
 20
632.3138
 10
594.0695
 20
632.2843
 10
595.09
 20
632.2602
 10
596.1091
 20
632.2421
 10
597.1263
 20
632.2306
 10
598.1413
 20
632.2266
 10
599.1537
 20
632.2305
 10
600.1629
 20
632.2432
 10
601.1686
 20
632.2652
 10
602.1704
 20
632.2973
 10
603.1679
 20
632.3401
 10
604.1605
 20
632.3942
 10
605.1481
 20
632.4604
 10
606.13
 20
632.5393
 10
607.1059
 20
632.6316
 10
608.0754
 20
632.738
 10
609.0381
 20
632.859
 10
609.9935
 20
632.9955
 10
610.9413
 20
633.1481
 10
611.8049
 20
633.3761
 10
612.5666
 20
633.7382
 10
613.2282
 20
634.2193
 10
613.7915
 20
634.8044
 10
614.2584
 20
635.4782
 10
614.6306
 20
636.2259
 10
614.9101
 20
637.0321
 10
615.0985
 20
637.8819
 10
615.1977
 20
638.7602
 10
615.2096
 20
639.6518
 10
615.136
 20
640.5418
 10
614.9787
 20
641.4149
 10
614.7394
 20
642.2561
 10
614.4201
 20
643.0503
 10
614.0225
 20
643.7824
 10
613.5486
 20
644.4373
 10
613.0
 20
645.0
 10
613.0
 20
646.0
 10
618.0
 20
646.0
 10
618.0
 20
619.0
 10
610.0
 20
617.0
 10
609.0
 20
617.0
 10
615.0
 20
620.0
 10
613.396606
 20
629.972229
 10
602.0
 20
631.0
 10
574.0
 20
631.0
 10
574.0
 20
600.0
 10
603.0
 20
600.0
 10
613.972229
 20
601.603394
 10
615.0
 20
613.0
 10
618.0
 20
613.0
 10
618.0
 20
586.0
 10
610.0
 20
584.0
 10
609.0
 20
584.0
 10
609.0
 20
588.0
 10
615.0
 20
587.0
 10
615.0
 20
598.0
 10
574.0
 20
598.0
 10
574.0
 20
568.0
 10
574.9616
 20
567.996
 10
575.9302
 20
567.9848
 10
576.9053
 20
567.9668
 10
577.8864
 20
567.9428
 10
578.8732
 20
567.9134
 10
579.8652
 20
567.8793
 10
580.862
 20
567.8412
 10
581.8632
 20
567.7997
 10
582.8684
 20
567.7556
 10
583.8772
 20
567.7094
 10
584.8891
 20
567.6619
 10
585.9038
 20
567.6138
 10
586.9207
 20
567.5656
 10
587.9396
 20
567.518
 10
588.96
 20
567.4718
 10
589.9814
 20
567.4277
 10
591.0035
 20
567.3861
 10
592.0258
 20
567.348
 10
593.0479
 20
567.3138
 10
594.0695
 20
567.2843
 10
595.09
 20
567.2602
 10
596.1091
 20
567.2421
 10
597.1263
 20
567.2306
 10
598.1413
 20
567.2266
 10
599.1537
 20
567.2305
 10
600.1629
 20
567.2432
 10
601.1686
 20
567.2652
 10
602.1704
 20
567.2973
 10
603.1679
 20
567.3401
 10
604.1605
 20
567.3942
 10
605.1481
 20
567.4604
 10
606.13
 20
567.5393
 10
607.1059
 20
567.6316
 10
608.0754
 20
567.738
 10
609.0381
 20
567.859
 10
609.9935
 20
567.9955
 10
610.9413
 20
568.1481
 10
611.8049
 20
568.3761
 10
612.5666
 20
568.7382
 10
613.2282
 20
569.2193
 10
613.7915
 20
569.8043
 10
614.2584
 20
570.4782
 10
614.6307
 20
571.2258
 10
614.9101
 20
572.0321
 10
615.0985
 20
572.8819
 10
615.1978
 20
573.7602
 10
615.2097
 20
574.6518
 10
615.1361
 20
575.5417
 10
614.9787
 20
576.4148
 10
614.7395
 20
577.256
 10
614.4201
 20
578.0502
 10
614.0226
 20
578.7823
 10
613.5486
 20
579.4373
 10
613.0
 20
580.0
 10
613.0
 20
581.0
 10
618.0
 20
581.0
 10
618.0
 20
553.0
 10
613.0
 20
553.0
 10
613.0
 20
554.0
 10
613.5486
 20
554.5626
 10
614.0226
 20
555.2175
 10
614.4201
 20
555.9496
 10
614.7395
 20
556.7438
 10
614.9787
 20
557.585
 10
615.1361
 20
558.4581
 10
615.2097
 20
559.348
 10
615.1978
 20
560.2397
 10
615.0985
 20
561.118
 10
614.9101
 20
561.9678
 10
614.6307
 20
562.774
 10
614.2584
 20
563.5216
 10
613.7915
 20
564.1955
 10
613.2282
 20
564.7805
 10
612.5666
 20
565.2617
 10
611.8049
 20
565.6238
 10
610.9413
 20
565.8518
 10
609.9935
 20
566.0043
 10
609.0381
 20
566.1408
 10
608.0754
 20
566.2618
 10
607.1059
 20
566.3682
 10
606.13
 20
566.4605
 10
605.1481
 20
566.5394
 10
604.1605
 20
566.6056
 10
603.1679
 20
566.6598
 10
602.1704
 20
566.7025
 10
601.1686
 20
566.7346
 10
600.1629
 20
566.7566
 10
599.1537
 20
566.7693
 10
598.1413
 20
566.7733
 10
597.1263
 20
566.7692
 10
596.1091
 20
566.7578
 10
595.09
 20
566.7397
 10
594.0695
 20
566.7155
 10
593.0479
 20
566.6861
 10
592.0258
 20
566.6519
 10
591.0035
 20
566.6137
 10
589.9814
 20
566.5722
 10
588.96
 20
566.528
 10
587.9396
 20
566.4818
 10
586.9207
 20
566.4343
 10
585.9038
 20
566.3861
 10
584.8891
 20
566.3379
 10
583.8772
 20
566.2904
 10
582.8684
 20
566.2443
 10
581.8632
 20
566.2002
 10
580.862
 20
566.1587
 10
579.8652
 20
566.1206
 10
578.8732
 20
566.0865
 10
577.8864
 20
566.0571
 10
576.9053
 20
566.0331
 10
575.9302
 20
566.0151
 10
574.9616
 20
566.0039
 10
574.0
 20
566.0
 10
574.0
 20
548.0
 10
615.0
 20
546.0
 10
615.0
 20
547.0
 10
609.0
 20
550.0
 10
610.0
 20
550.0
 10
618.0
 20
548.0
 10
618.0
 20
543.0
 10
610.0
 20
541.0
 10
609.0
 20
541.0
 10
608.7538
 20
541.7647
 10
608.3781
 20
542.4102
 10
607.8856
 20
542.9458
 10
607.2887
 20
543.3805
 10
606.6001
 20
543.7235
 10
605.8321
 20
543.984
 10
604.9974
 20
544.171
 10
604.1086
 20
544.2938
 10
603.1781
 20
544.3615
 10
602.2185
 20
544.3832
 10
601.2424
 20
544.3681
 10
600.2623
 20
544.3253
 10
599.2907
 20
544.264
 10
598.3402
 20
544.1933
 10
597.4233
 20
544.1225
 10
596.5526
 20
544.0605
 10
595.7407
 20
544.0166
 10
595.0
 20
544.0
 10
595.0
 20
524.0
 10
595.8519
 20
523.9861
 10
596.7582
 20
523.9481
 10
597.7117
 20
523.8916
 10
598.7049
 20
523.8221
 10
599.7306
 20
523.7452
 10
600.7814
 20
523.6665
 10
601.8499
 20
523.5915
 10
602.9289
 20
523.5258
 10
604.0111
 20
523.475
 10
605.0891
 20
523.4445
 10
606.1555
 20
523.4401
 10
607.203
 20
523.4671
 10
608.2244
 20
523.5313
 10
609.2123
 20
523.6381
 10
610.1593
 20
523.7932
 10
611.0582
 20
524.002
 10
611.9015
 20
524.2702
 10
612.6821
 20
524.6034
  0
LWPOLYLINE
  5
33
330
17
100
AcDbEntity
  8
0
100
AcDbPolyline
 90
782
 70
0
 10
612.6821
 20
524.6033
 10
613.3476
 20
525.0285
 10
613.9068
 20
525.5836
 10
614.3642
 20
526.2508
 10
614.724
 20
527.0122
 10
614.9905
 20
527.85
 10
615.1681
 20
528.7463
 10
615.261
 20
529.6833
 10
615.2736
 20
530.643
 10
615.2101
 20
531.6077
 10
615.075
 20
532.5595
 10
614.8724
 20
533.4806
 10
614.6068
 20
534.3531
 10
614.2824
 20
535.1591
 10
613.9036
 20
535.8808
 10
613.4747
 20
536.5004
 10
613.0
 20
537.0
 10
613.0
 20
538.0
 10
613.6546
 20
537.7151
 10
614.2616
 20
537.3618
 10
614.8228
 20
536.9432
 10
615.3396
 20
536.4624
 10
615.8138
 20
535.9225
 10
616.2468
 20
535.3266
 10
616.6404
 20
534.6779
 10
616.996
 20
533.9795
 10
617.3154
 20
533.2344
 10
617.6002
 20
532.4459
 10
617.8518
 20
531.6169
 10
618.0721
 20
530.7506
 10
618.2624
 20
529.8502
 10
618.4246
 20
528.9187
 10
618.5601
 20
527.9593
 10
618.6706
 20
526.975
 10
618.7578
 20
525.969
 10
618.8231
 20
524.9444
 10
618.8682
 20
523.9044
 10
618.8947
 20
522.8519
 10
618.9043
 20
521.7902
 10
618.8985
 20
520.7224
 10
618.8789
 20
519.6515
 10
618.8472
 20
518.5807
 10
618.8049
 20
517.5131
 10
618.7538
 20
516.4518
 10
618.6953
 20
515.3999
 10
618.631
 20
514.3606
 10
618.5627
 20
513.3369
 10
618.4919
 20
512.332
 10
618.4202
 20
511.349
 10
618.3492
 20
510.3909
 10
618.2805
 20
509.461
 10
618.2157
 20
508.5623
 10
618.1565
 20
507.6979
 10
618.1045
 20
506.8709
 10
618.0612
 20
506.0846
 10
618.0283
 20
505.3419
 10
618.0073
 20
504.646
 10
618.0
 20
504.0
 10
618.0121
 20
503.0284
 10
618.0387
 20
502.0584
 10
618.0648
 20
501.0951
 10
618.0754
 20
500.144
 10
618.0555
 20
499.2102
 10
617.9901
 20
498.2991
 10
617.8643
 20
497.4159
 10
617.663
 20
496.566
 10
617.3712
 20
495.7546
 10
616.974
 20
494.987
 10
616.4564
 20
494.2685
 10
615.8034
 20
493.6044
 10
615.0
 20
493.0
 10
616.0
 20
499.0
 10
605.0
 20
499.0
 10
605.0
 20
480.0
 10
610.0
 20
480.0
 10
610.652
 20
480.9892
 10
611.2809
 20
481.6958
 10
611.8943
 20
482.1197
 10
612.4999
 20
482.2611
 10
613.1055
 20
482.1197
 10
613.7189
 20
481.6958
 10
614.3478
 20
480.9892
 10
615.0
 20
480.0
 10
616.0
 20
480.0
 10
616.0
 20
486.0
 10
609.0
 20
489.0
 10
610.1607
 20
488.642
 10
611.231
 20
488.3028
 10
612.213
 20
487.9707
 10
613.1092
 20
487.6342
 10
613.9218
 20
487.2814
 10
614.6531
 20
486.9008
 10
615.3054
 20
486.4808
 10
615.8809
 20
486.0095
 10
616.3821
 20
485.4755
 10
616.8112
 20
484.867
 10
617.1704
 20
484.1725
 10
617.4622
 20
483.3801
 10
617.6887
 20
482.4783
 10
617.8523
 20
481.4555
 10
617.9553
 20
480.2999
 10
618.0
 20
479.0
 10
624.0
 20
479.0
 10
625.0
 20
471.0
 10
624.0
 20
471.0
 10
623.0
 20
477.0
 10
618.0
 20
477.0
 10
617.9852
 20
475.9942
 10
617.9027
 20
475.067
 10
617.7553
 20
474.2154
 10
617.5456
 20
473.4363
 10
617.2764
 20
472.7269
 10
616.9505
 20
472.084
 10
616.5706
 20
471.5048
 10
616.1396
 20
470.9862
 10
615.6601
 20
470.5252
 10
615.1349
 20
470.1189
 10
614.5668
 20
469.7643
 10
613.9585
 20
469.4583
 10
613.3128
 20
469.1981
 10
612.6325
 20
468.9806
 10
611.9203
 20
468.8027
 10
611.179
 20
468.6617
 10
610.4113
 20
468.5544
 10
609.62
 20
468.4778
 10
608.8078
 20
468.429
 10
607.9776
 20
468.4051
 10
607.132
 20
468.4029
 10
606.2739
 20
468.4195
 10
605.4059
 20
468.452
 10
604.5309
 20
468.4973
 10
603.6516
 20
468.5525
 10
602.7708
 20
468.6146
 10
601.8912
 20
468.6805
 10
601.0155
 20
468.7473
 10
600.1467
 20
468.8121
 10
599.2873
 20
468.8717
 10
598.4402
 20
468.9234
 10
597.6081
 20
468.9639
 10
596.7937
 20
468.9904
 10
596.0
 20
469.0
 10
589.0
 20
463.0
 10
588.0
 20
463.0
 10
588.0
 20
467.0
 10
594.0
 20
467.0
 10
593.4188
 20
467.7103
 10
592.7631
 20
468.3139
 10
592.0401
 20
468.8188
 10
591.2569
 20
469.233
 10
590.4208
 20
469.5645
 10
589.5389
 20
469.8214
 10
588.6183
 20
470.0116
 10
587.6664
 20
470.1432
 10
586.6902
 20
470.2243
 10
585.697
 20
470.2627
 10
584.6939
 20
470.2666
 10
583.6882
 20
470.244
 10
582.6869
 20
470.2028
 10
581.6974
 20
470.1512
 10
580.7267
 20
470.097
 10
579.7822
 20
470.0485
 10
578.8708
 20
470.0134
 10
578.0
 20
470.0
 10
579.0
 20
464.0
 10
575.0
 20
464.0
 10
575.0
 20
465.0
 10
577.0
 20
473.0
 10
603.0
 20
473.0
 10
603.0
 20
492.0
 10
601.0
 20
494.0
 10
601.3984
 20
494.1418
 10
601.7542
 20
494.4236
 10
602.0695
 20
494.8356
 10
602.3464
 20
495.3681
 10
602.5871
 20
496.0113
 10
602.7936
 20
496.7556
 10
602.9681
 20
497.5911
 10
603.1127
 20
498.5082
 10
603.2295
 20
499.4972
 10
603.3207
 20
500.5483
 10
603.3884
 20
501.6517
 10
603.4347
 20
502.7979
 10
603.4617
 20
503.9769
 10
603.4716
 20
505.1792
 10
603.4665
 20
506.3949
 10
603.4484
 20
507.6144
 10
603.4197
 20
508.8279
 10
603.3822
 20
510.0257
 10
603.3383
 20
511.1981
 10
603.2899
 20
512.3353
 10
603.2393
 20
513.4276
 10
603.1886
 20
514.4653
 10
603.1398
 20
515.4387
 10
603.0951
 20
516.338
 10
603.0567
 20
517.1535
 10
603.0266
 20
517.8755
 10
603.007
 20
518.4942
 10
603.0
 20
519.0
 10
529.0
 20
519.0
 10
529.0
 20
473.0
 10
551.0
 20
473.0
 10
553.0
 20
465.0
 10
553.0
 20
464.0
 10
550.0
 20
470.0
 10
524.0
 20
469.0
 10
524.0
 20
473.0
 10
527.0
 20
473.0
 10
527.0
 20
519.0
 10
496.0
 20
519.0
 10
496.0
 20
473.0
 10
497.0073
 20
473.0076
 10
498.0025
 20
473.0286
 10
498.9849
 20
473.0598
 10
499.9542
 20
473.0985
 10
500.9097
 20
473.1414
 10
501.851
 20
473.1858
 10
502.7775
 20
473.2285
 10
503.6887
 20
473.2667
 10
504.5842
 20
473.2972
 10
505.4633
 20
473.3172
 10
506.3257
 20
473.3237
 10
507.1707
 20
473.3136
 10
507.9978
 20
473.2841
 10
508.8066
 20
473.232
 10
509.5965
 20
473.1544
 10
510.367
 20
473.0484
 10
511.1176
 20
472.9109
 10
511.8478
 20
472.739
 10
512.5571
 20
472.5297
 10
513.2449
 20
472.28
 10
513.9107
 20
471.9869
 10
514.554
 20
471.6475
 10
515.1744
 20
471.2587
 10
515.7712
 20
470.8175
 10
516.3441
 20
470.3211
 10
516.8923
 20
469.7663
 10
517.4156
 20
469.1503
 10
517.9132
 20
468.4699
 10
518.3848
 20
467.7224
 10
518.8298
 20
466.9046
 10
519.2476
 20
466.0136
 10
519.6379
 20
465.0464
 10
520.0
 20
464.0
 10
517.0
 20
470.0
 10
516.3259
 20
470.0087
 10
515.5825
 20
470.0333
 10
514.7751
 20
470.0715
 10
513.9097
 20
470.1207
 10
512.9918
 20
470.1788
 10
512.0272
 20
470.2431
 10
511.0215
 20
470.3115
 10
509.9803
 20
470.3814
 10
508.9095
 20
470.4506
 10
507.8146
 20
470.5166
 10
506.7013
 20
470.5771
 10
505.5754
 20
470.6296
 10
504.4425
 20
470.6718
 10
503.3082
 20
470.7013
 10
502.1783
 20
470.7157
 10
501.0585
 20
470.7127
 10
499.9544
 20
470.6898
 10
498.8717
 20
470.6447
 10
497.8161
 20
470.575
 10
496.7933
 20
470.4783
 10
495.8089
 20
470.3522
 10
494.8687
 20
470.1943
 10
493.9782
 20
470.0023
 10
493.1433
 20
469.7738
 10
492.3695
 20
469.5064
 10
491.6627
 20
469.1977
 10
491.0283
 20
468.8453
 10
490.4722
 20
468.4468
 10
490.0
 20
468.0
 10
489.0
 20
468.0
 10
489.0
 20
473.0
 10
494.0
 20
473.0
 10
494.0
 20
519.0
 10
443.0
 20
519.0
 10
443.0
 20
473.0
 10
452.0
 20
473.0
 10
454.0
 20
465.0
 10
454.0
 20
464.0
 10
451.0
 20
470.0
 10
426.0
 20
469.0
 10
426.0
 20
473.0
 10
441.0
 20
473.0
 10
441.0
 20
519.0
 10
377.0
 20
519.0
 10
377.0
 20
473.0
 10
388.0
 20
473.0
 10
389.0
 20
464.0
 10
386.0
 20
464.0
 10
386.0
 20
465.0
 10
387.0
 20
470.0
 10
386.2943
 20
470.0092
 10
385.5259
 20
470.0351
 10
384.7001
 20
470.075
 10
383.8223
 20
470.1264
 10
382.8977
 20
470.1867
 10
381.9317
 20
470.2531
 10
380.9297
 20
470.3232
 10
379.8969
 20
470.3943
 10
378.8388
 20
470.4638
 10
377.7605
 20
470.529
 10
376.6676
 20
470.5874
 10
375.5652
 20
470.6363
 10
374.4588
 20
470.6732
 10
373.3536
 20
470.6954
 10
372.255
 20
470.7002
 10
371.1684
 20
470.6852
 10
370.099
 20
470.6476
 10
369.0522
 20
470.5849
 10
368.0333
 20
470.4944
 10
367.0477
 20
470.3736
 10
366.1007
 20
470.2198
 10
365.1976
 20
470.0304
 10
364.3437
 20
469.8027
 10
363.5445
 20
469.5343
 10
362.8051
 20
469.2224
 10
362.131
 20
468.8645
 10
361.5275
 20
468.4578
 10
361.0
 20
468.0
 10
360.0
 20
468.0
 10
360.0
 20
473.0
 10
375.0
 20
473.0
 10
375.0133
 20
473.6728
 10
375.0496
 20
474.43
 10
375.1032
 20
475.2612
 10
375.1687
 20
476.1556
 10
375.2404
 20
477.1026
 10
375.3127
 20
478.0918
 10
375.38
 20
479.1125
 10
375.4368
 20
480.154
 10
375.4775
 20
481.2059
 10
375.4965
 20
482.2575
 10
375.4882
 20
483.2983
 10
375.447
 20
484.3176
 10
375.3674
 20
485.3048
 10
375.2438
 20
486.2494
 10
375.0705
 20
487.1407
 10
374.8421
 20
487.9682
 10
374.5529
 20
488.7214
 10
374.1973
 20
489.3895
 10
373.7698
 20
489.962
 10
373.2648
 20
490.4283
 10
372.6767
 20
490.7778
 10
372.0
 20
491.0
 10
372.5203
 20
491.7763
 10
372.989
 20
492.5832
 10
373.4086
 20
493.4189
 10
373.7814
 20
494.2813
 10
374.1098
 20
495.1687
 10
374.3964
 20
496.079
 10
374.6434
 20
497.0105
 10
374.8534
 20
497.9611
 10
375.0288
 20
498.9291
 10
375.172
 20
499.9125
 10
375.2854
 20
500.9094
 10
375.3714
 20
501.9179
 10
375.4325
 20
502.9361
 10
375.4711
 20
503.9621
 10
375.4896
 20
504.9941
 10
375.4905
 20
506.03
 10
375.4762
 20
507.0681
 10
375.449
 20
508.1065
 10
375.4115
 20
509.1431
 10
375.3661
 20
510.1762
 10
375.3151
 20
511.2038
 10
375.2611
 20
512.224
 10
375.2064
 20
513.235
 10
375.1534
 20
514.2348
 10
375.1046
 20
515.2216
 10
375.0625
 20
516.1933
 10
375.0294
 20
517.1483
 10
375.0077
 20
518.0844
 10
375.0
 20
519.0
 10
345.0
 20
519.0
 10
345.0
 20
473.0
 10
355.0
 20
473.0
 10
357.0
 20
465.0
 10
357.0
 20
464.0
 10
353.0
 20
464.0
 10
354.0
 20
470.0
 10
335.0
 20
470.0
 10
335.0
 20
465.0
 10
332.0
 20
465.0
 10
331.7398
 20
466.1962
 10
331.3933
 20
467.1818
 10
330.9561
 20
467.9776
 10
330.4241
 20
468.6048
 10
329.7929
 20
469.0843
 10
329.0582
 20
469.437
 10
328.2159
 20
469.6839
 10
327.2616
 20
469.846
 10
326.191
 20
469.9444
 10
325.0
 20
470.0
 10
325.0
 20
473.0
 10
343.0
 20
473.0
 10
343.0
 20
519.0
 10
312.0
 20
519.0
 10
312.0
 20
473.0
 10
313.256
 20
472.9185
 10
314.3601
 20
472.7618
 10
315.3258
 20
472.5302
 10
316.1665
 20
472.2239
 10
316.8955
 20
471.8431
 10
317.5264
 20
471.3882
 10
318.0725
 20
470.8594
 10
318.5472
 20
470.2569
 10
318.964
 20
469.5811
 10
319.3363
 20
468.8321
 10
319.6775
 20
468.0103
 10
320.0011
 20
467.116
 10
320.3204
 20
466.1493
 10
320.6489
 20
465.1105
 10
321.0
 20
464.0
 10
318.0
 20
470.0
 10
310.0
 20
470.0
 10
307.0
 20
464.0
 10
307.0
 20
465.0
 10
307.5669
 20
465.5612
 10
308.0686
 20
466.193
 10
308.5089
 20
466.8901
 10
308.8913
 20
467.6474
 10
309.2195
 20
468.4596
 10
309.497
 20
469.3216
 10
309.7275
 20
470.2281
 10
309.9147
 20
471.1739
 10
310.0621
 20
472.1539
 10
310.1734
 20
473.1629
 10
310.2521
 20
474.1955
 10
310.3021
 20
475.2468
 10
310.3267
 20
476.3114
 10
310.3298
 20
477.3841
 10
310.3148
 20
478.4598
 10
310.2855
 20
479.5332
 10
310.2455
 20
480.5992
 10
310.1983
 20
481.6526
 10
310.1477
 20
482.688
 10
310.0971
 20
483.7005
 10
310.0504
 20
484.6847
 10
310.011
 20
485.6354
 10
309.9827
 20
486.5475
 10
309.969
 20
487.4158
 10
309.9735
 20
488.235
 10
310.0
 20
489.0
 10
307.0
 20
488.0
 10
306.0
 20
495.0
 10
310.0
 20
493.0
 10
310.0
 20
500.0
 10
306.0
 20
503.0
 10
309.0
 20
501.0
 10
310.0
 20
519.0
 10
300.0
 20
519.0
 10
300.147369
 20
477.104187
 10
304.0
 20
468.0
 10
303.0
 20
468.0
 10
298.0
 20
469.0
 10
298.0
 20
519.0
 10
294.0
 20
519.0
 10
292.0
 20
515.0
 10
294.0
 20
539.0
 10
283.0
 20
539.0
 10
282.9915
 20
538.2572
 10
282.9681
 20
537.4566
 10
282.9327
 20
536.6033
 10
282.8882
 20
535.7026
 10
282.8374
 20
534.7598
 10
282.7832
 20
533.7802
 10
282.7286
 20
532.7688
 10
282.6765
 20
531.7312
 10
282.6296
 20
530.6724
 10
282.591
 20
529.5978
 10
282.5636
 20
528.5126
 10
282.5501
 20
527.422
 10
282.5536
 20
526.3314
 10
282.5768
 20
525.246
 10
282.6228
 20
524.171
 10
282.6944
 20
523.1118
 10
282.7945
 20
522.0735
 10
282.926
 20
521.0614
 10
283.0918
 20
520.0807
 10
283.2947
 20
519.1369
 10
283.5378
 20
518.235
 10
283.8238
 20
517.3803
 10
284.1557
 20
516.5782
 10
284.5364
 20
515.8339
 10
284.9687
 20
515.1525
 10
285.4556
 20
514.5395
 10
286.0
 20
514.0
 10
286.0
 20
513.0
 10
283.0
 20
519.0
 10
280.0
 20
519.0
 10
278.972229
 20
495.317902
 10
272.0
 20
491.0
 10
271.0
 20
491.0
 10
277.0
 20
494.0
 10
277.0
 20
496.0
 10
276.0514
 20
495.9972
 10
275.0968
 20
495.9892
 10
274.1365
 20
495.9762
 10
273.1706
 20
495.9586
 10
272.1994
 20
495.9366
 10
271.2231
 20
495.9105
 10
270.242
 20
495.8807
 10
269.2561
 20
495.8473
 10
268.2658
 20
495.8109
 10
267.2712
 20
495.7715
 10
266.2727
 20
495.7296
 10
265.2703
 20
495.6854
 10
264.2643
 20
495.6393
 10
263.2549
 20
495.5914
 10
262.2424
 20
495.5423
 10
261.227
 20
495.492
 10
260.2088
 20
495.441
 10
259.1881
 20
495.3896
 10
258.1652
 20
495.3379
 10
257.1401
 20
495.2864
 10
256.1132
 20
495.2354
 10
255.0847
 20
495.185
 10
254.0547
 20
495.1358
 10
253.0235
 20
495.0878
 10
251.9913
 20
495.0415
 10
250.9584
 20
494.9971
 10
249.9249
 20
494.955
 10
248.891
 20
494.9154
 10
247.8571
 20
494.8787
 10
246.8232
 20
494.8451
 10
245.7896
 20
494.8149
 10
244.7566
 20
494.7885
 10
243.7242
 20
494.7661
 10
242.6929
 20
494.7481
 10
241.6627
 20
494.7347
 10
240.6339
 20
494.7262
 10
239.6068
 20
494.723
 10
238.5814
 20
494.7253
 10
237.5581
 20
494.7335
 10
236.537
 20
494.7478
 10
235.5185
 20
494.7686
 10
234.5026
 20
494.7961
 10
233.4896
 20
494.8307
 10
232.4797
 20
494.8726
 10
231.4732
 20
494.9221
 10
230.4702
 20
494.9796
 10
229.4711
 20
495.0454
 10
228.4759
 20
495.1197
 10
227.4849
 20
495.2028
 10
226.4983
 20
495.2951
 10
225.5164
 20
495.3968
 10
224.5393
 20
495.5083
 10
223.5673
 20
495.6299
 10
222.6006
 20
495.7617
 10
221.6394
 20
495.9043
 10
220.6839
 20
496.0578
 10
219.7344
 20
496.2225
 10
218.791
 20
496.3988
 10
217.854
 20
496.5869
 10
216.9236
 20
496.7872
 10
216.0
 20
497.0
 10
216.0
 20
498.0
 10
276.0
 20
498.0
 10
276.0
 20
522.0
 10
281.0
 20
522.0
 10
281.0
 20
539.0
 10
274.0
 20
539.0
 10
274.0
 20
540.0
 10
305.0
 20
540.0
 10
305.0
 20
539.0
 10
297.0
 20
539.0
 10
297.0
 20
522.0
 10
387.0
 20
521.5448
 10
592.0
 20
521.0
 10
592.0
 20
544.0
 10
570.0
 20
543.0
 10
569.997
 20
543.9567
 10
569.9883
 20
544.9192
 10
569.9743
 20
545.887
 10
569.9553
 20
546.8601
 10
569.9317
 20
547.8381
 10
569.9039
 20
548.8208
 10
569.8722
 20
549.8081
 10
569.837
 20
550.7996
 10
569.7986
 20
551.7951
 10
569.7575
 20
552.7945
 10
569.714
 20
553.7975
 10
569.6685
 20
554.8038
 10
569.6213
 20
555.8132
 10
569.5728
 20
556.8255
 10
569.5233
 20
557.8406
 10
569.4733
 20
558.858
 10
569.4232
 20
559.8777
 10
569.3731
 20
560.8993
 10
569.3237
 20
561.9227
 10
569.2751
 20
562.9476
 10
569.2278
 20
563.9738
 10
569.1821
 20
565.0011
 10
569.1385
 20
566.0292
 10
569.0972
 20
567.058
 10
569.0587
 20
568.0871
 10
569.0232
 20
569.1163
 10
568.9913
 20
570.1455
 10
568.9632
 20
571.1743
 10
568.9393
 20
572.2027
 10
568.92
 20
573.2302
 10
568.9056
 20
574.2568
 10
568.8966
 20
575.2821
 10
568.8932
 20
576.306
 10
568.8959
 20
577.3282
 10
568.905
 20
578.3485
 10
568.9209
 20
579.3667
 10
568.9439
 20
580.3824
 10
568.9744
 20
581.3956
 10
569.0129
 20
582.406
 10
569.0596
 20
583.4132
 10
569.1149
 20
584.4173
 10
569.1792
 20
585.4177
 10
569.2528
 20
586.4145
 10
569.3362
 20
587.4073
 10
569.4296
 20
588.3958
 10
569.5336
 20
589.38
 10
569.6483
 20
590.3594
 10
569.7742
 20
591.334
 10
569.9117
 20
592.3035
 10
570.0611
 20
593.2676
 10
570.2228
 20
594.2261
 10
570.3972
 20
595.1789
 10
570.5846
 20
596.1256
 10
570.7854
 20
597.066
 10
571.0
 20
598.0
 10
571.0
 20
601.0
 10
570.8097
 20
601.8211
 10
570.6257
 20
602.6599
 10
570.4479
 20
603.5156
 10
570.2764
 20
604.3878
 10
570.1111
 20
605.2758
 10
569.9521
 20
606.179
 10
569.7992
 20
607.0969
 10
569.6527
 20
608.0289
 10
569.5123
 20
608.9744
 10
569.3782
 20
609.9328
 10
569.2504
 20
610.9034
 10
569.1287
 20
611.8858
 10
569.0133
 20
612.8794
 10
568.9042
 20
613.8835
 10
568.8013
 20
614.8976
 10
568.7046
 20
615.921
 10
568.6141
 20
616.9533
 10
568.5299
 20
617.9937
 10
568.452
 20
619.0418
 10
568.3802
 20
620.0969
 10
568.3147
 20
621.1585
 10
568.2555
 20
622.2259
 10
568.2025
 20
623.2986
 10
568.1557
 20
624.376
 10
568.1151
 20
625.4575
 10
568.0808
 20
626.5426
 10
568.0528
 20
627.6305
 10
568.0309
 20
628.7208
 10
568.0153
 20
629.8129
 10
568.006
 20
630.9061
 10
568.0029
 20
631.9999
 10
568.006
 20
633.0937
 10
568.0153
 20
634.187
 10
568.0309
 20
635.279
 10
568.0528
 20
636.3693
 10
568.0808
 20
637.4573
 10
568.1151
 20
638.5423
 10
568.1557
 20
639.6238
 10
568.2025
 20
640.7012
 10
568.2555
 20
641.7739
 10
568.3147
 20
642.8413
 10
568.3802
 20
643.9029
 10
568.452
 20
644.958
 10
568.5299
 20
646.0061
 10
568.6141
 20
647.0466
 10
568.7046
 20
648.0788
 10
568.8013
 20
649.1023
 10
568.9042
 20
650.1163
 10
569.0133
 20
651.1205
 10
569.1287
 20
652.114
 10
569.2504
 20
653.0964
 10
569.3782
 20
654.0671
 10
569.5123
 20
655.0255
 10
569.6527
 20
655.9709
 10
569.7992
 20
656.9029
 10
569.9521
 20
657.8208
 10
570.1111
 20
658.7241
 10
570.2764
 20
659.6121
 10
570.4479
 20
660.4843
 10
570.6257
 20
661.34
 10
570.8097
 20
662.1788
 10
571.0
 20
663.0
 10
571.0
 20
666.0
 10
570.846
 20
666.6727
 10
570.6902
 20
667.4051
 10
570.5337
 20
668.1933
 10
570.3776
 20
669.0334
 10
570.2227
 20
669.9216
 10
570.0703
 20
670.8537
 10
569.9213
 20
671.8261
 10
569.7768
 20
672.8347
 10
569.6378
 20
673.8757
 10
569.5053
 20
674.9452
 10
569.3804
 20
676.0392
 10
569.2642
 20
677.1539
 10
569.1577
 20
678.2854
 10
569.0618
 20
679.4296
 10
568.9778
 20
680.5829
 10
568.9065
 20
681.7411
 10
568.8491
 20
682.9005
 10
568.8066
 20
684.0571
 10
568.78
 20
685.2071
 10
568.7703
 20
686.3465
 10
568.7787
 20
687.4713
 10
568.8061
 20
688.5778
 10
568.8536
 20
689.662
 10
568.9223
 20
690.72
 10
569.0131
 20
691.7479
 10
569.1271
 20
692.7418
 10
569.2654
 20
693.6977
 10
569.429
 20
694.6119
 10
569.6189
 20
695.4803
 10
569.8362
 20
696.2991
 10
570.0819
 20
697.0644
 10
570.3571
 20
697.7722
 10
570.6627
 20
698.4187
 10
571.0
 20
699.0
 10
570.0
 20
721.0
 10
615.0
 20
720.0
 10
615.0215
 20
720.9253
 10
615.0706
 20
721.8691
 10
615.1242
 20
722.8164
 10
615.1593
 20
723.752
 10
615.1527
 20
724.6608
 10
615.0813
 20
725.5276
 10
614.9221
 20
726.3373
 10
614.6519
 20
727.0748
 10
614.2477
 20
727.7249
 10
613.6864
 20
728.2726
 10
612.9448
 20
728.7026
 10
612.0
 20
729.0
 10
612.0
 20
730.0
 10
615.0
 20
730.0
 10
615.0
 20
768.0
 10
549.0
 20
768.0
 10
548.717
 20
768.7062
 10
548.3595
 20
769.3551
 10
547.9313
 20
769.9488
 10
547.4362
 20
770.4895
 10
546.8782
 20
770.9794
 10
546.261
 20
771.4208
 10
545.5886
 20
771.8158
 10
544.8648
 20
772.1666
 10
544.0934
 20
772.4755
 10
543.2784
 20
772.7447
 10
542.4235
 20
772.9762
 10
541.5327
 20
773.1725
 10
540.6097
 20
773.3356
 10
539.6586
 20
773.4678
 10
538.6831
 20
773.5712
 10
537.687
 20
773.6481
 10
536.6743
 20
773.7007
 10
535.6488
 20
773.7311
 10
534.6144
 20
773.7417
 10
533.5749
 20
773.7345
 10
532.5342
 20
773.7118
 10
531.4962
 20
773.6758
 10
530.4647
 20
773.6287
 10
529.4435
 20
773.5728
 10
528.4366
 20
773.5101
 10
527.4478
 20
773.4429
 10
526.4809
 20
773.3734
 10
525.5399
 20
773.3039
 10
524.6285
 20
773.2365
 10
523.7507
 20
773.1734
 10
522.9103
 20
773.1168
 10
522.1112
 20
773.069
 10
521.3572
 20
773.0321
 10
520.6521
 20
773.0084
 10
520.0
 20
773.0
 10
428.0
 20
773.0
 10
37.0
 20
773.0
  0
LWPOLYLINE
  5
34
330
17
100
AcDbEntity
  8
0
100
AcDbPolyline
 90
61
 70
0
 10
547.0
 20
773.0
 10
547.0
 20
772.0
 10
550.0
 20
769.0
 10
616.0
 20
769.0
 10
616.0
 20
730.0
 10
637.0
 20
730.0
 10
637.0
 20
748.0
 10
676.0
 20
748.0
 10
676.0
 20
772.0
 10
711.0
 20
772.0
 10
710.2295
 20
772.3069
 10
709.4361
 20
772.5914
 10
708.6206
 20
772.8543
 10
707.784
 20
773.096
 10
706.9272
 20
773.3174
 10
706.051
 20
773.519
 10
705.1564
 20
773.7015
 10
704.2442
 20
773.8657
 10
703.3154
 20
774.0121
 10
702.3708
 20
774.1415
 10
701.4114
 20
774.2545
 10
700.438
 20
774.3518
 10
699.4516
 20
774.434
 10
698.4531
 20
774.5019
 10
697.4433
 20
774.556
 10
696.4231
 20
774.5971
 10
695.3935
 20
774.6258
 10
694.3553
 20
774.6427
 10
693.3095
 20
774.6487
 10
692.2569
 20
774.6442
 10
691.1985
 20
774.6301
 10
690.1351
 20
774.6069
 10
689.0677
 20
774.5753
 10
687.9971
 20
774.5361
 10
686.9243
 20
774.4898
 10
685.8501
 20
774.4371
 10
684.7754
 20
774.3787
 10
683.7012
 20
774.3153
 10
682.6283
 20
774.2476
 10
681.5576
 20
774.1761
 10
680.4901
 20
774.1017
 10
679.4267
 20
774.0248
 10
678.3681
 20
773.9463
 10
677.3154
 20
773.8667
 10
676.2695
 20
773.7868
 10
675.2312
 20
773.7072
 10
674.2014
 20
773.6286
 10
673.181
 20
773.5517
 10
672.171
 20
773.477
 10
671.1722
 20
773.4053
 10
670.1855
 20
773.3373
 10
669.2119
 20
773.2737
 10
668.2522
 20
773.215
 10
667.3074
 20
773.1619
 10
666.3782
 20
773.1152
 10
665.4657
 20
773.0755
 10
664.5707
 20
773.0435
 10
663.6942
 20
773.0197
 10
662.837
 20
773.005
 10
662.0
 20
773.0
 10
547.0
 20
773.0
  0
LWPOLYLINE
  5
35
330
17
100
AcDbEntity
  8
0
100
AcDbPolyline
 90
46
 70
0
 10
573.0
 20
718.0
 10
573.0
 20
717.0
 10
615.0
 20
717.0
 10
614.2205
 20
717.3084
 10
613.416
 20
717.5911
 10
612.5876
 20
717.8489
 10
611.7364
 20
718.0828
 10
610.8637
 20
718.2935
 10
609.9705
 20
718.4819
 10
609.0579
 20
718.6491
 10
608.1273
 20
718.7958
 10
607.1795
 20
718.9231
 10
606.216
 20
719.0316
 10
605.2376
 20
719.1224
 10
604.2457
 20
719.1964
 10
603.2414
 20
719.2544
 10
602.2257
 20
719.2973
 10
601.1999
 20
719.326
 10
600.1651
 20
719.3415
 10
599.1224
 20
719.3446
 10
598.0729
 20
719.3361
 10
597.0179
 20
719.3171
 10
595.9585
 20
719.2883
 10
594.8958
 20
719.2508
 10
593.8309
 20
719.2053
 10
592.765
 20
719.1527
 10
591.6993
 20
719.0941
 10
590.6349
 20
719.0301
 10
589.5729
 20
718.9619
 10
588.5145
 20
718.8901
 10
587.4607
 20
718.8158
 10
586.4129
 20
718.7398
 10
585.3721
 20
718.6631
 10
584.3394
 20
718.5864
 10
583.316
 20
718.5107
 10
582.3031
 20
718.437
 10
581.3017
 20
718.366
 10
580.3131
 20
718.2987
 10
579.3384
 20
718.236
 10
578.3787
 20
718.1787
 10
577.4351
 20
718.1278
 10
576.5089
 20
718.0842
 10
575.6011
 20
718.0487
 10
574.7129
 20
718.0222
 10
573.8455
 20
718.0057
 10
573.0
 20
718.0
  0
LWPOLYLINE
  5
36
330
17
100
AcDbEntity
  8
0
100
AcDbPolyline
 90
7
 70
0
 10
637.0
 20
718.0
 10
637.0
 20
717.0
 10
680.0
 20
717.0
 10
680.0
 20
699.0
 10
681.0
 20
699.0
 10
681.0
 20
718.0
 10
637.0
 20
718.0
  0
LWPOLYLINE
  5
37
330
17
100
AcDbEntity
  8
0
100
AcDbPolyline
 90
41
 70
0
 10
833.0
 20
519.0
 10
833.0
 20
482.0
 10
834.0
 20
482.0
 10
834.0062
 20
482.8527
 10
834.0243
 20
483.7285
 10
834.053
 20
484.6262
 10
834.0913
 20
485.5442
 10
834.138
 20
486.4812
 10
834.192
 20
487.4359
 10
834.2521
 20
488.4067
 10
834.3172
 20
489.3924
 10
834.3862
 20
490.3916
 10
834.458
 20
491.4029
 10
834.5314
 20
492.4248
 10
834.6053
 20
493.456
 10
834.6786
 20
494.4952
 10
834.7501
 20
495.5409
 10
834.8188
 20
496.5918
 10
834.8834
 20
497.6464
 10
834.9428
 20
498.7034
 10
834.996
 20
499.7614
 10
835.0417
 20
500.8191
 10
835.0789
 20
501.8749
 10
835.1065
 20
502.9277
 10
835.1232
 20
503.9758
 10
835.128
 20
505.0181
 10
835.1198
 20
506.053
 10
835.0973
 20
507.0793
 10
835.0596
 20
508.0955
 10
835.0053
 20
509.1002
 10
834.9335
 20
510.0921
 10
834.843
 20
511.0697
 10
834.7327
 20
512.0318
 10
834.6014
 20
512.9768
 10
834.4479
 20
513.9035
 10
834.2713
 20
514.8104
 10
834.0702
 20
515.6961
 10
833.8437
 20
516.5593
 10
833.5906
 20
517.3986
 10
833.3097
 20
518.2126
 10
833.0
 20
519.0
  0
LWPOLYLINE
  5
38
330
17
100
AcDbEntity
  8
0
100
AcDbPolyline
 90
5
 70
0
 10
875.0
 20
519.0
 10
875.0
 20
450.0
 10
876.0
 20
450.0
 10
876.0
 20
497.0
 10
875.0
 20
519.0
  0
LWPOLYLINE
  5
39
330
17
100
AcDbEntity
  8
0
100
AcDbPolyline
 90
24
 70
0
 10
632.0
 20
508.0
 10
627.0
 20
504.0
 10
627.0
 20
498.0
 10
631.0
 20
498.0
 10
629.0
 20
501.0
 10
636.0
 20
502.0
 10
636.0
 20
472.0
 10
631.0
 20
472.0
 10
631.0
 20
479.0
 10
625.0
 20
475.0
 10
630.0
 20
478.0
 10
630.0
 20
469.0
 10
636.0
 20
469.0
 10
636.0
 20
446.0
 10
651.0
 20
446.0
 10
651.0
 20
439.0
 10
657.0
 20
443.0
 10
652.0
 20
441.0
 10
652.0
 20
448.0
 10
638.0
 20
448.0
 10
638.0
 20
503.0
 10
631.0
 20
503.0
 10
634.0
 20
507.0
 10
632.0
 20
508.0
  0
LWPOLYLINE
  5
3A
330
17
100
AcDbEntity
  8
0
100
AcDbPolyline
 90
113
 70
0
 10
806.0
 20
508.0
 10
806.6742
 20
507.0847
 10
807.284
 20
506.1781
 10
807.8324
 20
505.2791
 10
808.3223
 20
504.3864
 10
808.7568
 20
503.4992
 10
809.1389
 20
502.6162
 10
809.4717
 20
501.7365
 10
809.7583
 20
500.8589
 10
810.0015
 20
499.9823
 10
810.2046
 20
499.1056
 10
810.3704
 20
498.2278
 10
810.5021
 20
497.3479
 10
810.6027
 20
496.4646
 10
810.6752
 20
495.5769
 10
810.7227
 20
494.6838
 10
810.7481
 20
493.7841
 10
810.7545
 20
492.8768
 10
810.745
 20
491.9608
 10
810.7225
 20
491.035
 10
810.6902
 20
490.0983
 10
810.6511
 20
489.1497
 10
810.6081
 20
488.188
 10
810.5643
 20
487.2122
 10
810.5228
 20
486.2212
 10
810.4865
 20
485.2138
 10
810.4586
 20
484.1891
 10
810.4421
 20
483.146
 10
810.4399
 20
482.0833
 10
810.4552
 20
481.0
 10
810.4821
 20
480.0125
 10
810.5173
 20
479.0215
 10
810.5595
 20
478.0273
 10
810.6075
 20
477.03
 10
810.6601
 20
476.0301
 10
810.7162
 20
475.0278
 10
810.7745
 20
474.0234
 10
810.8339
 20
473.0171
 10
810.8931
 20
472.0093
 10
810.951
 20
471.0003
 10
811.0064
 20
469.9903
 10
811.0581
 20
468.9796
 10
811.1049
 20
467.9685
 10
811.1456
 20
466.9574
 10
811.1791
 20
465.9464
 10
811.2041
 20
464.9359
 10
811.2194
 20
463.9262
 10
811.2239
 20
462.9175
 10
811.2164
 20
461.9101
 10
811.1957
 20
460.9044
 10
811.1606
 20
459.9006
 10
811.1098
 20
458.899
 10
811.0423
 20
457.8999
 10
810.9569
 20
456.9036
 10
810.8522
 20
455.9103
 10
810.7272
 20
454.9204
 10
810.5807
 20
453.9341
 10
810.4114
 20
452.9517
 10
810.2182
 20
451.9736
 10
810.0
 20
451.0
 10
808.0
 20
452.0
 10
808.0
 20
450.0
 10
806.0
 20
450.0
 10
806.0
 20
452.0
 10
803.0
 20
452.0
 10
802.0
 20
442.0
 10
801.3305
 20
442.5838
 10
800.6504
 20
443.2061
 10
799.9753
 20
443.865
 10
799.3213
 20
444.5583
 10
798.7041
 20
445.2838
 10
798.1397
 20
446.0396
 10
797.644
 20
446.8235
 10
797.2327
 20
447.6334
 10
796.9219
 20
448.4672
 10
796.7273
 20
449.3229
 10
796.6648
 20
450.1983
 10
796.7504
 20
451.0913
 10
797.0
 20
452.0
 10
797.0
 20
453.0
 10
777.0
 20
450.0
 10
774.0
 20
442.0
 10
778.0
 20
448.0
 10
796.0
 20
448.0
 10
796.4204
 20
446.9001
 10
796.8797
 20
445.9123
 10
797.3856
 20
445.0301
 10
797.9453
 20
444.247
 10
798.5664
 20
443.5566
 10
799.2563
 20
442.9525
 10
800.0225
 20
442.4281
 10
800.8725
 20
441.9772
 10
801.8138
 20
441.5931
 10
802.8538
 20
441.2695
 10
804.0
 20
441.0
 10
804.0
 20
448.0
 10
825.0
 20
446.0
 10
825.0
 20
441.0
 10
835.0
 20
448.0
 10
834.0
 20
441.0
 10
835.0342
 20
441.2687
 10
835.9674
 20
441.6225
 10
836.8158
 20
442.0481
 10
837.5955
 20
442.5327
 10
838.323
 20
443.0632
 10
839.0143
 20
443.6266
 10
839.6859
 20
444.2099
 10
840.3539
 20
444.8
 10
841.0345
 20
445.3839
 10
841.7441
 20
445.9486
 10
842.4989
 20
446.4811
 10
843.3151
 20
446.9683
 10
844.2091
 20
447.3974
  0
LWPOLYLINE
  5
3B
330
17
100
AcDbEntity
  8
0
100
AcDbPolyline
 90
125
 70
0
 10
844.2091
 20
447.3973
 10
845.1273
 20
447.7505
 10
846.0596
 20
448.0438
 10
847.0045
 20
448.2798
 10
847.9605
 20
448.4609
 10
848.9262
 20
448.5896
 10
849.9002
 20
448.6683
 10
850.8809
 20
448.6996
 10
851.8671
 20
448.6858
 10
852.8572
 20
448.6295
 10
853.8497
 20
448.5331
 10
854.8433
 20
448.3991
 10
855.8365
 20
448.23
 10
856.8279
 20
448.0283
 10
857.816
 20
447.7964
 10
858.7993
 20
447.5367
 10
859.7765
 20
447.2519
 10
860.746
 20
446.9443
 10
861.7065
 20
446.6164
 10
862.6564
 20
446.2707
 10
863.5945
 20
445.9097
 10
864.5191
 20
445.5358
 10
865.4289
 20
445.1515
 10
866.3224
 20
444.7593
 10
867.1982
 20
444.3617
 10
868.0548
 20
443.9611
 10
868.8908
 20
443.56
 10
869.7048
 20
443.1608
 10
870.4953
 20
442.7661
 10
871.2608
 20
442.3783
 10
872.0
 20
442.0
 10
872.0
 20
443.0
 10
868.0
 20
450.0
 10
841.0
 20
450.0
 10
836.0
 20
442.0
 10
835.9913
 20
443.1726
 10
835.9731
 20
444.3137
 10
835.9473
 20
445.425
 10
835.916
 20
446.5085
 10
835.8809
 20
447.566
 10
835.844
 20
448.5992
 10
835.8073
 20
449.6102
 10
835.7727
 20
450.6007
 10
835.7421
 20
451.5726
 10
835.7175
 20
452.5278
 10
835.7008
 20
453.468
 10
835.6939
 20
454.3952
 10
835.6987
 20
455.3112
 10
835.7173
 20
456.2179
 10
835.7514
 20
457.1171
 10
835.8031
 20
458.0107
 10
835.8743
 20
458.9005
 10
835.967
 20
459.7884
 10
836.083
 20
460.6762
 10
836.2242
 20
461.5658
 10
836.3927
 20
462.4591
 10
836.5904
 20
463.3578
 10
836.8191
 20
464.2639
 10
837.0809
 20
465.1793
 10
837.3776
 20
466.1056
 10
837.7111
 20
467.0449
 10
838.0835
 20
467.999
 10
838.4967
 20
468.9696
 10
838.9525
 20
469.9588
 10
839.453
 20
470.9683
 10
840.0
 20
472.0
 10
839.0
 20
472.0
 10
838.2442
 20
471.3553
 10
837.4068
 20
470.7535
 10
836.524
 20
470.1722
 10
835.6324
 20
469.5888
 10
834.7684
 20
468.9809
 10
833.9685
 20
468.3261
 10
833.2691
 20
467.6019
 10
832.7067
 20
466.7859
 10
832.3178
 20
465.8557
 10
832.1015
 20
465.0256
 10
831.9316
 20
464.1886
 10
831.8032
 20
463.3458
 10
831.7116
 20
462.4985
 10
831.6522
 20
461.6476
 10
831.6203
 20
460.7944
 10
831.6112
 20
459.9399
 10
831.6201
 20
459.0853
 10
831.6423
 20
458.2318
 10
831.6732
 20
457.3804
 10
831.7081
 20
456.5323
 10
831.7423
 20
455.6885
 10
831.771
 20
454.8504
 10
831.7896
 20
454.0189
 10
831.7933
 20
453.1952
 10
831.7775
 20
452.3805
 10
831.7374
 20
451.5758
 10
831.6685
 20
450.7823
 10
831.5658
 20
450.0012
 10
831.4249
 20
449.2335
 10
831.2409
 20
448.4803
 10
831.0092
 20
447.7429
 10
830.725
 20
447.0224
 10
830.3837
 20
446.3198
 10
829.9806
 20
445.6363
 10
829.5109
 20
444.9731
 10
828.97
 20
444.3312
 10
828.3531
 20
443.7118
 10
827.6556
 20
443.1161
 10
826.8728
 20
442.5451
 10
826.0
 20
442.0
 10
823.0
 20
453.0
 10
829.0
 20
453.0
 10
823.0
 20
467.0
 10
813.0
 20
467.0
 10
815.0
 20
482.0
 10
816.0
 20
482.0
 10
816.0
 20
479.0
 10
823.0
 20
480.0
 10
823.0
 20
482.0
 10
822.0
 20
483.0
 10
813.0
 20
482.0
 10
813.0
 20
496.0
 10
819.0
 20
496.0
 10
822.0
 20
491.0
 10
820.0
 20
498.0
 10
813.0
 20
498.0
 10
813.0
 20
505.0
 10
806.0
 20
508.0
  0
LWPOLYLINE
  5
3C
330
17
100
AcDbEntity
  8
0
100
AcDbPolyline
 90
761
 70
0
 10
215.0
 20
497.0
 10
212.0
 20
485.0
 10
196.0
 20
488.0
 10
196.0
 20
454.0
 10
159.0
 20
454.0
 10
159.0
 20
118.0
 10
321.0
 20
118.0
 10
321.0
 20
217.0
 10
320.9929
 20
217.7429
 10
320.9727
 20
218.5234
 10
320.9408
 20
219.3392
 10
320.8985
 20
220.1881
 10
320.8474
 20
221.0676
 10
320.7888
 20
221.9756
 10
320.7242
 20
222.9098
 10
320.655
 20
223.8678
 10
320.5826
 20
224.8475
 10
320.5085
 20
225.8466
 10
320.434
 20
226.8627
 10
320.3607
 20
227.8936
 10
320.2898
 20
228.937
 10
320.2229
 20
229.9907
 10
320.1614
 20
231.0523
 10
320.1066
 20
232.1196
 10
320.0601
 20
233.1903
 10
320.0232
 20
234.2622
 10
319.9974
 20
235.3329
 10
319.9841
 20
236.4001
 10
319.9847
 20
237.4617
 10
320.0006
 20
238.5153
 10
320.0334
 20
239.5587
 10
320.0843
 20
240.5895
 10
320.1548
 20
241.6055
 10
320.2464
 20
242.6044
 10
320.3604
 20
243.584
 10
320.4983
 20
244.5419
 10
320.6616
 20
245.4759
 10
320.8515
 20
246.3838
 10
321.0697
 20
247.2631
 10
321.3175
 20
248.1117
 10
321.5962
 20
248.9273
 10
321.9074
 20
249.7076
 10
322.2525
 20
250.4503
 10
322.6329
 20
251.1532
 10
323.0499
 20
251.814
 10
323.5052
 20
252.4303
 10
324.0
 20
253.0
 10
324.0
 20
255.0
 10
323.4823
 20
255.628
 10
323.0117
 20
256.304
 10
322.5864
 20
257.0253
 10
322.2043
 20
257.7891
 10
321.8634
 20
258.5926
 10
321.5618
 20
259.4331
 10
321.2974
 20
260.3078
 10
321.0682
 20
261.2139
 10
320.8724
 20
262.1486
 10
320.7079
 20
263.1093
 10
320.5727
 20
264.0931
 10
320.4648
 20
265.0974
 10
320.3823
 20
266.1192
 10
320.3231
 20
267.1559
 10
320.2853
 20
268.2046
 10
320.267
 20
269.2627
 10
320.266
 20
270.3274
 10
320.2805
 20
271.3959
 10
320.3084
 20
272.4654
 10
320.3478
 20
273.5332
 10
320.3966
 20
274.5965
 10
320.453
 20
275.6525
 10
320.5148
 20
276.6985
 10
320.5802
 20
277.7318
 10
320.6471
 20
278.7495
 10
320.7136
 20
279.7489
 10
320.7777
 20
280.7272
 10
320.8373
 20
281.6817
 10
320.8906
 20
282.6096
 10
320.9355
 20
283.5081
 10
320.97
 20
284.3745
 10
320.9921
 20
285.2061
 10
321.0
 20
286.0
 10
321.0
 20
368.0
 10
510.0
 20
368.0
 10
568.0
 20
368.0
 10
597.0
 20
369.0
 10
597.0
 20
336.0
 10
657.0
 20
336.0
 10
657.0
 20
345.0
 10
1055.0
 20
345.0
 10
1055.0
 20
425.0
 10
1050.0
 20
425.0
 10
1050.0
 20
427.0
 10
1050.8592
 20
426.9917
 10
1051.7322
 20
426.9974
 10
1052.615
 20
427.0117
 10
1053.5033
 20
427.0295
 10
1054.3929
 20
427.0455
 10
1055.2797
 20
427.0543
 10
1056.1595
 20
427.0508
 10
1057.0281
 20
427.0296
 10
1057.8814
 20
426.9856
 10
1058.7151
 20
426.9134
 10
1059.5252
 20
426.8078
 10
1060.3074
 20
426.6636
 10
1061.0575
 20
426.4754
 10
1061.7714
 20
426.2379
 10
1062.4449
 20
425.9461
 10
1063.0738
 20
425.5945
 10
1063.654
 20
425.1779
 10
1064.1813
 20
424.691
 10
1064.6515
 20
424.1287
 10
1065.0604
 20
423.4855
 10
1065.4039
 20
422.7563
 10
1065.6778
 20
421.9359
 10
1065.8778
 20
421.0188
 10
1066.0
 20
420.0
 10
1067.0
 20
420.0
 10
1067.0
 20
427.0
 10
1082.0
 20
427.0
 10
1082.0
 20
311.0
 10
1083.0
 20
311.0
 10
1083.0
 20
428.0
 10
1067.0
 20
428.0
 10
1066.0
 20
436.0
 10
1065.0
 20
436.0
 10
1065.1143
 20
435.0245
 10
1065.1252
 20
434.136
 10
1065.0386
 20
433.3314
 10
1064.86
 20
432.6074
 10
1064.5954
 20
431.9607
 10
1064.2504
 20
431.3881
 10
1063.8309
 20
430.8864
 10
1063.3426
 20
430.4523
 10
1062.7912
 20
430.0827
 10
1062.1825
 20
429.7742
 10
1061.5223
 20
429.5237
 10
1060.8163
 20
429.328
 10
1060.0703
 20
429.1837
 10
1059.2901
 20
429.0876
 10
1058.4815
 20
429.0366
 10
1057.6501
 20
429.0274
 10
1056.8018
 20
429.0567
 10
1055.9423
 20
429.1214
 10
1055.0773
 20
429.2182
 10
1054.2128
 20
429.3438
 10
1053.3543
 20
429.495
 10
1052.5077
 20
429.6687
 10
1051.6787
 20
429.8615
 10
1050.8731
 20
430.0703
 10
1050.0967
 20
430.2917
 10
1049.3552
 20
430.5226
 10
1048.6543
 20
430.7598
 10
1048.0
 20
431.0
 10
1048.0
 20
425.0
 10
1043.0
 20
425.0
 10
1043.0
 20
418.0
 10
1038.0
 20
423.0
 10
1033.0
 20
418.0
 10
1033.0
 20
425.0
 10
1021.0
 20
427.0
 10
1023.0
 20
429.0
 10
1023.0
 20
430.0
 10
1015.0
 20
430.0
 10
1014.0
 20
426.0
 10
1015.0
 20
426.0
 10
1016.0
 20
428.0
 10
1017.0
 20
426.0
 10
1018.0
 20
426.0
 10
1020.0
 20
428.0
 10
1021.0
 20
423.0
 10
1013.0
 20
423.0
 10
1013.0
 20
429.0
 10
1010.0
 20
427.0
 10
1008.0
 20
430.0
 10
1008.0
 20
427.0
 10
1006.8148
 20
426.9738
 10
1005.8141
 20
426.9113
 10
1004.9814
 20
426.7537
 10
1004.3001
 20
426.4425
 10
1003.7538
 20
425.9189
 10
1003.3259
 20
425.1243
 10
1003.0
 20
424.0
 10
1000.0
 20
424.0
 10
999.0
 20
427.0
 10
994.0
 20
421.0
 10
993.4415
 20
421.9281
 10
992.8252
 20
422.7615
 10
992.1534
 20
423.5054
 10
991.4285
 20
424.1647
 10
990.6528
 20
424.7444
 10
989.8287
 20
425.2497
 10
988.9585
 20
425.6856
 10
988.0447
 20
426.057
 10
987.0896
 20
426.3692
 10
986.0955
 20
426.627
 10
985.0648
 20
426.8356
 10
984.0
 20
427.0
 10
984.0
 20
424.0
 10
956.0
 20
424.0
 10
956.0
 20
427.0
 10
952.0
 20
427.0
 10
952.0
 20
424.0
 10
938.0
 20
428.0
 10
941.0
 20
427.0
 10
943.0
 20
429.0
 10
943.0
 20
430.0
 10
935.0
 20
430.0
 10
934.0
 20
426.0
 10
935.0
 20
426.0
 10
936.0
 20
428.0
 10
933.0
 20
420.0
 10
931.0
 20
420.0
 10
927.0
 20
426.0
 10
928.116
 20
426.3169
 10
928.8842
 20
426.7126
 10
929.3185
 20
427.1907
 10
929.4332
 20
427.7548
 10
929.2422
 20
428.4086
 10
928.7598
 20
429.1558
 10
928.0
 20
430.0
 10
928.0
 20
427.0
 10
919.0
 20
427.0
 10
919.0
 20
424.0
 10
908.0
 20
426.0
 10
911.0
 20
425.0
 10
913.0
 20
427.0
 10
913.0
 20
428.0
 10
905.0
 20
428.0
 10
904.0
 20
424.0
 10
900.0
 20
424.0
 10
898.0
 20
428.0
 10
898.0
 20
425.0
 10
891.0
 20
424.0
 10
891.0
 20
427.0
 10
887.0
 20
427.0
 10
887.0
 20
424.0
 10
869.0
 20
422.0
 10
865.0
 20
425.0
 10
867.0
 20
428.0
 10
864.0
 20
426.0
 10
862.0
 20
429.0
 10
861.6113
 20
427.9295
 10
861.288
 20
427.0867
 10
861.097
 20
426.4347
 10
861.1055
 20
425.9368
 10
861.3807
 20
425.5562
 10
861.9898
 20
425.2562
 10
863.0
 20
425.0
 10
863.0
 20
424.0
 10
858.0
 20
424.0
 10
858.0
 20
427.0
 10
852.0
 20
427.0
 10
852.0
 20
428.0
 10
854.0
 20
429.0
 10
854.0
 20
431.0
 10
854.0
 20
432.0
 10
845.0
 20
434.0
 10
847.0
 20
437.0
 10
842.0
 20
437.0
 10
842.0
 20
433.0
 10
843.0
 20
433.0
 10
843.0
 20
435.0
 10
844.0
 20
435.0
 10
844.0
 20
427.0
 10
843.0818
 20
426.832
 10
842.1613
 20
426.5842
 10
841.2389
 20
426.274
 10
840.315
 20
425.919
 10
839.3899
 20
425.5368
 10
838.4642
 20
425.1449
 10
837.5382
 20
424.761
 10
836.6123
 20
424.4025
 10
835.6871
 20
424.0872
 10
834.7628
 20
423.8325
 10
833.8399
 20
423.656
 10
832.9188
 20
423.5753
 10
832.0
 20
423.608
 10
831.0467
 20
423.746
 10
830.1536
 20
423.9479
 10
829.3133
 20
424.2021
 10
828.5183
 20
424.4972
 10
827.7613
 20
424.8216
 10
827.0348
 20
425.1638
 10
826.3315
 20
425.5124
 10
825.6439
 20
425.8558
 10
824.9646
 20
426.1825
 10
824.2862
 20
426.4809
 10
823.6013
 20
426.7397
 10
822.9026
 20
426.9473
 10
822.1825
 20
427.0921
 10
821.4337
 20
427.1628
 10
820.6488
 20
427.1477
 10
819.8204
 20
427.0354
 10
818.941
 20
426.8143
 10
818.0034
 20
426.473
 10
817.0
 20
426.0
 10
813.0
 20
427.0
 10
815.0
 20
425.0
 10
815.0
 20
424.0
 10
811.0
 20
424.0
 10
809.0
 20
428.0
 10
809.0
 20
425.0
 10
808.1251
 20
424.8707
 10
807.243
 20
424.8095
 10
806.3564
 20
424.8037
 10
805.4685
 20
424.8408
 10
804.5821
 20
424.9083
 10
803.7003
 20
424.9934
 10
802.8259
 20
425.0838
 10
801.9621
 20
425.1668
 10
801.1116
 20
425.2299
 10
800.2776
 20
425.2604
 10
799.463
 20
425.2459
 10
798.6707
 20
425.1738
 10
797.9037
 20
425.0315
 10
797.1651
 20
424.8064
 10
796.4576
 20
424.486
 10
795.7845
 20
424.0577
 10
795.1485
 20
423.509
 10
794.5526
 20
422.8273
 10
794.0
 20
422.0
 10
793.0
 20
422.0
 10
793.0
 20
427.0
 10
789.0
 20
427.0
 10
789.0
 20
424.0
 10
760.0
 20
424.0
 10
760.0
 20
427.0
 10
750.0
 20
427.0
 10
750.0
 20
424.0
 10
742.0
 20
421.0
 10
741.0
 20
427.0
 10
744.0
 20
426.0
 10
746.0
 20
428.0
 10
746.0
 20
429.0
 10
738.0
 20
429.0
 10
737.0
 20
426.0
 10
734.0
 20
428.0
 10
736.0
 20
424.0
 10
724.0
 20
427.0
 10
725.0
 20
401.0
 10
717.0
 20
409.0
 10
721.0
 20
411.0
 10
721.0
 20
412.0
 10
718.0
 20
411.0
 10
710.0
 20
422.0
 10
717.0
 20
422.0
 10
717.0
 20
427.0
 10
701.0
 20
427.0
 10
701.0
 20
428.0
 10
703.0
 20
428.0
 10
703.0
 20
429.0
 10
697.0
 20
427.0
 10
697.0
 20
428.0
 10
699.0
 20
428.0
 10
699.0
 20
429.0
 10
694.0
 20
429.0
 10
695.0
 20
427.0
 10
687.0
 20
427.0
 10
687.0
 20
422.0
 10
694.0
 20
422.0
 10
693.4581
 20
421.0876
 10
692.8972
 20
420.2535
 10
692.3242
 20
419.4859
 10
691.746
 20
418.7731
 10
691.1695
 20
418.1034
 10
690.6018
 20
417.4651
 10
690.0498
 20
416.8465
 10
689.5204
 20
416.2359
 10
689.0206
 20
415.6217
 10
688.5573
 20
414.9922
 10
688.1375
 20
414.3356
 10
687.7681
 20
413.6402
 10
687.4561
 20
412.8945
 10
687.2084
 20
412.0866
 10
687.032
 20
411.2049
 10
686.9338
 20
410.2377
 10
686.9208
 20
409.1733
 10
687.0
 20
408.0
 10
683.0
 20
408.0
 10
678.0
 20
401.0
 10
678.0
 20
429.0
 10
676.0
 20
427.0
 10
671.0
 20
428.0
 10
671.0
 20
427.0
 10
673.0
 20
428.0
 10
673.0
 20
427.0
 10
672.0
 20
420.0
 10
668.0
 20
425.0
 10
667.0
 20
425.0
 10
663.0
 20
420.0
 10
662.9012
 20
421.0964
 10
662.7355
 20
422.0661
 10
662.5059
 20
422.9163
 10
662.2152
 20
423.6544
 10
661.8665
 20
424.2875
 10
661.4626
 20
424.823
 10
661.0065
 20
425.2679
 10
660.5012
 20
425.6297
 10
659.9494
 20
425.9155
 10
659.3543
 20
426.1326
 10
658.7187
 20
426.2883
 10
658.0455
 20
426.3897
 10
657.3376
 20
426.4441
 10
656.5981
 20
426.4589
 10
655.8298
 20
426.4411
 10
655.0357
 20
426.3982
 10
654.2187
 20
426.3372
 10
653.3817
 20
426.2656
 10
652.5277
 20
426.1904
 10
651.6596
 20
426.119
 10
650.7803
 20
426.0587
 10
649.8928
 20
426.0166
 10
649.0
 20
426.0
 10
608.0
 20
426.0
 10
608.0
 20
430.0
 10
620.0
 20
430.0
 10
620.0
 20
442.0
 10
596.0
 20
442.0
 10
596.0061
 20
443.0255
 10
596.0187
 20
444.0246
 10
596.0294
 20
444.9943
 10
596.0297
 20
445.9314
 10
596.011
 20
446.8329
 10
595.9649
 20
447.6958
 10
595.8828
 20
448.5169
 10
595.7563
 20
449.2933
 10
595.5768
 20
450.0218
 10
595.3359
 20
450.6994
 10
595.025
 20
451.3229
 10
594.6357
 20
451.8895
 10
594.1594
 20
452.3959
 10
593.5877
 20
452.8391
 10
592.9121
 20
453.216
 10
592.1239
 20
453.5236
 10
591.2149
 20
453.7589
 10
590.1764
 20
453.9187
 10
589.0
 20
454.0
 10
595.0
 20
459.0
 10
595.0
 20
460.0
 10
589.0
 20
463.0
 10
592.0
 20
460.0
 10
592.0
 20
459.0
 10
588.0
 20
452.0
 10
594.0
 20
452.0
 10
592.0
 20
442.0
 10
591.0
 20
442.0
 10
591.0
 20
449.0
 10
585.0
 20
445.0
 10
584.0
 20
445.0
 10
584.0
 20
448.0
 10
563.0
 20
447.0
 10
563.0
 20
450.0
 10
559.0
 20
450.0
 10
559.0
 20
447.0
 10
531.0
 20
447.0
 10
531.0
 20
450.0
 10
525.0
 20
450.0
 10
525.0
 20
447.0
 10
504.0
 20
447.0
 10
504.0
 20
450.0
 10
494.0
 20
450.0
 10
494.0
 20
446.0
 10
493.2102
 20
446.0213
 10
492.4179
 20
446.0901
 10
491.626
 20
446.1982
 10
490.8373
 20
446.3373
 10
490.0546
 20
446.4994
 10
489.2807
 20
446.6763
 10
488.5184
 20
446.8598
 10
487.7705
 20
447.0417
 10
487.04
 20
447.214
 10
486.3295
 20
447.3685
 10
485.6419
 20
447.497
 10
484.98
 20
447.5913
 10
484.3467
 20
447.6433
 10
483.7448
 20
447.6449
 10
483.1771
 20
447.5879
 10
482.6463
 20
447.4641
 10
482.1554
 20
447.2654
 10
481.7071
 20
446.9836
 10
481.3043
 20
446.6106
 10
480.9497
 20
446.1382
 10
480.6463
 20
445.5582
 10
480.3968
 20
444.8626
 10
480.204
 20
444.0431
 10
480.0708
 20
443.0916
 10
480.0
 20
442.0
 10
477.0
 20
442.0
 10
477.0
 20
447.0
 10
465.0
 20
447.0
 10
465.0
 20
450.0
 10
461.0
 20
450.0
 10
461.0
 20
447.0
 10
448.0
 20
447.0
 10
448.0
 20
442.0
 10
446.0
 20
442.0
 10
446.0
 20
448.0
 10
444.0
 20
448.0
 10
444.0
 20
442.0
 10
443.0
 20
442.0
 10
443.0
 20
449.0
 10
437.0
 20
444.0
 10
432.0
 20
446.0
 10
432.0
 20
450.0
 10
428.0
 20
450.0
 10
428.0
 20
447.0
 10
400.0
 20
447.0
 10
399.6406
 20
447.9703
 10
399.1873
 20
448.7751
 10
398.6498
 20
449.4239
 10
398.038
 20
449.9263
 10
397.3617
 20
450.2919
 10
396.6307
 20
450.5301
 10
395.8551
 20
450.6506
 10
395.0445
 20
450.6629
 10
394.2089
 20
450.5766
 10
393.358
 20
450.4012
 10
392.5019
 20
450.1462
 10
391.6502
 20
449.8214
 10
390.813
 20
449.4361
 10
390.0
 20
449.0
 10
386.0
 20
450.0
 10
388.0
 20
448.0
 10
388.0
 20
447.0
 10
384.0
 20
447.0
 10
382.0
 20
451.0
 10
379.0
 20
447.0
 10
376.0
 20
450.0
 10
376.0
 20
456.0
 10
368.0
 20
450.0
 10
364.0
 20
451.0
 10
366.0
 20
453.0
 10
366.0
 20
454.0
 10
365.4835
 20
453.9327
 10
364.8826
 20
453.8254
 10
364.2211
 20
453.6819
 10
363.5229
 20
453.506
 10
362.812
 20
453.3015
 10
362.1124
 20
453.0721
 10
361.4479
 20
452.8218
 10
360.8425
 20
452.5543
 10
360.32
 20
452.2733
 10
359.9045
 20
451.9828
 10
359.6199
 20
451.6865
 10
359.49
 20
451.3881
 10
359.5389
 20
451.0917
 10
359.7904
 20
450.8008
 10
360.2684
 20
450.5193
 10
360.997
 20
450.2511
 10
362.0
 20
450.0
 10
362.0
 20
453.0
 10
363.0
 20
453.0
 10
363.0
 20
447.0
 10
342.0
 20
448.0
 10
344.0
 20
450.0
 10
344.0
 20
451.0
 10
337.0
 20
449.0
 10
329.0
 20
451.0
 10
329.0
 20
448.0
 10
313.0
 20
448.0
 10
315.0
 20
450.0
 10
315.0
 20
451.0
 10
307.0
 20
451.0
 10
306.0
 20
448.0
 10
287.0
 20
448.0
 10
287.0
 20
451.0
 10
279.0
 20
451.0
 10
286.0
 20
455.0
 10
287.0
 20
473.0
 10
281.0
 20
473.0
 10
280.9786
 20
473.9776
 10
280.9506
 20
474.9403
 10
280.909
 20
475.8841
 10
280.8471
 20
476.8049
 10
280.7579
 20
477.6986
 10
280.6346
 20
478.5612
 10
280.4704
 20
479.3885
 10
280.2584
 20
480.1766
 10
279.9917
 20
480.9212
 10
279.6635
 20
481.6185
 10
279.2669
 20
482.2642
 10
278.7951
 20
482.8543
 10
278.2411
 20
483.3848
 10
277.5982
 20
483.8516
 10
276.8595
 20
484.2505
 10
276.0181
 20
484.5776
 10
275.0672
 20
484.8288
 10
274.0
 20
485.0
 10
274.0
 20
486.0
 10
278.0
 20
487.0
 10
278.0
 20
488.0
 10
272.0
 20
491.0
 10
275.0
 20
488.0
 10
275.0
 20
487.0
 10
273.0
 20
483.0
 10
277.0
 20
483.0
 10
277.0
 20
480.0
 10
229.0
 20
480.0
 10
229.0
 20
466.0
 10
223.0
 20
467.0
 10
223.0
 20
463.0
 10
220.0
 20
464.0
 10
219.0
 20
460.0
 10
227.0
 20
460.0
 10
222.0
 20
458.0
 10
223.0
 20
452.0
 10
229.0
 20
452.0
 10
229.0
 20
365.0
 10
248.0
 20
365.0
 10
248.0
 20
355.0
 10
241.0
 20
355.0
 10
241.225
 20
353.8283
 10
241.5193
 20
352.7723
 10
241.8872
 20
351.8229
 10
242.3329
 20
350.9714
 10
242.861
 20
350.2088
 10
243.4756
 20
349.5261
 10
244.1812
 20
348.9145
 10
244.9821
 20
348.3649
 10
245.8826
 20
347.8686
 10
246.8871
 20
347.4166
 10
248.0
 20
347.0
 10
247.0
 20
292.0
 10
241.0
 20
292.0
 10
246.682098
 20
280.960632
 10
247.0
 20
249.0
 10
252.0
 20
249.0
 10
252.0
 20
257.0
 10
257.0
 20
249.0
 10
273.0
 20
248.0
 10
267.0
 20
243.0
 10
273.0
 20
237.0
 10
243.0
 20
236.0
 10
243.0
 20
243.0
 10
239.0
 20
242.0
 10
238.5395
 20
242.8709
 10
238.014
 20
243.7038
 10
237.4414
 20
244.5084
 10
236.8393
 20
245.2945
 10
236.2255
 20
246.0719
 10
235.6177
 20
246.8504
 10
235.0338
 20
247.6396
 10
234.4915
 20
248.4494
 10
234.0085
 20
249.2895
 10
233.6026
 20
250.1697
 10
233.363
 20
250.8164
 10
233.1388
 20
251.5179
 10
232.9299
 20
252.2711
 10
232.7359
 20
253.0731
 10
232.5566
 20
253.9209
 10
232.3918
 20
254.8115
 10
232.2413
 20
255.7417
 10
232.1047
 20
256.7088
 10
231.9819
 20
257.7095
 10
231.8726
 20
258.741
 10
231.7766
 20
259.8002
 10
231.6936
 20
260.8842
 10
231.6234
 20
261.9898
 10
231.5657
 20
263.1142
 10
231.5204
 20
264.2542
 10
231.4871
 20
265.407
 10
231.4656
 20
266.5694
 10
231.4557
 20
267.7385
 10
231.4571
 20
268.9113
 10
231.4696
 20
270.0848
 10
231.493
 20
271.2559
 10
231.527
 20
272.4217
 10
231.5714
 20
273.5792
 10
231.6259
 20
274.7253
 10
231.6903
 20
275.857
 10
231.7643
 20
276.9714
 10
231.8477
 20
278.0654
 10
231.9403
 20
279.1361
 10
232.0418
 20
280.1804
 10
232.152
 20
281.1952
 10
232.2706
 20
282.1777
 10
232.3975
 20
283.1248
 10
232.5323
 20
284.0335
 10
232.6748
 20
284.9008
 10
232.8247
 20
285.7237
 10
232.9819
 20
286.4991
 10
233.1461
 20
287.2242
 10
233.3171
 20
287.8958
 10
233.6365
 20
288.8426
 10
234.0478
 20
289.7187
 10
234.5317
 20
290.5395
 10
235.0692
 20
291.3205
 10
235.6411
 20
292.0773
 10
236.2282
 20
292.8254
 10
236.8114
 20
293.5803
 10
237.3717
 20
294.3575
 10
237.8898
 20
295.1726
 10
238.3466
 20
296.041
 10
238.7231
 20
296.9783
 10
239.0
 20
298.0
 10
233.0
 20
298.0
 10
233.599533
 20
311.790894
 10
239.0
 20
321.0
 10
233.0
 20
321.0
 10
232.0
 20
340.0
 10
215.0
 20
340.0
 10
214.0
 20
362.0
 10
221.0
 20
362.0
 10
220.6353
 20
363.1417
 10
220.2198
 20
364.1616
 10
219.7445
 20
365.0686
 10
219.2006
 20
365.8715
 10
218.5792
 20
366.5792
 10
217.8715
 20
367.2006
 10
217.0686
 20
367.7445
 10
216.1616
 20
368.2198
 10
215.1417
 20
368.6353
 10
214.0
 20
369.0
 10
214.0
 20
455.0
 10
220.0
 20
456.0
 10
220.0
 20
458.0
 10
219.0
 20
459.0
 10
217.9246
 20
459.0893
 10
217.0125
 20
459.3059
 10
216.2504
 20
459.6394
 10
215.6251
 20
460.0796
 10
215.1234
 20
460.616
 10
214.7321
 20
461.2383
 10
214.438
 20
461.9362
 10
214.2278
 20
462.6994
 10
214.0885
 20
463.5175
 10
214.0068
 20
464.3801
 10
213.9694
 20
465.277
 10
213.9633
 20
466.1977
 10
213.9751
 20
467.132
 10
213.9917
 20
468.0696
 10
214.0
 20
469.0
 10
213.9951
 20
469.9895
 10
213.9826
 20
470.9796
 10
213.9644
 20
471.9698
 10
213.9423
 20
472.96
 10
213.9181
 20
473.9499
 10
213.8936
 20
474.9391
 10
213.8706
 20
475.9275
 10
213.8511
 20
476.9148
 10
213.8369
 20
477.9006
 10
213.8297
 20
478.8847
 10
213.8314
 20
479.8669
 10
213.8438
 20
480.8468
 10
213.8689
 20
481.8243
 10
213.9083
 20
482.7989
 10
213.964
 20
483.7705
 10
214.0377
 20
484.7388
 10
214.1314
 20
485.7035
 10
214.2468
 20
486.6643
 10
214.3858
 20
487.6209
 10
214.5501
 20
488.5732
 10
214.7418
 20
489.5208
 10
214.9625
 20
490.4634
 10
215.2141
 20
491.4008
 10
215.4984
 20
492.3327
 10
215.8174
 20
493.2589
 10
216.1727
 20
494.179
 10
216.5663
 20
495.0928
 10
217.0
 20
496.0
 10
215.0
 20
497.0
  0
LWPOLYLINE
  5
3D
330
17
100
AcDbEntity
  8
0
100
AcDbPolyline
 90
6
 70
0
 10
278.0
 20
477.0
 10
278.0
 20
473.0
 10
234.0
 20
473.0
 10
234.0
 20
472.0
 10
279.0
 20
472.0
 10
278.0
 20
477.0
  0
LWPOLYLINE
  5
3E
330
17
100
AcDbEntity
  8
0
100
AcDbPolyline
 90
5
 70
0
 10
235.0
 20
476.0
 10
235.0
 20
474.0
 10
277.0
 20
474.0
 10
277.0
 20
476.0
 10
235.0
 20
476.0
  0
LWPOLYLINE
  5
3F
330
17
100
AcDbEntity
  8
0
100
AcDbPolyline
 90
11
 70
0
 10
393.0
 20
473.0
 10
389.0
 20
466.0
 10
389.0
 20
465.0
 10
394.0
 20
470.0
 10
420.0
 20
470.0
 10
419.0
 20
464.0
 10
426.0
 20
469.0
 10
425.0
 20
469.0
 10
421.0
 20
465.0
 10
421.0
 20
473.0
 10
393.0
 20
473.0
  0
LWPOLYLINE
  5
40
330
17
100
AcDbEntity
  8
0
100
AcDbPolyline
 90
10
 70
0
 10
458.0
 20
473.0
 10
454.0
 20
466.0
 10
454.0
 20
465.0
 10
458.0
 20
470.0
 10
483.0
 20
470.0
 10
482.0
 20
464.0
 10
489.0
 20
468.0
 10
484.0
 20
465.0
 10
484.0
 20
473.0
 10
458.0
 20
473.0
  0
LWPOLYLINE
  5
41
330
17
100
AcDbEntity
  8
0
100
AcDbPolyline
 90
72
 70
0
 10
232.0
 20
470.0
 10
232.0
 20
465.0
 10
230.8765
 20
465.0
 10
229.8121
 20
464.9935
 10
228.8073
 20
464.9585
 10
227.8629
 20
464.8728
 10
226.9795
 20
464.7144
 10
226.1578
 20
464.4611
 10
225.3986
 20
464.091
 10
224.7025
 20
463.5819
 10
224.0702
 20
462.9117
 10
223.5025
 20
462.0585
 10
223.0
 20
461.0
 10
224.0
 20
461.0
 10
225.0
 20
463.0
 10
229.0
 20
462.0
 10
231.0
 20
460.0
 10
231.0
 20
459.0
 10
227.0
 20
458.0
 10
227.0
 20
457.0
 10
229.0
 20
458.0
 10
228.0
 20
455.0
 10
225.0
 20
457.0
 10
224.0
 20
454.0
 10
225.135
 20
453.9436
 10
226.1787
 20
453.8439
 10
227.133
 20
453.6898
 10
227.9997
 20
453.47
 10
228.7805
 20
453.1732
 10
229.4775
 20
452.7883
 10
230.0923
 20
452.3041
 10
230.627
 20
451.7093
 10
231.0832
 20
450.9927
 10
231.4629
 20
450.143
 10
231.7678
 20
449.1492
 10
232.0
 20
448.0
 10
251.0
 20
449.0
 10
248.0
 20
458.0
 10
248.0
 20
460.0
 10
252.0
 20
461.0
 10
251.9655
 20
462.0842
 10
251.8715
 20
463.0836
 10
251.7202
 20
464.0013
 10
251.5136
 20
464.8408
 10
251.2539
 20
465.6052
 10
250.9433
 20
466.2979
 10
250.5839
 20
466.9223
 10
250.1778
 20
467.4816
 10
249.7272
 20
467.9792
 10
249.2342
 20
468.4183
 10
248.7009
 20
468.8023
 10
248.1296
 20
469.1345
 10
247.5223
 20
469.4182
 10
246.8812
 20
469.6567
 10
246.2084
 20
469.8533
 10
245.5061
 20
470.0114
 10
244.7764
 20
470.1343
 10
244.0215
 20
470.2252
 10
243.2434
 20
470.2874
 10
242.4444
 20
470.3244
 10
241.6265
 20
470.3394
 10
240.792
 20
470.3357
 10
239.9429
 20
470.3166
 10
239.0814
 20
470.2855
 10
238.2096
 20
470.2456
 10
237.3298
 20
470.2003
 10
236.4439
 20
470.1529
 10
235.5542
 20
470.1067
 10
234.6628
 20
470.065
 10
233.7719
 20
470.031
 10
232.8836
 20
470.0083
 10
232.0
 20
470.0
  0
LWPOLYLINE
  5
42
330
17
100
AcDbEntity
  8
0
100
AcDbPolyline
 90
7
 70
0
 10
1008.0
 20
457.0
 10
1008.0
 20
456.0
 10
1052.0
 20
456.0
 10
1052.0
 20
450.0
 10
1053.0
 20
450.0
 10
1053.0
 20
457.0
 10
1008.0
 20
457.0
  0
LWPOLYLINE
  5
43
330
17
100
AcDbEntity
  8
0
100
AcDbPolyline
 90
13
 70
0
 10
160.0
 20
453.0
 10
160.0
 20
207.0
 10
160.0
 20
144.0
 10
161.027786
 20
120.603394
 10
181.0
 20
119.0
 10
239.0
 20
119.0
 10
239.0
 20
126.0
 10
191.0
 20
126.0
 10
166.0
 20
125.0
 10
166.0
 20
451.0
 10
212.0
 20
451.0
 10
212.0
 20
453.0
 10
160.0
 20
453.0
  0
LWPOLYLINE
  5
44
330
17
100
AcDbEntity
  8
0
100
AcDbPolyline
 90
78
 70
0
 10
934.0
 20
450.0
 10
934.0
 20
445.0
 10
931.0
 20
449.0
 10
930.0
 20
449.0
 10
928.0
 20
443.0
 10
935.0
 20
444.0
 10
935.0
 20
448.0
 10
935.9816
 20
448.0016
 10
936.9649
 20
448.0064
 10
937.9496
 20
448.014
 10
938.9356
 20
448.0242
 10
939.923
 20
448.0367
 10
940.9115
 20
448.0512
 10
941.9012
 20
448.0673
 10
942.8919
 20
448.0849
 10
943.8835
 20
448.1037
 10
944.876
 20
448.1233
 10
945.8693
 20
448.1434
 10
946.8633
 20
448.1639
 10
947.8578
 20
448.1844
 10
948.8529
 20
448.2045
 10
949.8484
 20
448.2241
 10
950.8443
 20
448.2429
 10
951.8405
 20
448.2605
 10
952.8368
 20
448.2768
 10
953.8332
 20
448.2913
 10
954.8296
 20
448.3038
 10
955.826
 20
448.3141
 10
956.8222
 20
448.3218
 10
957.8181
 20
448.3266
 10
958.8137
 20
448.3284
 10
959.8089
 20
448.3267
 10
960.8036
 20
448.3213
 10
961.7977
 20
448.312
 10
962.7911
 20
448.2984
 10
963.7838
 20
448.2803
 10
964.7756
 20
448.2573
 10
965.7665
 20
448.2293
 10
966.7564
 20
448.1958
 10
967.7452
 20
448.1566
 10
968.7329
 20
448.1115
 10
969.7192
 20
448.0602
 10
970.7042
 20
448.0023
 10
971.6877
 20
447.9376
 10
972.6698
 20
447.8658
 10
973.6502
 20
447.7866
 10
974.6289
 20
447.6997
 10
975.6059
 20
447.6049
 10
976.581
 20
447.5018
 10
977.5541
 20
447.3903
 10
978.5252
 20
447.2699
 10
979.4942
 20
447.1404
 10
980.461
 20
447.0015
 10
981.4254
 20
446.853
 10
982.3876
 20
446.6946
 10
983.3472
 20
446.5259
 10
984.3043
 20
446.3467
 10
985.2588
 20
446.1567
 10
986.2106
 20
445.9557
 10
987.1595
 20
445.7432
 10
988.1056
 20
445.5192
 10
989.0487
 20
445.2832
 10
989.9887
 20
445.0349
 10
990.9256
 20
444.7742
 10
991.8593
 20
444.5007
 10
992.7897
 20
444.2141
 10
993.7167
 20
443.9142
 10
994.6402
 20
443.6006
 10
995.5601
 20
443.2731
 10
996.4764
 20
442.9315
 10
997.3889
 20
442.5753
 10
998.2976
 20
442.2043
 10
999.2024
 20
441.8183
 10
1000.1032
 20
441.4169
 10
1001.0
 20
441.0
 10
1001.0
 20
442.0
 10
997.0
 20
450.0
 10
934.0
 20
450.0
  0
LWPOLYLINE
  5
45
330
17
100
AcDbEntity
  8
0
100
AcDbPolyline
 90
35
 70
0
 10
203.0
 20
380.0
 10
203.0764
 20
381.2714
 10
203.2198
 20
382.3807
 10
203.4321
 20
383.3387
 10
203.715
 20
384.1564
 10
204.0703
 20
384.8445
 10
204.4998
 20
385.4141
 10
205.0053
 20
385.876
 10
205.5885
 20
386.241
 10
206.2514
 20
386.5201
 10
206.9956
 20
386.7242
 10
207.823
 20
386.8641
 10
208.7353
 20
386.9507
 10
209.7344
 20
386.995
 10
210.822
 20
387.0078
 10
212.0
 20
387.0
 10
212.0
 20
429.0
 10
212.0138
 20
429.8472
 10
212.0516
 20
430.7502
 10
212.1079
 20
431.7015
 10
212.177
 20
432.6936
 10
212.2535
 20
433.719
 10
212.3318
 20
434.7702
 10
212.4064
 20
435.8399
 10
212.4718
 20
436.9204
 10
212.5223
 20
438.0044
 10
212.5525
 20
439.0843
 10
212.5567
 20
440.1528
 10
212.5296
 20
441.2022
 10
212.4655
 20
442.2253
 10
212.3589
 20
443.2144
 10
212.2042
 20
444.162
 10
211.996
 20
445.0609
 10
211.7286
 20
445.9034
 10
211.3966
 20
446.6821
  0
LWPOLYLINE
  5
46
330
17
100
AcDbEntity
  8
0
100
AcDbPolyline
 90
112
 70
0
 10
211.3966
 20
446.682
 10
210.8921
 20
447.448
 10
210.2434
 20
448.0375
 10
209.475
 20
448.4722
 10
208.6119
 20
448.774
 10
207.6789
 20
448.9647
 10
206.7007
 20
449.0662
 10
205.7021
 20
449.1003
 10
204.7079
 20
449.0889
 10
203.743
 20
449.0538
 10
202.8321
 20
449.0169
 10
202.0
 20
449.0
 10
201.3368
 20
449.0089
 10
200.6132
 20
449.034
 10
199.8331
 20
449.0735
 10
199.0007
 20
449.1257
 10
198.1199
 20
449.1889
 10
197.1947
 20
449.2613
 10
196.2291
 20
449.3411
 10
195.2273
 20
449.4267
 10
194.1931
 20
449.5162
 10
193.1307
 20
449.6081
 10
192.044
 20
449.7004
 10
190.9371
 20
449.7916
 10
189.814
 20
449.8797
 10
188.6786
 20
449.9632
 10
187.5351
 20
450.0403
 10
186.3875
 20
450.1092
 10
185.2397
 20
450.1682
 10
184.0958
 20
450.2155
 10
182.9598
 20
450.2495
 10
181.8357
 20
450.2684
 10
180.7276
 20
450.2704
 10
179.6395
 20
450.2538
 10
178.5753
 20
450.2169
 10
177.5392
 20
450.1579
 10
176.5351
 20
450.0751
 10
175.567
 20
449.9668
 10
174.6391
 20
449.8312
 10
173.7552
 20
449.6666
 10
172.9195
 20
449.4712
 10
172.1359
 20
449.2433
 10
171.4084
 20
448.9812
 10
170.7411
 20
448.6831
 10
170.1381
 20
448.3474
 10
169.6033
 20
447.9722
 10
169.034
 20
447.3979
 10
168.5843
 20
446.6908
 10
168.2415
 20
445.8707
 10
167.9935
 20
444.9571
 10
167.8277
 20
443.9697
 10
167.732
 20
442.9281
 10
167.6938
 20
441.8519
 10
167.7008
 20
440.7608
 10
167.7407
 20
439.6744
 10
167.801
 20
438.6123
 10
167.8695
 20
437.5942
 10
167.9337
 20
436.6397
 10
167.9813
 20
435.7684
 10
168.0
 20
435.0
 10
168.0
 20
396.0
 10
167.9828
 20
395.2611
 10
167.9375
 20
394.4177
 10
167.8734
 20
393.4867
 10
167.8001
 20
392.4848
 10
167.7267
 20
391.4287
 10
167.6627
 20
390.3352
 10
167.6175
 20
389.221
 10
167.6005
 20
388.1029
 10
167.621
 20
386.9977
 10
167.6884
 20
385.922
 10
167.8121
 20
384.8927
 10
168.0015
 20
383.9265
 10
168.2659
 20
383.0401
 10
168.6148
 20
382.2503
 10
169.0574
 20
381.5739
 10
169.6033
 20
381.0277
 10
170.1362
 20
380.6527
 10
170.7359
 20
380.3162
 10
171.3983
 20
380.0164
 10
172.1198
 20
379.7519
 10
172.8966
 20
379.5208
 10
173.7248
 20
379.3215
 10
174.6006
 20
379.1524
 10
175.5202
 20
379.012
 10
176.4798
 20
378.8984
 10
177.4756
 20
378.8101
 10
178.5038
 20
378.7454
 10
179.5606
 20
378.7026
 10
180.6421
 20
378.6802
 10
181.7447
 20
378.6765
 10
182.8644
 20
378.6899
 10
183.9974
 20
378.7186
 10
185.14
 20
378.7611
 10
186.2884
 20
378.8156
 10
187.4386
 20
378.8806
 10
188.5871
 20
378.9545
 10
189.7298
 20
379.0355
 10
190.863
 20
379.122
 10
191.983
 20
379.2124
 10
193.0859
 20
379.305
 10
194.1678
 20
379.3982
 10
195.225
 20
379.4903
 10
196.2538
 20
379.5797
 10
197.2501
 20
379.6648
 10
198.2104
 20
379.7438
 10
199.1307
 20
379.8152
 10
200.0073
 20
379.8773
 10
200.8363
 20
379.9285
 10
201.614
 20
379.9671
 10
202.3364
 20
379.9915
 10
203.0
 20
380.0
  0
LWPOLYLINE
  5
47
330
17
100
AcDbEntity
  8
0
100
AcDbPolyline
 90
71
 70
0
 10
307.0
 20
449.0
 10
306.0
 20
446.0
 10
303.0
 20
447.0
 10
303.0
 20
440.0
 10
302.1852
 20
440.0048
 10
301.3494
 20
440.0189
 10
300.4935
 20
440.0415
 10
299.6183
 20
440.0721
 10
298.7248
 20
440.1098
 10
297.8137
 20
440.1542
 10
296.8862
 20
440.2045
 10
295.9429
 20
440.26
 10
294.9848
 20
440.3201
 10
294.0128
 20
440.3842
 10
293.0278
 20
440.4514
 10
292.0307
 20
440.5213
 10
291.0224
 20
440.5931
 10
290.0037
 20
440.6662
 10
288.9755
 20
440.7399
 10
287.9388
 20
440.8135
 10
286.8944
 20
440.8864
 10
285.8433
 20
440.9578
 10
284.7862
 20
441.0273
 10
283.7242
 20
441.094
 10
282.658
 20
441.1573
 10
281.5886
 20
441.2166
 10
280.5169
 20
441.2711
 10
279.4438
 20
441.3203
 10
278.3701
 20
441.3634
 10
277.2968
 20
441.3998
 10
276.2247
 20
441.4289
 10
275.1547
 20
441.4499
 10
274.0877
 20
441.4622
 10
273.0247
 20
441.4652
 10
271.9664
 20
441.4581
 10
270.9139
 20
441.4403
 10
269.8679
 20
441.4112
 10
268.8294
 20
441.3701
 10
267.7993
 20
441.3162
 10
266.7784
 20
441.2491
 10
265.7676
 20
441.1679
 10
264.7679
 20
441.072
 10
263.7801
 20
440.9608
 10
262.8051
 20
440.8336
 10
261.8439
 20
440.6897
 10
260.8972
 20
440.5285
 10
259.966
 20
440.3492
 10
259.0512
 20
440.1514
 10
258.1537
 20
439.9342
 10
257.2743
 20
439.697
 10
256.414
 20
439.4391
 10
255.5736
 20
439.1599
 10
254.754
 20
438.8588
 10
253.9562
 20
438.5349
 10
253.181
 20
438.1878
 10
252.4293
 20
437.8167
 10
251.702
 20
437.421
 10
251.0
 20
437.0
 10
253.0
 20
440.0
 10
244.0
 20
440.0
 10
243.0
 20
437.0
 10
242.0
 20
437.0
 10
236.0
 20
440.0
 10
236.0
 20
372.0
 10
332.0
 20
372.0
 10
332.0
 20
440.0
 10
312.0
 20
440.0
 10
310.0
 20
446.0
 10
313.0
 20
447.0
 10
313.0
 20
448.0
 10
307.0
 20
449.0
  0
LWPOLYLINE
  5
48
330
17
100
AcDbEntity
  8
0
100
AcDbPolyline
 90
235
 70
0
 10
339.0
 20
449.0
 10
339.0
 20
447.0
 10
336.0
 20
448.0
 10
335.9935
 20
447.0208
 10
335.9827
 20
446.0401
 10
335.9675
 20
445.0578
 10
335.9483
 20
444.0741
 10
335.9251
 20
443.0889
 10
335.8983
 20
442.1022
 10
335.868
 20
441.1143
 10
335.8344
 20
440.125
 10
335.7976
 20
439.1344
 10
335.758
 20
438.1426
 10
335.7156
 20
437.1497
 10
335.6707
 20
436.1556
 10
335.6235
 20
435.1604
 10
335.5741
 20
434.1642
 10
335.5227
 20
433.167
 10
335.4696
 20
432.1689
 10
335.415
 20
431.1699
 10
335.3589
 20
430.17
 10
335.3017
 20
429.1693
 10
335.2435
 20
428.1678
 10
335.1846
 20
427.1656
 10
335.125
 20
426.1628
 10
335.065
 20
425.1593
 10
335.0049
 20
424.1552
 10
334.9447
 20
423.1506
 10
334.8847
 20
422.1456
 10
334.825
 20
421.14
 10
334.766
 20
420.1341
 10
334.7077
 20
419.1279
 10
334.6503
 20
418.1213
 10
334.5941
 20
417.1145
 10
334.5393
 20
416.1074
 10
334.4859
 20
415.1002
 10
334.4344
 20
414.0929
 10
334.3847
 20
413.0855
 10
334.3372
 20
412.0781
 10
334.2919
 20
411.0707
 10
334.2492
 20
410.0634
 10
334.2092
 20
409.0561
 10
334.172
 20
408.0491
 10
334.138
 20
407.0422
 10
334.1072
 20
406.0356
 10
334.0799
 20
405.0292
 10
334.0563
 20
404.0232
 10
334.0365
 20
403.0176
 10
334.0208
 20
402.0124
 10
334.0094
 20
401.0077
 10
334.0023
 20
400.0036
 10
334.0
 20
399.0
 10
333.985
 20
398.2981
 10
333.9449
 20
397.5161
 10
333.8868
 20
396.6654
 10
333.8176
 20
395.7579
 10
333.7446
 20
394.805
 10
333.6748
 20
393.8185
 10
333.6152
 20
392.81
 10
333.573
 20
391.7912
 10
333.5553
 20
390.7737
 10
333.569
 20
389.7692
 10
333.6214
 20
388.7892
 10
333.7195
 20
387.8456
 10
333.8704
 20
386.9498
 10
334.0812
 20
386.1137
 10
334.3589
 20
385.3487
 10
334.7107
 20
384.6666
 10
335.1436
 20
384.079
 10
335.6647
 20
383.5976
 10
336.2811
 20
383.2341
 10
337.0
 20
383.0
 10
337.0
 20
382.0
 10
334.0
 20
382.0
 10
334.0
 20
377.0
 10
335.1449
 20
376.9932
 10
336.1824
 20
376.9959
 10
337.1098
 20
377.0579
 10
337.9243
 20
377.2289
 10
338.6233
 20
377.5589
 10
339.204
 20
378.0975
 10
339.6638
 20
378.8946
 10
340.0
 20
380.0
 10
341.0
 20
380.0
 10
342.0
 20
376.0
 10
340.8561
 20
375.9858
 10
339.786
 20
375.9544
 10
338.7906
 20
375.88
 10
337.8709
 20
375.737
 10
337.028
 20
375.4997
 10
336.2629
 20
375.1424
 10
335.5765
 20
374.6394
 10
334.9699
 20
373.9651
 10
334.444
 20
373.0939
 10
334.0
 20
372.0
 10
448.0
 20
372.0
 10
448.0
 20
404.0
 10
456.0
 20
406.0
 10
457.0
 20
406.0
 10
457.0
 20
402.0
 10
451.0
 20
403.0
 10
451.0
 20
393.0
 10
453.0
 20
393.0
 10
451.0
 20
372.0
 10
474.0
 20
372.0
 10
474.0
 20
402.0
 10
468.0
 20
405.0
 10
469.0
 20
405.0
 10
477.0
 20
403.0
 10
477.0
 20
372.0
 10
593.0
 20
372.0
 10
593.0
 20
440.0
 10
590.0
 20
440.0
 10
590.0
 20
448.0
 10
588.8834
 20
447.5128
 10
587.9491
 20
446.9752
 10
587.18
 20
446.3798
 10
586.5593
 20
445.7197
 10
586.0699
 20
444.9877
 10
585.6949
 20
444.1766
 10
585.4174
 20
443.2794
 10
585.2204
 20
442.289
 10
585.0869
 20
441.1982
 10
585.0
 20
440.0
 10
515.0
 20
440.0
 10
514.2761
 20
439.9899
 10
513.5064
 20
439.962
 10
512.6954
 20
439.9198
 10
511.8478
 20
439.8666
 10
510.9679
 20
439.8059
 10
510.0604
 20
439.741
 10
509.1299
 20
439.6755
 10
508.1807
 20
439.6128
 10
507.2176
 20
439.5562
 10
506.2449
 20
439.5092
 10
505.2673
 20
439.4753
 10
504.2893
 20
439.4578
 10
503.3155
 20
439.4602
 10
502.3503
 20
439.486
 10
501.3983
 20
439.5384
 10
500.4641
 20
439.6211
 10
499.5522
 20
439.7373
 10
498.6671
 20
439.8906
 10
497.8134
 20
440.0843
 10
496.9955
 20
440.3218
 10
496.2182
 20
440.6067
 10
495.4858
 20
440.9423
 10
494.8029
 20
441.3321
 10
494.1741
 20
441.7795
 10
493.6039
 20
442.2878
 10
493.0969
 20
442.8606
 10
492.6575
 20
443.5013
 10
492.2903
 20
444.2133
 10
492.0
 20
445.0
 10
489.0
 20
441.0
 10
488.0
 20
441.0
 10
484.0
 20
447.0
 10
483.8772
 20
445.8418
 10
483.6915
 20
444.8089
 10
483.4366
 20
443.895
 10
483.1063
 20
443.094
 10
482.6942
 20
442.3996
 10
482.1943
 20
441.8055
 10
481.6003
 20
441.3056
 10
480.9058
 20
440.8936
 10
480.1048
 20
440.5632
 10
479.191
 20
440.3083
 10
478.1581
 20
440.1226
 10
477.0
 20
440.0
 10
477.0
 20
409.0
 10
474.0
 20
409.0
 10
474.0
 20
429.0
 10
451.0
 20
429.0
 10
450.9871
 20
428.2379
 10
450.9519
 20
427.4116
 10
450.8997
 20
426.529
 10
450.8356
 20
425.5978
 10
450.765
 20
424.626
 10
450.693
 20
423.6216
 10
450.6248
 20
422.5924
 10
450.5657
 20
421.5462
 10
450.5208
 20
420.4911
 10
450.4955
 20
419.4348
 10
450.495
 20
418.3853
 10
450.5244
 20
417.3505
 10
450.589
 20
416.3382
 10
450.6941
 20
415.3564
 10
450.8447
 20
414.413
 10
451.0463
 20
413.5158
 10
451.3039
 20
412.6728
 10
451.6229
 20
411.8918
 10
452.0084
 20
411.1807
 10
452.4657
 20
410.5475
 10
453.0
 20
410.0
 10
453.0
 20
409.0
 10
448.0
 20
409.0
 10
448.0
 20
440.0
 10
442.0
 20
440.0
 10
442.0
 20
447.0
 10
437.0
 20
441.0
 10
436.0
 20
441.0
 10
435.0
 20
445.0
 10
434.0
 20
445.0
 10
433.7096
 20
444.2133
 10
433.3424
 20
443.5013
 10
432.903
 20
442.8606
 10
432.396
 20
442.2878
 10
431.8258
 20
441.7795
 10
431.197
 20
441.3321
 10
430.5141
 20
440.9423
 10
429.7817
 20
440.6067
 10
429.0044
 20
440.3218
 10
428.1865
 20
440.0843
 10
427.3328
 20
439.8906
 10
426.4477
 20
439.7373
 10
425.5358
 20
439.6211
 10
424.6016
 20
439.5384
 10
423.6496
 20
439.486
 10
422.6844
 20
439.4602
 10
421.7106
 20
439.4578
 10
420.7326
 20
439.4753
 10
419.755
 20
439.5092
 10
418.7823
 20
439.5562
 10
417.8192
 20
439.6128
 10
416.87
 20
439.6755
 10
415.9395
 20
439.741
 10
415.032
 20
439.8059
 10
414.1521
 20
439.8666
 10
413.3045
 20
439.9198
 10
412.4935
 20
439.962
 10
411.7238
 20
439.9899
 10
411.0
 20
440.0
 10
341.0
 20
440.0
 10
341.0
 20
449.0
 10
339.0
 20
449.0
  0
LWPOLYLINE
  5
49
330
17
100
AcDbEntity
  8
0
100
AcDbPolyline
 90
180
 70
0
 10
169.0
 20
448.0
 10
169.4289
 20
447.4035
 10
169.8764
 20
446.8045
 10
170.3415
 20
446.2028
 10
170.823
 20
445.5985
 10
171.3197
 20
444.9915
 10
171.8307
 20
444.3816
 10
172.3549
 20
443.7689
 10
172.8911
 20
443.1532
 10
173.4382
 20
442.5346
 10
173.9952
 20
441.9128
 10
174.5609
 20
441.288
 10
175.1344
 20
440.6599
 10
175.7143
 20
440.0286
 10
176.2998
 20
439.394
 10
176.8897
 20
438.756
 10
177.4828
 20
438.1145
 10
178.0782
 20
437.4695
 10
178.6746
 20
436.821
 10
179.2711
 20
436.1687
 10
179.8665
 20
435.5128
 10
180.4597
 20
434.8531
 10
181.0496
 20
434.1896
 10
181.6352
 20
433.5222
 10
182.2153
 20
432.8508
 10
182.7889
 20
432.1753
 10
183.3549
 20
431.4958
 10
183.9121
 20
430.8121
 10
184.4595
 20
430.1242
 10
184.9959
 20
429.432
 10
185.5204
 20
428.7354
 10
186.0317
 20
428.0344
 10
186.5289
 20
427.3289
 10
187.0107
 20
426.6189
 10
187.4762
 20
425.9043
 10
187.9241
 20
425.185
 10
188.3535
 20
424.4609
 10
188.7633
 20
423.732
 10
189.1522
 20
422.9983
 10
189.5194
 20
422.2596
 10
189.8635
 20
421.516
 10
190.1837
 20
420.7672
 10
190.4787
 20
420.0134
 10
190.7474
 20
419.2543
 10
190.9889
 20
418.49
 10
191.2019
 20
417.7204
 10
191.3854
 20
416.9453
 10
191.5384
 20
416.1649
 10
191.6596
 20
415.3789
 10
191.748
 20
414.5873
 10
191.8026
 20
413.7901
 10
191.8222
 20
412.9871
 10
191.8057
 20
412.1784
 10
191.752
 20
411.3639
 10
191.6601
 20
410.5434
 10
191.5289
 20
409.717
 10
191.3572
 20
408.8845
 10
191.144
 20
408.046
 10
190.8881
 20
407.2013
 10
190.5885
 20
406.3503
 10
190.2441
 20
405.4931
 10
189.8538
 20
404.6295
 10
189.4165
 20
403.7595
 10
188.9311
 20
402.883
 10
188.3966
 20
402.0
 10
187.8615
 20
401.1831
 10
187.3007
 20
400.3845
 10
186.7161
 20
399.6028
 10
186.1094
 20
398.8368
 10
185.4824
 20
398.085
 10
184.8368
 20
397.3464
 10
184.1746
 20
396.6195
 10
183.4975
 20
395.903
 10
182.8072
 20
395.1958
 10
182.1056
 20
394.4965
 10
181.3944
 20
393.8038
 10
180.6755
 20
393.1164
 10
179.9506
 20
392.4331
 10
179.2215
 20
391.7525
 10
178.49
 20
391.0734
 10
177.7579
 20
390.3945
 10
177.027
 20
389.7145
 10
176.2991
 20
389.0321
 10
175.5759
 20
388.346
 10
174.8593
 20
387.655
 10
174.151
 20
386.9577
 10
173.4529
 20
386.2529
 10
172.7667
 20
385.5392
 10
172.0941
 20
384.8155
 10
171.4371
 20
384.0803
 10
170.7974
 20
383.3325
 10
170.1768
 20
382.5706
 10
169.577
 20
381.7936
 10
169.0
 20
381.0
 10
190.0
 20
402.0
 10
191.0
 20
402.0
 10
205.0
 20
388.0
 10
204.4223
 20
388.7833
 10
203.8096
 20
389.5488
 10
203.1667
 20
390.2988
 10
202.4979
 20
391.0356
 10
201.808
 20
391.7618
 10
201.1014
 20
392.4796
 10
200.3828
 20
393.1915
 10
199.6568
 20
393.8999
 10
198.9278
 20
394.6072
 10
198.2006
 20
395.3158
 10
197.4796
 20
396.028
 10
196.7694
 20
396.7464
 10
196.0747
 20
397.4732
 10
195.3999
 20
398.2109
 10
194.7498
 20
398.9619
 10
194.1287
 20
399.7285
 10
193.5414
 20
400.5133
 10
192.9924
 20
401.3185
 10
192.4863
 20
402.1466
 10
192.0277
 20
403.0
 10
191.5698
 20
403.9563
 10
191.158
 20
404.9009
 10
190.7912
 20
405.834
 10
190.4682
 20
406.7557
 10
190.1882
 20
407.6664
 10
189.95
 20
408.5662
 10
189.7526
 20
409.4554
 10
189.595
 20
410.3342
 10
189.4762
 20
411.2028
 10
189.3951
 20
412.0614
 10
189.3506
 20
412.9104
 10
189.3418
 20
413.7499
 10
189.3676
 20
414.5801
 10
189.427
 20
415.4012
 10
189.5189
 20
416.2136
 10
189.6423
 20
417.0174
 10
189.7961
 20
417.8128
 10
189.9794
 20
418.6001
 10
190.1911
 20
419.3795
 10
190.4301
 20
420.1513
 10
190.6954
 20
420.9156
 10
190.9861
 20
421.6727
 10
191.3009
 20
422.4228
 10
191.639
 20
423.1661
 10
191.9993
 20
423.903
 10
192.3807
 20
424.6335
 10
192.7822
 20
425.3579
 10
193.2027
 20
426.0765
 10
193.6413
 20
426.7895
 10
194.0969
 20
427.4971
 10
194.5685
 20
428.1995
 10
195.055
 20
428.897
 10
195.5554
 20
429.5898
 10
196.0686
 20
430.278
 10
196.5936
 20
430.9621
 10
197.1295
 20
431.6421
 10
197.675
 20
432.3183
 10
198.2293
 20
432.991
 10
198.7913
 20
433.6603
 10
199.3599
 20
434.3265
 10
199.9341
 20
434.9898
 10
200.5129
 20
435.6504
 10
201.0952
 20
436.3086
 10
201.68
 20
436.9646
 10
202.2662
 20
437.6186
 10
202.8529
 20
438.2709
 10
203.439
 20
438.9217
 10
204.0234
 20
439.5711
 10
204.6052
 20
440.2195
 10
205.1832
 20
440.8671
 10
205.7565
 20
441.514
 10
206.324
 20
442.1606
 10
206.8846
 20
442.807
 10
207.4374
 20
443.4535
 10
207.9814
 20
444.1003
 10
208.5153
 20
444.7476
 10
209.0383
 20
445.3956
 10
209.5493
 20
446.0447
 10
210.0473
 20
446.6949
 10
210.5312
 20
447.3466
 10
211.0
 20
448.0
 10
190.0
 20
430.055573
 10
169.0
 20
448.0
  0
LWPOLYLINE
  5
4A
330
17
100
AcDbEntity
  8
0
100
AcDbPolyline
 90
15
 70
0
 10
496.0
 20
442.0
 10
582.0
 20
442.0
 10
582.0
 20
445.0
 10
502.0
 20
445.0
 10
502.0
 20
448.0
 10
500.8829
 20
447.7973
 10
499.9073
 20
447.533
 10
499.0632
 20
447.197
 10
498.3408
 20
446.7793
 10
497.7299
 20
446.27
 10
497.2206
 20
445.6591
 10
496.8029
 20
444.9367
 10
496.4669
 20
444.0926
 10
496.2026
 20
443.117
 10
496.0
 20
442.0
  0
LWPOLYLINE
  5
4B
330
17
100
AcDbEntity
  8
0
100
AcDbPolyline
 90
7
 70
0
 10
230.0
 20
447.0
 10
230.0
 20
366.0
 10
294.0
 20
366.0
 10
294.0
 20
367.0
 10
231.0
 20
367.0
 10
231.0
 20
422.0
 10
230.0
 20
447.0
  0
LWPOLYLINE
  5
4C
330
17
100
AcDbEntity
  8
0
100
AcDbPolyline
 90
5
 70
0
 10
234.0
 20
446.0
 10
234.0
 20
372.0
 10
235.0
 20
372.0
 10
235.0
 20
423.0
 10
234.0
 20
446.0
  0
LWPOLYLINE
  5
4D
330
17
100
AcDbEntity
  8
0
100
AcDbPolyline
 90
5
 70
0
 10
236.0
 20
445.0
 10
236.0
 20
442.0
 10
300.0
 20
442.0
 10
300.0
 20
446.0
 10
236.0
 20
445.0
  0
LWPOLYLINE
  5
4E
330
17
100
AcDbEntity
  8
0
100
AcDbPolyline
 90
12
 70
0
 10
449.0
 20
446.0
 10
449.0
 20
410.0
 10
450.0
 20
410.0
 10
450.0
 20
430.0
 10
475.0
 20
430.0
 10
475.0
 20
410.0
 10
476.0
 20
410.0
 10
476.0
 20
446.0
 10
475.0
 20
446.0
 10
475.0
 20
431.0
 10
450.0
 20
431.0
 10
449.0
 20
446.0
  0
LWPOLYLINE
  5
4F
330
17
100
AcDbEntity
  8
0
100
AcDbPolyline
 90
5
 70
0
 10
379.0
 20
445.0
 10
379.0
 20
442.0
 10
430.0
 20
442.0
 10
430.0
 20
445.0
 10
379.0
 20
445.0
  0
LWPOLYLINE
  5
50
330
17
100
AcDbEntity
  8
0
100
AcDbPolyline
 90
107
 70
0
 10
596.0
 20
440.0
 10
596.0
 20
426.0
 10
599.0
 20
426.0
 10
601.0
 20
419.0
 10
601.0
 20
418.0
 10
598.0
 20
424.0
 10
596.0
 20
424.0
 10
596.0
 20
383.0
 10
600.0
 20
383.0
 10
600.0
 20
371.0
 10
601.3135
 20
370.9968
 10
602.5405
 20
370.9852
 10
603.6881
 20
370.962
 10
604.7636
 20
370.9242
 10
605.7742
 20
370.8685
 10
606.7271
 20
370.7919
 10
607.6294
 20
370.6912
 10
608.4885
 20
370.5633
 10
609.3115
 20
370.4051
 10
610.1057
 20
370.2134
 10
610.8782
 20
369.985
 10
611.6363
 20
369.717
 10
612.3871
 20
369.4061
 10
613.138
 20
369.0492
 10
613.8961
 20
368.6431
 10
614.6686
 20
368.1848
 10
615.4627
 20
367.6711
 10
616.2857
 20
367.0989
 10
617.1448
 20
366.4651
 10
618.0471
 20
365.7665
 10
619.0
 20
365.0
 10
619.0
 20
364.0
 10
615.0
 20
364.0
 10
615.0
 20
369.0
 10
600.0
 20
369.0
 10
600.0
 20
341.0
 10
654.0
 20
341.0
 10
654.0
 20
347.0
 10
673.0
 20
347.0
 10
673.0
 20
357.0
 10
672.0
 20
357.0
 10
670.0
 20
354.0
 10
669.0
 20
354.0
 10
673.0
 20
359.0
 10
670.0
 20
360.0
 10
670.0
 20
361.0
 10
671.0
 20
364.0
 10
673.0
 20
370.0
 10
638.0
 20
369.0
 10
635.0
 20
364.0
 10
635.0
 20
365.0
 10
637.0
 20
371.0
 10
644.0
 20
371.0
 10
644.0
 20
401.0
 10
625.0
 20
399.0
 10
626.0
 20
401.0
 10
625.0
 20
401.0
 10
623.0
 20
401.0
 10
620.0
 20
399.0
 10
617.0
 20
402.0
 10
617.0
 20
403.0
 10
621.0
 20
400.0
 10
622.0
 20
400.0
 10
623.0
 20
405.0
 10
616.0
 20
405.0
 10
617.0
 20
409.0
 10
618.0
 20
409.0
 10
618.0
 20
406.0
 10
623.0
 20
406.0
 10
622.9738
 20
407.1851
 10
622.9113
 20
408.1858
 10
622.7538
 20
409.0185
 10
622.4426
 20
409.6998
 10
621.919
 20
410.2461
 10
621.1243
 20
410.674
 10
620.0
 20
411.0
 10
620.0
 20
412.0
 10
623.0
 20
412.0
 10
623.0
 20
424.0
 10
622.1838
 20
424.0147
 10
621.2987
 20
424.0543
 10
620.3543
 20
424.1121
 10
619.3601
 20
424.1813
 10
618.3257
 20
424.2552
 10
617.2607
 20
424.327
 10
616.1747
 20
424.39
 10
615.0774
 20
424.4374
 10
613.9782
 20
424.4625
 10
612.8869
 20
424.4585
 10
611.813
 20
424.4186
 10
610.7661
 20
424.3362
 10
609.7558
 20
424.2045
 10
608.7917
 20
424.0166
 10
607.8833
 20
423.766
 10
607.0404
 20
423.4457
 10
606.2725
 20
423.0491
 10
605.5891
 20
422.5695
 10
605.0
 20
422.0
 10
604.0
 20
422.0
 10
605.0
 20
432.0
 10
604.0
 20
432.0
 10
604.0
 20
430.0
 10
603.0
 20
430.0
 10
608.0
 20
432.0
 10
606.0
 20
437.0
 10
608.0
 20
440.0
 10
596.0
 20
440.0
  0
LWPOLYLINE
  5
51
330
17
100
AcDbEntity
  8
0
100
AcDbPolyline
 90
397
 70
0
 10
738.0
 20
427.0
 10
737.0
 20
418.0
 10
727.0
 20
418.0
 10
727.0
 20
377.0
 10
728.2468
 20
376.9241
 10
729.3487
 20
376.7812
 10
730.3187
 20
376.569
 10
731.1697
 20
376.2852
 10
731.9149
 20
375.9274
 10
732.5671
 20
375.4934
 10
733.1394
 20
374.9808
 10
733.6448
 20
374.3874
 10
734.0962
 20
373.7108
 10
734.5068
 20
372.9488
 10
734.8894
 20
372.099
 10
735.2572
 20
371.1591
 10
735.623
 20
370.1269
 10
736.0
 20
369.0
 10
733.0
 20
375.0
 10
727.0
 20
375.0
 10
727.0
 20
349.0
 10
783.0
 20
349.0
 10
783.0163
 20
349.9916
 10
783.0447
 20
350.9427
 10
783.0542
 20
351.8444
 10
783.0141
 20
352.6873
 10
782.8933
 20
353.4623
 10
782.6611
 20
354.1604
 10
782.2866
 20
354.7723
 10
781.7388
 20
355.289
 10
780.9869
 20
355.7012
 10
780.0
 20
356.0
 10
780.0
 20
357.0
 10
785.0
 20
357.0
 10
785.0
 20
349.0
 10
804.0
 20
349.0
 10
804.0
 20
350.0
 10
802.0
 20
350.0
 10
802.0
 20
351.0
 10
852.0
 20
349.0
 10
852.0
 20
350.0
 10
850.0
 20
350.0
 10
850.0
 20
351.0
 10
850.9461
 20
350.7939
 10
851.8959
 20
350.5968
 10
852.8492
 20
350.4082
 10
853.806
 20
350.2282
 10
854.7661
 20
350.0566
 10
855.7294
 20
349.8931
 10
856.6959
 20
349.7377
 10
857.6656
 20
349.5901
 10
858.6382
 20
349.4502
 10
859.6137
 20
349.3178
 10
860.592
 20
349.1927
 10
861.573
 20
349.0749
 10
862.5567
 20
348.9641
 10
863.543
 20
348.8602
 10
864.5317
 20
348.763
 10
865.5228
 20
348.6723
 10
866.5162
 20
348.588
 10
867.5118
 20
348.5099
 10
868.5095
 20
348.4378
 10
869.5092
 20
348.3717
 10
870.5108
 20
348.3113
 10
871.5143
 20
348.2564
 10
872.5196
 20
348.2069
 10
873.5265
 20
348.1626
 10
874.535
 20
348.1234
 10
875.545
 20
348.0892
 10
876.5564
 20
348.0596
 10
877.5692
 20
348.0346
 10
878.5831
 20
348.0141
 10
879.5982
 20
347.9977
 10
880.6144
 20
347.9855
 10
881.6315
 20
347.9772
 10
882.6495
 20
347.9726
 10
883.6683
 20
347.9716
 10
884.6877
 20
347.9741
 10
885.7078
 20
347.9798
 10
886.7284
 20
347.9886
 10
887.7495
 20
348.0003
 10
888.7709
 20
348.0148
 10
889.7925
 20
348.0319
 10
890.8144
 20
348.0515
 10
891.8363
 20
348.0733
 10
892.8582
 20
348.0972
 10
893.88
 20
348.1231
 10
894.9016
 20
348.1508
 10
895.923
 20
348.1801
 10
896.944
 20
348.2109
 10
897.9645
 20
348.2429
 10
898.9845
 20
348.2761
 10
900.0039
 20
348.3103
 10
901.0226
 20
348.3452
 10
902.0405
 20
348.3808
 10
903.0575
 20
348.4169
 10
904.0735
 20
348.4532
 10
905.0884
 20
348.4898
 10
906.1022
 20
348.5263
 10
907.1148
 20
348.5626
 10
908.126
 20
348.5986
 10
909.1358
 20
348.634
 10
910.1441
 20
348.6688
 10
911.1508
 20
348.7028
 10
912.1558
 20
348.7357
 10
913.159
 20
348.7675
 10
914.1604
 20
348.7979
 10
915.1599
 20
348.8269
 10
916.1573
 20
348.8542
 10
917.1526
 20
348.8797
 10
918.1456
 20
348.9032
 10
919.1364
 20
348.9245
 10
920.1248
 20
348.9435
 10
921.1107
 20
348.9601
 10
922.094
 20
348.974
 10
923.0747
 20
348.9851
 10
924.0526
 20
348.9932
 10
925.0278
 20
348.9982
 10
926.0
 20
349.0
 10
926.0
 20
404.0
 10
931.0
 20
404.0
 10
931.0
 20
405.0
 10
925.0
 20
408.0
 10
926.0
 20
408.0
 10
933.0
 20
406.0
 10
933.0
 20
402.0
 10
928.0
 20
402.0
 10
928.0
 20
349.0
 10
998.0
 20
349.0
 10
998.0
 20
357.0
 10
998.9916
 20
356.9836
 10
999.9428
 20
356.9552
 10
1000.8444
 20
356.9456
 10
1001.6873
 20
356.9858
 10
1002.4624
 20
357.1065
 10
1003.1604
 20
357.3387
 10
1003.7724
 20
357.7132
 10
1004.289
 20
358.261
 10
1004.7012
 20
359.013
 10
1005.0
 20
360.0
 10
1008.0
 20
360.0
 10
1007.4121
 20
359.0412
 10
1006.7998
 20
358.2526
 10
1006.1545
 20
357.6169
 10
1005.4677
 20
357.1168
 10
1004.731
 20
356.7351
 10
1003.9358
 20
356.4546
 10
1003.0735
 20
356.2581
 10
1002.1358
 20
356.1283
 10
1001.1141
 20
356.048
 10
1000.0
 20
356.0
 10
1000.0
 20
349.0
 10
1034.0
 20
349.0
 10
1031.0
 20
354.0
 10
1032.0
 20
354.0
 10
1034.0
 20
352.0
 10
1034.0
 20
355.0
 10
1034.0
 20
356.0
 10
1022.0
 20
359.0
 10
1024.0
 20
358.0
 10
1027.0
 20
360.0
 10
1038.0
 20
354.0
 10
1038.0
 20
353.0
 10
1036.0
 20
349.0
 10
1053.0
 20
349.0
 10
1053.0
 20
423.0
 10
1044.0
 20
423.0
 10
1044.0
 20
422.0
 10
1052.0
 20
422.0
 10
1052.0
 20
384.0
 10
1050.396606
 20
370.603394
 10
1036.0
 20
369.0
 10
1033.0
 20
363.0
 10
1034.0
 20
367.0
 10
1022.0
 20
367.0
 10
1022.0
 20
380.0
 10
1019.0
 20
381.0
 10
1019.637
 20
381.6905
 10
1020.1885
 20
382.4244
 10
1020.66
 20
383.1981
 10
1021.0573
 20
384.0081
 10
1021.3862
 20
384.8508
 10
1021.6524
 20
385.7226
 10
1021.8616
 20
386.6201
 10
1022.0195
 20
387.5395
 10
1022.1319
 20
388.4775
 10
1022.2044
 20
389.4304
 10
1022.2429
 20
390.3947
 10
1022.253
 20
391.3669
 10
1022.2405
 20
392.3433
 10
1022.211
 20
393.3205
 10
1022.1704
 20
394.2948
 10
1022.1243
 20
395.2628
 10
1022.0785
 20
396.2209
 10
1022.0387
 20
397.1654
 10
1022.0106
 20
398.093
 10
1022.0
 20
399.0
 10
1021.1297
 20
399.0144
 10
1020.2155
 20
399.0523
 10
1019.2652
 20
399.1053
 10
1018.2867
 20
399.1648
 10
1017.2877
 20
399.2226
 10
1016.2761
 20
399.2703
 10
1015.2597
 20
399.2995
 10
1014.2463
 20
399.3017
 10
1013.2438
 20
399.2687
 10
1012.2599
 20
399.192
 10
1011.3026
 20
399.0632
 10
1010.3795
 20
398.874
 10
1009.4986
 20
398.616
 10
1008.6677
 20
398.2807
 10
1007.8945
 20
397.8599
 10
1007.187
 20
397.3451
 10
1006.5528
 20
396.7279
 10
1006.0
 20
396.0
 10
1005.1267
 20
396.5876
 10
1004.2763
 20
397.0997
 10
1003.4543
 20
397.558
 10
1002.6662
 20
397.9846
 10
1001.9174
 20
398.4011
 10
1001.2134
 20
398.8296
 10
1000.5597
 20
399.2919
 10
999.9617
 20
399.8098
 10
999.425
 20
400.4053
 10
998.955
 20
401.1002
 10
998.5571
 20
401.9163
 10
998.237
 20
402.8756
 10
998.0
 20
404.0
 10
994.0
 20
401.0
 10
993.0
 20
401.0
 10
998.0
 20
405.0
 10
996.0
 20
422.0
 10
995.0
 20
419.0
 10
994.0
 20
419.0
 10
989.0
 20
424.0
 10
989.0
 20
418.0
 10
952.0
 20
418.0
 10
951.0365
 20
417.9946
 10
950.0842
 20
417.9832
 10
949.1468
 20
417.9731
 10
948.2278
 20
417.9715
 10
947.331
 20
417.9857
 10
946.4599
 20
418.0228
 10
945.6182
 20
418.09
 10
944.8095
 20
418.1947
 10
944.0374
 20
418.344
 10
943.3056
 20
418.5452
 10
942.6177
 20
418.8055
 10
941.9772
 20
419.1321
 10
941.388
 20
419.5322
 10
940.8534
 20
420.0132
 10
940.3774
 20
420.5821
 10
939.9633
 20
421.2463
 10
939.6149
 20
422.0129
 10
939.3358
 20
422.8893
 10
939.1296
 20
423.8825
 10
939.0
 20
425.0
 10
938.0785
 20
424.4655
 10
937.2568
 20
423.8819
 10
936.529
 20
423.252
 10
935.8895
 20
422.5781
 10
935.3325
 20
421.863
 10
934.8523
 20
421.1091
 10
934.4431
 20
420.3192
 10
934.0993
 20
419.4956
 10
933.815
 20
418.6412
 10
933.5847
 20
417.7583
 10
933.4025
 20
416.8496
 10
933.2627
 20
415.9177
 10
933.1597
 20
414.9651
 10
933.0876
 20
413.9945
 10
933.0407
 20
413.0083
 10
933.0134
 20
412.0093
 10
933.0
 20
411.0
 10
929.0
 20
411.0
 10
929.0
 20
412.0
 10
929.657
 20
412.6727
 10
930.1635
 20
413.3939
 10
930.5281
 20
414.1555
 10
930.7598
 20
414.9496
 10
930.8673
 20
415.7681
 10
930.8597
 20
416.6031
 10
930.7456
 20
417.4466
 10
930.534
 20
418.2905
 10
930.2337
 20
419.127
 10
929.8535
 20
419.948
 10
929.4024
 20
420.7455
 10
928.8891
 20
421.5116
 10
928.3225
 20
422.2382
 10
927.7115
 20
422.9174
 10
927.0649
 20
423.5411
 10
926.3915
 20
424.1015
 10
925.7002
 20
424.5904
 10
925.0
 20
425.0
 10
922.0
 20
412.0
 10
888.0
 20
412.0
 10
888.0
 20
418.0
 10
886.9765
 20
417.9929
 10
885.9689
 20
417.9763
 10
884.9771
 20
417.957
 10
884.001
 20
417.9418
 10
883.0407
 20
417.9377
 10
882.0963
 20
417.9513
 10
881.1677
 20
417.9897
 10
880.2549
 20
418.0596
 10
879.3579
 20
418.1679
 10
878.4768
 20
418.3215
 10
877.6116
 20
418.5271
 10
876.7622
 20
418.7916
 10
875.9287
 20
419.122
 10
875.1111
 20
419.5249
 10
874.3095
 20
420.0073
 10
873.5237
 20
420.5761
 10
872.7539
 20
421.238
 10
872.0
 20
422.0
 10
870.0
 20
419.0
 10
865.0
 20
424.0
 10
864.7708
 20
422.8935
 10
864.4628
 20
421.9319
 10
864.0799
 20
421.1051
 10
863.6259
 20
420.4028
 10
863.1044
 20
419.815
 10
862.5193
 20
419.3316
 10
861.8743
 20
418.9422
 10
861.1733
 20
418.6369
 10
860.42
 20
418.4054
 10
859.6182
 20
418.2376
 10
858.7716
 20
418.1233
 10
857.8841
 20
418.0525
 10
856.9594
 20
418.0149
 10
856.0013
 20
418.0003
 10
855.0135
 20
417.9987
 10
854.0
 20
418.0
 10
854.0
 20
377.0
 10
861.0
 20
377.0
 10
861.0
 20
375.0
 10
854.0
 20
375.0
 10
854.0
 20
356.0
 10
847.0
 20
354.0
 10
846.0
 20
354.0
 10
852.0
 20
357.0
 10
852.0
 20
375.0
 10
806.0
 20
375.0
 10
806.009
 20
373.8181
 10
806.0333
 20
372.6835
 10
806.0687
 20
371.595
 10
806.1109
 20
370.5511
 10
806.1557
 20
369.5505
 10
806.1989
 20
368.5919
 10
806.2361
 20
367.6738
 10
806.2633
 20
366.7949
 10
806.2761
 20
365.9539
 10
806.2703
 20
365.1495
 10
806.2417
 20
364.3802
 10
806.1861
 20
363.6447
 10
806.0991
 20
362.9416
 10
805.9767
 20
362.2696
 10
805.8145
 20
361.6274
 10
805.6083
 20
361.0136
 10
805.354
 20
360.4268
 10
805.0471
 20
359.8656
 10
804.6836
 20
359.3288
 10
804.2592
 20
358.815
 10
803.7697
 20
358.3227
 10
803.2107
 20
357.8507
 10
802.5782
 20
357.3976
 10
801.8678
 20
356.9621
 10
801.0753
 20
356.5427
 10
800.1965
 20
356.1381
 10
799.2272
 20
355.7471
 10
798.1631
 20
355.3681
 10
797.0
 20
355.0
 10
797.0
 20
358.0
 10
798.0
 20
358.0
 10
804.0
 20
357.0
 10
804.0
 20
375.0
 10
797.0
 20
374.0
 10
804.0
 20
377.0
 10
804.0
 20
418.0
 10
799.0
 20
418.0
 10
799.0
 20
425.0
 10
797.8796
 20
424.5179
 10
796.9442
 20
423.9944
 10
796.1751
 20
423.4158
 10
795.5535
 20
422.7678
 10
795.0606
 20
422.0366
 10
794.6776
 20
421.2082
 10
794.3856
 20
420.2686
 10
794.166
 20
419.2039
 10
794.0
 20
418.0
 10
746.0
 20
418.0
 10
746.0
 20
422.0
 10
743.0
 20
419.0
 10
742.0
 20
419.0
 10
738.0
 20
424.0
 10
740.0
 20
426.0
 10
738.0
 20
427.0
  0
LWPOLYLINE
  5
52
330
17
100
AcDbEntity
  8
0
100
AcDbPolyline
 90
7
 70
0
 10
645.0
 20
425.0
 10
645.0
 20
371.0
 10
658.0
 20
371.0
 10
658.0
 20
372.0
 10
646.0
 20
372.0
 10
646.0
 20
408.0
 10
645.0
 20
425.0
  0
LWPOLYLINE
  5
53
330
17
100
AcDbEntity
  8
0
100
AcDbPolyline
 90
45
 70
0
 10
752.0
 20
425.0
 10
749.0
 20
420.0
 10
791.0
 20
420.0
 10
791.0
 20
422.0
 10
790.3868
 20
421.993
 10
789.7169
 20
421.9731
 10
788.9936
 20
421.9416
 10
788.2202
 20
421.8999
 10
787.4
 20
421.8493
 10
786.5363
 20
421.7911
 10
785.6325
 20
421.7267
 10
784.6919
 20
421.6576
 10
783.7177
 20
421.5849
 10
782.7133
 20
421.5101
 10
781.6821
 20
421.4346
 10
780.6273
 20
421.3596
 10
779.5522
 20
421.2866
 10
778.4603
 20
421.2169
 10
777.3547
 20
421.1518
 10
776.2388
 20
421.0928
 10
775.116
 20
421.0411
 10
773.9895
 20
420.9981
 10
772.8627
 20
420.9652
 10
771.7389
 20
420.9438
 10
770.6213
 20
420.9351
 10
769.5134
 20
420.9405
 10
768.4185
 20
420.9614
 10
767.3398
 20
420.9992
 10
766.2807
 20
421.0552
 10
765.2445
 20
421.1307
 10
764.2345
 20
421.2272
 10
763.254
 20
421.3459
 10
762.3064
 20
421.4882
 10
761.3949
 20
421.6555
 10
760.523
 20
421.8491
 10
759.6938
 20
422.0704
 10
758.9108
 20
422.3208
 10
758.1772
 20
422.6015
 10
757.4964
 20
422.914
 10
756.8717
 20
423.2595
 10
756.3064
 20
423.6396
 10
755.8038
 20
424.0554
 10
755.3672
 20
424.5084
 10
755.0
 20
425.0
 10
752.0
 20
425.0
  0
LWPOLYLINE
  5
54
330
17
100
AcDbEntity
  8
0
100
AcDbPolyline
 90
16
 70
0
 10
826.0
 20
425.0
 10
826.0
 20
418.0
 10
806.0
 20
418.0
 10
806.0
 20
377.0
 10
831.0
 20
377.0
 10
829.0
 20
383.0
 10
829.0
 20
384.0
 10
833.0
 20
384.0
 10
833.0
 20
377.0
 10
852.0
 20
377.0
 10
852.0
 20
418.0
 10
835.0
 20
418.0
 10
835.0
 20
422.0
 10
832.0
 20
419.0
 10
831.0
 20
419.0
 10
826.0
 20
425.0
  0
LWPOLYLINE
  5
55
330
17
100
AcDbEntity
  8
0
100
AcDbPolyline
 90
5
 70
0
 10
943.0
 20
423.0
 10
943.0
 20
420.0
 10
986.0
 20
420.0
 10
986.0
 20
423.0
 10
943.0
 20
423.0
  0
LWPOLYLINE
  5
56
330
17
100
AcDbEntity
  8
0
100
AcDbPolyline
 90
6
 70
0
 10
1024.0
 20
423.0
 10
1024.0
 20
384.0
 10
1025.0
 20
384.0
 10
1025.0
 20
422.0
 10
1032.0
 20
422.0
 10
1024.0
 20
423.0
  0
LWPOLYLINE
  5
57
330
17
100
AcDbEntity
  8
0
100
AcDbPolyline
 90
157
 70
0
 10
677.0
 20
400.0
 10
677.0
 20
396.0
 10
685.0
 20
396.0
 10
686.0
 20
390.0
 10
683.0
 20
395.0
 10
681.0
 20
395.0
 10
681.0
 20
390.0
 10
677.0
 20
390.0
 10
678.0
 20
387.0
 10
679.0
 20
387.0
 10
678.0
 20
389.0
 10
679.0
 20
389.0
 10
680.0
 20
386.0
 10
682.0
 20
383.0
 10
683.0
 20
383.0
 10
683.0
 20
386.0
 10
690.0
 20
386.0
 10
691.0
 20
386.0
 10
685.0
 20
383.0
 10
682.0
 20
374.0
 10
676.0
 20
376.0
 10
676.0
 20
374.0
 10
682.0
 20
374.0
 10
682.0
 20
373.0
 10
676.0
 20
373.0
 10
678.0
 20
359.0
 10
676.0
 20
353.0
 10
677.0
 20
353.0
 10
679.0
 20
358.0
 10
678.0
 20
355.0
 10
679.0
 20
355.0
 10
679.0
 20
357.0
 10
680.0
 20
357.0
 10
680.0
 20
353.0
 10
681.0
 20
353.0
 10
680.0
 20
364.0
 10
685.0
 20
360.0
 10
685.0
 20
359.0
 10
683.8946
 20
358.6638
 10
683.0975
 20
358.2039
 10
682.5588
 20
357.6232
 10
682.2289
 20
356.9243
 10
682.0578
 20
356.1097
 10
681.9958
 20
355.1824
 10
681.9932
 20
354.1449
 10
682.0
 20
353.0
 10
683.0
 20
353.0
 10
683.0
 20
357.0
 10
684.0
 20
357.0
 10
684.0
 20
355.0
 10
685.0
 20
355.0
 10
684.0
 20
358.0
 10
686.0
 20
353.0
 10
687.0
 20
353.0
 10
686.0
 20
364.0
 10
690.0
 20
364.0
 10
691.0
 20
359.0
 10
689.0
 20
353.0
 10
690.0
 20
353.0
 10
692.0
 20
358.0
 10
691.0
 20
355.0
 10
692.0
 20
355.0
 10
692.0
 20
357.0
 10
693.0
 20
357.0
 10
693.0
 20
353.0
 10
694.0
 20
353.0
 10
693.0
 20
364.0
 10
698.0
 20
360.0
 10
698.0
 20
359.0
 10
696.8946
 20
358.6638
 10
696.0975
 20
358.204
 10
695.5588
 20
357.6233
 10
695.2289
 20
356.9243
 10
695.0578
 20
356.1098
 10
694.9958
 20
355.1824
 10
694.9932
 20
354.1449
 10
695.0
 20
353.0
 10
696.0
 20
353.0
 10
696.0
 20
357.0
 10
697.0
 20
357.0
 10
697.0
 20
355.0
 10
698.0
 20
355.0
 10
697.0
 20
358.0
 10
699.0
 20
356.0
 10
700.0
 20
356.0
 10
699.0
 20
364.0
 10
703.0
 20
364.0
 10
704.0
 20
359.0
 10
702.0
 20
353.0
 10
703.0
 20
353.0
 10
705.0
 20
358.0
 10
704.0
 20
355.0
 10
705.0
 20
355.0
 10
705.0
 20
357.0
 10
706.0
 20
357.0
 10
706.0
 20
353.0
 10
707.0
 20
353.0
 10
707.0
 20
365.0
 10
708.0
 20
365.0
 10
710.0
 20
358.0
 10
709.0
 20
351.0
 10
675.0
 20
351.0
 10
675.0
 20
347.0
 10
712.0
 20
347.0
 10
712.9458
 20
346.9857
 10
713.9047
 20
346.9509
 10
714.8701
 20
346.9075
 10
715.8353
 20
346.8675
 10
716.7937
 20
346.8428
 10
717.7387
 20
346.8454
 10
718.6638
 20
346.8872
 10
719.5623
 20
346.9802
 10
720.4276
 20
347.1362
 10
721.253
 20
347.3674
 10
722.0321
 20
347.6856
 10
722.7581
 20
348.1027
 10
723.4246
 20
348.6307
 10
724.0247
 20
349.2817
 10
724.5521
 20
350.0674
 10
725.0
 20
351.0
 10
712.0
 20
351.0
 10
712.0
 20
355.0
 10
713.0
 20
355.0
 10
720.0
 20
353.0
 10
722.0
 20
358.0
 10
721.0
 20
355.0
 10
722.0
 20
355.0
 10
722.0
 20
357.0
 10
723.0
 20
357.0
 10
723.0
 20
353.0
 10
724.0
 20
353.0
 10
724.0
 20
363.0
 10
713.0
 20
363.0
 10
713.0
 20
372.0
 10
724.0
 20
371.0
 10
724.0
 20
372.0
 10
719.0
 20
373.0
 10
719.0
 20
374.0
 10
724.0
 20
375.0
 10
724.0
 20
376.0
 10
719.0
 20
374.0
 10
710.0
 20
372.0
 10
710.0
 20
373.0
 10
712.0
 20
378.0
 10
725.0
 20
378.0
 10
725.0
 20
381.0
 10
703.0
 20
381.0
 10
703.0
 20
378.0
 10
709.0
 20
378.0
 10
709.0
 20
374.0
 10
708.0
 20
374.0
 10
699.0
 20
379.0
 10
696.0
 20
379.0
 10
696.0
 20
375.0
 10
695.0
 20
375.0
 10
695.0
 20
406.0
 10
677.0
 20
400.0
  0
LWPOLYLINE
  5
58
330
17
100
AcDbEntity
  8
0
100
AcDbPolyline
 90
29
 70
0
 10
1004.0
 20
396.0
 10
998.0
 20
394.0
 10
998.0
 20
391.0
 10
1003.0
 20
391.0
 10
1003.0
 20
383.0
 10
1000.0
 20
383.0
 10
1000.0
 20
380.0
 10
1000.7741
 20
379.4141
 10
1001.4149
 20
378.7567
 10
1001.934
 20
378.035
 10
1002.3435
 20
377.2563
 10
1002.6552
 20
376.4279
 10
1002.8808
 20
375.5569
 10
1003.0323
 20
374.6507
 10
1003.1216
 20
373.7164
 10
1003.1605
 20
372.7613
 10
1003.1609
 20
371.7927
 10
1003.1346
 20
370.8178
 10
1003.0935
 20
369.8438
 10
1003.0494
 20
368.878
 10
1003.0143
 20
367.9276
 10
1003.0
 20
367.0
 10
998.0
 20
367.0
 10
998.0
 20
363.0
 10
1005.0
 20
360.0
 10
1000.0
 20
364.0
 10
1000.0
 20
365.0
 10
1005.0
 20
365.0
 10
1004.0
 20
396.0
  0
LWPOLYLINE
  5
59
330
17
100
AcDbEntity
  8
0
100
AcDbPolyline
 90
119
 70
0
 10
206.0
 20
385.0
 10
206.0
 20
378.0
 10
205.1383
 20
378.007
 10
204.2509
 20
378.0274
 10
203.3393
 20
378.0597
 10
202.4052
 20
378.1027
 10
201.4503
 20
378.1549
 10
200.4762
 20
378.2152
 10
199.4846
 20
378.2821
 10
198.4771
 20
378.3544
 10
197.4554
 20
378.4306
 10
196.4212
 20
378.5096
 10
195.3761
 20
378.5899
 10
194.3218
 20
378.6703
 10
193.2599
 20
378.7494
 10
192.1922
 20
378.8258
 10
191.1201
 20
378.8984
 10
190.0455
 20
378.9657
 10
188.97
 20
379.0264
 10
187.8952
 20
379.0793
 10
186.8228
 20
379.1229
 10
185.7545
 20
379.1559
 10
184.6918
 20
379.1771
 10
183.6366
 20
379.1851
 10
182.5903
 20
379.1786
 10
181.5548
 20
379.1562
 10
180.5316
 20
379.1167
 10
179.5224
 20
379.0587
 10
178.5289
 20
378.9809
 10
177.5527
 20
378.8819
 10
176.5955
 20
378.7605
 10
175.659
 20
378.6152
 10
174.7448
 20
378.4449
 10
173.8545
 20
378.2482
 10
172.9898
 20
378.0236
 10
172.1525
 20
377.77
 10
171.3441
 20
377.4861
 10
170.934
 20
377.2739
 10
170.5448
 20
376.9589
 10
170.1762
 20
376.5465
 10
169.8281
 20
376.0424
 10
169.5005
 20
375.4523
 10
169.1931
 20
374.7817
 10
168.9058
 20
374.0363
 10
168.6386
 20
373.2217
 10
168.3913
 20
372.3434
 10
168.1637
 20
371.4072
 10
167.9557
 20
370.4186
 10
167.7673
 20
369.3833
 10
167.5983
 20
368.3068
 10
167.4485
 20
367.1948
 10
167.3179
 20
366.053
 10
167.2062
 20
364.8869
 10
167.1135
 20
363.7021
 10
167.0395
 20
362.5043
 10
166.9841
 20
361.299
 10
166.9472
 20
360.092
 10
166.9287
 20
358.8888
 10
166.9284
 20
357.6951
 10
166.9463
 20
356.5164
 10
166.9821
 20
355.3584
 10
167.0358
 20
354.2266
 10
167.1073
 20
353.1268
 10
167.1963
 20
352.0645
 10
167.3029
 20
351.0454
 10
167.4268
 20
350.0751
 10
167.5679
 20
349.1591
 10
167.7261
 20
348.3031
 10
167.9013
 20
347.5128
 10
168.0934
 20
346.7937
 10
168.3022
 20
346.1515
 10
168.5276
 20
345.5917
 10
168.7694
 20
345.1201
 10
169.0277
 20
344.7422
 10
169.6611
 20
344.1257
 10
170.4185
 20
343.6575
 10
171.2767
 20
343.3186
 10
172.2127
 20
343.0902
 10
173.2032
 20
342.9533
 10
174.2253
 20
342.8892
 10
175.2558
 20
342.879
 10
176.2716
 20
342.9039
 10
177.2497
 20
342.9449
 10
178.1668
 20
342.9832
 10
179.0
 20
343.0
 10
203.0
 20
343.0
 10
203.849
 20
342.9858
 10
204.7754
 20
342.9552
 10
205.7543
 20
342.9301
 10
206.7605
 20
342.9323
 10
207.7692
 20
342.9837
 10
208.7552
 20
343.106
 10
209.6935
 20
343.3212
 10
210.5591
 20
343.651
 10
211.327
 20
344.1174
 10
211.9722
 20
344.7422
 10
212.3962
 20
345.3671
 10
212.7457
 20
346.0896
 10
213.0265
 20
346.8992
 10
213.2446
 20
347.785
 10
213.4058
 20
348.7366
 10
213.5161
 20
349.7432
 10
213.5814
 20
350.7942
 10
213.6076
 20
351.8791
 10
213.6005
 20
352.987
 10
213.566
 20
354.1075
 10
213.5102
 20
355.2299
 10
213.4388
 20
356.3435
 10
213.3578
 20
357.4377
 10
213.273
 20
358.5019
 10
213.1905
 20
359.5254
 10
213.116
 20
360.4976
 10
213.0554
 20
361.4078
 10
213.0148
 20
362.2455
 10
213.0
 20
363.0
 10
220.0
 20
363.0
 10
213.0
 20
368.0
 10
213.0
 20
385.0
 10
206.0
 20
385.0
  0
LWPOLYLINE
  5
5A
330
17
100
AcDbEntity
  8
0
100
AcDbPolyline
 90
107
 70
0
 10
740.0
 20
377.0
 10
736.0
 20
371.0
 10
736.0
 20
370.0
 10
736.9109
 20
370.4364
 10
737.8257
 20
370.8492
 10
738.7442
 20
371.2388
 10
739.6666
 20
371.6059
 10
740.5926
 20
371.9512
 10
741.5223
 20
372.2753
 10
742.4555
 20
372.5788
 10
743.3922
 20
372.8622
 10
744.3323
 20
373.1264
 10
745.2758
 20
373.3718
 10
746.2226
 20
373.5991
 10
747.1726
 20
373.8089
 10
748.1259
 20
374.0018
 10
749.0822
 20
374.1786
 10
750.0416
 20
374.3397
 10
751.004
 20
374.4859
 10
751.9693
 20
374.6177
 10
752.9374
 20
374.7358
 10
753.9084
 20
374.8408
 10
754.8821
 20
374.9333
 10
755.8585
 20
375.014
 10
756.8374
 20
375.0835
 10
757.819
 20
375.1423
 10
758.803
 20
375.1912
 10
759.7894
 20
375.2308
 10
760.7782
 20
375.2616
 10
761.7693
 20
375.2843
 10
762.7626
 20
375.2996
 10
763.7581
 20
375.308
 10
764.7556
 20
375.3102
 10
765.7553
 20
375.3068
 10
766.7569
 20
375.2985
 10
767.7604
 20
375.2858
 10
768.7658
 20
375.2694
 10
769.7729
 20
375.2499
 10
770.7818
 20
375.2279
 10
771.7923
 20
375.2041
 10
772.8045
 20
375.1791
 10
773.8182
 20
375.1535
 10
774.8333
 20
375.128
 10
775.8499
 20
375.1031
 10
776.8678
 20
375.0795
 10
777.887
 20
375.0578
 10
778.9074
 20
375.0386
 10
779.9289
 20
375.0226
 10
780.9516
 20
375.0105
 10
781.9753
 20
375.0027
 10
783.0
 20
375.0
 10
783.0
 20
363.0
 10
776.0
 20
363.0
 10
780.0
 20
357.0
 10
778.0
 20
362.0
 10
782.0
 20
362.0
 10
781.6535
 20
360.8097
 10
781.5052
 20
359.9005
 10
781.6105
 20
359.2187
 10
782.0245
 20
358.7105
 10
782.8026
 20
358.3221
 10
784.0
 20
358.0
 10
784.0
 20
359.0
 10
782.0
 20
361.0
 10
782.7588
 20
361.5752
 10
783.3923
 20
362.2259
 10
783.9108
 20
362.9447
 10
784.3251
 20
363.7237
 10
784.6456
 20
364.5554
 10
784.8829
 20
365.4322
 10
785.0476
 20
366.3464
 10
785.1501
 20
367.2905
 10
785.2011
 20
368.2566
 10
785.211
 20
369.2374
 10
785.1905
 20
370.225
 10
785.15
 20
371.2119
 10
785.1002
 20
372.1905
 10
785.0515
 20
373.1531
 10
785.0146
 20
374.0922
 10
785.0
 20
375.0
 10
790.0
 20
375.0
 10
790.0
 20
369.0
 10
797.0
 20
374.0
 10
796.0
 20
374.0
 10
792.0
 20
370.0
 10
791.9228
 20
371.1211
 10
791.7714
 20
372.1188
 10
791.5489
 20
373.0001
 10
791.2584
 20
373.7721
 10
790.9031
 20
374.4417
 10
790.4863
 20
375.0161
 10
790.011
 20
375.5023
 10
789.4805
 20
375.9073
 10
788.8979
 20
376.2383
 10
788.2663
 20
376.5022
 10
787.5891
 20
376.7062
 10
786.8693
 20
376.8573
 10
786.1102
 20
376.9625
 10
785.3148
 20
377.0289
 10
784.4864
 20
377.0635
 10
783.6281
 20
377.0735
 10
782.7432
 20
377.0658
 10
781.8347
 20
377.0476
 10
780.9059
 20
377.0258
 10
779.9599
 20
377.0076
 10
779.0
 20
377.0
 10
740.0
 20
377.0
  0
LWPOLYLINE
  5
5B
330
17
100
AcDbEntity
  8
0
100
AcDbPolyline
 90
166
 70
0
 10
250.0
 20
365.0
 10
250.0027
 20
363.9688
 10
250.0054
 20
362.9611
 10
249.9995
 20
361.9805
 10
249.9763
 20
361.0306
 10
249.9271
 20
360.1151
 10
249.8434
 20
359.2376
 10
249.7165
 20
358.4018
 10
249.5377
 20
357.6112
 10
249.2985
 20
356.8697
 10
248.9902
 20
356.1807
 10
248.6041
 20
355.548
 10
248.1317
 20
354.9752
 10
247.5643
 20
354.4659
 10
246.8932
 20
354.0238
 10
246.1099
 20
353.6525
 10
245.2057
 20
353.3557
 10
244.1719
 20
353.1369
 10
243.0
 20
353.0
 10
243.4274
 20
351.8494
 10
243.9222
 20
350.8976
 10
244.493
 20
350.1232
 10
245.1485
 20
349.5047
 10
245.8973
 20
349.0206
 10
246.7482
 20
348.6495
 10
247.7098
 20
348.37
 10
248.7908
 20
348.1606
 10
250.0
 20
348.0
 10
250.0654
 20
347.0055
 10
250.1218
 20
346.0103
 10
250.1695
 20
345.0145
 10
250.209
 20
344.018
 10
250.2409
 20
343.021
 10
250.2655
 20
342.0233
 10
250.2835
 20
341.0251
 10
250.2953
 20
340.0264
 10
250.3013
 20
339.0273
 10
250.3021
 20
338.0277
 10
250.2981
 20
337.0278
 10
250.2898
 20
336.0274
 10
250.2778
 20
335.0268
 10
250.2625
 20
334.0258
 10
250.2444
 20
333.0246
 10
250.2239
 20
332.0232
 10
250.2017
 20
331.0216
 10
250.178
 20
330.0199
 10
250.1535
 20
329.018
 10
250.1287
 20
328.0161
 10
250.104
 20
327.0141
 10
250.0798
 20
326.0121
 10
250.0568
 20
325.0101
 10
250.0353
 20
324.0082
 10
250.0159
 20
323.0063
 10
249.9991
 20
322.0047
 10
249.9853
 20
321.0031
 10
249.975
 20
320.0018
 10
249.9687
 20
319.0007
 10
249.9669
 20
317.9999
 10
249.9701
 20
316.9993
 10
249.9788
 20
315.9992
 10
249.9935
 20
314.9994
 10
250.0146
 20
314.0
 10
250.0537
 20
313.02
 10
250.1197
 20
312.0346
 10
250.2078
 20
311.0445
 10
250.3126
 20
310.0503
 10
250.4293
 20
309.0527
 10
250.5528
 20
308.0525
 10
250.678
 20
307.0502
 10
250.7998
 20
306.0467
 10
250.9132
 20
305.0425
 10
251.0131
 20
304.0384
 10
251.0945
 20
303.035
 10
251.1524
 20
302.0331
 10
251.1816
 20
301.0333
 10
251.1771
 20
300.0363
 10
251.1339
 20
299.0428
 10
251.0469
 20
298.0535
 10
250.9111
 20
297.069
 10
250.7214
 20
296.0902
 10
250.4175
 20
295.0352
 10
250.012
 20
294.1047
 10
249.5122
 20
293.2912
 10
248.9257
 20
292.5873
 10
248.2598
 20
291.9854
 10
247.522
 20
291.478
 10
246.7196
 20
291.0577
 10
245.8602
 20
290.717
 10
244.9511
 20
290.4483
 10
243.9997
 20
290.2443
 10
243.0135
 20
290.0973
 10
242.0
 20
290.0
 10
242.3656
 20
289.3674
 10
242.7801
 20
288.7716
 10
243.2415
 20
288.2115
 10
243.7481
 20
287.6861
 10
244.2982
 20
287.1945
 10
244.8899
 20
286.7356
 10
245.5214
 20
286.3086
 10
246.1909
 20
285.9123
 10
246.8967
 20
285.5458
 10
247.637
 20
285.2081
 10
248.41
 20
284.8983
 10
249.2139
 20
284.6153
 10
250.0469
 20
284.3581
 10
250.9072
 20
284.1259
 10
251.7931
 20
283.9175
 10
252.7027
 20
283.732
 10
253.6343
 20
283.5684
 10
254.586
 20
283.4257
 10
255.5562
 20
283.3029
 10
256.5429
 20
283.1992
 10
257.5445
 20
283.1133
 10
258.5591
 20
283.0444
 10
259.5849
 20
282.9916
 10
260.6202
 20
282.9537
 10
261.6631
 20
282.9298
 10
262.7119
 20
282.919
 10
263.7649
 20
282.9202
 10
264.8201
 20
282.9324
 10
265.8758
 20
282.9547
 10
266.9303
 20
282.9861
 10
267.9817
 20
283.0256
 10
269.0282
 20
283.0721
 10
270.0681
 20
283.1248
 10
271.0996
 20
283.1826
 10
272.1209
 20
283.2446
 10
273.1302
 20
283.3097
 10
274.1257
 20
283.377
 10
275.1057
 20
283.4455
 10
276.0683
 20
283.5141
 10
277.0117
 20
283.582
 10
277.9342
 20
283.6481
 10
278.834
 20
283.7114
 10
279.7093
 20
283.771
 10
280.5583
 20
283.8258
 10
281.3792
 20
283.8749
 10
282.1702
 20
283.9173
 10
282.9296
 20
283.952
 10
283.6556
 20
283.978
 10
284.3463
 20
283.9943
 10
285.0
 20
284.0
 10
285.8531
 20
284.0114
 10
286.7304
 20
284.0412
 10
287.6268
 20
284.0824
 10
288.5369
 20
284.1283
 10
289.4555
 20
284.1721
 10
290.3773
 20
284.2068
 10
291.2969
 20
284.2257
 10
292.2092
 20
284.2219
 10
293.1089
 20
284.1886
 10
293.9906
 20
284.119
 10
294.8492
 20
284.0062
 10
295.6793
 20
283.8433
 10
296.4757
 20
283.6237
 10
297.2331
 20
283.3403
 10
297.9462
 20
282.9865
 10
298.6098
 20
282.5553
 10
299.2186
 20
282.0399
 10
299.7672
 20
281.4335
 10
300.2505
 20
280.7293
 10
300.6632
 20
279.9204
 10
301.0
 20
279.0
 10
311.0
 20
279.0
 10
311.0
 20
365.0
 10
250.0
 20
365.0
  0
LWPOLYLINE
  5
5C
330
17
100
AcDbEntity
  8
0
100
AcDbPolyline
 90
5
 70
0
 10
314.0
 20
363.0
 10
314.0
 20
253.0
 10
320.0
 20
256.0
 10
320.0
 20
363.0
 10
314.0
 20
363.0
  0
LWPOLYLINE
  5
5D
330
17
100
AcDbEntity
  8
0
100
AcDbPolyline
 90
210
 70
0
 10
168.0
 20
300.0
 10
201.0
 20
300.0
 10
201.0
 20
301.0
 10
194.0
 20
301.0
 10
195.0
 20
305.0
 10
203.0
 20
299.0
 10
168.0
 20
299.0
 10
168.0007
 20
298.0028
 10
168.0027
 20
297.0055
 10
168.0061
 20
296.0081
 10
168.0109
 20
295.0105
 10
168.0168
 20
294.0127
 10
168.0241
 20
293.0148
 10
168.0325
 20
292.0168
 10
168.042
 20
291.0186
 10
168.0527
 20
290.0202
 10
168.0644
 20
289.0218
 10
168.0772
 20
288.0232
 10
168.091
 20
287.0244
 10
168.1057
 20
286.0256
 10
168.1214
 20
285.0266
 10
168.138
 20
284.0275
 10
168.1554
 20
283.0283
 10
168.1736
 20
282.029
 10
168.1926
 20
281.0296
 10
168.2124
 20
280.0301
 10
168.2328
 20
279.0305
 10
168.254
 20
278.0309
 10
168.2757
 20
277.0311
 10
168.2981
 20
276.0312
 10
168.321
 20
275.0313
 10
168.3444
 20
274.0313
 10
168.3683
 20
273.0312
 10
168.3926
 20
272.0311
 10
168.4173
 20
271.0309
 10
168.4424
 20
270.0306
 10
168.4678
 20
269.0303
 10
168.4936
 20
268.03
 10
168.5195
 20
267.0296
 10
168.5457
 20
266.0291
 10
168.5721
 20
265.0286
 10
168.5986
 20
264.0281
 10
168.6252
 20
263.0276
 10
168.6519
 20
262.027
 10
168.6786
 20
261.0264
 10
168.7054
 20
260.0258
 10
168.732
 20
259.0251
 10
168.7586
 20
258.0245
 10
168.7851
 20
257.0239
 10
168.8114
 20
256.0232
 10
168.8375
 20
255.0226
 10
168.8634
 20
254.0219
 10
168.889
 20
253.0213
 10
168.9143
 20
252.0207
 10
168.9392
 20
251.0201
 10
168.9638
 20
250.0196
 10
168.988
 20
249.019
 10
169.0116
 20
248.0185
 10
169.0349
 20
247.018
 10
169.0575
 20
246.0176
 10
169.0796
 20
245.0172
 10
169.1011
 20
244.0169
 10
169.122
 20
243.0166
 10
169.1422
 20
242.0163
 10
169.1616
 20
241.0162
 10
169.1803
 20
240.0161
 10
169.1982
 20
239.016
 10
169.2153
 20
238.016
 10
169.2315
 20
237.0161
 10
169.2468
 20
236.0163
 10
169.2612
 20
235.0166
 10
169.2746
 20
234.0169
 10
169.2869
 20
233.0174
 10
169.2982
 20
232.0179
 10
169.3085
 20
231.0185
 10
169.3175
 20
230.0193
 10
169.3255
 20
229.0201
 10
169.3322
 20
228.0211
 10
169.3376
 20
227.0222
 10
169.3418
 20
226.0234
 10
169.3447
 20
225.0247
 10
169.3462
 20
224.0261
 10
169.3464
 20
223.0277
 10
169.3451
 20
222.0294
 10
169.3423
 20
221.0313
 10
169.338
 20
220.0333
 10
169.3322
 20
219.0354
 10
169.3248
 20
218.0377
 10
169.3158
 20
217.0402
 10
169.3052
 20
216.0428
 10
169.2928
 20
215.0456
 10
169.2787
 20
214.0485
 10
169.2629
 20
213.0516
 10
169.2453
 20
212.0549
 10
169.2258
 20
211.0584
 10
169.2044
 20
210.0621
 10
169.1811
 20
209.0659
 10
169.1559
 20
208.07
 10
169.1287
 20
207.0742
 10
169.0994
 20
206.0786
 10
169.0681
 20
205.0833
 10
169.0347
 20
204.0881
 10
168.9991
 20
203.0932
 10
168.9614
 20
202.0985
 10
168.9214
 20
201.104
 10
168.8792
 20
200.1097
 10
168.8348
 20
199.1157
 10
168.7998
 20
198.519
 10
168.7479
 20
197.8607
 10
168.681
 20
197.1445
 10
168.6006
 20
196.3742
 10
168.5086
 20
195.5536
 10
168.4067
 20
194.6864
 10
168.2966
 20
193.7765
 10
168.1802
 20
192.8276
 10
168.0591
 20
191.8434
 10
167.9352
 20
190.8278
 10
167.8101
 20
189.7846
 10
167.6856
 20
188.7174
 10
167.5635
 20
187.6302
 10
167.4455
 20
186.5266
 10
167.3334
 20
185.4104
 10
167.2289
 20
184.2854
 10
167.1337
 20
183.1554
 10
167.0497
 20
182.0242
 10
166.9785
 20
180.8955
 10
166.922
 20
179.7732
 10
166.8818
 20
178.6609
 10
166.8598
 20
177.5625
 10
166.8576
 20
176.4817
 10
166.877
 20
175.4224
 10
166.9198
 20
174.3882
 10
166.9877
 20
173.383
 10
167.0825
 20
172.4106
 10
167.2059
 20
171.4747
 10
167.3597
 20
170.5791
 10
167.5456
 20
169.7275
 10
167.7654
 20
168.9238
 10
168.0208
 20
168.1717
 10
168.3136
 20
167.475
 10
168.6455
 20
166.8375
 10
169.0183
 20
166.263
 10
169.4337
 20
165.7552
 10
169.8935
 20
165.3179
 10
170.7058
 20
164.7736
 10
171.62
 20
164.3791
 10
172.6146
 20
164.1125
 10
173.6677
 20
163.952
 10
174.7576
 20
163.876
 10
175.8626
 20
163.8626
 10
176.9611
 20
163.8901
 10
178.0313
 20
163.9367
 10
179.0515
 20
163.9805
 10
180.0
 20
164.0
 10
206.0
 20
164.0
 10
206.0
 20
157.0
 10
230.0
 20
157.0
 10
230.0
 20
242.0
 10
238.0
 20
242.0
 10
237.506
 20
242.8349
 10
236.9312
 20
243.5718
 10
236.2911
 20
244.2278
 10
235.6014
 20
244.8203
 10
234.8777
 20
245.3666
 10
234.1357
 20
245.8839
 10
233.391
 20
246.3896
 10
232.6593
 20
246.9009
 10
231.9562
 20
247.4352
 10
231.2972
 20
248.0097
 10
230.6981
 20
248.6416
 10
230.1746
 20
249.3484
 10
229.7422
 20
250.1473
 10
229.5048
 20
250.7259
 10
229.2808
 20
251.3716
 10
229.0702
 20
252.0805
 10
228.8728
 20
252.849
 10
228.6885
 20
253.6732
 10
228.5174
 20
254.5497
 10
228.3594
 20
255.4745
 10
228.2144
 20
256.4441
 10
228.0823
 20
257.4547
 10
227.963
 20
258.5025
 10
227.8566
 20
259.584
 10
227.763
 20
260.6954
 10
227.6821
 20
261.833
 10
227.6137
 20
262.993
 10
227.558
 20
264.1719
 10
227.5147
 20
265.3658
 10
227.484
 20
266.571
 10
227.4655
 20
267.7839
 10
227.4595
 20
269.0008
 10
227.4656
 20
270.2179
 10
227.484
 20
271.4316
 10
227.5145
 20
272.638
 10
227.5571
 20
273.8336
 10
227.6117
 20
275.0146
 10
227.6783
 20
276.1774
 10
227.7568
 20
277.3181
 10
227.847
 20
278.4331
 10
227.9491
 20
279.5187
 10
228.0629
 20
280.5713
 10
228.1883
 20
281.5869
 10
228.3253
 20
282.5621
 10
228.4738
 20
283.493
 10
228.6337
 20
284.376
 10
228.8051
 20
285.2073
 10
228.9878
 20
285.9833
 10
229.1818
 20
286.7002
 10
229.387
 20
287.3544
 10
229.6034
 20
287.9421
  0
LWPOLYLINE
  5
5E
330
17
100
AcDbEntity
  8
0
100
AcDbPolyline
 90
95
 70
0
 10
229.6033
 20
287.9421
 10
230.0154
 20
288.7935
 10
230.514
 20
289.5438
 10
231.0846
 20
290.2102
 10
231.7128
 20
290.8103
 10
232.3843
 20
291.3615
 10
233.0847
 20
291.8812
 10
233.7995
 20
292.3869
 10
234.5144
 20
292.896
 10
235.215
 20
293.4261
 10
235.8869
 20
293.9944
 10
236.5157
 20
294.6185
 10
237.0871
 20
295.3159
 10
237.5866
 20
296.1038
 10
238.0
 20
297.0
 10
212.0
 20
299.0
 10
211.0
 20
309.0
 10
209.0
 20
307.0
 10
208.0
 20
307.0
 10
200.0
 20
308.0
 10
201.0
 20
341.0
 10
200.3181
 20
341.0088
 10
199.5777
 20
341.0342
 10
198.7827
 20
341.0743
 10
197.9372
 20
341.1271
 10
197.0453
 20
341.1909
 10
196.1109
 20
341.2637
 10
195.1381
 20
341.3437
 10
194.131
 20
341.429
 10
193.0936
 20
341.5178
 10
192.0298
 20
341.6081
 10
190.9439
 20
341.6981
 10
189.8397
 20
341.7859
 10
188.7214
 20
341.8697
 10
187.593
 20
341.9477
 10
186.4585
 20
342.0178
 10
185.322
 20
342.0783
 10
184.1874
 20
342.1273
 10
183.059
 20
342.1629
 10
181.9405
 20
342.1833
 10
180.8362
 20
342.1865
 10
179.7501
 20
342.1708
 10
178.6862
 20
342.1342
 10
177.6485
 20
342.0749
 10
176.6411
 20
341.991
 10
175.668
 20
341.8806
 10
174.7332
 20
341.7419
 10
173.8409
 20
341.573
 10
172.9949
 20
341.3721
 10
172.1995
 20
341.1372
 10
171.4586
 20
340.8665
 10
170.7762
 20
340.5581
 10
170.1564
 20
340.2102
 10
169.6033
 20
339.8209
 10
169.0114
 20
339.2209
 10
168.5583
 20
338.492
 10
168.2274
 20
337.6565
 10
168.0021
 20
336.7366
 10
167.8656
 20
335.7544
 10
167.8013
 20
334.7321
 10
167.7926
 20
333.6919
 10
167.8229
 20
332.6561
 10
167.8754
 20
331.6468
 10
167.9335
 20
330.6862
 10
167.9806
 20
329.7965
 10
168.0
 20
329.0
 10
168.0021
 20
327.9829
 10
168.0083
 20
326.968
 10
168.0181
 20
325.9549
 10
168.031
 20
324.9437
 10
168.0465
 20
323.9343
 10
168.0642
 20
322.9266
 10
168.0836
 20
321.9204
 10
168.1043
 20
320.9157
 10
168.1257
 20
319.9124
 10
168.1474
 20
318.9105
 10
168.169
 20
317.9097
 10
168.19
 20
316.9101
 10
168.2098
 20
315.9115
 10
168.2281
 20
314.9138
 10
168.2444
 20
313.917
 10
168.2583
 20
312.921
 10
168.2691
 20
311.9256
 10
168.2766
 20
310.9308
 10
168.2801
 20
309.9365
 10
168.2794
 20
308.9425
 10
168.2738
 20
307.9489
 10
168.2629
 20
306.9555
 10
168.2463
 20
305.9622
 10
168.2235
 20
304.969
 10
168.194
 20
303.9757
 10
168.1574
 20
302.9822
 10
168.1131
 20
301.9885
 10
168.0608
 20
300.9944
 10
168.0
 20
300.0
  0
LWPOLYLINE
  5
5F
330
17
100
AcDbEntity
  8
0
100
AcDbPolyline
 90
5
 70
0
 10
599.0
 20
340.0
 10
599.0
 20
339.0
 10
654.0
 20
339.0
 10
636.0
 20
340.0
 10
599.0
 20
340.0
  0
LWPOLYLINE
  5
60
330
17
100
AcDbEntity
  8
0
100
AcDbPolyline
 90
54
 70
0
 10
214.0
 20
338.0
 10
213.989
 20
337.2472
 10
213.9589
 20
336.4414
 10
213.9135
 20
335.588
 10
213.8567
 20
334.6927
 10
213.7925
 20
333.7609
 10
213.7248
 20
332.7982
 10
213.6575
 20
331.8102
 10
213.5946
 20
330.8023
 10
213.54
 20
329.7801
 10
213.4976
 20
328.7491
 10
213.4714
 20
327.715
 10
213.4652
 20
326.6831
 10
213.483
 20
325.6591
 10
213.5288
 20
324.6486
 10
213.6064
 20
323.6569
 10
213.7199
 20
322.6897
 10
213.873
 20
321.7525
 10
214.0699
 20
320.8509
 10
214.3143
 20
319.9903
 10
214.6102
 20
319.1764
 10
214.9615
 20
318.4146
 10
215.3722
 20
317.7106
 10
215.8463
 20
317.0697
 10
216.3875
 20
316.4977
 10
217.0
 20
316.0
 10
217.0
 20
315.0
 10
216.2585
 20
314.7598
 10
215.6274
 20
314.3902
 10
215.0987
 20
313.903
 10
214.6642
 20
313.3105
 10
214.3161
 20
312.6246
 10
214.0461
 20
311.8576
 10
213.8464
 20
311.0214
 10
213.7089
 20
310.1283
 10
213.6254
 20
309.1902
 10
213.5881
 20
308.2193
 10
213.5888
 20
307.2277
 10
213.6195
 20
306.2274
 10
213.6722
 20
305.2306
 10
213.7389
 20
304.2494
 10
213.8114
 20
303.2958
 10
213.8819
 20
302.382
 10
213.9421
 20
301.52
 10
213.9841
 20
300.722
 10
214.0
 20
300.0
 10
230.0
 20
300.0
 10
230.988434
 20
312.581787
 10
238.0
 20
320.0
 10
227.0
 20
320.0
 10
229.0
 20
323.0
 10
227.0
 20
323.0
 10
229.0
 20
338.0
 10
214.0
 20
338.0
  0
LWPOLYLINE
  5
61
330
17
100
AcDbEntity
  8
0
100
AcDbPolyline
 90
5
 70
0
 10
600.0
 20
338.0
 10
600.0
 20
337.0
 10
654.0
 20
337.0
 10
636.0
 20
338.0
 10
600.0
 20
338.0
  0
LWPOLYLINE
  5
62
330
17
100
AcDbEntity
  8
0
100
AcDbPolyline
 90
9
 70
0
 10
248.0
 20
282.0
 10
248.0
 20
281.0
 10
275.0
 20
281.0
 10
275.0
 20
250.0
 10
276.0
 20
250.0
 10
276.0
 20
281.0
 10
300.0
 20
281.0
 10
283.0
 20
282.0
 10
248.0
 20
282.0
  0
LWPOLYLINE
  5
63
330
17
100
AcDbEntity
  8
0
100
AcDbPolyline
 90
6
 70
0
 10
250.0
 20
280.0
 10
250.0
 20
258.0
 10
259.375
 20
251.602631
 10
274.0
 20
251.0
 10
274.0
 20
280.0
 10
250.0
 20
280.0
  0
LWPOLYLINE
  5
64
330
17
100
AcDbEntity
  8
0
100
AcDbPolyline
 90
72
 70
0
 10
301.0
 20
276.0
 10
301.0
 20
249.0
 10
290.0
 20
249.0
 10
287.0
 20
245.0
 10
289.0
 20
248.0
 10
286.0
 20
251.0
 10
284.8104
 20
250.9445
 10
283.6877
 20
250.8681
 10
282.6275
 20
250.7675
 10
281.6255
 20
250.639
 10
280.6774
 20
250.4794
 10
279.779
 20
250.2851
 10
278.9258
 20
250.0528
 10
278.1136
 20
249.7789
 10
277.3382
 20
249.46
 10
276.5951
 20
249.0928
 10
275.8802
 20
248.6736
 10
275.189
 20
248.1992
 10
274.5173
 20
247.6661
 10
273.8608
 20
247.0707
 10
273.2152
 20
246.4097
 10
272.5762
 20
245.6797
 10
271.9395
 20
244.8771
 10
271.3007
 20
243.9986
 10
270.6556
 20
243.0407
 10
270.0
 20
242.0
 10
270.7275
 20
241.4381
 10
271.4752
 20
240.9125
 10
272.2421
 20
240.4219
 10
273.0276
 20
239.9653
 10
273.8308
 20
239.5415
 10
274.6511
 20
239.1496
 10
275.4876
 20
238.7883
 10
276.3397
 20
238.4566
 10
277.2065
 20
238.1535
 10
278.0874
 20
237.8777
 10
278.9815
 20
237.6283
 10
279.8881
 20
237.4041
 10
280.8065
 20
237.204
 10
281.7359
 20
237.0269
 10
282.6756
 20
236.8718
 10
283.6247
 20
236.7376
 10
284.5826
 20
236.6231
 10
285.5485
 20
236.5272
 10
286.5216
 20
236.4489
 10
287.5012
 20
236.3871
 10
288.4865
 20
236.3406
 10
289.4768
 20
236.3085
 10
290.4714
 20
236.2895
 10
291.4694
 20
236.2826
 10
292.4701
 20
236.2867
 10
293.4729
 20
236.3008
 10
294.4768
 20
236.3236
 10
295.4812
 20
236.3541
 10
296.4853
 20
236.3913
 10
297.4883
 20
236.434
 10
298.4896
 20
236.4812
 10
299.4883
 20
236.5317
 10
300.4837
 20
236.5844
 10
301.4751
 20
236.6383
 10
302.4616
 20
236.6922
 10
303.4426
 20
236.7451
 10
304.4173
 20
236.7959
 10
305.3849
 20
236.8435
 10
306.3447
 20
236.8867
 10
307.2959
 20
236.9246
 10
308.2378
 20
236.9559
 10
309.1696
 20
236.9796
 10
310.0906
 20
236.9947
 10
311.0
 20
237.0
 10
311.0
 20
277.0
 10
301.0
 20
276.0
  0
LWPOLYLINE
  5
65
330
17
100
AcDbEntity
  8
0
100
AcDbPolyline
 90
11
 70
0
 10
318.0
 20
255.0
 10
314.0
 20
252.0
 10
313.0
 20
126.0
 10
240.0
 20
126.0
 10
240.0
 20
119.0
 10
297.0
 20
119.0
 10
318.396606
 20
120.027779
 10
320.0
 20
129.0
 10
320.0
 20
154.0
 10
320.0
 20
255.0
 10
318.0
 20
255.0
  0
LWPOLYLINE
  5
66
330
17
100
AcDbEntity
  8
0
100
AcDbPolyline
 90
230
 70
0
 10
241.0
 20
242.0
 10
238.0
 20
239.0
 10
233.0
 20
241.0
 10
233.0
 20
236.0
 10
236.0
 20
237.0
 10
235.5115
 20
236.0692
 10
235.0627
 20
235.1402
 10
234.6518
 20
234.2124
 10
234.2772
 20
233.2855
 10
233.9373
 20
232.3589
 10
233.6305
 20
231.4323
 10
233.3551
 20
230.5051
 10
233.1097
 20
229.5769
 10
232.8925
 20
228.6474
 10
232.7019
 20
227.7159
 10
232.5364
 20
226.7821
 10
232.3943
 20
225.8456
 10
232.274
 20
224.9058
 10
232.1738
 20
223.9624
 10
232.0922
 20
223.0148
 10
232.0276
 20
222.0626
 10
231.9784
 20
221.1054
 10
231.9428
 20
220.1428
 10
231.9194
 20
219.1742
 10
231.9065
 20
218.1992
 10
231.9025
 20
217.2175
 10
231.9057
 20
216.2284
 10
231.9146
 20
215.2316
 10
231.9276
 20
214.2266
 10
231.943
 20
213.213
 10
231.9592
 20
212.1904
 10
231.9746
 20
211.1582
 10
231.9876
 20
210.116
 10
231.9966
 20
209.0634
 10
232.0
 20
208.0
 10
232.0007
 20
207.0015
 10
232.003
 20
206.0028
 10
232.0066
 20
205.0038
 10
232.0115
 20
204.0045
 10
232.0176
 20
203.0049
 10
232.0248
 20
202.005
 10
232.0331
 20
201.0049
 10
232.0422
 20
200.0046
 10
232.0522
 20
199.004
 10
232.063
 20
198.0033
 10
232.0743
 20
197.0024
 10
232.0863
 20
196.0013
 10
232.0986
 20
195.0001
 10
232.1114
 20
193.9987
 10
232.1244
 20
192.9972
 10
232.1376
 20
191.9957
 10
232.1509
 20
190.994
 10
232.1643
 20
189.9923
 10
232.1775
 20
188.9905
 10
232.1905
 20
187.9886
 10
232.2033
 20
186.9868
 10
232.2156
 20
185.9849
 10
232.2276
 20
184.9831
 10
232.2389
 20
183.9813
 10
232.2497
 20
182.9795
 10
232.2597
 20
181.9778
 10
232.2688
 20
180.9762
 10
232.2771
 20
179.9746
 10
232.2843
 20
178.9732
 10
232.2904
 20
177.9718
 10
232.2953
 20
176.9706
 10
232.2989
 20
175.9696
 10
232.3012
 20
174.9687
 10
232.302
 20
173.968
 10
232.3012
 20
172.9676
 10
232.2987
 20
171.9673
 10
232.2945
 20
170.9672
 10
232.2884
 20
169.9675
 10
232.2804
 20
168.9679
 10
232.2704
 20
167.9687
 10
232.2583
 20
166.9697
 10
232.2439
 20
165.9711
 10
232.2273
 20
164.9728
 10
232.2082
 20
163.9748
 10
232.1867
 20
162.9772
 10
232.1625
 20
161.98
 10
232.1357
 20
160.9831
 10
232.1062
 20
159.9867
 10
232.0737
 20
158.9907
 10
232.0384
 20
157.9951
 10
232.0
 20
157.0
 10
248.0
 20
157.0
 10
247.0
 20
166.0
 10
251.0
 20
166.0
 10
250.0
 20
157.0
 10
274.0
 20
157.0
 10
274.0
 20
164.0
 10
274.6632
 20
163.992
 10
275.3815
 20
163.9691
 10
276.1517
 20
163.9327
 10
276.9703
 20
163.8844
 10
277.8339
 20
163.8255
 10
278.7393
 20
163.7577
 10
279.6829
 20
163.6824
 10
280.6616
 20
163.6011
 10
281.6717
 20
163.5153
 10
282.7102
 20
163.4264
 10
283.7734
 20
163.3359
 10
284.8582
 20
163.2455
 10
285.961
 20
163.1564
 10
287.0786
 20
163.0703
 10
288.2076
 20
162.9885
 10
289.3446
 20
162.9127
 10
290.4862
 20
162.8442
 10
291.6291
 20
162.7846
 10
292.7699
 20
162.7354
 10
293.9053
 20
162.698
 10
295.0318
 20
162.674
 10
296.1461
 20
162.6648
 10
297.2448
 20
162.6719
 10
298.3246
 20
162.6968
 10
299.3821
 20
162.741
 10
300.4139
 20
162.8059
 10
301.4167
 20
162.8932
 10
302.3871
 20
163.0042
 10
303.3217
 20
163.1404
 10
304.2171
 20
163.3034
 10
305.0701
 20
163.4946
 10
305.8771
 20
163.7155
 10
306.635
 20
163.9676
 10
307.3401
 20
164.2524
 10
307.9894
 20
164.5714
 10
308.5792
 20
164.9261
 10
309.1064
 20
165.3179
 10
309.6987
 20
165.9177
 10
310.1783
 20
166.6241
 10
310.5558
 20
167.4227
 10
310.8418
 20
168.2992
 10
311.0469
 20
169.2394
 10
311.182
 20
170.229
 10
311.2575
 20
171.2536
 10
311.2842
 20
172.2991
 10
311.2728
 20
173.3511
 10
311.2338
 20
174.3953
 10
311.1781
 20
175.4174
 10
311.1161
 20
176.4033
 10
311.0587
 20
177.3385
 10
311.0164
 20
178.2088
 10
311.0
 20
179.0
 10
311.0
 20
218.0
 10
311.0171
 20
218.7357
 10
311.0622
 20
219.5732
 10
311.1259
 20
220.4962
 10
311.1989
 20
221.4882
 10
311.2719
 20
222.533
 10
311.3355
 20
223.614
 10
311.3802
 20
224.7151
 10
311.3969
 20
225.8197
 10
311.3762
 20
226.9115
 10
311.3086
 20
227.9742
 10
311.1849
 20
228.9913
 10
310.9956
 20
229.9466
 10
310.7315
 20
230.8235
 10
310.3832
 20
231.6058
 10
309.9413
 20
232.277
 10
309.3966
 20
232.8209
 10
308.7429
 20
233.2601
 10
307.998
 20
233.6241
 10
307.1718
 20
233.9186
 10
306.2742
 20
234.1496
 10
305.3151
 20
234.3229
 10
304.3045
 20
234.4445
 10
303.2523
 20
234.5203
 10
302.1685
 20
234.5561
 10
301.063
 20
234.5579
 10
299.9456
 20
234.5315
 10
298.8265
 20
234.4828
 10
297.7155
 20
234.4178
 10
296.6225
 20
234.3423
 10
295.5575
 20
234.2623
 10
294.5304
 20
234.1836
 10
293.5511
 20
234.1121
 10
292.6297
 20
234.0537
 10
291.776
 20
234.0144
 10
291.0
 20
234.0
 10
289.9877
 20
233.9987
 10
288.9758
 20
233.9951
 10
287.9642
 20
233.9892
 10
286.9528
 20
233.9812
 10
285.9418
 20
233.9714
 10
284.9312
 20
233.9597
 10
283.9208
 20
233.9464
 10
282.9109
 20
233.9317
 10
281.9013
 20
233.9157
 10
280.8921
 20
233.8986
 10
279.8833
 20
233.8804
 10
278.875
 20
233.8614
 10
277.8671
 20
233.8418
 10
276.8596
 20
233.8216
 10
275.8526
 20
233.8011
 10
274.8461
 20
233.7803
 10
273.8401
 20
233.7595
 10
272.8347
 20
233.7388
 10
271.8297
 20
233.7184
 10
270.8253
 20
233.6984
 10
269.8214
 20
233.6789
 10
268.8181
 20
233.6602
 10
267.8154
 20
233.6424
 10
266.8133
 20
233.6256
 10
265.8119
 20
233.61
 10
264.811
 20
233.5958
 10
263.8108
 20
233.583
 10
262.8113
 20
233.5719
 10
261.8124
 20
233.5627
 10
260.8142
 20
233.5554
 10
259.8168
 20
233.5503
 10
258.82
 20
233.5474
 10
257.824
 20
233.547
 10
256.8288
 20
233.5492
 10
255.8343
 20
233.5541
 10
254.8406
 20
233.562
 10
253.8476
 20
233.5729
 10
252.8555
 20
233.587
 10
251.8642
 20
233.6045
 10
250.8738
 20
233.6256
 10
249.8842
 20
233.6503
 10
248.8955
 20
233.6789
 10
247.9076
 20
233.7115
 10
246.9207
 20
233.7483
 10
245.9347
 20
233.7894
 10
244.9495
 20
233.8349
 10
243.9654
 20
233.8851
 10
242.9822
 20
233.9401
 10
242.0
 20
234.0
 10
241.0
 20
242.0
  0
LWPOLYLINE
  5
67
330
17
100
AcDbEntity
  8
0
100
AcDbPolyline
 90
5
 70
0
 10
251.0
 20
236.0
 10
251.0
 20
235.0
 10
309.0
 20
235.0
 10
290.0
 20
236.0
 10
251.0
 20
236.0
  0
LWPOLYLINE
  5
68
330
17
100
AcDbEntity
  8
0
100
AcDbPolyline
 90
72
 70
0
 10
239.0
 20
127.0
 10
239.0
 20
155.0
 10
204.0
 20
155.0
 10
204.0
 20
161.0
 10
179.0
 20
161.0
 10
178.1437
 20
161.0197
 10
177.2066
 20
161.0657
 10
176.2119
 20
161.118
 10
175.1832
 20
161.1563
 10
174.1437
 20
161.1608
 10
173.1168
 20
161.1113
 10
172.1259
 20
160.9877
 10
171.1945
 20
160.77
 10
170.3458
 20
160.4382
 10
169.6033
 20
159.9722
 10
169.1607
 20
159.5468
 10
168.7715
 20
159.0203
 10
168.4328
 20
158.4002
 10
168.1416
 20
157.6941
 10
167.8952
 20
156.9094
 10
167.6906
 20
156.0537
 10
167.525
 20
155.1346
 10
167.3956
 20
154.1595
 10
167.2995
 20
153.1359
 10
167.2338
 20
152.0714
 10
167.1957
 20
150.9734
 10
167.1822
 20
149.8496
 10
167.1907
 20
148.7075
 10
167.2181
 20
147.5544
 10
167.2616
 20
146.3981
 10
167.3184
 20
145.2459
 10
167.3856
 20
144.1055
 10
167.4603
 20
142.9843
 10
167.5398
 20
141.8898
 10
167.621
 20
140.8297
 10
167.7012
 20
139.8113
 10
167.7776
 20
138.8422
 10
167.8471
 20
137.93
 10
167.9071
 20
137.0822
 10
167.9546
 20
136.3062
 10
167.9867
 20
135.6096
 10
168.0007
 20
135.0
 10
167.9961
 20
134.1272
 10
167.9899
 20
133.2044
 10
168.0109
 20
132.2584
 10
168.0878
 20
131.3162
 10
168.2494
 20
130.4046
 10
168.5244
 20
129.5506
 10
168.9417
 20
128.7811
 10
169.5299
 20
128.123
 10
170.3179
 20
127.6033
 10
171.0858
 20
127.2723
 10
171.9146
 20
127.0001
 10
172.7979
 20
126.7823
 10
173.7294
 20
126.6141
 10
174.7026
 20
126.4913
 10
175.7114
 20
126.4091
 10
176.7492
 20
126.3631
 10
177.8098
 20
126.3487
 10
178.8868
 20
126.3615
 10
179.9738
 20
126.397
 10
181.0646
 20
126.4505
 10
182.1527
 20
126.5175
 10
183.2318
 20
126.5937
 10
184.2955
 20
126.6743
 10
185.3376
 20
126.755
 10
186.3516
 20
126.8311
 10
187.3311
 20
126.8982
 10
188.27
 20
126.9517
 10
189.1617
 20
126.9871
 10
190.0
 20
127.0
 10
239.0
 20
127.0
  0
LWPOLYLINE
  5
69
330
17
100
AcDbEntity
  8
0
100
AcDbPolyline
 90
51
 70
0
 10
276.0
 20
161.0
 10
276.0
 20
155.0
 10
240.0
 20
155.0
 10
241.027786
 20
128.603394
 10
259.0
 20
127.0
 10
311.0
 20
127.0
 10
310.9686
 20
127.7013
 10
310.9597
 20
128.4566
 10
310.9714
 20
129.2622
 10
311.0013
 20
130.1144
 10
311.0475
 20
131.0096
 10
311.1078
 20
131.9443
 10
311.18
 20
132.9147
 10
311.2622
 20
133.9172
 10
311.3522
 20
134.9483
 10
311.4479
 20
136.0043
 10
311.5472
 20
137.0816
 10
311.6479
 20
138.1765
 10
311.748
 20
139.2854
 10
311.8454
 20
140.4048
 10
311.9379
 20
141.531
 10
312.0235
 20
142.6603
 10
312.1
 20
143.7891
 10
312.1653
 20
144.9139
 10
312.2174
 20
146.0309
 10
312.254
 20
147.1366
 10
312.2732
 20
148.2273
 10
312.2728
 20
149.2995
 10
312.2507
 20
150.3494
 10
312.2047
 20
151.3735
 10
312.1329
 20
152.3682
 10
312.033
 20
153.3298
 10
311.903
 20
154.2546
 10
311.7407
 20
155.1392
 10
311.5441
 20
155.9798
 10
311.3111
 20
156.7728
 10
311.0395
 20
157.5146
 10
310.7272
 20
158.2016
 10
310.3721
 20
158.8301
 10
309.9722
 20
159.3966
 10
309.3387
 20
160.0132
 10
308.5746
 20
160.4667
 10
307.7069
 20
160.7803
 10
306.7625
 20
160.9771
 10
305.7685
 20
161.0801
 10
304.7519
 20
161.1127
 10
303.7397
 20
161.0978
 10
302.759
 20
161.0586
 10
301.8367
 20
161.0183
 10
301.0
 20
161.0
 10
276.0
 20
161.0
  0
LWPOLYLINE
  5
6A
330
17
100
AcDbEntity
  8
0
100
AcDbPolyline
 90
159
 70
0
 10
169.0
 20
160.0
 10
181.944443
 20
144.0
 10
169.0
 20
128.0
 10
169.777
 20
128.5711
 10
170.5374
 20
129.1748
 10
171.283
 20
129.8075
 10
172.0157
 20
130.4656
 10
172.7374
 20
131.1453
 10
173.45
 20
131.8432
 10
174.1555
 20
132.5555
 10
174.8555
 20
133.2788
 10
175.5522
 20
134.0093
 10
176.2472
 20
134.7434
 10
176.9426
 20
135.4775
 10
177.6402
 20
136.2081
 10
178.342
 20
136.9314
 10
179.0497
 20
137.6439
 10
179.7652
 20
138.342
 10
180.4906
 20
139.022
 10
181.2276
 20
139.6803
 10
181.9781
 20
140.3133
 10
182.7441
 20
140.9174
 10
183.5274
 20
141.4889
 10
184.3299
 20
142.0243
 10
185.1534
 20
142.5199
 10
186.0
 20
142.9722
 10
186.5535
 20
143.2238
 10
187.1769
 20
143.4614
 10
187.8663
 20
143.6851
 10
188.6176
 20
143.8948
 10
189.4268
 20
144.0905
 10
190.2899
 20
144.2723
 10
191.2029
 20
144.44
 10
192.1619
 20
144.5938
 10
193.1629
 20
144.7336
 10
194.2017
 20
144.8594
 10
195.2746
 20
144.9712
 10
196.3774
 20
145.0691
 10
197.5061
 20
145.153
 10
198.6569
 20
145.2229
 10
199.8256
 20
145.2788
 10
201.0082
 20
145.3207
 10
202.2009
 20
145.3487
 10
203.3996
 20
145.3627
 10
204.6002
 20
145.3627
 10
205.7989
 20
145.3487
 10
206.9916
 20
145.3207
 10
208.1743
 20
145.2788
 10
209.343
 20
145.2229
 10
210.4937
 20
145.153
 10
211.6225
 20
145.0691
 10
212.7253
 20
144.9712
 10
213.7981
 20
144.8594
 10
214.837
 20
144.7336
 10
215.8379
 20
144.5938
 10
216.7969
 20
144.44
 10
217.71
 20
144.2723
 10
218.5731
 20
144.0905
 10
219.3823
 20
143.8948
 10
220.1336
 20
143.6851
 10
220.8229
 20
143.4614
 10
221.4464
 20
143.2238
 10
222.0
 20
142.9722
 10
222.8696
 20
142.5055
 10
223.7141
 20
141.9913
 10
224.5357
 20
141.4341
 10
225.3366
 20
140.8382
 10
226.1191
 20
140.2079
 10
226.8856
 20
139.5476
 10
227.6382
 20
138.8616
 10
228.3793
 20
138.1543
 10
229.1111
 20
137.4301
 10
229.836
 20
136.6932
 10
230.5561
 20
135.9481
 10
231.2738
 20
135.1991
 10
231.9914
 20
134.4505
 10
232.7111
 20
133.7067
 10
233.4352
 20
132.972
 10
234.166
 20
132.2509
 10
234.9057
 20
131.5476
 10
235.6567
 20
130.8665
 10
236.4212
 20
130.2119
 10
237.2016
 20
129.5883
 10
238.0
 20
129.0
 10
223.0
 20
144.0
 10
223.0
 20
145.0
 10
232.0
 20
154.0
 10
231.2207
 20
153.4229
 10
230.458
 20
152.8087
 10
229.7077
 20
152.1658
 10
228.9659
 20
151.5026
 10
228.2284
 20
150.8278
 10
227.4912
 20
150.1497
 10
226.7503
 20
149.4769
 10
226.0016
 20
148.818
 10
225.2411
 20
148.1813
 10
224.4647
 20
147.5754
 10
223.6684
 20
147.0089
 10
222.8482
 20
146.4901
 10
222.0
 20
146.0277
 10
221.4507
 20
145.7778
 10
220.8326
 20
145.5415
 10
220.1495
 20
145.3186
 10
219.4052
 20
145.1092
 10
218.6035
 20
144.9134
 10
217.7484
 20
144.731
 10
216.8435
 20
144.5622
 10
215.8927
 20
144.4068
 10
214.8999
 20
144.265
 10
213.8688
 20
144.1366
 10
212.8034
 20
144.0218
 10
211.7073
 20
143.9204
 10
210.5845
 20
143.8326
 10
209.4387
 20
143.7583
 10
208.2739
 20
143.6974
 10
207.0937
 20
143.6501
 10
205.902
 20
143.6163
 10
204.7028
 20
143.596
 10
203.4997
 20
143.5892
 10
202.2965
 20
143.5959
 10
201.0973
 20
143.6161
 10
199.9056
 20
143.6499
 10
198.7255
 20
143.6971
 10
197.5606
 20
143.7579
 10
196.4149
 20
143.8322
 10
195.2921
 20
143.9199
 10
194.196
 20
144.0212
 10
193.1306
 20
144.1361
 10
192.0996
 20
144.2644
 10
191.1068
 20
144.4062
 10
190.1561
 20
144.5616
 10
189.2512
 20
144.7305
 10
188.3961
 20
144.9129
 10
187.5945
 20
145.1088
 10
186.8503
 20
145.3182
 10
186.1672
 20
145.5412
 10
185.5492
 20
145.7777
 10
185.0
 20
146.0277
 10
184.1302
 20
146.4943
 10
183.2857
 20
147.0085
 10
182.4642
 20
147.5657
 10
181.6633
 20
148.1616
 10
180.8807
 20
148.7919
 10
180.1143
 20
149.4522
 10
179.3616
 20
150.1382
 10
178.6205
 20
150.8455
 10
177.8887
 20
151.5697
 10
177.1639
 20
152.3066
 10
176.4437
 20
153.0517
 10
175.726
 20
153.8008
 10
175.0084
 20
154.5494
 10
174.2887
 20
155.2932
 10
173.5646
 20
156.0278
 10
172.8339
 20
156.749
 10
172.0941
 20
157.4523
 10
171.3431
 20
158.1334
 10
170.5786
 20
158.7879
 10
169.7983
 20
159.4116
 10
169.0
 20
160.0
  0
LWPOLYLINE
  5
6B
330
17
100
AcDbEntity
  8
0
100
AcDbPolyline
 90
158
 70
0
 10
309.0
 20
160.0
 10
308.323
 20
159.31
 10
307.6417
 20
158.5929
 10
306.9555
 20
157.853
 10
306.2637
 20
157.0948
 10
305.566
 20
156.3225
 10
304.8616
 20
155.5406
 10
304.1502
 20
154.7534
 10
303.431
 20
153.9653
 10
302.7036
 20
153.1806
 10
301.9673
 20
152.4038
 10
301.2218
 20
151.6392
 10
300.4663
 20
150.8912
 10
299.7004
 20
150.164
 10
298.9235
 20
149.4622
 10
298.135
 20
148.7901
 10
297.3344
 20
148.152
 10
296.5212
 20
147.5524
 10
295.6947
 20
146.9955
 10
294.8545
 20
146.4858
 10
294.0
 20
146.0277
 10
293.4463
 20
145.7759
 10
292.8227
 20
145.5382
 10
292.1332
 20
145.3145
 10
291.3819
 20
145.1048
 10
290.5727
 20
144.909
 10
289.7095
 20
144.7273
 10
288.7965
 20
144.5595
 10
287.8375
 20
144.4057
 10
286.8366
 20
144.2659
 10
285.7977
 20
144.1401
 10
284.7249
 20
144.0283
 10
283.6222
 20
143.9305
 10
282.4935
 20
143.8466
 10
281.3429
 20
143.7768
 10
280.1742
 20
143.7209
 10
278.9916
 20
143.679
 10
277.7991
 20
143.6511
 10
276.6005
 20
143.6371
 10
275.3999
 20
143.6372
 10
274.2014
 20
143.6512
 10
273.0088
 20
143.6792
 10
271.8262
 20
143.7212
 10
270.6575
 20
143.7771
 10
269.5069
 20
143.8471
 10
268.3782
 20
143.931
 10
267.2754
 20
144.0289
 10
266.2026
 20
144.1407
 10
265.1637
 20
144.2665
 10
264.1628
 20
144.4063
 10
263.2038
 20
144.5601
 10
262.2907
 20
144.7278
 10
261.4275
 20
144.9096
 10
260.6182
 20
145.1052
 10
259.8668
 20
145.3149
 10
259.1773
 20
145.5385
 10
258.5537
 20
145.7761
 10
258.0
 20
146.0277
 10
257.1517
 20
146.4901
 10
256.3315
 20
147.0089
 10
255.5352
 20
147.5754
 10
254.7588
 20
148.1813
 10
253.9983
 20
148.818
 10
253.2496
 20
149.4769
 10
252.5087
 20
150.1497
 10
251.7715
 20
150.8278
 10
251.034
 20
151.5026
 10
250.2921
 20
152.1658
 10
249.5419
 20
152.8087
 10
248.7791
 20
153.4229
 10
248.0
 20
154.0
 10
257.0
 20
145.0
 10
257.0
 20
144.0
 10
241.0
 20
128.0
 10
241.777
 20
128.5711
 10
242.5374
 20
129.1748
 10
243.283
 20
129.8075
 10
244.0157
 20
130.4656
 10
244.7374
 20
131.1453
 10
245.45
 20
131.8432
 10
246.1555
 20
132.5555
 10
246.8555
 20
133.2788
 10
247.5522
 20
134.0093
 10
248.2472
 20
134.7434
 10
248.9426
 20
135.4775
 10
249.6402
 20
136.2081
 10
250.342
 20
136.9314
 10
251.0497
 20
137.6439
 10
251.7652
 20
138.342
 10
252.4906
 20
139.022
 10
253.2276
 20
139.6803
 10
253.9781
 20
140.3133
 10
254.7441
 20
140.9174
 10
255.5274
 20
141.4889
 10
256.3299
 20
142.0243
 10
257.1534
 20
142.5199
 10
258.0
 20
142.9722
 10
258.5535
 20
143.2238
 10
259.1769
 20
143.4614
 10
259.8663
 20
143.6851
 10
260.6176
 20
143.8948
 10
261.4268
 20
144.0905
 10
262.2899
 20
144.2723
 10
263.2029
 20
144.44
 10
264.1619
 20
144.5938
 10
265.1629
 20
144.7336
 10
266.2017
 20
144.8594
 10
267.2746
 20
144.9712
 10
268.3774
 20
145.0691
 10
269.5061
 20
145.153
 10
270.6569
 20
145.2229
 10
271.8256
 20
145.2788
 10
273.0082
 20
145.3207
 10
274.2009
 20
145.3487
 10
275.3996
 20
145.3627
 10
276.6002
 20
145.3627
 10
277.7989
 20
145.3487
 10
278.9916
 20
145.3207
 10
280.1743
 20
145.2788
 10
281.343
 20
145.2229
 10
282.4937
 20
145.153
 10
283.6225
 20
145.0691
 10
284.7253
 20
144.9712
 10
285.7981
 20
144.8594
 10
286.837
 20
144.7336
 10
287.8379
 20
144.5938
 10
288.7969
 20
144.44
 10
289.71
 20
144.2723
 10
290.5731
 20
144.0905
 10
291.3823
 20
143.8948
 10
292.1336
 20
143.6851
 10
292.8229
 20
143.4614
 10
293.4464
 20
143.2238
 10
294.0
 20
142.9722
 10
294.8696
 20
142.5055
 10
295.7141
 20
141.9913
 10
296.5357
 20
141.4341
 10
297.3366
 20
140.8382
 10
298.1191
 20
140.2079
 10
298.8856
 20
139.5476
 10
299.6382
 20
138.8616
 10
300.3793
 20
138.1543
 10
301.1111
 20
137.4301
 10
301.836
 20
136.6932
 10
302.5561
 20
135.9481
 10
303.2738
 20
135.1991
 10
303.9914
 20
134.4505
 10
304.7111
 20
133.7067
 10
305.4352
 20
132.972
 10
306.166
 20
132.2509
 10
306.9057
 20
131.5476
 10
307.6567
 20
130.8665
 10
308.4212
 20
130.2119
 10
309.2016
 20
129.5883
 10
310.0
 20
129.0
 10
295.0
 20
144.0
 10
295.0
 20
145.0
 10
309.0
 20
160.0
  0
LWPOLYLINE
  5
6C
330
17
100
AcDbEntity
  8
0
100
AcDbPolyline
 90
5
 70
0
 10
1131.0
 20
96.0
 10
1131.0
 20
37.0
 10
1132.0
 20
37.0
 10
1132.0
 20
77.0
 10
1131.0
 20
96.0
  0
LWPOLYLINE
  5
6D
330
17
100
AcDbEntity
  8
0
100
AcDbPolyline
 90
5
 70
0
 10
1132.0
 20
96.0
 10
1132.0
 20
37.0
 10
1190.0
 20
37.0
 10
1190.0
 20
96.0
 10
1132.0
 20
96.0
  0
LWPOLYLINE
  5
6E
330
17
100
AcDbEntity
  8
0
100
AcDbPolyline
 90
5
 70
0
 10
1190.0
 20
95.0
 10
1190.0
 20
37.0
 10
1191.0
 20
37.0
 10
1191.0
 20
76.0
 10
1190.0
 20
95.0
  0
LWPOLYLINE
  5
6F
330
17
100
AcDbEntity
  8
0
100
AcDbPolyline
 90
168
 70
0
 10
83.0
 20
82.456017
 10
82.1651
 20
82.2698
 10
81.3558
 20
82.0588
 10
80.5717
 20
81.8236
 10
79.8127
 20
81.5649
 10
79.0788
 20
81.2834
 10
78.3698
 20
80.9797
 10
77.6855
 20
80.6547
 10
77.0258
 20
80.3089
 10
76.3906
 20
79.9432
 10
75.7797
 20
79.558
 10
75.193
 20
79.1543
 10
74.6303
 20
78.7325
 10
74.0916
 20
78.2935
 10
73.5766
 20
77.838
 10
73.0853
 20
77.3665
 10
72.6174
 20
76.8799
 10
72.173
 20
76.3788
 10
71.7517
 20
75.8639
 10
71.3535
 20
75.3359
 10
70.9783
 20
74.7955
 10
70.6258
 20
74.2433
 10
70.296
 20
73.6802
 10
69.9888
 20
73.1067
 10
69.7039
 20
72.5235
 10
69.4413
 20
71.9314
 10
69.2008
 20
71.331
 10
68.9823
 20
70.7231
 10
68.7856
 20
70.1083
 10
68.6106
 20
69.4874
 10
68.4572
 20
68.8609
 10
68.3251
 20
68.2296
 10
68.2144
 20
67.5943
 10
68.1248
 20
66.9555
 10
68.0562
 20
66.314
 10
68.0085
 20
65.6705
 10
67.9815
 20
65.0257
 10
67.9751
 20
64.3802
 10
67.9891
 20
63.7348
 10
68.0235
 20
63.0901
 10
68.078
 20
62.4469
 10
68.1526
 20
61.8058
 10
68.247
 20
61.1675
 10
68.3612
 20
60.5328
 10
68.4951
 20
59.9022
 10
68.6484
 20
59.2766
 10
68.8211
 20
58.6565
 10
69.0129
 20
58.0427
 10
69.2239
 20
57.436
 10
69.4537
 20
56.8368
 10
69.7024
 20
56.2461
 10
69.9697
 20
55.6644
 10
70.2555
 20
55.0925
 10
70.5597
 20
54.531
 10
70.8821
 20
53.9806
 10
71.2226
 20
53.4421
 10
71.5811
 20
52.9161
 10
71.9574
 20
52.4033
 10
72.3514
 20
51.9044
 10
72.7629
 20
51.4201
 10
73.1919
 20
50.9511
 10
73.6381
 20
50.4981
 10
74.1014
 20
50.0618
 10
74.5817
 20
49.6428
 10
75.0789
 20
49.2419
 10
75.5928
 20
48.8597
 10
76.1232
 20
48.497
 10
76.6701
 20
48.1545
 10
77.2333
 20
47.8327
 10
77.8127
 20
47.5325
 10
78.408
 20
47.2545
 10
79.0193
 20
46.9994
 10
79.6463
 20
46.768
 10
80.2889
 20
46.5608
 10
80.947
 20
46.3786
 10
81.6204
 20
46.2221
 10
82.309
 20
46.0919
 10
83.0126
 20
45.9889
 10
83.7312
 20
45.9136
 10
84.4645
 20
45.8667
 10
85.2125
 20
45.849
 10
85.975
 20
45.8611
 10
86.7518
 20
45.9037
 10
87.5428
 20
45.9776
 10
88.348
 20
46.0834
 10
89.1671
 20
46.2218
 10
90.0
 20
46.3935
 10
90.8055
 20
46.5912
 10
91.5842
 20
46.8161
 10
92.3363
 20
47.0674
 10
93.0618
 20
47.3443
 10
93.761
 20
47.6459
 10
94.4341
 20
47.9715
 10
95.0812
 20
48.3202
 10
95.7025
 20
48.6914
 10
96.2982
 20
49.0841
 10
96.8684
 20
49.4977
 10
97.4134
 20
49.9312
 10
97.9332
 20
50.3839
 10
98.428
 20
50.855
 10
98.8981
 20
51.3437
 10
99.3436
 20
51.8493
 10
99.7647
 20
52.3708
 10
100.1616
 20
52.9075
 10
100.5343
 20
53.4587
 10
100.8831
 20
54.0235
 10
101.2082
 20
54.6011
 10
101.5098
 20
55.1907
 10
101.7879
 20
55.7916
 10
102.0429
 20
56.4029
 10
102.2747
 20
57.0238
 10
102.4838
 20
57.6536
 10
102.6701
 20
58.2914
 10
102.8338
 20
58.9365
 10
102.9753
 20
59.588
 10
103.0945
 20
60.2452
 10
103.1917
 20
60.9072
 10
103.2671
 20
61.5733
 10
103.3208
 20
62.2427
 10
103.3531
 20
62.9145
 10
103.364
 20
63.5881
 10
103.3537
 20
64.2624
 10
103.3225
 20
64.9369
 10
103.2705
 20
65.6107
 10
103.1978
 20
66.2829
 10
103.1047
 20
66.9528
 10
102.9913
 20
67.6197
 10
102.8577
 20
68.2826
 10
102.7043
 20
68.9408
 10
102.531
 20
69.5935
 10
102.3382
 20
70.24
 10
102.1259
 20
70.8793
 10
101.8944
 20
71.5108
 10
101.6438
 20
72.1335
 10
101.3743
 20
72.7468
 10
101.086
 20
73.3499
 10
100.7792
 20
73.9418
 10
100.454
 20
74.5219
 10
100.1106
 20
75.0894
 10
99.7491
 20
75.6433
 10
99.3697
 20
76.183
 10
98.9727
 20
76.7077
 10
98.5581
 20
77.2165
 10
98.1261
 20
77.7087
 10
97.677
 20
78.1834
 10
97.2108
 20
78.6399
 10
96.7279
 20
79.0773
 10
96.2282
 20
79.4949
 10
95.712
 20
79.8919
 10
95.1796
 20
80.2675
 10
94.6309
 20
80.6208
 10
94.0663
 20
80.9511
 10
93.4859
 20
81.2576
 10
92.8899
 20
81.5395
 10
92.2783
 20
81.796
 10
91.6515
 20
82.0263
 10
91.0096
 20
82.2296
 10
90.3527
 20
82.4051
 10
89.6811
 20
82.552
 10
88.9949
 20
82.6695
 10
88.2942
 20
82.7568
 10
87.5792
 20
82.8132
 10
86.8502
 20
82.8377
 10
86.1073
 20
82.8297
 10
85.3507
 20
82.7883
 10
84.5804
 20
82.7128
 10
83.7968
 20
82.6022
 10
83.0
 20
82.456
  0
LWPOLYLINE
  5
70
330
17
100
AcDbEntity
  8
0
100
AcDbPolyline
 90
69
 70
0
 10
68.0
 20
65.0
 10
103.0
 20
66.0
 10
102.763
 20
66.9165
 10
102.4992
 20
67.8032
 10
102.2095
 20
68.6601
 10
101.8947
 20
69.4874
 10
101.5556
 20
70.285
 10
101.193
 20
71.0531
 10
100.8079
 20
71.7918
 10
100.401
 20
72.5011
 10
99.9731
 20
73.1811
 10
99.5252
 20
73.8318
 10
99.058
 20
74.4534
 10
98.5724
 20
75.0459
 10
98.0692
 20
75.6094
 10
97.5493
 20
76.144
 10
97.0135
 20
76.6497
 10
96.4626
 20
77.1266
 10
95.8975
 20
77.5748
 10
95.319
 20
77.9943
 10
94.7279
 20
78.3853
 10
94.1251
 20
78.7477
 10
93.5114
 20
79.0818
 10
92.8877
 20
79.3875
 10
92.2548
 20
79.6649
 10
91.6135
 20
79.9141
 10
90.9647
 20
80.1352
 10
90.3092
 20
80.3283
 10
89.6478
 20
80.4933
 10
88.9814
 20
80.6305
 10
88.3108
 20
80.7398
 10
87.6369
 20
80.8214
 10
86.9605
 20
80.8753
 10
86.2824
 20
80.9015
 10
85.6034
 20
80.9003
 10
84.9245
 20
80.8716
 10
84.2464
 20
80.8154
 10
83.5699
 20
80.732
 10
82.896
 20
80.6213
 10
82.2255
 20
80.4835
 10
81.5591
 20
80.3186
 10
80.8977
 20
80.1266
 10
80.2423
 20
79.9077
 10
79.5935
 20
79.6619
 10
78.9522
 20
79.3894
 10
78.3193
 20
79.0901
 10
77.6957
 20
78.7641
 10
77.0821
 20
78.4116
 10
76.4793
 20
78.0326
 10
75.8883
 20
77.6271
 10
75.3099
 20
77.1953
 10
74.7448
 20
76.7372
 10
74.194
 20
76.2529
 10
73.6583
 20
75.7425
 10
73.1384
 20
75.206
 10
72.6353
 20
74.6435
 10
72.1498
 20
74.0551
 10
71.6827
 20
73.4409
 10
71.2349
 20
72.8009
 10
70.8072
 20
72.1352
 10
70.4004
 20
71.4438
 10
70.0153
 20
70.727
 10
69.6529
 20
69.9847
 10
69.3139
 20
69.2169
 10
68.9992
 20
68.4239
 10
68.7096
 20
67.6056
 10
68.446
 20
66.7621
 10
68.2092
 20
65.8936
 10
68.0
 20
65.0
  0
LWPOLYLINE
  5
71
330
17
100
AcDbEntity
  8
0
100
AcDbPolyline
 90
76
 70
0
 10
68.0
 20
64.0
 10
68.1352
 20
63.1346
 10
68.2993
 20
62.2921
 10
68.4915
 20
61.4725
 10
68.7109
 20
60.6757
 10
68.9566
 20
59.9019
 10
69.228
 20
59.151
 10
69.5241
 20
58.4232
 10
69.8442
 20
57.7184
 10
70.1874
 20
57.0367
 10
70.5529
 20
56.3781
 10
70.94
 20
55.7426
 10
71.3477
 20
55.1304
 10
71.7752
 20
54.5413
 10
72.2219
 20
53.9756
 10
72.6867
 20
53.4331
 10
73.169
 20
52.914
 10
73.6679
 20
52.4182
 10
74.1826
 20
51.9459
 10
74.7122
 20
51.497
 10
75.256
 20
51.0716
 10
75.8132
 20
50.6698
 10
76.3828
 20
50.2914
 10
76.9641
 20
49.9367
 10
77.5564
 20
49.6056
 10
78.1587
 20
49.2982
 10
78.7702
 20
49.0145
 10
79.3902
 20
48.7546
 10
80.0178
 20
48.5184
 10
80.6522
 20
48.306
 10
81.2926
 20
48.1175
 10
81.9382
 20
47.9529
 10
82.5881
 20
47.8122
 10
83.2416
 20
47.6955
 10
83.8978
 20
47.6028
 10
84.5558
 20
47.5341
 10
85.215
 20
47.4895
 10
85.8744
 20
47.469
 10
86.5333
 20
47.4727
 10
87.1908
 20
47.5005
 10
87.8462
 20
47.5526
 10
88.4985
 20
47.6289
 10
89.147
 20
47.7296
 10
89.7909
 20
47.8545
 10
90.4294
 20
48.0039
 10
91.0616
 20
48.1776
 10
91.6867
 20
48.3758
 10
92.3039
 20
48.5985
 10
92.9124
 20
48.8457
 10
93.5114
 20
49.1175
 10
94.1
 20
49.4138
 10
94.6775
 20
49.7348
 10
95.243
 20
50.0804
 10
95.7956
 20
50.4508
 10
96.3347
 20
50.8459
 10
96.8594
 20
51.2657
 10
97.3688
 20
51.7104
 10
97.8621
 20
52.1799
 10
98.3386
 20
52.6744
 10
98.7973
 20
53.1937
 10
99.2376
 20
53.738
 10
99.6585
 20
54.3073
 10
100.0593
 20
54.9016
 10
100.4391
 20
55.5211
 10
100.7971
 20
56.1656
 10
101.1325
 20
56.8353
 10
101.4446
 20
57.5301
 10
101.7324
 20
58.2502
 10
101.9951
 20
58.9955
 10
102.232
 20
59.7661
 10
102.4422
 20
60.5621
 10
102.6249
 20
61.3834
 10
102.7793
 20
62.2301
 10
102.9046
 20
63.1023
 10
103.0
 20
64.0
 10
68.0
 20
64.0
  0
LWPOLYLINE
  5
72
330
17
100
AcDbEntity
  8
0
100
AcDbPolyline
 90
77
 70
0
 10
117.0
 20
60.0
 10
117.0
 20
59.0
 10
119.0
 20
56.0
 10
119.0
 20
55.0
 10
122.0
 20
59.0
 10
123.0
 20
59.0
 10
123.0
 20
55.0
 10
131.0
 20
55.0
 10
130.0
 20
59.0
 10
135.0
 20
55.0
 10
135.0
 20
56.0
 10
133.0
 20
59.0
 10
139.0
 20
55.0
 10
139.0
 20
56.0
 10
137.0
 20
57.0
 10
147.0
 20
59.0
 10
147.0
 20
55.0
 10
152.0
 20
58.0
 10
153.0
 20
55.0
 10
154.0
 20
55.0
 10
155.0
 20
59.0
 10
156.0
 20
56.0
 10
156.0
 20
55.0
 10
157.2135
 20
55.2789
 10
157.9386
 20
55.5874
 10
158.257
 20
56.0565
 10
158.2502
 20
56.817
 10
158.0
 20
58.0
 10
195.0
 20
59.0
 10
267.0
 20
59.0
 10
266.2249
 20
59.3076
 10
265.4257
 20
59.591
 10
264.6033
 20
59.8511
 10
263.7589
 20
60.0884
 10
262.8934
 20
60.304
 10
262.0079
 20
60.4984
 10
261.1033
 20
60.6726
 10
260.1808
 20
60.8272
 10
259.2414
 20
60.9632
 10
258.286
 20
61.0812
 10
257.3158
 20
61.1821
 10
256.3318
 20
61.2665
 10
255.3349
 20
61.3355
 10
254.3262
 20
61.3896
 10
253.3068
 20
61.4297
 10
252.2777
 20
61.4565
 10
251.2399
 20
61.471
 10
250.1944
 20
61.4737
 10
249.1423
 20
61.4656
 10
248.0846
 20
61.4474
 10
247.0224
 20
61.4199
 10
245.9566
 20
61.3838
 10
244.8883
 20
61.34
 10
243.8186
 20
61.2893
 10
242.7484
 20
61.2324
 10
241.6788
 20
61.1701
 10
240.6108
 20
61.1032
 10
239.5455
 20
61.0324
 10
238.4839
 20
60.9587
 10
237.427
 20
60.8827
 10
236.3759
 20
60.8052
 10
235.3315
 20
60.727
 10
234.2949
 20
60.6489
 10
233.2672
 20
60.5717
 10
232.2494
 20
60.4962
 10
231.2425
 20
60.4232
 10
230.2475
 20
60.3533
 10
229.2655
 20
60.2875
 10
228.2974
 20
60.2265
 10
227.3445
 20
60.1711
 10
226.4075
 20
60.1221
 10
225.4877
 20
60.0802
 10
224.586
 20
60.0463
 10
223.7034
 20
60.0211
 10
222.8411
 20
60.0054
 10
222.0
 20
60.0
 10
117.0
 20
60.0
  0
ENDSEC
  0
SECTION
  2
OBJECTS
  0
DICTIONARY
  5
A
330
0
100
AcDbDictionary
281
1
  3
ACAD_COLOR
350
B
  3
ACAD_GROUP
350
C
  3
ACAD_LAYOUT
350
D
  3
ACAD_MATERIAL
350
E
  3
ACAD_MLEADERSTYLE
350
F
  3
ACAD_MLINESTYLE
350
10
  3
ACAD_PLOTSETTINGS
350
11
  3
ACAD_PLOTSTYLENAME
350
12
  3
ACAD_SCALELIST
350
14
  3
ACAD_TABLESTYLE
350
15
  3
ACAD_VISUALSTYLE
350
16
  3
EZDXF_META
350
2D
  0
DICTIONARY
  5
B
330
A
100
AcDbDictionary
281
1
  0
DICTIONARY
  5
C
330
A
100
AcDbDictionary
281
1
  0
DICTIONARY
  5
D
330
A
100
AcDbDictionary
281
1
  3
Model
350
1A
  3
Layout1
350
1E
  0
DICTIONARY
  5
E
330
A
100
AcDbDictionary
281
1
  3
ByBlock
350
1F
  3
ByLayer
350
20
  3
Global
350
21
  0
DICTIONARY
  5
F
330
A
100
AcDbDictionary
281
1
  3
Standard
350
2C
  0
DICTIONARY
  5
10
330
A
100
AcDbDictionary
281
1
  3
Standard
350
22
  0
DICTIONARY
  5
11
330
A
100
AcDbDictionary
281
1
  0
ACDBDICTIONARYWDFLT
  5
12
330
A
100
AcDbDictionary
281
1
  3
Normal
350
13
100
AcDbDictionaryWithDefault
340
13
  0
ACDBPLACEHOLDER
  5
13
330
12
  0
DICTIONARY
  5
14
330
A
100
AcDbDictionary
281
1
  0
DICTIONARY
  5
15
330
A
100
AcDbDictionary
281
1
  0
DICTIONARY
  5
16
330
A
100
AcDbDictionary
281
1
  0
LAYOUT
  5
1A
330
D
100
AcDbPlotSettings
  1

  4
A3
  6

 40
7.5
 41
20.0
 42
7.5
 43
20.0
 44
420.0
 45
297.0
 46
0.0
 47
0.0
 48
0.0
 49
0.0
140
0.0
141
0.0
142
1.0
143
1.0
 70
1024
 72
1
 73
0
 74
5
  7

 75
16
 76
0
 77
2
 78
300
147
1.0
148
0.0
149
0.0
100
AcDbLayout
  1
Model
 70
1
 71
0
 10
0.0
 20
0.0
 11
420.0
 21
297.0
 12
0.0
 22
0.0
 32
0.0
 14
1e+20
 24
1e+20
 34
1e+20
 15
-1e+20
 25
-1e+20
 35
-1e+20
146
0.0
 13
0.0
 23
0.0
 33
0.0
 16
1.0
 26
0.0
 36
0.0
 17
0.0
 27
1.0
 37
0.0
 76
1
330
17
  0
LAYOUT
  5
1E
330
D
100
AcDbPlotSettings
  1

  4
A3
  6

 40
7.5
 41
20.0
 42
7.5
 43
20.0
 44
420.0
 45
297.0
 46
0.0
 47
0.0
 48
0.0
 49
0.0
140
0.0
141
0.0
142
1.0
143
1.0
 70
0
 72
1
 73
0
 74
5
  7

 75
16
 76
0
 77
2
 78
300
147
1.0
148
0.0
149
0.0
100
AcDbLayout
  1
Layout1
 70
1
 71
1
 10
0.0
 20
0.0
 11
420.0
 21
297.0
 12
0.0
 22
0.0
 32
0.0
 14
1e+20
 24
1e+20
 34
1e+20
 15
-1e+20
 25
-1e+20
 35
-1e+20
146
0.0
 13
0.0
 23
0.0
 33
0.0
 16
1.0
 26
0.0
 36
0.0
 17
0.0
 27
1.0
 37
0.0
 76
1
330
1B
  0
MATERIAL
  5
1F
102
{ACAD_REACTORS
330
E
102
}
330
E
100
AcDbMaterial
  1
ByBlock
  2

 70
0
 40
1.0
 71
1
 41
1.0
 91
-1023410177
 42
1.0
 72
1
  3

 73
1
 74
1
 75
1
 44
0.5
 73
0
 45
1.0
 46
1.0
 77
1
  4

 78
1
 79
1
170
1
 48
1.0
171
1
  6

172
1
173
1
174
1
140
1.0
141
1.0
175
1
  7

176
1
177
1
178
1
143
1.0
179
1
  8

270
1
271
1
272
1
145
1.0
146
1.0
273
1
  9

274
1
275
1
276
1
 42
1.0
 72
1
  3

 73
1
 74
1
 75
1
 94
63
  0
MATERIAL
  5
20
102
{ACAD_REACTORS
330
E
102
}
330
E
100
AcDbMaterial
  1
ByLayer
  2

 70
0
 40
1.0
 71
1
 41
1.0
 91
-1023410177
 42
1.0
 72
1
  3

 73
1
 74
1
 75
1
 44
0.5
 73
0
 45
1.0
 46
1.0
 77
1
  4

 78
1
 79
1
170
1
 48
1.0
171
1
  6

172
1
173
1
174
1
140
1.0
141
1.0
175
1
  7

176
1
177
1
178
1
143
1.0
179
1
  8

270
1
271
1
272
1
145
1.0
146
1.0
273
1
  9

274
1
275
1
276
1
 42
1.0
 72
1
  3

 73
1
 74
1
 75
1
 94
63
  0
MATERIAL
  5
21
102
{ACAD_REACTORS
330
E
102
}
330
E
100
AcDbMaterial
  1
Global
  2

 70
0
 40
1.0
 71
1
 41
1.0
 91
-1023410177
 42
1.0
 72
1
  3

 73
1
 74
1
 75
1
 44
0.5
 73
0
 45
1.0
 46
1.0
 77
1
  4

 78
1
 79
1
170
1
 48
1.0
171
1
  6

172
1
173
1
174
1
140
1.0
141
1.0
175
1
  7

176
1
177
1
178
1
143
1.0
179
1
  8

270
1
271
1
272
1
145
1.0
146
1.0
273
1
  9

274
1
275
1
276
1
 42
1.0
 72
1
  3

 73
1
 74
1
 75
1
 94
63
  0
MLINESTYLE
  5
22
102
{ACAD_REACTORS
330
10
102
}
330
10
100
AcDbMlineStyle
  2
Standard
 70
0
  3

 62
256
 51
90.0
 52
90.0
 71
2
 49
0.5
 62
256
  6
BYLAYER
 49
-0.5
 62
256
  6
BYLAYER
  0
MLEADERSTYLE
  5
2C
102
{ACAD_REACTORS
330
F
102
}
330
F
100
AcDbMLeaderStyle
179
2
170
2
171
1
172
0
 90
2
 40
0.0
 41
0.0
173
1
 91
-1056964608
 92
-2
290
1
 42
2.0
291
1
 43
8.0
  3
Standard
 44
4.0
300

342
29
174
1
175
1
176
0
178
1
 93
-1056964608
 45
4.0
292
0
297
0
 46
4.0
 94
-1056964608
 47
1.0
 49
1.0
140
1.0
294
1
141
0.0
177
0
142
1.0
295
0
296
0
143
3.75
271
0
272
9
273
9
  0
DICTIONARY
  5
2D
330
A
100
AcDbDictionary
280
1
281
1
  3
CREATED_BY_EZDXF
350
2E
  3
WRITTEN_BY_EZDXF
350
75
  0
DICTIONARYVAR
  5
2E
330
2D
100
DictionaryVariables
280
0
  1
1.4.3 @ 2025-11-24T05:10:08.324955+00:00
  0
DICTIONARYVAR
  5
75
330
2D
100
DictionaryVariables
280
0
  1
1.4.3 @ 2025-11-24T05:10:08.352818+00:00
  0
ENDSEC
  0
EOF
