  0
SECTION
  2
HEADER
  9
$ACADVER
  1
AC1027
  9
$ACADMAINTVER
 70
105
  9
$DWGCODEPAGE
  3
ANSI_1252
  9
$LASTSAVEDBY
  1
ezdxf
  9
$REQUIREDVERSIONS
160
0
  9
$INSBASE
 10
0.0
 20
0.0
 30
0.0
  9
$EXTMIN
 10
1e+20
 20
1e+20
 30
1e+20
  9
$EXTMAX
 10
-1e+20
 20
-1e+20
 30
-1e+20
  9
$LIMMIN
 10
0.0
 20
0.0
  9
$LIMMAX
 10
420.0
 20
297.0
  9
$ORTHOMODE
 70
0
  9
$REGENMODE
 70
1
  9
$FILLMODE
 70
1
  9
$QTEXTMODE
 70
0
  9
$MIRRTEXT
 70
1
  9
$LTSCALE
 40
1.0
  9
$ATTMODE
 70
1
  9
$TEXTSIZE
 40
2.5
  9
$TRACEWID
 40
1.0
  9
$TEXTSTYLE
  7
Standard
  9
$CLAYER
  8
0
  9
$CELTYPE
  6
ByLayer
  9
$CECOLOR
 62
256
  9
$CELTSCALE
 40
1.0
  9
$DISPSILH
 70
0
  9
$DIMSCALE
 40
1.0
  9
$DIMASZ
 40
2.5
  9
$DIMEXO
 40
0.625
  9
$DIMDLI
 40
3.75
  9
$DIMRND
 40
0.0
  9
$DIMDLE
 40
0.0
  9
$DIMEXE
 40
1.25
  9
$DIMTP
 40
0.0
  9
$DIMTM
 40
0.0
  9
$DIMTXT
 40
2.5
  9
$DIMCEN
 40
2.5
  9
$DIMTSZ
 40
0.0
  9
$DIMTOL
 70
0
  9
$DIMLIM
 70
0
  9
$DIMTIH
 70
0
  9
$DIMTOH
 70
0
  9
$DIMSE1
 70
0
  9
$DIMSE2
 70
0
  9
$DIMTAD
 70
1
  9
$DIMZIN
 70
8
  9
$DIMBLK
  1

  9
$DIMASO
 70
1
  9
$DIMSHO
 70
1
  9
$DIMPOST
  1

  9
$DIMAPOST
  1

  9
$DIMALT
 70
0
  9
$DIMALTD
 70
3
  9
$DIMALTF
 40
0.03937007874
  9
$DIMLFAC
 40
1.0
  9
$DIMTOFL
 70
1
  9
$DIMTVP
 40
0.0
  9
$DIMTIX
 70
0
  9
$DIMSOXD
 70
0
  9
$DIMSAH
 70
0
  9
$DIMBLK1
  1

  9
$DIMBLK2
  1

  9
$DIMSTYLE
  2
ISO-25
  9
$DIMCLRD
 70
0
  9
$DIMCLRE
 70
0
  9
$DIMCLRT
 70
0
  9
$DIMTFAC
 40
1.0
  9
$DIMGAP
 40
0.625
  9
$DIMJUST
 70
0
  9
$DIMSD1
 70
0
  9
$DIMSD2
 70
0
  9
$DIMTOLJ
 70
0
  9
$DIMTZIN
 70
8
  9
$DIMALTZ
 70
0
  9
$DIMALTTZ
 70
0
  9
$DIMUPT
 70
0
  9
$DIMDEC
 70
2
  9
$DIMTDEC
 70
2
  9
$DIMALTU
 70
2
  9
$DIMALTTD
 70
3
  9
$DIMTXSTY
  7
Standard
  9
$DIMAUNIT
 70
0
  9
$DIMADEC
 70
0
  9
$DIMALTRND
 40
0.0
  9
$DIMAZIN
 70
0
  9
$DIMDSEP
 70
44
  9
$DIMATFIT
 70
3
  9
$DIMFRAC
 70
0
  9
$DIMLDRBLK
  1

  9
$DIMLUNIT
 70
2
  9
$DIMLWD
 70
-2
  9
$DIMLWE
 70
-2
  9
$DIMTMOVE
 70
0
  9
$DIMFXL
 40
1.0
  9
$DIMFXLON
 70
0
  9
$DIMJOGANG
 40
0.785398163397
  9
$DIMTFILL
 70
0
  9
$DIMTFILLCLR
 70
0
  9
$DIMARCSYM
 70
0
  9
$DIMLTYPE
  6

  9
$DIMLTEX1
  6

  9
$DIMLTEX2
  6

  9
$DIMTXTDIRECTION
 70
0
  9
$LUNITS
 70
2
  9
$LUPREC
 70
4
  9
$SKETCHINC
 40
1.0
  9
$FILLETRAD
 40
10.0
  9
$AUNITS
 70
0
  9
$AUPREC
 70
2
  9
$MENU
  1
.
  9
$ELEVATION
 40
0.0
  9
$PELEVATION
 40
0.0
  9
$THICKNESS
 40
0.0
  9
$LIMCHECK
 70
0
  9
$CHAMFERA
 40
0.0
  9
$CHAMFERB
 40
0.0
  9
$CHAMFERC
 40
0.0
  9
$CHAMFERD
 40
0.0
  9
$SKPOLY
 70
0
  9
$TDCREATE
 40
2461003.909548611
  9
$TDUCREATE
 40
2458532.153996898
  9
$TDUPDATE
 40
2461003.909548611
  9
$TDUUPDATE
 40
2458532.1544311
  9
$TDINDWG
 40
0.0
  9
$TDUSRTIMER
 40
0.0
  9
$USRTIMER
 70
1
  9
$ANGBASE
 50
0.0
  9
$ANGDIR
 70
0
  9
$PDMODE
 70
0
  9
$PDSIZE
 40
0.0
  9
$PLINEWID
 40
0.0
  9
$SPLFRAME
 70
0
  9
$SPLINETYPE
 70
6
  9
$SPLINESEGS
 70
8
  9
$HANDSEED
  5
51
  9
$SURFTAB1
 70
6
  9
$SURFTAB2
 70
6
  9
$SURFTYPE
 70
6
  9
$SURFU
 70
6
  9
$SURFV
 70
6
  9
$UCSBASE
  2

  9
$UCSNAME
  2

  9
$UCSORG
 10
0.0
 20
0.0
 30
0.0
  9
$UCSXDIR
 10
1.0
 20
0.0
 30
0.0
  9
$UCSYDIR
 10
0.0
 20
1.0
 30
0.0
  9
$UCSORTHOREF
  2

  9
$UCSORTHOVIEW
 70
0
  9
$UCSORGTOP
 10
0.0
 20
0.0
 30
0.0
  9
$UCSORGBOTTOM
 10
0.0
 20
0.0
 30
0.0
  9
$UCSORGLEFT
 10
0.0
 20
0.0
 30
0.0
  9
$UCSORGRIGHT
 10
0.0
 20
0.0
 30
0.0
  9
$UCSORGFRONT
 10
0.0
 20
0.0
 30
0.0
  9
$UCSORGBACK
 10
0.0
 20
0.0
 30
0.0
  9
$PUCSBASE
  2

  9
$PUCSNAME
  2

  9
$PUCSORG
 10
0.0
 20
0.0
 30
0.0
  9
$PUCSXDIR
 10
1.0
 20
0.0
 30
0.0
  9
$PUCSYDIR
 10
0.0
 20
1.0
 30
0.0
  9
$PUCSORTHOREF
  2

  9
$PUCSORTHOVIEW
 70
0
  9
$PUCSORGTOP
 10
0.0
 20
0.0
 30
0.0
  9
$PUCSORGBOTTOM
 10
0.0
 20
0.0
 30
0.0
  9
$PUCSORGLEFT
 10
0.0
 20
0.0
 30
0.0
  9
$PUCSORGRIGHT
 10
0.0
 20
0.0
 30
0.0
  9
$PUCSORGFRONT
 10
0.0
 20
0.0
 30
0.0
  9
$PUCSORGBACK
 10
0.0
 20
0.0
 30
0.0
  9
$USERI1
 70
0
  9
$USERI2
 70
0
  9
$USERI3
 70
0
  9
$USERI4
 70
0
  9
$USERI5
 70
0
  9
$USERR1
 40
0.0
  9
$USERR2
 40
0.0
  9
$USERR3
 40
0.0
  9
$USERR4
 40
0.0
  9
$USERR5
 40
0.0
  9
$WORLDVIEW
 70
1
  9
$SHADEDGE
 70
3
  9
$SHADEDIF
 70
70
  9
$TILEMODE
 70
1
  9
$MAXACTVP
 70
64
  9
$PINSBASE
 10
0.0
 20
0.0
 30
0.0
  9
$PLIMCHECK
 70
0
  9
$PEXTMIN
 10
1e+20
 20
1e+20
 30
1e+20
  9
$PEXTMAX
 10
-1e+20
 20
-1e+20
 30
-1e+20
  9
$PLIMMIN
 10
0.0
 20
0.0
  9
$PLIMMAX
 10
420.0
 20
297.0
  9
$UNITMODE
 70
0
  9
$VISRETAIN
 70
1
  9
$PLINEGEN
 70
0
  9
$PSLTSCALE
 70
1
  9
$TREEDEPTH
 70
3020
  9
$CMLSTYLE
  2
Standard
  9
$CMLJUST
 70
0
  9
$CMLSCALE
 40
20.0
  9
$PROXYGRAPHICS
 70
1
  9
$MEASUREMENT
 70
1
  9
$CELWEIGHT
370
-1
  9
$ENDCAPS
280
0
  9
$JOINSTYLE
280
0
  9
$LWDISPLAY
290
0
  9
$INSUNITS
 70
6
  9
$HYPERLINKBASE
  1

  9
$STYLESHEET
  1

  9
$XEDIT
290
1
  9
$CEPSNTYPE
380
0
  9
$PSTYLEMODE
290
1
  9
$FINGERPRINTGUID
  2
{E60C9B0C-A5F1-45F6-BB46-A5E63BF7293B}
  9
$VERSIONGUID
  2
{13149F96-9952-4C66-B66F-DA60B567214A}
  9
$EXTNAMES
290
1
  9
$PSVPSCALE
 40
0.0
  9
$OLESTARTUP
290
0
  9
$SORTENTS
280
127
  9
$INDEXCTL
280
0
  9
$HIDETEXT
280
1
  9
$XCLIPFRAME
280
1
  9
$HALOGAP
280
0
  9
$OBSCOLOR
 70
257
  9
$OBSLTYPE
280
0
  9
$INTERSECTIONDISPLAY
280
0
  9
$INTERSECTIONCOLOR
 70
257
  9
$DIMASSOC
280
2
  9
$PROJECTNAME
  1

  9
$CAMERADISPLAY
290
0
  9
$LENSLENGTH
 40
50.0
  9
$CAMERAHEIGHT
 40
0.0
  9
$STEPSPERSEC
 40
24.0
  9
$STEPSIZE
 40
100.0
  9
$3DDWFPREC
 40
2.0
  9
$PSOLWIDTH
 40
0.005
  9
$PSOLHEIGHT
 40
0.08
  9
$LOFTANG1
 40
1.570796326795
  9
$LOFTANG2
 40
1.570796326795
  9
$LOFTMAG1
 40
0.0
  9
$LOFTMAG2
 40
0.0
  9
$LOFTPARAM
 70
7
  9
$LOFTNORMALS
280
1
  9
$LATITUDE
 40
37.795
  9
$LONGITUDE
 40
-122.394
  9
$NORTHDIRECTION
 40
0.0
  9
$TIMEZONE
 70
-8000
  9
$LIGHTGLYPHDISPLAY
280
1
  9
$TILEMODELIGHTSYNCH
280
1
  9
$CMATERIAL
347
20
  9
$SOLIDHIST
280
0
  9
$SHOWHIST
280
1
  9
$DWFFRAME
280
2
  9
$DGNFRAME
280
2
  9
$REALWORLDSCALE
290
1
  9
$INTERFERECOLOR
 62
256
  9
$CSHADOW
280
0
  9
$SHADOWPLANELOCATION
 40
0.0
  0
ENDSEC
  0
SECTION
  2
CLASSES
  0
CLASS
  1
ACDBDICTIONARYWDFLT
  2
AcDbDictionaryWithDefault
  3
ObjectDBX Classes
 90
0
 91
0
280
0
281
0
  0
CLASS
  1
SUN
  2
AcDbSun
  3
SCENEOE
 90
1153
 91
0
280
0
281
0
  0
CLASS
  1
VISUALSTYLE
  2
AcDbVisualStyle
  3
ObjectDBX Classes
 90
4095
 91
0
280
0
281
0
  0
CLASS
  1
MATERIAL
  2
AcDbMaterial
  3
ObjectDBX Classes
 90
1153
 91
0
280
0
281
0
  0
CLASS
  1
SCALE
  2
AcDbScale
  3
ObjectDBX Classes
 90
1153
 91
0
280
0
281
0
  0
CLASS
  1
TABLESTYLE
  2
AcDbTableStyle
  3
ObjectDBX Classes
 90
4095
 91
0
280
0
281
0
  0
CLASS
  1
MLEADERSTYLE
  2
AcDbMLeaderStyle
  3
ACDB_MLEADERSTYLE_CLASS
 90
4095
 91
0
280
0
281
0
  0
CLASS
  1
DICTIONARYVAR
  2
AcDbDictionaryVar
  3
ObjectDBX Classes
 90
0
 91
0
280
0
281
0
  0
CLASS
  1
CELLSTYLEMAP
  2
AcDbCellStyleMap
  3
ObjectDBX Classes
 90
1152
 91
0
280
0
281
0
  0
CLASS
  1
MENTALRAYRENDERSETTINGS
  2
AcDbMentalRayRenderSettings
  3
SCENEOE
 90
1024
 91
0
280
0
281
0
  0
CLASS
  1
ACDBDETAILVIEWSTYLE
  2
AcDbDetailViewStyle
  3
ObjectDBX Classes
 90
1025
 91
0
280
0
281
0
  0
CLASS
  1
ACDBSECTIONVIEWSTYLE
  2
AcDbSectionViewStyle
  3
ObjectDBX Classes
 90
1025
 91
0
280
0
281
0
  0
CLASS
  1
RASTERVARIABLES
  2
AcDbRasterVariables
  3
ISM
 90
0
 91
0
280
0
281
0
  0
CLASS
  1
LAYOUT
  2
AcDbLayout
  3
ObjectDBX Classes
 90
0
 91
0
280
0
281
0
  0
CLASS
  1
ACDBPLACEHOLDER
  2
AcDbPlaceHolder
  3
ObjectDBX Classes
 90
0
 91
0
280
0
281
0
  0
ENDSEC
  0
SECTION
  2
TABLES
  0
TABLE
  2
VPORT
  5
8
330
0
100
AcDbSymbolTable
 70
1
  0
VPORT
  5
23
330
8
100
AcDbSymbolTableRecord
100
AcDbViewportTableRecord
  2
*Active
 70
0
 10
0.0
 20
0.0
 11
1.0
 21
1.0
 12
0.0
 22
0.0
 13
0.0
 23
0.0
 14
0.5
 24
0.5
 15
0.5
 25
0.5
 16
0.0
 26
0.0
 36
1.0
 17
0.0
 27
0.0
 37
0.0
 40
1000.0
 41
1.34
 42
50.0
 43
0.0
 44
0.0
 50
0.0
 51
0.0
 71
0
 72
1000
 73
1
 74
3
 75
0
 76
0
 77
0
 78
0
281
0
 65
0
146
0.0
  0
ENDTAB
  0
TABLE
  2
LTYPE
  5
2
330
0
100
AcDbSymbolTable
 70
3
  0
LTYPE
  5
24
330
2
100
AcDbSymbolTableRecord
100
AcDbLinetypeTableRecord
  2
ByBlock
 70
0
  3

 72
65
 73
0
 40
0.0
  0
LTYPE
  5
25
330
2
100
AcDbSymbolTableRecord
100
AcDbLinetypeTableRecord
  2
ByLayer
 70
0
  3

 72
65
 73
0
 40
0.0
  0
LTYPE
  5
26
330
2
100
AcDbSymbolTableRecord
100
AcDbLinetypeTableRecord
  2
Continuous
 70
0
  3

 72
65
 73
0
 40
0.0
  0
ENDTAB
  0
TABLE
  2
LAYER
  5
1
330
0
100
AcDbSymbolTable
 70
2
  0
LAYER
  5
27
330
1
100
AcDbSymbolTableRecord
100
AcDbLayerTableRecord
  2
0
 70
0
 62
7
  6
Continuous
370
-3
390
13
347
21
  0
LAYER
  5
28
330
1
100
AcDbSymbolTableRecord
100
AcDbLayerTableRecord
  2
Defpoints
 70
0
 62
7
  6
Continuous
290
0
370
-3
390
13
347
21
  0
ENDTAB
  0
TABLE
  2
STYLE
  5
5
330
0
100
AcDbSymbolTable
 70
1
  0
STYLE
  5
29
330
5
100
AcDbSymbolTableRecord
100
AcDbTextStyleTableRecord
  2
Standard
 70
0
 40
0.0
 41
1.0
 50
0.0
 71
0
 42
2.5
  3
txt
  4

  0
ENDTAB
  0
TABLE
  2
VIEW
  5
7
330
0
100
AcDbSymbolTable
 70
0
  0
ENDTAB
  0
TABLE
  2
UCS
  5
6
330
0
100
AcDbSymbolTable
 70
0
  0
ENDTAB
  0
TABLE
  2
APPID
  5
3
330
0
100
AcDbSymbolTable
 70
3
  0
APPID
  5
2A
330
3
100
AcDbSymbolTableRecord
100
AcDbRegAppTableRecord
  2
ACAD
 70
0
  0
APPID
  5
4E
330
3
100
AcDbSymbolTableRecord
100
AcDbRegAppTableRecord
  2
HATCHBACKGROUNDCOLOR
 70
0
  0
APPID
  5
4F
330
3
100
AcDbSymbolTableRecord
100
AcDbRegAppTableRecord
  2
EZDXF
 70
0
  0
ENDTAB
  0
TABLE
  2
DIMSTYLE
  5
4
330
0
100
AcDbSymbolTable
 70
1
100
AcDbDimStyleTable
  0
DIMSTYLE
105
2B
330
4
100
AcDbSymbolTableRecord
100
AcDbDimStyleTableRecord
  2
Standard
 70
0
 40
1.0
 41
2.5
 42
0.625
 43
3.75
 44
1.25
 45
0.0
 46
0.0
 47
0.0
 48
0.0
 49
2.5
140
2.5
141
2.5
142
0.0
143
0.03937007874
144
1.0
145
0.0
146
1.0
147
0.625
148
0.0
 69
0
 70
0
 71
0
 72
0
 73
0
 74
0
 75
0
 76
0
 77
1
 78
8
 79
3
170
0
171
3
172
1
173
0
174
0
175
0
176
0
177
0
178
0
179
2
271
2
272
2
273
2
274
3
275
0
276
0
277
2
278
44
279
0
280
0
281
0
282
0
283
0
284
8
285
0
286
0
288
0
289
3
290
0
371
-2
372
-2
  0
ENDTAB
  0
TABLE
  2
BLOCK_RECORD
  5
9
330
0
100
AcDbSymbolTable
 70
2
  0
BLOCK_RECORD
  5
17
330
9
100
AcDbSymbolTableRecord
100
AcDbBlockTableRecord
  2
*Model_Space
340
1A
 70
0
280
1
281
0
  0
BLOCK_RECORD
  5
1B
330
9
100
AcDbSymbolTableRecord
100
AcDbBlockTableRecord
  2
*Paper_Space
340
1E
 70
0
280
1
281
0
  0
ENDTAB
  0
ENDSEC
  0
SECTION
  2
BLOCKS
  0
BLOCK
  5
18
330
17
100
AcDbEntity
  8
0
100
AcDbBlockBegin
  2
*Model_Space
 70
0
 10
0.0
 20
0.0
 30
0.0
  3
*Model_Space
  1

  0
ENDBLK
  5
19
330
17
100
AcDbEntity
  8
0
100
AcDbBlockEnd
  0
BLOCK
  5
1C
330
1B
100
AcDbEntity
  8
0
100
AcDbBlockBegin
  2
*Paper_Space
 70
0
 10
0.0
 20
0.0
 30
0.0
  3
*Paper_Space
  1

  0
ENDBLK
  5
1D
330
1B
100
AcDbEntity
  8
0
100
AcDbBlockEnd
  0
ENDSEC
  0
SECTION
  2
ENTITIES
  0
LWPOLYLINE
  5
2F
330
17
100
AcDbEntity
  8
0
100
AcDbPolyline
 90
5
 70
0
 10
0.0
 20
792.0
 10
0.0
 20
0.0
 10
1224.0
 20
0.0
 10
1224.0
 20
792.0
 10
0.0
 20
792.0
  0
LWPOLYLINE
  5
30
330
17
100
AcDbEntity
  8
0
100
AcDbPolyline
 90
5
 70
0
 10
35.0
 20
774.0
 10
35.0
 20
17.0
 10
1206.0
 20
17.0
 10
1206.0
 20
774.0
 10
35.0
 20
774.0
  0
LWPOLYLINE
  5
31
330
17
100
AcDbEntity
  8
0
100
AcDbPolyline
 90
5
 70
0
 10
36.0
 20
773.0
 10
36.0
 20
18.0
 10
1205.0
 20
18.0
 10
1205.0
 20
773.0
 10
36.0
 20
773.0
  0
LWPOLYLINE
  5
32
330
17
100
AcDbEntity
  8
0
100
AcDbPolyline
 90
356
 70
0
 10
585.0
 20
562.0
 10
585.0
 20
561.0
 10
587.0
 20
554.0
 10
551.0
 20
555.0
 10
551.331787
 20
484.0
 10
551.0
 20
413.0
 10
569.0
 20
414.0
 10
568.0
 20
396.0
 10
567.009
 20
396.0766
 10
566.018
 20
396.1517
 10
565.0269
 20
396.225
 10
564.0356
 20
396.2967
 10
563.0443
 20
396.3667
 10
562.0528
 20
396.4351
 10
561.0612
 20
396.5019
 10
560.0695
 20
396.5671
 10
559.0777
 20
396.6307
 10
558.0858
 20
396.6927
 10
557.0938
 20
396.7531
 10
556.1017
 20
396.812
 10
555.1094
 20
396.8693
 10
554.1171
 20
396.9252
 10
553.1246
 20
396.9795
 10
552.1321
 20
397.0323
 10
551.1395
 20
397.0836
 10
550.1467
 20
397.1335
 10
549.1539
 20
397.1819
 10
548.1609
 20
397.2288
 10
547.1678
 20
397.2743
 10
546.1747
 20
397.3184
 10
545.1815
 20
397.3611
 10
544.1881
 20
397.4024
 10
543.1947
 20
397.4423
 10
542.2011
 20
397.4809
 10
541.2075
 20
397.5181
 10
540.2138
 20
397.5539
 10
539.22
 20
397.5884
 10
538.2261
 20
397.6217
 10
537.2321
 20
397.6536
 10
536.238
 20
397.6842
 10
535.2439
 20
397.7136
 10
534.2496
 20
397.7417
 10
533.2553
 20
397.7685
 10
532.2609
 20
397.7941
 10
531.2663
 20
397.8185
 10
530.2718
 20
397.8417
 10
529.2771
 20
397.8637
 10
528.2823
 20
397.8846
 10
527.2875
 20
397.9042
 10
526.2926
 20
397.9227
 10
525.2976
 20
397.9401
 10
524.3025
 20
397.9563
 10
523.3074
 20
397.9714
 10
522.3121
 20
397.9854
 10
521.3168
 20
397.9984
 10
520.3214
 20
398.0102
 10
519.326
 20
398.021
 10
518.3305
 20
398.0308
 10
517.3349
 20
398.0395
 10
516.3392
 20
398.0472
 10
515.3435
 20
398.0539
 10
514.3477
 20
398.0595
 10
513.3518
 20
398.0643
 10
512.3559
 20
398.068
 10
511.3599
 20
398.0708
 10
510.3638
 20
398.0726
 10
509.3677
 20
398.0736
 10
508.3715
 20
398.0736
 10
507.3752
 20
398.0727
 10
506.3789
 20
398.0709
 10
505.3825
 20
398.0683
 10
504.3861
 20
398.0647
 10
503.3896
 20
398.0604
 10
502.393
 20
398.0552
 10
501.3964
 20
398.0492
 10
500.3997
 20
398.0423
 10
499.403
 20
398.0347
 10
498.4062
 20
398.0263
 10
497.4093
 20
398.0171
 10
496.4125
 20
398.0072
 10
495.4155
 20
397.9966
 10
494.4185
 20
397.9852
 10
493.4215
 20
397.9731
 10
492.4244
 20
397.9602
 10
491.4273
 20
397.9467
 10
490.4301
 20
397.9326
 10
489.4328
 20
397.9177
 10
488.4356
 20
397.9023
 10
487.4382
 20
397.8861
 10
486.4409
 20
397.8694
 10
485.4435
 20
397.8521
 10
484.446
 20
397.8341
 10
483.4485
 20
397.8156
 10
482.451
 20
397.7965
 10
481.4534
 20
397.7769
 10
480.4558
 20
397.7567
 10
479.4581
 20
397.736
 10
478.4605
 20
397.7147
 10
477.4627
 20
397.693
 10
476.465
 20
397.6708
 10
475.4672
 20
397.6481
 10
474.4694
 20
397.6249
 10
473.4715
 20
397.6013
 10
472.4737
 20
397.5773
 10
471.4757
 20
397.5528
 10
470.4778
 20
397.5279
 10
469.4798
 20
397.5026
 10
468.4818
 20
397.477
 10
467.4838
 20
397.451
 10
466.4858
 20
397.4246
 10
465.4877
 20
397.3979
 10
464.4896
 20
397.3708
 10
463.4915
 20
397.3435
 10
462.4933
 20
397.3158
 10
461.4952
 20
397.2878
 10
460.497
 20
397.2596
 10
459.4988
 20
397.2311
 10
458.5006
 20
397.2024
 10
457.5023
 20
397.1734
 10
456.5041
 20
397.1442
 10
455.5058
 20
397.1148
 10
454.5075
 20
397.0852
 10
453.5092
 20
397.0554
 10
452.5109
 20
397.0254
 10
451.5126
 20
396.9953
 10
450.5142
 20
396.965
 10
449.5159
 20
396.9347
 10
448.5175
 20
396.9041
 10
447.5192
 20
396.8735
 10
446.5208
 20
396.8428
 10
445.5224
 20
396.8121
 10
444.524
 20
396.7812
 10
443.5257
 20
396.7503
 10
442.5273
 20
396.7194
 10
441.5289
 20
396.6885
 10
440.5305
 20
396.6575
 10
439.5321
 20
396.6266
 10
438.5337
 20
396.5956
 10
437.5353
 20
396.5647
 10
436.5369
 20
396.5339
 10
435.5385
 20
396.5031
 10
434.5401
 20
396.4723
 10
433.5417
 20
396.4417
 10
432.5433
 20
396.4111
 10
431.545
 20
396.3807
 10
430.5466
 20
396.3503
 10
429.5483
 20
396.3202
 10
428.5499
 20
396.2901
 10
427.5516
 20
396.2602
 10
426.5532
 20
396.2305
 10
425.5549
 20
396.201
 10
424.5566
 20
396.1717
 10
423.5583
 20
396.1426
 10
422.56
 20
396.1138
 10
421.5618
 20
396.0852
 10
420.5635
 20
396.0568
 10
419.5653
 20
396.0287
 10
418.5671
 20
396.0009
 10
417.5689
 20
395.9734
 10
416.5707
 20
395.9462
 10
415.5726
 20
395.9193
 10
414.5744
 20
395.8928
 10
413.5763
 20
395.8666
 10
412.5783
 20
395.8407
 10
411.5802
 20
395.8153
 10
410.5822
 20
395.7902
 10
409.5842
 20
395.7655
 10
408.5862
 20
395.7413
 10
407.5882
 20
395.7175
 10
406.5903
 20
395.6941
 10
405.5924
 20
395.6712
 10
404.5945
 20
395.6487
 10
403.5967
 20
395.6267
 10
402.5989
 20
395.6052
 10
401.6011
 20
395.5843
 10
400.6034
 20
395.5638
 10
399.6057
 20
395.5439
 10
398.608
 20
395.5246
 10
397.6104
 20
395.5058
 10
396.6128
 20
395.4875
 10
395.6153
 20
395.4699
 10
394.6178
 20
395.4529
 10
393.6203
 20
395.4364
 10
392.6229
 20
395.4206
 10
391.6255
 20
395.4055
 10
390.6281
 20
395.391
 10
389.6308
 20
395.3772
 10
388.6336
 20
395.364
 10
387.6364
 20
395.3516
 10
386.6392
 20
395.3398
 10
385.6421
 20
395.3288
 10
384.645
 20
395.3185
 10
383.648
 20
395.309
 10
382.6511
 20
395.3002
 10
381.6541
 20
395.2922
 10
380.6573
 20
395.285
 10
379.6605
 20
395.2786
 10
378.6637
 20
395.273
 10
377.667
 20
395.2682
 10
376.6704
 20
395.2643
 10
375.6738
 20
395.2612
 10
374.6773
 20
395.259
 10
373.6808
 20
395.2577
 10
372.6844
 20
395.2572
 10
371.688
 20
395.2577
 10
370.6917
 20
395.2591
 10
369.6955
 20
395.2614
 10
368.6994
 20
395.2647
 10
367.7033
 20
395.269
 10
366.7072
 20
395.2742
 10
365.7113
 20
395.2804
 10
364.7154
 20
395.2876
 10
363.7195
 20
395.2958
 10
362.7238
 20
395.305
 10
361.7281
 20
395.3153
 10
360.7324
 20
395.3267
 10
359.7369
 20
395.3391
 10
358.7414
 20
395.3526
 10
357.746
 20
395.3671
 10
356.7507
 20
395.3828
 10
355.7554
 20
395.3996
 10
354.7602
 20
395.4176
 10
353.7651
 20
395.4367
 10
352.7701
 20
395.4569
 10
351.7751
 20
395.4783
 10
350.7803
 20
395.5009
 10
349.7855
 20
395.5248
 10
348.7907
 20
395.5498
 10
347.7961
 20
395.576
 10
346.8016
 20
395.6035
 10
345.8071
 20
395.6323
 10
344.8127
 20
395.6623
 10
343.8184
 20
395.6936
 10
342.8242
 20
395.7261
 10
341.8301
 20
395.76
 10
340.8361
 20
395.7952
 10
339.8422
 20
395.8318
 10
338.8483
 20
395.8697
 10
337.8546
 20
395.9089
 10
336.8609
 20
395.9495
 10
335.8673
 20
395.9916
 10
334.8738
 20
396.035
 10
333.8805
 20
396.0798
 10
332.8872
 20
396.126
 10
331.894
 20
396.1737
 10
330.9009
 20
396.2229
 10
329.9079
 20
396.2735
 10
328.915
 20
396.3256
 10
327.9222
 20
396.3791
 10
326.9295
 20
396.4342
 10
325.9369
 20
396.4908
 10
324.9444
 20
396.549
 10
323.952
 20
396.6086
 10
322.9598
 20
396.6699
 10
321.9676
 20
396.7327
 10
320.9755
 20
396.7971
 10
319.9835
 20
396.8631
 10
318.9917
 20
396.9307
 10
318.0
 20
397.0
 10
318.0
 20
363.0
 10
304.0
 20
363.0
 10
305.0
 20
371.0
 10
293.0
 20
371.0
 10
293.0
 20
364.0
 10
282.0
 20
363.0
 10
282.0
 20
355.0
 10
287.0
 20
355.0
 10
287.0
 20
338.0
 10
282.0
 20
338.0
 10
282.0
 20
274.0
 10
572.0
 20
274.0
 10
572.0
 20
248.0
 10
621.0
 20
248.0
 10
621.0
 20
256.0
 10
652.0
 20
256.0
 10
652.0
 20
255.0
 10
650.0
 20
250.0
 10
651.1962
 20
250.029
 10
652.2864
 20
250.0961
 10
653.2736
 20
250.2155
 10
654.1607
 20
250.4014
 10
654.9505
 20
250.6681
 10
655.6459
 20
251.03
 10
656.2499
 20
251.5014
 10
656.7654
 20
252.0965
 10
657.1952
 20
252.8296
 10
657.5423
 20
253.715
 10
657.8096
 20
254.767
 10
658.0
 20
256.0
 10
937.0
 20
256.0
 10
937.0
 20
320.0
 10
933.0
 20
320.0
 10
933.0
 20
321.0
 10
945.0
 20
321.0
 10
945.0
 20
315.0
 10
946.0
 20
315.0
 10
946.0
 20
321.0
 10
958.0
 20
321.0
 10
958.0
 20
229.0
 10
959.0
 20
229.0
 10
959.0
 20
322.0
 10
946.0
 20
322.0
 10
946.0
 20
335.0
 10
959.0
 20
335.0
 10
959.0
 20
428.0
 10
958.0
 20
428.0
 10
958.0
 20
336.0
 10
946.0
 20
336.0
 10
946.0
 20
340.0
 10
945.0
 20
340.0
 10
945.0
 20
336.0
 10
933.0
 20
336.0
 10
933.0
 20
337.0
 10
937.0
 20
337.0
 10
937.0
 20
347.0
 10
904.0
 20
347.0
 10
904.0
 20
397.0
 10
731.0
 20
396.3349
 10
625.0
 20
396.0
 10
624.0
 20
414.0
 10
642.0
 20
413.0
 10
641.0
 20
457.0
 10
642.000793
 20
468.0
 10
642.0
 20
499.0
 10
641.0
 20
511.0
 10
641.1637
 20
511.5961
 10
641.3313
 20
512.2889
 10
641.5008
 20
513.0703
 10
641.6703
 20
513.932
 10
641.8378
 20
514.8658
 10
642.0013
 20
515.8634
 10
642.1587
 20
516.9166
 10
642.3082
 20
518.0173
 10
642.4478
 20
519.1572
 10
642.5754
 20
520.328
 10
642.689
 20
521.5215
 10
642.7868
 20
522.7296
 10
642.8668
 20
523.9439
 10
642.9268
 20
525.1564
 10
642.9651
 20
526.3586
 10
642.9795
 20
527.5425
 10
642.9681
 20
528.6998
 10
642.929
 20
529.8222
 10
642.86
 20
530.9016
 10
642.7594
 20
531.9297
 10
642.625
 20
532.8983
 10
642.455
 20
533.7992
 10
642.2473
 20
534.6242
 10
641.9999
 20
535.3649
 10
641.7108
 20
536.0133
 10
641.3782
 20
536.561
 10
641.0
 20
537.0
 10
642.0
 20
555.0
 10
606.0
 20
554.0
 10
609.0
 20
561.0
 10
585.0
 20
562.0
  0
LWPOLYLINE
  5
33
330
17
100
AcDbEntity
  8
0
100
AcDbPolyline
 90
1938
 70
0
 10
589.0
 20
561.0
 10
589.0
 20
554.0
 10
591.0
 20
554.0
 10
594.0
 20
559.0
 10
594.0
 20
558.0
 10
592.0
 20
552.0
 10
582.0
 20
549.0
 10
581.5169
 20
549.4769
 10
580.9526
 20
549.9012
 10
580.3124
 20
550.2755
 10
579.602
 20
550.6023
 10
578.8266
 20
550.8843
 10
577.9919
 20
551.1241
 10
577.1033
 20
551.3243
 10
576.1662
 20
551.4876
 10
575.1862
 20
551.6164
 10
574.1687
 20
551.7135
 10
573.1192
 20
551.7815
 10
572.0432
 20
551.8229
 10
570.9461
 20
551.8404
 10
569.8335
 20
551.8366
 10
568.7108
 20
551.8141
 10
567.5834
 20
551.7756
 10
566.457
 20
551.7235
 10
565.3368
 20
551.6607
 10
564.2285
 20
551.5895
 10
563.1375
 20
551.5128
 10
562.0692
 20
551.433
 10
561.0292
 20
551.3529
 10
560.0229
 20
551.2749
 10
559.0558
 20
551.2018
 10
558.1333
 20
551.1361
 10
557.2611
 20
551.0804
 10
556.4444
 20
551.0375
 10
555.6889
 20
551.0098
 10
555.0
 20
551.0
 10
555.0
 20
537.0
 10
587.0
 20
537.0
 10
586.0
 20
546.0
 10
586.6791
 20
545.5075
 10
587.2901
 20
544.9584
 10
587.8346
 20
544.3569
 10
588.3142
 20
543.7072
 10
588.7306
 20
543.0135
 10
589.0853
 20
542.28
 10
589.38
 20
541.5109
 10
589.6163
 20
540.7103
 10
589.7959
 20
539.8826
 10
589.9204
 20
539.0319
 10
589.9913
 20
538.1623
 10
590.0103
 20
537.2782
 10
589.9791
 20
536.3836
 10
589.8993
 20
535.4829
 10
589.7725
 20
534.5801
 10
589.6003
 20
533.6796
 10
589.3843
 20
532.7855
 10
589.1262
 20
531.902
 10
588.8276
 20
531.0333
 10
588.4902
 20
530.1836
 10
588.1154
 20
529.3571
 10
587.7051
 20
528.5581
 10
587.2608
 20
527.7906
 10
586.784
 20
527.059
 10
586.2766
 20
526.3674
 10
585.74
 20
525.7201
 10
585.1759
 20
525.1211
 10
584.586
 20
524.5748
 10
583.9718
 20
524.0854
 10
583.3349
 20
523.6569
 10
582.6771
 20
523.2937
 10
582.0
 20
523.0
 10
587.0
 20
526.0
 10
586.967
 20
526.9003
 10
586.876
 20
527.7469
 10
586.7289
 20
528.5415
 10
586.5276
 20
529.2855
 10
586.2742
 20
529.9805
 10
585.9705
 20
530.6279
 10
585.6185
 20
531.2293
 10
585.2202
 20
531.7861
 10
584.7774
 20
532.3001
 10
584.2923
 20
532.7725
 10
583.7666
 20
533.205
 10
583.2023
 20
533.5991
 10
582.6015
 20
533.9563
 10
581.966
 20
534.2782
 10
581.2978
 20
534.5661
 10
580.5989
 20
534.8218
 10
579.8711
 20
535.0466
 10
579.1165
 20
535.2422
 10
578.337
 20
535.41
 10
577.5346
 20
535.5515
 10
576.7111
 20
535.6683
 10
575.8686
 20
535.7619
 10
575.009
 20
535.8338
 10
574.1342
 20
535.8855
 10
573.2462
 20
535.9186
 10
572.3469
 20
535.9346
 10
571.4384
 20
535.935
 10
570.5225
 20
535.9213
 10
569.6011
 20
535.895
 10
568.6764
 20
535.8577
 10
567.7501
 20
535.8108
 10
566.8242
 20
535.756
 10
565.9007
 20
535.6947
 10
564.9816
 20
535.6284
 10
564.0687
 20
535.5587
 10
563.1641
 20
535.4871
 10
562.2697
 20
535.4151
 10
561.3874
 20
535.3442
 10
560.5192
 20
535.2759
 10
559.6671
 20
535.2118
 10
558.8329
 20
535.1534
 10
558.0186
 20
535.1022
 10
557.2263
 20
535.0598
 10
556.4577
 20
535.0275
 10
555.715
 20
535.0071
 10
555.0
 20
535.0
 10
555.0
 20
511.0
 10
587.0
 20
511.0
 10
585.0
 20
520.0
 10
585.0
 20
521.0
 10
589.0
 20
521.0
 10
589.0
 20
499.0
 10
582.0
 20
498.0
 10
587.0
 20
500.0
 10
586.967
 20
500.9003
 10
586.876
 20
501.7469
 10
586.7289
 20
502.5415
 10
586.5276
 20
503.2855
 10
586.2742
 20
503.9805
 10
585.9705
 20
504.6279
 10
585.6185
 20
505.2293
 10
585.2202
 20
505.7861
 10
584.7774
 20
506.3001
 10
584.2923
 20
506.7725
 10
583.7666
 20
507.205
 10
583.2023
 20
507.5991
 10
582.6015
 20
507.9563
 10
581.966
 20
508.2782
 10
581.2978
 20
508.5661
 10
580.5989
 20
508.8218
 10
579.8711
 20
509.0466
 10
579.1165
 20
509.2422
 10
578.337
 20
509.41
 10
577.5346
 20
509.5515
 10
576.7111
 20
509.6683
 10
575.8686
 20
509.7619
 10
575.009
 20
509.8338
 10
574.1342
 20
509.8855
 10
573.2462
 20
509.9186
 10
572.3469
 20
509.9346
 10
571.4384
 20
509.935
 10
570.5225
 20
509.9213
 10
569.6011
 20
509.895
 10
568.6764
 20
509.8577
 10
567.7501
 20
509.8108
 10
566.8242
 20
509.756
 10
565.9007
 20
509.6947
 10
564.9816
 20
509.6284
 10
564.0687
 20
509.5587
 10
563.1641
 20
509.4871
 10
562.2697
 20
509.4151
 10
561.3874
 20
509.3442
 10
560.5192
 20
509.2759
 10
559.6671
 20
509.2118
 10
558.8329
 20
509.1534
 10
558.0186
 20
509.1022
 10
557.2263
 20
509.0598
 10
556.4577
 20
509.0275
 10
555.715
 20
509.0071
 10
555.0
 20
509.0
 10
555.0
 20
485.0
 10
555.9642
 20
484.995
 10
556.9369
 20
484.9807
 10
557.9174
 20
484.9584
 10
558.905
 20
484.9292
 10
559.899
 20
484.8943
 10
560.8988
 20
484.8547
 10
561.9036
 20
484.8116
 10
562.9127
 20
484.7663
 10
563.9254
 20
484.7197
 10
564.9411
 20
484.6732
 10
565.9591
 20
484.6278
 10
566.9787
 20
484.5847
 10
567.9991
 20
484.5451
 10
569.0197
 20
484.5101
 10
570.0398
 20
484.4808
 10
571.0588
 20
484.4584
 10
572.0758
 20
484.4441
 10
573.0903
 20
484.439
 10
574.1015
 20
484.4443
 10
575.1087
 20
484.4611
 10
576.1113
 20
484.4905
 10
577.1086
 20
484.5338
 10
578.0998
 20
484.592
 10
579.0843
 20
484.6663
 10
580.0614
 20
484.758
 10
581.0304
 20
484.868
 10
581.9906
 20
484.9977
 10
582.9413
 20
485.1481
 10
583.8527
 20
485.3817
 10
584.6441
 20
485.7409
 10
585.3161
 20
486.2096
 10
585.8692
 20
486.7718
 10
586.304
 20
487.4112
 10
586.6213
 20
488.1121
 10
586.8216
 20
488.8582
 10
586.9055
 20
489.6335
 10
586.8737
 20
490.4219
 10
586.7267
 20
491.2075
 10
586.4653
 20
491.9742
 10
586.0899
 20
492.7058
 10
585.6013
 20
493.3864
 10
585.0
 20
494.0
 10
585.0
 20
495.0
 10
589.0
 20
495.0
 10
589.0
 20
473.0
 10
582.0
 20
472.0
 10
587.0
 20
474.0
 10
586.967
 20
474.9003
 10
586.876
 20
475.7469
 10
586.7289
 20
476.5415
 10
586.5276
 20
477.2855
 10
586.2742
 20
477.9805
 10
585.9705
 20
478.6279
 10
585.6185
 20
479.2293
 10
585.2202
 20
479.7861
 10
584.7774
 20
480.3001
 10
584.2923
 20
480.7725
 10
583.7666
 20
481.205
 10
583.2023
 20
481.5991
 10
582.6015
 20
481.9563
 10
581.966
 20
482.2782
 10
581.2978
 20
482.5661
 10
580.5989
 20
482.8218
 10
579.8711
 20
483.0466
 10
579.1165
 20
483.2422
 10
578.337
 20
483.41
 10
577.5346
 20
483.5515
 10
576.7111
 20
483.6683
 10
575.8686
 20
483.7619
 10
575.009
 20
483.8338
 10
574.1342
 20
483.8855
 10
573.2462
 20
483.9186
 10
572.3469
 20
483.9346
 10
571.4384
 20
483.935
 10
570.5225
 20
483.9213
 10
569.6011
 20
483.895
 10
568.6764
 20
483.8577
 10
567.7501
 20
483.8108
 10
566.8242
 20
483.756
 10
565.9007
 20
483.6947
 10
564.9816
 20
483.6284
 10
564.0687
 20
483.5587
 10
563.1641
 20
483.4871
 10
562.2697
 20
483.4151
 10
561.3874
 20
483.3442
 10
560.5192
 20
483.2759
 10
559.6671
 20
483.2118
 10
558.8329
 20
483.1534
 10
558.0186
 20
483.1022
 10
557.2263
 20
483.0598
 10
556.4577
 20
483.0275
 10
555.715
 20
483.0071
 10
555.0
 20
483.0
 10
555.0
 20
459.0
 10
555.5725
 20
458.9942
 10
556.1793
 20
458.9778
 10
556.8182
 20
458.9517
 10
557.4872
 20
458.9171
 10
558.1844
 20
458.8752
 10
558.9078
 20
458.8269
 10
559.6554
 20
458.7735
 10
560.4251
 20
458.716
 10
561.2151
 20
458.6555
 10
562.0232
 20
458.5932
 10
562.8475
 20
458.5302
 10
563.6861
 20
458.4675
 10
564.5369
 20
458.4063
 10
565.3979
 20
458.3477
 10
566.2671
 20
458.2928
 10
567.1426
 20
458.2427
 10
568.0223
 20
458.1986
 10
568.9042
 20
458.1614
 10
569.7864
 20
458.1324
 10
570.6669
 20
458.1126
 10
571.5437
 20
458.1032
 10
572.4147
 20
458.1053
 10
573.2781
 20
458.1199
 10
574.1317
 20
458.1482
 10
574.9736
 20
458.1913
 10
575.8019
 20
458.2503
 10
576.6144
 20
458.3263
 10
577.4093
 20
458.4204
 10
578.1845
 20
458.5338
 10
578.938
 20
458.6675
 10
579.6678
 20
458.8227
 10
580.3721
 20
459.0004
 10
581.0486
 20
459.2017
 10
581.6956
 20
459.4279
 10
582.3109
 20
459.6799
 10
582.8925
 20
459.9589
 10
583.4386
 20
460.2661
 10
583.947
 20
460.6024
 10
584.4159
 20
460.9691
 10
584.8431
 20
461.3672
 10
585.2268
 20
461.7978
 10
585.5649
 20
462.2621
 10
585.8554
 20
462.7612
 10
586.0963
 20
463.2961
 10
586.2856
 20
463.868
 10
586.4214
 20
464.478
 10
586.5017
 20
465.1272
 10
586.5244
 20
465.8167
 10
586.4876
 20
466.5476
 10
586.3892
 20
467.3211
 10
586.2273
 20
468.1381
 10
586.0
 20
469.0
 10
586.6791
 20
468.5075
 10
587.2901
 20
467.9584
 10
587.8346
 20
467.357
 10
588.3142
 20
466.7073
 10
588.7306
 20
466.0136
 10
589.0853
 20
465.28
 10
589.38
 20
464.5109
 10
589.6163
 20
463.7104
 10
589.7959
 20
462.8826
 10
589.9204
 20
462.0319
 10
589.9913
 20
461.1623
 10
590.0103
 20
460.2782
 10
589.9791
 20
459.3836
 10
589.8993
 20
458.4829
 10
589.7725
 20
457.5801
 10
589.6003
 20
456.6796
 10
589.3843
 20
455.7855
 10
589.1262
 20
454.902
 10
588.8276
 20
454.0333
 10
588.4902
 20
453.1836
 10
588.1154
 20
452.3571
 10
587.7051
 20
451.558
 10
587.2608
 20
450.7906
 10
586.784
 20
450.059
 10
586.2766
 20
449.3674
 10
585.74
 20
448.7201
 10
585.1759
 20
448.1211
 10
584.586
 20
447.5748
 10
583.9718
 20
447.0854
 10
583.3349
 20
446.6569
 10
582.6771
 20
446.2937
 10
582.0
 20
446.0
 10
587.0
 20
449.0
 10
587.0
 20
457.0
 10
555.0
 20
457.0
 10
555.0
 20
433.0
 10
555.5725
 20
432.9942
 10
556.1793
 20
432.9778
 10
556.8182
 20
432.9517
 10
557.4872
 20
432.9171
 10
558.1844
 20
432.8752
 10
558.9078
 20
432.8269
 10
559.6554
 20
432.7735
 10
560.4251
 20
432.716
 10
561.2151
 20
432.6555
 10
562.0232
 20
432.5932
 10
562.8475
 20
432.5302
 10
563.6861
 20
432.4675
 10
564.5369
 20
432.4063
 10
565.3979
 20
432.3477
 10
566.2671
 20
432.2928
 10
567.1426
 20
432.2427
 10
568.0223
 20
432.1986
 10
568.9042
 20
432.1614
 10
569.7864
 20
432.1324
 10
570.6669
 20
432.1126
 10
571.5437
 20
432.1032
 10
572.4147
 20
432.1053
 10
573.2781
 20
432.1199
 10
574.1317
 20
432.1482
 10
574.9736
 20
432.1913
 10
575.8019
 20
432.2503
 10
576.6144
 20
432.3263
 10
577.4093
 20
432.4204
 10
578.1845
 20
432.5338
 10
578.938
 20
432.6675
 10
579.6678
 20
432.8227
 10
580.3721
 20
433.0004
 10
581.0486
 20
433.2017
 10
581.6956
 20
433.4279
 10
582.3109
 20
433.6799
 10
582.8925
 20
433.9589
 10
583.4386
 20
434.2661
 10
583.947
 20
434.6024
 10
584.4159
 20
434.9691
 10
584.8431
 20
435.3672
 10
585.2268
 20
435.7978
 10
585.5649
 20
436.2621
 10
585.8554
 20
436.7612
 10
586.0963
 20
437.2961
 10
586.2856
 20
437.868
 10
586.4214
 20
438.478
 10
586.5017
 20
439.1272
 10
586.5244
 20
439.8167
 10
586.4876
 20
440.5476
 10
586.3892
 20
441.3211
 10
586.2273
 20
442.1381
 10
586.0
 20
443.0
 10
586.5374
 20
442.5875
 10
587.0318
 20
442.0803
 10
587.4832
 20
441.486
 10
587.8916
 20
440.8127
 10
588.257
 20
440.0683
 10
588.5795
 20
439.2606
 10
588.8589
 20
438.3975
 10
589.0954
 20
437.4871
 10
589.2889
 20
436.5371
 10
589.4393
 20
435.5554
 10
589.5468
 20
434.5501
 10
589.6113
 20
433.529
 10
589.6328
 20
432.4999
 10
589.6113
 20
431.4709
 10
589.5468
 20
430.4497
 10
589.4393
 20
429.4444
 10
589.2889
 20
428.4628
 10
589.0954
 20
427.5128
 10
588.8589
 20
426.6023
 10
588.5795
 20
425.7393
 10
588.257
 20
424.9316
 10
587.8916
 20
424.1871
 10
587.4832
 20
423.5139
 10
587.0318
 20
422.9196
 10
586.5374
 20
422.4124
 10
586.0
 20
422.0
 10
587.0
 20
431.0
 10
555.0
 20
431.0
 10
555.0
 20
417.0
 10
587.0
 20
416.0
 10
587.0
 20
417.0
 10
582.0
 20
419.0
 10
589.0
 20
418.0
 10
589.0
 20
413.0
 10
572.0
 20
414.0
 10
572.0
 20
406.0
 10
576.0
 20
406.0
 10
576.0
 20
407.0
 10
573.0
 20
408.0
 10
584.0
 20
412.0
 10
589.0
 20
409.0
 10
590.0
 20
390.0
 10
594.0
 20
389.0
 10
600.0
 20
391.0
 10
600.0
 20
383.0
 10
599.0
 20
383.0
 10
598.0
 20
385.0
 10
597.0
 20
385.0
 10
589.0
 20
383.0
 10
589.0
 20
378.0
 10
599.0
 20
379.0
 10
599.0
 20
375.0
 10
589.0
 20
376.0
 10
600.0
 20
370.0
 10
584.0
 20
371.0
 10
584.0
 20
370.0
 10
589.0
 20
370.0
 10
589.0
 20
362.0
 10
579.0
 20
362.0
 10
579.0
 20
356.0
 10
588.0
 20
356.0
 10
591.0
 20
358.0
 10
589.0
 20
361.0
 10
589.0
 20
362.0
 10
595.0
 20
360.0
 10
595.0
 20
356.0
 10
584.0
 20
352.0
 10
592.0
 20
353.0
 10
592.0
 20
349.0
 10
581.0
 20
349.0
 10
583.0
 20
354.0
 10
572.0
 20
354.0
 10
572.0
 20
352.0
 10
577.0
 20
350.0
 10
570.0
 20
351.0
 10
570.0
 20
355.0
 10
562.0
 20
355.0
 10
559.0
 20
350.0
 10
559.0
 20
351.0
 10
561.0
 20
357.0
 10
577.0
 20
357.0
 10
577.0
 20
368.0
 10
559.0
 20
368.0
 10
559.0
 20
372.0
 10
560.0
 20
372.0
 10
577.0
 20
370.0
 10
574.0
 20
380.0
 10
573.1795
 20
379.6119
 10
572.2967
 20
379.2547
 10
571.3632
 20
378.9357
 10
570.3902
 20
378.662
 10
569.3892
 20
378.4408
 10
568.3716
 20
378.2793
 10
567.3487
 20
378.1847
 10
566.332
 20
378.1642
 10
565.3329
 20
378.225
 10
564.3628
 20
378.3743
 10
563.433
 20
378.6192
 10
562.555
 20
378.967
 10
561.7402
 20
379.4249
 10
561.0
 20
380.0
 10
560.0
 20
380.0
 10
560.0
 20
378.0
 10
559.0
 20
378.0
 10
559.0
 20
380.0
 10
554.0
 20
378.0
 10
557.0
 20
375.0
 10
557.0
 20
374.0
 10
556.3571
 20
373.3626
 10
555.8056
 20
372.6447
 10
555.3388
 20
371.8545
 10
554.9501
 20
371.0005
 10
554.6328
 20
370.091
 10
554.3804
 20
369.1342
 10
554.1861
 20
368.1385
 10
554.0435
 20
367.1122
 10
553.9459
 20
366.0637
 10
553.8867
 20
365.0013
 10
553.8592
 20
363.9333
 10
553.8568
 20
362.868
 10
553.873
 20
361.8137
 10
553.901
 20
360.7789
 10
553.9344
 20
359.7718
 10
553.9664
 20
358.8007
 10
553.9905
 20
357.874
 10
554.0
 20
357.0
 10
557.0
 20
357.0
 10
557.0
 20
353.0
 10
556.0
 20
353.0
 10
539.0
 20
355.0
 10
537.0
 20
350.0
 10
538.0
 20
357.0
 10
552.0
 20
357.0
 10
552.0
 20
394.0
 10
502.0
 20
394.0
 10
502.0
 20
357.0
 10
508.0
 20
350.0
 10
505.0
 20
355.0
 10
463.0
 20
355.0
 10
463.0
 20
350.0
 10
460.0
 20
351.0
 10
462.0
 20
357.0
 10
500.0
 20
357.0
 10
500.0
 20
394.0
 10
450.0
 20
394.0
 10
450.0
 20
377.0
 10
455.0
 20
377.0
 10
455.0
 20
373.0
 10
454.0
 20
373.0
 10
454.0
 20
376.0
 10
448.0
 20
376.0
 10
448.0
 20
394.0
 10
426.0
 20
394.0
 10
427.0
 20
373.0
 10
435.0
 20
373.0
 10
435.0
 20
377.0
 10
431.0
 20
376.0
 10
443.0
 20
379.0
 10
443.0
 20
376.0
 10
436.0
 20
377.0
 10
438.0
 20
373.0
 10
439.0
 20
373.0
 10
444.0
 20
375.0
 10
444.0
 20
374.0
 10
442.0
 20
374.0
 10
442.0
 20
373.0
 10
448.0
 20
375.0
 10
448.2403
 20
373.9018
 10
448.6428
 20
373.1248
 10
449.205
 20
372.6101
 10
449.9243
 20
372.2991
 10
450.7983
 20
372.1329
 10
451.8243
 20
372.0527
 10
453.0
 20
372.0
 10
453.0
 20
371.0
 10
450.0
 20
371.0
 10
450.0
 20
357.0
 10
455.0
 20
357.0
 10
456.0
 20
352.0
 10
454.0
 20
355.0
 10
438.0
 20
355.0
 10
436.0
 20
350.0
 10
437.0
 20
357.0
 10
448.0
 20
357.0
 10
446.972229
 20
370.218353
 10
426.0
 20
371.0
 10
426.0
 20
357.0
 10
430.0
 20
357.0
 10
431.0
 20
352.0
 10
429.0
 20
355.0
 10
410.0
 20
354.0
 10
410.5752
 20
354.7588
 10
411.2259
 20
355.3923
 10
411.9447
 20
355.9108
 10
412.7237
 20
356.3251
 10
413.5554
 20
356.6456
 10
414.4322
 20
356.8829
 10
415.3464
 20
357.0476
 10
416.2905
 20
357.1501
 10
417.2566
 20
357.2011
 10
418.2374
 20
357.211
 10
419.225
 20
357.1905
 10
420.2119
 20
357.15
 10
421.1905
 20
357.1002
 10
422.1531
 20
357.0515
 10
423.0922
 20
357.0146
 10
424.0
 20
357.0
 10
424.0
 20
394.0
 10
399.0
 20
394.0
 10
399.0
 20
357.0
 10
406.0
 20
357.0
 10
407.0
 20
350.0
 10
405.0
 20
355.0
 10
373.0
 20
355.0
 10
359.0
 20
357.0
 10
397.0
 20
357.0
 10
397.0
 20
394.0
 10
354.0
 20
394.0
 10
353.9962
 20
393.0448
 10
353.9853
 20
392.0814
 10
353.9679
 20
391.1104
 10
353.9448
 20
390.132
 10
353.9166
 20
389.1468
 10
353.8839
 20
388.1552
 10
353.8475
 20
387.1576
 10
353.808
 20
386.1545
 10
353.766
 20
385.1462
 10
353.7224
 20
384.1333
 10
353.6776
 20
383.1161
 10
353.6325
 20
382.0951
 10
353.5876
 20
381.0707
 10
353.5437
 20
380.0434
 10
353.5014
 20
379.0135
 10
353.4614
 20
377.9815
 10
353.4244
 20
376.9479
 10
353.3909
 20
375.9131
 10
353.3618
 20
374.8775
 10
353.3377
 20
373.8416
 10
353.3192
 20
372.8057
 10
353.3071
 20
371.7703
 10
353.3019
 20
370.7359
 10
353.3044
 20
369.7029
 10
353.3153
 20
368.6717
 10
353.3352
 20
367.6427
 10
353.3647
 20
366.6165
 10
353.4046
 20
365.5933
 10
353.4555
 20
364.5737
 10
353.5182
 20
363.558
 10
353.5932
 20
362.5468
 10
353.6812
 20
361.5405
 10
353.783
 20
360.5394
 10
353.8991
 20
359.544
 10
354.0303
 20
358.5548
 10
354.1773
 20
357.5721
 10
354.3407
 20
356.5965
 10
354.5211
 20
355.6283
 10
354.7193
 20
354.668
 10
354.9359
 20
353.7161
 10
355.1716
 20
352.7728
 10
355.427
 20
351.8388
 10
355.7029
 20
350.9143
 10
356.0
 20
350.0
 10
353.0
 20
355.0
 10
350.0
 20
355.0
 10
347.0
 20
350.0
 10
352.0
 20
357.0
 10
352.0
 20
394.0
 10
321.0
 20
394.0
 10
322.0
 20
358.0
 10
344.0
 20
357.0
 10
344.0
 20
355.0
 10
338.0
 20
355.0
 10
338.0
 20
351.0
 10
331.0
 20
350.0
 10
336.0
 20
352.0
 10
335.5058
 20
352.6546
 10
334.9334
 20
353.2246
 10
334.2894
 20
353.7154
 10
333.58
 20
354.1322
 10
332.8119
 20
354.4803
 10
331.9913
 20
354.7649
 10
331.1248
 20
354.9914
 10
330.2189
 20
355.165
 10
329.2799
 20
355.2909
 10
328.3143
 20
355.3746
 10
327.3286
 20
355.4213
 10
326.3291
 20
355.4361
 10
325.3224
 20
355.4245
 10
324.315
 20
355.3918
 10
323.3131
 20
355.343
 10
322.3234
 20
355.2837
 10
321.3522
 20
355.219
 10
320.406
 20
355.1542
 10
319.4912
 20
355.0946
 10
318.6143
 20
355.0456
 10
317.7817
 20
355.0122
 10
317.0
 20
355.0
 10
317.0
 20
345.0
 10
314.0
 20
345.0
 10
314.0702
 20
344.2284
 10
314.2253
 20
343.4941
 10
314.4606
 20
342.7973
 10
314.7713
 20
342.1382
 10
315.1529
 20
341.517
 10
315.6006
 20
340.9341
 10
316.1098
 20
340.3895
 10
316.6757
 20
339.8835
 10
317.2938
 20
339.4163
 10
317.9593
 20
338.9882
 10
318.6675
 20
338.5993
 10
319.4138
 20
338.25
 10
320.1935
 20
337.9403
 10
321.002
 20
337.6706
 10
321.8345
 20
337.441
 10
322.6863
 20
337.2518
 10
323.5529
 20
337.1032
 10
324.4294
 20
336.9953
 10
325.3113
 20
336.9285
 10
326.1939
 20
336.903
 10
327.0724
 20
336.9189
 10
327.9423
 20
336.9765
 10
328.7987
 20
337.0761
 10
329.6372
 20
337.2177
 10
330.4529
 20
337.4017
 10
331.2412
 20
337.6283
 10
331.9974
 20
337.8977
 10
332.7169
 20
338.2101
 10
333.3949
 20
338.5657
 10
334.0269
 20
338.9647
 10
334.608
 20
339.4075
 10
335.1337
 20
339.8941
 10
335.5992
 20
340.4249
 10
336.0
 20
341.0
 10
331.0
 20
343.0
 10
338.0
 20
342.0
 10
339.0
 20
332.0
 10
328.0
 20
330.0
 10
327.0
 20
330.0
 10
336.0
 20
336.0
 10
286.0
 20
335.0
 10
286.0
 20
333.0
 10
324.0
 20
333.0
 10
325.0
 20
327.0
 10
323.0
 20
332.0
 10
287.0
 20
332.0
 10
287.0
 20
278.0
 10
287.9159
 20
277.9973
 10
288.8387
 20
277.9896
 10
289.7682
 20
277.9771
 10
290.7043
 20
277.9601
 10
291.6466
 20
277.9387
 10
292.5951
 20
277.9132
 10
293.5493
 20
277.8839
 10
294.5093
 20
277.851
 10
295.4747
 20
277.8148
 10
296.4454
 20
277.7756
 10
297.421
 20
277.7335
 10
298.4016
 20
277.6888
 10
299.3867
 20
277.6418
 10
300.3762
 20
277.5928
 10
301.3699
 20
277.5419
 10
302.3676
 20
277.4894
 10
303.3691
 20
277.4356
 10
304.3741
 20
277.3807
 10
305.3825
 20
277.325
 10
306.3941
 20
277.2687
 10
307.4085
 20
277.2121
 10
308.4257
 20
277.1554
 10
309.4455
 20
277.0989
 10
310.4675
 20
277.0428
 10
311.4916
 20
276.9873
 10
312.5176
 20
276.9328
 10
313.5453
 20
276.8794
 10
314.5744
 20
276.8275
 10
315.6048
 20
276.7772
 10
316.6362
 20
276.7288
 10
317.6685
 20
276.6826
 10
318.7014
 20
276.6389
 10
319.7347
 20
276.5977
 10
320.7682
 20
276.5595
 10
321.8018
 20
276.5245
 10
322.8351
 20
276.4928
 10
323.868
 20
276.4649
 10
324.9002
 20
276.4408
 10
325.9316
 20
276.4209
 10
326.962
 20
276.4054
 10
327.9911
 20
276.3945
 10
329.0187
 20
276.3886
 10
330.0446
 20
276.3878
 10
331.0687
 20
276.3925
 10
332.0906
 20
276.4028
 10
333.1103
 20
276.4189
 10
334.1274
 20
276.4413
 10
335.1418
 20
276.47
 10
336.1532
 20
276.5055
 10
337.1615
 20
276.5478
 10
338.1664
 20
276.5972
 10
339.1678
 20
276.6541
 10
340.1654
 20
276.7186
 10
341.159
 20
276.791
 10
342.1484
 20
276.8716
 10
343.1333
 20
276.9606
 10
344.1137
 20
277.0582
 10
345.0892
 20
277.1647
 10
346.0597
 20
277.2804
 10
347.025
 20
277.4054
 10
347.9848
 20
277.5401
 10
348.9389
 20
277.6847
 10
349.8871
 20
277.8395
 10
350.8292
 20
278.0047
 10
351.7651
 20
278.1804
 10
352.6944
 20
278.3671
 10
353.6171
 20
278.565
 10
354.5328
 20
278.7742
 10
355.4413
 20
278.9951
 10
356.3425
 20
279.2278
 10
357.2362
 20
279.4727
 10
358.122
 20
279.73
 10
359.0
 20
280.0
 10
375.0
 20
278.0
 10
419.0
 20
278.0
 10
419.0
 20
332.0
 10
411.0
 20
332.0
 10
409.0
 20
338.0
 10
416.0
 20
339.0
 10
416.0
 20
342.0
 10
429.0
 20
342.0
 10
428.0
 20
339.0
 10
428.9825
 20
338.4485
 10
429.7333
 20
337.8661
 10
430.2821
 20
337.2418
 10
430.6587
 20
336.5646
 10
430.8928
 20
335.8235
 10
431.0142
 20
335.0075
 10
431.0527
 20
334.1055
 10
431.038
 20
333.1067
 10
431.0
 20
332.0
 10
421.0
 20
332.0
 10
421.0
 20
278.0
 10
455.0
 20
278.0
 10
455.0
 20
332.0
 10
454.0
 20
332.0
 10
454.0
 20
328.0
 10
442.0
 20
328.0
 10
442.0
 20
332.0
 10
438.0
 20
332.0
 10
436.0
 20
337.0
 10
436.0
 20
338.0
 10
483.0
 20
338.0
 10
483.0
 20
337.0
 10
481.0
 20
332.0
 10
477.0
 20
332.0
 10
477.0
 20
323.0
 10
457.0
 20
323.0
 10
457.0
 20
278.0
 10
507.0
 20
278.0
 10
507.0
 20
332.0
 10
502.0
 20
332.0
 10
502.0
 20
328.0
 10
490.0
 20
328.0
 10
486.0
 20
336.0
 10
510.0
 20
339.0
 10
514.0
 20
338.0
 10
512.0
 20
332.0
 10
509.0
 20
332.0
 10
509.0
 20
278.0
 10
570.0
 20
278.0
 10
570.0004
 20
278.9997
 10
570.0015
 20
279.9996
 10
570.0034
 20
280.9995
 10
570.0058
 20
281.9994
 10
570.0088
 20
282.9995
 10
570.0121
 20
283.9996
 10
570.0158
 20
284.9997
 10
570.0197
 20
286.0
 10
570.0237
 20
287.0002
 10
570.0279
 20
288.0005
 10
570.032
 20
289.0008
 10
570.0359
 20
290.0011
 10
570.0397
 20
291.0015
 10
570.0432
 20
292.0019
 10
570.0463
 20
293.0022
 10
570.049
 20
294.0026
 10
570.0511
 20
295.003
 10
570.0525
 20
296.0034
 10
570.0532
 20
297.0038
 10
570.0532
 20
298.0042
 10
570.0522
 20
299.0045
 10
570.0502
 20
300.0048
 10
570.0471
 20
301.0051
 10
570.0429
 20
302.0053
 10
570.0374
 20
303.0055
 10
570.0306
 20
304.0057
 10
570.0224
 20
305.0058
 10
570.0126
 20
306.0058
 10
570.0012
 20
307.0058
 10
569.9882
 20
308.0057
 10
569.9733
 20
309.0056
 10
569.9566
 20
310.0053
 10
569.938
 20
311.005
 10
569.9173
 20
312.0046
 10
569.8944
 20
313.0041
 10
569.8694
 20
314.0035
 10
569.842
 20
315.0028
 10
569.8123
 20
316.0019
 10
569.78
 20
317.001
 10
569.7453
 20
318.0
 10
569.7166
 20
319.0498
 10
569.7037
 20
320.0849
 10
569.7019
 20
321.106
 10
569.7061
 20
322.1139
 10
569.7116
 20
323.1094
 10
569.7135
 20
324.0934
 10
569.7069
 20
325.0665
 10
569.6869
 20
326.0296
 10
569.6487
 20
326.9835
 10
569.5875
 20
327.929
 10
569.4983
 20
328.8668
 10
569.3763
 20
329.7978
 10
569.2167
 20
330.7228
 10
569.0145
 20
331.6425
 10
568.765
 20
332.5577
 10
568.4631
 20
333.4693
 10
568.1042
 20
334.378
 10
567.6833
 20
335.2846
 10
567.1955
 20
336.19
 10
566.636
 20
337.0948
 10
566.0
 20
338.0
 10
570.0
 20
342.0
 10
577.0
 20
343.0
 10
572.0
 20
341.0
 10
573.0
 20
333.0
 10
591.0
 20
333.0
 10
591.0
 20
332.0
 10
590.2943
 20
331.277
 10
589.7837
 20
330.5244
 10
589.4502
 20
329.7459
 10
589.2757
 20
328.9448
 10
589.2424
 20
328.1246
 10
589.3323
 20
327.289
 10
589.5273
 20
326.4412
 10
589.8095
 20
325.585
 10
590.161
 20
324.7237
 10
590.5638
 20
323.8608
 10
591.0
 20
323.0
 10
582.0
 20
323.0
 10
582.0
 20
320.0
 10
625.0
 20
321.0
 10
625.0
 20
316.0
 10
628.0
 20
318.0
 10
629.0
 20
308.0
 10
617.0
 20
308.0
 10
617.0
 20
316.0
 10
624.0
 20
318.0
 10
613.0
 20
318.0
 10
613.0
 20
305.0
 10
626.0
 20
307.0
 10
626.0
 20
296.0
 10
632.0
 20
296.0
 10
632.0195
 20
296.7639
 10
632.0737
 20
297.5917
 10
632.156
 20
298.4755
 10
632.2598
 20
299.4074
 10
632.3787
 20
300.3796
 10
632.5061
 20
301.3842
 10
632.6354
 20
302.4134
 10
632.7603
 20
303.4592
 10
632.874
 20
304.5139
 10
632.9702
 20
305.5696
 10
633.0423
 20
306.6184
 10
633.0837
 20
307.6525
 10
633.0879
 20
308.664
 10
633.0484
 20
309.645
 10
632.9587
 20
310.5877
 10
632.8122
 20
311.4843
 10
632.6024
 20
312.3269
 10
632.3228
 20
313.1076
 10
631.9669
 20
313.8186
 10
631.5281
 20
314.452
 10
631.0
 20
315.0
 10
632.0
 20
321.0
 10
632.807
 20
321.0116
 10
633.6522
 20
321.0431
 10
634.5301
 20
321.089
 10
635.4352
 20
321.1442
 10
636.3624
 20
321.2032
 10
637.306
 20
321.2607
 10
638.2609
 20
321.3116
 10
639.2216
 20
321.3503
 10
640.1828
 20
321.3718
 10
641.139
 20
321.3705
 10
642.085
 20
321.3413
 10
643.0152
 20
321.2787
 10
643.9244
 20
321.1776
 10
644.8072
 20
321.0326
 10
645.6582
 20
320.8384
 10
646.4721
 20
320.5896
 10
647.2434
 20
320.281
 10
647.9668
 20
319.9073
 10
648.6368
 20
319.4632
 10
649.2483
 20
318.9433
 10
649.7957
 20
318.3423
 10
650.2737
 20
317.655
 10
650.6769
 20
316.876
 10
651.0
 20
316.0
 10
652.0
 20
316.0
 10
655.0
 20
321.0
 10
655.9348
 20
321.0111
 10
656.8814
 20
321.0384
 10
657.834
 20
321.0724
 10
658.7871
 20
321.1037
 10
659.7348
 20
321.1229
 10
660.6717
 20
321.1206
 10
661.5919
 20
321.0875
 10
662.49
 20
321.0141
 10
663.36
 20
320.8911
 10
664.1965
 20
320.709
 10
664.9938
 20
320.4585
 10
665.7461
 20
320.1302
 10
666.4479
 20
319.7147
 10
667.0935
 20
319.2025
 10
667.6771
 20
318.5843
 10
668.1932
 20
317.8508
 10
668.636
 20
316.9925
 10
669.0
 20
316.0
 10
665.0
 20
317.0
 10
665.0
 20
313.0
 10
668.0
 20
313.0
 10
667.0
 20
301.0
 10
660.0
 20
301.0
 10
659.9844
 20
300.2123
 10
659.9452
 20
299.336
 10
659.8949
 20
298.3913
 10
659.846
 20
297.398
 10
659.8112
 20
296.3763
 10
659.803
 20
295.3462
 10
659.8339
 20
294.3276
 10
659.9166
 20
293.3407
 10
660.0636
 20
292.4054
 10
660.2875
 20
291.5418
 10
660.6008
 20
290.7699
 10
661.0161
 20
290.1097
 10
661.5461
 20
289.5813
 10
662.2031
 20
289.2047
 10
663.0
 20
289.0
 10
663.0
 20
290.0
 10
661.0
 20
289.0
 10
661.0
 20
290.0
 10
661.0
 20
298.0
 10
675.0
 20
298.0
 10
672.0
 20
311.0
 10
674.0
 20
306.0
 10
675.0
 20
306.0
 10
675.0
 20
318.0
 10
674.0
 20
318.0
 10
671.0
 20
313.0
 10
671.0
 20
314.0
 10
673.0
 20
320.0
 10
668.0
 20
323.0
 10
681.0
 20
325.0
 10
681.0
 20
320.0
 10
676.0
 20
320.0
 10
676.0
 20
315.0
 10
683.0
 20
315.0
 10
683.0
 20
319.0
 10
692.0
 20
319.0
 10
692.0
 20
320.0
 10
688.0
 20
320.0
 10
688.0
 20
324.0
 10
701.0
 20
324.0
 10
700.0
 20
321.0
 10
700.8223
 20
320.6122
 10
701.6606
 20
320.2894
 10
702.5116
 20
320.0229
 10
703.3724
 20
319.8039
 10
704.2397
 20
319.6236
 10
705.1106
 20
319.4734
 10
705.9819
 20
319.3444
 10
706.8505
 20
319.2278
 10
707.7133
 20
319.115
 10
708.5674
 20
318.9971
 10
709.4094
 20
318.8654
 10
710.2365
 20
318.7111
 10
711.0454
 20
318.5255
 10
711.8331
 20
318.2998
 10
712.5965
 20
318.0253
 10
713.3325
 20
317.6931
 10
714.038
 20
317.2946
 10
714.7099
 20
316.821
 10
715.3452
 20
316.2634
 10
715.9406
 20
315.6133
 10
716.4933
 20
314.8617
 10
717.0
 20
314.0
 10
716.0
 20
314.0
 10
715.0
 20
317.0
 10
714.0
 20
317.0
 10
713.0
 20
307.0
 10
714.0
 20
307.0
 10
719.0
 20
309.0
 10
719.0
 20
305.0
 10
708.0
 20
305.0
 10
708.0
 20
302.0
 10
722.0
 20
302.0
 10
722.0094
 20
302.874
 10
722.0335
 20
303.8007
 10
722.0655
 20
304.7718
 10
722.0989
 20
305.7789
 10
722.1269
 20
306.8137
 10
722.1431
 20
307.868
 10
722.1407
 20
308.9333
 10
722.1132
 20
310.0013
 10
722.054
 20
311.0637
 10
721.9564
 20
312.1122
 10
721.8138
 20
313.1385
 10
721.6196
 20
314.1342
 10
721.3671
 20
315.091
 10
721.0498
 20
316.0005
 10
720.6611
 20
316.8545
 10
720.1943
 20
317.6447
 10
719.6428
 20
318.3626
 10
719.0
 20
319.0
 10
719.0
 20
320.0
 10
736.0
 20
320.0
 10
736.0
 20
319.0
 10
732.0
 20
312.0
 10
738.0
 20
313.0
 10
738.0
 20
305.0
 10
736.0
 20
307.0
 10
735.0
 20
307.0
 10
726.0
 20
305.0
 10
726.0
 20
313.0
 10
723.0
 20
313.0
 10
723.0
 20
259.0
 10
795.0
 20
259.0
 10
794.9911
 20
259.9178
 10
794.9671
 20
260.8389
 10
794.9316
 20
261.7615
 10
794.8883
 20
262.6842
 10
794.8408
 20
263.6051
 10
794.7928
 20
264.5228
 10
794.748
 20
265.4356
 10
794.7101
 20
266.3419
 10
794.6827
 20
267.24
 10
794.6695
 20
268.1284
 10
794.6741
 20
269.0054
 10
794.7003
 20
269.8695
 10
794.7517
 20
270.7189
 10
794.832
 20
271.552
 10
794.9449
 20
272.3674
 10
795.0939
 20
273.1632
 10
795.2829
 20
273.9379
 10
795.5155
 20
274.69
 10
795.7953
 20
275.4177
 10
796.126
 20
276.1194
 10
796.5114
 20
276.7936
 10
796.955
 20
277.4386
 10
797.4605
 20
278.0527
 10
798.0316
 20
278.6345
 10
798.672
 20
279.1822
 10
799.3854
 20
279.6942
 10
800.1754
 20
280.1689
 10
801.0457
 20
280.6047
 10
802.0
 20
281.0
 10
802.4805
 20
280.5331
 10
803.0593
 20
280.1128
 10
803.7272
 20
279.7385
 10
804.4749
 20
279.41
 10
805.2933
 20
279.1271
 10
806.1731
 20
278.8893
 10
807.1051
 20
278.6965
 10
808.0801
 20
278.5483
 10
809.0889
 20
278.4444
 10
810.1222
 20
278.3845
 10
811.1708
 20
278.3684
 10
812.2254
 20
278.3956
 10
813.277
 20
278.466
 10
814.3162
 20
278.5792
 10
815.3338
 20
278.7349
 10
816.3206
 20
278.9328
 10
817.2674
 20
279.1726
 10
818.165
 20
279.4541
 10
819.0041
 20
279.7769
 10
819.7755
 20
280.1406
 10
820.47
 20
280.5451
 10
821.0784
 20
280.9901
 10
821.5915
 20
281.4751
 10
822.0
 20
282.0
 10
828.0
 20
280.0
 10
828.0
 20
259.0
 10
900.0
 20
259.0
 10
899.0
 20
267.0
 10
902.0
 20
259.0
 10
934.0
 20
259.0
 10
934.0
 20
274.0
 10
907.0
 20
274.0
 10
906.9447
 20
275.0449
 10
906.8938
 20
276.0908
 10
906.8487
 20
277.137
 10
906.8107
 20
278.183
 10
906.7811
 20
279.228
 10
906.7612
 20
280.2716
 10
906.7524
 20
281.313
 10
906.7559
 20
282.3517
 10
906.7732
 20
283.387
 10
906.8056
 20
284.4184
 10
906.8543
 20
285.4453
 10
906.9207
 20
286.4669
 10
907.0062
 20
287.4828
 10
907.112
 20
288.4923
 10
907.2395
 20
289.4948
 10
907.3901
 20
290.4897
 10
907.5649
 20
291.4763
 10
907.7655
 20
292.4541
 10
907.9931
 20
293.4225
 10
908.249
 20
294.3808
 10
908.5345
 20
295.3284
 10
908.8511
 20
296.2647
 10
909.1999
 20
297.1892
 10
909.5825
 20
298.1011
 10
910.0
 20
299.0
 10
902.0
 20
299.0
 10
902.0
 20
292.0
 10
906.0
 20
293.0
 10
905.0
 20
281.0
 10
902.0
 20
282.0
 10
902.0
 20
281.0
 10
906.0
 20
280.0
 10
906.0
 20
279.0
 10
903.0
 20
279.0
 10
902.0
 20
271.0
 10
895.0
 20
270.0
 10
900.0
 20
272.0
 10
900.0
 20
299.0
 10
884.0
 20
299.0
 10
885.0
 20
312.0
 10
892.0
 20
311.0
 10
890.0
 20
320.0
 10
893.0
 20
321.0
 10
900.0
 20
320.84259
 10
919.0
 20
320.0
 10
919.0
 20
313.0
 10
923.0
 20
315.0
 10
924.0
 20
312.0
 10
924.8405
 20
312.3854
 10
925.6191
 20
312.876
 10
926.3377
 20
313.4612
 10
926.9983
 20
314.1303
 10
927.6029
 20
314.8728
 10
928.1534
 20
315.678
 10
928.6518
 20
316.5354
 10
929.1
 20
317.4343
 10
929.5001
 20
318.3642
 10
929.8541
 20
319.3145
 10
930.1638
 20
320.2745
 10
930.4313
 20
321.2336
 10
930.6585
 20
322.1813
 10
930.8474
 20
323.107
 10
931.0
 20
324.0
 10
945.0
 20
323.0
 10
945.0
 20
334.0
 10
931.0
 20
333.0
 10
931.0
 20
337.0
 10
898.0
 20
336.0
 10
896.0
 20
331.0
 10
896.2714
 20
331.8854
 10
896.5288
 20
332.7791
 10
896.7722
 20
333.6808
 10
897.0021
 20
334.5903
 10
897.2188
 20
335.5072
 10
897.4226
 20
336.4314
 10
897.6138
 20
337.3627
 10
897.7928
 20
338.3006
 10
897.9598
 20
339.2451
 10
898.1151
 20
340.1959
 10
898.2591
 20
341.1527
 10
898.3922
 20
342.1152
 10
898.5145
 20
343.0833
 10
898.6265
 20
344.0567
 10
898.7284
 20
345.0351
 10
898.8205
 20
346.0183
 10
898.9033
 20
347.006
 10
898.9769
 20
347.998
 10
899.0418
 20
348.9941
 10
899.0982
 20
349.9939
 10
899.1464
 20
350.9973
 10
899.1868
 20
352.004
 10
899.2197
 20
353.0138
 10
899.2454
 20
354.0264
 10
899.2641
 20
355.0416
 10
899.2763
 20
356.059
 10
899.2823
 20
357.0786
 10
899.2823
 20
358.0999
 10
899.2767
 20
359.1228
 10
899.2658
 20
360.1471
 10
899.2499
 20
361.1725
 10
899.2294
 20
362.1986
 10
899.2044
 20
363.2254
 10
899.1755
 20
364.2525
 10
899.1428
 20
365.2797
 10
899.1067
 20
366.3068
 10
899.0676
 20
367.3334
 10
899.0256
 20
368.3594
 10
898.9812
 20
369.3846
 10
898.9347
 20
370.4085
 10
898.8863
 20
371.4311
 10
898.8365
 20
372.4521
 10
898.7854
 20
373.4712
 10
898.7335
 20
374.4881
 10
898.6811
 20
375.5027
 10
898.6283
 20
376.5146
 10
898.5757
 20
377.5237
 10
898.5235
 20
378.5297
 10
898.472
 20
379.5323
 10
898.4215
 20
380.5313
 10
898.3723
 20
381.5264
 10
898.3248
 20
382.5174
 10
898.2793
 20
383.5041
 10
898.2361
 20
384.4862
 10
898.1955
 20
385.4635
 10
898.1579
 20
386.4356
 10
898.1234
 20
387.4024
 10
898.0926
 20
388.3637
 10
898.0656
 20
389.3191
 10
898.0428
 20
390.2684
 10
898.0245
 20
391.2114
 10
898.0111
 20
392.1478
 10
898.0028
 20
393.0774
 10
898.0
 20
394.0
 10
860.0
 20
394.0
 10
856.0
 20
390.0
 10
860.0
 20
386.0
 10
856.0
 20
386.0
 10
856.0
 20
384.0
 10
860.0
 20
384.0
 10
853.0
 20
380.0
 10
853.0
 20
381.0
 10
858.0
 20
382.0
 10
858.0
 20
383.0
 10
853.0
 20
384.0
 10
853.0
 20
386.0
 10
858.0
 20
387.0
 10
858.0
 20
388.0
 10
857.1181
 20
388.1822
 10
856.2711
 20
388.4156
 10
855.5318
 20
388.7022
 10
854.973
 20
389.0438
 10
854.6675
 20
389.4425
 10
854.6883
 20
389.9001
 10
855.1082
 20
390.4186
 10
856.0
 20
391.0
 10
856.0
 20
392.0
 10
821.0
 20
394.0
 10
821.0
 20
349.0
 10
823.0
 20
333.0
 10
823.0
 20
332.0
 10
820.0
 20
337.0
 10
814.0
 20
337.0
 10
811.0
 20
332.0
 10
811.0
 20
333.0
 10
813.0
 20
339.0
 10
819.0
 20
339.0
 10
819.0
 20
394.0
 10
737.0
 20
394.0
 10
737.0
 20
339.0
 10
741.0
 20
339.0
 10
741.0
 20
329.0
 10
746.0
 20
329.0
 10
747.0
 20
325.0
 10
725.0
 20
325.0
 10
725.0
 20
329.0
 10
731.0
 20
329.0
 10
730.0
 20
332.0
 10
740.0
 20
333.0
 10
740.0
 20
337.0
 10
722.0
 20
336.0
 10
722.5858
 20
336.7741
 10
723.2432
 20
337.4148
 10
723.9649
 20
337.934
 10
724.7435
 20
338.3435
 10
725.572
 20
338.6551
 10
726.4429
 20
338.8808
 10
727.3492
 20
339.0323
 10
728.2835
 20
339.1216
 10
729.2386
 20
339.1605
 10
730.2072
 20
339.1609
 10
731.1821
 20
339.1346
 10
732.1561
 20
339.0935
 10
733.1219
 20
339.0494
 10
734.0723
 20
339.0143
 10
735.0
 20
339.0
 10
735.0
 20
394.0
 10
676.0
 20
394.0
 10
676.0
 20
339.0
 10
718.0
 20
339.0
 10
719.0
 20
332.0
 10
716.0
 20
332.0
 10
716.0
 20
333.0
 10
717.0
 20
337.0
 10
647.0
 20
337.0
 10
644.0
 20
332.0
 10
644.0
 20
333.0
 10
646.0
 20
337.0
 10
642.0
 20
335.0
 10
641.0
 20
335.0
 10
618.0
 20
338.0
 10
615.0
 20
333.0
 10
615.0
 20
334.0
 10
619.0
 20
342.0
 10
619.7094
 20
342.1002
 10
620.3446
 20
342.3173
 10
620.9095
 20
342.6436
 10
621.4077
 20
343.0711
 10
621.8428
 20
343.5923
 10
622.2187
 20
344.1992
 10
622.539
 20
344.8841
 10
622.8075
 20
345.6393
 10
623.0279
 20
346.457
 10
623.2038
 20
347.3294
 10
623.3391
 20
348.2487
 10
623.4373
 20
349.2072
 10
623.5023
 20
350.1971
 10
623.5378
 20
351.2106
 10
623.5474
 20
352.24
 10
623.5349
 20
353.2774
 10
623.504
 20
354.3151
 10
623.4584
 20
355.3454
 10
623.4018
 20
356.3605
 10
623.3379
 20
357.3525
 10
623.2706
 20
358.3138
 10
623.2034
 20
359.2365
 10
623.14
 20
360.1129
 10
623.0843
 20
360.9352
 10
623.0399
 20
361.6957
 10
623.0106
 20
362.3865
 10
623.0
 20
363.0
 10
609.0
 20
365.0
 10
608.0
 20
365.0
 10
606.0
 20
340.0
 10
613.0
 20
340.0
 10
613.0
 20
336.0
 10
612.0
 20
336.0
 10
604.0
 20
338.0
 10
604.0
 20
354.0
 10
601.0
 20
354.0
 10
599.0
 20
360.0
 10
599.0
 20
361.0
 10
602.0
 20
356.0
 10
604.0
 20
356.0
 10
604.0
 20
409.0
 10
605.1851
 20
409.0261
 10
606.1858
 20
409.0886
 10
607.0185
 20
409.2461
 10
607.6998
 20
409.5573
 10
608.2461
 20
410.0809
 10
608.674
 20
410.8756
 10
609.0
 20
412.0
 10
610.0
 20
412.0
 10
620.0
 20
409.0
 10
621.0
 20
406.0
 10
621.0
 20
404.0
 10
619.7862
 20
403.7503
 10
619.1793
 20
403.5751
 10
619.1793
 20
403.4247
 10
619.7862
 20
403.2496
 10
621.0
 20
403.0
 10
621.0
 20
402.0
 10
613.0
 20
404.0
 10
613.0
 20
402.0
 10
612.0
 20
402.0
 10
612.0
 20
404.0
 10
607.0
 20
402.0
 10
609.0
 20
407.0
 10
606.0
 20
408.0
 10
606.0259
 20
406.7665
 10
606.1014
 20
405.637
 10
606.2256
 20
404.6067
 10
606.3979
 20
403.6714
 10
606.6175
 20
402.8264
 10
606.8838
 20
402.0672
 10
607.196
 20
401.3894
 10
607.5535
 20
400.7885
 10
607.9555
 20
400.26
 10
608.4013
 20
399.7994
 10
608.8903
 20
399.4021
 10
609.4216
 20
399.0638
 10
609.9947
 20
398.7799
 10
610.6087
 20
398.5458
 10
611.263
 20
398.3572
 10
611.9569
 20
398.2095
 10
612.6897
 20
398.0982
 10
613.4607
 20
398.0189
 10
614.2691
 20
397.967
 10
615.1142
 20
397.938
 10
615.9954
 20
397.9275
 10
616.912
 20
397.9309
 10
617.8631
 20
397.9438
 10
618.8482
 20
397.9616
 10
619.8665
 20
397.9799
 10
620.9173
 20
397.9942
 10
622.0
 20
398.0
 10
622.0
 20
414.0
 10
604.0
 20
413.0
 10
604.0
 20
418.0
 10
610.0
 20
420.0
 10
611.0
 20
420.0
 10
606.0
 20
417.0
 10
606.0
 20
416.0
 10
638.0
 20
417.0
 10
638.0
 20
431.0
 10
606.0
 20
431.0
 10
608.0
 20
423.0
 10
608.0
 20
422.0
 10
604.0
 20
422.0
 10
603.9884
 20
422.7569
 10
603.9565
 20
423.569
 10
603.9089
 20
424.4302
 10
603.8497
 20
425.3343
 10
603.7834
 20
426.2753
 10
603.7144
 20
427.2469
 10
603.6471
 20
428.2431
 10
603.5858
 20
429.2577
 10
603.5349
 20
430.2846
 10
603.4989
 20
431.3177
 10
603.482
 20
432.3509
 10
603.4886
 20
433.3779
 10
603.5232
 20
434.3928
 10
603.5901
 20
435.3894
 10
603.6937
 20
436.3615
 10
603.8384
 20
437.3031
 10
604.0285
 20
438.2079
 10
604.2684
 20
439.07
 10
604.5626
 20
439.8831
 10
604.9154
 20
440.6411
 10
605.3311
 20
441.3379
 10
605.8142
 20
441.9674
 10
606.369
 20
442.5235
 10
607.0
 20
443.0
 10
606.7726
 20
442.1381
 10
606.6107
 20
441.3211
 10
606.5123
 20
440.5476
 10
606.4755
 20
439.8167
 10
606.4982
 20
439.1272
 10
606.5784
 20
438.478
 10
606.7142
 20
437.868
 10
606.9036
 20
437.2961
 10
607.1445
 20
436.7612
 10
607.435
 20
436.2621
 10
607.7731
 20
435.7978
 10
608.1567
 20
435.3672
 10
608.584
 20
434.9691
 10
609.0528
 20
434.6024
 10
609.5612
 20
434.2661
 10
610.1073
 20
433.9589
 10
610.689
 20
433.6799
 10
611.3043
 20
433.4279
 10
611.9512
 20
433.2017
 10
612.6278
 20
433.0004
 10
613.332
 20
432.8227
 10
614.0618
 20
432.6675
 10
614.8154
 20
432.5338
 10
615.5906
 20
432.4204
 10
616.3854
 20
432.3263
 10
617.198
 20
432.2503
 10
618.0262
 20
432.1913
 10
618.8681
 20
432.1482
 10
619.7218
 20
432.1199
 10
620.5851
 20
432.1053
 10
621.4561
 20
432.1032
 10
622.3329
 20
432.1126
 10
623.2134
 20
432.1324
 10
624.0956
 20
432.1614
 10
624.9776
 20
432.1986
 10
625.8573
 20
432.2427
 10
626.7328
 20
432.2928
 10
627.602
 20
432.3477
 10
628.463
 20
432.4063
 10
629.3138
 20
432.4675
 10
630.1523
 20
432.5302
 10
630.9767
 20
432.5932
 10
631.7848
 20
432.6555
 10
632.5747
 20
432.716
 10
633.3445
 20
432.7735
 10
634.092
 20
432.8269
 10
634.8154
 20
432.8752
 10
635.5126
 20
432.9171
 10
636.1817
 20
432.9517
 10
636.8206
 20
432.9778
 10
637.4273
 20
432.9942
 10
638.0
 20
433.0
 10
638.0
 20
457.0
 10
606.0
 20
457.0
 10
606.0
 20
449.0
 10
611.0
 20
446.0
 10
610.3228
 20
446.2937
 10
609.665
 20
446.6569
 10
609.0281
 20
447.0854
 10
608.4139
 20
447.5748
 10
607.824
 20
448.1211
 10
607.2599
 20
448.7201
 10
606.7233
 20
449.3674
 10
606.2158
 20
450.059
 10
605.7391
 20
450.7906
 10
605.2948
 20
451.558
 10
604.8844
 20
452.3571
 10
604.5097
 20
453.1836
 10
604.1722
 20
454.0333
 10
603.8736
 20
454.902
 10
603.6156
 20
455.7855
 10
603.3996
 20
456.6796
 10
603.2274
 20
457.5801
 10
603.1005
 20
458.4829
 10
603.0207
 20
459.3836
 10
602.9895
 20
460.2782
 10
603.0086
 20
461.1623
 10
603.0795
 20
462.0319
 10
603.2039
 20
462.8826
 10
603.3835
 20
463.7104
 10
603.6198
 20
464.5109
 10
603.9146
 20
465.28
 10
604.2693
 20
466.0136
 10
604.6857
 20
466.7073
 10
605.1653
 20
467.357
 10
605.7098
 20
467.9584
 10
606.3208
 20
468.5075
 10
607.0
 20
469.0
 10
606.7726
 20
468.1381
 10
606.6107
 20
467.3211
 10
606.5123
 20
466.5476
 10
606.4755
 20
465.8167
 10
606.4982
 20
465.1272
 10
606.5784
 20
464.478
 10
606.7142
 20
463.868
 10
606.9036
 20
463.2961
 10
607.1445
 20
462.7612
 10
607.435
 20
462.2621
 10
607.7731
 20
461.7978
 10
608.1567
 20
461.3672
 10
608.584
 20
460.9691
 10
609.0528
 20
460.6024
 10
609.5612
 20
460.2661
 10
610.1073
 20
459.9589
 10
610.689
 20
459.6799
 10
611.3043
 20
459.4279
 10
611.9512
 20
459.2017
 10
612.6278
 20
459.0004
 10
613.332
 20
458.8227
 10
614.0618
 20
458.6675
 10
614.8154
 20
458.5338
 10
615.5906
 20
458.4204
 10
616.3854
 20
458.3263
 10
617.198
 20
458.2503
 10
618.0262
 20
458.1913
 10
618.8681
 20
458.1482
 10
619.7218
 20
458.1199
 10
620.5851
 20
458.1053
 10
621.4561
 20
458.1032
 10
622.3329
 20
458.1126
 10
623.2134
 20
458.1324
 10
624.0956
 20
458.1614
 10
624.9776
 20
458.1986
 10
625.8573
 20
458.2427
 10
626.7328
 20
458.2928
 10
627.602
 20
458.3477
 10
628.463
 20
458.4063
 10
629.3138
 20
458.4675
 10
630.1523
 20
458.5302
 10
630.9767
 20
458.5932
 10
631.7848
 20
458.6555
 10
632.5747
 20
458.716
 10
633.3445
 20
458.7735
 10
634.092
 20
458.8269
 10
634.8154
 20
458.8752
 10
635.5126
 20
458.9171
 10
636.1817
 20
458.9517
 10
636.8206
 20
458.9778
 10
637.4273
 20
458.9942
 10
638.0
 20
459.0
 10
638.0
 20
483.0
 10
637.2849
 20
483.0071
 10
636.5422
 20
483.0275
 10
635.7736
 20
483.0598
 10
634.9812
 20
483.1022
 10
634.167
 20
483.1534
 10
633.3328
 20
483.2118
 10
632.4806
 20
483.2759
 10
631.6124
 20
483.3442
 10
630.7301
 20
483.4151
 10
629.8357
 20
483.4871
 10
628.9311
 20
483.5587
 10
628.0182
 20
483.6284
 10
627.0991
 20
483.6947
 10
626.1756
 20
483.756
 10
625.2498
 20
483.8108
 10
624.3235
 20
483.8577
 10
623.3987
 20
483.895
 10
622.4774
 20
483.9213
 10
621.5614
 20
483.935
 10
620.6529
 20
483.9346
 10
619.7536
 20
483.9186
 10
618.8656
 20
483.8855
 10
617.9909
 20
483.8338
 10
617.1312
 20
483.7619
 10
616.2887
 20
483.6683
 10
615.4653
 20
483.5515
 10
614.6628
 20
483.41
 10
613.8833
 20
483.2422
 10
613.1287
 20
483.0466
 10
612.4009
 20
482.8218
 10
611.702
 20
482.5661
 10
611.0338
 20
482.2782
 10
610.3983
 20
481.9563
 10
609.7975
 20
481.5991
 10
609.2333
 20
481.205
 10
608.7076
 20
480.7725
 10
608.2224
 20
480.3001
 10
607.7797
 20
479.7861
 10
607.3813
 20
479.2293
 10
607.0294
 20
478.6279
 10
606.7257
 20
477.9805
 10
606.4722
 20
477.2855
 10
606.271
 20
476.5415
 10
606.1239
 20
475.7469
 10
606.0329
 20
474.9003
 10
606.0
 20
474.0
 10
611.0
 20
475.0
 10
611.0
 20
472.0
 10
610.0
 20
472.0
 10
604.0
 20
473.0
 10
604.0
 20
495.0
 10
608.0
 20
495.0
 10
608.0
 20
494.0
 10
607.3986
 20
493.3864
 10
606.91
 20
492.7058
 10
606.5346
 20
491.9742
 10
606.2731
 20
491.2075
 10
606.1261
 20
490.4219
 10
606.0943
 20
489.6335
 10
606.1782
 20
488.8582
 10
606.3785
 20
488.1121
 10
606.6958
 20
487.4112
 10
607.1307
 20
486.7718
 10
607.6838
 20
486.2096
 10
608.3557
 20
485.7409
 10
609.1471
 20
485.3817
 10
610.0586
 20
485.1481
 10
611.0092
 20
484.9977
 10
611.9694
 20
484.868
 10
612.9384
 20
484.758
 10
613.9155
 20
484.6663
 10
614.9
 20
484.592
 10
615.8912
 20
484.5338
 10
616.8885
 20
484.4905
 10
617.8911
 20
484.4611
 10
618.8983
 20
484.4443
 10
619.9095
 20
484.439
 10
620.924
 20
484.4441
 10
621.9411
 20
484.4584
 10
622.96
 20
484.4808
 10
623.9801
 20
484.5101
 10
625.0008
 20
484.5451
 10
626.0212
 20
484.5847
 10
627.0407
 20
484.6278
 10
628.0587
 20
484.6732
 10
629.0745
 20
484.7197
 10
630.0872
 20
484.7663
 10
631.0963
 20
484.8116
 10
632.1011
 20
484.8547
 10
633.1009
 20
484.8943
 10
634.0949
 20
484.9292
 10
635.0825
 20
484.9584
 10
636.063
 20
484.9807
 10
637.0357
 20
484.995
 10
638.0
 20
485.0
 10
638.0
 20
500.0
 10
637.4295
 20
500.0082
 10
636.7728
 20
500.0315
 10
636.0367
 20
500.0675
 10
635.228
 20
500.114
 10
634.3536
 20
500.1686
 10
633.4204
 20
500.2291
 10
632.4351
 20
500.2933
 10
631.4047
 20
500.3588
 10
630.336
 20
500.4234
 10
629.2359
 20
500.4848
 10
628.1111
 20
500.5407
 10
626.9686
 20
500.5888
 10
625.8152
 20
500.6269
 10
624.6578
 20
500.6527
 10
623.5031
 20
500.6638
 10
622.3581
 20
500.6582
 10
621.2296
 20
500.6333
 10
620.1245
 20
500.5871
 10
619.0496
 20
500.5171
 10
618.0117
 20
500.4212
 10
617.0177
 20
500.297
 10
616.0745
 20
500.1422
 10
615.1889
 20
499.9547
 10
614.3677
 20
499.7321
 10
613.6179
 20
499.4721
 10
612.9462
 20
499.1724
 10
612.3595
 20
498.8309
 10
611.8647
 20
498.4451
 10
611.4686
 20
498.0129
 10
611.1781
 20
497.5319
 10
611.0
 20
497.0
 10
610.0
 20
497.0
 10
604.0
 20
499.0
 10
604.0
 20
521.0
 10
608.0
 20
521.0
 10
608.0
 20
520.0
 10
606.0
 20
502.0
 10
638.0
 20
502.0
 10
638.0
 20
535.0
 10
637.2849
 20
535.0071
 10
636.5422
 20
535.0275
 10
635.7736
 20
535.0598
 10
634.9812
 20
535.1022
 10
634.167
 20
535.1534
 10
633.3328
 20
535.2118
 10
632.4806
 20
535.2759
 10
631.6124
 20
535.3442
 10
630.7301
 20
535.4151
 10
629.8357
 20
535.4871
 10
628.9311
 20
535.5587
 10
628.0182
 20
535.6284
 10
627.0991
 20
535.6947
 10
626.1756
 20
535.756
 10
625.2498
 20
535.8108
 10
624.3235
 20
535.8577
 10
623.3987
 20
535.895
 10
622.4774
 20
535.9213
 10
621.5614
 20
535.935
 10
620.6529
 20
535.9346
 10
619.7536
 20
535.9186
 10
618.8656
 20
535.8855
 10
617.9909
 20
535.8338
 10
617.1312
 20
535.7619
 10
616.2887
 20
535.6683
 10
615.4653
 20
535.5515
 10
614.6628
 20
535.41
 10
613.8833
 20
535.2422
 10
613.1287
 20
535.0466
 10
612.4009
 20
534.8218
 10
611.702
 20
534.5661
 10
611.0338
 20
534.2782
 10
610.3983
 20
533.9563
 10
609.7975
 20
533.5991
 10
609.2333
 20
533.205
 10
608.7076
 20
532.7725
 10
608.2224
 20
532.3001
 10
607.7797
 20
531.7861
 10
607.3813
 20
531.2293
 10
607.0294
 20
530.6279
 10
606.7257
 20
529.9805
 10
606.4722
 20
529.2855
 10
606.271
 20
528.5415
 10
606.1239
 20
527.7469
 10
606.0329
 20
526.9003
 10
606.0
 20
526.0
 10
611.0
 20
523.0
 10
610.3228
 20
523.2937
 10
609.665
 20
523.6569
 10
609.0281
 20
524.0854
 10
608.4139
 20
524.5748
 10
607.824
 20
525.1211
 10
607.2599
 20
525.7201
 10
606.7233
 20
526.3674
 10
606.2158
 20
527.059
 10
605.7391
 20
527.7906
 10
605.2948
 20
528.5581
 10
604.8844
 20
529.3571
 10
604.5097
 20
530.1836
 10
604.1722
 20
531.0333
 10
603.8736
 20
531.902
 10
603.6156
 20
532.7855
 10
603.3996
 20
533.6796
 10
603.2274
 20
534.5801
 10
603.1005
 20
535.4829
 10
603.0207
 20
536.3836
 10
602.9895
 20
537.2782
 10
603.0086
 20
538.1623
 10
603.0795
 20
539.0319
 10
603.2039
 20
539.8826
 10
603.3835
 20
540.7103
 10
603.6198
 20
541.5109
 10
603.9146
 20
542.28
 10
604.2693
 20
543.0135
 10
604.6857
 20
543.7072
 10
605.1653
 20
544.3569
 10
605.7098
 20
544.9584
 10
606.3208
 20
545.5075
 10
607.0
 20
546.0
 10
606.0
 20
537.0
 10
638.0
 20
537.0
 10
638.0
 20
551.0
 10
637.311
 20
551.0098
 10
636.5554
 20
551.0375
 10
635.7388
 20
551.0805
 10
634.8665
 20
551.1361
 10
633.9441
 20
551.2018
 10
632.977
 20
551.2749
 10
631.9707
 20
551.3529
 10
630.9307
 20
551.433
 10
629.8624
 20
551.5128
 10
628.7714
 20
551.5896
 10
627.663
 20
551.6607
 10
626.5429
 20
551.7236
 10
625.4164
 20
551.7756
 10
624.2891
 20
551.8142
 10
623.1664
 20
551.8367
 10
622.0537
 20
551.8405
 10
620.9567
 20
551.8229
 10
619.8807
 20
551.7815
 10
618.8312
 20
551.7136
 10
617.8137
 20
551.6165
 10
616.8337
 20
551.4876
 10
615.8966
 20
551.3244
 10
615.008
 20
551.1242
 10
614.1733
 20
550.8844
 10
613.3979
 20
550.6023
 10
612.6875
 20
550.2755
 10
612.0473
 20
549.9012
 10
611.483
 20
549.4769
 10
611.0
 20
549.0
 10
601.0
 20
552.0
 10
599.0
 20
558.0
 10
599.0
 20
559.0
 10
602.0
 20
554.0
 10
604.0
 20
554.0
 10
604.0
 20
561.0
 10
589.0
 20
561.0
  0
LWPOLYLINE
  5
34
330
17
100
AcDbEntity
  8
0
100
AcDbPolyline
 90
144
 70
0
 10
641.0
 20
394.0
 10
640.9951
 20
393.4095
 10
640.9795
 20
392.761
 10
640.951
 20
392.0642
 10
640.9076
 20
391.3287
 10
640.8474
 20
390.5641
 10
640.7683
 20
389.7801
 10
640.6682
 20
388.9863
 10
640.5453
 20
388.1923
 10
640.3975
 20
387.4078
 10
640.2227
 20
386.6423
 10
640.0189
 20
385.9056
 10
639.7842
 20
385.2072
 10
639.5166
 20
384.5568
 10
639.2139
 20
383.964
 10
638.8743
 20
383.4384
 10
638.4956
 20
382.9897
 10
638.0759
 20
382.6276
 10
637.6132
 20
382.3615
 10
637.1054
 20
382.2012
 10
636.5505
 20
382.1563
 10
635.9466
 20
382.2365
 10
635.2916
 20
382.4513
 10
634.5835
 20
382.8104
 10
633.8203
 20
383.3234
 10
633.0
 20
384.0
 10
632.0
 20
384.0
 10
630.0
 20
384.0
 10
629.0
 20
384.0
 10
625.0
 20
382.0
 10
625.0
 20
379.0
 10
635.0
 20
381.0
 10
636.0
 20
381.0
 10
641.0
 20
379.0
 10
641.0
 20
376.0
 10
635.0
 20
374.0
 10
634.3894
 20
374.8147
 10
633.7262
 20
375.4711
 10
633.0141
 20
375.986
 10
632.2567
 20
376.376
 10
631.4576
 20
376.6577
 10
630.6204
 20
376.8479
 10
629.7488
 20
376.9632
 10
628.8462
 20
377.0203
 10
627.9165
 20
377.0358
 10
626.9631
 20
377.0265
 10
625.9897
 20
377.009
 10
625.0
 20
377.0
 10
624.98
 20
376.0416
 10
624.9379
 20
375.0902
 10
624.9006
 20
374.1588
 10
624.895
 20
373.2605
 10
624.948
 20
372.4085
 10
625.0863
 20
371.6157
 10
625.337
 20
370.8954
 10
625.7268
 20
370.2605
 10
626.2826
 20
369.7243
 10
627.0314
 20
369.2997
 10
628.0
 20
369.0
 10
628.0
 20
370.0
 10
626.0
 20
372.0
 10
639.0
 20
373.0
 10
639.0
 20
372.0
 10
636.0
 20
372.0
 10
636.0
 20
371.0
 10
639.0
 20
365.0
 10
633.0
 20
367.0
 10
632.0
 20
367.0
 10
630.0
 20
367.0
 10
629.0
 20
367.0
 10
625.0
 20
365.0
 10
625.0
 20
362.0
 10
640.0
 20
362.0
 10
639.0
 20
372.0
 10
643.0
 20
368.0
 10
635.0
 20
357.0
 10
634.3894
 20
357.8146
 10
633.7262
 20
358.4711
 10
633.0141
 20
358.986
 10
632.2567
 20
359.3759
 10
631.4576
 20
359.6577
 10
630.6204
 20
359.8478
 10
629.7488
 20
359.9631
 10
628.8462
 20
360.0202
 10
627.9165
 20
360.0358
 10
626.9631
 20
360.0265
 10
625.9897
 20
360.009
 10
625.0
 20
360.0
 10
624.9786
 20
359.1359
 10
624.9257
 20
358.2192
 10
624.8583
 20
357.266
 10
624.7934
 20
356.2924
 10
624.7477
 20
355.3147
 10
624.7383
 20
354.349
 10
624.7821
 20
353.4116
 10
624.896
 20
352.5186
 10
625.0969
 20
351.6862
 10
625.4018
 20
350.9306
 10
625.8277
 20
350.268
 10
626.3914
 20
349.7145
 10
627.1098
 20
349.2865
 10
628.0
 20
349.0
 10
628.0
 20
350.0
 10
626.0
 20
352.0
 10
638.0
 20
352.0
 10
637.0
 20
349.0
 10
639.0
 20
343.0
 10
640.0
 20
343.0
 10
638.0
 20
354.0
 10
638.0
 20
355.0
 10
638.7279
 20
354.4471
 10
639.3451
 20
353.813
 10
639.8599
 20
353.1054
 10
640.2807
 20
352.3323
 10
640.616
 20
351.5013
 10
640.874
 20
350.6204
 10
641.0632
 20
349.6974
 10
641.192
 20
348.74
 10
641.2687
 20
347.7561
 10
641.3017
 20
346.7536
 10
641.2995
 20
345.7402
 10
641.2703
 20
344.7238
 10
641.2226
 20
343.7122
 10
641.1648
 20
342.7132
 10
641.1053
 20
341.7347
 10
641.0523
 20
340.7844
 10
641.0144
 20
339.8702
 10
641.0
 20
339.0
 10
648.0
 20
339.0
 10
651.0
 20
347.0
 10
650.0
 20
339.0
 10
674.0
 20
339.0
 10
674.0
 20
361.0
 10
650.0
 20
361.0
 10
650.0
 20
353.0
 10
655.0
 20
353.0
 10
655.0
 20
349.0
 10
654.0
 20
349.0
 10
646.0
 20
365.0
 10
647.0
 20
365.0
 10
647.0
 20
362.0
 10
674.0
 20
362.0
 10
674.0
 20
394.0
 10
641.0
 20
394.0
  0
LWPOLYLINE
  5
35
330
17
100
AcDbEntity
  8
0
100
AcDbPolyline
 90
206
 70
0
 10
389.0
 20
343.0
 10
392.0
 20
342.0
 10
391.3838
 20
341.4676
 10
390.7184
 20
340.9842
 10
390.0065
 20
340.5477
 10
389.251
 20
340.1561
 10
388.4546
 20
339.8072
 10
387.6202
 20
339.4991
 10
386.7506
 20
339.2296
 10
385.8486
 20
338.9966
 10
384.917
 20
338.7981
 10
383.9587
 20
338.6321
 10
382.9764
 20
338.4964
 10
381.9729
 20
338.389
 10
380.9512
 20
338.3078
 10
379.9139
 20
338.2507
 10
378.8639
 20
338.2157
 10
377.804
 20
338.2007
 10
376.7371
 20
338.2037
 10
375.6659
 20
338.2225
 10
374.5933
 20
338.255
 10
373.522
 20
338.2993
 10
372.4549
 20
338.3533
 10
371.3948
 20
338.4148
 10
370.3445
 20
338.4819
 10
369.3068
 20
338.5524
 10
368.2846
 20
338.6242
 10
367.2806
 20
338.6954
 10
366.2977
 20
338.7638
 10
365.3386
 20
338.8273
 10
364.4062
 20
338.8839
 10
363.5034
 20
338.9316
 10
362.6328
 20
338.9682
 10
361.7974
 20
338.9917
 10
361.0
 20
339.0
 10
360.6987
 20
338.4895
 10
360.3435
 20
338.0549
 10
359.9378
 20
337.6911
 10
359.4851
 20
337.3932
 10
358.9889
 20
337.1563
 10
358.4526
 20
336.9753
 10
357.8797
 20
336.8453
 10
357.2738
 20
336.7614
 10
356.6382
 20
336.7186
 10
355.9765
 20
336.7119
 10
355.2922
 20
336.7365
 10
354.5887
 20
336.7873
 10
353.8695
 20
336.8594
 10
353.138
 20
336.9479
 10
352.3979
 20
337.0477
 10
351.6525
 20
337.154
 10
350.9053
 20
337.2617
 10
350.1598
 20
337.366
 10
349.4195
 20
337.4618
 10
348.6879
 20
337.5443
 10
347.9684
 20
337.6084
 10
347.2645
 20
337.6492
 10
346.5798
 20
337.6618
 10
345.9176
 20
337.6411
 10
345.2815
 20
337.5823
 10
344.675
 20
337.4804
 10
344.1014
 20
337.3304
 10
343.5644
 20
337.1274
 10
343.0674
 20
336.8664
 10
342.6138
 20
336.5425
 10
342.2072
 20
336.1507
 10
341.851
 20
335.686
 10
341.5486
 20
335.1436
 10
341.3037
 20
334.5184
 10
341.1197
 20
333.8055
 10
341.0
 20
333.0
 10
345.0
 20
337.0
 10
345.0
 20
331.0
 10
340.0
 20
332.0
 10
340.0
 20
328.0
 10
352.0
 20
328.0
 10
352.0
 20
327.0
 10
339.0
 20
327.0
 10
339.0
 20
324.0
 10
351.0
 20
326.0
 10
352.0
 20
326.0
 10
352.0
 20
283.0
 10
357.0
 20
280.0
 10
358.0
 20
280.0
 10
357.6175
 20
280.8378
 10
357.2543
 20
281.6858
 10
356.9099
 20
282.5437
 10
356.5839
 20
283.4112
 10
356.2758
 20
284.288
 10
355.9852
 20
285.1738
 10
355.7117
 20
286.0682
 10
355.4547
 20
286.971
 10
355.2139
 20
287.8818
 10
354.9888
 20
288.8005
 10
354.779
 20
289.7266
 10
354.584
 20
290.6598
 10
354.4034
 20
291.5999
 10
354.2368
 20
292.5465
 10
354.0836
 20
293.4994
 10
353.9436
 20
294.4582
 10
353.8161
 20
295.4227
 10
353.7008
 20
296.3925
 10
353.5973
 20
297.3673
 10
353.505
 20
298.3469
 10
353.4236
 20
299.3309
 10
353.3526
 20
300.319
 10
353.2916
 20
301.3109
 10
353.2401
 20
302.3063
 10
353.1977
 20
303.3049
 10
353.1639
 20
304.3065
 10
353.1383
 20
305.3106
 10
353.1205
 20
306.317
 10
353.1099
 20
307.3255
 10
353.1063
 20
308.3356
 10
353.109
 20
309.3471
 10
353.1178
 20
310.3597
 10
353.1321
 20
311.3731
 10
353.1515
 20
312.3869
 10
353.1755
 20
313.401
 10
353.2038
 20
314.4148
 10
353.2359
 20
315.4283
 10
353.2712
 20
316.441
 10
353.3095
 20
317.4527
 10
353.3502
 20
318.463
 10
353.3929
 20
319.4717
 10
353.4372
 20
320.4784
 10
353.4826
 20
321.4829
 10
353.5286
 20
322.4848
 10
353.5749
 20
323.4839
 10
353.621
 20
324.4798
 10
353.6665
 20
325.4722
 10
353.7108
 20
326.4608
 10
353.7536
 20
327.4454
 10
353.7944
 20
328.4256
 10
353.8329
 20
329.4011
 10
353.8684
 20
330.3716
 10
353.9007
 20
331.3368
 10
353.9291
 20
332.2964
 10
353.9535
 20
333.2501
 10
353.9731
 20
334.1976
 10
353.9877
 20
335.1387
 10
353.9968
 20
336.0729
 10
354.0
 20
337.0
 10
358.0
 20
333.0
 10
361.0
 20
335.0
 10
361.2865
 20
334.1098
 10
361.7145
 20
333.3914
 10
362.268
 20
332.8277
 10
362.9306
 20
332.4018
 10
363.6862
 20
332.0969
 10
364.5186
 20
331.896
 10
365.4116
 20
331.7821
 10
366.349
 20
331.7383
 10
367.3147
 20
331.7477
 10
368.2924
 20
331.7934
 10
369.266
 20
331.8583
 10
370.2192
 20
331.9257
 10
371.1359
 20
331.9786
 10
372.0
 20
332.0
 10
372.0
 20
328.0
 10
384.0
 20
328.0
 10
384.0
 20
332.0
 10
385.0143
 20
332.0113
 10
386.0261
 20
332.0382
 10
387.0318
 20
332.0699
 10
388.0281
 20
332.0955
 10
389.0115
 20
332.1042
 10
389.9787
 20
332.0853
 10
390.9261
 20
332.0279
 10
391.8503
 20
331.9213
 10
392.748
 20
331.7547
 10
393.6157
 20
331.5172
 10
394.45
 20
331.1981
 10
395.2474
 20
330.7865
 10
396.0045
 20
330.2717
 10
396.7179
 20
329.6429
 10
397.3842
 20
328.8892
 10
398.0
 20
328.0
 10
406.0
 20
330.0
 10
407.0
 20
330.0
 10
409.0
 20
328.0
 10
410.0
 20
332.0
 10
407.0
 20
332.0
 10
409.0
 20
337.0
 10
408.0
 20
337.0
 10
407.0
 20
334.0
 10
406.0
 20
334.0
 10
406.0
 20
337.0
 10
400.0
 20
337.0
 10
399.0
 20
339.0
 10
399.0
 20
340.0
 10
401.0
 20
346.0
 10
400.0367
 20
346.0123
 10
399.0722
 20
346.0409
 10
398.1109
 20
346.0729
 10
397.1572
 20
346.0956
 10
396.2154
 20
346.0961
 10
395.29
 20
346.0619
 10
394.3852
 20
345.9799
 10
393.5056
 20
345.8376
 10
392.6554
 20
345.6221
 10
391.839
 20
345.3206
 10
391.061
 20
344.9204
 10
390.3255
 20
344.4088
 10
389.637
 20
343.7729
 10
389.0
 20
343.0
  0
LWPOLYLINE
  5
36
330
17
100
AcDbEntity
  8
0
100
AcDbPolyline
 90
94
 70
0
 10
529.0
 20
342.0
 10
529.0
 20
339.0
 10
517.0
 20
339.0
 10
517.0
 20
333.0
 10
516.0
 20
333.0
 10
515.0
 20
337.0
 10
514.0
 20
337.0
 10
514.2639
 20
336.3644
 10
514.5963
 20
335.773
 10
514.9941
 20
335.2245
 10
515.4544
 20
334.7174
 10
515.9742
 20
334.2502
 10
516.5505
 20
333.8216
 10
517.1805
 20
333.4301
 10
517.861
 20
333.0742
 10
518.5893
 20
332.7526
 10
519.3622
 20
332.4638
 10
520.1769
 20
332.2064
 10
521.0305
 20
331.979
 10
521.9198
 20
331.7801
 10
522.842
 20
331.6083
 10
523.7942
 20
331.4621
 10
524.7733
 20
331.3403
 10
525.7764
 20
331.2412
 10
526.8006
 20
331.1635
 10
527.8428
 20
331.1058
 10
528.9002
 20
331.0666
 10
529.9697
 20
331.0445
 10
531.0485
 20
331.038
 10
532.1335
 20
331.0459
 10
533.2218
 20
331.0665
 10
534.3104
 20
331.0985
 10
535.3964
 20
331.1405
 10
536.4767
 20
331.191
 10
537.5486
 20
331.2486
 10
538.6089
 20
331.3118
 10
539.6548
 20
331.3793
 10
540.6833
 20
331.4496
 10
541.6913
 20
331.5213
 10
542.6761
 20
331.593
 10
543.6345
 20
331.6631
 10
544.5637
 20
331.7304
 10
545.4606
 20
331.7934
 10
546.3224
 20
331.8505
 10
547.146
 20
331.9005
 10
547.9285
 20
331.9419
 10
548.667
 20
331.9732
 10
549.3585
 20
331.993
 10
550.0
 20
332.0
 10
550.9889
 20
331.9838
 10
551.9736
 20
331.9452
 10
552.95
 20
331.8985
 10
553.9141
 20
331.8583
 10
554.862
 20
331.839
 10
555.7896
 20
331.8552
 10
556.693
 20
331.9213
 10
557.568
 20
332.0518
 10
558.4107
 20
332.2613
 10
559.2172
 20
332.5642
 10
559.9834
 20
332.975
 10
560.7052
 20
333.5082
 10
561.3787
 20
334.1784
 10
562.0
 20
335.0
 10
563.0
 20
332.0
 10
564.0
 20
332.0
 10
566.0
 20
337.0
 10
564.0
 20
335.0
 10
563.0
 20
335.0
 10
562.3011
 20
335.7058
 10
561.5662
 20
336.3332
 10
560.7978
 20
336.8864
 10
559.9981
 20
337.3698
 10
559.1693
 20
337.7877
 10
558.3139
 20
338.1443
 10
557.4342
 20
338.4441
 10
556.5324
 20
338.6912
 10
555.6109
 20
338.8899
 10
554.672
 20
339.0447
 10
553.7181
 20
339.1598
 10
552.7514
 20
339.2394
 10
551.7742
 20
339.288
 10
550.789
 20
339.3097
 10
549.7979
 20
339.3089
 10
548.8034
 20
339.29
 10
547.8077
 20
339.2572
 10
546.8131
 20
339.2147
 10
545.822
 20
339.167
 10
544.8368
 20
339.1184
 10
543.8596
 20
339.073
 10
542.8929
 20
339.0353
 10
541.9389
 20
339.0095
 10
541.0
 20
339.0
 10
542.0
 20
342.0
 10
529.0
 20
342.0
  0
LWPOLYLINE
  5
37
330
17
100
AcDbEntity
  8
0
100
AcDbPolyline
 90
18
 70
0
 10
748.0
 20
339.0
 10
748.0
 20
335.0
 10
746.0
 20
338.0
 10
745.0
 20
338.0
 10
742.0
 20
333.0
 10
744.0
 20
335.0
 10
745.1684
 20
334.7081
 10
746.159
 20
334.5109
 10
746.9878
 20
334.4672
 10
747.6705
 20
334.6356
 10
748.2229
 20
335.0748
 10
748.6608
 20
335.8433
 10
749.0
 20
337.0
 10
786.0
 20
336.985352
 10
808.0
 20
337.0
 10
811.0
 20
333.0
 10
809.0
 20
339.0
 10
748.0
 20
339.0
  0
LWPOLYLINE
  5
38
330
17
100
AcDbEntity
  8
0
100
AcDbPolyline
 90
96
 70
0
 10
825.0
 20
339.0
 10
823.0
 20
333.0
 10
826.0
 20
337.0
 10
826.9517
 20
336.8501
 10
827.9092
 20
336.7136
 10
828.8722
 20
336.5898
 10
829.8405
 20
336.4783
 10
830.8137
 20
336.3788
 10
831.7917
 20
336.2906
 10
832.7742
 20
336.2135
 10
833.761
 20
336.1469
 10
834.7518
 20
336.0904
 10
835.7463
 20
336.0436
 10
836.7444
 20
336.006
 10
837.7458
 20
335.9771
 10
838.7502
 20
335.9565
 10
839.7575
 20
335.9437
 10
840.7672
 20
335.9384
 10
841.7793
 20
335.94
 10
842.7934
 20
335.9482
 10
843.8094
 20
335.9624
 10
844.8269
 20
335.9822
 10
845.8458
 20
336.0071
 10
846.8657
 20
336.0368
 10
847.8865
 20
336.0708
 10
848.9079
 20
336.1085
 10
849.9296
 20
336.1497
 10
850.9514
 20
336.1937
 10
851.9731
 20
336.2403
 10
852.9944
 20
336.2888
 10
854.015
 20
336.339
 10
855.0348
 20
336.3902
 10
856.0535
 20
336.4422
 10
857.0708
 20
336.4944
 10
858.0864
 20
336.5463
 10
859.1003
 20
336.5976
 10
860.112
 20
336.6478
 10
861.1214
 20
336.6964
 10
862.1282
 20
336.743
 10
863.1322
 20
336.7872
 10
864.1331
 20
336.8284
 10
865.1306
 20
336.8663
 10
866.1246
 20
336.9004
 10
867.1148
 20
336.9302
 10
868.1009
 20
336.9554
 10
869.0827
 20
336.9754
 10
870.06
 20
336.9898
 10
871.0325
 20
336.9981
 10
872.0
 20
337.0
 10
872.8424
 20
337.0036
 10
873.7374
 20
337.0136
 10
874.6768
 20
337.0246
 10
875.6522
 20
337.0313
 10
876.6554
 20
337.0284
 10
877.6782
 20
337.0106
 10
878.7123
 20
336.9726
 10
879.7494
 20
336.9089
 10
880.7814
 20
336.8144
 10
881.7999
 20
336.6837
 10
882.7967
 20
336.5114
 10
883.7636
 20
336.2923
 10
884.6923
 20
336.021
 10
885.5745
 20
335.6923
 10
886.402
 20
335.3007
 10
887.1666
 20
334.841
 10
887.8599
 20
334.3079
 10
888.4738
 20
333.6959
 10
889.0
 20
333.0
 10
896.0
 20
332.0
 10
896.0
 20
333.0
 10
893.0
 20
337.0
 10
892.0
 20
337.0
 10
891.0
 20
334.0
 10
890.5081
 20
334.9014
 10
889.9651
 20
335.6972
 10
889.374
 20
336.3935
 10
888.7378
 20
336.9966
 10
888.0596
 20
337.5126
 10
887.3422
 20
337.9479
 10
886.5888
 20
338.3086
 10
885.8023
 20
338.6009
 10
884.9857
 20
338.8311
 10
884.1421
 20
339.0054
 10
883.2744
 20
339.13
 10
882.3856
 20
339.2111
 10
881.4788
 20
339.255
 10
880.5569
 20
339.2678
 10
879.6229
 20
339.2558
 10
878.6799
 20
339.2253
 10
877.7309
 20
339.1823
 10
876.7788
 20
339.1333
 10
875.8266
 20
339.0843
 10
874.8774
 20
339.0416
 10
873.9342
 20
339.0114
 10
873.0
 20
339.0
 10
825.0
 20
339.0
  0
LWPOLYLINE
  5
39
330
17
100
AcDbEntity
  8
0
100
AcDbPolyline
 90
17
 70
0
 10
519.0
 20
333.0
 10
558.0
 20
333.0
 10
558.0
 20
337.0
 10
529.0
 20
337.0
 10
527.9984
 20
337.0092
 10
527.0133
 20
337.0269
 10
526.0508
 20
337.0362
 10
525.117
 20
337.0205
 10
524.2178
 20
336.963
 10
523.3594
 20
336.8472
 10
522.5478
 20
336.6564
 10
521.789
 20
336.3737
 10
521.0892
 20
335.9826
 10
520.4543
 20
335.4664
 10
519.8904
 20
334.8083
 10
519.4036
 20
333.9917
 10
519.0
 20
333.0
  0
LWPOLYLINE
  5
3A
330
17
100
AcDbEntity
  8
0
100
AcDbPolyline
 90
5
 70
0
 10
284.0
 20
336.0
 10
284.0
 20
278.0
 10
285.0
 20
278.0
 10
285.0
 20
317.0
 10
284.0
 20
336.0
  0
LWPOLYLINE
  5
3B
330
17
100
AcDbEntity
  8
0
100
AcDbPolyline
 90
5
 70
0
 10
571.0
 20
336.0
 10
571.0
 20
275.0
 10
572.0
 20
275.0
 10
572.0
 20
316.0
 10
571.0
 20
336.0
  0
LWPOLYLINE
  5
3C
330
17
100
AcDbEntity
  8
0
100
AcDbPolyline
 90
47
 70
0
 10
573.0
 20
331.0
 10
575.0
 20
277.0
 10
587.0
 20
277.0
 10
589.0
 20
271.0
 10
589.0
 20
270.0
 10
586.0
 20
275.0
 10
575.0
 20
275.0
 10
575.0
 20
253.0
 10
618.0
 20
253.0
 10
618.0
 20
268.0
 10
621.0
 20
268.0
 10
621.0
 20
275.0
 10
608.0
 20
275.0
 10
605.0
 20
270.0
 10
610.0
 20
277.0
 10
610.0
 20
300.0
 10
609.0893
 20
299.9926
 10
608.1529
 20
299.9729
 10
607.194
 20
299.9445
 10
606.2156
 20
299.9109
 10
605.2208
 20
299.8755
 10
604.2126
 20
299.8421
 10
603.1942
 20
299.814
 10
602.1684
 20
299.795
 10
601.1386
 20
299.7885
 10
600.1076
 20
299.798
 10
599.0786
 20
299.8272
 10
598.0546
 20
299.8795
 10
597.0387
 20
299.9586
 10
596.034
 20
300.068
 10
595.0435
 20
300.2111
 10
594.0703
 20
300.3917
 10
593.1175
 20
300.6131
 10
592.1881
 20
300.879
 10
591.2852
 20
301.193
 10
590.4119
 20
301.5585
 10
589.5712
 20
301.9791
 10
588.7662
 20
302.4584
 10
588.0
 20
303.0
 10
594.0
 20
302.0
 10
591.0
 20
306.0
 10
591.0
 20
307.0
 10
594.0
 20
307.0
 10
594.0
 20
319.0
 10
580.0
 20
319.0
 10
582.0
 20
331.0
 10
573.0
 20
331.0
  0
LWPOLYLINE
  5
3D
330
17
100
AcDbEntity
  8
0
100
AcDbPolyline
 90
146
 70
0
 10
766.0
 20
328.0
 10
766.2507
 20
327.2396
 10
766.4242
 20
326.5184
 10
766.5229
 20
325.8352
 10
766.5496
 20
325.1893
 10
766.5068
 20
324.5795
 10
766.3971
 20
324.005
 10
766.2231
 20
323.4647
 10
765.9875
 20
322.9578
 10
765.6929
 20
322.4833
 10
765.3419
 20
322.0401
 10
764.937
 20
321.6274
 10
764.4809
 20
321.2442
 10
763.9763
 20
320.8896
 10
763.4257
 20
320.5625
 10
762.8317
 20
320.262
 10
762.197
 20
319.9872
 10
761.5241
 20
319.737
 10
760.8157
 20
319.5106
 10
760.0744
 20
319.307
 10
759.3028
 20
319.1252
 10
758.5036
 20
318.9642
 10
757.6792
 20
318.8232
 10
756.8324
 20
318.7011
 10
755.9657
 20
318.597
 10
755.0817
 20
318.5099
 10
754.1832
 20
318.4389
 10
753.2726
 20
318.3829
 10
752.3526
 20
318.3412
 10
751.4258
 20
318.3126
 10
750.4949
 20
318.2962
 10
749.5623
 20
318.2911
 10
748.6308
 20
318.2964
 10
747.703
 20
318.3109
 10
746.7814
 20
318.3339
 10
745.8687
 20
318.3643
 10
744.9675
 20
318.4012
 10
744.0804
 20
318.4436
 10
743.21
 20
318.4906
 10
742.359
 20
318.5411
 10
741.5298
 20
318.5943
 10
740.7253
 20
318.6492
 10
739.9478
 20
318.7048
 10
739.2002
 20
318.7602
 10
738.4849
 20
318.8144
 10
737.8047
 20
318.8664
 10
737.162
 20
318.9153
 10
736.5596
 20
318.9601
 10
736.0
 20
319.0
 10
736.4165
 20
317.9731
 10
736.8788
 20
317.065
 10
737.3849
 20
316.2685
 10
737.9333
 20
315.5766
 10
738.5221
 20
314.9822
 10
739.1495
 20
314.4783
 10
739.8137
 20
314.058
 10
740.5131
 20
313.7141
 10
741.2459
 20
313.4396
 10
742.0103
 20
313.2275
 10
742.8045
 20
313.0708
 10
743.6268
 20
312.9624
 10
744.4753
 20
312.8952
 10
745.3485
 20
312.8623
 10
746.2444
 20
312.8566
 10
747.1614
 20
312.8711
 10
748.0976
 20
312.8987
 10
749.0513
 20
312.9325
 10
750.0208
 20
312.9653
 10
751.0043
 20
312.9901
 10
752.0
 20
313.0
 10
751.0
 20
305.0
 10
755.0
 20
307.0
 10
756.0
 20
307.0
 10
762.0
 20
305.0
 10
763.0
 20
305.0
 10
763.0
 20
313.0
 10
782.0
 20
313.0
 10
781.0
 20
305.0
 10
791.0
 20
307.0
 10
792.0
 20
307.0
 10
794.0
 20
305.0
 10
794.6487
 20
305.9322
 10
795.2716
 20
306.4689
 10
795.8973
 20
306.6609
 10
796.5543
 20
306.5591
 10
797.2714
 20
306.2144
 10
798.0771
 20
305.6777
 10
799.0
 20
305.0
 10
798.0857
 20
304.5591
 10
797.3099
 20
304.035
 10
796.6618
 20
303.4346
 10
796.1309
 20
302.7652
 10
795.7062
 20
302.0336
 10
795.3771
 20
301.2472
 10
795.133
 20
300.4129
 10
794.9629
 20
299.5379
 10
794.8563
 20
298.6292
 10
794.8024
 20
297.694
 10
794.7905
 20
296.7393
 10
794.8098
 20
295.7722
 10
794.8497
 20
294.7999
 10
794.8993
 20
293.8294
 10
794.9481
 20
292.8679
 10
794.9852
 20
291.9224
 10
795.0
 20
291.0
 10
801.0
 20
288.0
 10
801.0
 20
287.0
 10
795.0
 20
287.0
 10
801.0
 20
281.0
 10
799.0
 20
284.0
 10
823.0
 20
282.0
 10
828.0
 20
286.0
 10
823.0
 20
286.0
 10
823.0
 20
299.0
 10
831.0
 20
299.0
 10
833.0
 20
319.0
 10
837.0
 20
313.0
 10
858.0
 20
313.0
 10
858.0
 20
306.0
 10
870.0
 20
306.0
 10
869.0
 20
310.0
 10
869.0
 20
311.0
 10
884.0
 20
313.0
 10
884.0
 20
317.0
 10
887.0
 20
315.0
 10
890.0
 20
318.0
 10
890.0
 20
319.0
 10
888.8505
 20
318.7046
 10
887.8558
 20
318.4718
 10
886.9957
 20
318.3482
 10
886.2497
 20
318.3804
 10
885.5975
 20
318.6151
 10
885.0187
 20
319.0988
 10
884.4929
 20
319.8782
 10
884.0
 20
321.0
 10
839.0
 20
319.0
 10
839.0
 20
315.0
 10
838.0
 20
315.0
 10
837.5658
 20
316.0367
 10
837.0766
 20
316.9818
 10
836.516
 20
317.8283
 10
835.8679
 20
318.5693
 10
835.1159
 20
319.1977
 10
834.2437
 20
319.7065
 10
833.2352
 20
320.0889
 10
832.0741
 20
320.3379
  0
LWPOLYLINE
  5
3E
330
17
100
AcDbEntity
  8
0
100
AcDbPolyline
 90
69
 70
0
 10
832.074
 20
320.3379
 10
831.1016
 20
320.4148
 10
830.112
 20
320.3828
 10
829.1085
 20
320.2651
 10
828.0949
 20
320.0851
 10
827.0746
 20
319.8662
 10
826.0513
 20
319.6316
 10
825.0285
 20
319.4048
 10
824.0098
 20
319.2091
 10
822.9989
 20
319.0679
 10
821.9992
 20
319.0046
 10
821.3402
 20
319.005
 10
820.6232
 20
319.0262
 10
819.852
 20
319.0657
 10
819.0307
 20
319.1216
 10
818.163
 20
319.1915
 10
817.2529
 20
319.2733
 10
816.3043
 20
319.3648
 10
815.3211
 20
319.4639
 10
814.3073
 20
319.5683
 10
813.2667
 20
319.6758
 10
812.2033
 20
319.7844
 10
811.121
 20
319.8917
 10
810.0236
 20
319.9956
 10
808.9151
 20
320.0939
 10
807.7995
 20
320.1845
 10
806.6805
 20
320.2651
 10
805.5622
 20
320.3336
 10
804.4484
 20
320.3877
 10
803.3431
 20
320.4254
 10
802.2501
 20
320.4443
 10
801.1735
 20
320.4424
 10
800.117
 20
320.4174
 10
799.0846
 20
320.3672
 10
798.0802
 20
320.2895
 10
797.1078
 20
320.1823
 10
796.1712
 20
320.0432
 10
795.2743
 20
319.8701
 10
794.4211
 20
319.6609
 10
793.6155
 20
319.4133
 10
792.8614
 20
319.1252
 10
792.1626
 20
318.7943
 10
791.5232
 20
318.4185
 10
790.947
 20
317.9957
 10
790.438
 20
317.5236
 10
790.0
 20
317.0
 10
789.0967
 20
317.3688
 10
788.199
 20
317.7114
 10
787.3114
 20
318.0343
 10
786.4379
 20
318.344
 10
785.5828
 20
318.6467
 10
784.7505
 20
318.9491
 10
783.9452
 20
319.2576
 10
783.1711
 20
319.5786
 10
782.4325
 20
319.9186
 10
781.7337
 20
320.284
 10
781.0789
 20
320.6812
 10
780.4723
 20
321.1168
 10
779.9183
 20
321.5972
 10
779.4211
 20
322.1288
 10
778.985
 20
322.718
 10
778.6142
 20
323.3714
 10
778.313
 20
324.0954
 10
778.0857
 20
324.8964
 10
777.9364
 20
325.781
 10
777.8695
 20
326.7554
 10
777.8893
 20
327.8263
 10
778.0
 20
329.0
 10
766.0
 20
328.0
  0
LWPOLYLINE
  5
3F
330
17
100
AcDbEntity
  8
0
100
AcDbPolyline
 90
6
 70
0
 10
611.0
 20
320.0
 10
611.0
 20
277.0
 10
612.0
 20
277.0
 10
612.0
 20
319.0
 10
621.0
 20
319.0
 10
611.0
 20
320.0
  0
LWPOLYLINE
  5
40
330
17
100
AcDbEntity
  8
0
100
AcDbPolyline
 90
6
 70
0
 10
912.0
 20
318.0
 10
912.0
 20
276.0
 10
913.0
 20
276.0
 10
913.0
 20
317.0
 10
918.0
 20
317.0
 10
912.0
 20
318.0
  0
LWPOLYLINE
  5
41
330
17
100
AcDbEntity
  8
0
100
AcDbPolyline
 90
5
 70
0
 10
841.0
 20
317.0
 10
841.0
 20
315.0
 10
882.0
 20
315.0
 10
882.0
 20
317.0
 10
841.0
 20
317.0
  0
LWPOLYLINE
  5
42
330
17
100
AcDbEntity
  8
0
100
AcDbPolyline
 90
118
 70
0
 10
676.0
 20
313.0
 10
676.0
 20
286.0
 10
684.0
 20
286.0
 10
684.0
 20
280.0
 10
683.0
 20
280.0
 10
682.0
 20
282.0
 10
676.0
 20
280.0
 10
676.0
 20
278.0
 10
692.0
 20
278.0
 10
694.0
 20
270.0
 10
693.0
 20
270.0
 10
690.0
 20
272.0
 10
690.0
 20
276.0
 10
676.0
 20
276.0
 10
676.0
 20
259.0
 10
699.0
 20
259.0
 10
699.0199
 20
259.9582
 10
699.062
 20
260.9096
 10
699.0993
 20
261.841
 10
699.1049
 20
262.7393
 10
699.0519
 20
263.5913
 10
698.9135
 20
264.3841
 10
698.6629
 20
265.1045
 10
698.2731
 20
265.7393
 10
697.7172
 20
266.2756
 10
696.9685
 20
266.7002
 10
696.0
 20
267.0
 10
696.0
 20
268.0
 10
698.0
 20
274.0
 10
701.0
 20
274.0
 10
703.0
 20
268.0
 10
703.0
 20
267.0
 10
700.0
 20
267.0
 10
700.0
 20
266.0
 10
704.0
 20
264.0
 10
705.0
 20
264.0
 10
711.0
 20
264.0
 10
712.0
 20
264.0
 10
721.0
 20
266.0
 10
720.0
 20
262.0
 10
709.0
 20
262.0
 10
708.0
 20
262.0
 10
708.0
 20
264.0
 10
707.0
 20
264.0
 10
700.0
 20
262.0
 10
700.0
 20
259.0
 10
722.0
 20
259.0
 10
722.0
 20
272.0
 10
705.0
 20
271.0
 10
712.0
 20
276.0
 10
713.0
 20
276.0
 10
722.0
 20
274.0
 10
722.0
 20
286.0
 10
708.0
 20
286.0
 10
708.0
 20
281.0
 10
712.0
 20
279.0
 10
713.0
 20
282.0
 10
709.0
 20
282.0
 10
720.0
 20
285.0
 10
720.0
 20
277.0
 10
700.0
 20
277.0
 10
700.0
 20
281.0
 10
704.0
 20
278.0
 10
705.0
 20
278.0
 10
707.0
 20
288.0
 10
701.0
 20
288.0
 10
700.0
 20
292.0
 10
707.0
 20
292.0
 10
710.0
 20
296.0
 10
710.0
 20
295.0
 10
709.0272
 20
294.3215
 10
708.5914
 20
293.7071
 10
708.6318
 20
293.1623
 10
709.0873
 20
292.6925
 10
709.897
 20
292.3032
 10
711.0
 20
292.0
 10
710.0
 20
288.0
 10
711.0
 20
288.0
 10
712.0
 20
288.0
 10
712.2136
 20
288.9736
 10
712.5531
 20
289.7774
 10
713.0057
 20
290.4275
 10
713.5589
 20
290.9399
 10
714.2003
 20
291.3307
 10
714.9173
 20
291.6158
 10
715.6973
 20
291.8113
 10
716.5279
 20
291.9332
 10
717.3964
 20
291.9975
 10
718.2905
 20
292.0203
 10
719.1974
 20
292.0177
 10
720.1047
 20
292.0055
 10
721.0
 20
292.0
 10
720.0
 20
288.0
 10
722.0
 20
300.0
 10
721.0746
 20
300.0215
 10
720.1308
 20
300.0706
 10
719.1835
 20
300.1242
 10
718.2479
 20
300.1593
 10
717.3391
 20
300.1527
 10
716.4723
 20
300.0813
 10
715.6626
 20
299.9221
 10
714.9251
 20
299.6519
 10
714.275
 20
299.2477
 10
713.7273
 20
298.6864
 10
713.2973
 20
297.9448
 10
713.0
 20
297.0
 10
712.0
 20
297.0
 10
712.0
 20
300.0
 10
707.0
 20
298.0
 10
706.0
 20
298.0
 10
704.0
 20
299.0
 10
707.0
 20
308.0
 10
706.0
 20
308.0
 10
706.0
 20
305.0
 10
702.0
 20
303.0
 10
694.0
 20
304.0
 10
694.0
 20
313.0
 10
676.0
 20
313.0
  0
LWPOLYLINE
  5
43
330
17
100
AcDbEntity
  8
0
100
AcDbPolyline
 90
106
 70
0
 10
646.0
 20
306.0
 10
649.0
 20
307.0
 10
649.0
 20
300.0
 10
650.0
 20
300.0
 10
650.0
 20
303.0
 10
651.0
 20
303.0
 10
650.0
 20
296.0
 10
636.0
 20
296.0
 10
636.0
 20
289.0
 10
650.0
 20
289.0
 10
653.0
 20
282.0
 10
651.8756
 20
281.674
 10
651.0809
 20
281.2461
 10
650.5573
 20
280.6997
 10
650.2461
 20
280.0185
 10
650.0886
 20
279.1857
 10
650.0261
 20
278.1851
 10
650.0
 20
277.0
 10
635.0
 20
277.0
 10
637.0
 20
274.0
 10
635.0
 20
262.0
 10
638.0
 20
262.0
 10
640.0
 20
266.0
 10
639.0
 20
264.0
 10
640.0
 20
264.0
 10
638.0
 20
272.0
 10
643.0
 20
271.0
 10
645.0
 20
267.0
 10
642.0
 20
262.0
 10
643.0
 20
262.0
 10
645.0
 20
266.0
 10
644.0
 20
264.0
 10
645.0
 20
264.0
 10
645.0
 20
271.0
 10
650.0
 20
267.0
 10
647.0
 20
266.0
 10
647.0
 20
265.0
 10
650.0
 20
266.0
 10
650.0
 20
262.0
 10
651.0
 20
262.0
 10
650.0
 20
271.0
 10
653.0
 20
264.0
 10
654.0
 20
264.0
 10
655.0
 20
266.0
 10
657.0
 20
271.0
 10
660.0
 20
266.0
 10
662.0
 20
271.0
 10
664.0
 20
267.0
 10
661.0
 20
262.0
 10
662.0
 20
262.0
 10
662.0
 20
266.0
 10
665.0
 20
265.0
 10
664.0
 20
271.0
 10
669.0
 20
267.0
 10
666.0
 20
262.0
 10
667.0
 20
262.0
 10
667.0
 20
266.0
 10
669.0
 20
266.0
 10
669.0
 20
262.0
 10
670.0
 20
262.0
 10
669.0
 20
271.0
 10
672.0
 20
264.0
 10
673.0
 20
264.0
 10
672.0
 20
266.0
 10
673.0
 20
266.0
 10
674.0
 20
262.0
 10
675.0
 20
262.0
 10
675.0
 20
277.0
 10
660.0
 20
277.0
 10
660.0
 20
274.0
 10
664.0
 20
274.0
 10
664.0
 20
272.0
 10
649.0
 20
272.0
 10
649.0
 20
274.0
 10
654.0
 20
274.0
 10
654.0
 20
275.0
 10
652.0
 20
276.0
 10
658.0
 20
277.0
 10
657.9738
 20
278.1851
 10
657.9113
 20
279.1858
 10
657.7538
 20
280.0185
 10
657.4426
 20
280.6998
 10
656.919
 20
281.2461
 10
656.1243
 20
281.674
 10
655.0
 20
282.0
 10
658.0
 20
293.0
 10
650.0
 20
294.0
 10
652.0
 20
299.0
 10
656.0
 20
298.0
 10
655.0
 20
304.0
 10
652.0
 20
304.0
 10
651.8844
 20
304.7946
 10
651.6689
 20
305.554
 10
651.3672
 20
306.2645
 10
650.9929
 20
306.9124
 10
650.5597
 20
307.4841
 10
650.0813
 20
307.9659
 10
649.5714
 20
308.3441
 10
649.0437
 20
308.6051
 10
648.5118
 20
308.7351
 10
647.9895
 20
308.7205
 10
647.4904
 20
308.5476
 10
647.0282
 20
308.2028
 10
646.6166
 20
307.6724
 10
646.2693
 20
306.9426
 10
646.0
 20
306.0
  0
LWPOLYLINE
  5
44
330
17
100
AcDbEntity
  8
0
100
AcDbPolyline
 90
17
 70
0
 10
635.0
 20
261.0
 10
635.0
 20
258.0
 10
664.0
 20
258.0
 10
664.9715
 20
257.9878
 10
665.9415
 20
257.9611
 10
666.9047
 20
257.935
 10
667.8559
 20
257.9244
 10
668.7896
 20
257.9443
 10
669.7007
 20
258.0097
 10
670.5839
 20
258.1356
 10
671.4338
 20
258.3369
 10
672.2453
 20
258.6287
 10
673.0129
 20
259.0259
 10
673.7314
 20
259.5435
 10
674.3955
 20
260.1965
 10
675.0
 20
261.0
 10
635.0
 20
261.0
  0
LWPOLYLINE
  5
45
330
17
100
AcDbEntity
  8
0
100
AcDbPolyline
 90
5
 70
0
 10
575.0
 20
251.0
 10
575.0
 20
249.0
 10
618.0
 20
249.0
 10
618.0
 20
251.0
 10
575.0
 20
251.0
  0
LWPOLYLINE
  5
46
330
17
100
AcDbEntity
  8
0
100
AcDbPolyline
 90
167
 70
0
 10
268.0
 20
60.442131
 10
267.1909
 20
60.2138
 10
266.4105
 20
59.9616
 10
265.6587
 20
59.6862
 10
264.9352
 20
59.3882
 10
264.2397
 20
59.0684
 10
263.572
 20
58.7275
 10
262.932
 20
58.3663
 10
262.3192
 20
57.9853
 10
261.7337
 20
57.5854
 10
261.175
 20
57.1671
 10
260.6429
 20
56.7314
 10
260.1373
 20
56.2788
 10
259.6579
 20
55.81
 10
259.2045
 20
55.3258
 10
258.7768
 20
54.827
 10
258.3746
 20
54.3141
 10
257.9977
 20
53.7878
 10
257.6458
 20
53.2491
 10
257.3188
 20
52.6984
 10
257.0163
 20
52.1365
 10
256.7382
 20
51.5642
 10
256.4842
 20
50.9822
 10
256.2541
 20
50.3911
 10
256.0476
 20
49.7917
 10
255.8646
 20
49.1846
 10
255.7047
 20
48.5706
 10
255.5679
 20
47.9505
 10
255.4537
 20
47.3248
 10
255.3621
 20
46.6944
 10
255.2927
 20
46.0599
 10
255.2453
 20
45.422
 10
255.2198
 20
44.7815
 10
255.2158
 20
44.139
 10
255.2332
 20
43.4953
 10
255.2717
 20
42.851
 10
255.331
 20
42.207
 10
255.4111
 20
41.5638
 10
255.5115
 20
40.9223
 10
255.6321
 20
40.283
 10
255.7727
 20
39.6468
 10
255.933
 20
39.0143
 10
256.1128
 20
38.3863
 10
256.3118
 20
37.7634
 10
256.5299
 20
37.1463
 10
256.7668
 20
36.5359
 10
257.0222
 20
35.9327
 10
257.296
 20
35.3375
 10
257.5879
 20
34.751
 10
257.8976
 20
34.174
 10
258.225
 20
33.607
 10
258.5698
 20
33.0509
 10
258.9318
 20
32.5063
 10
259.3107
 20
31.9739
 10
259.7064
 20
31.4545
 10
260.1185
 20
30.9488
 10
260.5469
 20
30.4575
 10
260.9913
 20
29.9812
 10
261.4515
 20
29.5208
 10
261.9272
 20
29.0768
 10
262.4183
 20
28.6501
 10
262.9245
 20
28.2413
 10
263.4455
 20
27.8511
 10
263.9812
 20
27.4803
 10
264.5312
 20
27.1295
 10
265.0955
 20
26.7995
 10
265.6737
 20
26.491
 10
266.2656
 20
26.2046
 10
266.8709
 20
25.9411
 10
267.4895
 20
25.7013
 10
268.1212
 20
25.4857
 10
268.7656
 20
25.2952
 10
269.4225
 20
25.1304
 10
270.0918
 20
24.9921
 10
270.7732
 20
24.8809
 10
271.4664
 20
24.7975
 10
272.1713
 20
24.7428
 10
272.8875
 20
24.7173
 10
273.6149
 20
24.7218
 10
274.3533
 20
24.757
 10
275.1023
 20
24.8236
 10
275.8618
 20
24.9223
 10
276.6316
 20
25.0539
 10
277.4113
 20
25.219
 10
278.2009
 20
25.4183
 10
279.0
 20
25.6527
 10
279.8158
 20
25.9253
 10
280.6011
 20
26.2214
 10
281.356
 20
26.5404
 10
282.0808
 20
26.8813
 10
282.7757
 20
27.2435
 10
283.4411
 20
27.6263
 10
284.0772
 20
28.0288
 10
284.6843
 20
28.4504
 10
285.2625
 20
28.8903
 10
285.8122
 20
29.3477
 10
286.3336
 20
29.822
 10
286.827
 20
30.3123
 10
287.2927
 20
30.818
 10
287.7308
 20
31.3383
 10
288.1417
 20
31.8724
 10
288.5256
 20
32.4195
 10
288.8828
 20
32.9791
 10
289.2135
 20
33.5502
 10
289.5181
 20
34.1322
 10
289.7966
 20
34.7244
 10
290.0495
 20
35.3259
 10
290.2769
 20
35.936
 10
290.4792
 20
36.554
 10
290.6566
 20
37.1792
 10
290.8093
 20
37.8108
 10
290.9376
 20
38.448
 10
291.0418
 20
39.0902
 10
291.1221
 20
39.7365
 10
291.1787
 20
40.3862
 10
291.2121
 20
41.0386
 10
291.2223
 20
41.693
 10
291.2096
 20
42.3486
 10
291.1744
 20
43.0046
 10
291.1169
 20
43.6603
 10
291.0373
 20
44.3149
 10
290.9359
 20
44.9678
 10
290.8129
 20
45.6182
 10
290.6687
 20
46.2653
 10
290.5034
 20
46.9084
 10
290.3174
 20
47.5467
 10
290.1108
 20
48.1795
 10
289.884
 20
48.8061
 10
289.6372
 20
49.4257
 10
289.3706
 20
50.0376
 10
289.0846
 20
50.6409
 10
288.7794
 20
51.2351
 10
288.4552
 20
51.8193
 10
288.1123
 20
52.3928
 10
287.7509
 20
52.9548
 10
287.3714
 20
53.5047
 10
286.974
 20
54.0416
 10
286.5589
 20
54.5648
 10
286.1263
 20
55.0736
 10
285.6767
 20
55.5672
 10
285.2101
 20
56.0449
 10
284.7269
 20
56.5059
 10
284.2274
 20
56.9496
 10
283.7117
 20
57.3751
 10
283.1802
 20
57.7817
 10
282.6331
 20
58.1687
 10
282.0706
 20
58.5353
 10
281.4931
 20
58.8807
 10
280.9008
 20
59.2043
 10
280.2939
 20
59.5053
 10
279.6727
 20
59.783
 10
279.0374
 20
60.0365
 10
278.3884
 20
60.2652
 10
277.7259
 20
60.4683
 10
277.05
 20
60.6451
 10
276.3612
 20
60.7948
 10
275.6597
 20
60.9167
 10
274.9456
 20
61.01
 10
274.2193
 20
61.0741
 10
273.4811
 20
61.108
 10
272.7311
 20
61.1112
 10
271.9697
 20
61.0829
 10
271.1971
 20
61.0223
 10
270.4136
 20
60.9286
 10
269.6194
 20
60.8012
 10
268.8147
 20
60.6392
 10
268.0
 20
60.4421
  0
LWPOLYLINE
  5
47
330
17
100
AcDbEntity
  8
0
100
AcDbPolyline
 90
93
 70
0
 10
291.0
 20
44.0
 10
290.7074
 20
44.9574
 10
290.3907
 20
45.8958
 10
290.0497
 20
46.814
 10
289.6847
 20
47.7109
 10
289.2957
 20
48.5855
 10
288.8828
 20
49.4368
 10
288.446
 20
50.2635
 10
287.9855
 20
51.0647
 10
287.5012
 20
51.8392
 10
286.9933
 20
52.586
 10
286.4618
 20
53.3041
 10
285.9069
 20
53.9922
 10
285.3286
 20
54.6494
 10
284.7269
 20
55.2746
 10
284.102
 20
55.8667
 10
283.4539
 20
56.4246
 10
282.7827
 20
56.9472
 10
282.0884
 20
57.4335
 10
281.3712
 20
57.8823
 10
280.6312
 20
58.2927
 10
279.8683
 20
58.6635
 10
279.0827
 20
58.9936
 10
278.2744
 20
59.282
 10
277.4436
 20
59.5275
 10
276.5902
 20
59.7292
 10
275.7144
 20
59.8859
 10
274.8163
 20
59.9965
 10
273.8959
 20
60.0601
 10
272.9532
 20
60.0754
 10
271.9885
 20
60.0414
 10
271.0017
 20
59.9571
 10
269.9929
 20
59.8213
 10
268.9622
 20
59.633
 10
267.9097
 20
59.3912
 10
267.3265
 20
59.2179
 10
266.685
 20
58.9792
 10
265.9948
 20
58.6788
 10
265.266
 20
58.3207
 10
264.5082
 20
57.9087
 10
263.7313
 20
57.4464
 10
262.9451
 20
56.9378
 10
262.1595
 20
56.3866
 10
261.3842
 20
55.7967
 10
260.6292
 20
55.1718
 10
259.9041
 20
54.5159
 10
259.2189
 20
53.8326
 10
258.5834
 20
53.1258
 10
258.0073
 20
52.3993
 10
257.5006
 20
51.6569
 10
257.073
 20
50.9025
 10
256.7344
 20
50.1397
 10
256.4946
 20
49.3726
 10
256.3633
 20
48.6048
 10
256.3506
 20
47.8401
 10
256.466
 20
47.0824
 10
256.7196
 20
46.3355
 10
257.1211
 20
45.6033
 10
257.6911
 20
44.9732
 10
258.423
 20
44.5119
 10
259.2825
 20
44.1952
 10
260.2354
 20
43.9989
 10
261.2475
 20
43.899
 10
262.2846
 20
43.8712
 10
263.3126
 20
43.8916
 10
264.2973
 20
43.9359
 10
265.2045
 20
43.9801
 10
266.0
 20
44.0
 10
266.9939
 20
44.0021
 10
267.9897
 20
44.0092
 10
268.9871
 20
44.0205
 10
269.986
 20
44.0353
 10
270.9861
 20
44.0529
 10
271.9874
 20
44.0729
 10
272.9897
 20
44.0943
 10
273.9927
 20
44.1167
 10
274.9964
 20
44.1394
 10
276.0005
 20
44.1617
 10
277.0049
 20
44.1829
 10
278.0093
 20
44.2023
 10
279.0138
 20
44.2194
 10
280.018
 20
44.2335
 10
281.0217
 20
44.2439
 10
282.025
 20
44.2499
 10
283.0274
 20
44.2509
 10
284.029
 20
44.2463
 10
285.0294
 20
44.2353
 10
286.0287
 20
44.2174
 10
287.0264
 20
44.1918
 10
288.0226
 20
44.1579
 10
289.0171
 20
44.1151
 10
290.0096
 20
44.0627
 10
291.0
 20
44.0
  0
LWPOLYLINE
  5
48
330
17
100
AcDbEntity
  8
0
100
AcDbPolyline
 90
95
 70
0
 10
305.0
 20
43.0
 10
306.0093
 20
42.6247
 10
306.9772
 20
42.3286
 10
307.9047
 20
42.1224
 10
308.793
 20
42.0169
 10
309.643
 20
42.0228
 10
310.4559
 20
42.1509
 10
311.2326
 20
42.4119
 10
311.9744
 20
42.8165
 10
312.6821
 20
43.3756
 10
313.357
 20
44.0998
 10
314.0
 20
45.0
 10
315.0
 20
45.0
 10
315.0
 20
42.0
 10
320.0
 20
44.0
 10
325.0
 20
42.0
 10
325.0
 20
47.0
 10
326.0
 20
47.0
 10
326.1979
 20
46.0793
 10
326.4778
 20
45.2166
 10
326.8328
 20
44.4275
 10
327.256
 20
43.7274
 10
327.7406
 20
43.132
 10
328.2796
 20
42.6567
 10
328.8663
 20
42.3172
 10
329.4936
 20
42.1288
 10
330.1548
 20
42.1073
 10
330.8429
 20
42.2681
 10
331.551
 20
42.6268
 10
332.2723
 20
43.1989
 10
333.0
 20
44.0
 10
334.0
 20
44.0
 10
341.0
 20
42.0
 10
340.99
 20
43.0209
 10
340.9618
 20
44.004
 10
340.9071
 20
44.9425
 10
340.8175
 20
45.8295
 10
340.6849
 20
46.6584
 10
340.5008
 20
47.4223
 10
340.2569
 20
48.1145
 10
339.9449
 20
48.7282
 10
339.5565
 20
49.2567
 10
339.0834
 20
49.6931
 10
338.5173
 20
50.0307
 10
337.8498
 20
50.2628
 10
337.0726
 20
50.3825
 10
336.1775
 20
50.3831
 10
335.156
 20
50.2579
 10
334.0
 20
50.0
 10
336.0
 20
45.0
 10
335.4816
 20
45.5044
 10
334.9163
 20
46.0258
 10
334.3078
 20
46.5579
 10
333.6597
 20
47.0944
 10
332.9757
 20
47.629
 10
332.2594
 20
48.1552
 10
331.5145
 20
48.6668
 10
330.7446
 20
49.1575
 10
329.9533
 20
49.6209
 10
329.1443
 20
50.0508
 10
328.3212
 20
50.4407
 10
327.4877
 20
50.7844
 10
326.6475
 20
51.0755
 10
325.8041
 20
51.3078
 10
324.9612
 20
51.4748
 10
324.1225
 20
51.5703
 10
323.2916
 20
51.5879
 10
322.4721
 20
51.5214
 10
321.6678
 20
51.3643
 10
320.8821
 20
51.1104
 10
320.1189
 20
50.7534
 10
319.3817
 20
50.2868
 10
318.6742
 20
49.7044
 10
318.0
 20
49.0
 10
317.0573
 20
49.6124
 10
316.1349
 20
50.118
 10
315.2347
 20
50.5193
 10
314.3585
 20
50.8191
 10
313.5082
 20
51.02
 10
312.6859
 20
51.1248
 10
311.8934
 20
51.1362
 10
311.1325
 20
51.0569
 10
310.4054
 20
50.8895
 10
309.7137
 20
50.6369
 10
309.0596
 20
50.3016
 10
308.4448
 20
49.8864
 10
307.8713
 20
49.394
 10
307.341
 20
48.8272
 10
306.8559
 20
48.1885
 10
306.4178
 20
47.4807
 10
306.0286
 20
46.7065
 10
305.6903
 20
45.8686
 10
305.4049
 20
44.9698
 10
305.1741
 20
44.0127
 10
305.0
 20
43.0
  0
LWPOLYLINE
  5
49
330
17
100
AcDbEntity
  8
0
100
AcDbPolyline
 90
74
 70
0
 10
350.0
 20
51.0
 10
350.0
 20
42.0
 10
353.0
 20
45.0
 10
353.8
 20
44.7731
 10
354.622
 20
44.4943
 10
355.4614
 20
44.1794
 10
356.314
 20
43.8441
 10
357.1754
 20
43.5044
 10
358.0414
 20
43.176
 10
358.9076
 20
42.8748
 10
359.7697
 20
42.6167
 10
360.6233
 20
42.4173
 10
361.4642
 20
42.2927
 10
362.2881
 20
42.2586
 10
363.0905
 20
42.3308
 10
363.8672
 20
42.5253
 10
364.6139
 20
42.8577
 10
365.3263
 20
43.344
 10
366.0
 20
44.0
 10
367.0
 20
44.0
 10
368.0
 20
44.0
 10
368.6237
 20
43.2408
 10
369.3185
 20
42.6343
 10
370.0655
 20
42.1805
 10
370.8456
 20
41.8796
 10
371.6399
 20
41.7319
 10
372.4292
 20
41.7374
 10
373.1948
 20
41.8965
 10
373.9175
 20
42.2091
 10
374.5784
 20
42.6756
 10
375.1584
 20
43.2962
 10
375.6386
 20
44.0709
 10
376.0
 20
45.0
 10
377.0
 20
45.0
 10
377.0
 20
42.0
 10
381.0
 20
44.0
 10
382.0
 20
44.0
 10
387.0
 20
42.0
 10
386.6249
 20
43.149
 10
386.3538
 20
44.1436
 10
386.224
 20
45.004
 10
386.2728
 20
45.7504
 10
386.5375
 20
46.403
 10
387.0554
 20
46.9819
 10
387.8638
 20
47.5075
 10
389.0
 20
48.0
 10
389.0
 20
42.0
 10
392.0
 20
42.0
 10
392.0
 20
48.0
 10
395.0
 20
48.0
 10
395.0
 20
42.0
 10
399.0
 20
45.0
 10
400.0
 20
45.0
 10
400.0
 20
42.0
 10
404.0
 20
42.0
 10
404.0
 20
51.0
 10
400.0
 20
48.0
 10
399.0
 20
48.0
 10
399.0
 20
51.0
 10
373.0
 20
51.0
 10
373.0
 20
45.0
 10
371.0
 20
45.0
 10
371.0
 20
51.0
 10
366.0
 20
49.0
 10
365.0637
 20
49.6413
 10
364.163
 20
50.1224
 10
363.2876
 20
50.4431
 10
362.4275
 20
50.6034
 10
361.5724
 20
50.6034
 10
360.7122
 20
50.4431
 10
359.8369
 20
50.1224
 10
358.9362
 20
49.6413
 10
358.0
 20
49.0
 10
350.0
 20
51.0
  0
LWPOLYLINE
  5
4A
330
17
100
AcDbEntity
  8
0
100
AcDbPolyline
 90
84
 70
0
 10
417.0
 20
51.0
 10
417.0
 20
42.0
 10
424.0
 20
44.0
 10
425.0
 20
44.0
 10
425.706
 20
43.3103
 10
426.4747
 20
42.7739
 10
427.2903
 20
42.3908
 10
428.1373
 20
42.1609
 10
428.9999
 20
42.0843
 10
429.8625
 20
42.1609
 10
430.7095
 20
42.3908
 10
431.5252
 20
42.7739
 10
432.2939
 20
43.3103
 10
433.0
 20
44.0
 10
434.0
 20
44.0
 10
435.0
 20
44.0
 10
435.706
 20
43.3103
 10
436.4747
 20
42.7739
 10
437.2903
 20
42.3908
 10
438.1373
 20
42.1609
 10
438.9999
 20
42.0843
 10
439.8625
 20
42.1609
 10
440.7095
 20
42.3908
 10
441.5252
 20
42.7739
 10
442.2939
 20
43.3103
 10
443.0
 20
44.0
 10
444.0
 20
44.0
 10
444.864
 20
43.1298
 10
445.632
 20
42.6947
 10
446.3679
 20
42.6947
 10
447.1359
 20
43.1298
 10
448.0
 20
44.0
 10
449.0
 20
44.0
 10
454.0
 20
42.0
 10
453.7355
 20
42.8541
 10
453.47
 20
43.7047
 10
453.1997
 20
44.5442
 10
452.9204
 20
45.3649
 10
452.6284
 20
46.1591
 10
452.3196
 20
46.9191
 10
451.9901
 20
47.6372
 10
451.6361
 20
48.3058
 10
451.2534
 20
48.9172
 10
450.8383
 20
49.4638
 10
450.3867
 20
49.9378
 10
449.8947
 20
50.3315
 10
449.3584
 20
50.6374
 10
448.7739
 20
50.8478
 10
448.1372
 20
50.9549
 10
447.4443
 20
50.9511
 10
446.6913
 20
50.8287
 10
445.8744
 20
50.5801
 10
444.9894
 20
50.1975
 10
444.0326
 20
49.6734
 10
443.0
 20
49.0
 10
442.3773
 20
49.4246
 10
441.6937
 20
49.8096
 10
440.9556
 20
50.1542
 10
440.1697
 20
50.4575
 10
439.3425
 20
50.7186
 10
438.4804
 20
50.9368
 10
437.5901
 20
51.1112
 10
436.678
 20
51.241
 10
435.7508
 20
51.3253
 10
434.8149
 20
51.3634
 10
433.8769
 20
51.3543
 10
432.9433
 20
51.2973
 10
432.0207
 20
51.1915
 10
431.1156
 20
51.0361
 10
430.2345
 20
50.8303
 10
429.3841
 20
50.5732
 10
428.5707
 20
50.2641
 10
427.801
 20
49.9019
 10
427.0815
 20
49.4861
 10
426.4188
 20
49.0156
 10
425.8193
 20
48.4897
 10
425.2896
 20
47.9076
 10
424.8363
 20
47.2684
 10
424.4659
 20
46.5713
 10
424.185
 20
45.8154
 10
424.0
 20
45.0
 10
420.0
 20
45.0
 10
420.0
 20
51.0
 10
417.0
 20
51.0
  0
LWPOLYLINE
  5
4B
330
17
100
AcDbEntity
  8
0
100
AcDbPolyline
 90
67
 70
0
 10
342.0
 20
45.0
 10
342.0
 20
39.0
 10
305.0
 20
39.0
 10
305.1081
 20
38.1824
 10
305.2969
 20
37.4323
 10
305.5624
 20
36.7472
 10
305.9006
 20
36.1242
 10
306.3072
 20
35.5607
 10
306.7783
 20
35.0539
 10
307.3099
 20
34.6013
 10
307.8977
 20
34.2001
 10
308.5378
 20
33.8475
 10
309.2261
 20
33.541
 10
309.9585
 20
33.2778
 10
310.731
 20
33.0553
 10
311.5394
 20
32.8706
 10
312.3798
 20
32.7213
 10
313.248
 20
32.6045
 10
314.14
 20
32.5175
 10
315.0517
 20
32.4577
 10
315.9791
 20
32.4224
 10
316.918
 20
32.4089
 10
317.8644
 20
32.4145
 10
318.8143
 20
32.4365
 10
319.7635
 20
32.4722
 10
320.7081
 20
32.5189
 10
321.6438
 20
32.574
 10
322.5668
 20
32.6347
 10
323.4728
 20
32.6983
 10
324.3579
 20
32.7622
 10
325.2179
 20
32.8236
 10
326.0488
 20
32.8799
 10
326.8465
 20
32.9284
 10
327.607
 20
32.9664
 10
328.3262
 20
32.9911
 10
329.0
 20
33.0
 10
327.0
 20
37.0
 10
327.0
 20
38.0
 10
334.0
 20
38.0
 10
336.0
 20
33.0
 10
339.0
 20
38.0
 10
339.0
 20
37.0
 10
337.0
 20
33.0
 10
337.8772
 20
32.9866
 10
338.7796
 20
32.9525
 10
339.6999
 20
32.9069
 10
340.631
 20
32.8587
 10
341.5656
 20
32.8171
 10
342.4967
 20
32.791
 10
343.4169
 20
32.7897
 10
344.3191
 20
32.8221
 10
345.1961
 20
32.8973
 10
346.0408
 20
33.0244
 10
346.8459
 20
33.2124
 10
347.6042
 20
33.4705
 10
348.3086
 20
33.8077
 10
348.9519
 20
34.2331
 10
349.5269
 20
34.7557
 10
350.0264
 20
35.3846
 10
350.4432
 20
36.1289
 10
350.7701
 20
36.9977
 10
351.0
 20
38.0
 10
454.0
 20
38.0
 10
454.0
 20
39.0
 10
344.0
 20
39.0
 10
345.0
 20
45.0
 10
342.0
 20
45.0
  0
LWPOLYLINE
  5
4C
330
17
100
AcDbEntity
  8
0
100
AcDbPolyline
 90
76
 70
0
 10
256.0
 20
43.0
 10
256.0597
 20
42.0596
 10
256.1499
 20
41.1481
 10
256.2696
 20
40.2653
 10
256.4183
 20
39.411
 10
256.5949
 20
38.5852
 10
256.7988
 20
37.7878
 10
257.0292
 20
37.0185
 10
257.2852
 20
36.2773
 10
257.566
 20
35.5641
 10
257.8709
 20
34.8787
 10
258.1991
 20
34.2209
 10
258.5497
 20
33.5907
 10
258.922
 20
32.9879
 10
259.3151
 20
32.4125
 10
259.7284
 20
31.8642
 10
260.1609
 20
31.3429
 10
260.6119
 20
30.8486
 10
261.0806
 20
30.381
 10
261.5662
 20
29.9401
 10
262.0679
 20
29.5258
 10
262.5849
 20
29.1378
 10
263.1164
 20
28.7761
 10
263.6616
 20
28.4406
 10
264.2197
 20
28.1311
 10
264.7899
 20
27.8475
 10
265.3715
 20
27.5896
 10
265.9635
 20
27.3574
 10
266.5654
 20
27.1507
 10
267.1761
 20
26.9693
 10
267.795
 20
26.8132
 10
268.4212
 20
26.6823
 10
269.054
 20
26.5763
 10
269.6925
 20
26.4952
 10
270.336
 20
26.4388
 10
270.9836
 20
26.4071
 10
271.6346
 20
26.3998
 10
272.2881
 20
26.4169
 10
272.9435
 20
26.4582
 10
273.5998
 20
26.5236
 10
274.2563
 20
26.613
 10
274.9121
 20
26.7262
 10
275.5666
 20
26.8631
 10
276.2188
 20
27.0237
 10
276.868
 20
27.2076
 10
277.5135
 20
27.415
 10
278.1543
 20
27.6455
 10
278.7898
 20
27.8991
 10
279.419
 20
28.1756
 10
280.0413
 20
28.4749
 10
280.6558
 20
28.797
 10
281.2617
 20
29.1416
 10
281.8582
 20
29.5086
 10
282.4446
 20
29.898
 10
283.02
 20
30.3095
 10
283.5837
 20
30.743
 10
284.1348
 20
31.1985
 10
284.6725
 20
31.6758
 10
285.1961
 20
32.1748
 10
285.7047
 20
32.6953
 10
286.1977
 20
33.2372
 10
286.674
 20
33.8003
 10
287.1331
 20
34.3847
 10
287.574
 20
34.99
 10
287.996
 20
35.6163
 10
288.3982
 20
36.2633
 10
288.78
 20
36.9309
 10
289.1404
 20
37.6191
 10
289.4788
 20
38.3277
 10
289.7942
 20
39.0565
 10
290.0859
 20
39.8054
 10
290.3532
 20
40.5744
 10
290.5951
 20
41.3632
 10
290.811
 20
42.1718
 10
291.0
 20
43.0
 10
256.0
 20
43.0
  0
LWPOLYLINE
  5
4D
330
17
100
AcDbEntity
  8
0
100
AcDbPolyline
 90
56
 70
0
 10
1093.0
 20
34.0
 10
1093.0
 20
29.0
 10
1095.0
 20
31.0
 10
1096.0
 20
31.0
 10
1097.0
 20
31.0
 10
1097.4534
 20
30.5501
 10
1097.9848
 20
30.1446
 10
1098.5895
 20
29.7815
 10
1099.2629
 20
29.4589
 10
1100.0004
 20
29.1747
 10
1100.7974
 20
28.9272
 10
1101.6492
 20
28.7144
 10
1102.5514
 20
28.5342
 10
1103.4993
 20
28.3849
 10
1104.4883
 20
28.2644
 10
1105.5137
 20
28.1708
 10
1106.5711
 20
28.1022
 10
1107.6558
 20
28.0566
 10
1108.7632
 20
28.0321
 10
1109.8887
 20
28.0268
 10
1111.0277
 20
28.0387
 10
1112.1755
 20
28.0659
 10
1113.3277
 20
28.1064
 10
1114.4797
 20
28.1584
 10
1115.6267
 20
28.2198
 10
1116.7642
 20
28.2888
 10
1117.8876
 20
28.3634
 10
1118.9924
 20
28.4416
 10
1120.0738
 20
28.5216
 10
1121.1274
 20
28.6014
 10
1122.1485
 20
28.6791
 10
1123.1324
 20
28.7526
 10
1124.0747
 20
28.8202
 10
1124.9707
 20
28.8798
 10
1125.8159
 20
28.9295
 10
1126.6055
 20
28.9674
 10
1127.3351
 20
28.9915
 10
1128.0
 20
29.0
 10
1129.0
 20
34.0
 10
1120.0
 20
32.0
 10
1119.0
 20
32.0
 10
1118.3635
 20
32.9628
 10
1117.7817
 20
33.4442
 10
1117.2182
 20
33.4442
 10
1116.6364
 20
32.9628
 10
1116.0
 20
32.0
 10
1115.0
 20
32.0
 10
1114.5008
 20
33.0391
 10
1114.0668
 20
33.4604
 10
1113.6989
 20
33.3655
 10
1113.3978
 20
32.856
 10
1113.1646
 20
32.0336
 10
1113.0
 20
31.0
 10
1112.0
 20
31.0
 10
1112.0
 20
34.0
 10
1093.0
 20
34.0
  0
ENDSEC
  0
SECTION
  2
OBJECTS
  0
DICTIONARY
  5
A
330
0
100
AcDbDictionary
281
1
  3
ACAD_COLOR
350
B
  3
ACAD_GROUP
350
C
  3
ACAD_LAYOUT
350
D
  3
ACAD_MATERIAL
350
E
  3
ACAD_MLEADERSTYLE
350
F
  3
ACAD_MLINESTYLE
350
10
  3
ACAD_PLOTSETTINGS
350
11
  3
ACAD_PLOTSTYLENAME
350
12
  3
ACAD_SCALELIST
350
14
  3
ACAD_TABLESTYLE
350
15
  3
ACAD_VISUALSTYLE
350
16
  3
EZDXF_META
350
2D
  0
DICTIONARY
  5
B
330
A
100
AcDbDictionary
281
1
  0
DICTIONARY
  5
C
330
A
100
AcDbDictionary
281
1
  0
DICTIONARY
  5
D
330
A
100
AcDbDictionary
281
1
  3
Model
350
1A
  3
Layout1
350
1E
  0
DICTIONARY
  5
E
330
A
100
AcDbDictionary
281
1
  3
ByBlock
350
1F
  3
ByLayer
350
20
  3
Global
350
21
  0
DICTIONARY
  5
F
330
A
100
AcDbDictionary
281
1
  3
Standard
350
2C
  0
DICTIONARY
  5
10
330
A
100
AcDbDictionary
281
1
  3
Standard
350
22
  0
DICTIONARY
  5
11
330
A
100
AcDbDictionary
281
1
  0
ACDBDICTIONARYWDFLT
  5
12
330
A
100
AcDbDictionary
281
1
  3
Normal
350
13
100
AcDbDictionaryWithDefault
340
13
  0
ACDBPLACEHOLDER
  5
13
330
12
  0
DICTIONARY
  5
14
330
A
100
AcDbDictionary
281
1
  0
DICTIONARY
  5
15
330
A
100
AcDbDictionary
281
1
  0
DICTIONARY
  5
16
330
A
100
AcDbDictionary
281
1
  0
LAYOUT
  5
1A
330
D
100
AcDbPlotSettings
  1

  4
A3
  6

 40
7.5
 41
20.0
 42
7.5
 43
20.0
 44
420.0
 45
297.0
 46
0.0
 47
0.0
 48
0.0
 49
0.0
140
0.0
141
0.0
142
1.0
143
1.0
 70
1024
 72
1
 73
0
 74
5
  7

 75
16
 76
0
 77
2
 78
300
147
1.0
148
0.0
149
0.0
100
AcDbLayout
  1
Model
 70
1
 71
0
 10
0.0
 20
0.0
 11
420.0
 21
297.0
 12
0.0
 22
0.0
 32
0.0
 14
1e+20
 24
1e+20
 34
1e+20
 15
-1e+20
 25
-1e+20
 35
-1e+20
146
0.0
 13
0.0
 23
0.0
 33
0.0
 16
1.0
 26
0.0
 36
0.0
 17
0.0
 27
1.0
 37
0.0
 76
1
330
17
  0
LAYOUT
  5
1E
330
D
100
AcDbPlotSettings
  1

  4
A3
  6

 40
7.5
 41
20.0
 42
7.5
 43
20.0
 44
420.0
 45
297.0
 46
0.0
 47
0.0
 48
0.0
 49
0.0
140
0.0
141
0.0
142
1.0
143
1.0
 70
0
 72
1
 73
0
 74
5
  7

 75
16
 76
0
 77
2
 78
300
147
1.0
148
0.0
149
0.0
100
AcDbLayout
  1
Layout1
 70
1
 71
1
 10
0.0
 20
0.0
 11
420.0
 21
297.0
 12
0.0
 22
0.0
 32
0.0
 14
1e+20
 24
1e+20
 34
1e+20
 15
-1e+20
 25
-1e+20
 35
-1e+20
146
0.0
 13
0.0
 23
0.0
 33
0.0
 16
1.0
 26
0.0
 36
0.0
 17
0.0
 27
1.0
 37
0.0
 76
1
330
1B
  0
MATERIAL
  5
1F
102
{ACAD_REACTORS
330
E
102
}
330
E
100
AcDbMaterial
  1
ByBlock
  2

 70
0
 40
1.0
 71
1
 41
1.0
 91
-1023410177
 42
1.0
 72
1
  3

 73
1
 74
1
 75
1
 44
0.5
 73
0
 45
1.0
 46
1.0
 77
1
  4

 78
1
 79
1
170
1
 48
1.0
171
1
  6

172
1
173
1
174
1
140
1.0
141
1.0
175
1
  7

176
1
177
1
178
1
143
1.0
179
1
  8

270
1
271
1
272
1
145
1.0
146
1.0
273
1
  9

274
1
275
1
276
1
 42
1.0
 72
1
  3

 73
1
 74
1
 75
1
 94
63
  0
MATERIAL
  5
20
102
{ACAD_REACTORS
330
E
102
}
330
E
100
AcDbMaterial
  1
ByLayer
  2

 70
0
 40
1.0
 71
1
 41
1.0
 91
-1023410177
 42
1.0
 72
1
  3

 73
1
 74
1
 75
1
 44
0.5
 73
0
 45
1.0
 46
1.0
 77
1
  4

 78
1
 79
1
170
1
 48
1.0
171
1
  6

172
1
173
1
174
1
140
1.0
141
1.0
175
1
  7

176
1
177
1
178
1
143
1.0
179
1
  8

270
1
271
1
272
1
145
1.0
146
1.0
273
1
  9

274
1
275
1
276
1
 42
1.0
 72
1
  3

 73
1
 74
1
 75
1
 94
63
  0
MATERIAL
  5
21
102
{ACAD_REACTORS
330
E
102
}
330
E
100
AcDbMaterial
  1
Global
  2

 70
0
 40
1.0
 71
1
 41
1.0
 91
-1023410177
 42
1.0
 72
1
  3

 73
1
 74
1
 75
1
 44
0.5
 73
0
 45
1.0
 46
1.0
 77
1
  4

 78
1
 79
1
170
1
 48
1.0
171
1
  6

172
1
173
1
174
1
140
1.0
141
1.0
175
1
  7

176
1
177
1
178
1
143
1.0
179
1
  8

270
1
271
1
272
1
145
1.0
146
1.0
273
1
  9

274
1
275
1
276
1
 42
1.0
 72
1
  3

 73
1
 74
1
 75
1
 94
63
  0
MLINESTYLE
  5
22
102
{ACAD_REACTORS
330
10
102
}
330
10
100
AcDbMlineStyle
  2
Standard
 70
0
  3

 62
256
 51
90.0
 52
90.0
 71
2
 49
0.5
 62
256
  6
BYLAYER
 49
-0.5
 62
256
  6
BYLAYER
  0
MLEADERSTYLE
  5
2C
102
{ACAD_REACTORS
330
F
102
}
330
F
100
AcDbMLeaderStyle
179
2
170
2
171
1
172
0
 90
2
 40
0.0
 41
0.0
173
1
 91
-1056964608
 92
-2
290
1
 42
2.0
291
1
 43
8.0
  3
Standard
 44
4.0
300

342
29
174
1
175
1
176
0
178
1
 93
-1056964608
 45
4.0
292
0
297
0
 46
4.0
 94
-1056964608
 47
1.0
 49
1.0
140
1.0
294
1
141
0.0
177
0
142
1.0
295
0
296
0
143
3.75
271
0
272
9
273
9
  0
DICTIONARY
  5
2D
330
A
100
AcDbDictionary
280
1
281
1
  3
CREATED_BY_EZDXF
350
2E
  3
WRITTEN_BY_EZDXF
350
50
  0
DICTIONARYVAR
  5
2E
330
2D
100
DictionaryVariables
280
0
  1
1.4.3 @ 2025-11-24T05:49:45.826390+00:00
  0
DICTIONARYVAR
  5
50
330
2D
100
DictionaryVariables
280
0
  1
1.4.3 @ 2025-11-24T05:49:45.843636+00:00
  0
ENDSEC
  0
EOF
