  0
SECTION
  2
HEADER
  9
$ACADVER
  1
AC1027
  9
$ACADMAINTVER
 70
105
  9
$DWGCODEPAGE
  3
ANSI_1252
  9
$LASTSAVEDBY
  1
ezdxf
  9
$REQUIREDVERSIONS
160
0
  9
$INSBASE
 10
0.0
 20
0.0
 30
0.0
  9
$EXTMIN
 10
1e+20
 20
1e+20
 30
1e+20
  9
$EXTMAX
 10
-1e+20
 20
-1e+20
 30
-1e+20
  9
$LIMMIN
 10
0.0
 20
0.0
  9
$LIMMAX
 10
420.0
 20
297.0
  9
$ORTHOMODE
 70
0
  9
$REGENMODE
 70
1
  9
$FILLMODE
 70
1
  9
$QTEXTMODE
 70
0
  9
$MIRRTEXT
 70
1
  9
$LTSCALE
 40
1.0
  9
$ATTMODE
 70
1
  9
$TEXTSIZE
 40
2.5
  9
$TRACEWID
 40
1.0
  9
$TEXTSTYLE
  7
Standard
  9
$CLAYER
  8
0
  9
$CELTYPE
  6
ByLayer
  9
$CECOLOR
 62
256
  9
$CELTSCALE
 40
1.0
  9
$DISPSILH
 70
0
  9
$DIMSCALE
 40
1.0
  9
$DIMASZ
 40
2.5
  9
$DIMEXO
 40
0.625
  9
$DIMDLI
 40
3.75
  9
$DIMRND
 40
0.0
  9
$DIMDLE
 40
0.0
  9
$DIMEXE
 40
1.25
  9
$DIMTP
 40
0.0
  9
$DIMTM
 40
0.0
  9
$DIMTXT
 40
2.5
  9
$DIMCEN
 40
2.5
  9
$DIMTSZ
 40
0.0
  9
$DIMTOL
 70
0
  9
$DIMLIM
 70
0
  9
$DIMTIH
 70
0
  9
$DIMTOH
 70
0
  9
$DIMSE1
 70
0
  9
$DIMSE2
 70
0
  9
$DIMTAD
 70
1
  9
$DIMZIN
 70
8
  9
$DIMBLK
  1

  9
$DIMASO
 70
1
  9
$DIMSHO
 70
1
  9
$DIMPOST
  1

  9
$DIMAPOST
  1

  9
$DIMALT
 70
0
  9
$DIMALTD
 70
3
  9
$DIMALTF
 40
0.03937007874
  9
$DIMLFAC
 40
1.0
  9
$DIMTOFL
 70
1
  9
$DIMTVP
 40
0.0
  9
$DIMTIX
 70
0
  9
$DIMSOXD
 70
0
  9
$DIMSAH
 70
0
  9
$DIMBLK1
  1

  9
$DIMBLK2
  1

  9
$DIMSTYLE
  2
ISO-25
  9
$DIMCLRD
 70
0
  9
$DIMCLRE
 70
0
  9
$DIMCLRT
 70
0
  9
$DIMTFAC
 40
1.0
  9
$DIMGAP
 40
0.625
  9
$DIMJUST
 70
0
  9
$DIMSD1
 70
0
  9
$DIMSD2
 70
0
  9
$DIMTOLJ
 70
0
  9
$DIMTZIN
 70
8
  9
$DIMALTZ
 70
0
  9
$DIMALTTZ
 70
0
  9
$DIMUPT
 70
0
  9
$DIMDEC
 70
2
  9
$DIMTDEC
 70
2
  9
$DIMALTU
 70
2
  9
$DIMALTTD
 70
3
  9
$DIMTXSTY
  7
Standard
  9
$DIMAUNIT
 70
0
  9
$DIMADEC
 70
0
  9
$DIMALTRND
 40
0.0
  9
$DIMAZIN
 70
0
  9
$DIMDSEP
 70
44
  9
$DIMATFIT
 70
3
  9
$DIMFRAC
 70
0
  9
$DIMLDRBLK
  1

  9
$DIMLUNIT
 70
2
  9
$DIMLWD
 70
-2
  9
$DIMLWE
 70
-2
  9
$DIMTMOVE
 70
0
  9
$DIMFXL
 40
1.0
  9
$DIMFXLON
 70
0
  9
$DIMJOGANG
 40
0.785398163397
  9
$DIMTFILL
 70
0
  9
$DIMTFILLCLR
 70
0
  9
$DIMARCSYM
 70
0
  9
$DIMLTYPE
  6

  9
$DIMLTEX1
  6

  9
$DIMLTEX2
  6

  9
$DIMTXTDIRECTION
 70
0
  9
$LUNITS
 70
2
  9
$LUPREC
 70
4
  9
$SKETCHINC
 40
1.0
  9
$FILLETRAD
 40
10.0
  9
$AUNITS
 70
0
  9
$AUPREC
 70
2
  9
$MENU
  1
.
  9
$ELEVATION
 40
0.0
  9
$PELEVATION
 40
0.0
  9
$THICKNESS
 40
0.0
  9
$LIMCHECK
 70
0
  9
$CHAMFERA
 40
0.0
  9
$CHAMFERB
 40
0.0
  9
$CHAMFERC
 40
0.0
  9
$CHAMFERD
 40
0.0
  9
$SKPOLY
 70
0
  9
$TDCREATE
 40
2461003.8920486113
  9
$TDUCREATE
 40
2458532.153996898
  9
$TDUPDATE
 40
2461003.8920486113
  9
$TDUUPDATE
 40
2458532.1544311
  9
$TDINDWG
 40
0.0
  9
$TDUSRTIMER
 40
0.0
  9
$USRTIMER
 70
1
  9
$ANGBASE
 50
0.0
  9
$ANGDIR
 70
0
  9
$PDMODE
 70
0
  9
$PDSIZE
 40
0.0
  9
$PLINEWID
 40
0.0
  9
$SPLFRAME
 70
0
  9
$SPLINETYPE
 70
6
  9
$SPLINESEGS
 70
8
  9
$HANDSEED
  5
54
  9
$SURFTAB1
 70
6
  9
$SURFTAB2
 70
6
  9
$SURFTYPE
 70
6
  9
$SURFU
 70
6
  9
$SURFV
 70
6
  9
$UCSBASE
  2

  9
$UCSNAME
  2

  9
$UCSORG
 10
0.0
 20
0.0
 30
0.0
  9
$UCSXDIR
 10
1.0
 20
0.0
 30
0.0
  9
$UCSYDIR
 10
0.0
 20
1.0
 30
0.0
  9
$UCSORTHOREF
  2

  9
$UCSORTHOVIEW
 70
0
  9
$UCSORGTOP
 10
0.0
 20
0.0
 30
0.0
  9
$UCSORGBOTTOM
 10
0.0
 20
0.0
 30
0.0
  9
$UCSORGLEFT
 10
0.0
 20
0.0
 30
0.0
  9
$UCSORGRIGHT
 10
0.0
 20
0.0
 30
0.0
  9
$UCSORGFRONT
 10
0.0
 20
0.0
 30
0.0
  9
$UCSORGBACK
 10
0.0
 20
0.0
 30
0.0
  9
$PUCSBASE
  2

  9
$PUCSNAME
  2

  9
$PUCSORG
 10
0.0
 20
0.0
 30
0.0
  9
$PUCSXDIR
 10
1.0
 20
0.0
 30
0.0
  9
$PUCSYDIR
 10
0.0
 20
1.0
 30
0.0
  9
$PUCSORTHOREF
  2

  9
$PUCSORTHOVIEW
 70
0
  9
$PUCSORGTOP
 10
0.0
 20
0.0
 30
0.0
  9
$PUCSORGBOTTOM
 10
0.0
 20
0.0
 30
0.0
  9
$PUCSORGLEFT
 10
0.0
 20
0.0
 30
0.0
  9
$PUCSORGRIGHT
 10
0.0
 20
0.0
 30
0.0
  9
$PUCSORGFRONT
 10
0.0
 20
0.0
 30
0.0
  9
$PUCSORGBACK
 10
0.0
 20
0.0
 30
0.0
  9
$USERI1
 70
0
  9
$USERI2
 70
0
  9
$USERI3
 70
0
  9
$USERI4
 70
0
  9
$USERI5
 70
0
  9
$USERR1
 40
0.0
  9
$USERR2
 40
0.0
  9
$USERR3
 40
0.0
  9
$USERR4
 40
0.0
  9
$USERR5
 40
0.0
  9
$WORLDVIEW
 70
1
  9
$SHADEDGE
 70
3
  9
$SHADEDIF
 70
70
  9
$TILEMODE
 70
1
  9
$MAXACTVP
 70
64
  9
$PINSBASE
 10
0.0
 20
0.0
 30
0.0
  9
$PLIMCHECK
 70
0
  9
$PEXTMIN
 10
1e+20
 20
1e+20
 30
1e+20
  9
$PEXTMAX
 10
-1e+20
 20
-1e+20
 30
-1e+20
  9
$PLIMMIN
 10
0.0
 20
0.0
  9
$PLIMMAX
 10
420.0
 20
297.0
  9
$UNITMODE
 70
0
  9
$VISRETAIN
 70
1
  9
$PLINEGEN
 70
0
  9
$PSLTSCALE
 70
1
  9
$TREEDEPTH
 70
3020
  9
$CMLSTYLE
  2
Standard
  9
$CMLJUST
 70
0
  9
$CMLSCALE
 40
20.0
  9
$PROXYGRAPHICS
 70
1
  9
$MEASUREMENT
 70
1
  9
$CELWEIGHT
370
-1
  9
$ENDCAPS
280
0
  9
$JOINSTYLE
280
0
  9
$LWDISPLAY
290
0
  9
$INSUNITS
 70
6
  9
$HYPERLINKBASE
  1

  9
$STYLESHEET
  1

  9
$XEDIT
290
1
  9
$CEPSNTYPE
380
0
  9
$PSTYLEMODE
290
1
  9
$FINGERPRINTGUID
  2
{95927CAA-0290-4CAC-88C5-8AFDFDD3954D}
  9
$VERSIONGUID
  2
{5F53207D-C230-475B-8670-1CCD153CD888}
  9
$EXTNAMES
290
1
  9
$PSVPSCALE
 40
0.0
  9
$OLESTARTUP
290
0
  9
$SORTENTS
280
127
  9
$INDEXCTL
280
0
  9
$HIDETEXT
280
1
  9
$XCLIPFRAME
280
1
  9
$HALOGAP
280
0
  9
$OBSCOLOR
 70
257
  9
$OBSLTYPE
280
0
  9
$INTERSECTIONDISPLAY
280
0
  9
$INTERSECTIONCOLOR
 70
257
  9
$DIMASSOC
280
2
  9
$PROJECTNAME
  1

  9
$CAMERADISPLAY
290
0
  9
$LENSLENGTH
 40
50.0
  9
$CAMERAHEIGHT
 40
0.0
  9
$STEPSPERSEC
 40
24.0
  9
$STEPSIZE
 40
100.0
  9
$3DDWFPREC
 40
2.0
  9
$PSOLWIDTH
 40
0.005
  9
$PSOLHEIGHT
 40
0.08
  9
$LOFTANG1
 40
1.570796326795
  9
$LOFTANG2
 40
1.570796326795
  9
$LOFTMAG1
 40
0.0
  9
$LOFTMAG2
 40
0.0
  9
$LOFTPARAM
 70
7
  9
$LOFTNORMALS
280
1
  9
$LATITUDE
 40
37.795
  9
$LONGITUDE
 40
-122.394
  9
$NORTHDIRECTION
 40
0.0
  9
$TIMEZONE
 70
-8000
  9
$LIGHTGLYPHDISPLAY
280
1
  9
$TILEMODELIGHTSYNCH
280
1
  9
$CMATERIAL
347
20
  9
$SOLIDHIST
280
0
  9
$SHOWHIST
280
1
  9
$DWFFRAME
280
2
  9
$DGNFRAME
280
2
  9
$REALWORLDSCALE
290
1
  9
$INTERFERECOLOR
 62
256
  9
$CSHADOW
280
0
  9
$SHADOWPLANELOCATION
 40
0.0
  0
ENDSEC
  0
SECTION
  2
CLASSES
  0
CLASS
  1
ACDBDICTIONARYWDFLT
  2
AcDbDictionaryWithDefault
  3
ObjectDBX Classes
 90
0
 91
0
280
0
281
0
  0
CLASS
  1
SUN
  2
AcDbSun
  3
SCENEOE
 90
1153
 91
0
280
0
281
0
  0
CLASS
  1
VISUALSTYLE
  2
AcDbVisualStyle
  3
ObjectDBX Classes
 90
4095
 91
0
280
0
281
0
  0
CLASS
  1
MATERIAL
  2
AcDbMaterial
  3
ObjectDBX Classes
 90
1153
 91
0
280
0
281
0
  0
CLASS
  1
SCALE
  2
AcDbScale
  3
ObjectDBX Classes
 90
1153
 91
0
280
0
281
0
  0
CLASS
  1
TABLESTYLE
  2
AcDbTableStyle
  3
ObjectDBX Classes
 90
4095
 91
0
280
0
281
0
  0
CLASS
  1
MLEADERSTYLE
  2
AcDbMLeaderStyle
  3
ACDB_MLEADERSTYLE_CLASS
 90
4095
 91
0
280
0
281
0
  0
CLASS
  1
DICTIONARYVAR
  2
AcDbDictionaryVar
  3
ObjectDBX Classes
 90
0
 91
0
280
0
281
0
  0
CLASS
  1
CELLSTYLEMAP
  2
AcDbCellStyleMap
  3
ObjectDBX Classes
 90
1152
 91
0
280
0
281
0
  0
CLASS
  1
MENTALRAYRENDERSETTINGS
  2
AcDbMentalRayRenderSettings
  3
SCENEOE
 90
1024
 91
0
280
0
281
0
  0
CLASS
  1
ACDBDETAILVIEWSTYLE
  2
AcDbDetailViewStyle
  3
ObjectDBX Classes
 90
1025
 91
0
280
0
281
0
  0
CLASS
  1
ACDBSECTIONVIEWSTYLE
  2
AcDbSectionViewStyle
  3
ObjectDBX Classes
 90
1025
 91
0
280
0
281
0
  0
CLASS
  1
RASTERVARIABLES
  2
AcDbRasterVariables
  3
ISM
 90
0
 91
0
280
0
281
0
  0
CLASS
  1
ACDBPLACEHOLDER
  2
AcDbPlaceHolder
  3
ObjectDBX Classes
 90
0
 91
0
280
0
281
0
  0
CLASS
  1
LAYOUT
  2
AcDbLayout
  3
ObjectDBX Classes
 90
0
 91
0
280
0
281
0
  0
ENDSEC
  0
SECTION
  2
TABLES
  0
TABLE
  2
VPORT
  5
8
330
0
100
AcDbSymbolTable
 70
1
  0
VPORT
  5
23
330
8
100
AcDbSymbolTableRecord
100
AcDbViewportTableRecord
  2
*Active
 70
0
 10
0.0
 20
0.0
 11
1.0
 21
1.0
 12
0.0
 22
0.0
 13
0.0
 23
0.0
 14
0.5
 24
0.5
 15
0.5
 25
0.5
 16
0.0
 26
0.0
 36
1.0
 17
0.0
 27
0.0
 37
0.0
 40
1000.0
 41
1.34
 42
50.0
 43
0.0
 44
0.0
 50
0.0
 51
0.0
 71
0
 72
1000
 73
1
 74
3
 75
0
 76
0
 77
0
 78
0
281
0
 65
0
146
0.0
  0
ENDTAB
  0
TABLE
  2
LTYPE
  5
2
330
0
100
AcDbSymbolTable
 70
3
  0
LTYPE
  5
24
330
2
100
AcDbSymbolTableRecord
100
AcDbLinetypeTableRecord
  2
ByBlock
 70
0
  3

 72
65
 73
0
 40
0.0
  0
LTYPE
  5
25
330
2
100
AcDbSymbolTableRecord
100
AcDbLinetypeTableRecord
  2
ByLayer
 70
0
  3

 72
65
 73
0
 40
0.0
  0
LTYPE
  5
26
330
2
100
AcDbSymbolTableRecord
100
AcDbLinetypeTableRecord
  2
Continuous
 70
0
  3

 72
65
 73
0
 40
0.0
  0
ENDTAB
  0
TABLE
  2
LAYER
  5
1
330
0
100
AcDbSymbolTable
 70
2
  0
LAYER
  5
27
330
1
100
AcDbSymbolTableRecord
100
AcDbLayerTableRecord
  2
0
 70
0
 62
7
  6
Continuous
370
-3
390
13
347
21
  0
LAYER
  5
28
330
1
100
AcDbSymbolTableRecord
100
AcDbLayerTableRecord
  2
Defpoints
 70
0
 62
7
  6
Continuous
290
0
370
-3
390
13
347
21
  0
ENDTAB
  0
TABLE
  2
STYLE
  5
5
330
0
100
AcDbSymbolTable
 70
1
  0
STYLE
  5
29
330
5
100
AcDbSymbolTableRecord
100
AcDbTextStyleTableRecord
  2
Standard
 70
0
 40
0.0
 41
1.0
 50
0.0
 71
0
 42
2.5
  3
txt
  4

  0
ENDTAB
  0
TABLE
  2
VIEW
  5
7
330
0
100
AcDbSymbolTable
 70
0
  0
ENDTAB
  0
TABLE
  2
UCS
  5
6
330
0
100
AcDbSymbolTable
 70
0
  0
ENDTAB
  0
TABLE
  2
APPID
  5
3
330
0
100
AcDbSymbolTable
 70
3
  0
APPID
  5
2A
330
3
100
AcDbSymbolTableRecord
100
AcDbRegAppTableRecord
  2
ACAD
 70
0
  0
APPID
  5
51
330
3
100
AcDbSymbolTableRecord
100
AcDbRegAppTableRecord
  2
HATCHBACKGROUNDCOLOR
 70
0
  0
APPID
  5
52
330
3
100
AcDbSymbolTableRecord
100
AcDbRegAppTableRecord
  2
EZDXF
 70
0
  0
ENDTAB
  0
TABLE
  2
DIMSTYLE
  5
4
330
0
100
AcDbSymbolTable
 70
1
100
AcDbDimStyleTable
  0
DIMSTYLE
105
2B
330
4
100
AcDbSymbolTableRecord
100
AcDbDimStyleTableRecord
  2
Standard
 70
0
 40
1.0
 41
2.5
 42
0.625
 43
3.75
 44
1.25
 45
0.0
 46
0.0
 47
0.0
 48
0.0
 49
2.5
140
2.5
141
2.5
142
0.0
143
0.03937007874
144
1.0
145
0.0
146
1.0
147
0.625
148
0.0
 69
0
 70
0
 71
0
 72
0
 73
0
 74
0
 75
0
 76
0
 77
1
 78
8
 79
3
170
0
171
3
172
1
173
0
174
0
175
0
176
0
177
0
178
0
179
2
271
2
272
2
273
2
274
3
275
0
276
0
277
2
278
44
279
0
280
0
281
0
282
0
283
0
284
8
285
0
286
0
288
0
289
3
290
0
371
-2
372
-2
  0
ENDTAB
  0
TABLE
  2
BLOCK_RECORD
  5
9
330
0
100
AcDbSymbolTable
 70
2
  0
BLOCK_RECORD
  5
17
330
9
100
AcDbSymbolTableRecord
100
AcDbBlockTableRecord
  2
*Model_Space
340
1A
 70
0
280
1
281
0
  0
BLOCK_RECORD
  5
1B
330
9
100
AcDbSymbolTableRecord
100
AcDbBlockTableRecord
  2
*Paper_Space
340
1E
 70
0
280
1
281
0
  0
ENDTAB
  0
ENDSEC
  0
SECTION
  2
BLOCKS
  0
BLOCK
  5
18
330
17
100
AcDbEntity
  8
0
100
AcDbBlockBegin
  2
*Model_Space
 70
0
 10
0.0
 20
0.0
 30
0.0
  3
*Model_Space
  1

  0
ENDBLK
  5
19
330
17
100
AcDbEntity
  8
0
100
AcDbBlockEnd
  0
BLOCK
  5
1C
330
1B
100
AcDbEntity
  8
0
100
AcDbBlockBegin
  2
*Paper_Space
 70
0
 10
0.0
 20
0.0
 30
0.0
  3
*Paper_Space
  1

  0
ENDBLK
  5
1D
330
1B
100
AcDbEntity
  8
0
100
AcDbBlockEnd
  0
ENDSEC
  0
SECTION
  2
ENTITIES
  0
LWPOLYLINE
  5
2F
330
17
100
AcDbEntity
  8
0
100
AcDbPolyline
 90
5
 70
0
 10
0.0
 20
792.0
 10
0.0
 20
0.0
 10
1224.0
 20
0.0
 10
1224.0
 20
792.0
 10
0.0
 20
792.0
  0
LWPOLYLINE
  5
30
330
17
100
AcDbEntity
  8
0
100
AcDbPolyline
 90
5
 70
0
 10
35.0
 20
775.0
 10
35.0
 20
17.0
 10
1207.0
 20
17.0
 10
1207.0
 20
775.0
 10
35.0
 20
775.0
  0
LWPOLYLINE
  5
31
330
17
100
AcDbEntity
  8
0
100
AcDbPolyline
 90
5
 70
0
 10
37.0
 20
773.0
 10
37.0
 20
19.0
 10
1205.0
 20
19.0
 10
1205.0
 20
773.0
 10
37.0
 20
773.0
  0
LWPOLYLINE
  5
32
330
17
100
AcDbEntity
  8
0
100
AcDbPolyline
 90
918
 70
0
 10
532.0
 20
601.0
 10
532.0
 20
556.0
 10
559.0
 20
554.985352
 10
587.0
 20
554.0
 10
587.0
 20
516.0
 10
551.0
 20
517.0
 10
551.320984
 20
437.0
 10
551.0
 20
375.0
 10
569.0
 20
376.0
 10
568.0
 20
358.0
 10
567.0095
 20
358.0765
 10
566.019
 20
358.1512
 10
565.0283
 20
358.224
 10
564.0375
 20
358.295
 10
563.0465
 20
358.3641
 10
562.0554
 20
358.4315
 10
561.0642
 20
358.497
 10
560.0728
 20
358.5607
 10
559.0813
 20
358.6227
 10
558.0897
 20
358.683
 10
557.098
 20
358.7415
 10
556.1061
 20
358.7983
 10
555.1141
 20
358.8534
 10
554.122
 20
358.9068
 10
553.1297
 20
358.9585
 10
552.1373
 20
359.0086
 10
551.1448
 20
359.057
 10
550.1522
 20
359.1039
 10
549.1595
 20
359.1491
 10
548.1666
 20
359.1927
 10
547.1737
 20
359.2348
 10
546.1806
 20
359.2753
 10
545.1874
 20
359.3143
 10
544.1941
 20
359.3517
 10
543.2007
 20
359.3877
 10
542.2071
 20
359.4221
 10
541.2135
 20
359.4551
 10
540.2197
 20
359.4866
 10
539.2259
 20
359.5167
 10
538.2319
 20
359.5453
 10
537.2378
 20
359.5726
 10
536.2437
 20
359.5984
 10
535.2494
 20
359.6229
 10
534.255
 20
359.646
 10
533.2606
 20
359.6678
 10
532.266
 20
359.6882
 10
531.2713
 20
359.7073
 10
530.2766
 20
359.7252
 10
529.2817
 20
359.7417
 10
528.2867
 20
359.757
 10
527.2917
 20
359.771
 10
526.2966
 20
359.7838
 10
525.3013
 20
359.7954
 10
524.306
 20
359.8058
 10
523.3106
 20
359.815
 10
522.3151
 20
359.823
 10
521.3195
 20
359.8299
 10
520.3239
 20
359.8357
 10
519.3281
 20
359.8403
 10
518.3323
 20
359.8438
 10
517.3364
 20
359.8463
 10
516.3404
 20
359.8476
 10
515.3444
 20
359.848
 10
514.3482
 20
359.8472
 10
513.352
 20
359.8455
 10
512.3557
 20
359.8427
 10
511.3593
 20
359.839
 10
510.3629
 20
359.8343
 10
509.3664
 20
359.8286
 10
508.3698
 20
359.822
 10
507.3732
 20
359.8144
 10
506.3765
 20
359.806
 10
505.3797
 20
359.7967
 10
504.3828
 20
359.7864
 10
503.3859
 20
359.7754
 10
502.389
 20
359.7634
 10
501.3919
 20
359.7507
 10
500.3948
 20
359.7371
 10
499.3977
 20
359.7228
 10
498.4005
 20
359.7076
 10
497.4032
 20
359.6917
 10
496.4059
 20
359.6751
 10
495.4085
 20
359.6577
 10
494.4111
 20
359.6396
 10
493.4136
 20
359.6208
 10
492.4161
 20
359.6013
 10
491.4185
 20
359.5812
 10
490.4209
 20
359.5604
 10
489.4232
 20
359.5389
 10
488.4255
 20
359.5169
 10
487.4277
 20
359.4942
 10
486.4299
 20
359.471
 10
485.432
 20
359.4472
 10
484.4341
 20
359.4228
 10
483.4362
 20
359.3979
 10
482.4382
 20
359.3725
 10
481.4402
 20
359.3465
 10
480.4422
 20
359.3201
 10
479.4441
 20
359.2932
 10
478.446
 20
359.2659
 10
477.4478
 20
359.2381
 10
476.4497
 20
359.2099
 10
475.4514
 20
359.1813
 10
474.4532
 20
359.1523
 10
473.4549
 20
359.1229
 10
472.4566
 20
359.0931
 10
471.4583
 20
359.063
 10
470.46
 20
359.0326
 10
469.4616
 20
359.0019
 10
468.4632
 20
358.9708
 10
467.4648
 20
358.9395
 10
466.4664
 20
358.908
 10
465.4679
 20
358.8761
 10
464.4695
 20
358.8441
 10
463.471
 20
358.8118
 10
462.4725
 20
358.7794
 10
461.474
 20
358.7467
 10
460.4755
 20
358.7139
 10
459.4769
 20
358.6809
 10
458.4784
 20
358.6478
 10
457.4798
 20
358.6146
 10
456.4813
 20
358.5813
 10
455.4827
 20
358.5479
 10
454.4841
 20
358.5145
 10
453.4856
 20
358.4809
 10
452.487
 20
358.4474
 10
451.4884
 20
358.4138
 10
450.4898
 20
358.3802
 10
449.4912
 20
358.3466
 10
448.4927
 20
358.3131
 10
447.4941
 20
358.2796
 10
446.4955
 20
358.2461
 10
445.497
 20
358.2128
 10
444.4984
 20
358.1795
 10
443.4999
 20
358.1463
 10
442.5013
 20
358.1133
 10
441.5028
 20
358.0804
 10
440.5043
 20
358.0476
 10
439.5058
 20
358.0151
 10
438.5073
 20
357.9827
 10
437.5088
 20
357.9505
 10
436.5103
 20
357.9185
 10
435.5119
 20
357.8868
 10
434.5135
 20
357.8554
 10
433.5151
 20
357.8242
 10
432.5167
 20
357.7933
 10
431.5183
 20
357.7626
 10
430.52
 20
357.7324
 10
429.5217
 20
357.7024
 10
428.5234
 20
357.6728
 10
427.5251
 20
357.6436
 10
426.5269
 20
357.6147
 10
425.5287
 20
357.5862
 10
424.5305
 20
357.5582
 10
423.5324
 20
357.5306
 10
422.5343
 20
357.5034
 10
421.5362
 20
357.4767
 10
420.5381
 20
357.4505
 10
419.5401
 20
357.4248
 10
418.5422
 20
357.3996
 10
417.5443
 20
357.3749
 10
416.5464
 20
357.3507
 10
415.5485
 20
357.3272
 10
414.5507
 20
357.3042
 10
413.553
 20
357.2818
 10
412.5553
 20
357.26
 10
411.5576
 20
357.2388
 10
410.56
 20
357.2182
 10
409.5624
 20
357.1984
 10
408.5649
 20
357.1792
 10
407.5674
 20
357.1607
 10
406.57
 20
357.1428
 10
405.5726
 20
357.1258
 10
404.5753
 20
357.1094
 10
403.5781
 20
357.0938
 10
402.5809
 20
357.079
 10
401.5838
 20
357.065
 10
400.5867
 20
357.0517
 10
399.5897
 20
357.0393
 10
398.5927
 20
357.0277
 10
397.5958
 20
357.017
 10
396.599
 20
357.0071
 10
395.6022
 20
356.9981
 10
394.6055
 20
356.9901
 10
393.6089
 20
356.9829
 10
392.6123
 20
356.9767
 10
391.6158
 20
356.9714
 10
390.6194
 20
356.9671
 10
389.6231
 20
356.9637
 10
388.6268
 20
356.9614
 10
387.6306
 20
356.9601
 10
386.6345
 20
356.9598
 10
385.6384
 20
356.9605
 10
384.6425
 20
356.9623
 10
383.6466
 20
356.9652
 10
382.6508
 20
356.9692
 10
381.6551
 20
356.9742
 10
380.6594
 20
356.9805
 10
379.6639
 20
356.9878
 10
378.6684
 20
356.9963
 10
377.673
 20
357.006
 10
376.6777
 20
357.0169
 10
375.6825
 20
357.029
 10
374.6874
 20
357.0423
 10
373.6924
 20
357.0568
 10
372.6974
 20
357.0726
 10
371.7026
 20
357.0897
 10
370.7079
 20
357.108
 10
369.7132
 20
357.1277
 10
368.7187
 20
357.1486
 10
367.7242
 20
357.171
 10
366.7299
 20
357.1946
 10
365.7356
 20
357.2197
 10
364.7415
 20
357.2461
 10
363.7474
 20
357.2739
 10
362.7535
 20
357.3031
 10
361.7597
 20
357.3338
 10
360.7659
 20
357.3659
 10
359.7723
 20
357.3995
 10
358.7788
 20
357.4345
 10
357.7854
 20
357.4711
 10
356.7921
 20
357.5092
 10
355.799
 20
357.5488
 10
354.8059
 20
357.5899
 10
353.813
 20
357.6326
 10
352.8202
 20
357.6769
 10
351.8274
 20
357.7228
 10
350.8349
 20
357.7703
 10
349.8424
 20
357.8194
 10
348.8501
 20
357.8701
 10
347.8578
 20
357.9226
 10
346.8657
 20
357.9766
 10
345.8738
 20
358.0324
 10
344.8819
 20
358.0899
 10
343.8902
 20
358.1491
 10
342.8986
 20
358.2101
 10
341.9071
 20
358.2728
 10
340.9158
 20
358.3373
 10
339.9246
 20
358.4035
 10
338.9336
 20
358.4716
 10
337.9426
 20
358.5415
 10
336.9518
 20
358.6132
 10
335.9612
 20
358.6868
 10
334.9707
 20
358.7622
 10
333.9803
 20
358.8396
 10
332.99
 20
358.9188
 10
332.0
 20
359.0
 10
331.0
 20
358.0
 10
332.0
 20
354.0
 10
331.0
 20
354.0
 10
330.0
 20
357.0
 10
329.0
 20
357.0
 10
325.0
 20
352.0
 10
325.0
 20
359.0
 10
318.0
 20
359.0
 10
318.0
 20
325.0
 10
282.0
 20
325.0
 10
282.0
 20
317.0
 10
288.0
 20
317.0
 10
288.0
 20
300.0
 10
282.0
 20
300.0
 10
282.0
 20
236.0
 10
572.0
 20
236.0
 10
572.0
 20
210.0
 10
621.0
 20
210.0
 10
621.0
 20
217.0
 10
653.0
 20
217.0
 10
652.0
 20
212.0
 10
661.0
 20
213.0
 10
661.1882
 20
213.8408
 10
661.4979
 20
214.5692
 10
661.9187
 20
215.1927
 10
662.4402
 20
215.7188
 10
663.0521
 20
216.1549
 10
663.7438
 20
216.5086
 10
664.5051
 20
216.7874
 10
665.3255
 20
216.9987
 10
666.1946
 20
217.15
 10
667.1021
 20
217.2488
 10
668.0376
 20
217.3027
 10
668.9906
 20
217.3191
 10
669.9508
 20
217.3055
 10
670.9078
 20
217.2694
 10
671.8511
 20
217.2183
 10
672.7705
 20
217.1597
 10
673.6554
 20
217.101
 10
674.4956
 20
217.0499
 10
675.2806
 20
217.0137
 10
676.0
 20
217.0
 10
726.0
 20
217.0
 10
937.0
 20
217.0
 10
937.0
 20
282.0
 10
933.0
 20
282.0
 10
933.0
 20
283.0
 10
959.0
 20
283.0
 10
959.0
 20
191.0
 10
960.0
 20
191.0
 10
960.0
 20
284.0
 10
946.0
 20
286.0
 10
931.0
 20
286.0
 10
931.0
 20
282.0
 10
928.0
 20
282.0
 10
928.0
 20
275.0
 10
924.0
 20
280.0
 10
923.0
 20
280.0
 10
919.0
 20
275.0
 10
918.9241
 20
276.1874
 10
918.7779
 20
277.2538
 10
918.5602
 20
278.2055
 10
918.2701
 20
279.0489
 10
917.9065
 20
279.7902
 10
917.4684
 20
280.4361
 10
916.9547
 20
280.9927
 10
916.3644
 20
281.4665
 10
915.6964
 20
281.8638
 10
914.9498
 20
282.1911
 10
914.1234
 20
282.4547
 10
913.2163
 20
282.661
 10
912.2274
 20
282.8164
 10
911.1556
 20
282.9273
 10
910.0
 20
283.0
 10
910.0
 20
280.0
 10
904.0
 20
280.0
 10
904.0
 20
283.0
 10
896.0
 20
281.0
 10
895.0
 20
281.0
 10
894.0
 20
281.0
 10
894.0
 20
283.0
 10
876.999207
 20
283.984558
 10
840.0
 20
284.0
 10
839.0
 20
278.0
 10
838.0
 20
278.0
 10
838.0
 20
282.0
 10
833.0
 20
278.0
 10
832.0
 20
278.0
 10
831.9096
 20
278.6477
 10
831.7465
 20
279.261
 10
831.5138
 20
279.8404
 10
831.2145
 20
280.3863
 10
830.8517
 20
280.8991
 10
830.4284
 20
281.3794
 10
829.9477
 20
281.8275
 10
829.4127
 20
282.2439
 10
828.8264
 20
282.6291
 10
828.1918
 20
282.9834
 10
827.512
 20
283.3074
 10
826.7902
 20
283.6015
 10
826.0292
 20
283.8661
 10
825.2323
 20
284.1017
 10
824.4023
 20
284.3087
 10
823.5425
 20
284.4876
 10
822.6558
 20
284.6389
 10
821.7454
 20
284.7629
 10
820.8142
 20
284.8601
 10
819.8653
 20
284.931
 10
818.9018
 20
284.9761
 10
817.9267
 20
284.9957
 10
816.9431
 20
284.9903
 10
815.9541
 20
284.9603
 10
814.9627
 20
284.9063
 10
813.9719
 20
284.8287
 10
812.9848
 20
284.7278
 10
812.0045
 20
284.6042
 10
811.034
 20
284.4583
 10
810.0764
 20
284.2905
 10
809.1347
 20
284.1014
 10
808.2121
 20
283.8913
 10
807.3114
 20
283.6606
 10
806.4359
 20
283.41
 10
805.5885
 20
283.1397
 10
804.7724
 20
282.8502
 10
803.9905
 20
282.542
 10
803.2459
 20
282.2156
 10
802.5418
 20
281.8713
 10
801.881
 20
281.5096
 10
801.2668
 20
281.1311
 10
800.7021
 20
280.736
 10
800.19
 20
280.3249
 10
799.7336
 20
279.8983
 10
799.3359
 20
279.4564
 10
799.0
 20
279.0
 10
794.0
 20
284.0
 10
777.0
 20
284.0
 10
777.0
 20
285.0
 10
779.0
 20
290.0
 10
767.0
 20
291.0
 10
770.0
 20
287.0
 10
769.0
 20
283.0
 10
768.1524
 20
283.2373
 10
767.2835
 20
283.4543
 10
766.396
 20
283.6496
 10
765.4921
 20
283.822
 10
764.5746
 20
283.9703
 10
763.6458
 20
284.0931
 10
762.7084
 20
284.1892
 10
761.7649
 20
284.2574
 10
760.8178
 20
284.2964
 10
759.8695
 20
284.3049
 10
758.9227
 20
284.2816
 10
757.9798
 20
284.2254
 10
757.0434
 20
284.1349
 10
756.116
 20
284.0089
 10
755.2001
 20
283.8461
 10
754.2982
 20
283.6453
 10
753.413
 20
283.4052
 10
752.5468
 20
283.1246
 10
751.7022
 20
282.8021
 10
750.8817
 20
282.4365
 10
750.0879
 20
282.0266
 10
749.3233
 20
281.5711
 10
748.5904
 20
281.0688
 10
747.8917
 20
280.5183
 10
747.2298
 20
279.9184
 10
746.6071
 20
279.2679
 10
746.0262
 20
278.5655
 10
745.4897
 20
277.8099
 10
745.0
 20
277.0
 10
744.0
 20
277.0
 10
743.397
 20
278.025
 10
742.8079
 20
278.9004
 10
742.2081
 20
279.6279
 10
741.5729
 20
280.2096
 10
740.8775
 20
280.6475
 10
740.0972
 20
280.9435
 10
739.2073
 20
281.0996
 10
738.1831
 20
281.1178
 10
737.0
 20
281.0
 10
736.7477
 20
281.7885
 10
736.3665
 20
282.4482
 10
735.8695
 20
282.9897
 10
735.2695
 20
283.4233
 10
734.5795
 20
283.7594
 10
733.8125
 20
284.0086
 10
732.9815
 20
284.1813
 10
732.0993
 20
284.288
 10
731.179
 20
284.339
 10
730.2336
 20
284.3449
 10
729.276
 20
284.3161
 10
728.3191
 20
284.263
 10
727.376
 20
284.1962
 10
726.4595
 20
284.126
 10
725.5827
 20
284.063
 10
724.7585
 20
284.0174
 10
724.0
 20
284.0
 10
722.9227
 20
283.9943
 10
721.8564
 20
283.9777
 10
720.8007
 20
283.9504
 10
719.7549
 20
283.913
 10
718.7184
 20
283.8659
 10
717.6906
 20
283.8094
 10
716.671
 20
283.7439
 10
715.659
 20
283.6699
 10
714.6539
 20
283.5879
 10
713.6552
 20
283.4981
 10
712.6624
 20
283.4011
 10
711.6747
 20
283.2971
 10
710.6917
 20
283.1868
 10
709.7128
 20
283.0704
 10
708.7373
 20
282.9483
 10
707.7647
 20
282.8211
 10
706.7944
 20
282.6891
 10
705.8258
 20
282.5526
 10
704.8583
 20
282.4122
 10
703.8914
 20
282.2683
 10
702.9244
 20
282.1212
 10
701.9568
 20
281.9714
 10
700.988
 20
281.8192
 10
700.0173
 20
281.6652
 10
699.0443
 20
281.5096
 10
698.0683
 20
281.353
 10
697.0888
 20
281.1958
 10
696.1051
 20
281.0382
 10
695.1167
 20
280.8809
 10
694.123
 20
280.7241
 10
693.1234
 20
280.5683
 10
692.1173
 20
280.4139
 10
691.1041
 20
280.2614
 10
690.0833
 20
280.1111
 10
689.0872
 20
280.0534
 10
688.178
 20
280.1519
 10
687.329
 20
280.3565
 10
686.5135
 20
280.617
 10
685.7046
 20
280.8831
 10
684.8756
 20
281.1046
 10
683.9996
 20
281.2314
 10
683.05
 20
281.2132
 10
682.0
 20
281.0
 10
681.674
 20
282.1243
 10
681.2462
 20
282.919
 10
680.6998
 20
283.4426
 10
680.0186
 20
283.7538
 10
679.1858
 20
283.9113
 10
678.1851
 20
283.9738
 10
677.0
 20
284.0
 10
677.0
 20
288.0
 10
670.0
 20
288.0
 10
670.0
 20
285.0
 10
669.0504
 20
284.9482
 10
668.1224
 20
284.8583
 10
667.2162
 20
284.7437
 10
666.3321
 20
284.6176
 10
665.4704
 20
284.4933
 10
664.6316
 20
284.3843
 10
663.8159
 20
284.3038
 10
663.0236
 20
284.2651
 10
662.255
 20
284.2817
 10
661.5105
 20
284.3667
 10
660.7904
 20
284.5336
 10
660.095
 20
284.7956
 10
659.4246
 20
285.1662
 10
658.7796
 20
285.6586
 10
658.1603
 20
286.2861
 10
657.567
 20
287.0621
 10
657.0
 20
288.0
 10
632.0
 20
284.0
 10
632.0
 20
278.0
 10
629.0
 20
282.0
 10
628.0
 20
282.0
 10
625.0
 20
278.0
 10
625.0
 20
284.0
 10
582.0
 20
282.0
 10
582.0
 20
285.0
 10
589.0
 20
285.0
 10
589.0
 20
295.0
 10
573.0
 20
295.0
 10
572.0
 20
303.0
 10
577.0
 20
303.0
 10
574.0
 20
308.0
 10
574.0
 20
309.0
 10
586.624207
 20
312.584869
 10
595.0
 20
318.0
 10
594.0
 20
321.0
 10
595.0
 20
321.0
 10
596.0
 20
317.0
 10
597.0
 20
317.0
 10
601.0
 20
322.0
 10
601.0
 20
316.0
 10
604.0
 20
316.0
 10
604.0
 20
299.0
 10
636.0
 20
296.0
 10
648.0
 20
298.0
 10
649.0
 20
298.0
 10
649.5556
 20
297.2287
 10
650.2112
 20
296.6368
 10
650.9386
 20
296.222
 10
651.7101
 20
295.9819
 10
652.4977
 20
295.9143
 10
653.2736
 20
296.0168
 10
654.0098
 20
296.287
 10
654.6784
 20
296.7228
 10
655.2516
 20
297.3218
 10
655.7014
 20
298.0816
 10
656.0
 20
299.0
 10
666.0
 20
294.0
 10
666.0
 20
299.0
 10
668.0
 20
296.0
 10
668.8441
 20
296.0526
 10
669.7158
 20
296.1793
 10
670.6082
 20
296.3627
 10
671.5145
 20
296.5855
 10
672.428
 20
296.8302
 10
673.3418
 20
297.0795
 10
674.249
 20
297.316
 10
675.143
 20
297.5223
 10
676.0169
 20
297.681
 10
676.8639
 20
297.7748
 10
677.6772
 20
297.7862
 10
678.45
 20
297.6979
 10
679.1755
 20
297.4925
 10
679.8468
 20
297.1526
 10
680.4572
 20
296.6609
 10
681.0
 20
296.0
 10
686.0
 20
297.0
 10
690.0
 20
294.0
 10
694.0
 20
299.0
 10
694.2985
 20
298.0816
 10
694.7483
 20
297.3217
 10
695.3214
 20
296.7228
 10
695.9901
 20
296.287
 10
696.7262
 20
296.0168
 10
697.5021
 20
295.9143
 10
698.2897
 20
295.9819
 10
699.0612
 20
296.222
 10
699.7887
 20
296.6368
 10
700.4442
 20
297.2287
 10
701.0
 20
298.0
 10
702.0
 20
298.0
 10
702.4906
 20
297.5122
 10
703.0617
 20
297.0744
 10
703.7079
 20
296.6851
 10
704.4235
 20
296.3427
 10
705.2027
 20
296.0457
 10
706.0402
 20
295.7927
 10
706.9302
 20
295.5821
 10
707.8671
 20
295.4124
 10
708.8453
 20
295.2822
 10
709.8593
 20
295.1899
 10
710.9034
 20
295.134
 10
711.9719
 20
295.1131
 10
713.0594
 20
295.1256
 10
714.1601
 20
295.17
 10
715.2685
 20
295.2449
 10
716.3789
 20
295.3487
 10
717.4858
 20
295.4799
 10
718.5835
 20
295.6371
 10
719.6665
 20
295.8187
 10
720.7291
 20
296.0232
 10
721.7657
 20
296.2492
 10
722.7706
 20
296.4951
 10
723.7384
 20
296.7595
 10
724.6634
 20
297.0407
 10
725.5399
 20
297.3374
 10
726.3625
 20
297.6481
 10
727.1253
 20
297.9712
 10
727.8229
 20
298.3052
 10
728.4497
 20
298.6486
 10
729.0
 20
299.0
 10
736.0
 20
294.0
 10
736.0
 20
299.0
 10
741.0
 20
299.0
 10
741.0
 20
296.0
 10
741.7554
 20
296.026
 10
742.5717
 20
296.099
 10
743.4412
 20
296.2117
 10
744.3565
 20
296.3566
 10
745.3097
 20
296.5262
 10
746.2936
 20
296.7132
 10
747.3003
 20
296.91
 10
748.3224
 20
297.1094
 10
749.3523
 20
297.3038
 10
750.3824
 20
297.4858
 10
751.4051
 20
297.648
 10
752.4128
 20
297.783
 10
753.398
 20
297.8833
 10
754.353
 20
297.9415
 10
755.2704
 20
297.9501
 10
756.1425
 20
297.9018
 10
756.9618
 20
297.7892
 10
757.7206
 20
297.6047
 10
758.4114
 20
297.3409
 10
759.0266
 20
296.9905
 10
759.5587
 20
296.546
 10
760.0
 20
296.0
 10
764.0
 20
298.0
 10
769.0
 20
294.0
 10
772.0
 20
299.0
 10
772.299
 20
298.0562
 10
772.7372
 20
297.2859
 10
773.2875
 20
296.6945
 10
773.9226
 20
296.287
 10
774.6157
 20
296.0688
 10
775.3395
 20
296.0451
 10
776.0669
 20
296.2211
 10
776.7708
 20
296.6021
 10
777.4242
 20
297.1933
 10
778.0
 20
298.0
 10
779.0
 20
298.0
 10
780.0
 20
298.0
 10
780.5134
 20
297.4858
 10
781.1009
 20
297.0283
 10
781.7576
 20
296.6255
 10
782.4782
 20
296.2753
 10
783.2576
 20
295.9756
 10
784.0909
 20
295.7246
 10
784.9729
 20
295.5201
 10
785.8984
 20
295.3601
 10
786.8625
 20
295.2426
 10
787.8601
 20
295.1656
 10
788.886
 20
295.127
 10
789.9352
 20
295.1248
 10
791.0026
 20
295.157
 10
792.083
 20
295.2216
 10
793.1715
 20
295.3164
 10
794.2629
 20
295.4396
 10
795.3521
 20
295.589
 10
796.4341
 20
295.7627
 10
797.5037
 20
295.9586
 10
798.5559
 20
296.1747
 10
799.5855
 20
296.4089
 10
800.5876
 20
296.6593
 10
801.557
 20
296.9238
 10
802.4886
 20
297.2004
 10
803.3773
 20
297.487
 10
804.2181
 20
297.7816
 10
805.0058
 20
298.0823
 10
805.7355
 20
298.3869
 10
806.4019
 20
298.6935
 10
807.0
 20
299.0
 10
814.0
 20
294.0
 10
814.0
 20
299.0
 10
819.0
 20
299.0
 10
819.0
 20
296.0
 10
833.0
 20
299.0
 10
839.0
 20
294.0
 10
839.4142
 20
295.194
 10
839.8794
 20
296.1744
 10
840.4182
 20
296.9666
 10
841.0528
 20
297.5963
 10
841.8059
 20
298.0889
 10
842.6998
 20
298.4701
 10
843.757
 20
298.7652
 10
845.0
 20
299.0
 10
845.0
 20
296.0
 10
856.0
 20
298.0
 10
857.0
 20
298.0
 10
858.0
 20
298.0
 10
858.5127
 20
297.4751
 10
859.0688
 20
297.02
 10
859.6658
 20
296.631
 10
860.3011
 20
296.3043
 10
860.9721
 20
296.0361
 10
861.6764
 20
295.8228
 10
862.4114
 20
295.6605
 10
863.1745
 20
295.5455
 10
863.9633
 20
295.4741
 10
864.7753
 20
295.4425
 10
865.6078
 20
295.447
 10
866.4583
 20
295.4837
 10
867.3244
 20
295.5491
 10
868.2035
 20
295.6393
 10
869.093
 20
295.7506
 10
869.9905
 20
295.8792
 10
870.8934
 20
296.0213
 10
871.7991
 20
296.1733
 10
872.7052
 20
296.3314
 10
873.6091
 20
296.4919
 10
874.5083
 20
296.6509
 10
875.4002
 20
296.8048
 10
876.2823
 20
296.9497
 10
877.1521
 20
297.0821
 10
878.007
 20
297.198
 10
878.8446
 20
297.2937
 10
879.6623
 20
297.3656
 10
880.4575
 20
297.4098
 10
881.2277
 20
297.4227
 10
881.9705
 20
297.4003
 10
882.6832
 20
297.3392
 10
883.3633
 20
297.2353
 10
884.0084
 20
297.0851
 10
884.6158
 20
296.8848
 10
885.1831
 20
296.6306
 10
885.7077
 20
296.3187
 10
886.187
 20
295.9455
 10
886.6186
 20
295.5072
 10
887.0
 20
295.0
 10
890.0
 20
297.0
 10
891.0
 20
297.0
 10
896.0
 20
294.0
 10
896.0
 20
298.0
 10
931.0
 20
299.0
 10
931.0
 20
295.0
 10
946.0
 20
295.0
 10
960.0
 20
297.0
 10
960.0
 20
390.0
 10
959.0
 20
390.0
 10
959.0
 20
298.0
 10
933.0
 20
298.0
 10
933.0
 20
299.0
 10
937.0
 20
299.0
 10
937.0
 20
309.0
 10
904.0
 20
309.0
 10
904.0
 20
359.0
 10
731.0
 20
358.3349
 10
625.0
 20
358.0
 10
624.0
 20
376.0
 10
642.0
 20
375.0
 10
641.0
 20
419.0
 10
641.2563
 20
419.3186
 10
641.495
 20
419.7644
 10
641.7159
 20
420.3283
 10
641.9192
 20
421.0012
 10
642.1049
 20
421.774
 10
642.2728
 20
422.6377
 10
642.4231
 20
423.5831
 10
642.5557
 20
424.6013
 10
642.6706
 20
425.683
 10
642.7678
 20
426.8192
 10
642.8474
 20
428.0008
 10
642.9092
 20
429.2188
 10
642.9534
 20
430.464
 10
642.98
 20
431.7274
 10
642.9888
 20
432.9999
 10
642.98
 20
434.2724
 10
642.9534
 20
435.5358
 10
642.9092
 20
436.781
 10
642.8474
 20
437.999
 10
642.7678
 20
439.1806
 10
642.6706
 20
440.3169
 10
642.5557
 20
441.3986
 10
642.4231
 20
442.4167
 10
642.2728
 20
443.3622
 10
642.1049
 20
444.2258
 10
641.9192
 20
444.9987
 10
641.7159
 20
445.6716
 10
641.495
 20
446.2355
 10
641.2563
 20
446.6813
 10
641.0
 20
447.0
 10
641.1637
 20
447.5961
 10
641.3313
 20
448.2889
 10
641.5008
 20
449.0703
 10
641.6703
 20
449.932
 10
641.8378
 20
450.8658
 10
642.0012
 20
451.8634
 10
642.1587
 20
452.9167
 10
642.3082
 20
454.0173
 10
642.4477
 20
455.1572
 10
642.5753
 20
456.328
 10
642.689
 20
457.5215
 10
642.7868
 20
458.7296
 10
642.8667
 20
459.944
 10
642.9268
 20
461.1564
 10
642.965
 20
462.3587
 10
642.9794
 20
463.5425
 10
642.9681
 20
464.6998
 10
642.9289
 20
465.8223
 10
642.86
 20
466.9016
 10
642.7594
 20
467.9298
 10
642.625
 20
468.8984
 10
642.455
 20
469.7993
 10
642.2472
 20
470.6242
 10
641.9999
 20
471.3649
 10
641.7108
 20
472.0133
 10
641.3782
 20
472.5611
 10
641.0
 20
473.0
 10
641.1637
 20
473.5961
 10
641.3313
 20
474.2889
 10
641.5008
 20
475.0703
 10
641.6703
 20
475.932
 10
641.8378
 20
476.8658
 10
642.0013
 20
477.8634
 10
642.1587
 20
478.9167
 10
642.3082
 20
480.0173
 10
642.4478
 20
481.1572
 10
642.5754
 20
482.328
 10
642.689
 20
483.5215
 10
642.7868
 20
484.7296
 10
642.8668
 20
485.944
 10
642.9268
 20
487.1564
 10
642.9651
 20
488.3587
 10
642.9795
 20
489.5425
 10
642.9681
 20
490.6998
 10
642.929
 20
491.8223
 10
642.86
 20
492.9016
 10
642.7594
 20
493.9298
 10
642.625
 20
494.8984
 10
642.455
 20
495.7993
 10
642.2473
 20
496.6242
 10
641.9999
 20
497.3649
 10
641.7108
 20
498.0133
 10
641.3782
 20
498.5611
 10
641.0
 20
499.0
 10
642.0
 20
517.0
 10
606.0
 20
516.0
 10
606.0
 20
537.0
 10
636.0
 20
537.0
 10
636.0
 20
556.0
 10
664.0
 20
556.0
 10
664.0
 20
601.0
 10
663.0
 20
601.0
 10
663.0
 20
557.0
 10
635.0
 20
557.0
 10
635.0
 20
538.0
 10
605.0
 20
538.0
 10
604.0
 20
516.0
 10
600.0
 20
517.0
 10
601.0
 20
510.0
 10
597.0
 20
515.0
 10
596.0
 20
515.0
 10
592.0
 20
511.0
 10
592.0
 20
517.0
 10
589.0
 20
516.0
 10
588.0
 20
555.0
 10
533.0
 20
557.0
 10
533.0055
 20
557.843
 10
533.0214
 20
558.7075
 10
533.0471
 20
559.5922
 10
533.0815
 20
560.4963
 10
533.124
 20
561.4185
 10
533.1737
 20
562.3578
 10
533.2298
 20
563.3132
 10
533.2914
 20
564.2836
 10
533.3577
 20
565.2679
 10
533.428
 20
566.2651
 10
533.5014
 20
567.2741
 10
533.5771
 20
568.2938
 10
533.6542
 20
569.3232
 10
533.732
 20
570.3612
 10
533.8096
 20
571.4068
 10
533.8863
 20
572.4588
 10
533.9611
 20
573.5162
 10
534.0333
 20
574.578
 10
534.1021
 20
575.6431
 10
534.1666
 20
576.7104
 10
534.226
 20
577.7788
 10
534.2795
 20
578.8474
 10
534.3263
 20
579.9149
 10
534.3656
 20
580.9804
 10
534.3965
 20
582.0429
 10
534.4182
 20
583.1011
 10
534.43
 20
584.1541
 10
534.4309
 20
585.2009
 10
534.4203
 20
586.2402
 10
534.3971
 20
587.2711
 10
534.3607
 20
588.2926
 10
534.3102
 20
589.3035
 10
534.2449
 20
590.3027
 10
534.1638
 20
591.2893
 10
534.0661
 20
592.2621
 10
533.9511
 20
593.2202
 10
533.8179
 20
594.1623
 10
533.6658
 20
595.0875
 10
533.4938
 20
595.9947
 10
533.3012
 20
596.8828
 10
533.0871
 20
597.7507
 10
532.8508
 20
598.5975
 10
532.5913
 20
599.422
 10
532.308
 20
600.2232
 10
532.0
 20
601.0
  0
LWPOLYLINE
  5
33
330
17
100
AcDbEntity
  8
0
100
AcDbPolyline
 90
678
 70
0
 10
590.0
 20
514.0
 10
582.0
 20
511.0
 10
581.5169
 20
511.4769
 10
580.9526
 20
511.9012
 10
580.3124
 20
512.2755
 10
579.6019
 20
512.6023
 10
578.8266
 20
512.8843
 10
577.9919
 20
513.1241
 10
577.1032
 20
513.3243
 10
576.1662
 20
513.4876
 10
575.1861
 20
513.6164
 10
574.1686
 20
513.7135
 10
573.1192
 20
513.7815
 10
572.0431
 20
513.8229
 10
570.9461
 20
513.8404
 10
569.8335
 20
513.8366
 10
568.7107
 20
513.8141
 10
567.5834
 20
513.7756
 10
566.4569
 20
513.7235
 10
565.3368
 20
513.6607
 10
564.2285
 20
513.5895
 10
563.1374
 20
513.5128
 10
562.0692
 20
513.433
 10
561.0292
 20
513.3529
 10
560.0229
 20
513.2749
 10
559.0558
 20
513.2018
 10
558.1333
 20
513.1361
 10
557.2611
 20
513.0804
 10
556.4444
 20
513.0375
 10
555.6889
 20
513.0098
 10
555.0
 20
513.0
 10
555.0
 20
499.0
 10
587.0
 20
499.0
 10
586.0
 20
508.0
 10
590.0
 20
509.0
 10
590.0
 20
487.0
 10
582.0
 20
486.0
 10
587.0
 20
488.0
 10
586.967
 20
488.9003
 10
586.876
 20
489.7469
 10
586.7289
 20
490.5415
 10
586.5276
 20
491.2855
 10
586.2742
 20
491.9805
 10
585.9705
 20
492.6279
 10
585.6185
 20
493.2293
 10
585.2202
 20
493.7861
 10
584.7774
 20
494.3001
 10
584.2923
 20
494.7725
 10
583.7666
 20
495.205
 10
583.2023
 20
495.5991
 10
582.6015
 20
495.9563
 10
581.966
 20
496.2782
 10
581.2978
 20
496.5661
 10
580.5989
 20
496.8218
 10
579.8711
 20
497.0466
 10
579.1165
 20
497.2422
 10
578.337
 20
497.41
 10
577.5346
 20
497.5515
 10
576.7111
 20
497.6683
 10
575.8686
 20
497.7619
 10
575.009
 20
497.8338
 10
574.1342
 20
497.8855
 10
573.2462
 20
497.9186
 10
572.3469
 20
497.9346
 10
571.4384
 20
497.935
 10
570.5225
 20
497.9213
 10
569.6011
 20
497.895
 10
568.6764
 20
497.8577
 10
567.7501
 20
497.8108
 10
566.8242
 20
497.756
 10
565.9007
 20
497.6947
 10
564.9816
 20
497.6284
 10
564.0687
 20
497.5587
 10
563.1641
 20
497.4871
 10
562.2697
 20
497.4151
 10
561.3874
 20
497.3442
 10
560.5192
 20
497.2759
 10
559.6671
 20
497.2118
 10
558.8329
 20
497.1534
 10
558.0186
 20
497.1022
 10
557.2263
 20
497.0598
 10
556.4577
 20
497.0275
 10
555.715
 20
497.0071
 10
555.0
 20
497.0
 10
555.0
 20
473.0
 10
587.0
 20
473.0
 10
586.0
 20
483.0
 10
590.0
 20
484.0
 10
590.0
 20
461.0
 10
582.0
 20
460.0
 10
587.0
 20
462.0
 10
586.967
 20
462.9003
 10
586.876
 20
463.7469
 10
586.7289
 20
464.5415
 10
586.5276
 20
465.2855
 10
586.2742
 20
465.9805
 10
585.9705
 20
466.6279
 10
585.6185
 20
467.2293
 10
585.2202
 20
467.7861
 10
584.7774
 20
468.3001
 10
584.2923
 20
468.7725
 10
583.7666
 20
469.205
 10
583.2023
 20
469.5991
 10
582.6015
 20
469.9563
 10
581.966
 20
470.2782
 10
581.2978
 20
470.5661
 10
580.5989
 20
470.8218
 10
579.8711
 20
471.0466
 10
579.1165
 20
471.2422
 10
578.337
 20
471.41
 10
577.5346
 20
471.5515
 10
576.7111
 20
471.6683
 10
575.8686
 20
471.7619
 10
575.009
 20
471.8338
 10
574.1342
 20
471.8855
 10
573.2462
 20
471.9186
 10
572.3469
 20
471.9346
 10
571.4384
 20
471.935
 10
570.5225
 20
471.9213
 10
569.6011
 20
471.895
 10
568.6764
 20
471.8577
 10
567.7501
 20
471.8108
 10
566.8242
 20
471.756
 10
565.9007
 20
471.6947
 10
564.9816
 20
471.6284
 10
564.0687
 20
471.5587
 10
563.1641
 20
471.4871
 10
562.2697
 20
471.4151
 10
561.3874
 20
471.3442
 10
560.5192
 20
471.2759
 10
559.6671
 20
471.2118
 10
558.8329
 20
471.1534
 10
558.0186
 20
471.1022
 10
557.2263
 20
471.0598
 10
556.4577
 20
471.0275
 10
555.715
 20
471.0071
 10
555.0
 20
471.0
 10
555.0
 20
447.0
 10
587.0
 20
447.0
 10
586.0
 20
457.0
 10
590.0
 20
458.0
 10
590.0
 20
437.0
 10
582.0
 20
436.0
 10
587.0
 20
438.0
 10
586.9373
 20
438.7827
 10
586.8045
 20
439.5144
 10
586.6041
 20
440.1968
 10
586.339
 20
440.8314
 10
586.012
 20
441.4197
 10
585.6258
 20
441.9633
 10
585.1831
 20
442.4639
 10
584.6868
 20
442.9229
 10
584.1396
 20
443.3419
 10
583.5442
 20
443.7226
 10
582.9035
 20
444.0664
 10
582.2202
 20
444.3749
 10
581.497
 20
444.6497
 10
580.7368
 20
444.8924
 10
579.9423
 20
445.1046
 10
579.1163
 20
445.2877
 10
578.2615
 20
445.4434
 10
577.3807
 20
445.5733
 10
576.4766
 20
445.6788
 10
575.5521
 20
445.7616
 10
574.6099
 20
445.8233
 10
573.6527
 20
445.8654
 10
572.6834
 20
445.8894
 10
571.7047
 20
445.897
 10
570.7193
 20
445.8897
 10
569.73
 20
445.8691
 10
568.7397
 20
445.8368
 10
567.7509
 20
445.7942
 10
566.7667
 20
445.7431
 10
565.7896
 20
445.6849
 10
564.8224
 20
445.6212
 10
563.868
 20
445.5536
 10
562.9291
 20
445.4836
 10
562.0084
 20
445.4129
 10
561.1087
 20
445.3429
 10
560.2328
 20
445.2753
 10
559.3835
 20
445.2117
 10
558.5635
 20
445.1535
 10
557.7756
 20
445.1024
 10
557.0225
 20
445.0599
 10
556.307
 20
445.0277
 10
555.6319
 20
445.0071
 10
555.0
 20
445.0
 10
555.0
 20
421.0
 10
555.6269
 20
420.9945
 10
556.2794
 20
420.9787
 10
556.9561
 20
420.9538
 10
557.6552
 20
420.9207
 10
558.3753
 20
420.8805
 10
559.1146
 20
420.8343
 10
559.8717
 20
420.783
 10
560.6449
 20
420.7278
 10
561.4327
 20
420.6697
 10
562.2335
 20
420.6097
 10
563.0456
 20
420.5489
 10
563.8676
 20
420.4883
 10
564.6978
 20
420.4291
 10
565.5346
 20
420.3721
 10
566.3765
 20
420.3186
 10
567.2219
 20
420.2695
 10
568.0691
 20
420.2259
 10
568.9166
 20
420.1888
 10
569.7629
 20
420.1593
 10
570.6062
 20
420.1384
 10
571.4451
 20
420.1272
 10
572.278
 20
420.1268
 10
573.1033
 20
420.1381
 10
573.9193
 20
420.1622
 10
574.7245
 20
420.2003
 10
575.5174
 20
420.2532
 10
576.2963
 20
420.3222
 10
577.0596
 20
420.4082
 10
577.8058
 20
420.5122
 10
578.5333
 20
420.6354
 10
579.2405
 20
420.7787
 10
579.9257
 20
420.9433
 10
580.5876
 20
421.1302
 10
581.2243
 20
421.3403
 10
581.8344
 20
421.5749
 10
582.4163
 20
421.8348
 10
582.9683
 20
422.1213
 10
583.489
 20
422.4352
 10
583.9766
 20
422.7778
 10
584.4297
 20
423.1499
 10
584.8467
 20
423.5527
 10
585.2259
 20
423.9873
 10
585.5657
 20
424.4546
 10
585.8647
 20
424.9557
 10
586.1212
 20
425.4917
 10
586.3336
 20
426.0636
 10
586.5003
 20
426.6724
 10
586.6198
 20
427.3193
 10
586.6904
 20
428.0052
 10
586.7106
 20
428.7313
 10
586.6788
 20
429.4985
 10
586.5935
 20
430.3079
 10
586.4529
 20
431.1606
 10
586.2556
 20
432.0576
 10
586.0
 20
433.0
 10
590.0
 20
434.0
 10
590.0
 20
409.0
 10
582.0
 20
408.0
 10
582.0
 20
411.0
 10
583.0
 20
411.0
 10
587.0
 20
410.0
 10
587.0
 20
419.0
 10
555.0
 20
419.0
 10
555.0
 20
395.0
 10
555.9075
 20
394.9926
 10
556.8363
 20
394.9715
 10
557.7847
 20
394.9385
 10
558.7511
 20
394.8951
 10
559.7337
 20
394.8431
 10
560.731
 20
394.7841
 10
561.7412
 20
394.7197
 10
562.7627
 20
394.6516
 10
563.7938
 20
394.5816
 10
564.8327
 20
394.5111
 10
565.878
 20
394.442
 10
566.9278
 20
394.3759
 10
567.9804
 20
394.3144
 10
569.0343
 20
394.2592
 10
570.0878
 20
394.2119
 10
571.1391
 20
394.1743
 10
572.1866
 20
394.148
 10
573.2287
 20
394.1346
 10
574.2636
 20
394.1358
 10
575.2897
 20
394.1534
 10
576.3053
 20
394.1888
 10
577.3088
 20
394.2439
 10
578.2984
 20
394.3202
 10
579.2725
 20
394.4194
 10
580.2294
 20
394.5433
 10
581.1675
 20
394.6934
 10
582.085
 20
394.8714
 10
582.9803
 20
395.079
 10
583.8518
 20
395.3179
 10
584.6841
 20
395.6563
 10
585.3814
 20
396.1238
 10
585.9487
 20
396.7018
 10
586.3907
 20
397.3715
 10
586.7123
 20
398.1142
 10
586.9186
 20
398.9112
 10
587.0143
 20
399.7439
 10
587.0043
 20
400.5936
 10
586.8936
 20
401.4414
 10
586.6871
 20
402.2688
 10
586.3895
 20
403.0571
 10
586.0059
 20
403.7875
 10
585.5411
 20
404.4413
 10
585.0
 20
405.0
 10
585.0
 20
406.0
 10
590.0
 20
406.0
 10
590.0
 20
383.0
 10
586.0
 20
383.0
 10
587.0
 20
393.0
 10
555.0
 20
393.0
 10
555.0
 20
379.0
 10
555.6805
 20
378.9873
 10
556.43
 20
378.9514
 10
557.2427
 20
378.8952
 10
558.1131
 20
378.8217
 10
559.0354
 20
378.7338
 10
560.004
 20
378.6344
 10
561.0131
 20
378.5266
 10
562.0572
 20
378.4132
 10
563.1305
 20
378.2973
 10
564.2274
 20
378.1818
 10
565.3421
 20
378.0697
 10
566.4691
 20
377.9639
 10
567.6026
 20
377.8674
 10
568.737
 20
377.7831
 10
569.8666
 20
377.714
 10
570.9858
 20
377.6631
 10
572.0887
 20
377.6333
 10
573.1699
 20
377.6275
 10
574.2236
 20
377.6488
 10
575.244
 20
377.7002
 10
576.2257
 20
377.7844
 10
577.1629
 20
377.9046
 10
578.0498
 20
378.0636
 10
578.8809
 20
378.2645
 10
579.6505
 20
378.5102
 10
580.3528
 20
378.8036
 10
580.9823
 20
379.1477
 10
581.5332
 20
379.5455
 10
582.0
 20
380.0
 10
590.0
 20
379.0
 10
590.0
 20
375.0
 10
582.0
 20
374.0
 10
572.0
 20
376.0
 10
572.0
 20
368.0
 10
573.0
 20
368.0
 10
574.0
 20
373.0
 10
574.751
 20
372.9412
 10
575.5352
 20
372.9205
 10
576.3421
 20
372.9271
 10
577.1617
 20
372.9502
 10
577.9835
 20
372.9792
 10
578.7975
 20
373.0033
 10
579.5933
 20
373.0118
 10
580.3607
 20
372.9941
 10
581.0895
 20
372.9394
 10
581.7694
 20
372.8369
 10
582.3902
 20
372.676
 10
582.9417
 20
372.446
 10
583.4136
 20
372.1361
 10
583.7956
 20
371.7357
 10
584.0776
 20
371.234
 10
584.2492
 20
370.6202
 10
584.3004
 20
369.8838
 10
584.2207
 20
369.0139
 10
584.0
 20
368.0
 10
587.0
 20
369.0
 10
587.0
 20
372.0
 10
590.0
 20
371.0
 10
589.7936
 20
370.0948
 10
589.6014
 20
369.1737
 10
589.4232
 20
368.2377
 10
589.2588
 20
367.2877
 10
589.1079
 20
366.3245
 10
588.9704
 20
365.3492
 10
588.846
 20
364.3625
 10
588.7346
 20
363.3656
 10
588.6358
 20
362.3592
 10
588.5496
 20
361.3443
 10
588.4756
 20
360.3219
 10
588.4137
 20
359.2928
 10
588.3637
 20
358.2579
 10
588.3253
 20
357.2183
 10
588.2984
 20
356.1748
 10
588.2827
 20
355.1283
 10
588.278
 20
354.0798
 10
588.2841
 20
353.0302
 10
588.3008
 20
351.9804
 10
588.3279
 20
350.9313
 10
588.3651
 20
349.8839
 10
588.4123
 20
348.8391
 10
588.4693
 20
347.7978
 10
588.5358
 20
346.7609
 10
588.6116
 20
345.7294
 10
588.6965
 20
344.7041
 10
588.7903
 20
343.6861
 10
588.8928
 20
342.6762
 10
589.0038
 20
341.6753
 10
589.123
 20
340.6844
 10
589.2503
 20
339.7043
 10
589.3854
 20
338.7361
 10
589.5281
 20
337.7807
 10
589.6783
 20
336.8389
 10
589.8356
 20
335.9117
 10
590.0
 20
335.0
 10
585.0
 20
335.0
 10
585.0
 20
336.0
 10
588.0
 20
340.0
 10
579.0
 20
340.0
 10
579.0
 20
326.0
 10
588.0
 20
326.0
 10
587.7497
 20
327.1915
 10
587.4252
 20
328.1736
 10
587.0135
 20
328.9677
 10
586.5019
 20
329.5955
 10
585.8777
 20
330.0789
 10
585.1282
 20
330.4393
 10
584.2405
 20
330.6985
 10
583.202
 20
330.8782
 10
582.0
 20
331.0
 10
583.0
 20
334.0
 10
590.0
 20
332.0
 10
589.7691
 20
330.7931
 10
589.6478
 20
329.695
 10
589.6314
 20
328.6939
 10
589.7157
 20
327.7782
 10
589.896
 20
326.9362
 10
590.1679
 20
326.1562
 10
590.527
 20
325.4266
 10
590.9687
 20
324.7356
 10
591.4886
 20
324.0716
 10
592.0823
 20
323.4228
 10
592.7452
 20
322.7777
 10
593.4729
 20
322.1246
 10
594.2609
 20
321.4517
 10
595.1047
 20
320.7474
 10
596.0
 20
320.0
 10
597.0
 20
320.0
 10
602.0
 20
323.0
 10
602.0
 20
318.0
 10
604.0
 20
318.0
 10
604.0029
 20
319.1152
 10
604.011
 20
320.2149
 10
604.0227
 20
321.2997
 10
604.0365
 20
322.3704
 10
604.0512
 20
323.4274
 10
604.0652
 20
324.4713
 10
604.0771
 20
325.5029
 10
604.0856
 20
326.5228
 10
604.0891
 20
327.5314
 10
604.0863
 20
328.5296
 10
604.0757
 20
329.5178
 10
604.056
 20
330.4967
 10
604.0256
 20
331.467
 10
603.9833
 20
332.4291
 10
603.9274
 20
333.3839
 10
603.8567
 20
334.3318
 10
603.7697
 20
335.2735
 10
603.665
 20
336.2096
 10
603.5411
 20
337.1407
 10
603.3967
 20
338.0674
 10
603.2303
 20
338.9905
 10
603.0404
 20
339.9104
 10
602.8257
 20
340.8278
 10
602.5848
 20
341.7433
 10
602.3162
 20
342.6575
 10
602.0185
 20
343.5711
 10
601.6902
 20
344.4847
 10
601.33
 20
345.3988
 10
600.9365
 20
346.3142
 10
600.5081
 20
347.2313
 10
600.0435
 20
348.1509
 10
599.5413
 20
349.0736
 10
599.0
 20
350.0
 10
600.0
 20
350.0
 10
606.0
 20
349.0
 10
606.0
 20
301.0
 10
661.0
 20
301.0
 10
664.0
 20
295.0
 10
664.0
 20
301.0
 10
674.0
 20
301.0
 10
674.0
 20
356.0
 10
602.0
 20
355.0
 10
602.0
 20
354.0
 10
605.0
 20
353.0
 10
605.0
 20
352.0
 10
601.0
 20
356.0
 10
601.7612
 20
356.5761
 10
602.4018
 20
357.2304
 10
602.9297
 20
357.955
 10
603.353
 20
358.7418
 10
603.6798
 20
359.5828
 10
603.918
 20
360.4701
 10
604.0759
 20
361.3957
 10
604.1613
 20
362.3516
 10
604.1824
 20
363.3298
 10
604.1471
 20
364.3223
 10
604.0636
 20
365.3211
 10
603.9399
 20
366.3183
 10
603.7841
 20
367.3058
 10
603.6041
 20
368.2757
 10
603.408
 20
369.2201
 10
603.204
 20
370.1308
 10
603.0
 20
371.0
 10
604.0
 20
372.0
 10
607.0
 20
371.0
 10
606.6889
 20
369.8525
 10
606.4567
 20
368.7868
 10
606.3009
 20
367.7999
 10
606.2185
 20
366.8889
 10
606.2071
 20
366.0506
 10
606.2638
 20
365.2822
 10
606.3861
 20
364.5805
 10
606.5712
 20
363.9427
 10
606.8165
 20
363.3657
 10
607.1192
 20
362.8466
 10
607.4767
 20
362.3823
 10
607.8863
 20
361.9698
 10
608.3453
 20
361.6062
 10
608.8511
 20
361.2884
 10
609.4009
 20
361.0135
 10
609.9921
 20
360.7785
 10
610.6219
 20
360.5803
 10
611.2878
 20
360.416
 10
611.987
 20
360.2826
 10
612.7169
 20
360.177
 10
613.4746
 20
360.0964
 10
614.2577
 20
360.0376
 10
615.0634
 20
359.9978
 10
615.8889
 20
359.9738
 10
616.7317
 20
359.9628
 10
617.5891
 20
359.9617
 10
618.4582
 20
359.9675
 10
619.3366
 20
359.9772
 10
620.2215
 20
359.9878
 10
621.1101
 20
359.9964
 10
622.0
 20
360.0
 10
622.0
 20
376.0
 10
611.0
 20
374.0
 10
603.0
 20
375.0
 10
603.0
 20
379.0
 10
611.0
 20
380.0
 10
611.477
 20
379.5334
 10
612.0363
 20
379.1252
 10
612.6723
 20
378.7723
 10
613.3794
 20
378.4716
 10
614.1523
 20
378.22
 10
614.9852
 20
378.0146
 10
615.8728
 20
377.8522
 10
616.8093
 20
377.7299
 10
617.7894
 20
377.6445
 10
618.8074
 20
377.5931
 10
619.8579
 20
377.5725
 10
620.9352
 20
377.5797
 10
622.0339
 20
377.6117
 10
623.1485
 20
377.6653
 10
624.2733
 20
377.7377
 10
625.4028
 20
377.8256
 10
626.5316
 20
377.9261
 10
627.6541
 20
378.036
 10
628.7646
 20
378.1525
 10
629.8578
 20
378.2723
 10
630.9281
 20
378.3925
 10
631.9698
 20
378.5099
 10
632.9776
 20
378.6216
 10
633.9458
 20
378.7245
 10
634.869
 20
378.8155
 10
635.7415
 20
378.8916
 10
636.5578
 20
378.9498
 10
637.3125
 20
378.9869
 10
638.0
 20
379.0
 10
638.0
 20
393.0
 10
606.0
 20
393.0
 10
608.0
 20
384.0
 10
608.0
 20
383.0
 10
603.0
 20
383.0
 10
603.0
 20
406.0
 10
607.0
 20
405.0
 10
606.7726
 20
404.1381
 10
606.6107
 20
403.3211
 10
606.5123
 20
402.5476
 10
606.4755
 20
401.8167
 10
606.4982
 20
401.1272
 10
606.5785
 20
400.478
 10
606.7143
 20
399.868
 10
606.9036
 20
399.2961
 10
607.1445
 20
398.7612
 10
607.435
 20
398.2621
 10
607.7731
 20
397.7978
 10
608.1568
 20
397.3672
 10
608.584
 20
396.9691
 10
609.0528
 20
396.6024
 10
609.5613
 20
396.2661
 10
610.1073
 20
395.9589
 10
610.689
 20
395.6799
 10
611.3043
 20
395.4279
 10
611.9512
 20
395.2017
 10
612.6278
 20
395.0004
 10
613.332
 20
394.8227
 10
614.0619
 20
394.6675
 10
614.8154
 20
394.5338
 10
615.5906
 20
394.4204
 10
616.3855
 20
394.3263
 10
617.198
 20
394.2503
 10
618.0262
 20
394.1913
 10
618.8682
 20
394.1482
 10
619.7218
 20
394.1199
 10
620.5851
 20
394.1053
 10
621.4562
 20
394.1032
 10
622.3329
 20
394.1126
 10
623.2134
 20
394.1324
 10
624.0956
 20
394.1614
 10
624.9776
 20
394.1986
 10
625.8573
 20
394.2427
 10
626.7328
 20
394.2928
 10
627.602
 20
394.3477
 10
628.463
 20
394.4063
 10
629.3138
 20
394.4675
 10
630.1523
 20
394.5302
 10
630.9767
 20
394.5932
 10
631.7848
 20
394.6555
 10
632.5747
 20
394.716
 10
633.3445
 20
394.7735
 10
634.092
 20
394.8269
 10
634.8154
 20
394.8752
 10
635.5127
 20
394.9171
 10
636.1817
 20
394.9517
 10
636.8206
 20
394.9778
 10
637.4273
 20
394.9942
 10
638.0
 20
395.0
 10
638.0
 20
419.0
 10
606.0
 20
419.0
 10
606.0
 20
410.0
 10
611.0
 20
411.0
 10
611.0
 20
408.0
 10
610.0
 20
408.0
 10
603.0
 20
409.0
 10
603.1989
 20
409.8722
 10
603.387
 20
410.7715
 10
603.5639
 20
411.6961
 10
603.7294
 20
412.6439
 10
603.8831
 20
413.6129
 10
604.0248
 20
414.6012
 10
604.154
 20
415.6068
 10
604.2706
 20
416.6279
 10
604.3741
 20
417.6623
 10
604.4644
 20
418.7081
 10
604.541
 20
419.7634
 10
604.6037
 20
420.8262
 10
604.6521
 20
421.8945
 10
604.6861
 20
422.9664
 10
604.7051
 20
424.04
 10
604.7091
 20
425.1131
 10
604.6975
 20
426.184
 10
604.6702
 20
427.2505
 10
604.6268
 20
428.3109
 10
604.567
 20
429.363
 10
604.4905
 20
430.4049
 10
604.397
 20
431.4346
 10
604.2862
 20
432.4503
 10
604.1578
 20
433.4499
 10
604.0115
 20
434.4315
 10
603.8469
 20
435.393
 10
603.6637
 20
436.3326
 10
603.4617
 20
437.2483
 10
603.2406
 20
438.138
 10
603.0
 20
439.0
 10
607.0
 20
439.0
 10
606.8216
 20
438.361
 10
606.6361
 20
437.6224
 10
606.4487
 20
436.7968
 10
606.2649
 20
435.8968
 10
606.0901
 20
434.935
 10
605.9296
 20
433.924
 10
605.7889
 20
432.8763
 10
605.6733
 20
431.8046
 10
605.5883
 20
430.7214
 10
605.5392
 20
429.6393
 10
605.5314
 20
428.5709
 10
605.5703
 20
427.5288
 10
605.6613
 20
426.5256
 10
605.8098
 20
425.5738
 10
606.0212
 20
424.6861
 10
606.3008
 20
423.8751
 10
606.6541
 20
423.1533
 10
607.0865
 20
422.5333
 10
607.6034
 20
422.0277
  0
LWPOLYLINE
  5
34
330
17
100
AcDbEntity
  8
0
100
AcDbPolyline
 90
230
 70
0
 10
607.6033
 20
422.0277
 10
608.1461
 20
421.6485
 10
608.7595
 20
421.3114
 10
609.4388
 20
421.0145
 10
610.1797
 20
420.7557
 10
610.9779
 20
420.5332
 10
611.8287
 20
420.3449
 10
612.728
 20
420.1888
 10
613.6712
 20
420.063
 10
614.6538
 20
419.9655
 10
615.6716
 20
419.8944
 10
616.7201
 20
419.8476
 10
617.7948
 20
419.8232
 10
618.8913
 20
419.8193
 10
620.0053
 20
419.8338
 10
621.1323
 20
419.8647
 10
622.2678
 20
419.9102
 10
623.4076
 20
419.9682
 10
624.547
 20
420.0367
 10
625.6819
 20
420.1138
 10
626.8076
 20
420.1976
 10
627.9199
 20
420.286
 10
629.0142
 20
420.377
 10
630.0862
 20
420.4687
 10
631.1314
 20
420.5592
 10
632.1454
 20
420.6464
 10
633.1239
 20
420.7283
 10
634.0624
 20
420.8031
 10
634.9564
 20
420.8687
 10
635.8016
 20
420.9232
 10
636.5935
 20
420.9645
 10
637.3278
 20
420.9908
 10
638.0
 20
421.0
 10
638.0
 20
445.0
 10
607.0
 20
445.0
 10
607.0
 20
444.0
 10
611.0
 20
442.0
 10
603.0
 20
443.0
 10
603.0
 20
449.0
 10
604.0
 20
450.0
 10
610.0
 20
451.0
 10
611.0
 20
451.0
 10
606.0
 20
448.0
 10
606.0
 20
447.0
 10
638.0
 20
447.0
 10
638.0
 20
471.0
 10
637.1896
 20
471.0092
 10
636.3368
 20
471.0356
 10
635.445
 20
471.0771
 10
634.5171
 20
471.1317
 10
633.5566
 20
471.1973
 10
632.5665
 20
471.2717
 10
631.5502
 20
471.3531
 10
630.5108
 20
471.4393
 10
629.4515
 20
471.5282
 10
628.3757
 20
471.6179
 10
627.2863
 20
471.7062
 10
626.1868
 20
471.7912
 10
625.0803
 20
471.8707
 10
623.9701
 20
471.9426
 10
622.8592
 20
472.005
 10
621.7511
 20
472.0558
 10
620.6488
 20
472.093
 10
619.5556
 20
472.1144
 10
618.4747
 20
472.118
 10
617.4094
 20
472.1018
 10
616.3628
 20
472.0637
 10
615.3382
 20
472.0016
 10
614.3387
 20
471.9136
 10
613.3676
 20
471.7975
 10
612.4282
 20
471.6512
 10
611.5236
 20
471.4729
 10
610.657
 20
471.2603
 10
609.8317
 20
471.0114
 10
609.0509
 20
470.7242
 10
608.3178
 20
470.3966
 10
607.737
 20
470.0212
 10
607.2294
 20
469.5131
 10
606.7927
 20
468.8865
 10
606.4245
 20
468.1558
 10
606.1226
 20
467.3352
 10
605.8846
 20
466.4392
 10
605.7085
 20
465.482
 10
605.5917
 20
464.478
 10
605.5322
 20
463.4416
 10
605.5275
 20
462.3871
 10
605.5755
 20
461.3288
 10
605.6739
 20
460.2811
 10
605.8203
 20
459.2582
 10
606.0125
 20
458.2746
 10
606.2482
 20
457.3446
 10
606.5252
 20
456.4825
 10
606.8411
 20
455.7026
 10
607.1937
 20
455.0193
 10
607.5808
 20
454.447
 10
608.0
 20
454.0
 10
608.0
 20
453.0
 10
603.0
 20
453.0
 10
603.1989
 20
453.8722
 10
603.387
 20
454.7715
 10
603.5639
 20
455.6961
 10
603.7294
 20
456.6439
 10
603.8831
 20
457.6129
 10
604.0248
 20
458.6012
 10
604.154
 20
459.6068
 10
604.2706
 20
460.6279
 10
604.3741
 20
461.6623
 10
604.4644
 20
462.7081
 10
604.541
 20
463.7634
 10
604.6037
 20
464.8262
 10
604.6521
 20
465.8945
 10
604.6861
 20
466.9664
 10
604.7051
 20
468.04
 10
604.7091
 20
469.1131
 10
604.6975
 20
470.184
 10
604.6702
 20
471.2505
 10
604.6268
 20
472.3109
 10
604.567
 20
473.363
 10
604.4905
 20
474.4049
 10
604.397
 20
475.4346
 10
604.2862
 20
476.4503
 10
604.1578
 20
477.4499
 10
604.0115
 20
478.4315
 10
603.8469
 20
479.393
 10
603.6637
 20
480.3326
 10
603.4617
 20
481.2483
 10
603.2406
 20
482.138
 10
603.0
 20
483.0
 10
607.0
 20
483.0
 10
606.0
 20
473.0
 10
638.0
 20
473.0
 10
638.0
 20
497.0
 10
637.2849
 20
497.0071
 10
636.5422
 20
497.0275
 10
635.7736
 20
497.0598
 10
634.9812
 20
497.1022
 10
634.167
 20
497.1534
 10
633.3328
 20
497.2118
 10
632.4806
 20
497.2759
 10
631.6124
 20
497.3442
 10
630.7301
 20
497.4151
 10
629.8357
 20
497.4871
 10
628.9311
 20
497.5587
 10
628.0182
 20
497.6284
 10
627.0991
 20
497.6947
 10
626.1756
 20
497.756
 10
625.2498
 20
497.8108
 10
624.3235
 20
497.8577
 10
623.3987
 20
497.895
 10
622.4774
 20
497.9213
 10
621.5614
 20
497.935
 10
620.6529
 20
497.9346
 10
619.7536
 20
497.9186
 10
618.8656
 20
497.8855
 10
617.9909
 20
497.8338
 10
617.1312
 20
497.7619
 10
616.2887
 20
497.6683
 10
615.4653
 20
497.5515
 10
614.6628
 20
497.41
 10
613.8833
 20
497.2422
 10
613.1287
 20
497.0466
 10
612.4009
 20
496.8218
 10
611.702
 20
496.5661
 10
611.0338
 20
496.2782
 10
610.3983
 20
495.9563
 10
609.7975
 20
495.5991
 10
609.2333
 20
495.205
 10
608.7076
 20
494.7725
 10
608.2224
 20
494.3001
 10
607.7797
 20
493.7861
 10
607.3813
 20
493.2293
 10
607.0294
 20
492.6279
 10
606.7257
 20
491.9805
 10
606.4722
 20
491.2855
 10
606.271
 20
490.5415
 10
606.1239
 20
489.7469
 10
606.0329
 20
488.9003
 10
606.0
 20
488.0
 10
611.0
 20
486.0
 10
603.0
 20
487.0
 10
603.0
 20
508.0
 10
607.0
 20
508.0
 10
606.0
 20
499.0
 10
638.0
 20
499.0
 10
638.0
 20
513.0
 10
637.311
 20
513.0098
 10
636.5554
 20
513.0375
 10
635.7388
 20
513.0805
 10
634.8665
 20
513.1361
 10
633.9441
 20
513.2018
 10
632.977
 20
513.2749
 10
631.9707
 20
513.3529
 10
630.9307
 20
513.433
 10
629.8624
 20
513.5128
 10
628.7714
 20
513.5896
 10
627.6631
 20
513.6607
 10
626.5429
 20
513.7236
 10
625.4165
 20
513.7756
 10
624.2891
 20
513.8142
 10
623.1664
 20
513.8367
 10
622.0538
 20
513.8405
 10
620.9567
 20
513.8229
 10
619.8807
 20
513.7815
 10
618.8312
 20
513.7136
 10
617.8137
 20
513.6165
 10
616.8337
 20
513.4876
 10
615.8967
 20
513.3244
 10
615.008
 20
513.1242
 10
614.1733
 20
512.8844
 10
613.398
 20
512.6023
 10
612.6875
 20
512.2755
 10
612.0473
 20
511.9012
 10
611.483
 20
511.4769
 10
611.0
 20
511.0
 10
603.0
 20
514.0
 10
602.0
 20
514.0
 10
602.0
 20
509.0
 10
600.9338
 20
509.4502
 10
599.9437
 20
509.8385
 10
599.0149
 20
510.1587
 10
598.1328
 20
510.4049
 10
597.2828
 20
510.5713
 10
596.4502
 20
510.6518
 10
595.6203
 20
510.6406
 10
594.7786
 20
510.5316
 10
593.9104
 20
510.319
 10
593.0009
 20
509.9969
 10
592.0357
 20
509.5591
 10
591.0
 20
509.0
 10
590.0
 20
514.0
  0
LWPOLYLINE
  5
35
330
17
100
AcDbEntity
  8
0
100
AcDbPolyline
 90
561
 70
0
 10
320.0
 20
356.0
 10
322.0
 20
320.0
 10
327.0
 20
320.0
 10
327.0
 20
313.0
 10
320.0
 20
311.0
 10
319.0
 20
314.0
 10
325.0
 20
317.0
 10
313.0
 20
317.0
 10
313.0
 20
310.0
 10
317.0
 20
310.0
 10
314.0
 20
307.0
 10
314.0
 20
300.0
 10
325.0
 20
300.0
 10
319.0
 20
303.0
 10
320.0
 20
306.0
 10
327.0
 20
304.0
 10
326.0
 20
300.0
 10
341.0
 20
302.0
 10
346.0
 20
295.0
 10
343.0
 20
297.0
 10
343.0
 20
293.0
 10
342.0605
 20
293.2243
 10
341.0932
 20
293.4473
 10
340.1077
 20
293.6526
 10
339.1136
 20
293.8238
 10
338.1204
 20
293.9445
 10
337.1378
 20
293.9983
 10
336.1753
 20
293.9689
 10
335.2425
 20
293.8398
 10
334.349
 20
293.5948
 10
333.5043
 20
293.2174
 10
332.7181
 20
292.6912
 10
332.0
 20
292.0
 10
331.0
 20
292.0
 10
340.0
 20
295.0
 10
340.0
 20
298.0
 10
286.0
 20
297.0
 10
286.0
 20
295.0
 10
327.0
 20
295.0
 10
329.0
 20
289.0
 10
326.0
 20
288.0
 10
326.0
 20
294.0
 10
310.0
 20
294.0
 10
311.0
 20
286.0
 10
309.0
 20
288.0
 10
308.0
 20
288.0
 10
298.0
 20
286.0
 10
299.0
 20
294.0
 10
286.0
 20
294.0
 10
286.0
 20
240.0
 10
358.0
 20
239.0
 10
357.0
 20
242.0
 10
365.0
 20
243.0
 10
362.0
 20
240.0
 10
362.0
 20
239.0
 10
387.0
 20
239.0
 10
387.0
 20
263.0
 10
372.0
 20
263.0
 10
371.0
 20
267.0
 10
372.1485
 20
267.1052
 10
373.139
 20
267.2509
 10
373.9756
 20
267.4733
 10
374.6627
 20
267.8084
 10
375.2044
 20
268.2925
 10
375.605
 20
268.9616
 10
375.8688
 20
269.8521
 10
376.0
 20
271.0
 10
387.0
 20
271.0
 10
387.0
 20
284.0
 10
384.0
 20
283.0
 10
383.0
 20
289.0
 10
398.0
 20
290.0
 10
397.0
 20
286.0
 10
396.0
 20
286.0
 10
395.0
 20
288.0
 10
390.0
 20
288.0
 10
389.0
 20
288.0
 10
389.0
 20
264.0
 10
390.0
 20
264.0
 10
392.0
 20
267.0
 10
392.0
 20
263.0
 10
391.4271
 20
262.809
 10
390.9146
 20
262.5002
 10
390.4595
 20
262.0814
 10
390.0587
 20
261.5606
 10
389.7094
 20
260.9457
 10
389.4084
 20
260.2446
 10
389.1529
 20
259.4651
 10
388.9399
 20
258.6153
 10
388.7663
 20
257.7029
 10
388.6292
 20
256.7359
 10
388.5256
 20
255.7222
 10
388.4525
 20
254.6697
 10
388.4069
 20
253.5862
 10
388.3859
 20
252.4798
 10
388.3865
 20
251.3583
 10
388.4057
 20
250.2296
 10
388.4404
 20
249.1015
 10
388.4878
 20
247.9821
 10
388.5449
 20
246.8792
 10
388.6086
 20
245.8007
 10
388.6759
 20
244.7545
 10
388.744
 20
243.7486
 10
388.8098
 20
242.7907
 10
388.8703
 20
241.8889
 10
388.9225
 20
241.051
 10
388.9636
 20
240.285
 10
388.9904
 20
239.5986
 10
389.0
 20
239.0
 10
448.0
 20
239.0
 10
448.0
 20
249.0
 10
452.0
 20
249.0
 10
450.0
 20
239.0
 10
496.0
 20
239.0
 10
494.0
 20
248.0
 10
498.0
 20
248.0
 10
498.0
 20
239.0
 10
570.0
 20
239.0
 10
570.0
 20
294.0
 10
567.0
 20
293.0
 10
565.0
 20
300.0
 10
570.0
 20
304.0
 10
576.0
 20
304.0
 10
571.0
 20
308.0
 10
571.0
 20
309.0
 10
576.0
 20
313.0
 10
570.0
 20
313.0
 10
569.6456
 20
313.8137
 10
569.1981
 20
314.5231
 10
568.6649
 20
315.1349
 10
568.0536
 20
315.6556
 10
567.3717
 20
316.0919
 10
566.6268
 20
316.4504
 10
565.8263
 20
316.7378
 10
564.9777
 20
316.9606
 10
564.0887
 20
317.1255
 10
563.1667
 20
317.2391
 10
562.2192
 20
317.3081
 10
561.2538
 20
317.339
 10
560.278
 20
317.3385
 10
559.2993
 20
317.3133
 10
558.3253
 20
317.2699
 10
557.3634
 20
317.2151
 10
556.4212
 20
317.1553
 10
555.5063
 20
317.0973
 10
554.6261
 20
317.0476
 10
553.7881
 20
317.013
 10
553.0
 20
317.0
 10
553.0
 20
321.0
 10
577.0
 20
319.0
 10
577.0
 20
329.0
 10
566.0
 20
329.0
 10
567.0
 20
337.0
 10
577.0
 20
337.0
 10
577.0
 20
342.0
 10
571.0
 20
342.0
 10
571.0
 20
354.0
 10
575.0
 20
354.0
 10
575.0
 20
355.0
 10
528.0
 20
355.0
 10
528.0
 20
338.0
 10
536.0
 20
338.0
 10
536.0
 20
319.0
 10
551.0
 20
324.0
 10
551.0
 20
323.0
 10
549.0
 20
317.0
 10
509.0
 20
317.0
 10
509.0
 20
321.0
 10
509.6734
 20
320.6676
 10
510.4266
 20
320.3461
 10
511.2506
 20
320.0388
 10
512.1364
 20
319.7495
 10
513.0752
 20
319.4815
 10
514.058
 20
319.2385
 10
515.0759
 20
319.024
 10
516.1198
 20
318.8415
 10
517.181
 20
318.6947
 10
518.2503
 20
318.587
 10
519.319
 20
318.522
 10
520.378
 20
318.5032
 10
521.4185
 20
318.5342
 10
522.4314
 20
318.6185
 10
523.4078
 20
318.7597
 10
524.3388
 20
318.9613
 10
525.2155
 20
319.2269
 10
526.0289
 20
319.56
 10
526.7701
 20
319.9642
 10
527.4301
 20
320.443
 10
528.0
 20
321.0
 10
534.0
 20
319.0
 10
534.0
 20
323.0
 10
529.0
 20
323.0
 10
530.0
 20
325.0
 10
513.0
 20
325.0
 10
513.0
 20
329.0
 10
523.0
 20
329.0
 10
522.0
 20
333.0
 10
528.0
 20
333.0
 10
527.0
 20
329.0
 10
531.0
 20
329.0
 10
534.0
 20
336.0
 10
533.1792
 20
335.9905
 10
532.316
 20
335.9638
 10
531.4139
 20
335.9226
 10
530.4767
 20
335.8696
 10
529.508
 20
335.8074
 10
528.5115
 20
335.7387
 10
527.491
 20
335.6663
 10
526.4499
 20
335.5926
 10
525.3921
 20
335.5206
 10
524.3213
 20
335.4527
 10
523.241
 20
335.3917
 10
522.155
 20
335.3403
 10
521.0669
 20
335.3011
 10
519.9805
 20
335.2768
 10
518.8994
 20
335.2701
 10
517.8272
 20
335.2836
 10
516.7677
 20
335.3201
 10
515.7245
 20
335.3822
 10
514.7014
 20
335.4726
 10
513.7019
 20
335.5939
 10
512.7298
 20
335.7489
 10
511.7887
 20
335.9402
 10
510.8823
 20
336.1704
 10
510.0144
 20
336.4423
 10
509.1885
 20
336.7585
 10
508.4083
 20
337.1218
 10
507.6776
 20
337.5347
 10
507.0
 20
338.0
 10
526.0
 20
337.0
 10
526.0
 20
355.0
 10
502.0
 20
355.0
 10
501.9856
 20
354.0723
 10
501.9505
 20
353.1219
 10
501.9064
 20
352.1561
 10
501.8653
 20
351.1821
 10
501.839
 20
350.2072
 10
501.8394
 20
349.2385
 10
501.8783
 20
348.2834
 10
501.9676
 20
347.3492
 10
502.1191
 20
346.4429
 10
502.3448
 20
345.5719
 10
502.6564
 20
344.7435
 10
503.0659
 20
343.9648
 10
503.585
 20
343.2432
 10
504.2258
 20
342.5858
 10
505.0
 20
342.0
 10
503.0
 20
336.0
 10
499.0
 20
336.0
 10
497.0
 20
342.0
 10
497.7741
 20
342.5858
 10
498.4148
 20
343.2432
 10
498.934
 20
343.9648
 10
499.3435
 20
344.7435
 10
499.6551
 20
345.5719
 10
499.8808
 20
346.4429
 10
500.0323
 20
347.3492
 10
500.1216
 20
348.2835
 10
500.1605
 20
349.2385
 10
500.1609
 20
350.2072
 10
500.1346
 20
351.1821
 10
500.0935
 20
352.1561
 10
500.0494
 20
353.1219
 10
500.0143
 20
354.0723
 10
500.0
 20
355.0
 10
476.0
 20
355.0
 10
476.0
 20
337.0
 10
476.6584
 20
336.9874
 10
477.4028
 20
336.9529
 10
478.2229
 20
336.9015
 10
479.1088
 20
336.8382
 10
480.0503
 20
336.768
 10
481.0373
 20
336.6959
 10
482.0598
 20
336.6267
 10
483.1075
 20
336.5657
 10
484.1705
 20
336.5176
 10
485.2387
 20
336.4874
 10
486.3019
 20
336.4803
 10
487.3501
 20
336.5011
 10
488.3731
 20
336.5549
 10
489.3609
 20
336.6465
 10
490.3034
 20
336.7811
 10
491.1904
 20
336.9635
 10
492.0119
 20
337.1989
 10
492.7578
 20
337.492
 10
493.418
 20
337.848
 10
493.9825
 20
338.2718
 10
494.441
 20
338.7684
 10
494.7835
 20
339.3428
 10
495.0
 20
340.0
 10
496.0
 20
340.0
 10
496.0
 20
336.0
 10
474.0
 20
336.0
 10
474.0
 20
355.0
 10
450.0
 20
355.0
 10
450.0
 20
337.0
 10
469.0
 20
337.0
 10
469.0
 20
342.0
 10
462.0
 20
344.0
 10
462.0
 20
342.0
 10
461.0
 20
342.0
 10
461.0
 20
344.0
 10
455.0
 20
342.0
 10
455.248
 20
343.182
 10
455.5428
 20
344.2495
 10
455.8876
 20
345.2076
 10
456.2852
 20
346.0613
 10
456.7386
 20
346.8156
 10
457.2509
 20
347.4755
 10
457.8249
 20
348.0462
 10
458.4637
 20
348.5326
 10
459.1703
 20
348.9397
 10
459.9477
 20
349.2726
 10
460.7987
 20
349.5363
 10
461.7265
 20
349.7359
 10
462.734
 20
349.8763
 10
463.8241
 20
349.9627
 10
465.0
 20
350.0
 10
465.0
 20
346.0
 10
466.0
 20
346.0
 10
466.0
 20
350.0
 10
467.0
 20
350.0
 10
469.0
 20
346.0
 10
468.0
 20
343.0
 10
472.0
 20
342.0
 10
470.0
 20
336.0
 10
450.0
 20
336.0
 10
450.0
 20
332.0
 10
446.0
 20
332.0
 10
446.0
 20
333.0
 10
446.5099
 20
333.5203
 10
446.9539
 20
334.1258
 10
447.3358
 20
334.8094
 10
447.6598
 20
335.5643
 10
447.9295
 20
336.3836
 10
448.1491
 20
337.2603
 10
448.3224
 20
338.1876
 10
448.4534
 20
339.1586
 10
448.546
 20
340.1663
 10
448.6041
 20
341.2039
 10
448.6316
 20
342.2645
 10
448.6326
 20
343.3411
 10
448.6108
 20
344.4268
 10
448.5703
 20
345.5148
 10
448.5151
 20
346.5982
 10
448.4489
 20
347.67
 10
448.3758
 20
348.7233
 10
448.2997
 20
349.7513
 10
448.2245
 20
350.747
 10
448.1541
 20
351.7035
 10
448.0926
 20
352.614
 10
448.0437
 20
353.4715
 10
448.0116
 20
354.2691
 10
448.0
 20
355.0
 10
432.0
 20
355.0
 10
431.9878
 20
354.1675
 10
431.9545
 20
353.2865
 10
431.905
 20
352.363
 10
431.8443
 20
351.4031
 10
431.7771
 20
350.4127
 10
431.7084
 20
349.3979
 10
431.6432
 20
348.3648
 10
431.5862
 20
347.3192
 10
431.5425
 20
346.2673
 10
431.5168
 20
345.2151
 10
431.5141
 20
344.1686
 10
431.5394
 20
343.1338
 10
431.5974
 20
342.1167
 10
431.6931
 20
341.1234
 10
431.8314
 20
340.1599
 10
432.0172
 20
339.2322
 10
432.2554
 20
338.3463
 10
432.5509
 20
337.5083
 10
432.9085
 20
336.7242
 10
433.3333
 20
336.0
 10
433.6291
 20
335.5723
 10
433.9944
 20
335.077
 10
434.4215
 20
334.5278
 10
434.9028
 20
333.9383
 10
435.4307
 20
333.3221
 10
435.9975
 20
332.6931
 10
436.5957
 20
332.0647
 10
437.2177
 20
331.4508
 10
437.8558
 20
330.8649
 10
438.5024
 20
330.3208
 10
439.1499
 20
329.8321
 10
439.7907
 20
329.4124
 10
440.4172
 20
329.0756
 10
441.0217
 20
328.8351
 10
441.5967
 20
328.7047
 10
442.1346
 20
328.6981
 10
442.6277
 20
328.8289
 10
443.0683
 20
329.1109
 10
443.449
 20
329.5575
 10
443.7621
 20
330.1827
 10
444.0
 20
331.0
 10
445.0
 20
331.0
 10
450.0
 20
329.0
 10
450.0
 20
326.0
 10
443.0
 20
326.0
 10
441.0
 20
323.0
 10
440.7944
 20
324.0949
 10
440.5267
 20
325.1151
 10
440.195
 20
326.0626
 10
439.7978
 20
326.9394
 10
439.3334
 20
327.7478
 10
438.8001
 20
328.4898
 10
438.1963
 20
329.1674
 10
437.5204
 20
329.7829
 10
436.7706
 20
330.3382
 10
435.9453
 20
330.8354
 10
435.0429
 20
331.2767
 10
434.0616
 20
331.6642
 10
433.0
 20
332.0
 10
430.0
 20
336.0
 10
431.0
 20
355.0
 10
398.0
 20
355.0
 10
398.0
 20
338.0
 10
403.0
 20
341.0
 10
402.2611
 20
340.2887
 10
401.5293
 20
339.578
 10
400.8028
 20
338.8701
 10
400.0803
 20
338.1669
 10
399.3601
 20
337.4705
 10
398.6407
 20
336.7829
 10
397.9206
 20
336.1061
 10
397.1982
 20
335.4423
 10
396.472
 20
334.7934
 10
395.7405
 20
334.1616
 10
395.0022
 20
333.5487
 10
394.2554
 20
332.957
 10
393.4987
 20
332.3883
 10
392.7305
 20
331.8449
 10
391.9493
 20
331.3286
 10
391.1535
 20
330.8416
 10
390.3416
 20
330.386
 10
389.5121
 20
329.9636
 10
388.6635
 20
329.5766
 10
387.7941
 20
329.2271
 10
386.9026
 20
328.917
 10
385.9872
 20
328.6485
 10
385.0465
 20
328.4235
 10
384.079
 20
328.2441
 10
383.0831
 20
328.1123
 10
382.0572
 20
328.0303
 10
381.0
 20
328.0
 10
381.0
 20
324.0
 10
366.0
 20
326.0
 10
365.0
 20
326.0
 10
363.0
 20
326.0
 10
362.0
 20
326.0
 10
358.0
 20
324.0
 10
359.0
 20
328.0
 10
360.1786
 20
327.9925
 10
361.1498
 20
328.088
 10
361.9381
 20
328.3075
 10
362.5682
 20
328.672
 10
363.0648
 20
329.2025
 10
363.4525
 20
329.92
 10
363.756
 20
330.8455
 10
364.0
 20
332.0
 10
375.0
 20
332.0
 10
375.0
 20
328.0
 10
379.0
 20
328.0
 10
376.0
 20
334.0
 10
376.6304
 20
333.3505
 10
377.2956
 20
332.7605
 10
377.9923
 20
332.2296
 10
378.7172
 20
331.7574
 10
379.4669
 20
331.3436
 10
380.2383
 20
330.9878
 10
381.0281
 20
330.6897
 10
381.8329
 20
330.4489
 10
382.6494
 20
330.265
 10
383.4745
 20
330.1377
 10
384.3047
 20
330.0667
 10
385.1369
 20
330.0516
 10
385.9677
 20
330.0919
 10
386.7939
 20
330.1875
 10
387.6122
 20
330.3379
 10
388.4192
 20
330.5427
 10
389.2117
 20
330.8016
 10
389.9865
 20
331.1143
 10
390.7402
 20
331.4804
 10
391.4696
 20
331.8996
 10
392.1713
 20
332.3714
 10
392.8421
 20
332.8955
 10
393.4787
 20
333.4717
 10
394.0779
 20
334.0994
 10
394.6363
 20
334.7784
 10
395.1506
 20
335.5083
 10
395.6176
 20
336.2888
 10
396.034
 20
337.1194
 10
396.3966
 20
338.0
 10
396.6853
 20
338.8843
 10
396.9167
 20
339.8064
 10
397.0958
 20
340.7615
 10
397.2277
 20
341.745
 10
397.3177
 20
342.7522
 10
397.3709
 20
343.7786
 10
397.3924
 20
344.8194
 10
397.3874
 20
345.8699
 10
397.3611
 20
346.9257
 10
397.3185
 20
347.982
 10
397.2649
 20
349.0341
 10
397.2054
 20
350.0774
 10
397.1452
 20
351.1074
 10
397.0894
 20
352.1192
 10
397.0431
 20
353.1084
 10
397.0116
 20
354.0702
 10
397.0
 20
355.0
 10
372.0
 20
355.0
 10
374.0
 20
338.0
 10
374.0
 20
337.0
 10
373.0
 20
335.0
 10
365.0
 20
336.0
 10
365.0
 20
337.0
 10
371.0
 20
338.0
 10
371.0
 20
355.0
 10
355.0
 20
355.0
 10
355.0
 20
345.0
 10
356.0
 20
345.0
 10
357.0
 20
350.0
 10
367.0
 20
350.0
 10
370.0
 20
346.0
 10
369.3982
 20
345.1373
 10
368.845
 20
344.5017
 10
368.4316
 20
344.0437
 10
368.2492
 20
343.714
 10
368.389
 20
343.4631
 10
368.9422
 20
343.2415
 10
370.0
 20
343.0
 10
370.0
 20
342.0
 10
362.0
 20
344.0
 10
362.0
 20
342.0
 10
361.0
 20
342.0
 10
361.0
 20
344.0
 10
355.0
 20
343.0
 10
355.0
 20
338.0
 10
360.0
 20
336.0
 10
352.0
 20
335.0
 10
351.0
 20
337.0
 10
351.0
 20
338.0
 10
353.0
 20
355.0
 10
337.0
 20
355.0
 10
337.0
 20
333.0
 10
349.0
 20
335.0
 10
351.0
 20
332.0
 10
338.0
 20
332.0
 10
338.0
 20
319.0
 10
351.0
 20
319.0
 10
354.0
 20
324.0
 10
354.0
 20
323.0
 10
352.0
 20
317.0
 10
335.0
 20
316.0
 10
335.0
 20
356.0
 10
334.0
 20
356.0
 10
333.0
 20
353.0
 10
329.0
 20
355.0
 10
324.0
 20
351.0
 10
320.0
 20
356.0
  0
LWPOLYLINE
  5
36
330
17
100
AcDbEntity
  8
0
100
AcDbPolyline
 90
13
 70
0
 10
676.0
 20
356.0
 10
676.0
 20
301.0
 10
683.0
 20
301.0
 10
682.0
 20
297.0
 10
685.0
 20
300.0
 10
689.0
 20
295.0
 10
689.0
 20
301.0
 10
731.0
 20
301.0
 10
734.0
 20
295.0
 10
734.0
 20
301.0
 10
743.0
 20
301.0
 10
743.0
 20
356.0
 10
676.0
 20
356.0
  0
LWPOLYLINE
  5
37
330
17
100
AcDbEntity
  8
0
100
AcDbPolyline
 90
15
 70
0
 10
745.0
 20
356.0
 10
745.0
 20
301.0
 10
762.0
 20
301.0
 10
761.0
 20
297.0
 10
762.0
 20
297.0
 10
763.0
 20
300.0
 10
764.0
 20
300.0
 10
768.0
 20
295.0
 10
768.0
 20
301.0
 10
809.0
 20
301.0
 10
812.0
 20
295.0
 10
812.0
 20
301.0
 10
821.0
 20
301.0
 10
821.0
 20
356.0
 10
745.0
 20
356.0
  0
LWPOLYLINE
  5
38
330
17
100
AcDbEntity
  8
0
100
AcDbPolyline
 90
20
 70
0
 10
823.0
 20
356.0
 10
823.0
 20
301.0
 10
835.0
 20
301.0
 10
838.0
 20
295.0
 10
838.0
 20
301.0
 10
889.0
 20
301.0
 10
889.0
 20
297.0
 10
890.0
 20
297.0
 10
892.0
 20
299.0
 10
895.0
 20
295.0
 10
898.0
 20
304.0
 10
897.0
 20
304.0
 10
896.0
 20
302.0
 10
896.0
 20
304.0
 10
895.0
 20
302.0
 10
885.0
 20
302.0
 10
886.0
 20
310.0
 10
899.0
 20
309.0
 10
899.0
 20
356.0
 10
823.0
 20
356.0
  0
LWPOLYLINE
  5
39
330
17
100
AcDbEntity
  8
0
100
AcDbPolyline
 90
284
 70
0
 10
403.0
 20
340.0
 10
403.0
 20
326.0
 10
397.0
 20
329.0
 10
397.0
 20
319.0
 10
396.127
 20
318.9945
 10
395.2363
 20
318.979
 10
394.3289
 20
318.9543
 10
393.4058
 20
318.9215
 10
392.4678
 20
318.8815
 10
391.5161
 20
318.8355
 10
390.5515
 20
318.7843
 10
389.5751
 20
318.729
 10
388.5877
 20
318.6706
 10
387.5905
 20
318.6102
 10
386.5842
 20
318.5486
 10
385.5701
 20
318.487
 10
384.5489
 20
318.4263
 10
383.5217
 20
318.3675
 10
382.4894
 20
318.3117
 10
381.4531
 20
318.2598
 10
380.4136
 20
318.2129
 10
379.3721
 20
318.172
 10
378.3293
 20
318.138
 10
377.2864
 20
318.112
 10
376.2443
 20
318.095
 10
375.2039
 20
318.088
 10
374.1663
 20
318.092
 10
373.1324
 20
318.1079
 10
372.1031
 20
318.1369
 10
371.0795
 20
318.1799
 10
370.0625
 20
318.238
 10
369.0532
 20
318.3121
 10
368.0524
 20
318.4032
 10
367.0611
 20
318.5123
 10
366.0804
 20
318.6405
 10
365.1112
 20
318.7888
 10
364.1544
 20
318.9582
 10
363.2111
 20
319.1496
 10
362.2822
 20
319.3641
 10
361.3687
 20
319.6027
 10
360.4715
 20
319.8663
 10
359.5917
 20
320.1561
 10
358.7301
 20
320.473
 10
357.8879
 20
320.818
 10
357.0659
 20
321.1921
 10
356.2651
 20
321.5964
 10
355.4866
 20
322.0317
 10
354.7312
 20
322.4993
 10
354.0
 20
323.0
 10
356.0
 20
317.0
 10
427.0
 20
317.0
 10
427.0
 20
313.0
 10
417.0
 20
313.0
 10
417.2919
 20
312.1971
 10
417.6891
 20
311.4616
 10
418.1753
 20
310.8022
 10
418.7341
 20
310.2277
 10
419.3491
 20
309.7467
 10
420.0041
 20
309.3679
 10
420.6827
 20
309.1002
 10
421.3685
 20
308.9521
 10
422.0452
 20
308.9325
 10
422.6965
 20
309.05
 10
423.3061
 20
309.3134
 10
423.8575
 20
309.7314
 10
424.3346
 20
310.3126
 10
424.7208
 20
311.0659
 10
425.0
 20
312.0
 10
426.0
 20
312.0
 10
426.0
 20
309.0
 10
438.0
 20
309.0
 10
438.0
 20
313.0
 10
436.0
 20
311.0
 10
435.0
 20
311.0
 10
435.0
 20
317.0
 10
436.0
 20
317.0
 10
436.0
 20
314.0
 10
437.0
 20
314.0
 10
437.0
 20
317.0
 10
437.6015
 20
316.7885
 10
438.2457
 20
316.5772
 10
438.9298
 20
316.3671
 10
439.6514
 20
316.1595
 10
440.4076
 20
315.9555
 10
441.1959
 20
315.7562
 10
442.0137
 20
315.5628
 10
442.8584
 20
315.3764
 10
443.7273
 20
315.1982
 10
444.6178
 20
315.0293
 10
445.5273
 20
314.8708
 10
446.4531
 20
314.724
 10
447.3927
 20
314.5899
 10
448.3433
 20
314.4696
 10
449.3024
 20
314.3644
 10
450.2674
 20
314.2754
 10
451.2356
 20
314.2037
 10
452.2043
 20
314.1505
 10
453.1711
 20
314.1169
 10
454.1332
 20
314.104
 10
455.088
 20
314.1131
 10
456.0329
 20
314.1452
 10
456.9653
 20
314.2014
 10
457.8825
 20
314.2831
 10
458.7819
 20
314.3912
 10
459.6609
 20
314.5269
 10
460.5169
 20
314.6914
 10
461.3473
 20
314.8859
 10
462.1493
 20
315.1114
 10
462.9204
 20
315.3691
 10
463.658
 20
315.6601
 10
464.3594
 20
315.9857
 10
465.0221
 20
316.3469
 10
465.6433
 20
316.7448
 10
466.2204
 20
317.1808
 10
466.751
 20
317.6558
 10
467.2322
 20
318.171
 10
467.6615
 20
318.7276
 10
468.0362
 20
319.3267
 10
468.3538
 20
319.9694
 10
468.6116
 20
320.657
 10
468.807
 20
321.3905
 10
468.9373
 20
322.1711
 10
469.0
 20
323.0
 10
472.0
 20
317.0
 10
506.0
 20
317.0
 10
505.0
 20
323.0
 10
509.0
 20
321.0
 10
508.0
 20
327.0
 10
500.0
 20
327.0
 10
501.0
 20
331.0
 10
495.0
 20
331.0
 10
495.0
 20
328.0
 10
498.0
 20
330.0
 10
499.0
 20
330.0
 10
494.0
 20
327.0
 10
494.0
 20
323.0
 10
498.0
 20
325.0
 10
499.0
 20
325.0
 10
499.5339
 20
323.8485
 10
500.0
 20
323.4647
 10
500.466
 20
323.8485
 10
501.0
 20
325.0
 10
502.0
 20
325.0
 10
502.2501
 20
323.9666
 10
502.3595
 20
323.057
 10
502.3379
 20
322.2632
 10
502.1949
 20
321.5775
 10
501.9399
 20
320.9922
 10
501.5827
 20
320.4996
 10
501.1328
 20
320.0919
 10
500.5998
 20
319.7612
 10
499.9934
 20
319.5
 10
499.3231
 20
319.3005
 10
498.5985
 20
319.1548
 10
497.8292
 20
319.0553
 10
497.0249
 20
318.9941
 10
496.1951
 20
318.9637
 10
495.3494
 20
318.9561
 10
494.4974
 20
318.9637
 10
493.6488
 20
318.9787
 10
492.8131
 20
318.9934
 10
492.0
 20
319.0
 10
491.122
 20
318.9924
 10
490.2343
 20
318.9722
 10
489.3393
 20
318.9432
 10
488.4391
 20
318.9088
 10
487.5361
 20
318.8729
 10
486.6326
 20
318.8389
 10
485.7309
 20
318.8106
 10
484.8332
 20
318.7916
 10
483.942
 20
318.7855
 10
483.0594
 20
318.7961
 10
482.1879
 20
318.8268
 10
481.3296
 20
318.8815
 10
480.4869
 20
318.9637
 10
479.6621
 20
319.0771
 10
478.8574
 20
319.2254
 10
478.0753
 20
319.4121
 10
477.3179
 20
319.6409
 10
476.5877
 20
319.9155
 10
475.8868
 20
320.2395
 10
475.2176
 20
320.6166
 10
474.5823
 20
321.0504
 10
473.9834
 20
321.5446
 10
473.423
 20
322.1027
 10
472.9036
 20
322.7285
 10
472.4273
 20
323.4256
 10
471.9965
 20
324.1977
 10
471.6135
 20
325.0483
 10
471.2805
 20
325.9812
 10
471.0
 20
327.0
 10
463.0
 20
329.0
 10
470.0
 20
328.0
 10
470.0
 20
331.0
 10
469.0367
 20
331.0123
 10
468.0722
 20
331.0409
 10
467.1109
 20
331.0729
 10
466.1572
 20
331.0956
 10
465.2154
 20
331.0962
 10
464.29
 20
331.0619
 10
463.3852
 20
330.98
 10
462.5056
 20
330.8376
 10
461.6554
 20
330.6221
 10
460.839
 20
330.3207
 10
460.061
 20
329.9205
 10
459.3255
 20
329.4088
 10
458.637
 20
328.7729
 10
458.0
 20
328.0
 10
462.0
 20
328.0
 10
462.0
 20
327.0
 10
457.0
 20
327.0
 10
457.4128
 20
325.927
 10
457.8742
 20
325.0758
 10
458.3906
 20
324.4426
 10
458.9682
 20
324.0234
 10
459.6136
 20
323.8142
 10
460.333
 20
323.8112
 10
461.133
 20
324.0105
 10
462.0198
 20
324.408
 10
463.0
 20
325.0
 10
463.0
 20
323.0
 10
464.0
 20
323.0
 10
464.0
 20
325.0
 10
468.0
 20
323.0
 10
467.5012
 20
322.1815
 10
466.9605
 20
321.4536
 10
466.3804
 20
320.8125
 10
465.7634
 20
320.2548
 10
465.1122
 20
319.7768
 10
464.4293
 20
319.375
 10
463.7173
 20
319.0459
 10
462.9787
 20
318.7858
 10
462.2163
 20
318.5913
 10
461.4324
 20
318.4587
 10
460.6298
 20
318.3844
 10
459.811
 20
318.365
 10
458.9785
 20
318.3969
 10
458.135
 20
318.4764
 10
457.283
 20
318.6
 10
456.4251
 20
318.7643
 10
455.5638
 20
318.9655
 10
454.7019
 20
319.2001
 10
453.8417
 20
319.4646
 10
452.986
 20
319.7555
 10
452.1373
 20
320.069
 10
451.2981
 20
320.4018
 10
450.4711
 20
320.7501
 10
449.6588
 20
321.1106
 10
448.8638
 20
321.4794
 10
448.0887
 20
321.8533
 10
447.3361
 20
322.2284
 10
446.6085
 20
322.6014
 10
445.9085
 20
322.9686
 10
445.2387
 20
323.3265
 10
444.6016
 20
323.6714
 10
444.0
 20
324.0
 10
444.0
 20
323.0
 10
447.0
 20
320.0
 10
441.0
 20
321.0
 10
440.325
 20
320.6442
 10
439.6024
 20
320.426
 10
438.8378
 20
320.3348
 10
438.0372
 20
320.36
 10
437.2061
 20
320.4912
 10
436.3504
 20
320.7177
 10
435.4758
 20
321.0291
 10
434.588
 20
321.4147
 10
433.6928
 20
321.8642
 10
432.796
 20
322.3668
 10
431.9032
 20
322.912
 10
431.0203
 20
323.4894
 10
430.1529
 20
324.0884
 10
429.3068
 20
324.6984
 10
428.4878
 20
325.3089
 10
427.7016
 20
325.9094
 10
426.954
 20
326.4893
 10
426.2507
 20
327.038
 10
425.5974
 20
327.5451
 10
425.0
 20
328.0
 10
431.0
 20
328.0
 10
433.0
 20
331.0
 10
433.0
 20
332.0
 10
403.0
 20
334.0
 10
403.0
 20
340.0
  0
LWPOLYLINE
  5
3A
330
17
100
AcDbEntity
  8
0
100
AcDbPolyline
 90
402
 70
0
 10
390.0
 20
309.0
 10
392.0
 20
305.0
 10
391.0
 20
301.0
 10
385.0
 20
302.0
 10
384.3908
 20
300.9608
 10
383.771
 20
300.1584
 10
383.1361
 20
299.5738
 10
382.4814
 20
299.1881
 10
381.8027
 20
298.9825
 10
381.0953
 20
298.938
 10
380.3549
 20
299.0359
 10
379.5769
 20
299.2573
 10
378.7569
 20
299.5832
 10
377.8904
 20
299.9949
 10
376.9729
 20
300.4734
 10
376.0
 20
301.0
 10
383.0
 20
305.0
 10
370.0
 20
305.0
 10
369.0
 20
298.0
 10
362.0
 20
304.0
 10
363.0
 20
302.0
 10
364.0
 20
302.0
 10
365.0
 20
305.0
 10
352.0
 20
305.0
 10
346.0
 20
297.0
 10
349.0
 20
299.0
 10
349.0
 20
293.0
 10
358.0
 20
294.0
 10
357.0
 20
278.0
 10
362.0
 20
277.0
 10
357.0
 20
276.0
 10
357.0
 20
245.0
 10
358.0197
 20
244.8704
 10
359.0184
 20
244.7231
 10
359.9981
 20
244.5686
 10
360.9608
 20
244.4174
 10
361.9085
 20
244.2802
 10
362.8432
 20
244.1675
 10
363.7669
 20
244.0898
 10
364.6815
 20
244.0578
 10
365.5892
 20
244.082
 10
366.4918
 20
244.173
 10
367.3915
 20
244.3414
 10
368.2901
 20
244.5977
 10
369.1897
 20
244.9525
 10
370.0923
 20
245.4164
 10
371.0
 20
246.0
 10
371.0
 20
244.0
 10
372.0
 20
244.0
 10
372.0
 20
246.0
 10
383.0
 20
244.0
 10
384.0
 20
248.0
 10
379.0
 20
248.0
 10
379.0
 20
252.0
 10
368.0
 20
252.0
 10
368.0
 20
246.0
 10
367.0
 20
246.0
 10
366.4017
 20
246.8608
 10
365.7973
 20
247.4
 10
365.204
 20
247.6376
 10
364.6387
 20
247.5935
 10
364.1186
 20
247.2878
 10
363.6607
 20
246.7403
 10
363.2821
 20
245.971
 10
363.0
 20
245.0
 10
362.4439
 20
245.645
 10
361.9445
 20
246.3381
 10
361.499
 20
247.0762
 10
361.1047
 20
247.8564
 10
360.7589
 20
248.6754
 10
360.459
 20
249.5302
 10
360.2022
 20
250.4177
 10
359.9858
 20
251.335
 10
359.8072
 20
252.2787
 10
359.6635
 20
253.2461
 10
359.5522
 20
254.2338
 10
359.4706
 20
255.2389
 10
359.4159
 20
256.2582
 10
359.3854
 20
257.2888
 10
359.3764
 20
258.3275
 10
359.3863
 20
259.3712
 10
359.4123
 20
260.417
 10
359.4517
 20
261.4616
 10
359.5018
 20
262.502
 10
359.56
 20
263.5352
 10
359.6236
 20
264.5581
 10
359.6897
 20
265.5675
 10
359.7558
 20
266.5605
 10
359.8192
 20
267.5339
 10
359.8771
 20
268.4847
 10
359.9268
 20
269.4098
 10
359.9656
 20
270.306
 10
359.9909
 20
271.1705
 10
360.0
 20
272.0
 10
378.0
 20
272.0
 10
377.0
 20
276.0
 10
373.0
 20
280.0
 10
360.0
 20
279.0
 10
360.0
 20
294.0
 10
365.0
 20
293.0
 10
365.0
 20
299.0
 10
368.0
 20
293.0
 10
375.0
 20
294.0
 10
374.9879
 20
293.031
 10
374.9615
 20
292.0626
 10
374.9356
 20
291.1002
 10
374.9254
 20
290.1493
 10
374.9456
 20
289.2152
 10
375.0113
 20
288.3035
 10
375.1374
 20
287.4194
 10
375.3388
 20
286.5684
 10
375.6306
 20
285.756
 10
376.0277
 20
284.9875
 10
376.5449
 20
284.2684
 10
377.1974
 20
283.6041
 10
378.0
 20
283.0
 10
378.0
 20
289.0
 10
382.0
 20
285.0
 10
383.0
 20
288.0
 10
377.0
 20
291.0
 10
377.0
 20
299.0
 10
381.0
 20
294.0
 10
382.0
 20
294.0
 10
383.0
 20
297.0
 10
384.0
 20
297.0
 10
384.2115
 20
295.9173
 10
384.5088
 20
294.9443
 10
384.887
 20
294.0843
 10
385.3414
 20
293.3404
 10
385.8669
 20
292.7158
 10
386.4587
 20
292.2139
 10
387.1121
 20
291.8378
 10
387.8221
 20
291.5907
 10
388.5839
 20
291.476
 10
389.3927
 20
291.4968
 10
390.2435
 20
291.6563
 10
391.1316
 20
291.9579
 10
392.052
 20
292.4047
 10
393.0
 20
293.0
 10
398.0
 20
291.0
 10
398.5858
 20
291.7741
 10
399.2432
 20
292.4148
 10
399.9649
 20
292.934
 10
400.7435
 20
293.3435
 10
401.572
 20
293.6551
 10
402.4429
 20
293.8808
 10
403.3492
 20
294.0323
 10
404.2835
 20
294.1216
 10
405.2386
 20
294.1605
 10
406.2072
 20
294.1609
 10
407.1821
 20
294.1346
 10
408.1561
 20
294.0935
 10
409.1219
 20
294.0494
 10
410.0723
 20
294.0143
 10
411.0
 20
294.0
 10
411.0
 20
291.0
 10
415.0
 20
289.0
 10
410.0
 20
290.0
 10
410.0
 20
286.0
 10
414.0
 20
288.0
 10
415.0
 20
288.0
 10
421.0
 20
286.0
 10
422.0
 20
286.0
 10
423.0
 20
290.0
 10
421.0
 20
290.0
 10
421.846
 20
290.8757
 10
422.6772
 20
291.6093
 10
423.5012
 20
292.2102
 10
424.3254
 20
292.6879
 10
425.1574
 20
293.0518
 10
426.0048
 20
293.3113
 10
426.8751
 20
293.476
 10
427.7758
 20
293.5551
 10
428.7145
 20
293.5583
 10
429.6987
 20
293.495
 10
430.736
 20
293.3745
 10
431.8339
 20
293.2063
 10
433.0
 20
293.0
 10
437.0
 20
299.0
 10
436.0
 20
291.0
 10
441.0
 20
291.0
 10
441.0
 20
290.0
 10
436.0
 20
290.0
 10
436.0
 20
286.0
 10
447.0
 20
288.0
 10
448.0
 20
252.0
 10
454.0
 20
253.0
 10
452.0
 20
250.0
 10
452.0
 20
249.0
 10
456.0
 20
254.0
 10
455.2413
 20
254.1643
 10
454.5387
 20
254.4041
 10
453.8901
 20
254.7158
 10
453.2935
 20
255.0959
 10
452.7471
 20
255.541
 10
452.2487
 20
256.0477
 10
451.7966
 20
256.6123
 10
451.3887
 20
257.2316
 10
451.0231
 20
257.902
 10
450.6978
 20
258.62
 10
450.4108
 20
259.3822
 10
450.1602
 20
260.1851
 10
449.944
 20
261.0253
 10
449.7604
 20
261.8993
 10
449.6072
 20
262.8036
 10
449.4826
 20
263.7347
 10
449.3845
 20
264.6893
 10
449.3112
 20
265.6637
 10
449.2605
 20
266.6547
 10
449.2305
 20
267.6586
 10
449.2192
 20
268.672
 10
449.2248
 20
269.6915
 10
449.2452
 20
270.7136
 10
449.2785
 20
271.7349
 10
449.3227
 20
272.7518
 10
449.3759
 20
273.7609
 10
449.436
 20
274.7587
 10
449.5012
 20
275.7418
 10
449.5696
 20
276.7067
 10
449.639
 20
277.6499
 10
449.7076
 20
278.568
 10
449.7734
 20
279.4575
 10
449.8345
 20
280.315
 10
449.8888
 20
281.1369
 10
449.9345
 20
281.9198
 10
449.9696
 20
282.6603
 10
449.992
 20
283.3548
 10
450.0
 20
284.0
 10
458.0
 20
284.0
 10
458.0
 20
281.0
 10
470.0
 20
281.0
 10
477.0
 20
284.0
 10
480.0
 20
293.0
 10
479.0
 20
297.0
 10
481.0
 20
294.0
 10
482.0
 20
294.0
 10
486.0
 20
299.0
 10
486.0
 20
293.0
 10
496.0
 20
294.0
 10
491.0
 20
279.0
 10
491.746
 20
278.7234
 10
492.4266
 20
278.3701
 10
493.0445
 20
277.9442
 10
493.6025
 20
277.4498
 10
494.1033
 20
276.8914
 10
494.5496
 20
276.273
 10
494.9441
 20
275.5989
 10
495.2897
 20
274.8733
 10
495.589
 20
274.1005
 10
495.8447
 20
273.2846
 10
496.0597
 20
272.43
 10
496.2366
 20
271.5407
 10
496.3783
 20
270.6211
 10
496.4873
 20
269.6754
 10
496.5665
 20
268.7078
 10
496.6186
 20
267.7224
 10
496.6463
 20
266.7237
 10
496.6524
 20
265.7157
 10
496.6397
 20
264.7026
 10
496.6107
 20
263.6888
 10
496.5684
 20
262.6785
 10
496.5153
 20
261.6758
 10
496.4544
 20
260.685
 10
496.3882
 20
259.7103
 10
496.3196
 20
258.756
 10
496.2512
 20
257.8262
 10
496.1858
 20
256.9252
 10
496.1262
 20
256.0572
 10
496.0751
 20
255.2265
 10
496.0352
 20
254.4372
 10
496.0092
 20
253.6936
 10
496.0
 20
253.0
 10
491.0
 20
253.0
 10
494.0
 20
248.0
 10
492.0
 20
252.0
 10
498.0
 20
251.0
 10
498.0
 20
280.0
 10
492.0
 20
280.0
 10
498.0
 20
283.0
 10
497.9909
 20
283.9897
 10
497.9734
 20
284.9631
 10
497.9641
 20
285.9165
 10
497.9796
 20
286.8463
 10
498.0367
 20
287.7488
 10
498.152
 20
288.6205
 10
498.3421
 20
289.4577
 10
498.6239
 20
290.2568
 10
499.0139
 20
291.0142
 10
499.5287
 20
291.7263
 10
500.1852
 20
292.3894
 10
501.0
 20
293.0
 10
500.0
 20
297.0
 10
503.0
 20
295.0
 10
507.0
 20
299.0
 10
506.0
 20
293.0
 10
506.9618
 20
293.1192
 10
507.9276
 20
293.2342
 10
508.8974
 20
293.345
 10
509.8708
 20
293.4517
 10
510.8479
 20
293.5541
 10
511.8284
 20
293.6524
 10
512.8122
 20
293.7465
 10
513.7991
 20
293.8365
 10
514.7891
 20
293.9222
 10
515.7819
 20
294.0038
 10
516.7774
 20
294.0811
 10
517.7756
 20
294.1543
 10
518.7761
 20
294.2233
 10
519.779
 20
294.2882
 10
520.784
 20
294.3488
 10
521.7911
 20
294.4053
 10
522.7999
 20
294.4576
 10
523.8106
 20
294.5057
 10
524.8228
 20
294.5496
 10
525.8364
 20
294.5893
 10
526.8513
 20
294.6249
 10
527.8674
 20
294.6563
 10
528.8844
 20
294.6834
 10
529.9024
 20
294.7064
 10
530.921
 20
294.7253
 10
531.9402
 20
294.7399
 10
532.9599
 20
294.7504
 10
533.9798
 20
294.7566
 10
534.9999
 20
294.7587
 10
536.02
 20
294.7566
 10
537.0399
 20
294.7504
 10
538.0596
 20
294.7399
 10
539.0788
 20
294.7253
 10
540.0975
 20
294.7065
 10
541.1154
 20
294.6835
 10
542.1325
 20
294.6563
 10
543.1485
 20
294.6249
 10
544.1635
 20
294.5894
 10
545.1771
 20
294.5496
 10
546.1893
 20
294.5057
 10
547.1999
 20
294.4576
 10
548.2088
 20
294.4053
 10
549.2158
 20
294.3489
 10
550.2208
 20
294.2882
 10
551.2237
 20
294.2234
 10
552.2243
 20
294.1544
 10
553.2224
 20
294.0812
 10
554.218
 20
294.0038
 10
555.2108
 20
293.9222
 10
556.2008
 20
293.8365
 10
557.1877
 20
293.7466
 10
558.1715
 20
293.6524
 10
559.152
 20
293.5542
 10
560.129
 20
293.4517
 10
561.1025
 20
293.345
 10
562.0722
 20
293.2342
 10
563.0381
 20
293.1192
 10
564.0
 20
293.0
 10
565.0
 20
299.0
 10
563.0
 20
297.0
 10
562.0
 20
297.0
 10
559.0
 20
302.0
 10
557.9992
 20
301.9998
 10
556.9984
 20
301.9996
 10
555.9975
 20
301.9991
 10
554.9967
 20
301.9984
 10
553.9959
 20
301.9976
 10
552.995
 20
301.9967
 10
551.9941
 20
301.9956
 10
550.9932
 20
301.9944
 10
549.9923
 20
301.9931
 10
548.9914
 20
301.9917
 10
547.9905
 20
301.9902
 10
546.9896
 20
301.9886
 10
545.9887
 20
301.9869
 10
544.9878
 20
301.9852
 10
543.9868
 20
301.9835
 10
542.9859
 20
301.9817
 10
541.985
 20
301.98
 10
540.9841
 20
301.9782
 10
539.9831
 20
301.9764
 10
538.9822
 20
301.9746
 10
537.9813
 20
301.9729
 10
536.9804
 20
301.9712
 10
535.9795
 20
301.9696
 10
534.9786
 20
301.968
 10
533.9777
 20
301.9665
 10
532.9769
 20
301.9651
 10
531.976
 20
301.9638
 10
530.9752
 20
301.9626
 10
529.9744
 20
301.9615
 10
528.9736
 20
301.9606
 10
527.9728
 20
301.9598
 10
526.972
 20
301.9591
 10
525.9713
 20
301.9587
 10
524.9705
 20
301.9584
 10
523.9699
 20
301.9583
 10
522.9692
 20
301.9584
 10
521.9685
 20
301.9587
 10
520.9679
 20
301.9593
 10
519.9673
 20
301.9601
 10
518.9668
 20
301.9612
 10
517.9662
 20
301.9625
 10
516.9657
 20
301.9641
 10
515.9653
 20
301.966
 10
514.9648
 20
301.9682
 10
513.9645
 20
301.9707
  0
LWPOLYLINE
  5
3B
330
17
100
AcDbEntity
  8
0
100
AcDbPolyline
 90
113
 70
0
 10
513.9644
 20
301.9707
 10
513.3281
 20
301.937
 10
512.6563
 20
301.8393
 10
511.9544
 20
301.6872
 10
511.2281
 20
301.4902
 10
510.4827
 20
301.2582
 10
509.7237
 20
301.0006
 10
508.9567
 20
300.7271
 10
508.1871
 20
300.4475
 10
507.4204
 20
300.1713
 10
506.6621
 20
299.9082
 10
505.9177
 20
299.6678
 10
505.1926
 20
299.4598
 10
504.4924
 20
299.2938
 10
503.8225
 20
299.1794
 10
503.1885
 20
299.1264
 10
502.5958
 20
299.1444
 10
502.0499
 20
299.2429
 10
501.5563
 20
299.4317
 10
501.1204
 20
299.7204
 10
500.7478
 20
300.1186
 10
500.444
 20
300.6361
 10
500.2144
 20
301.2823
 10
500.0646
 20
302.0671
 10
500.0
 20
303.0
 10
501.0
 20
301.0
 10
502.0
 20
301.0
 10
502.0
 20
309.0
 10
492.0
 20
309.0
 10
491.0
 20
309.0
 10
490.8974
 20
308.3497
 10
490.7348
 20
307.6764
 10
490.5158
 20
306.9864
 10
490.2441
 20
306.2863
 10
489.9235
 20
305.5822
 10
489.5577
 20
304.8806
 10
489.1503
 20
304.1879
 10
488.7051
 20
303.5104
 10
488.2259
 20
302.8545
 10
487.7162
 20
302.2265
 10
487.1799
 20
301.6329
 10
486.6206
 20
301.08
 10
486.0421
 20
300.5741
 10
485.448
 20
300.1216
 10
484.8421
 20
299.729
 10
484.2281
 20
299.4025
 10
483.6097
 20
299.1486
 10
482.9906
 20
298.9735
 10
482.3745
 20
298.8838
 10
481.7651
 20
298.8857
 10
481.1662
 20
298.9856
 10
480.5815
 20
299.1899
 10
480.0146
 20
299.5049
 10
479.4693
 20
299.9371
 10
478.9493
 20
300.4927
 10
478.4582
 20
301.1782
 10
478.0
 20
302.0
 10
477.4411
 20
302.0056
 10
476.8299
 20
302.0218
 10
476.169
 20
302.0475
 10
475.4611
 20
302.0816
 10
474.7091
 20
302.1232
 10
473.9155
 20
302.1711
 10
473.0831
 20
302.2243
 10
472.2146
 20
302.2818
 10
471.3128
 20
302.3425
 10
470.3802
 20
302.4053
 10
469.4197
 20
302.4692
 10
468.434
 20
302.5332
 10
467.4257
 20
302.5961
 10
466.3975
 20
302.6571
 10
465.3523
 20
302.7149
 10
464.2926
 20
302.7685
 10
463.2213
 20
302.8169
 10
462.1409
 20
302.8591
 10
461.0543
 20
302.894
 10
459.9641
 20
302.9205
 10
458.8731
 20
302.9376
 10
457.7839
 20
302.9442
 10
456.6993
 20
302.9393
 10
455.622
 20
302.9219
 10
454.5547
 20
302.8908
 10
453.5001
 20
302.8451
 10
452.4609
 20
302.7836
 10
451.4398
 20
302.7054
 10
450.4395
 20
302.6093
 10
449.4628
 20
302.4944
 10
448.5124
 20
302.3596
 10
447.591
 20
302.2037
 10
446.7012
 20
302.0259
 10
445.8458
 20
301.8249
 10
445.0275
 20
301.5999
 10
444.249
 20
301.3496
 10
443.5131
 20
301.0732
 10
442.8224
 20
300.7694
 10
442.1796
 20
300.4373
 10
441.5876
 20
300.0758
 10
441.0488
 20
299.6839
 10
440.5662
 20
299.2605
 10
440.1424
 20
298.8046
 10
439.78
 20
298.315
 10
439.4819
 20
297.7908
 10
439.2507
 20
297.231
 10
439.0892
 20
296.6344
 10
439.0
 20
296.0
 10
438.0
 20
296.0
 10
438.0
 20
301.0
 10
432.0
 20
296.0
 10
431.0
 20
296.0
 10
430.0
 20
302.0
 10
400.0
 20
303.0
 10
401.0
 20
309.0
 10
390.0
 20
309.0
  0
LWPOLYLINE
  5
3C
330
17
100
AcDbEntity
  8
0
100
AcDbPolyline
 90
4
 70
0
 10
900.0
 20
307.0
 10
900.0
 20
306.0
 10
935.0
 20
306.0
 10
900.0
 20
307.0
  0
LWPOLYLINE
  5
3D
330
17
100
AcDbEntity
  8
0
100
AcDbPolyline
 90
5
 70
0
 10
284.0
 20
298.0
 10
284.0
 20
239.0
 10
285.0
 20
239.0
 10
285.0
 20
279.0
 10
284.0
 20
298.0
  0
LWPOLYLINE
  5
3E
330
17
100
AcDbEntity
  8
0
100
AcDbPolyline
 90
5
 70
0
 10
571.0
 20
298.0
 10
571.0
 20
239.0
 10
572.0
 20
239.0
 10
572.0
 20
279.0
 10
571.0
 20
298.0
  0
LWPOLYLINE
  5
3F
330
17
100
AcDbEntity
  8
0
100
AcDbPolyline
 90
5
 70
0
 10
509.0
 20
297.0
 10
509.0
 20
295.0
 10
560.0
 20
295.0
 10
560.0
 20
297.0
 10
509.0
 20
297.0
  0
LWPOLYLINE
  5
40
330
17
100
AcDbEntity
  8
0
100
AcDbPolyline
 90
22
 70
0
 10
573.0
 20
293.0
 10
575.0
 20
239.0
 10
587.0
 20
239.0
 10
589.0
 20
233.0
 10
589.0
 20
232.0
 10
586.0
 20
237.0
 10
575.0
 20
237.0
 10
575.0
 20
215.0
 10
618.0
 20
215.0
 10
618.0
 20
230.0
 10
621.0
 20
230.0
 10
621.0
 20
237.0
 10
608.0
 20
237.0
 10
608.0
 20
232.0
 10
604.0
 20
232.0
 10
604.0
 20
233.0
 10
606.0
 20
239.0
 10
610.0
 20
239.0
 10
610.0
 20
281.0
 10
580.0
 20
281.0
 10
582.0
 20
293.0
 10
573.0
 20
293.0
  0
LWPOLYLINE
  5
41
330
17
100
AcDbEntity
  8
0
100
AcDbPolyline
 90
6
 70
0
 10
611.0
 20
282.0
 10
611.0
 20
239.0
 10
612.0
 20
239.0
 10
612.0
 20
281.0
 10
622.0
 20
281.0
 10
611.0
 20
282.0
  0
LWPOLYLINE
  5
42
330
17
100
AcDbEntity
  8
0
100
AcDbPolyline
 90
40
 70
0
 10
684.0
 20
281.0
 10
685.0
 20
275.0
 10
676.0
 20
275.0
 10
676.0
 20
221.0
 10
744.0
 20
221.0
 10
744.0
 20
264.0
 10
744.0031
 20
264.8892
 10
744.0093
 20
265.8011
 10
744.0135
 20
266.7311
 10
744.0109
 20
267.6747
 10
743.9964
 20
268.6276
 10
743.9652
 20
269.5853
 10
743.9123
 20
270.5433
 10
743.8328
 20
271.4972
 10
743.7216
 20
272.4425
 10
743.5739
 20
273.3747
 10
743.3848
 20
274.2895
 10
743.1492
 20
275.1823
 10
742.8622
 20
276.0486
 10
742.5189
 20
276.8842
 10
742.1144
 20
277.6844
 10
741.6437
 20
278.4449
 10
741.1018
 20
279.1611
 10
740.4839
 20
279.8287
 10
739.7849
 20
280.4431
 10
739.0
 20
281.0
 10
739.0
 20
275.0
 10
725.0
 20
275.0
 10
724.0
 20
267.0
 10
722.0
 20
269.0
 10
717.0
 20
269.0
 10
716.0
 20
269.0
 10
712.0
 20
267.0
 10
713.0
 20
275.0
 10
691.0
 20
275.0
 10
691.0
 20
279.0
 10
690.0
 20
279.0
 10
689.0
 20
276.0
 10
688.0
 20
276.0
 10
684.0
 20
281.0
  0
LWPOLYLINE
  5
43
330
17
100
AcDbEntity
  8
0
100
AcDbPolyline
 90
49
 70
0
 10
694.0
 20
277.0
 10
736.0
 20
277.0
 10
736.0
 20
279.0
 10
735.0042
 20
278.9983
 10
734.0074
 20
278.9934
 10
733.0097
 20
278.9858
 10
732.0112
 20
278.9757
 10
731.0119
 20
278.9636
 10
730.012
 20
278.9497
 10
729.0114
 20
278.9345
 10
728.0103
 20
278.9182
 10
727.0088
 20
278.9013
 10
726.0068
 20
278.8841
 10
725.0045
 20
278.867
 10
724.002
 20
278.8502
 10
722.9993
 20
278.8342
 10
721.9966
 20
278.8193
 10
720.9938
 20
278.8059
 10
719.991
 20
278.7943
 10
718.9884
 20
278.785
 10
717.986
 20
278.7781
 10
716.9839
 20
278.7741
 10
715.9821
 20
278.7734
 10
714.9808
 20
278.7763
 10
713.9799
 20
278.7832
 10
712.9796
 20
278.7943
 10
711.98
 20
278.8101
 10
710.9811
 20
278.831
 10
709.983
 20
278.8572
 10
708.9857
 20
278.8892
 10
707.9894
 20
278.9272
 10
706.9941
 20
278.9717
 10
706.0
 20
279.0231
 10
705.0932
 20
279.1026
 10
704.2059
 20
279.2293
 10
703.3383
 20
279.3873
 10
702.4907
 20
279.5605
 10
701.6635
 20
279.733
 10
700.857
 20
279.8886
 10
700.0714
 20
280.0115
 10
699.3072
 20
280.0856
 10
698.5646
 20
280.0948
 10
697.844
 20
280.0232
 10
697.1457
 20
279.8548
 10
696.4701
 20
279.5735
 10
695.8173
 20
279.1634
 10
695.1878
 20
278.6085
 10
694.5819
 20
277.8927
 10
694.0
 20
277.0
  0
LWPOLYLINE
  5
44
330
17
100
AcDbEntity
  8
0
100
AcDbPolyline
 90
76
 70
0
 10
748.0
 20
281.0
 10
747.7144
 20
280.1279
 10
747.4445
 20
279.2461
 10
747.1898
 20
278.3549
 10
746.9501
 20
277.4545
 10
746.725
 20
276.5453
 10
746.514
 20
275.6276
 10
746.3168
 20
274.7017
 10
746.1331
 20
273.7678
 10
745.9625
 20
272.8264
 10
745.8046
 20
271.8776
 10
745.659
 20
270.9219
 10
745.5254
 20
269.9595
 10
745.4035
 20
268.9907
 10
745.2927
 20
268.0158
 10
745.1929
 20
267.0352
 10
745.1035
 20
266.0491
 10
745.0243
 20
265.0579
 10
744.9549
 20
264.0618
 10
744.8949
 20
263.0612
 10
744.8439
 20
262.0563
 10
744.8016
 20
261.0476
 10
744.7676
 20
260.0352
 10
744.7415
 20
259.0195
 10
744.723
 20
258.0008
 10
744.7117
 20
256.9794
 10
744.7072
 20
255.9556
 10
744.7092
 20
254.9297
 10
744.7173
 20
253.9021
 10
744.7312
 20
252.873
 10
744.7503
 20
251.8427
 10
744.7745
 20
250.8116
 10
744.8033
 20
249.7799
 10
744.8364
 20
248.7479
 10
744.8734
 20
247.7161
 10
744.9139
 20
246.6846
 10
744.9575
 20
245.6538
 10
745.004
 20
244.6239
 10
745.0528
 20
243.5954
 10
745.1037
 20
242.5684
 10
745.1564
 20
241.5434
 10
745.2103
 20
240.5205
 10
745.2652
 20
239.5002
 10
745.3206
 20
238.4827
 10
745.3763
 20
237.4683
 10
745.4318
 20
236.4574
 10
745.4868
 20
235.4502
 10
745.541
 20
234.4471
 10
745.5938
 20
233.4483
 10
745.6451
 20
232.4542
 10
745.6944
 20
231.465
 10
745.7413
 20
230.4811
 10
745.7855
 20
229.5028
 10
745.8266
 20
228.5304
 10
745.8642
 20
227.5642
 10
745.898
 20
226.6045
 10
745.9276
 20
225.6516
 10
745.9527
 20
224.7058
 10
745.9728
 20
223.7674
 10
745.9876
 20
222.8368
 10
745.9968
 20
221.9142
 10
746.0
 20
221.0
 10
812.0
 20
221.0
 10
812.0
 20
271.0
 10
804.0
 20
271.0
 10
802.0
 20
281.0
 10
799.0
 20
277.0
 10
796.0
 20
279.0
 10
796.0
 20
275.0
 10
799.0
 20
276.0
 10
800.0
 20
273.0
 10
787.0
 20
272.0
 10
787.0
 20
275.0
 10
750.0
 20
275.0
 10
750.0
 20
281.0
 10
748.0
 20
281.0
  0
LWPOLYLINE
  5
45
330
17
100
AcDbEntity
  8
0
100
AcDbPolyline
 90
79
 70
0
 10
835.0
 20
281.0
 10
834.0
 20
275.0
 10
831.0
 20
275.0
 10
830.0
 20
268.0
 10
814.0
 20
271.0
 10
815.0
 20
266.0
 10
827.0
 20
266.0
 10
827.0
 20
265.0
 10
825.0
 20
253.0
 10
814.0
 20
253.0
 10
814.0
 20
221.0
 10
892.0
 20
221.0
 10
891.0
 20
229.0
 10
896.0
 20
229.0
 10
896.0
 20
228.0
 10
894.0
 20
221.0
 10
934.0
 20
221.0
 10
934.0
 20
236.0
 10
911.0
 20
236.0
 10
911.0
 20
240.0
 10
897.0
 20
240.0
 10
898.0
 20
230.0
 10
897.0
 20
230.0
 10
891.0
 20
232.0
 10
895.0
 20
235.0
 10
893.0
 20
248.0
 10
892.0
 20
248.0
 10
892.0
 20
245.0
 10
888.0
 20
245.0
 10
888.0
 20
249.0
 10
895.0
 20
249.0
 10
895.0
 20
254.0
 10
891.0
 20
257.0
 10
897.0
 20
253.0
 10
908.0
 20
253.0
 10
908.0
 20
245.0
 10
897.0
 20
246.0
 10
897.0
 20
242.0
 10
910.0
 20
242.0
 10
910.0
 20
261.0
 10
909.218
 20
261.0182
 10
908.3789
 20
261.0649
 10
907.4959
 20
261.1281
 10
906.582
 20
261.1958
 10
905.6505
 20
261.2561
 10
904.7146
 20
261.2969
 10
903.7872
 20
261.3063
 10
902.8817
 20
261.2723
 10
902.0111
 20
261.1829
 10
901.1886
 20
261.0261
 10
900.4273
 20
260.79
 10
899.7404
 20
260.4626
 10
899.1411
 20
260.0318
 10
898.6425
 20
259.4858
 10
898.2577
 20
258.8125
 10
898.0
 20
258.0
 10
897.0
 20
258.0
 10
889.0
 20
267.0
 10
888.0
 20
267.0
 10
888.0
 20
263.0
 10
885.0
 20
263.0
 10
885.0
 20
275.0
 10
886.233
 20
274.9501
 10
887.2871
 20
275.007
 10
888.176
 20
275.1748
 10
888.9136
 20
275.4576
 10
889.5136
 20
275.8595
 10
889.99
 20
276.3845
 10
890.3565
 20
277.0367
 10
890.6269
 20
277.8203
 10
890.8151
 20
278.7393
 10
890.9348
 20
279.7978
 10
891.0
 20
281.0
 10
888.0
 20
277.0
 10
884.0
 20
279.0
 10
885.0
 20
275.0
 10
837.0
 20
275.0
 10
837.0
 20
281.0
 10
835.0
 20
281.0
  0
LWPOLYLINE
  5
46
330
17
100
AcDbEntity
  8
0
100
AcDbPolyline
 90
8
 70
0
 10
912.0
 20
280.0
 10
912.0
 20
237.0
 10
935.0
 20
237.0
 10
935.0
 20
238.0
 10
913.0
 20
238.0
 10
913.0
 20
279.0
 10
917.0
 20
279.0
 10
912.0
 20
280.0
  0
LWPOLYLINE
  5
47
330
17
100
AcDbEntity
  8
0
100
AcDbPolyline
 90
5
 70
0
 10
841.0
 20
279.0
 10
841.0
 20
277.0
 10
882.0
 20
277.0
 10
882.0
 20
279.0
 10
841.0
 20
279.0
  0
LWPOLYLINE
  5
48
330
17
100
AcDbEntity
  8
0
100
AcDbPolyline
 90
60
 70
0
 10
636.0
 20
258.0
 10
636.0
 20
251.0
 10
650.0
 20
251.0
 10
653.0
 20
244.0
 10
650.0
 20
239.0
 10
635.0
 20
239.0
 10
637.0
 20
236.0
 10
635.0
 20
224.0
 10
638.0
 20
224.0
 10
640.0
 20
228.0
 10
639.0
 20
226.0
 10
640.0
 20
226.0
 10
638.0
 20
234.0
 10
643.0
 20
233.0
 10
645.0
 20
229.0
 10
642.0
 20
224.0
 10
643.0
 20
224.0
 10
645.0
 20
228.0
 10
644.0
 20
226.0
 10
645.0
 20
226.0
 10
645.0
 20
233.0
 10
650.0
 20
229.0
 10
647.0
 20
228.0
 10
647.0
 20
227.0
 10
650.0
 20
228.0
 10
650.0
 20
224.0
 10
651.0
 20
224.0
 10
651.0
 20
234.0
 10
647.0
 20
236.0
 10
658.0
 20
239.0
 10
659.0
 20
235.0
 10
662.0
 20
236.0
 10
664.0
 20
229.0
 10
661.0
 20
224.0
 10
662.0
 20
224.0
 10
662.0
 20
228.0
 10
665.0
 20
227.0
 10
664.0
 20
233.0
 10
669.0
 20
229.0
 10
666.0
 20
224.0
 10
667.0
 20
224.0
 10
667.0
 20
228.0
 10
669.0
 20
228.0
 10
669.0
 20
224.0
 10
670.0
 20
224.0
 10
669.0
 20
233.0
 10
674.0
 20
231.0
 10
672.0
 20
226.0
 10
673.0
 20
226.0
 10
672.0
 20
228.0
 10
673.0
 20
228.0
 10
674.0
 20
224.0
 10
675.0
 20
224.0
 10
675.0
 20
239.0
 10
658.0
 20
239.0
 10
655.0
 20
244.0
 10
657.0
 20
255.0
 10
650.0
 20
254.0
 10
650.0
 20
258.0
 10
636.0
 20
258.0
  0
LWPOLYLINE
  5
49
330
17
100
AcDbEntity
  8
0
100
AcDbPolyline
 90
17
 70
0
 10
635.0
 20
223.0
 10
635.0
 20
220.0
 10
664.0
 20
220.0
 10
664.9715
 20
219.9878
 10
665.9415
 20
219.9611
 10
666.9047
 20
219.935
 10
667.8558
 20
219.9244
 10
668.7896
 20
219.9443
 10
669.7007
 20
220.0097
 10
670.5839
 20
220.1356
 10
671.4338
 20
220.3369
 10
672.2452
 20
220.6287
 10
673.0128
 20
221.0259
 10
673.7314
 20
221.5435
 10
674.3955
 20
222.1965
 10
675.0
 20
223.0
 10
635.0
 20
223.0
  0
LWPOLYLINE
  5
4A
330
17
100
AcDbEntity
  8
0
100
AcDbPolyline
 90
47
 70
0
 10
575.0
 20
214.0
 10
575.0
 20
213.0
 10
618.0
 20
213.0
 10
617.2218
 20
213.3082
 10
616.419
 20
213.5912
 10
615.5926
 20
213.8498
 10
614.7437
 20
214.0849
 10
613.8733
 20
214.2974
 10
612.9827
 20
214.4879
 10
612.0729
 20
214.6576
 10
611.1449
 20
214.8071
 10
610.2
 20
214.9373
 10
609.2392
 20
215.0491
 10
608.2637
 20
215.1434
 10
607.2744
 20
215.221
 10
606.2726
 20
215.2827
 10
605.2593
 20
215.3295
 10
604.2356
 20
215.3621
 10
603.2027
 20
215.3814
 10
602.1616
 20
215.3883
 10
601.1135
 20
215.3836
 10
600.0594
 20
215.3683
 10
599.0004
 20
215.343
 10
597.9377
 20
215.3088
 10
596.8724
 20
215.2664
 10
595.8055
 20
215.2166
 10
594.7382
 20
215.1605
 10
593.6716
 20
215.0987
 10
592.6067
 20
215.0323
 10
591.5447
 20
214.9619
 10
590.4867
 20
214.8885
 10
589.4338
 20
214.813
 10
588.387
 20
214.7361
 10
587.3475
 20
214.6588
 10
586.3165
 20
214.5818
 10
585.2949
 20
214.5061
 10
584.2839
 20
214.4325
 10
583.2847
 20
214.3618
 10
582.2982
 20
214.295
 10
581.3256
 20
214.2328
 10
580.3681
 20
214.1762
 10
579.4267
 20
214.1259
 10
578.5025
 20
214.0828
 10
577.5966
 20
214.0479
 10
576.7102
 20
214.0218
 10
575.8442
 20
214.0056
 10
575.0
 20
214.0
  0
LWPOLYLINE
  5
4B
330
17
100
AcDbEntity
  8
0
100
AcDbPolyline
 90
47
 70
0
 10
575.0
 20
212.0
 10
575.0
 20
211.0
 10
618.0
 20
211.0
 10
617.2218
 20
211.3082
 10
616.419
 20
211.5912
 10
615.5926
 20
211.8498
 10
614.7436
 20
212.0849
 10
613.8733
 20
212.2974
 10
612.9827
 20
212.4879
 10
612.0728
 20
212.6576
 10
611.1449
 20
212.8071
 10
610.2
 20
212.9373
 10
609.2392
 20
213.0491
 10
608.2636
 20
213.1434
 10
607.2744
 20
213.221
 10
606.2725
 20
213.2827
 10
605.2592
 20
213.3295
 10
604.2356
 20
213.3621
 10
603.2027
 20
213.3814
 10
602.1616
 20
213.3883
 10
601.1134
 20
213.3836
 10
600.0593
 20
213.3683
 10
599.0004
 20
213.343
 10
597.9377
 20
213.3088
 10
596.8724
 20
213.2664
 10
595.8055
 20
213.2166
 10
594.7382
 20
213.1605
 10
593.6715
 20
213.0987
 10
592.6067
 20
213.0323
 10
591.5447
 20
212.9619
 10
590.4867
 20
212.8885
 10
589.4337
 20
212.813
 10
588.387
 20
212.7361
 10
587.3475
 20
212.6588
 10
586.3165
 20
212.5818
 10
585.2949
 20
212.5061
 10
584.2839
 20
212.4325
 10
583.2847
 20
212.3618
 10
582.2982
 20
212.295
 10
581.3256
 20
212.2328
 10
580.3681
 20
212.1762
 10
579.4267
 20
212.1259
 10
578.5025
 20
212.0828
 10
577.5966
 20
212.0479
 10
576.7102
 20
212.0218
 10
575.8442
 20
212.0056
 10
575.0
 20
212.0
  0
LWPOLYLINE
  5
4C
330
17
100
AcDbEntity
  8
0
100
AcDbPolyline
 90
174
 70
0
 10
269.0
 20
61.520832
 10
268.1783
 20
61.3383
 10
267.3824
 20
61.1306
 10
266.612
 20
60.8983
 10
265.867
 20
60.6422
 10
265.1473
 20
60.3629
 10
264.4526
 20
60.0612
 10
263.7829
 20
59.7377
 10
263.138
 20
59.3932
 10
262.5178
 20
59.0282
 10
261.922
 20
58.6436
 10
261.3506
 20
58.24
 10
260.8034
 20
57.8181
 10
260.2803
 20
57.3786
 10
259.781
 20
56.9222
 10
259.3056
 20
56.4496
 10
258.8537
 20
55.9614
 10
258.4253
 20
55.4585
 10
258.0201
 20
54.9414
 10
257.6382
 20
54.4109
 10
257.2792
 20
53.8676
 10
256.9432
 20
53.3123
 10
256.6298
 20
52.7456
 10
256.339
 20
52.1683
 10
256.0706
 20
51.581
 10
255.8245
 20
50.9844
 10
255.6005
 20
50.3793
 10
255.3984
 20
49.7663
 10
255.2182
 20
49.1461
 10
255.0596
 20
48.5194
 10
254.9226
 20
47.8869
 10
254.8069
 20
47.2493
 10
254.7125
 20
46.6073
 10
254.6391
 20
45.9615
 10
254.5867
 20
45.3128
 10
254.555
 20
44.6617
 10
254.544
 20
44.009
 10
254.5535
 20
43.3553
 10
254.5832
 20
42.7014
 10
254.6332
 20
42.048
 10
254.7032
 20
41.3956
 10
254.793
 20
40.7452
 10
254.9026
 20
40.0972
 10
255.0318
 20
39.4525
 10
255.1804
 20
38.8117
 10
255.3484
 20
38.1755
 10
255.5354
 20
37.5446
 10
255.7414
 20
36.9198
 10
255.9663
 20
36.3016
 10
256.2099
 20
35.6908
 10
256.472
 20
35.0881
 10
256.7525
 20
34.4942
 10
257.0512
 20
33.9097
 10
257.3681
 20
33.3354
 10
257.7028
 20
32.772
 10
258.0554
 20
32.2201
 10
258.4256
 20
31.6805
 10
258.8134
 20
31.1538
 10
259.2184
 20
30.6408
 10
259.6407
 20
30.1421
 10
260.0801
 20
29.6584
 10
260.5363
 20
29.1904
 10
261.0093
 20
28.7389
 10
261.4989
 20
28.3044
 10
262.0049
 20
27.8878
 10
262.5273
 20
27.4897
 10
263.0658
 20
27.1107
 10
263.6203
 20
26.7517
 10
264.1907
 20
26.4132
 10
264.7768
 20
26.096
 10
265.3785
 20
25.8007
 10
265.9955
 20
25.5282
 10
266.6279
 20
25.2789
 10
267.2753
 20
25.0538
 10
267.9377
 20
24.8533
 10
268.615
 20
24.6784
 10
269.3069
 20
24.5295
 10
270.0133
 20
24.4075
 10
270.7341
 20
24.313
 10
271.4691
 20
24.2467
 10
272.2182
 20
24.2093
 10
272.9812
 20
24.2015
 10
273.758
 20
24.2241
 10
274.5484
 20
24.2776
 10
275.3523
 20
24.3628
 10
276.1695
 20
24.4804
 10
277.0
 20
24.6311
 10
277.8223
 20
24.8107
 10
278.6193
 20
25.0152
 10
279.3911
 20
25.2438
 10
280.1379
 20
25.4959
 10
280.8597
 20
25.7707
 10
281.5567
 20
26.0676
 10
282.2291
 20
26.386
 10
282.8771
 20
26.7251
 10
283.5006
 20
27.0843
 10
284.1
 20
27.4628
 10
284.6754
 20
27.8601
 10
285.2268
 20
28.2755
 10
285.7544
 20
28.7082
 10
286.2585
 20
29.1577
 10
286.739
 20
29.6231
 10
287.1962
 20
30.1039
 10
287.6303
 20
30.5994
 10
288.0413
 20
31.1089
 10
288.4293
 20
31.6317
 10
288.7947
 20
32.1672
 10
289.1374
 20
32.7147
 10
289.4577
 20
33.2734
 10
289.7556
 20
33.8428
 10
290.0314
 20
34.4222
 10
290.2851
 20
35.0108
 10
290.5169
 20
35.608
 10
290.727
 20
36.2132
 10
290.9155
 20
36.8256
 10
291.0826
 20
37.4446
 10
291.2283
 20
38.0695
 10
291.3529
 20
38.6996
 10
291.4564
 20
39.3343
 10
291.539
 20
39.9729
 10
291.601
 20
40.6147
 10
291.6423
 20
41.259
 10
291.6632
 20
41.9052
 10
291.6638
 20
42.5525
 10
291.6442
 20
43.2004
 10
291.6046
 20
43.8481
 10
291.5452
 20
44.495
 10
291.466
 20
45.1404
 10
291.3673
 20
45.7835
 10
291.2491
 20
46.4238
 10
291.1116
 20
47.0606
 10
290.955
 20
47.6931
 10
290.7794
 20
48.3208
 10
290.5849
 20
48.9429
 10
290.3717
 20
49.5588
 10
290.1399
 20
50.1677
 10
289.8898
 20
50.7691
 10
289.6213
 20
51.3622
 10
289.3347
 20
51.9464
 10
289.0301
 20
52.5209
 10
288.7077
 20
53.0852
 10
288.3675
 20
53.6385
 10
288.0098
 20
54.1802
 10
287.6347
 20
54.7096
 10
287.2423
 20
55.226
 10
286.8328
 20
55.7287
 10
286.4063
 20
56.2171
 10
285.963
 20
56.6905
 10
285.503
 20
57.1482
 10
285.0264
 20
57.5895
 10
284.5335
 20
58.0138
 10
284.0242
 20
58.4205
 10
283.4989
 20
58.8087
 10
282.9576
 20
59.1779
 10
282.4005
 20
59.5273
 10
281.8276
 20
59.8564
 10
281.2393
 20
60.1643
 10
280.6355
 20
60.4505
 10
280.0165
 20
60.7143
 10
279.3824
 20
60.955
 10
278.7334
 20
61.1719
 10
278.0695
 20
61.3643
 10
277.391
 20
61.5316
 10
276.6979
 20
61.6732
 10
275.9904
 20
61.7882
 10
275.2687
 20
61.8761
 10
274.533
 20
61.9361
 10
273.7832
 20
61.9677
 10
273.0197
 20
61.9701
 10
272.2425
 20
61.9426
 10
271.4518
 20
61.8846
 10
270.6477
 20
61.7954
 10
269.8303
 20
61.6744
 10
269.0
 20
61.5208
  0
LWPOLYLINE
  5
4D
330
17
100
AcDbEntity
  8
0
100
AcDbPolyline
 90
84
 70
0
 10
305.0
 20
43.0
 10
306.0245
 20
42.584
 10
307.0009
 20
42.2564
 10
307.9316
 20
42.0275
 10
308.8187
 20
41.9077
 10
309.6646
 20
41.9075
 10
310.4714
 20
42.0372
 10
311.2415
 20
42.3073
 10
311.9772
 20
42.7282
 10
312.6806
 20
43.3103
 10
313.3541
 20
44.0641
 10
314.0
 20
45.0
 10
315.0
 20
45.0
 10
315.0
 20
42.0
 10
320.0
 20
44.0
 10
325.0
 20
42.0
 10
325.0
 20
47.0
 10
326.0
 20
47.0
 10
326.0
 20
42.0
 10
333.0
 20
44.0
 10
334.0
 20
44.0
 10
341.0
 20
42.0
 10
340.99
 20
43.0209
 10
340.9618
 20
44.004
 10
340.9071
 20
44.9425
 10
340.8175
 20
45.8295
 10
340.6849
 20
46.6584
 10
340.5008
 20
47.4223
 10
340.2569
 20
48.1145
 10
339.9449
 20
48.7282
 10
339.5565
 20
49.2567
 10
339.0834
 20
49.6931
 10
338.5173
 20
50.0307
 10
337.8498
 20
50.2628
 10
337.0726
 20
50.3825
 10
336.1775
 20
50.3831
 10
335.156
 20
50.2579
 10
334.0
 20
50.0
 10
336.0
 20
45.0
 10
335.4816
 20
45.5044
 10
334.9163
 20
46.0258
 10
334.3078
 20
46.5579
 10
333.6597
 20
47.0944
 10
332.9757
 20
47.629
 10
332.2594
 20
48.1552
 10
331.5145
 20
48.6668
 10
330.7446
 20
49.1575
 10
329.9533
 20
49.6209
 10
329.1443
 20
50.0508
 10
328.3212
 20
50.4407
 10
327.4877
 20
50.7844
 10
326.6475
 20
51.0755
 10
325.8041
 20
51.3078
 10
324.9612
 20
51.4748
 10
324.1225
 20
51.5703
 10
323.2916
 20
51.5879
 10
322.4721
 20
51.5214
 10
321.6678
 20
51.3643
 10
320.8821
 20
51.1104
 10
320.1189
 20
50.7534
 10
319.3817
 20
50.2868
 10
318.6742
 20
49.7044
 10
318.0
 20
49.0
 10
317.0573
 20
49.6124
 10
316.1349
 20
50.118
 10
315.2347
 20
50.5193
 10
314.3585
 20
50.8191
 10
313.5082
 20
51.02
 10
312.6859
 20
51.1248
 10
311.8934
 20
51.1362
 10
311.1325
 20
51.0569
 10
310.4054
 20
50.8895
 10
309.7137
 20
50.6369
 10
309.0596
 20
50.3016
 10
308.4448
 20
49.8864
 10
307.8713
 20
49.394
 10
307.341
 20
48.8272
 10
306.8559
 20
48.1885
 10
306.4178
 20
47.4807
 10
306.0286
 20
46.7065
 10
305.6903
 20
45.8686
 10
305.4049
 20
44.9698
 10
305.1741
 20
44.0127
 10
305.0
 20
43.0
  0
LWPOLYLINE
  5
4E
330
17
100
AcDbEntity
  8
0
100
AcDbPolyline
 90
72
 70
0
 10
403.0
 20
51.0
 10
403.0
 20
42.0
 10
420.0
 20
44.0
 10
421.0
 20
44.0
 10
421.9027
 20
43.3757
 10
422.8181
 20
42.8683
 10
423.7392
 20
42.4947
 10
424.6592
 20
42.2715
 10
425.571
 20
42.2156
 10
426.468
 20
42.3438
 10
427.343
 20
42.6727
 10
428.1893
 20
43.2191
 10
429.0
 20
44.0
 10
430.0
 20
44.0
 10
430.864
 20
43.1298
 10
431.632
 20
42.6947
 10
432.3679
 20
42.6947
 10
433.1359
 20
43.1298
 10
434.0
 20
44.0
 10
435.0
 20
44.0
 10
440.0
 20
42.0
 10
439.7355
 20
42.8541
 10
439.47
 20
43.7047
 10
439.1997
 20
44.5442
 10
438.9204
 20
45.3649
 10
438.6284
 20
46.1591
 10
438.3196
 20
46.9191
 10
437.9902
 20
47.6372
 10
437.6361
 20
48.3058
 10
437.2534
 20
48.9172
 10
436.8383
 20
49.4638
 10
436.3867
 20
49.9378
 10
435.8948
 20
50.3315
 10
435.3585
 20
50.6374
 10
434.7739
 20
50.8478
 10
434.1372
 20
50.9549
 10
433.4443
 20
50.9511
 10
432.6914
 20
50.8287
 10
431.8744
 20
50.5801
 10
430.9894
 20
50.1975
 10
430.0326
 20
49.6734
 10
429.0
 20
49.0
 10
428.0911
 20
49.6211
 10
427.2005
 20
50.0985
 10
426.3302
 20
50.426
 10
425.4826
 20
50.5974
 10
424.6599
 20
50.6064
 10
423.8644
 20
50.447
 10
423.0984
 20
50.1128
 10
422.3642
 20
49.5977
 10
421.6639
 20
48.8955
 10
421.0
 20
48.0
 10
420.133
 20
48.5891
 10
419.2751
 20
49.1031
 10
418.4297
 20
49.5379
 10
417.6008
 20
49.8894
 10
416.7919
 20
50.1535
 10
416.0068
 20
50.3259
 10
415.2491
 20
50.4027
 10
414.5227
 20
50.3796
 10
413.8312
 20
50.2526
 10
413.1782
 20
50.0175
 10
412.5676
 20
49.6702
 10
412.003
 20
49.2067
 10
411.4881
 20
48.6227
 10
411.0266
 20
47.9141
 10
410.6223
 20
47.0769
 10
410.2789
 20
46.1069
 10
410.0
 20
45.0
 10
406.0
 20
45.0
 10
406.0
 20
51.0
 10
403.0
 20
51.0
  0
LWPOLYLINE
  5
4F
330
17
100
AcDbEntity
  8
0
100
AcDbPolyline
 90
67
 70
0
 10
342.0
 20
45.0
 10
342.0
 20
39.0
 10
305.0
 20
39.0
 10
305.1081
 20
38.1824
 10
305.2969
 20
37.4323
 10
305.5624
 20
36.7472
 10
305.9006
 20
36.1242
 10
306.3072
 20
35.5607
 10
306.7783
 20
35.0539
 10
307.3099
 20
34.6013
 10
307.8977
 20
34.2001
 10
308.5378
 20
33.8475
 10
309.2261
 20
33.541
 10
309.9585
 20
33.2778
 10
310.731
 20
33.0553
 10
311.5394
 20
32.8706
 10
312.3798
 20
32.7213
 10
313.248
 20
32.6045
 10
314.14
 20
32.5175
 10
315.0517
 20
32.4577
 10
315.9791
 20
32.4224
 10
316.918
 20
32.4089
 10
317.8644
 20
32.4145
 10
318.8143
 20
32.4365
 10
319.7635
 20
32.4722
 10
320.7081
 20
32.5189
 10
321.6438
 20
32.574
 10
322.5668
 20
32.6347
 10
323.4728
 20
32.6983
 10
324.3579
 20
32.7622
 10
325.2179
 20
32.8236
 10
326.0488
 20
32.8799
 10
326.8465
 20
32.9284
 10
327.607
 20
32.9664
 10
328.3262
 20
32.9911
 10
329.0
 20
33.0
 10
327.0
 20
37.0
 10
327.0
 20
38.0
 10
334.0
 20
38.0
 10
336.0
 20
33.0
 10
339.0
 20
38.0
 10
339.0
 20
37.0
 10
337.0
 20
33.0
 10
337.8772
 20
32.9866
 10
338.7796
 20
32.9525
 10
339.6999
 20
32.9069
 10
340.631
 20
32.8587
 10
341.5656
 20
32.8171
 10
342.4967
 20
32.791
 10
343.4169
 20
32.7897
 10
344.3191
 20
32.8221
 10
345.1961
 20
32.8973
 10
346.0408
 20
33.0244
 10
346.8459
 20
33.2124
 10
347.6042
 20
33.4705
 10
348.3086
 20
33.8077
 10
348.9519
 20
34.2331
 10
349.5269
 20
34.7557
 10
350.0264
 20
35.3846
 10
350.4432
 20
36.1289
 10
350.7701
 20
36.9977
 10
351.0
 20
38.0
 10
440.0
 20
38.0
 10
440.0
 20
39.0
 10
344.0
 20
39.0
 10
345.0
 20
45.0
 10
342.0
 20
45.0
  0
LWPOLYLINE
  5
50
330
17
100
AcDbEntity
  8
0
100
AcDbPolyline
 90
66
 70
0
 10
256.0
 20
42.0
 10
256.3002
 20
41.1356
 10
256.6241
 20
40.2955
 10
256.9709
 20
39.4798
 10
257.3399
 20
38.6886
 10
257.7302
 20
37.9222
 10
258.1411
 20
37.1807
 10
258.5717
 20
36.4641
 10
259.0213
 20
35.7728
 10
259.4891
 20
35.1068
 10
259.9742
 20
34.4663
 10
260.4759
 20
33.8514
 10
260.9934
 20
33.2624
 10
261.5259
 20
32.6992
 10
262.0726
 20
32.1622
 10
262.6327
 20
31.6515
 10
263.2054
 20
31.1671
 10
263.79
 20
30.7094
 10
264.3856
 20
30.2783
 10
264.9914
 20
29.8741
 10
265.6067
 20
29.497
 10
266.2306
 20
29.147
 10
266.8624
 20
28.8244
 10
267.5013
 20
28.5293
 10
268.1465
 20
28.2618
 10
268.7971
 20
28.0221
 10
269.4524
 20
27.8104
 10
270.1117
 20
27.6268
 10
270.774
 20
27.4714
 10
271.4386
 20
27.3445
 10
272.1048
 20
27.2461
 10
272.7717
 20
27.1764
 10
273.4386
 20
27.1357
 10
274.1045
 20
27.1239
 10
274.7689
 20
27.1414
 10
275.4307
 20
27.1881
 10
276.0894
 20
27.2644
 10
276.744
 20
27.3703
 10
277.3938
 20
27.5061
 10
278.038
 20
27.6718
 10
278.6758
 20
27.8676
 10
279.3064
 20
28.0936
 10
279.929
 20
28.3501
 10
280.5428
 20
28.6371
 10
281.147
 20
28.9549
 10
281.7409
 20
29.3036
 10
282.3236
 20
29.6832
 10
282.8944
 20
30.0941
 10
283.4524
 20
30.5363
 10
283.9968
 20
31.01
 10
284.527
 20
31.5154
 10
285.042
 20
32.0526
 10
285.5411
 20
32.6217
 10
286.0234
 20
33.2229
 10
286.4883
 20
33.8564
 10
286.9349
 20
34.5223
 10
287.3624
 20
35.2208
 10
287.77
 20
35.9521
 10
288.1569
 20
36.7162
 10
288.5224
 20
37.5133
 10
288.8656
 20
38.3436
 10
289.1857
 20
39.2073
 10
289.482
 20
40.1045
 10
289.7537
 20
41.0353
 10
290.0
 20
42.0
 10
256.0
 20
42.0
  0
ENDSEC
  0
SECTION
  2
OBJECTS
  0
DICTIONARY
  5
A
330
0
100
AcDbDictionary
281
1
  3
ACAD_COLOR
350
B
  3
ACAD_GROUP
350
C
  3
ACAD_LAYOUT
350
D
  3
ACAD_MATERIAL
350
E
  3
ACAD_MLEADERSTYLE
350
F
  3
ACAD_MLINESTYLE
350
10
  3
ACAD_PLOTSETTINGS
350
11
  3
ACAD_PLOTSTYLENAME
350
12
  3
ACAD_SCALELIST
350
14
  3
ACAD_TABLESTYLE
350
15
  3
ACAD_VISUALSTYLE
350
16
  3
EZDXF_META
350
2D
  0
DICTIONARY
  5
B
330
A
100
AcDbDictionary
281
1
  0
DICTIONARY
  5
C
330
A
100
AcDbDictionary
281
1
  0
DICTIONARY
  5
D
330
A
100
AcDbDictionary
281
1
  3
Model
350
1A
  3
Layout1
350
1E
  0
DICTIONARY
  5
E
330
A
100
AcDbDictionary
281
1
  3
ByBlock
350
1F
  3
ByLayer
350
20
  3
Global
350
21
  0
DICTIONARY
  5
F
330
A
100
AcDbDictionary
281
1
  3
Standard
350
2C
  0
DICTIONARY
  5
10
330
A
100
AcDbDictionary
281
1
  3
Standard
350
22
  0
DICTIONARY
  5
11
330
A
100
AcDbDictionary
281
1
  0
ACDBDICTIONARYWDFLT
  5
12
330
A
100
AcDbDictionary
281
1
  3
Normal
350
13
100
AcDbDictionaryWithDefault
340
13
  0
ACDBPLACEHOLDER
  5
13
330
12
  0
DICTIONARY
  5
14
330
A
100
AcDbDictionary
281
1
  0
DICTIONARY
  5
15
330
A
100
AcDbDictionary
281
1
  0
DICTIONARY
  5
16
330
A
100
AcDbDictionary
281
1
  0
LAYOUT
  5
1A
330
D
100
AcDbPlotSettings
  1

  4
A3
  6

 40
7.5
 41
20.0
 42
7.5
 43
20.0
 44
420.0
 45
297.0
 46
0.0
 47
0.0
 48
0.0
 49
0.0
140
0.0
141
0.0
142
1.0
143
1.0
 70
1024
 72
1
 73
0
 74
5
  7

 75
16
 76
0
 77
2
 78
300
147
1.0
148
0.0
149
0.0
100
AcDbLayout
  1
Model
 70
1
 71
0
 10
0.0
 20
0.0
 11
420.0
 21
297.0
 12
0.0
 22
0.0
 32
0.0
 14
1e+20
 24
1e+20
 34
1e+20
 15
-1e+20
 25
-1e+20
 35
-1e+20
146
0.0
 13
0.0
 23
0.0
 33
0.0
 16
1.0
 26
0.0
 36
0.0
 17
0.0
 27
1.0
 37
0.0
 76
1
330
17
  0
LAYOUT
  5
1E
330
D
100
AcDbPlotSettings
  1

  4
A3
  6

 40
7.5
 41
20.0
 42
7.5
 43
20.0
 44
420.0
 45
297.0
 46
0.0
 47
0.0
 48
0.0
 49
0.0
140
0.0
141
0.0
142
1.0
143
1.0
 70
0
 72
1
 73
0
 74
5
  7

 75
16
 76
0
 77
2
 78
300
147
1.0
148
0.0
149
0.0
100
AcDbLayout
  1
Layout1
 70
1
 71
1
 10
0.0
 20
0.0
 11
420.0
 21
297.0
 12
0.0
 22
0.0
 32
0.0
 14
1e+20
 24
1e+20
 34
1e+20
 15
-1e+20
 25
-1e+20
 35
-1e+20
146
0.0
 13
0.0
 23
0.0
 33
0.0
 16
1.0
 26
0.0
 36
0.0
 17
0.0
 27
1.0
 37
0.0
 76
1
330
1B
  0
MATERIAL
  5
1F
102
{ACAD_REACTORS
330
E
102
}
330
E
100
AcDbMaterial
  1
ByBlock
  2

 70
0
 40
1.0
 71
1
 41
1.0
 91
-1023410177
 42
1.0
 72
1
  3

 73
1
 74
1
 75
1
 44
0.5
 73
0
 45
1.0
 46
1.0
 77
1
  4

 78
1
 79
1
170
1
 48
1.0
171
1
  6

172
1
173
1
174
1
140
1.0
141
1.0
175
1
  7

176
1
177
1
178
1
143
1.0
179
1
  8

270
1
271
1
272
1
145
1.0
146
1.0
273
1
  9

274
1
275
1
276
1
 42
1.0
 72
1
  3

 73
1
 74
1
 75
1
 94
63
  0
MATERIAL
  5
20
102
{ACAD_REACTORS
330
E
102
}
330
E
100
AcDbMaterial
  1
ByLayer
  2

 70
0
 40
1.0
 71
1
 41
1.0
 91
-1023410177
 42
1.0
 72
1
  3

 73
1
 74
1
 75
1
 44
0.5
 73
0
 45
1.0
 46
1.0
 77
1
  4

 78
1
 79
1
170
1
 48
1.0
171
1
  6

172
1
173
1
174
1
140
1.0
141
1.0
175
1
  7

176
1
177
1
178
1
143
1.0
179
1
  8

270
1
271
1
272
1
145
1.0
146
1.0
273
1
  9

274
1
275
1
276
1
 42
1.0
 72
1
  3

 73
1
 74
1
 75
1
 94
63
  0
MATERIAL
  5
21
102
{ACAD_REACTORS
330
E
102
}
330
E
100
AcDbMaterial
  1
Global
  2

 70
0
 40
1.0
 71
1
 41
1.0
 91
-1023410177
 42
1.0
 72
1
  3

 73
1
 74
1
 75
1
 44
0.5
 73
0
 45
1.0
 46
1.0
 77
1
  4

 78
1
 79
1
170
1
 48
1.0
171
1
  6

172
1
173
1
174
1
140
1.0
141
1.0
175
1
  7

176
1
177
1
178
1
143
1.0
179
1
  8

270
1
271
1
272
1
145
1.0
146
1.0
273
1
  9

274
1
275
1
276
1
 42
1.0
 72
1
  3

 73
1
 74
1
 75
1
 94
63
  0
MLINESTYLE
  5
22
102
{ACAD_REACTORS
330
10
102
}
330
10
100
AcDbMlineStyle
  2
Standard
 70
0
  3

 62
256
 51
90.0
 52
90.0
 71
2
 49
0.5
 62
256
  6
BYLAYER
 49
-0.5
 62
256
  6
BYLAYER
  0
MLEADERSTYLE
  5
2C
102
{ACAD_REACTORS
330
F
102
}
330
F
100
AcDbMLeaderStyle
179
2
170
2
171
1
172
0
 90
2
 40
0.0
 41
0.0
173
1
 91
-1056964608
 92
-2
290
1
 42
2.0
291
1
 43
8.0
  3
Standard
 44
4.0
300

342
29
174
1
175
1
176
0
178
1
 93
-1056964608
 45
4.0
292
0
297
0
 46
4.0
 94
-1056964608
 47
1.0
 49
1.0
140
1.0
294
1
141
0.0
177
0
142
1.0
295
0
296
0
143
3.75
271
0
272
9
273
9
  0
DICTIONARY
  5
2D
330
A
100
AcDbDictionary
280
1
281
1
  3
CREATED_BY_EZDXF
350
2E
  3
WRITTEN_BY_EZDXF
350
53
  0
DICTIONARYVAR
  5
2E
330
2D
100
DictionaryVariables
280
0
  1
1.4.3 @ 2025-11-24T05:24:33.354966+00:00
  0
DICTIONARYVAR
  5
53
330
2D
100
DictionaryVariables
280
0
  1
1.4.3 @ 2025-11-24T05:24:33.374733+00:00
  0
ENDSEC
  0
EOF
